<?xml version="1.0" standalone="no"?>
<!DOCTYPE svg PUBLIC "-//W3C//DTD SVG 20010904//EN"
 "http://www.w3.org/TR/2001/REC-SVG-20010904/DTD/svg10.dtd">
<svg version="1.0" xmlns="http://www.w3.org/2000/svg"
 width="2550.000000pt" height="3300.000000pt" viewBox="0 0 2550.000000 3300.000000"
 preserveAspectRatio="xMidYMid meet">
<metadata>
Created by potrace 1.14, written by Peter Selinger 2001-2017
</metadata>
<g transform="translate(0.000000,3300.000000) scale(0.100000,-0.100000)"
fill="#000000" stroke="none">
<path d="M6350 28784 c-47 -7 -128 -14 -180 -14 -109 -1 -189 -10 -350 -39
-63 -12 -146 -26 -185 -32 -38 -6 -119 -24 -180 -41 -60 -17 -157 -43 -215
-58 -431 -115 -1053 -437 -1424 -735 -54 -44 -116 -93 -137 -110 -122 -97
-189 -159 -324 -297 -82 -86 -169 -176 -192 -202 -56 -61 -84 -61 -200 0 -76
40 -93 45 -128 39 -24 -3 -52 -17 -70 -34 -49 -47 -67 -52 -125 -39 -42 10
-56 9 -84 -4 -42 -21 -65 -50 -133 -173 -119 -215 -207 -372 -239 -427 -19
-31 -34 -59 -34 -62 0 -4 -11 -24 -25 -45 -26 -42 -86 -152 -144 -266 -20 -39
-45 -84 -57 -100 -11 -17 -44 -73 -72 -126 -71 -132 -70 -169 6 -251 23 -25
24 -32 18 -87 -9 -80 14 -127 86 -176 29 -19 56 -35 59 -35 7 0 197 -106 311
-175 98 -58 104 -75 54 -150 -124 -187 -374 -360 -661 -457 l-150 -51 -225 -6
c-184 -5 -231 -9 -256 -23 -30 -16 -68 -75 -169 -258 -23 -41 -66 -120 -97
-175 -30 -55 -70 -127 -88 -160 -18 -33 -64 -116 -103 -185 -132 -234 -143
-255 -157 -285 -8 -16 -22 -41 -31 -55 -9 -14 -31 -52 -49 -85 -18 -33 -48
-87 -66 -121 -47 -85 -46 -128 4 -181 21 -22 70 -57 108 -78 38 -21 130 -73
204 -115 74 -43 164 -93 200 -112 36 -19 94 -52 130 -73 36 -21 81 -47 100
-58 43 -24 187 -105 295 -164 44 -25 114 -63 156 -86 41 -23 136 -75 210 -116
74 -40 178 -98 233 -128 54 -31 148 -83 210 -116 135 -73 272 -148 295 -162 9
-5 68 -39 131 -74 63 -35 140 -79 170 -96 30 -18 80 -46 110 -62 30 -17 111
-61 180 -98 86 -47 136 -69 160 -69 68 -1 116 52 221 244 25 47 72 132 104
190 31 58 78 146 104 195 27 50 90 164 141 255 51 91 117 210 148 265 30 55
68 120 84 144 15 25 36 68 45 97 19 63 9 111 -37 179 -61 89 -110 177 -146
261 -20 49 -41 94 -44 99 -25 34 -70 312 -70 427 0 70 24 282 35 320 3 9 8 25
10 35 10 48 59 159 77 175 30 25 43 23 117 -21 149 -88 403 -223 436 -232 45
-13 69 -5 120 36 65 52 71 52 191 -11 60 -32 136 -74 170 -96 34 -21 64 -38
67 -38 3 0 40 -20 81 -45 42 -25 80 -45 84 -45 5 0 30 -14 58 -31 48 -31 140
-83 379 -212 147 -79 270 -147 484 -266 90 -50 166 -91 169 -91 3 0 13 -6 21
-14 16 -13 45 -30 221 -126 195 -107 291 -160 327 -183 62 -39 201 -107 219
-107 33 0 86 34 108 69 12 20 41 81 65 136 90 211 350 698 427 802 13 17 24
34 24 38 0 7 145 221 167 246 8 9 16 33 20 52 8 49 -22 94 -89 133 -89 52
-186 107 -333 189 -77 43 -169 95 -205 115 -36 21 -96 54 -135 75 -101 54
-155 84 -292 161 -67 38 -152 86 -190 106 -37 21 -79 44 -93 52 -70 40 -377
210 -465 257 -91 49 -247 136 -483 271 -51 29 -99 59 -105 67 -7 8 -12 47 -12
92 0 75 -1 79 -35 114 -19 20 -60 49 -90 65 -31 15 -107 58 -170 95 -63 37
-137 79 -163 94 -79 42 -100 67 -93 104 16 81 252 449 431 672 66 83 129 161
140 175 35 44 368 374 424 420 30 25 84 67 120 94 36 27 84 66 107 86 22 20
71 56 110 79 38 23 98 63 134 88 36 26 103 69 150 95 144 81 452 234 510 253
30 10 71 26 90 35 19 10 80 33 135 51 171 58 226 108 233 214 7 107 -40 174
-148 211 -92 32 -311 63 -445 64 -55 0 -140 7 -190 15 -109 18 -240 18 -355
-1z m460 -143 c154 -9 237 -19 390 -47 77 -14 100 -23 122 -45 16 -15 28 -33
28 -39 0 -29 -59 -68 -144 -94 -48 -15 -109 -38 -134 -51 -26 -12 -70 -30 -98
-39 -57 -19 -316 -144 -414 -201 -36 -21 -89 -51 -118 -66 -70 -37 -366 -235
-383 -255 -7 -9 -47 -41 -89 -72 -41 -31 -77 -59 -80 -62 -3 -3 -32 -28 -65
-55 -33 -27 -134 -121 -223 -209 -139 -136 -206 -209 -323 -351 -10 -11 -34
-41 -55 -66 -70 -84 -98 -121 -182 -243 -132 -192 -185 -280 -269 -444 -57
-111 -57 -142 0 -197 24 -22 79 -59 123 -82 43 -22 107 -58 141 -79 34 -21 97
-59 140 -83 123 -70 123 -70 117 -160 l-6 -76 35 -36 c20 -19 57 -46 84 -59
26 -13 73 -38 103 -56 164 -94 378 -214 475 -267 118 -64 156 -85 280 -155
136 -77 257 -143 340 -187 85 -45 200 -109 225 -125 8 -6 130 -73 270 -151
140 -77 269 -149 285 -159 17 -10 59 -34 95 -53 138 -74 183 -104 193 -129 6
-16 -43 -124 -62 -138 -15 -11 -147 -227 -269 -440 -38 -65 -215 -419 -255
-508 -46 -103 -67 -103 -240 -3 -49 28 -90 51 -92 51 -2 0 -30 15 -62 34 -32
18 -87 49 -123 68 -36 19 -94 52 -130 73 -36 21 -81 47 -100 58 -19 11 -75 42
-125 70 -49 27 -126 70 -170 95 -44 24 -111 61 -150 82 -38 20 -97 53 -130 72
-33 19 -94 53 -135 75 -216 115 -281 151 -345 190 -38 24 -73 43 -78 43 -5 0
-34 15 -65 33 -32 19 -95 56 -142 84 -47 28 -147 83 -222 122 -170 88 -191 90
-254 26 -24 -25 -51 -45 -60 -45 -19 0 -191 85 -215 106 -8 8 -18 14 -22 14
-3 0 -59 30 -124 66 -203 114 -228 121 -281 77 -54 -46 -142 -298 -164 -468
-16 -128 -21 -315 -9 -385 39 -244 45 -268 98 -394 29 -71 62 -141 73 -156 11
-16 20 -31 20 -34 0 -3 23 -40 51 -83 40 -62 49 -84 45 -106 -3 -16 -43 -94
-89 -175 -46 -81 -108 -192 -139 -247 -30 -55 -68 -122 -83 -150 -41 -74 -125
-227 -180 -330 -92 -172 -177 -320 -192 -337 -35 -39 -70 -31 -203 47 -48 28
-194 110 -355 200 -27 15 -81 46 -120 68 -38 22 -97 54 -130 72 -70 37 -305
167 -417 231 -42 24 -132 73 -200 109 -68 36 -130 70 -138 75 -27 18 -522 290
-526 290 -3 0 -17 8 -32 19 -15 10 -74 44 -132 76 -58 32 -182 102 -275 156
-94 54 -179 101 -190 105 -35 12 -65 47 -65 73 1 24 29 83 119 246 65 116 134
241 171 305 21 36 54 97 75 135 21 39 55 101 77 138 21 38 38 71 38 75 0 3 20
37 44 76 24 39 61 103 81 143 20 40 54 91 75 115 l38 43 203 6 c219 6 212 5
444 84 60 20 121 45 135 55 14 9 56 34 95 55 114 61 183 116 315 252 158 161
220 249 220 313 0 43 -49 91 -150 146 -393 215 -382 208 -403 236 -16 22 -17
27 -2 67 25 73 20 96 -30 143 -30 29 -45 51 -45 68 0 27 45 118 90 185 15 22
39 63 52 90 40 82 260 482 342 622 20 34 36 64 36 66 0 16 103 176 116 181 9
3 44 3 79 0 68 -7 87 -1 135 46 17 17 41 30 54 30 13 0 63 -20 112 -45 100
-51 146 -57 188 -24 15 11 71 73 125 137 169 200 222 250 541 509 99 80 164
128 277 204 74 49 137 89 142 89 4 0 12 5 19 12 29 29 381 211 562 291 157 69
363 142 483 171 37 10 86 24 110 32 58 21 192 51 252 58 28 3 61 8 75 11 14 3
81 15 150 26 69 11 150 24 181 29 30 6 107 10 170 11 63 1 125 5 139 9 26 9
158 6 410 -9z"/>
<path d="M21715 28600 c-11 -5 -40 -9 -65 -9 -40 -1 -87 -9 -295 -51 -27 -6
-63 -15 -80 -20 -16 -5 -61 -17 -100 -25 -38 -9 -89 -25 -113 -36 -24 -11 -82
-32 -130 -48 -218 -71 -661 -330 -829 -485 -38 -35 -79 -71 -93 -82 -31 -24
-248 -241 -275 -275 -11 -14 -41 -50 -66 -80 -46 -54 -203 -283 -253 -369 -86
-147 -208 -415 -256 -560 -36 -106 -93 -336 -101 -400 -4 -36 -15 -117 -24
-180 -10 -63 -20 -193 -24 -289 -7 -203 11 -175 -181 -283 -69 -38 -201 -113
-295 -166 -93 -52 -222 -123 -285 -157 -63 -34 -169 -93 -235 -130 -66 -38
-158 -89 -205 -115 -130 -71 -159 -133 -102 -217 55 -82 194 -267 255 -339 37
-43 65 -83 191 -274 123 -185 194 -305 296 -500 42 -80 86 -163 97 -185 28
-53 115 -244 148 -325 15 -36 33 -78 40 -95 7 -16 19 -48 25 -70 7 -22 29 -80
50 -130 20 -49 42 -112 49 -139 19 -77 57 -144 93 -162 65 -34 90 -22 726 335
89 50 165 91 168 91 3 0 18 8 32 19 15 10 61 36 102 58 41 22 131 72 200 112
150 86 159 87 276 13 103 -64 398 -207 483 -233 36 -12 93 -32 127 -45 88 -34
323 -91 494 -119 52 -8 117 -20 143 -25 63 -13 554 -13 626 0 31 5 97 17 146
25 353 62 608 145 910 297 129 65 309 176 408 253 43 33 101 77 129 99 75 57
413 404 470 483 28 37 80 113 115 168 36 55 80 123 98 150 75 115 265 532 265
582 0 7 11 45 24 85 38 114 45 143 73 298 34 190 41 347 18 406 -27 70 -109
124 -189 124 -43 0 -66 -10 -201 -85 -130 -72 -154 -85 -205 -113 -30 -16 -91
-50 -135 -74 -44 -25 -111 -62 -150 -83 -38 -21 -97 -54 -130 -73 -33 -19
-103 -58 -155 -87 -52 -29 -113 -62 -135 -75 -22 -13 -78 -44 -125 -70 -47
-26 -139 -77 -205 -115 -204 -115 -466 -260 -550 -303 -78 -41 -103 -36 -240
45 -66 39 -147 88 -180 109 -33 20 -112 67 -175 104 -178 104 -311 184 -455
272 -49 30 -144 87 -210 126 -162 95 -171 105 -168 190 1 37 7 306 13 597 13
685 20 846 40 871 25 31 40 41 155 100 61 31 122 65 136 75 27 19 199 114 279
154 25 13 86 46 135 75 50 29 135 78 190 108 219 120 274 151 375 207 58 32
139 77 180 100 608 336 592 324 598 450 4 66 1 80 -21 118 -27 46 -73 81 -148
115 -189 85 -367 154 -454 176 -33 8 -109 27 -170 41 -60 14 -127 30 -147 36
-81 21 -236 32 -513 35 -159 2 -299 -1 -310 -6z m539 -130 c33 -5 108 -17 166
-26 58 -8 137 -24 175 -34 39 -9 104 -25 145 -35 117 -27 299 -90 415 -144 33
-16 81 -38 107 -49 25 -11 54 -32 64 -47 39 -60 -1 -95 -306 -261 -152 -83
-278 -153 -395 -219 -135 -77 -271 -152 -360 -200 -33 -18 -109 -60 -169 -94
-60 -35 -121 -68 -135 -74 -14 -7 -57 -30 -96 -52 -38 -22 -90 -51 -115 -63
-25 -13 -90 -50 -145 -82 -55 -33 -103 -60 -107 -60 -21 -1 -152 -87 -182
-120 l-36 -40 -1 -128 c0 -70 -5 -152 -11 -182 -5 -30 -14 -293 -19 -585 -4
-291 -11 -568 -15 -614 -11 -163 6 -186 246 -328 80 -48 168 -101 195 -118 28
-17 77 -48 110 -67 33 -20 104 -62 158 -94 53 -33 121 -72 150 -88 28 -16 105
-62 169 -102 65 -41 139 -85 165 -100 45 -24 90 -51 198 -117 78 -48 97 -46
221 17 60 31 150 79 199 107 50 28 117 66 151 84 33 18 119 66 190 106 71 39
167 93 214 119 47 26 119 67 160 90 41 24 113 64 160 90 125 68 269 149 405
225 66 37 156 86 200 110 44 23 119 63 166 89 47 25 95 46 105 46 57 0 78 -65
59 -181 -7 -41 -18 -108 -24 -149 -25 -156 -89 -383 -160 -564 -83 -211 -218
-448 -391 -686 -65 -90 -314 -346 -425 -438 -44 -37 -82 -69 -85 -72 -11 -12
-149 -108 -215 -150 -129 -81 -197 -116 -415 -217 -52 -24 -132 -53 -300 -109
-41 -14 -109 -32 -150 -41 -41 -8 -93 -19 -115 -24 -188 -43 -334 -59 -555
-59 -190 0 -249 4 -380 25 -85 13 -177 31 -205 39 -27 8 -68 17 -90 21 -52 8
-196 50 -260 74 -27 11 -74 26 -103 35 -80 25 -406 187 -502 250 -128 84 -149
84 -301 -3 -174 -99 -238 -135 -444 -248 -44 -24 -87 -48 -95 -53 -24 -15
-428 -240 -498 -277 -103 -54 -135 -43 -162 58 -7 24 -20 60 -30 79 -10 19
-32 78 -50 130 -33 96 -39 112 -105 255 -21 44 -54 118 -75 165 -31 73 -182
360 -275 525 -39 69 -137 224 -203 320 -31 44 -69 100 -85 124 -27 39 -98 131
-144 186 -46 54 -153 209 -153 220 0 38 24 57 195 150 28 15 88 49 135 75 47
26 123 68 170 94 47 25 112 62 145 81 33 19 86 48 117 65 31 16 128 70 215
119 327 186 304 156 315 414 4 106 12 226 17 267 6 41 14 111 20 155 10 82 31
178 51 230 6 16 18 61 26 99 27 131 181 482 284 651 22 36 40 67 40 69 0 7
123 187 163 239 126 165 363 398 527 519 221 162 531 333 697 384 48 14 104
34 123 44 50 25 384 106 520 125 63 9 133 20 155 25 58 11 407 12 479 0z"/>
<path d="M12570 26460 c-14 -4 -56 -8 -93 -9 -108 -2 -428 -36 -532 -58 -38
-8 -88 -17 -110 -19 -22 -3 -83 -16 -135 -29 -52 -12 -131 -30 -175 -40 -44
-9 -129 -32 -189 -51 -60 -19 -116 -34 -123 -34 -23 0 -313 -100 -398 -137
-44 -19 -102 -42 -130 -50 -27 -8 -59 -20 -70 -27 -11 -7 -56 -27 -99 -46
-150 -65 -405 -198 -606 -318 -249 -148 -418 -266 -682 -477 -56 -44 -115 -91
-134 -105 -97 -74 -375 -347 -552 -542 -144 -160 -168 -187 -276 -328 -53 -69
-103 -133 -111 -142 -8 -10 -68 -98 -133 -195 -218 -327 -449 -758 -543 -1013
-12 -30 -30 -75 -41 -100 -42 -92 -121 -319 -153 -435 -18 -66 -44 -156 -58
-200 -49 -154 -131 -559 -147 -735 -6 -58 -14 -136 -20 -175 -36 -264 -40
-341 -40 -640 0 -170 5 -341 11 -380 6 -38 14 -108 19 -155 28 -301 57 -492
105 -700 9 -36 24 -108 35 -160 11 -52 34 -140 51 -195 17 -55 42 -136 54
-180 37 -122 121 -356 174 -480 195 -454 424 -863 668 -1195 34 -47 77 -105
95 -130 18 -25 35 -47 38 -50 3 -3 18 -23 34 -44 71 -95 288 -336 437 -485
280 -280 620 -563 889 -742 137 -91 229 -149 234 -149 3 0 30 -16 60 -35 30
-19 57 -35 60 -35 3 0 44 -23 91 -50 98 -59 491 -251 550 -270 22 -7 67 -25
100 -40 33 -15 85 -35 115 -44 30 -10 64 -21 75 -26 56 -26 142 -55 250 -86
66 -19 143 -43 170 -53 28 -10 68 -22 90 -25 22 -4 122 -28 223 -52 101 -25
223 -49 270 -54 48 -6 112 -14 142 -19 80 -15 180 -28 329 -46 165 -19 897
-23 1048 -5 145 17 331 41 388 51 28 5 86 13 130 18 44 5 161 30 260 55 99 25
198 48 220 51 76 12 364 104 580 185 211 79 509 206 540 230 6 4 73 40 150 80
77 40 167 89 200 110 34 20 68 39 75 43 17 8 185 118 292 192 74 51 379 278
433 323 133 110 604 571 691 677 172 208 244 296 272 335 98 133 150 208 162
230 7 14 47 77 90 140 42 63 91 142 110 175 18 33 57 103 87 155 108 194 258
511 319 675 20 55 42 114 50 130 7 17 20 55 28 85 9 30 30 89 46 133 17 43 40
117 51 165 11 48 30 113 40 145 20 60 65 253 79 342 5 28 17 93 28 145 34 163
41 211 47 340 3 69 10 152 16 185 9 51 29 409 31 540 1 82 -21 402 -31 460 -6
33 -13 110 -16 170 -7 139 -40 353 -85 540 -5 22 -16 78 -25 125 -9 47 -20 99
-25 115 -5 17 -21 66 -34 110 -14 44 -28 97 -32 118 -3 21 -20 75 -36 120 -16
45 -44 127 -62 182 -39 117 -139 367 -164 410 -10 17 -26 53 -36 80 -24 63
-91 196 -173 343 -35 63 -63 116 -63 118 0 3 -8 17 -18 32 -38 56 -94 145
-119 190 -61 111 -303 445 -433 597 -27 33 -78 93 -113 134 -79 95 -471 487
-568 568 -41 35 -102 87 -137 117 -35 31 -116 94 -180 142 -64 48 -133 99
-152 114 -85 64 -313 210 -496 316 -260 150 -724 360 -974 439 -47 15 -89 31
-95 35 -11 8 -86 31 -196 59 -41 11 -88 25 -104 31 -73 28 -499 117 -685 144
-58 8 -168 19 -245 25 -77 6 -162 14 -190 17 -82 10 -768 13 -795 4z m775
-139 c55 -5 154 -14 220 -20 150 -13 220 -24 470 -73 224 -43 349 -72 403 -93
20 -7 73 -23 117 -35 107 -29 397 -125 434 -144 16 -9 51 -23 76 -32 148 -50
582 -260 771 -372 280 -168 547 -348 675 -456 20 -17 44 -38 55 -46 105 -83
358 -307 463 -410 94 -93 252 -273 381 -434 8 -11 29 -35 45 -55 88 -104 255
-337 326 -456 23 -38 63 -104 89 -145 132 -207 329 -598 420 -835 17 -44 35
-89 40 -100 6 -11 19 -49 30 -85 11 -36 40 -121 64 -190 25 -69 54 -163 66
-210 12 -47 32 -125 46 -175 13 -49 31 -126 39 -170 8 -44 22 -111 30 -150 28
-123 46 -237 56 -365 5 -69 14 -161 19 -205 28 -235 28 -764 0 -1005 -5 -47
-14 -143 -19 -215 -5 -71 -16 -161 -24 -200 -9 -38 -21 -97 -27 -130 -7 -33
-22 -103 -32 -155 -11 -52 -24 -113 -29 -135 -4 -22 -20 -78 -34 -125 -14 -47
-31 -107 -36 -135 -12 -58 -48 -169 -78 -237 -11 -27 -19 -48 -17 -48 9 0
-130 -368 -179 -475 -45 -98 -139 -286 -170 -340 -12 -22 -36 -65 -53 -95 -88
-162 -189 -325 -331 -535 -48 -71 -197 -266 -254 -334 -251 -296 -616 -662
-806 -806 -29 -22 -58 -45 -65 -50 -25 -22 -247 -186 -341 -251 -99 -69 -176
-118 -310 -199 -80 -48 -431 -235 -441 -235 -4 0 -59 -24 -123 -54 -156 -72
-439 -184 -566 -223 -27 -8 -97 -30 -155 -48 -58 -18 -127 -38 -155 -44 -27
-6 -133 -31 -235 -55 -217 -52 -222 -53 -320 -67 -41 -5 -118 -16 -170 -23
-94 -14 -189 -26 -370 -47 -60 -7 -229 -9 -460 -7 -365 5 -384 6 -700 53 -58
8 -137 20 -177 25 -114 14 -189 29 -318 61 -66 17 -149 36 -185 44 -36 7 -117
30 -180 50 -63 20 -131 41 -150 46 -44 10 -218 74 -425 155 -159 62 -502 229
-665 322 -47 27 -119 68 -160 92 -41 24 -77 46 -80 49 -7 9 -61 44 -90 59 -14
7 -61 39 -105 72 -44 32 -102 74 -130 93 -49 34 -224 171 -319 251 -136 115
-532 505 -609 601 -18 21 -55 64 -82 95 -28 30 -82 98 -121 150 -38 52 -87
118 -107 145 -51 70 -158 224 -182 262 -98 159 -185 303 -185 307 0 3 -19 38
-42 78 -46 79 -131 246 -174 343 -75 170 -168 395 -179 435 -7 25 -25 77 -40
115 -47 122 -125 397 -165 580 -57 259 -77 367 -90 485 -6 52 -15 129 -21 170
-26 191 -32 299 -32 625 -1 325 5 450 32 645 5 36 14 109 20 163 13 117 46
303 65 372 8 28 24 97 35 155 11 58 32 141 46 185 14 44 37 123 51 175 55 207
253 697 376 930 115 218 140 265 148 275 4 6 23 37 41 70 62 115 284 439 406
595 298 380 695 772 1028 1016 22 16 51 39 65 52 24 23 375 262 383 262 3 0
51 28 108 63 249 152 574 315 773 389 44 16 93 35 110 43 94 43 269 103 446
152 225 62 345 93 363 93 11 0 49 9 85 20 37 11 94 24 127 29 33 5 85 13 115
19 135 26 263 40 558 62 62 4 116 11 120 15 9 9 557 -2 677 -14z"/>
<path d="M12070 24568 c-225 -34 -354 -59 -435 -83 -44 -13 -102 -26 -130 -30
-57 -8 -67 -10 -230 -60 -299 -92 -508 -169 -685 -252 -30 -14 -109 -50 -175
-80 -66 -29 -162 -78 -215 -107 -111 -62 -170 -95 -262 -146 -36 -21 -86 -51
-110 -67 -24 -17 -88 -60 -143 -97 -115 -77 -199 -136 -235 -166 -14 -11 -54
-40 -90 -64 -112 -76 -266 -215 -552 -496 l-218 -216 0 -44 0 -45 603 -603
c331 -332 615 -610 631 -619 61 -32 85 -17 287 180 172 168 339 320 376 341 8
4 52 36 98 71 46 34 118 84 162 111 43 26 92 58 108 69 36 26 250 145 261 145
4 0 28 12 53 27 108 64 511 220 664 258 29 7 104 27 167 44 63 18 147 36 185
41 39 5 99 14 135 20 36 6 94 15 129 20 52 7 70 14 95 39 30 31 31 34 30 119
-1 48 -7 148 -12 222 -6 74 -15 208 -20 296 -5 89 -12 166 -16 172 -7 12 -25
165 -32 282 -12 165 -24 300 -33 350 -5 30 -10 106 -10 169 -1 130 -19 178
-77 206 -43 20 -146 18 -304 -7z m207 -124 c31 -9 35 -24 44 -179 4 -77 13
-185 19 -240 6 -55 15 -156 21 -225 6 -69 15 -161 20 -205 5 -44 13 -143 18
-220 5 -77 14 -171 20 -210 6 -38 11 -118 11 -177 0 -107 0 -108 -27 -122 -29
-14 -194 -46 -247 -46 -29 -1 -211 -46 -411 -103 -74 -21 -178 -56 -330 -111
-147 -53 -520 -245 -680 -350 -50 -32 -108 -70 -130 -85 -50 -32 -187 -135
-282 -213 -40 -32 -153 -137 -252 -233 -126 -123 -186 -175 -202 -175 -17 0
-164 141 -555 531 -293 292 -538 542 -545 555 -10 20 -10 29 2 51 22 42 152
175 273 280 61 53 138 122 172 152 79 73 131 115 215 176 257 187 316 227 419
293 119 77 142 90 300 179 218 122 589 294 795 368 50 18 117 43 150 55 33 12
67 24 75 26 56 13 191 54 223 67 21 9 62 19 90 23 49 6 84 14 205 48 76 21
248 53 387 72 66 8 122 18 124 20 6 6 52 5 78 -2z"/>
<path d="M13494 24580 c-43 -17 -61 -59 -67 -160 -4 -52 -13 -158 -22 -235
-32 -282 -47 -453 -55 -600 -8 -161 -24 -349 -40 -458 -6 -37 -10 -84 -10
-104 0 -20 -5 -62 -12 -93 -6 -30 -8 -72 -4 -93 9 -50 64 -104 113 -112 21 -3
58 -10 83 -15 25 -5 83 -14 130 -20 117 -16 277 -50 317 -67 19 -7 57 -18 86
-23 57 -11 164 -44 212 -65 17 -7 59 -23 95 -35 68 -24 244 -98 370 -157 128
-60 416 -231 548 -326 201 -144 304 -233 497 -427 99 -100 193 -188 208 -196
29 -16 70 -14 103 4 11 6 290 282 622 614 l602 603 0 45 0 45 -257 255 c-142
140 -272 267 -290 281 -18 15 -63 52 -100 83 -172 142 -508 375 -720 499 -206
121 -563 302 -670 340 -40 15 -96 38 -125 53 -28 14 -86 37 -127 49 -42 13
-121 39 -176 58 -151 54 -351 114 -430 131 -38 8 -113 24 -165 36 -206 47
-281 61 -423 80 -156 21 -258 24 -293 10z m338 -159 c81 -11 152 -22 157 -25
5 -3 47 -13 93 -22 45 -8 124 -26 173 -39 50 -13 110 -26 134 -30 24 -4 60
-14 80 -22 20 -9 82 -28 138 -44 114 -32 223 -68 238 -79 6 -4 44 -17 85 -30
41 -12 107 -37 146 -55 39 -18 88 -38 110 -45 89 -29 625 -309 774 -405 157
-101 272 -176 288 -190 9 -8 73 -56 141 -107 68 -51 136 -102 150 -113 149
-113 497 -444 545 -517 11 -17 16 -37 12 -50 -3 -13 -245 -263 -538 -555 -457
-457 -538 -533 -562 -533 -23 0 -48 20 -130 103 -56 56 -156 150 -222 207
-157 137 -154 134 -264 214 -52 38 -111 81 -130 96 -19 15 -93 62 -165 104
-71 42 -141 84 -155 92 -44 26 -294 148 -386 188 -117 50 -119 51 -189 74 -33
12 -95 34 -137 50 -42 16 -94 33 -115 36 -21 4 -74 18 -118 32 -110 33 -204
53 -309 66 -49 5 -119 17 -155 27 -92 23 -100 38 -82 168 18 131 30 272 41
483 6 96 14 213 19 260 5 47 12 110 15 140 11 93 24 229 36 355 14 150 16 160
36 180 12 11 27 14 57 10 23 -2 108 -14 189 -24z"/>
<path d="M9820 19734 c-36 -24 -1156 -1142 -1191 -1188 -49 -66 -39 -116 47
-217 61 -73 332 -329 444 -422 143 -117 275 -223 309 -249 44 -33 444 -304
457 -309 9 -4 92 -52 214 -124 82 -49 396 -204 465 -231 33 -12 99 -41 146
-63 48 -23 92 -41 99 -41 7 0 26 -7 43 -15 64 -30 389 -135 524 -170 76 -19
170 -43 208 -53 75 -20 135 -32 310 -64 61 -10 160 -28 220 -39 304 -55 1300
-58 1615 -4 99 17 428 78 515 95 28 6 88 21 135 35 47 13 128 36 180 49 107
28 245 73 365 118 44 17 109 41 145 54 62 24 132 54 350 154 58 27 125 57 150
69 25 11 77 38 115 59 39 21 102 56 140 77 39 21 95 54 125 74 30 20 67 43 81
51 189 110 457 305 688 503 286 245 535 498 555 565 18 58 11 66 -592 671
-390 391 -601 596 -629 610 -76 38 -79 37 -251 -137 -146 -146 -331 -315 -370
-336 -10 -5 -42 -30 -72 -56 -83 -71 -463 -320 -488 -320 -3 0 -36 -18 -72
-40 -91 -55 -563 -260 -598 -260 -5 0 -43 -11 -83 -24 -139 -45 -377 -101
-609 -143 -75 -13 -425 -34 -580 -33 -122 0 -470 18 -550 29 -47 6 -117 20
-155 31 -39 10 -95 22 -125 25 -93 12 -440 115 -610 181 -106 42 -140 57 -285
127 -290 139 -566 315 -787 499 -47 40 -131 109 -185 154 -96 79 -143 127
-232 233 -72 87 -128 110 -181 75z m137 -230 c46 -55 277 -265 371 -337 37
-28 90 -70 117 -93 129 -110 431 -296 685 -421 113 -55 216 -104 230 -108 21
-5 77 -27 165 -65 11 -5 47 -16 80 -26 33 -9 112 -33 175 -54 124 -40 162 -50
315 -80 55 -11 129 -26 165 -33 79 -17 51 -15 310 -26 118 -5 246 -15 283 -22
56 -10 84 -10 155 0 48 8 179 17 292 21 113 5 219 11 235 14 322 57 709 157
847 220 29 13 87 37 128 54 127 51 271 118 355 165 44 25 107 60 140 79 73 40
318 202 361 237 46 38 62 51 132 103 75 57 167 139 339 303 140 135 146 139
176 131 28 -7 1069 -1046 1081 -1079 6 -16 4 -34 -5 -55 -15 -35 -198 -218
-337 -337 -52 -44 -119 -102 -151 -130 -139 -121 -421 -329 -571 -420 -45 -27
-98 -61 -118 -74 -86 -57 -363 -206 -487 -262 -49 -23 -139 -64 -200 -91 -201
-92 -580 -230 -725 -265 -36 -8 -128 -33 -205 -53 -77 -21 -158 -40 -180 -43
-22 -2 -101 -16 -175 -30 -74 -13 -153 -28 -175 -31 -22 -4 -78 -14 -125 -22
-246 -44 -1168 -48 -1390 -5 -30 6 -95 17 -145 26 -205 35 -202 35 -415 76
-30 6 -89 21 -130 33 -41 13 -109 31 -150 41 -41 9 -97 24 -125 32 -77 24
-198 64 -220 74 -11 4 -36 12 -55 18 -56 15 -270 99 -296 116 -13 8 -52 26
-87 39 -81 30 -449 217 -587 297 -120 70 -463 298 -560 372 -54 42 -119 93
-177 142 -7 5 -42 35 -78 65 -104 86 -323 292 -397 375 -40 45 -68 85 -68 98
0 15 151 173 523 545 287 288 535 532 551 542 26 17 32 17 57 4 15 -8 45 -35
66 -60z"/>
<path d="M6800 18721 c-14 -4 -88 -44 -165 -88 -77 -44 -185 -104 -240 -133
-55 -29 -104 -56 -110 -60 -5 -5 -84 -48 -175 -97 -173 -94 -196 -107 -375
-208 -60 -34 -141 -79 -180 -100 -108 -59 -131 -72 -172 -97 -21 -13 -77 -43
-124 -67 -102 -51 -97 -52 -269 34 -160 80 -460 185 -530 185 -14 0 -57 8 -95
19 -71 19 -162 31 -385 52 -153 13 -123 13 -260 0 -205 -20 -293 -32 -375 -51
-44 -10 -100 -22 -125 -25 -59 -8 -85 -16 -277 -85 -176 -64 -216 -82 -373
-173 -147 -84 -198 -118 -340 -229 -140 -109 -371 -336 -452 -445 -91 -124
-162 -225 -197 -282 -51 -84 -156 -299 -176 -361 -10 -30 -21 -59 -25 -65 -16
-23 -63 -166 -80 -245 -10 -47 -27 -125 -38 -175 -28 -133 -46 -269 -39 -310
8 -49 66 -118 123 -145 37 -18 57 -22 105 -17 60 5 72 11 319 147 47 26 117
64 155 85 67 37 142 79 430 240 72 40 146 82 165 94 19 11 66 37 105 57 38 20
148 80 245 134 96 53 216 119 267 145 88 46 93 47 125 34 39 -16 185 -99 245
-139 22 -15 110 -67 195 -115 84 -48 182 -107 218 -130 83 -53 102 -65 175
-105 57 -31 156 -93 238 -148 20 -14 41 -37 45 -51 10 -37 8 -877 -4 -1113 -9
-190 -10 -197 -34 -223 -14 -15 -43 -37 -65 -49 -22 -13 -87 -49 -145 -81 -58
-32 -168 -94 -245 -138 -77 -44 -178 -102 -225 -127 -47 -26 -107 -60 -135
-76 -76 -43 -231 -128 -320 -174 -44 -24 -132 -72 -195 -107 -63 -36 -155 -88
-205 -115 -49 -28 -109 -61 -132 -75 -79 -44 -121 -133 -107 -226 9 -60 94
-141 189 -181 39 -16 93 -39 120 -51 116 -51 334 -116 430 -129 28 -4 93 -15
145 -26 131 -25 382 -44 482 -36 156 12 283 26 333 36 28 5 82 15 120 20 105
15 380 102 510 160 39 17 90 40 115 51 49 22 156 83 235 134 107 69 209 138
221 149 7 6 41 34 75 61 82 65 269 251 339 338 30 37 62 76 70 86 74 90 198
288 262 421 106 217 129 274 174 429 62 210 72 259 80 376 6 105 28 235 44
266 15 26 61 59 180 124 58 32 137 76 175 98 39 22 124 69 190 104 66 36 140
78 165 93 25 16 79 47 120 69 235 125 329 176 380 208 35 21 82 47 265 143
237 125 255 177 117 349 -42 53 -95 121 -117 151 -22 30 -50 66 -63 80 -33 36
-283 405 -337 500 -15 25 -48 83 -74 130 -26 47 -67 119 -90 160 -34 60 -151
296 -201 405 -56 123 -164 400 -195 501 -32 105 -59 166 -85 189 -22 20 -100
29 -140 16z m59 -187 c12 -15 26 -45 31 -68 11 -40 40 -122 66 -181 7 -16 22
-55 33 -85 45 -126 183 -428 263 -575 30 -55 72 -131 93 -170 141 -260 441
-704 599 -887 49 -57 75 -110 66 -133 -4 -12 -66 -52 -151 -99 -79 -44 -169
-94 -199 -112 -30 -18 -102 -57 -160 -86 -58 -30 -123 -66 -146 -80 -22 -14
-71 -42 -110 -63 -38 -20 -103 -55 -144 -79 -41 -23 -120 -67 -175 -98 -55
-30 -118 -66 -140 -78 -22 -13 -83 -47 -135 -75 -165 -90 -243 -140 -264 -168
-21 -29 -31 -82 -45 -247 -15 -175 -25 -222 -112 -525 -11 -38 -38 -107 -60
-152 -21 -44 -39 -84 -39 -88 0 -4 -25 -56 -54 -115 -114 -225 -253 -415 -446
-610 -74 -75 -166 -162 -205 -192 -65 -51 -300 -208 -311 -208 -3 0 -28 -15
-57 -33 -50 -31 -119 -67 -130 -67 -3 0 -39 -16 -79 -35 -113 -54 -368 -133
-501 -156 -67 -11 -124 -22 -128 -25 -17 -10 -233 -27 -359 -28 -125 0 -350
17 -368 28 -4 2 -71 16 -148 30 -127 22 -253 57 -279 76 -5 4 -26 11 -45 15
-19 4 -87 29 -150 57 -201 86 -210 136 -40 229 41 22 104 57 140 76 36 20 107
60 157 89 51 29 113 62 139 73 25 11 65 34 89 50 24 16 61 37 81 47 21 10 85
45 143 78 59 33 142 79 186 103 44 24 96 53 115 65 76 44 282 158 288 158 3 0
13 6 21 14 9 7 48 30 86 51 126 67 184 106 204 134 25 35 29 137 37 918 l5
562 -36 39 c-34 38 -178 135 -315 211 -36 20 -123 73 -195 117 -71 45 -166
100 -210 124 -44 24 -105 60 -135 80 -30 20 -107 67 -170 104 -63 37 -130 77
-148 88 -40 24 -98 27 -138 6 -16 -9 -105 -57 -199 -108 -93 -51 -213 -116
-265 -145 -52 -28 -153 -85 -225 -125 -71 -40 -164 -92 -205 -115 -41 -23
-133 -74 -205 -115 -167 -94 -291 -162 -385 -212 -41 -22 -79 -44 -85 -48 -22
-18 -154 -80 -170 -80 -9 0 -30 14 -47 30 -28 28 -29 34 -23 83 6 52 18 118
35 192 5 22 17 72 25 110 30 132 38 160 92 300 80 209 177 395 272 525 22 30
50 70 63 88 130 190 368 416 608 578 81 54 310 182 375 210 146 61 385 139
456 149 30 4 88 15 129 25 208 51 555 58 805 16 11 -2 49 -11 85 -19 36 -9 85
-19 110 -22 65 -10 135 -29 215 -60 39 -14 104 -38 145 -52 41 -14 141 -59
223 -100 114 -58 154 -74 175 -70 26 5 194 94 362 192 75 43 236 133 330 183
36 19 76 42 90 50 14 9 94 53 178 99 353 192 514 281 612 337 57 33 83 33 109
0z"/>
<path d="M18745 18191 c-24 -14 -45 -52 -104 -182 -144 -322 -256 -533 -386
-734 -57 -88 -149 -229 -160 -246 -59 -93 -75 -127 -75 -165 0 -51 25 -85 88
-120 26 -15 88 -50 137 -79 50 -29 142 -81 205 -115 63 -35 156 -86 205 -113
50 -27 142 -77 205 -111 63 -34 147 -80 185 -102 137 -80 235 -134 239 -134 3
0 28 -14 56 -30 28 -17 79 -45 113 -64 58 -31 187 -103 392 -219 50 -28 113
-62 140 -75 28 -14 73 -41 100 -60 72 -52 237 -195 280 -245 21 -23 65 -65 99
-94 33 -28 96 -91 138 -140 155 -175 324 -379 357 -428 19 -27 53 -72 76 -100
46 -55 191 -270 220 -325 10 -19 21 -37 25 -40 7 -5 94 -142 133 -209 29 -52
141 -266 207 -401 32 -63 88 -191 125 -285 37 -93 82 -206 100 -250 18 -44 38
-96 43 -115 41 -145 115 -379 132 -417 34 -77 126 -215 172 -259 110 -104 211
-167 339 -211 79 -26 94 -28 249 -28 163 0 166 1 258 34 98 36 172 76 262 144
65 48 1685 1661 1765 1757 135 161 215 367 215 553 0 55 -6 109 -15 134 -8 23
-17 55 -19 70 -9 51 -45 144 -77 199 -25 44 -145 205 -194 261 -5 6 -30 37
-55 69 -108 137 -417 458 -599 624 -154 139 -456 374 -621 485 -140 93 -260
165 -505 303 -91 51 -258 131 -390 187 -49 21 -115 49 -145 63 -65 29 -319
121 -405 147 -33 10 -114 35 -180 55 -112 36 -162 48 -260 66 -22 4 -44 9 -50
11 -29 10 -250 55 -310 64 -76 10 -137 23 -290 63 -55 14 -138 33 -185 41 -47
9 -116 27 -155 39 -38 13 -113 33 -165 46 -95 22 -227 63 -265 80 -11 5 -51
18 -90 29 -79 22 -229 73 -355 121 -47 18 -119 45 -160 61 -97 35 -304 122
-450 189 -63 29 -150 67 -193 86 -43 19 -109 50 -145 69 -136 70 -200 82 -257
46z m230 -190 c171 -85 545 -251 563 -251 6 0 48 -18 93 -40 46 -22 88 -40 94
-40 6 0 58 -18 116 -41 57 -23 131 -50 164 -61 33 -11 96 -32 140 -48 123 -43
390 -126 485 -150 47 -12 119 -32 161 -45 42 -14 96 -27 120 -31 40 -6 316
-71 400 -94 20 -6 49 -10 65 -10 31 0 179 -29 309 -59 44 -11 107 -24 140 -31
119 -22 632 -188 761 -245 32 -15 122 -54 199 -87 146 -62 331 -153 400 -197
22 -13 63 -37 90 -51 115 -62 189 -108 353 -217 95 -63 178 -120 185 -126 11
-11 51 -42 122 -97 237 -181 610 -531 772 -725 109 -130 124 -148 168 -205 22
-29 61 -78 88 -109 57 -67 134 -219 143 -281 3 -25 15 -75 25 -112 17 -66 17
-69 -2 -135 -10 -38 -19 -78 -19 -91 0 -40 -37 -130 -89 -215 -45 -73 -150
-181 -919 -947 -477 -476 -885 -878 -907 -893 -101 -72 -307 -147 -406 -147
-23 0 -78 7 -122 16 -276 56 -468 233 -546 504 -12 41 -31 102 -43 135 -11 33
-30 97 -43 142 -12 45 -36 112 -52 150 -34 77 -94 226 -130 323 -25 68 -95
221 -139 305 -15 28 -54 102 -86 165 -56 108 -161 287 -229 390 -148 224 -237
353 -272 397 -23 28 -56 71 -74 95 -113 153 -295 358 -504 567 -254 255 -386
364 -516 429 -32 16 -105 56 -163 89 -58 33 -136 77 -175 98 -38 21 -108 59
-155 85 -47 25 -188 104 -315 175 -126 71 -252 140 -280 155 -69 36 -266 145
-345 190 -36 21 -124 70 -197 109 -169 93 -213 124 -213 154 0 12 32 72 72
132 39 61 90 139 114 175 45 70 154 258 154 266 0 2 12 23 27 47 35 56 109
204 177 356 31 69 66 135 78 148 31 33 71 29 163 -16z"/>
<path d="M3973 9085 c-24 -17 -4 34 -487 -1208 -190 -488 -346 -901 -346 -916
0 -58 12 -61 282 -61 241 0 245 0 265 23 11 12 53 112 93 222 40 110 75 206
77 213 4 9 88 12 373 12 l369 0 19 -52 c89 -234 144 -371 158 -393 l16 -25
258 0 c242 0 258 1 275 20 12 13 16 30 13 52 -8 56 -827 2090 -850 2110 -19
16 -44 18 -257 18 -194 0 -240 -3 -258 -15z m820 -1082 c213 -533 387 -971
387 -975 0 -5 -69 -8 -154 -8 -137 0 -155 2 -161 18 -4 9 -41 105 -82 212 -41
107 -84 205 -96 218 l-20 22 -436 0 c-427 0 -435 0 -457 -21 -14 -13 -51 -101
-100 -235 l-77 -214 -153 0 -154 0 21 53 c32 80 725 1860 732 1880 6 15 24 17
185 17 l178 0 387 -967z"/>
<path d="M4185 8588 c-19 -18 -58 -113 -165 -407 -77 -211 -140 -390 -140
-398 0 -7 7 -25 16 -38 l16 -25 314 0 c312 0 313 0 328 22 9 12 16 31 16 42 0
11 -63 191 -141 400 -140 379 -162 426 -204 426 -8 0 -25 -10 -40 -22z m140
-495 c47 -127 85 -236 85 -242 0 -8 -54 -11 -185 -11 -104 0 -185 4 -185 9 0
7 127 361 176 491 5 13 6 13 14 -1 5 -8 48 -119 95 -246z"/>
<path d="M5465 9075 l-25 -24 0 -1054 c0 -991 1 -1056 18 -1076 l17 -22 545 3
c528 4 548 5 625 26 245 68 421 215 539 449 88 176 119 330 119 603 1 284 -26
435 -108 607 -91 192 -226 338 -386 417 -175 86 -268 96 -887 96 l-433 0 -24
-25z m1040 -116 c436 -52 675 -399 675 -979 0 -286 -66 -514 -201 -693 -61
-81 -127 -133 -229 -181 -164 -77 -261 -88 -780 -84 l-405 3 -3 960 c-1 528 0
966 3 973 6 16 806 17 940 1z"/>
<path d="M5886 8729 l-26 -20 0 -708 c0 -623 2 -709 16 -729 15 -22 18 -22
283 -22 148 0 293 4 322 10 30 5 86 26 126 45 118 58 186 153 235 330 20 73
22 103 22 350 1 292 -5 339 -58 460 -57 128 -159 224 -281 265 -70 23 -265 39
-496 40 -103 0 -119 -2 -143 -21z m586 -138 c164 -53 243 -179 269 -434 20
-197 -1 -438 -50 -569 -43 -113 -97 -163 -211 -195 -53 -15 -103 -18 -280 -18
l-215 0 -3 624 -2 624 212 -6 c181 -4 223 -8 280 -26z"/>
<path d="M7352 9077 c-12 -13 -22 -34 -22 -48 0 -35 735 -2087 756 -2110 16
-18 35 -19 269 -19 232 0 253 1 268 18 10 10 46 99 81 198 36 98 202 563 370
1033 168 470 306 867 306 884 0 18 -9 36 -22 48 -21 17 -43 18 -258 19 -196 0
-239 -3 -258 -15 -17 -13 -69 -159 -243 -688 -122 -370 -225 -675 -228 -679
-4 -4 -110 295 -236 665 -159 466 -236 679 -252 695 -22 22 -26 22 -266 22
-242 0 -244 0 -265 -23z m697 -844 c138 -406 260 -749 270 -763 22 -31 54 -37
86 -16 20 13 64 137 271 766 l248 750 153 0 c84 0 153 -1 153 -2 0 -2 -157
-439 -348 -973 l-348 -970 -177 -3 -177 -2 -11 27 c-12 32 -566 1576 -640
1786 l-48 137 158 0 158 0 252 -737z"/>
<path d="M9495 9075 l-25 -24 0 -1054 0 -1054 23 -21 23 -22 817 0 816 0 15
22 c13 18 16 57 16 213 0 187 -1 192 -23 213 l-23 22 -557 0 -557 0 0 220 0
220 498 0 499 0 21 23 c21 22 22 32 22 219 l0 197 -26 20 c-26 21 -36 21 -520
21 l-494 0 0 165 0 165 538 0 539 0 21 23 c21 22 22 32 22 219 l0 197 -26 20
c-26 21 -33 21 -811 21 l-784 0 -24 -25z m1515 -215 l0 -110 -535 0 -536 0
-24 -25 -25 -24 0 -246 0 -246 25 -24 24 -25 501 0 501 0 -3 -112 -3 -113
-499 -3 c-497 -2 -500 -2 -523 -24 l-23 -21 0 -296 c0 -289 0 -295 22 -318
l21 -23 559 0 558 0 0 -115 0 -115 -725 0 -725 0 0 975 0 975 705 0 705 0 0
-110z"/>
<path d="M11435 9075 l-25 -24 0 -1054 0 -1054 23 -21 c22 -21 31 -22 244 -22
193 0 222 2 234 17 11 13 15 124 19 589 l5 574 350 -567 c193 -311 358 -577
368 -590 18 -23 19 -23 256 -23 235 0 238 0 259 23 l22 23 0 1053 0 1052 -25
24 c-24 25 -25 25 -233 25 -192 0 -212 -2 -233 -19 l-24 -19 -5 -588 -5 -589
-159 260 c-88 143 -249 406 -359 585 -109 179 -210 335 -223 348 -24 21 -31
22 -245 22 l-220 0 -24 -25z m825 -775 c224 -366 418 -675 431 -687 30 -29 56
-29 86 -1 l23 21 0 669 0 668 130 0 130 0 0 -975 0 -975 -161 2 -162 3 -194
315 c-107 173 -289 468 -404 655 -116 187 -219 348 -231 358 -28 24 -55 21
-83 -8 l-25 -24 0 -651 0 -650 -130 0 -130 0 0 975 0 976 156 -3 157 -3 407
-665z"/>
<path d="M13382 9077 c-21 -22 -22 -32 -22 -225 0 -196 1 -201 22 -216 19 -14
65 -16 305 -16 l283 0 0 -838 0 -839 23 -21 c23 -21 31 -22 260 -22 232 0 236
0 251 22 14 20 16 118 16 860 l0 838 285 0 c272 0 286 1 305 20 19 19 20 33
20 218 0 195 0 199 -23 220 l-23 22 -840 0 -841 0 -21 -23z m1628 -217 l0
-110 -285 0 -286 0 -24 -25 -25 -24 0 -841 0 -840 -145 0 -145 0 0 840 0 841
-25 24 -24 25 -286 0 -285 0 0 110 0 110 765 0 765 0 0 -110z"/>
<path d="M15300 9082 l-21 -17 4 -765 c5 -890 5 -893 93 -1062 27 -51 63 -98
120 -155 162 -160 353 -223 684 -223 317 0 497 58 658 214 117 113 177 237
203 421 7 51 13 348 16 817 l5 737 -26 25 -25 26 -226 0 -226 0 -24 -25 -25
-24 0 -698 c0 -403 -5 -727 -10 -766 -24 -168 -121 -241 -320 -241 -217 0
-327 93 -350 294 -5 47 -10 383 -10 748 l0 663 -25 24 -24 25 -224 0 c-200 0
-227 -2 -247 -18z m402 -824 l3 -713 23 -57 c44 -108 128 -191 242 -240 49
-20 71 -23 210 -23 138 0 161 3 212 23 68 27 148 97 185 159 55 95 56 99 60
861 l5 702 144 0 144 0 0 -638 c0 -786 -8 -885 -82 -1040 -59 -124 -194 -226
-358 -271 -165 -45 -450 -46 -623 -2 -213 55 -360 188 -416 376 -39 133 -43
209 -48 903 l-5 672 151 0 150 0 3 -712z"/>
<path d="M17400 9078 c-20 -22 -20 -29 -20 -1083 0 -1016 1 -1063 18 -1078 16
-15 49 -17 255 -17 232 0 236 0 251 22 14 19 16 77 16 432 l0 409 95 -6 c116
-7 166 -28 228 -96 37 -42 178 -245 448 -646 l74 -110 279 -3 c388 -3 381 -14
184 302 -211 338 -302 469 -390 557 -44 44 -78 81 -77 83 2 1 35 15 73 31 178
74 311 234 351 421 19 91 19 228 -1 317 -36 160 -157 324 -291 395 -148 78
-297 92 -980 92 l-492 0 -21 -22z m1180 -118 c183 -23 267 -56 350 -139 94
-95 141 -220 141 -371 -1 -203 -89 -358 -249 -439 -34 -17 -105 -42 -159 -56
-67 -17 -104 -31 -115 -46 -36 -43 -23 -68 66 -126 143 -95 227 -200 463 -578
55 -88 103 -166 107 -172 6 -10 -31 -13 -168 -13 l-175 0 -88 131 c-373 554
-426 624 -513 677 -74 44 -103 51 -258 58 -129 7 -133 7 -157 -16 l-25 -23 0
-414 0 -413 -150 0 -150 0 0 975 0 975 498 0 c282 0 534 -4 582 -10z"/>
<path d="M17823 8728 c-23 -24 -23 -28 -23 -310 l0 -287 26 -20 c25 -20 39
-21 223 -21 289 1 481 15 539 40 60 27 116 81 150 145 23 44 27 61 27 150 0
92 -2 104 -30 154 -37 67 -92 115 -163 141 -50 19 -85 21 -391 27 l-336 6 -22
-25z m722 -138 c143 -72 122 -303 -32 -351 -23 -6 -149 -13 -315 -16 l-278 -5
0 201 0 202 288 -3 c283 -3 288 -3 337 -28z"/>
<path d="M19495 9075 l-25 -24 0 -1053 c0 -937 2 -1056 16 -1076 l15 -22 818
0 818 0 21 23 c21 22 22 32 22 209 0 172 -1 187 -21 212 l-20 26 -560 0 -559
0 0 220 0 220 498 0 499 0 21 23 c21 22 22 32 22 216 0 190 0 192 -25 216
l-24 25 -495 0 -495 0 -3 165 -3 165 538 0 538 0 24 25 c25 24 25 26 25 215 0
189 0 191 -25 215 l-24 25 -786 0 -786 0 -24 -25z m1515 -215 l0 -110 -535 0
-536 0 -24 -25 -25 -24 0 -247 c0 -241 1 -248 22 -271 l21 -23 499 0 498 0 0
-115 0 -115 -504 0 -505 0 -15 -22 c-24 -33 -24 -603 0 -636 l15 -22 565 0
564 0 0 -115 0 -115 -725 0 -725 0 0 975 0 975 705 0 705 0 0 -110z"/>
<path d="M14420 5779 c-284 -43 -498 -209 -581 -449 -31 -90 -31 -265 0 -360
64 -201 231 -355 481 -445 41 -14 167 -51 280 -80 243 -64 291 -79 341 -111
48 -30 63 -57 63 -115 0 -139 -148 -228 -364 -217 -168 9 -257 60 -314 181
-18 40 -39 95 -46 122 -22 95 -23 96 -313 68 -246 -23 -249 -26 -207 -215 76
-345 318 -570 668 -623 188 -29 471 -15 622 31 30 9 94 36 142 61 69 35 103
61 170 131 135 141 188 273 188 472 0 201 -48 326 -175 458 -126 132 -251 190
-625 287 -294 76 -369 108 -398 168 -30 61 8 114 104 148 120 43 301 33 389
-21 38 -24 81 -98 96 -169 18 -84 18 -84 285 -72 266 12 264 12 264 100 -1
185 -102 383 -253 496 -86 66 -165 103 -276 132 -83 22 -122 26 -286 29 -104
1 -219 -2 -255 -7z m348 -119 c324 -35 515 -175 578 -423 9 -37 15 -69 13 -71
-2 -2 -70 -7 -151 -11 -127 -7 -148 -6 -148 7 0 8 -14 42 -31 76 -43 88 -122
156 -207 182 -195 58 -451 15 -548 -92 -45 -50 -54 -75 -54 -150 0 -72 19
-115 71 -162 73 -66 139 -92 439 -171 303 -79 405 -119 508 -198 142 -108 215
-321 178 -516 -33 -177 -140 -324 -287 -394 -263 -126 -689 -123 -934 6 -95
51 -194 155 -243 257 -37 77 -72 185 -72 222 0 11 28 17 123 26 161 16 156 17
163 -15 3 -16 21 -60 40 -99 44 -93 143 -189 229 -222 133 -51 335 -52 468 -2
74 28 171 116 203 185 32 68 33 177 3 238 -58 113 -129 148 -508 247 -381 99
-520 180 -610 355 -115 225 -22 514 205 637 95 52 275 92 432 97 23 0 86 -4
140 -9z"/>
<path d="M17329 5775 c-197 -36 -350 -116 -494 -260 -231 -228 -318 -470 -318
-880 1 -380 91 -623 314 -843 123 -121 255 -197 427 -244 66 -19 103 -22 267
-22 173 1 199 3 287 27 308 82 540 325 629 659 21 79 11 87 -213 159 -226 72
-261 79 -287 55 -11 -10 -31 -54 -45 -99 -60 -192 -156 -287 -320 -318 -117
-21 -276 31 -355 117 -105 113 -162 348 -148 606 20 355 138 528 386 569 188
31 360 -62 420 -228 28 -76 33 -85 63 -102 22 -13 46 -9 244 38 249 59 260 65
250 137 -7 55 -72 204 -119 275 -52 78 -180 198 -263 246 -88 52 -193 89 -301
108 -105 18 -321 18 -424 0z m419 -130 c184 -39 342 -130 432 -248 46 -61 114
-201 107 -220 -3 -7 -59 -25 -128 -41 -68 -16 -128 -30 -134 -32 -5 -2 -25 24
-43 59 -35 68 -124 165 -188 204 -71 43 -157 63 -268 63 -178 -1 -277 -40
-390 -154 -79 -79 -124 -159 -159 -285 -19 -69 -21 -101 -21 -331 0 -231 2
-263 22 -335 62 -227 201 -379 393 -430 79 -21 224 -19 298 4 148 46 275 175
335 341 l21 58 135 -42 c73 -24 136 -48 138 -54 6 -19 -60 -163 -110 -237
-123 -185 -321 -294 -568 -313 -586 -47 -978 346 -980 983 0 284 74 537 210
717 115 151 319 268 520 297 41 6 86 13 100 15 42 8 207 -4 278 -19z"/>
<path d="M973 5738 l-23 -24 0 -1061 c0 -1029 1 -1060 19 -1077 18 -16 64 -17
658 -13 701 4 695 4 829 67 151 73 273 219 330 399 25 75 29 263 9 341 -34
131 -118 248 -233 325 l-60 40 59 63 c67 71 112 153 135 245 22 82 14 229 -15
312 -48 134 -160 259 -293 325 -140 69 -166 71 -818 77 l-575 5 -22 -24z
m1261 -136 c127 -35 215 -96 276 -193 123 -190 77 -457 -99 -579 -101 -70
-111 -80 -111 -109 0 -36 20 -53 97 -84 120 -49 195 -117 244 -222 54 -115 57
-237 9 -380 -43 -130 -128 -229 -245 -285 -121 -59 -156 -62 -772 -67 l-563
-5 0 977 0 976 543 -3 c521 -4 545 -5 621 -26z"/>
<path d="M1393 5395 c-23 -16 -23 -18 -23 -284 0 -247 1 -269 18 -284 16 -15
54 -17 323 -17 374 0 413 7 507 94 62 57 77 99 77 211 0 91 -2 104 -27 147
-34 57 -87 102 -147 125 -40 15 -92 18 -376 21 -290 2 -333 1 -352 -13z m678
-133 c60 -20 88 -51 99 -112 15 -81 -17 -150 -83 -183 -56 -28 -143 -37 -379
-37 l-218 0 0 182 0 181 265 -6 c213 -6 275 -10 316 -25z"/>
<path d="M1398 4571 l-28 -22 0 -303 c0 -284 1 -304 19 -320 17 -15 51 -17
382 -14 l364 3 56 26 c71 34 133 93 161 155 33 72 33 219 0 287 -49 97 -147
167 -263 187 -35 6 -199 13 -364 17 -299 6 -300 5 -327 -16z m692 -131 c66
-16 119 -55 141 -103 38 -85 15 -210 -47 -254 -62 -43 -87 -46 -396 -51 l-298
-4 0 217 0 217 278 -5 c154 -3 297 -10 322 -17z"/>
<path d="M3061 5736 l-22 -24 4 -748 c4 -626 7 -764 20 -842 41 -232 173 -409
382 -512 145 -72 302 -96 570 -87 204 7 287 25 425 94 156 78 270 208 325 368
44 129 47 184 52 974 l5 753 -23 24 c-22 24 -23 24 -249 24 -224 0 -227 0
-248 -23 l-22 -23 0 -600 c-1 -585 -9 -864 -30 -933 -17 -59 -59 -109 -115
-137 -153 -74 -390 -41 -476 67 -17 22 -41 68 -52 102 -20 60 -21 87 -25 782
-4 714 -4 720 -25 743 -20 22 -25 22 -247 22 -226 0 -227 0 -249 -24z m399
-768 c0 -365 4 -691 9 -725 14 -97 54 -173 126 -242 102 -98 192 -126 381
-119 150 6 211 28 293 104 75 69 109 142 121 262 6 48 10 378 10 735 l0 647
151 0 151 0 -5 -657 c-5 -655 -11 -781 -43 -907 -49 -191 -192 -327 -404 -385
-169 -46 -447 -46 -625 -1 -199 51 -359 193 -411 365 -40 132 -46 238 -51 923
l-5 662 151 0 151 0 0 -662z"/>
<path d="M5145 5736 l-25 -25 0 -1049 c0 -1048 0 -1049 21 -1076 l20 -26 239
0 c235 0 239 0 254 22 14 20 16 139 16 1076 l0 1053 -25 24 -24 25 -226 0
-226 0 -24 -24z m395 -1081 l0 -975 -145 0 -145 0 0 975 0 975 145 0 145 0 0
-975z"/>
<path d="M7743 5738 l-23 -24 0 -1061 c0 -1027 1 -1060 19 -1077 17 -16 60
-17 562 -13 519 3 547 4 619 25 100 28 263 111 324 164 110 95 218 261 272
420 51 151 59 216 58 478 0 215 -3 258 -23 349 -71 330 -261 584 -515 690
-140 58 -189 63 -756 68 l-515 5 -22 -24z m1132 -132 c282 -71 474 -288 546
-618 31 -143 43 -323 30 -471 -36 -401 -198 -668 -469 -771 -147 -57 -170 -59
-674 -63 l-468 -5 0 977 0 977 483 -5 c415 -3 492 -6 552 -21z"/>
<path d="M8163 5395 l-23 -16 0 -718 c0 -683 1 -719 18 -734 16 -15 51 -17
285 -17 290 0 339 6 434 52 174 85 255 266 269 603 11 251 -17 449 -82 577
-35 69 -124 160 -193 197 -90 48 -164 59 -440 66 -219 6 -248 5 -268 -10z
m562 -138 c116 -33 174 -79 223 -177 55 -109 67 -188 67 -435 -1 -194 -3 -231
-23 -309 -42 -168 -95 -235 -219 -279 -49 -17 -92 -20 -285 -25 l-228 -4 0
627 0 628 208 -6 c133 -3 225 -11 257 -20z"/>
<path d="M9835 5735 l-25 -24 0 -1051 c0 -950 2 -1053 16 -1075 l16 -25 824 0
823 0 15 22 c13 18 16 57 16 213 0 187 -1 192 -23 213 l-23 22 -557 0 -557 0
0 220 0 220 498 0 499 0 21 23 c21 22 22 32 22 219 l0 197 -26 20 c-26 21 -36
21 -520 21 l-494 0 0 165 0 165 535 0 536 0 24 25 c25 24 25 26 25 215 0 189
0 191 -25 215 l-24 25 -786 0 -786 0 -24 -25z m1515 -215 l0 -110 -535 0 -536
0 -24 -25 -25 -24 0 -246 0 -246 25 -24 24 -25 501 0 501 0 -3 -112 -3 -113
-505 -3 -505 -2 -17 -23 c-16 -20 -18 -53 -18 -317 0 -252 2 -299 16 -318 l15
-22 565 0 564 0 0 -115 0 -115 -725 0 -725 0 0 975 0 975 705 0 705 0 0 -110z"/>
<path d="M11772 5737 l-22 -23 0 -1055 c0 -938 2 -1057 16 -1077 15 -22 19
-22 253 -22 218 0 239 2 254 18 15 17 17 61 17 432 l0 413 93 -6 c190 -11 189
-11 540 -532 103 -154 197 -290 207 -302 20 -23 22 -23 299 -23 278 0 280 0
295 22 9 12 16 31 16 42 0 24 -330 550 -421 672 -38 50 -95 116 -129 147 -63
59 -69 67 -46 67 7 0 51 19 97 42 153 75 273 222 314 383 20 78 20 269 0 354
-24 102 -79 196 -165 282 -168 170 -281 189 -1106 189 l-491 0 -21 -23z m1178
-117 c244 -30 358 -96 435 -253 61 -125 77 -243 50 -372 -44 -210 -184 -337
-420 -385 -69 -14 -101 -31 -110 -60 -10 -31 17 -64 98 -119 139 -94 195 -164
422 -527 74 -118 135 -217 135 -220 0 -2 -78 -4 -173 -4 l-174 0 -78 118
c-350 528 -452 660 -549 707 -56 27 -169 45 -292 45 -57 0 -77 -4 -98 -21
l-26 -20 0 -415 0 -415 -147 3 -148 3 -3 973 -2 972 498 0 c282 0 534 -4 582
-10z"/>
<path d="M12195 5385 l-25 -24 0 -281 0 -281 26 -26 26 -26 312 7 c396 8 432
15 516 99 73 73 85 106 85 232 0 122 -7 144 -72 216 -65 72 -118 91 -273 100
-74 4 -233 8 -353 8 l-218 1 -24 -25z m722 -132 c55 -30 80 -64 92 -126 18
-89 -15 -175 -80 -209 -53 -27 -160 -37 -411 -38 l-228 0 0 201 0 200 293 -3
c279 -3 294 -4 334 -25z"/>
<path d="M20473 5734 l-25 -25 5 -717 c3 -436 10 -750 16 -802 28 -210 75
-315 200 -441 74 -75 100 -93 191 -137 151 -74 223 -87 495 -87 179 0 235 3
300 19 277 64 477 246 539 491 31 125 36 255 36 974 l0 720 -22 15 c-19 13
-60 16 -244 16 -203 0 -224 -2 -245 -19 l-24 -19 -5 -734 c-6 -799 -7 -806
-64 -880 -61 -81 -197 -120 -338 -98 -137 21 -219 78 -261 180 -22 55 -22 58
-27 793 l-5 739 -24 19 c-21 17 -42 19 -248 19 l-224 0 -26 -26z m397 -701 c1
-716 6 -817 49 -908 57 -122 166 -208 299 -236 35 -7 104 -10 178 -7 109 4
128 8 185 35 125 60 198 154 219 285 6 42 10 316 10 747 l0 681 150 0 150 0 0
-602 c0 -802 -12 -940 -92 -1091 -72 -134 -215 -230 -403 -269 -117 -24 -351
-28 -479 -8 -284 43 -469 200 -520 440 -30 140 -36 294 -36 913 l0 617 145 0
145 0 0 -597z"/>
<path d="M22575 5735 l-25 -24 0 -1054 c0 -1046 0 -1053 20 -1075 l21 -22 589
0 c700 0 750 4 901 80 81 41 211 170 256 255 98 187 108 406 27 576 -39 80
-141 195 -212 236 l-43 25 50 53 c127 134 176 284 151 469 -15 120 -63 212
-164 311 -182 181 -255 194 -1069 195 l-478 0 -24 -25z m1253 -128 c146 -39
253 -122 312 -241 103 -209 37 -438 -165 -565 -59 -37 -65 -45 -65 -75 0 -41
19 -59 90 -86 175 -67 276 -204 287 -390 13 -207 -99 -414 -267 -497 -128 -62
-156 -65 -777 -70 l-563 -5 0 977 0 977 543 -5 c462 -3 551 -6 605 -20z"/>
<path d="M22991 5384 c-20 -26 -21 -37 -21 -279 l0 -252 24 -22 c24 -22 24
-22 352 -19 316 3 331 4 377 25 72 34 120 75 153 135 26 48 29 62 29 143 0 73
-4 98 -22 130 -29 55 -88 110 -148 137 -49 22 -60 23 -386 26 l-336 3 -22 -27z
m549 -103 c156 -10 194 -25 223 -89 24 -55 19 -142 -11 -181 -48 -65 -131 -81
-434 -81 l-218 0 0 180 0 180 158 0 c86 -1 213 -5 282 -9z"/>
<path d="M22995 4565 l-25 -24 0 -294 0 -294 24 -22 23 -22 364 3 c349 3 366
4 411 25 65 30 137 99 164 158 34 72 34 218 0 290 -30 65 -111 138 -183 165
-68 25 -263 39 -556 40 -197 0 -198 0 -222 -25z m620 -115 c174 -20 239 -77
239 -210 0 -120 -53 -178 -184 -199 -36 -6 -179 -11 -317 -11 l-253 0 0 215 0
215 213 0 c116 0 253 -5 302 -10z"/>
<path d="M5977 5722 c-16 -17 -17 -106 -17 -1074 0 -1009 1 -1056 18 -1071 17
-16 85 -17 774 -17 719 0 756 1 771 18 15 16 17 47 17 220 0 196 -1 201 -22
216 -20 14 -86 16 -520 16 l-498 0 0 833 0 834 -23 21 c-23 21 -31 22 -254 22
-210 0 -231 -2 -246 -18z m393 -931 c0 -822 0 -829 21 -855 l20 -26 502 -2
502 -3 3 -112 3 -113 -671 0 -670 0 0 970 0 970 145 0 145 0 0 -829z"/>
<path d="M18715 5715 l-25 -24 0 -1039 c0 -1036 0 -1039 21 -1066 l20 -26 758
0 c722 0 759 1 774 18 15 16 17 46 17 215 0 184 -1 198 -20 217 -19 19 -33 20
-520 20 l-500 0 0 833 0 834 -23 21 c-23 21 -31 22 -251 22 l-227 0 -24 -25z
m395 -927 c1 -727 3 -836 16 -853 14 -19 30 -20 522 -25 l507 -5 3 -112 3
-113 -671 0 -670 0 0 970 0 970 145 0 145 0 0 -832z"/>
</g>
</svg>
