<?xml version="1.0" standalone="no"?>
<!DOCTYPE svg PUBLIC "-//W3C//DTD SVG 20010904//EN"
 "http://www.w3.org/TR/2001/REC-SVG-20010904/DTD/svg10.dtd">
<svg version="1.0" xmlns="http://www.w3.org/2000/svg"
 width="2550.000000pt" height="3300.000000pt" viewBox="0 0 2550.000000 3300.000000"
 preserveAspectRatio="xMidYMid meet">
<metadata>
Created by potrace 1.14, written by Peter Selinger 2001-2017
</metadata>
<g transform="translate(0.000000,3300.000000) scale(0.100000,-0.100000)"
fill="#000000" stroke="none">
<path d="M12087 30815 c-29 -11 -104 -15 -300 -16 -144 -1 -273 -6 -286 -11
-32 -12 -125 -27 -233 -38 -48 -5 -96 -13 -107 -19 -11 -6 -68 -11 -128 -11
-68 -1 -123 -6 -148 -15 -22 -8 -54 -15 -71 -15 -17 0 -51 -7 -74 -15 -23 -8
-57 -15 -74 -15 -18 0 -52 -6 -77 -14 -86 -26 -145 -39 -209 -46 -36 -4 -101
-17 -144 -29 -44 -11 -104 -21 -135 -21 -31 -1 -74 -7 -96 -15 -22 -8 -47 -15
-55 -15 -8 0 -77 -20 -155 -44 -180 -56 -307 -92 -370 -104 -46 -9 -92 -26
-235 -87 -30 -12 -116 -42 -190 -65 -185 -57 -204 -63 -295 -100 -44 -18 -107
-42 -140 -55 -33 -12 -76 -29 -95 -37 -32 -14 -62 -27 -190 -78 -102 -41 -209
-83 -265 -105 -49 -19 -240 -109 -463 -220 -124 -61 -270 -140 -297 -160 -16
-13 -72 -44 -124 -70 -51 -25 -117 -61 -145 -79 -93 -59 -154 -94 -178 -101
-27 -8 -263 -163 -328 -215 -55 -44 -141 -100 -196 -128 -22 -11 -46 -28 -53
-36 -16 -19 -221 -156 -276 -184 -22 -11 -65 -46 -95 -77 -30 -31 -93 -83
-140 -114 -125 -83 -174 -123 -362 -299 -47 -45 -91 -82 -98 -82 -6 0 -47 -35
-93 -78 -45 -43 -113 -100 -152 -127 -38 -28 -118 -99 -178 -160 -341 -347
-587 -604 -587 -614 0 -6 -47 -60 -105 -121 -58 -62 -105 -116 -105 -122 0 -6
-48 -61 -107 -123 -114 -119 -134 -144 -237 -295 -35 -52 -90 -120 -121 -150
-31 -30 -67 -75 -80 -100 -26 -50 -142 -226 -181 -274 -73 -91 -227 -313 -257
-371 -8 -16 -49 -81 -92 -144 -42 -62 -117 -195 -167 -294 -50 -100 -114 -215
-143 -257 -29 -41 -55 -86 -59 -100 -9 -32 -52 -134 -76 -180 -90 -170 -150
-292 -150 -304 0 -7 -31 -76 -69 -152 -37 -77 -72 -150 -76 -164 -4 -14 -23
-59 -42 -100 -20 -41 -46 -108 -59 -148 -14 -41 -31 -87 -40 -104 -9 -16 -22
-49 -29 -72 -22 -68 -75 -189 -90 -206 -8 -9 -19 -39 -24 -66 -6 -27 -32 -112
-59 -189 -101 -284 -110 -311 -125 -380 -9 -38 -18 -83 -21 -100 -7 -45 -25
-125 -35 -159 -9 -29 -21 -76 -58 -221 -8 -33 -21 -85 -28 -115 -48 -188 -58
-232 -67 -289 -5 -36 -14 -73 -19 -82 -5 -10 -9 -33 -9 -52 0 -19 -7 -54 -15
-77 -8 -23 -15 -65 -15 -92 0 -27 -7 -65 -15 -85 -8 -19 -15 -45 -15 -57 0
-11 -7 -39 -15 -61 -9 -25 -14 -80 -15 -148 0 -61 -5 -118 -11 -130 -7 -11
-15 -60 -19 -107 -5 -47 -16 -114 -25 -150 -13 -48 -19 -124 -24 -290 -4 -142
-11 -235 -19 -253 -17 -41 -17 -1483 0 -1524 8 -17 15 -109 19 -238 5 -151 11
-228 24 -275 9 -36 20 -103 25 -150 4 -47 12 -96 19 -107 6 -12 11 -57 11
-101 0 -45 6 -98 15 -122 8 -23 15 -68 15 -100 0 -32 7 -77 15 -100 8 -23 15
-57 15 -76 0 -18 5 -45 11 -61 6 -15 15 -53 20 -83 24 -158 83 -407 137 -580
14 -47 29 -107 33 -135 4 -27 16 -84 27 -125 10 -41 22 -95 25 -121 3 -25 17
-70 31 -100 14 -29 26 -72 26 -94 0 -22 10 -60 21 -85 22 -47 52 -128 149
-395 31 -88 72 -196 90 -240 18 -44 47 -120 64 -170 18 -49 44 -112 58 -140
14 -27 31 -68 38 -90 7 -22 44 -102 82 -179 37 -76 68 -145 68 -152 0 -8 48
-110 106 -227 59 -116 113 -229 120 -250 7 -21 29 -57 48 -80 18 -23 80 -134
136 -247 98 -197 172 -323 206 -351 8 -7 29 -38 45 -68 74 -137 187 -308 283
-427 36 -44 95 -133 116 -174 35 -68 92 -146 155 -210 34 -36 91 -105 124
-155 110 -160 140 -199 230 -290 48 -49 99 -106 111 -125 30 -45 148 -173 387
-419 106 -109 193 -204 193 -211 0 -17 248 -268 295 -298 61 -38 108 -78 216
-179 54 -51 104 -93 109 -93 6 0 71 -59 145 -130 74 -72 139 -130 145 -130 5
0 27 -15 47 -33 21 -19 76 -59 123 -90 47 -30 110 -81 140 -112 32 -33 77 -67
107 -81 28 -12 54 -27 57 -33 4 -5 50 -39 104 -74 54 -36 104 -72 112 -82 7
-9 40 -30 71 -46 32 -16 74 -43 93 -59 19 -17 67 -53 108 -80 40 -27 94 -64
120 -82 78 -55 161 -102 208 -118 25 -9 81 -41 125 -71 44 -31 100 -66 125
-79 25 -12 52 -29 61 -36 9 -8 44 -25 79 -39 34 -13 77 -35 94 -49 56 -42 637
-328 728 -357 48 -16 124 -47 169 -70 45 -22 123 -55 173 -74 50 -18 127 -47
171 -65 44 -18 107 -42 140 -54 33 -13 74 -30 90 -38 17 -9 46 -19 65 -22 63
-13 405 -128 421 -143 23 -20 113 -51 168 -58 25 -4 82 -17 126 -30 182 -53
293 -85 350 -99 33 -8 87 -22 121 -30 33 -9 75 -16 92 -16 17 0 75 -11 128
-25 53 -14 115 -25 138 -25 22 -1 59 -7 81 -15 22 -8 50 -15 61 -15 12 0 38
-7 57 -15 20 -8 52 -15 70 -15 19 0 54 -7 77 -15 23 -8 65 -15 92 -15 27 0 59
-5 71 -12 12 -6 73 -15 137 -19 263 -19 326 -26 347 -37 12 -7 39 -12 60 -12
21 -1 56 -7 78 -15 30 -11 95 -15 271 -15 180 0 241 -3 274 -15 62 -22 1186
-22 1248 -1 36 13 46 13 91 -2 47 -15 54 -15 107 2 40 13 90 18 173 18 64 1
125 6 136 11 11 6 72 14 135 18 63 4 149 15 190 23 41 9 103 21 136 26 34 5
74 14 88 20 15 5 60 10 100 10 41 0 93 7 116 15 23 8 58 15 77 15 18 0 50 7
70 15 19 8 57 15 82 15 26 0 67 6 92 14 47 14 165 42 214 50 17 2 59 12 95 21
36 9 81 20 100 24 19 4 73 19 120 33 198 61 296 88 315 88 37 0 160 34 310 86
292 102 484 164 511 164 41 0 160 50 243 102 33 21 124 57 351 137 104 37 522
241 616 300 26 17 60 31 74 31 29 0 179 69 225 104 17 13 53 35 81 49 27 14
69 41 92 60 23 20 55 38 72 42 16 4 33 11 36 17 4 6 32 21 63 35 31 13 67 35
81 48 25 23 78 55 240 145 127 70 458 294 515 349 28 26 82 68 120 94 39 25
81 58 95 72 14 15 48 43 77 61 28 19 54 38 58 43 3 5 65 49 138 97 126 84 218
160 353 292 33 33 85 76 116 96 31 19 73 56 95 82 21 26 53 61 72 78 122 111
545 536 558 561 9 17 106 121 216 232 126 128 212 223 231 257 48 84 94 143
191 247 98 105 122 136 218 279 35 52 72 101 81 109 29 24 133 166 141 192 7
24 108 178 206 314 28 39 66 100 84 136 41 80 87 151 130 200 18 20 40 58 50
85 31 86 65 158 99 209 52 78 116 190 116 202 0 6 20 37 45 69 25 32 52 79 59
104 8 25 63 145 122 267 156 318 168 343 218 495 25 75 62 170 82 210 38 75
88 204 179 464 29 82 57 159 63 170 21 40 52 139 52 169 0 17 11 64 25 106 13
41 27 95 30 119 7 44 49 186 126 429 22 68 44 155 49 195 5 39 18 107 29 150
12 44 21 98 21 120 1 23 7 59 15 81 8 22 15 68 15 101 0 34 7 81 15 104 8 23
15 57 15 74 0 17 7 49 15 71 8 22 14 61 15 86 0 25 11 79 25 119 21 62 25 92
25 194 0 67 5 139 12 161 6 22 14 99 17 170 4 72 12 140 19 152 8 15 12 85 12
226 0 157 4 214 15 249 21 59 16 469 -5 536 -12 35 -12 49 -1 85 22 68 26 258
7 314 -12 36 -16 89 -16 234 0 140 -4 197 -15 229 -10 29 -15 81 -15 162 0 73
-5 128 -12 141 -7 12 -15 92 -19 182 -10 208 -22 294 -53 380 -14 39 -26 84
-26 101 0 17 -7 51 -15 74 -8 23 -15 70 -15 104 0 33 -7 79 -15 101 -8 22 -14
59 -15 81 0 23 -11 84 -24 135 -13 52 -26 122 -30 157 -3 36 -16 83 -31 112
-14 27 -25 57 -25 67 0 10 -11 54 -25 96 -14 43 -30 97 -35 120 -16 78 -78
312 -94 356 -9 24 -16 58 -16 75 0 38 -30 127 -69 205 -16 31 -39 90 -51 131
-49 163 -119 359 -153 426 -22 44 -64 148 -111 272 -9 23 -16 54 -16 67 0 21
-78 184 -174 365 -32 60 -101 214 -120 270 -9 25 -34 67 -56 94 -22 26 -40 53
-40 60 0 24 -69 154 -125 235 -31 46 -64 104 -73 130 -8 25 -23 58 -34 73 -10
15 -24 42 -30 60 -6 18 -23 47 -38 63 -42 46 -87 119 -141 228 -28 54 -70 120
-93 146 -49 52 -126 168 -126 188 0 18 -91 152 -120 178 -12 11 -47 56 -77
100 -55 82 -101 144 -150 204 -15 19 -36 48 -47 65 -10 17 -44 58 -76 91 -31
33 -64 74 -73 90 -8 17 -36 50 -62 75 -26 25 -71 82 -101 127 -30 45 -71 96
-92 112 -20 17 -59 61 -87 97 -58 77 -116 138 -166 173 -20 14 -46 40 -60 59
-13 19 -58 72 -100 116 -42 45 -83 95 -92 111 -17 34 -130 145 -146 145 -6 0
-60 45 -119 100 -150 140 -153 142 -196 195 -21 25 -55 57 -75 70 -20 12 -73
59 -118 104 -46 44 -105 92 -133 106 -27 14 -54 34 -60 45 -6 11 -36 39 -67
62 -138 105 -174 132 -268 196 -55 38 -109 79 -120 92 -11 12 -51 43 -90 68
-38 25 -95 69 -125 98 -60 57 -401 288 -451 306 -33 11 -119 66 -159 102 -37
32 -130 92 -170 109 -19 8 -65 27 -102 42 -36 14 -83 41 -105 59 -60 51 -143
103 -198 123 -27 11 -74 36 -103 56 -30 20 -72 42 -95 48 -58 16 -150 63 -191
100 -19 17 -52 35 -73 40 -21 5 -60 20 -88 34 -84 41 -249 113 -275 120 -14 4
-51 21 -82 36 -32 16 -91 40 -131 53 -40 13 -115 45 -165 70 -51 25 -116 51
-145 57 -28 6 -68 19 -87 29 -19 10 -89 34 -155 54 -66 21 -133 42 -150 48
-16 6 -120 42 -230 80 -198 68 -224 76 -360 102 -38 7 -98 23 -132 35 -34 11
-68 21 -76 21 -7 0 -54 13 -103 29 -92 29 -272 75 -359 90 -27 5 -79 17 -115
26 -36 9 -90 20 -120 24 -30 5 -68 14 -83 20 -16 6 -43 11 -61 11 -19 0 -53 7
-76 15 -25 9 -78 15 -130 15 -52 0 -105 6 -130 15 -23 8 -70 15 -103 15 -38 0
-84 9 -129 25 -53 19 -89 25 -152 25 -46 0 -106 7 -136 16 -43 13 -62 14 -91
5 -26 -8 -45 -8 -64 -1 -14 5 -106 10 -203 10 -128 1 -188 5 -217 15 -58 21
-1121 21 -1178 0z m1113 -120 c32 -11 87 -15 216 -15 110 0 183 -4 201 -12 15
-6 87 -15 158 -20 189 -11 296 -23 330 -37 33 -14 150 -28 325 -40 63 -4 125
-13 137 -19 12 -7 37 -12 56 -12 19 0 54 -7 77 -15 23 -8 56 -15 73 -15 27 0
80 -13 176 -42 19 -6 60 -14 90 -18 90 -13 272 -61 521 -138 47 -14 108 -29
135 -33 96 -14 463 -127 544 -168 20 -11 55 -22 76 -26 45 -8 205 -62 278 -94
27 -12 60 -21 73 -21 13 0 66 -21 117 -46 50 -26 136 -62 189 -80 53 -18 123
-46 155 -62 32 -16 69 -33 83 -37 32 -8 194 -80 240 -106 65 -36 355 -178 387
-189 17 -7 55 -27 84 -46 29 -19 74 -42 99 -51 53 -20 109 -54 170 -104 51
-42 149 -93 198 -104 34 -7 127 -64 202 -125 64 -51 144 -100 164 -100 9 0 41
-23 71 -51 29 -27 69 -54 89 -60 19 -5 59 -31 88 -57 29 -26 80 -65 113 -86
33 -22 71 -50 85 -62 14 -12 66 -49 115 -82 50 -33 99 -70 110 -82 11 -12 61
-49 110 -82 50 -34 118 -86 152 -117 96 -87 183 -155 240 -186 31 -16 63 -44
78 -66 14 -22 42 -50 63 -63 20 -13 43 -31 51 -40 7 -9 30 -26 51 -37 20 -12
45 -34 55 -51 28 -48 75 -98 109 -115 17 -9 72 -55 121 -103 50 -48 107 -97
129 -110 21 -13 53 -46 71 -74 18 -28 56 -73 85 -101 29 -27 69 -75 90 -105
38 -54 115 -134 156 -161 24 -16 74 -77 128 -155 20 -28 47 -57 62 -64 14 -8
47 -44 72 -80 25 -36 70 -91 100 -124 29 -32 60 -70 70 -85 9 -14 44 -56 78
-92 34 -37 63 -79 67 -95 3 -17 33 -58 72 -99 40 -42 134 -171 240 -330 95
-143 188 -273 205 -290 18 -16 59 -82 92 -145 62 -121 92 -172 181 -310 30
-47 60 -102 67 -122 6 -20 35 -72 63 -115 71 -106 101 -159 122 -218 10 -27
36 -72 56 -98 21 -27 47 -72 58 -101 11 -29 35 -87 55 -130 20 -43 36 -83 36
-89 0 -7 14 -32 31 -57 46 -68 169 -321 169 -350 1 -35 55 -182 126 -340 19
-41 47 -111 63 -155 15 -44 36 -100 44 -125 9 -25 26 -79 38 -120 12 -41 36
-104 54 -140 38 -76 75 -190 75 -230 0 -16 11 -60 25 -98 14 -38 25 -76 25
-85 0 -8 6 -37 14 -63 8 -27 21 -76 29 -109 9 -33 25 -94 37 -135 12 -41 44
-165 71 -275 27 -110 55 -221 64 -246 8 -26 15 -67 15 -92 0 -24 7 -64 15 -87
8 -23 15 -71 15 -107 0 -35 5 -73 10 -83 10 -19 21 -76 41 -225 6 -44 16 -89
21 -99 10 -19 21 -109 37 -306 4 -52 13 -108 19 -123 7 -16 12 -80 12 -146 0
-80 5 -132 15 -161 11 -32 15 -89 15 -228 0 -146 4 -197 17 -239 15 -48 15
-60 3 -111 -21 -88 -24 -251 -6 -307 22 -63 22 -315 1 -375 -11 -32 -15 -91
-15 -245 0 -154 -4 -213 -15 -245 -10 -27 -15 -80 -15 -146 0 -56 -5 -115 -12
-131 -6 -15 -15 -71 -19 -123 -16 -192 -27 -286 -38 -310 -6 -14 -15 -56 -21
-95 -23 -167 -30 -206 -40 -224 -5 -11 -10 -49 -10 -84 0 -36 -7 -84 -15 -107
-8 -23 -15 -61 -15 -83 0 -22 -6 -63 -14 -91 -38 -133 -76 -295 -76 -322 0
-10 -11 -50 -25 -89 -13 -38 -25 -78 -25 -87 0 -9 -20 -78 -45 -152 -25 -75
-45 -149 -45 -165 0 -15 -11 -61 -25 -101 -14 -40 -25 -87 -25 -104 -1 -31
-13 -66 -113 -341 -31 -82 -73 -200 -95 -261 -22 -61 -58 -147 -80 -191 -23
-44 -66 -156 -96 -248 -31 -92 -65 -178 -76 -192 -11 -14 -20 -32 -20 -39 0
-15 -240 -497 -269 -539 -12 -16 -21 -37 -21 -46 0 -9 -9 -28 -20 -42 -11 -14
-27 -44 -35 -66 -7 -22 -22 -53 -33 -68 -64 -94 -146 -243 -167 -304 -9 -24
-29 -57 -44 -74 -16 -16 -39 -50 -51 -75 -12 -25 -32 -58 -45 -75 -12 -16 -37
-59 -55 -95 -34 -69 -115 -196 -130 -205 -14 -9 -208 -301 -235 -354 -13 -25
-37 -59 -55 -76 -17 -16 -52 -60 -76 -97 -25 -37 -60 -80 -78 -95 -18 -16 -57
-64 -86 -108 -29 -44 -78 -108 -109 -141 -80 -88 -135 -161 -165 -221 -14 -29
-38 -60 -52 -70 -15 -10 -42 -34 -60 -53 -19 -19 -94 -98 -167 -175 -74 -77
-143 -156 -155 -175 -27 -45 -444 -456 -499 -492 -23 -15 -59 -51 -81 -80 -26
-36 -69 -73 -125 -111 -47 -31 -94 -71 -104 -87 -10 -17 -48 -51 -86 -76 -37
-25 -79 -63 -94 -85 -16 -25 -37 -42 -62 -50 -20 -6 -52 -26 -71 -44 -38 -35
-128 -104 -193 -148 -23 -15 -60 -45 -82 -66 -22 -21 -79 -63 -127 -94 -47
-31 -89 -60 -92 -66 -4 -5 -39 -31 -79 -57 -39 -26 -90 -64 -113 -84 -55 -50
-235 -170 -314 -210 -36 -18 -78 -42 -95 -55 -16 -12 -50 -32 -75 -45 -25 -13
-63 -38 -84 -57 -22 -18 -57 -38 -77 -43 -20 -6 -42 -16 -48 -24 -6 -7 -37
-23 -69 -34 -32 -12 -94 -49 -137 -82 -90 -69 -283 -170 -323 -170 -15 0 -40
-9 -57 -21 -61 -41 -552 -282 -623 -305 -40 -13 -90 -32 -110 -43 -20 -10 -76
-30 -124 -45 -50 -16 -111 -43 -145 -66 -56 -39 -100 -55 -318 -116 -89 -25
-124 -36 -425 -139 -171 -58 -228 -74 -310 -86 -30 -4 -89 -20 -130 -34 -41
-14 -80 -25 -88 -25 -7 0 -46 -11 -85 -24 -40 -13 -106 -32 -147 -41 -41 -10
-95 -24 -119 -31 -25 -8 -58 -14 -74 -14 -17 0 -53 -6 -81 -14 -28 -8 -76 -22
-107 -30 -31 -9 -74 -16 -97 -16 -22 0 -53 -5 -69 -11 -15 -7 -73 -15 -128
-19 -55 -5 -134 -15 -175 -24 -41 -9 -103 -21 -138 -26 -35 -6 -72 -15 -82
-20 -10 -6 -34 -10 -53 -10 -19 0 -54 -7 -77 -15 -31 -11 -86 -15 -204 -15
-115 0 -172 -4 -201 -15 -28 -10 -85 -14 -186 -15 -104 0 -159 -4 -189 -15
-62 -22 -1054 -22 -1115 0 -29 11 -88 15 -218 15 -135 0 -186 4 -214 15 -22
10 -69 15 -127 15 -54 0 -107 6 -131 15 -22 8 -74 14 -116 15 -42 0 -96 7
-119 15 -23 8 -65 15 -92 15 -27 0 -58 5 -69 11 -11 6 -62 12 -112 15 -51 3
-117 9 -147 15 -103 19 -205 41 -249 55 -25 8 -62 14 -84 14 -22 0 -63 6 -91
14 -28 8 -78 21 -111 30 -33 8 -80 20 -104 26 -24 6 -73 15 -110 20 -107 14
-139 23 -451 120 -69 22 -147 43 -175 46 -27 4 -66 17 -85 30 -19 12 -123 50
-230 84 -236 74 -236 75 -330 112 -41 17 -102 40 -135 52 -33 13 -73 30 -90
38 -16 8 -64 26 -105 38 -41 13 -118 44 -170 70 -52 26 -126 57 -165 70 -72
23 -686 326 -734 361 -15 11 -51 30 -81 42 -68 28 -127 62 -250 142 -131 85
-233 142 -300 167 -19 7 -51 26 -70 44 -19 17 -74 56 -121 87 -47 31 -92 64
-99 72 -8 9 -37 28 -64 42 -28 14 -71 42 -96 62 -25 20 -78 58 -117 85 -40 26
-75 51 -78 56 -3 5 -45 35 -93 66 -48 31 -105 73 -127 94 -22 21 -78 63 -125
93 -47 31 -116 86 -155 122 -186 173 -256 235 -266 235 -7 0 -51 39 -100 86
-48 47 -108 100 -132 118 -25 17 -64 45 -88 61 -64 45 -229 206 -246 240 -9
17 -103 118 -209 226 -107 107 -194 201 -194 208 0 6 -45 58 -100 116 -55 57
-100 109 -100 115 0 6 -51 64 -112 130 -128 135 -144 154 -218 265 -30 44 -73
101 -96 126 -23 25 -49 59 -57 75 -8 16 -32 45 -52 64 -20 19 -47 55 -60 80
-36 70 -116 185 -205 293 -19 24 -50 67 -68 97 -18 30 -48 80 -67 110 -19 30
-46 78 -60 105 -15 28 -37 61 -50 75 -55 60 -120 170 -220 370 -59 118 -123
232 -141 253 -19 20 -34 43 -34 51 0 8 -47 109 -104 224 -57 115 -111 230
-120 255 -9 26 -42 99 -74 164 -33 65 -65 136 -72 158 -7 22 -26 67 -43 100
-16 33 -42 99 -58 146 -15 47 -36 105 -47 130 -35 78 -74 178 -117 302 -40
114 -119 327 -150 407 -8 19 -14 49 -15 67 0 17 -11 55 -25 85 -14 29 -25 67
-25 84 0 18 -6 54 -14 80 -8 27 -21 74 -30 105 -9 31 -16 69 -16 85 0 16 -13
69 -29 119 -16 49 -39 131 -51 180 -12 50 -28 117 -36 150 -8 33 -19 85 -23
115 -5 30 -14 68 -20 83 -6 16 -11 43 -11 61 0 19 -7 53 -15 76 -8 23 -15 57
-15 74 0 17 -7 49 -15 71 -8 24 -14 78 -15 133 0 51 -4 101 -9 110 -10 19 -29
147 -40 272 -5 47 -14 97 -21 110 -8 15 -14 65 -16 125 -1 55 -7 113 -13 128
-6 16 -11 81 -11 146 0 80 -5 132 -15 161 -22 64 -22 1346 0 1410 10 30 15 83
15 176 0 75 5 145 11 161 6 15 13 73 14 128 1 55 8 114 15 130 14 32 24 120
39 325 5 70 19 160 31 205 12 44 26 112 30 150 4 39 12 83 19 98 6 16 11 43
11 62 0 19 5 46 11 62 6 15 15 53 20 83 4 30 15 82 23 115 25 103 56 228 71
288 8 31 21 83 29 115 28 112 48 188 62 236 8 26 14 62 14 80 0 17 11 55 25
84 14 30 25 70 25 90 0 21 10 57 21 82 27 58 129 365 129 388 0 10 11 33 25
52 14 19 25 39 25 46 0 6 14 45 31 85 64 152 78 186 102 260 14 42 39 103 55
135 16 32 35 77 42 99 7 22 41 97 76 167 35 70 64 134 64 141 0 19 107 235
134 272 13 17 30 50 39 75 36 103 71 176 114 238 25 36 85 145 133 242 49 97
128 237 178 311 49 74 96 148 105 165 24 46 136 215 163 244 43 48 223 310
253 369 13 24 61 84 107 133 46 48 84 93 84 99 0 5 22 34 49 62 27 29 61 76
76 106 15 31 72 102 135 170 60 64 147 157 193 206 47 50 96 108 110 130 14
22 118 132 232 245 114 113 224 230 245 260 40 58 128 145 200 195 120 85 145
105 207 163 157 145 231 210 273 239 25 17 68 55 95 83 28 29 88 77 135 107
47 31 103 73 125 94 43 41 68 59 257 188 68 46 138 97 156 112 18 16 52 38 75
50 50 26 174 107 182 119 10 15 211 148 237 155 12 4 64 33 113 64 167 107
190 120 300 177 60 31 123 67 140 79 26 20 70 43 260 141 132 68 411 200 460
219 33 13 94 36 135 53 154 62 226 91 280 111 30 12 75 30 100 40 25 11 81 33
125 51 44 18 105 43 135 55 30 13 71 26 90 30 48 9 292 91 363 121 147 62 175
72 222 78 28 3 82 17 120 31 39 13 77 25 85 25 8 0 57 14 109 30 51 17 114 30
140 30 33 0 57 7 83 25 28 19 50 25 90 25 29 0 71 5 93 11 22 5 67 17 100 25
33 9 89 19 125 23 36 4 83 12 105 18 22 6 60 17 85 24 25 7 68 16 95 20 28 4
73 13 100 19 28 6 69 15 93 20 23 6 82 10 130 10 48 0 114 7 145 15 32 8 82
15 111 15 30 0 73 7 96 15 27 10 79 15 145 15 66 0 118 5 145 15 32 11 91 15
234 16 135 0 201 4 226 14 54 21 981 21 1040 0z"/>
<path d="M8190 27104 c-25 -7 -77 -14 -116 -14 -39 0 -91 -7 -114 -15 -23 -8
-64 -15 -90 -15 -26 0 -64 -7 -83 -15 -20 -8 -52 -15 -70 -15 -19 0 -54 -7
-77 -15 -23 -8 -57 -15 -75 -15 -18 0 -101 -24 -186 -54 -147 -51 -178 -62
-294 -101 -200 -68 -396 -156 -489 -219 -20 -13 -58 -33 -84 -42 -26 -10 -99
-52 -162 -95 -63 -42 -134 -86 -157 -98 -23 -12 -59 -35 -79 -53 -20 -17 -53
-43 -74 -57 -101 -68 -223 -164 -310 -246 -53 -49 -118 -106 -145 -125 -28
-19 -66 -58 -85 -85 -19 -27 -87 -104 -150 -171 -169 -180 -232 -256 -318
-385 -42 -63 -90 -130 -105 -149 -16 -18 -44 -65 -64 -104 -19 -39 -45 -84
-58 -101 -12 -16 -32 -50 -45 -75 -13 -25 -33 -59 -46 -76 -13 -17 -32 -55
-43 -85 -10 -30 -44 -106 -76 -169 -32 -63 -71 -155 -86 -203 -16 -48 -38
-105 -49 -127 -11 -22 -20 -50 -20 -62 -1 -13 -14 -61 -30 -108 -17 -47 -30
-93 -30 -103 0 -10 -10 -46 -21 -80 -34 -98 -89 -328 -89 -372 -1 -22 -7 -58
-15 -80 -10 -27 -15 -82 -15 -171 0 -91 -5 -145 -15 -174 -22 -62 -22 -601 0
-653 11 -26 15 -74 15 -171 0 -78 5 -146 11 -163 7 -15 15 -66 19 -113 9 -99
61 -317 125 -515 25 -77 45 -147 45 -155 1 -22 35 -121 59 -168 12 -23 21 -47
21 -55 0 -7 27 -69 60 -137 33 -68 60 -130 60 -137 0 -18 57 -131 85 -168 13
-16 37 -59 55 -95 18 -36 42 -78 55 -95 12 -16 30 -46 40 -65 23 -45 104 -168
115 -175 5 -3 38 -49 73 -103 36 -53 74 -106 87 -117 12 -11 36 -40 53 -65 32
-47 73 -95 237 -273 55 -59 100 -113 100 -118 0 -6 45 -57 100 -114 55 -58
100 -109 100 -115 0 -6 45 -58 100 -115 55 -58 100 -109 100 -115 0 -6 65 -78
145 -160 80 -82 145 -154 145 -160 0 -6 45 -58 100 -115 55 -58 100 -109 100
-115 0 -6 43 -56 95 -113 205 -220 253 -273 280 -312 16 -22 71 -84 122 -137
51 -53 93 -102 93 -109 0 -6 50 -62 110 -124 61 -62 110 -118 110 -123 0 -6
41 -54 90 -107 50 -53 90 -100 90 -106 0 -6 52 -64 115 -129 63 -66 115 -124
115 -130 0 -6 56 -71 125 -143 211 -224 281 -301 306 -337 13 -19 72 -85 131
-147 60 -61 108 -117 108 -123 0 -6 45 -58 100 -115 55 -58 100 -109 100 -115
0 -6 45 -57 100 -115 55 -57 100 -109 100 -115 0 -6 42 -55 93 -108 51 -53
101 -110 111 -127 10 -16 57 -70 103 -120 232 -248 313 -338 313 -347 0 -5 52
-63 115 -128 63 -66 115 -124 115 -130 0 -7 52 -65 115 -130 63 -66 115 -124
115 -130 0 -6 45 -58 100 -115 55 -58 100 -109 100 -115 0 -6 45 -58 100 -115
55 -58 100 -109 100 -115 0 -6 45 -57 100 -115 55 -57 100 -108 100 -113 0 -5
36 -45 81 -88 44 -44 96 -101 116 -129 20 -27 76 -91 125 -142 48 -51 88 -97
88 -103 0 -5 47 -59 105 -120 58 -61 105 -115 105 -121 0 -7 56 -69 125 -139
69 -70 125 -133 125 -139 0 -6 45 -58 100 -116 55 -57 100 -109 100 -115 0 -6
45 -57 100 -115 55 -57 100 -108 100 -113 0 -6 43 -54 95 -109 52 -54 95 -102
95 -106 0 -5 52 -62 115 -127 63 -66 115 -124 115 -130 0 -6 45 -58 100 -115
55 -58 100 -109 100 -115 0 -6 42 -55 93 -108 52 -53 104 -114 116 -134 12
-20 45 -58 73 -83 44 -39 56 -45 95 -45 42 0 48 4 139 92 53 51 103 106 111
123 9 16 65 80 124 141 60 62 109 117 109 123 0 7 52 65 115 131 63 65 115
123 115 130 0 6 49 62 109 123 59 62 113 121 119 132 11 21 128 152 295 330
53 58 97 109 97 115 0 6 45 58 100 115 55 58 100 109 100 115 0 6 45 58 100
115 55 58 100 109 100 115 0 6 52 64 115 130 63 66 115 125 115 131 0 6 46 58
103 117 57 59 114 123 127 142 13 19 67 81 120 137 208 223 267 289 290 323
13 19 63 76 112 126 48 50 88 96 88 103 0 6 47 60 105 121 58 61 105 115 105
121 0 7 40 53 88 103 49 50 103 111 120 136 16 25 56 70 87 100 31 30 75 80
98 110 22 30 77 94 121 143 106 115 246 268 307 337 27 30 101 110 164 177 63
67 115 127 115 133 0 6 45 58 100 115 55 58 100 109 100 115 0 5 38 50 85 99
47 50 85 95 85 101 0 6 42 55 93 108 52 53 99 106 105 117 13 25 134 161 280
315 61 66 112 124 112 130 0 6 45 58 100 115 55 58 100 109 100 115 0 6 45 57
100 115 55 57 100 109 100 115 0 6 45 57 100 115 55 57 100 109 100 115 0 7
55 69 123 138 67 70 133 143 146 162 23 34 54 68 296 328 63 67 115 127 115
133 0 6 45 57 100 114 55 58 100 109 100 115 0 6 45 58 100 115 55 58 100 109
100 115 0 6 45 58 100 115 55 58 100 109 100 115 0 6 45 57 100 115 55 57 100
108 100 114 0 6 51 65 113 131 185 198 212 230 312 370 17 23 42 56 57 74 35
42 155 221 178 266 10 19 43 73 74 119 31 46 56 90 56 97 0 8 41 96 91 196 65
131 108 232 150 361 33 98 66 191 74 207 19 37 43 108 54 162 5 24 26 106 45
183 20 77 36 165 36 195 1 30 7 73 15 95 9 24 15 77 15 131 0 58 5 105 15 127
22 54 22 844 0 907 -8 23 -15 77 -15 119 0 42 -7 94 -15 116 -8 22 -14 72 -15
111 0 71 -20 166 -59 281 -12 34 -21 69 -21 77 0 7 -43 144 -96 302 -85 254
-110 316 -206 509 -172 345 -391 679 -575 877 -46 48 -83 93 -83 99 0 17 -298
317 -350 352 -25 16 -77 60 -116 96 -39 36 -106 93 -148 126 -42 33 -98 77
-123 98 -25 21 -66 48 -91 61 -26 13 -98 58 -161 101 -175 117 -575 314 -801
392 -102 35 -210 73 -240 85 -73 27 -197 58 -230 58 -15 0 -47 7 -70 15 -23 8
-58 15 -77 15 -18 0 -50 7 -70 15 -19 8 -57 15 -83 15 -26 0 -67 7 -90 15 -23
8 -70 15 -104 15 -33 0 -79 7 -101 15 -59 21 -861 21 -920 0 -22 -8 -74 -15
-116 -15 -42 0 -96 -7 -119 -15 -23 -8 -62 -15 -85 -15 -23 0 -62 -7 -85 -15
-23 -8 -64 -15 -91 -15 -26 0 -60 -5 -76 -11 -15 -6 -46 -14 -68 -19 -144 -32
-228 -56 -277 -81 -20 -10 -111 -43 -201 -73 -126 -42 -223 -84 -413 -179
-137 -69 -293 -154 -346 -188 -53 -35 -116 -76 -140 -92 -24 -15 -82 -55 -129
-90 -48 -34 -106 -75 -129 -92 -24 -16 -77 -62 -119 -101 -42 -39 -96 -85
-121 -102 -53 -36 -360 -343 -360 -360 0 -7 -33 -47 -74 -90 -41 -42 -99 -115
-131 -162 -31 -46 -68 -98 -81 -115 -75 -91 -97 -122 -115 -157 -11 -22 -43
-73 -72 -115 -29 -43 -86 -142 -127 -222 -102 -197 -97 -198 -199 6 -43 87
-95 178 -116 203 -20 24 -46 62 -57 84 -32 64 -137 217 -175 257 -19 20 -49
57 -66 82 -18 25 -45 65 -62 88 -41 59 -542 565 -585 591 -19 12 -52 37 -73
55 -20 18 -41 33 -46 33 -5 0 -35 24 -68 53 -69 61 -136 110 -207 153 -28 17
-107 67 -174 112 -68 45 -130 82 -138 82 -12 0 -152 69 -294 144 -71 38 -138
66 -234 98 -50 16 -101 35 -116 43 -47 24 -390 135 -419 135 -16 0 -48 7 -71
15 -23 8 -64 15 -90 15 -26 0 -67 7 -90 15 -23 8 -64 15 -90 15 -26 0 -64 7
-83 15 -20 8 -65 15 -99 15 -35 0 -81 7 -103 15 -58 21 -858 20 -925 -1z m955
-132 c50 -5 103 -15 118 -21 16 -6 49 -11 75 -11 26 -1 65 -7 87 -15 22 -8 61
-15 86 -15 26 0 66 -7 89 -15 23 -8 57 -15 74 -15 59 0 717 -236 787 -282 37
-24 249 -129 289 -143 19 -7 85 -46 146 -88 61 -41 133 -86 160 -100 27 -14
58 -34 68 -46 11 -12 36 -31 55 -43 20 -12 59 -42 87 -67 28 -25 70 -59 94
-76 23 -16 65 -46 93 -67 65 -45 444 -426 495 -495 20 -28 51 -70 67 -93 17
-23 49 -63 71 -89 46 -51 164 -224 196 -286 12 -22 33 -55 49 -73 16 -18 73
-121 128 -230 55 -109 113 -210 129 -225 35 -34 97 -46 143 -27 26 11 44 39
125 203 53 104 120 226 150 270 30 44 66 101 79 126 13 26 31 54 41 62 9 8 32
37 51 66 18 28 37 54 42 58 6 3 36 45 67 93 31 48 90 121 130 163 41 42 74 82
74 88 0 17 239 259 290 294 25 16 79 63 120 102 41 40 89 79 106 88 17 9 36
23 44 32 7 9 56 44 109 79 53 35 103 71 110 80 8 10 36 28 62 41 25 13 82 49
126 79 143 97 524 280 743 356 321 112 342 119 410 135 36 9 88 23 116 31 28
8 71 14 95 14 24 0 62 7 84 15 22 8 61 14 87 15 26 0 59 5 75 11 56 23 246 32
638 32 385 0 547 -8 608 -32 16 -6 48 -11 71 -11 24 0 65 -7 92 -15 27 -8 63
-15 80 -15 17 0 48 -7 67 -15 20 -8 51 -15 68 -15 52 0 113 -19 489 -150 238
-82 594 -256 779 -380 68 -45 146 -96 175 -114 73 -43 138 -91 209 -153 33
-29 64 -53 69 -53 5 0 49 -38 98 -85 49 -47 94 -85 100 -85 17 0 238 -218 273
-270 16 -25 62 -79 101 -121 39 -42 85 -95 101 -119 17 -23 49 -68 72 -99 24
-31 64 -89 90 -129 27 -40 77 -116 112 -170 34 -53 120 -212 190 -352 117
-234 135 -276 214 -520 76 -233 103 -323 163 -536 8 -28 14 -82 14 -121 0 -39
7 -90 15 -113 8 -23 15 -77 15 -119 0 -42 7 -94 15 -116 21 -60 21 -700 0
-771 -8 -27 -15 -88 -15 -135 0 -51 -6 -104 -15 -129 -8 -23 -15 -67 -15 -98
0 -30 -6 -78 -14 -106 -19 -65 -40 -149 -65 -251 -10 -44 -28 -105 -39 -135
-12 -30 -50 -138 -85 -240 -41 -117 -96 -248 -149 -355 -47 -93 -91 -188 -98
-210 -7 -22 -32 -67 -55 -100 -22 -33 -56 -87 -75 -120 -40 -71 -154 -241
-180 -270 -19 -20 -34 -41 -99 -132 -19 -26 -63 -78 -98 -116 -35 -37 -63 -72
-63 -78 0 -6 -52 -64 -115 -129 -63 -66 -115 -124 -115 -130 0 -6 -45 -58
-100 -115 -55 -58 -100 -109 -100 -115 0 -6 -45 -58 -100 -115 -55 -58 -100
-109 -100 -115 0 -6 -44 -57 -97 -115 -177 -189 -285 -310 -296 -330 -5 -11
-59 -71 -119 -132 -59 -62 -108 -118 -108 -124 0 -6 -45 -57 -100 -114 -55
-58 -100 -110 -100 -116 0 -6 -56 -69 -125 -139 -69 -70 -125 -133 -125 -139
0 -6 -45 -58 -100 -116 -55 -57 -100 -108 -100 -114 0 -9 -65 -81 -278 -311
-43 -47 -92 -103 -107 -125 -16 -22 -75 -88 -132 -147 -57 -59 -103 -112 -103
-118 0 -6 -38 -51 -85 -100 -47 -49 -85 -93 -85 -99 0 -6 -45 -58 -100 -116
-55 -57 -100 -109 -100 -115 0 -6 -35 -47 -78 -93 -43 -45 -89 -98 -102 -117
-26 -39 -122 -144 -347 -380 -84 -88 -153 -165 -153 -171 0 -6 -45 -57 -100
-114 -55 -58 -100 -109 -100 -115 0 -6 -45 -58 -100 -115 -55 -58 -100 -109
-100 -115 0 -6 -45 -58 -100 -115 -55 -58 -100 -109 -100 -115 0 -6 -45 -57
-100 -115 -55 -57 -100 -109 -100 -115 0 -6 -44 -57 -97 -115 -177 -189 -285
-310 -295 -330 -6 -11 -53 -64 -105 -117 -51 -53 -93 -102 -93 -108 0 -7 -52
-65 -115 -130 -63 -66 -115 -124 -115 -130 0 -7 -52 -65 -115 -130 -63 -66
-115 -124 -115 -130 0 -7 -52 -65 -115 -130 -63 -66 -115 -124 -115 -130 0 -5
-43 -56 -95 -113 -215 -231 -254 -274 -292 -327 -23 -30 -67 -80 -98 -110 -31
-30 -71 -75 -88 -100 -16 -25 -72 -89 -124 -142 -51 -53 -93 -102 -93 -109 0
-6 -49 -62 -110 -124 -60 -62 -110 -118 -110 -124 0 -7 -52 -65 -115 -131 -63
-65 -115 -123 -115 -130 0 -6 -52 -64 -115 -130 -63 -65 -115 -122 -115 -127
0 -5 -25 -35 -55 -66 -70 -71 -92 -74 -134 -14 -16 23 -57 69 -91 102 -34 33
-76 80 -92 105 -17 25 -71 86 -120 136 -48 50 -88 97 -88 103 0 7 -52 65 -115
131 -63 65 -115 123 -115 129 0 6 -45 58 -100 116 -55 57 -100 109 -100 115 0
6 -44 57 -97 115 -138 147 -286 314 -297 333 -5 10 -64 74 -132 144 -68 69
-124 131 -124 138 0 6 -45 58 -100 115 -55 58 -100 110 -100 116 0 6 -45 57
-100 114 -55 57 -100 108 -100 114 0 7 -52 65 -115 131 -63 65 -115 123 -115
130 0 6 -42 55 -93 108 -52 53 -99 106 -105 117 -10 20 -118 141 -294 330 -54
58 -98 110 -98 116 0 6 -52 64 -115 129 -63 66 -115 124 -115 130 0 7 -52 65
-115 130 -63 66 -115 124 -115 131 0 6 -49 62 -110 124 -60 62 -110 118 -110
124 0 6 -42 54 -93 108 -51 54 -106 116 -122 138 -27 39 -76 92 -280 312 -52
57 -95 107 -95 113 0 6 -45 57 -100 115 -55 57 -100 109 -100 115 0 6 -52 64
-115 130 -63 65 -115 123 -115 129 0 6 -45 58 -100 116 -55 57 -100 108 -100
114 0 6 -59 71 -130 145 -72 74 -130 139 -130 144 0 6 -52 66 -115 134 -225
242 -253 273 -271 303 -10 17 -67 80 -126 142 -59 61 -108 117 -108 123 0 6
-45 58 -100 115 -55 58 -100 109 -100 115 0 6 -45 57 -100 115 -55 57 -100
109 -100 115 0 6 -42 55 -93 108 -52 53 -99 106 -105 117 -13 25 -156 183
-334 370 -76 79 -138 148 -138 154 0 6 -45 58 -100 116 -55 57 -100 108 -100
114 0 6 -47 60 -105 121 -58 61 -105 115 -105 121 0 6 -45 57 -100 114 -55 58
-100 109 -100 114 0 5 -30 44 -67 85 -95 106 -145 168 -209 263 -30 45 -59 85
-64 88 -6 4 -34 43 -63 88 -143 220 -220 361 -346 632 -88 191 -101 227 -196
545 -25 85 -51 169 -56 186 -5 17 -9 37 -9 46 0 9 -6 38 -14 64 -8 27 -21 74
-30 105 -9 31 -16 83 -16 116 0 33 -7 80 -15 103 -10 29 -15 83 -15 174 0 89
-5 144 -15 171 -21 59 -21 455 0 515 10 30 15 83 15 175 0 92 5 145 15 175 8
23 15 63 15 88 0 26 6 64 14 87 7 22 21 74 31 115 9 41 28 111 41 155 13 44
37 130 54 190 17 61 38 130 47 155 53 155 88 241 141 346 33 66 65 138 71 160
6 21 25 62 43 89 37 56 74 120 133 225 22 40 54 93 72 119 17 25 70 102 117
171 46 69 101 141 121 160 20 19 51 55 68 80 25 37 180 208 294 323 61 62 243
224 283 252 85 61 140 101 217 161 44 34 93 69 111 78 17 9 85 52 150 96 66
44 144 88 174 100 30 11 70 32 89 46 90 68 250 137 574 246 17 6 106 37 198
69 93 33 184 59 203 59 19 0 51 7 71 15 19 8 50 15 69 15 18 0 45 5 61 11 15
7 73 15 128 20 97 8 194 22 265 38 48 12 803 6 915 -7z"/>
<path d="M10400 6233 c-241 -23 -420 -61 -592 -126 -219 -83 -390 -199 -583
-399 -143 -147 -232 -269 -319 -438 -107 -208 -169 -415 -205 -689 -26 -193
-29 -615 -6 -811 59 -501 250 -897 579 -1200 200 -185 377 -289 631 -373 237
-78 399 -101 725 -101 385 -1 637 48 905 174 205 96 337 193 510 371 297 308
450 652 511 1149 21 170 21 571 0 745 -46 383 -157 691 -344 955 -80 112 -265
303 -377 387 -269 201 -592 320 -962 352 -111 10 -389 13 -473 4z m520 -138
c245 -32 502 -119 702 -238 235 -139 442 -356 581 -608 233 -423 310 -1078
191 -1639 -184 -876 -835 -1391 -1759 -1391 -504 -1 -929 145 -1254 430 -391
342 -597 906 -577 1581 13 482 113 836 324 1151 304 454 723 681 1347 733 82
6 333 -4 445 -19z"/>
<path d="M10460 5559 c-211 -23 -414 -113 -570 -254 -205 -185 -297 -355 -361
-670 -33 -160 -33 -160 -33 -465 0 -305 0 -305 32 -458 62 -294 177 -505 374
-682 166 -149 325 -224 543 -255 126 -18 232 -18 365 0 194 26 349 91 498 211
230 184 358 414 423 764 22 115 24 150 23 430 -1 299 -2 308 -31 455 -29 143
-74 279 -123 376 -78 151 -241 323 -396 414 -94 56 -235 108 -339 125 -90 15
-309 20 -405 9z m324 -129 c263 -38 494 -180 638 -391 238 -349 285 -1047 105
-1528 -52 -138 -119 -242 -222 -346 -182 -182 -410 -274 -676 -275 -400 -1
-735 226 -896 608 -122 291 -153 723 -77 1097 71 349 218 573 472 716 96 54
244 106 337 119 87 11 240 11 319 0z"/>
<path d="M12734 6170 c-30 -12 -54 -49 -54 -83 0 -16 228 -666 506 -1446 278
-779 580 -1623 670 -1876 201 -562 201 -561 232 -585 24 -19 42 -20 459 -20
l435 0 27 28 c20 21 73 157 230 597 112 314 275 768 361 1010 87 242 246 688
355 990 108 303 253 708 322 900 69 193 128 368 131 391 3 33 -1 46 -21 70
l-25 29 -427 0 -427 0 -28 -32 c-22 -24 -54 -111 -143 -380 -606 -1834 -739
-2232 -751 -2249 -13 -17 -16 -17 -30 -4 -8 8 -42 96 -76 195 -34 99 -204 594
-377 1100 -173 506 -344 1007 -381 1114 -45 135 -74 204 -93 225 l-27 31 -424
2 c-233 1 -433 -2 -444 -7z m794 -138 c10 -10 39 -79 64 -153 26 -74 218 -636
428 -1249 210 -613 403 -1176 428 -1250 62 -185 107 -227 172 -162 22 23 51
99 150 398 633 1920 794 2401 808 2417 14 15 43 17 333 17 299 0 319 -1 328
-18 12 -22 29 31 -314 -927 -136 -379 -334 -933 -440 -1230 -607 -1697 -561
-1572 -585 -1585 -11 -6 -152 -10 -358 -10 -309 0 -342 2 -360 18 -15 12 -173
443 -518 1407 -273 765 -568 1590 -655 1835 -148 414 -170 486 -152 503 3 4
152 7 330 7 299 0 324 -1 341 -18z"/>
<path d="M16752 6165 c-18 -8 -37 -26 -42 -40 -7 -17 -10 -709 -10 -1971 l0
-1945 25 -24 24 -25 1494 0 1494 0 24 26 24 26 0 334 0 334 -28 27 -27 28
-1051 5 c-919 4 -1051 7 -1059 20 -6 9 -10 194 -10 452 l0 437 22 15 c20 14
126 16 946 16 642 0 929 3 944 11 43 23 48 60 48 366 0 290 -6 349 -37 374
-13 12 -184 15 -955 19 -916 5 -940 5 -954 24 -11 16 -14 81 -14 352 0 289 2
335 16 348 14 14 118 16 997 16 645 0 995 4 1019 10 69 19 68 16 68 383 0 216
-4 335 -11 349 -27 50 24 48 -1496 48 -1200 -1 -1423 -3 -1451 -15z m2822
-137 c13 -19 16 -60 16 -244 0 -197 -2 -224 -17 -243 l-18 -21 -1007 -3 -1006
-2 -26 -24 -26 -24 0 -441 c1 -465 0 -459 47 -484 16 -9 263 -12 947 -12 827
0 926 -2 940 -16 14 -13 16 -50 16 -249 0 -230 0 -234 -22 -249 -20 -14 -126
-16 -941 -16 -975 0 -963 1 -981 -45 -3 -9 -6 -257 -6 -550 l0 -534 24 -28 24
-28 1048 -3 c746 -2 1051 -6 1061 -13 10 -9 13 -64 13 -250 0 -203 -2 -240
-16 -253 -14 -14 -155 -16 -1404 -16 l-1390 0 -15 23 c-13 21 -15 226 -13
1869 3 1546 5 1848 17 1861 12 16 120 17 1367 17 l1353 0 15 -22z"/>
<path d="M5584 6140 c-12 -5 -29 -19 -38 -32 -15 -20 -16 -197 -16 -1961 l0
-1938 25 -24 24 -25 1384 0 1384 0 21 23 c22 23 22 28 22 363 l0 341 -26 24
-26 24 -936 3 c-864 2 -938 4 -949 19 -10 13 -13 341 -13 1558 0 1125 -3 1551
-11 1575 -21 58 -35 60 -451 59 -205 0 -383 -4 -394 -9z m715 -133 c8 -10 11
-452 13 -1575 l3 -1562 28 -27 27 -28 938 -3 c864 -2 938 -4 950 -19 9 -12 12
-79 12 -249 0 -198 -2 -235 -16 -248 -14 -14 -145 -16 -1294 -16 l-1280 0 -15
23 c-13 21 -15 225 -13 1861 3 1620 5 1838 18 1846 9 6 144 10 316 10 239 0
304 -3 313 -13z"/>
</g>
</svg>
