<?xml version="1.0" standalone="no"?>
<!DOCTYPE svg PUBLIC "-//W3C//DTD SVG 20010904//EN"
 "http://www.w3.org/TR/2001/REC-SVG-20010904/DTD/svg10.dtd">
<svg version="1.0" xmlns="http://www.w3.org/2000/svg"
 width="2550.000000pt" height="3300.000000pt" viewBox="0 0 2550.000000 3300.000000"
 preserveAspectRatio="xMidYMid meet">
<metadata>
Created by potrace 1.14, written by Peter Selinger 2001-2017
</metadata>
<g transform="translate(0.000000,3300.000000) scale(0.100000,-0.100000)"
fill="#000000" stroke="none">
<path d="M12881 29684 c-82 -22 -147 -62 -208 -128 -95 -103 -133 -214 -133
-391 0 -168 48 -292 151 -390 90 -86 194 -125 334 -125 139 0 243 38 331 122
102 97 143 195 151 363 11 233 -60 393 -220 496 -99 64 -278 88 -406 53z m259
-60 c97 -22 180 -77 229 -153 58 -90 76 -163 75 -306 -1 -128 -16 -191 -69
-280 -114 -195 -462 -234 -642 -71 -167 150 -177 521 -20 701 90 104 260 147
427 109z"/>
<path d="M12926 29526 c-88 -33 -156 -114 -182 -216 -24 -95 -15 -249 19 -324
55 -121 159 -183 288 -174 110 8 185 64 236 176 44 95 42 305 -4 397 -22 44
-82 104 -128 128 -52 26 -173 33 -229 13z m216 -78 c82 -45 113 -120 113 -279
0 -99 -2 -109 -33 -172 -26 -53 -42 -72 -77 -92 -122 -72 -267 -24 -325 108
-45 100 -34 284 21 373 21 34 69 69 117 85 45 14 137 3 184 -23z"/>
<path d="M15002 29685 c-69 -19 -86 -29 -139 -78 -70 -64 -88 -107 -88 -207 0
-101 18 -143 90 -209 58 -53 117 -80 269 -120 137 -37 172 -53 181 -82 10 -30
-14 -78 -48 -95 -40 -21 -124 -28 -173 -15 -59 16 -90 44 -109 100 -24 73 -29
75 -136 62 -113 -13 -123 -20 -114 -80 14 -100 85 -207 169 -256 96 -56 312
-71 444 -30 69 21 147 86 186 155 29 51 31 62 31 150 0 110 -15 148 -87 216
-55 53 -104 78 -220 110 -220 61 -248 76 -233 124 9 29 86 54 146 47 67 -8 96
-28 109 -76 16 -60 27 -65 133 -56 50 4 98 11 105 17 16 14 15 54 -4 118 -21
71 -116 168 -189 194 -70 25 -253 31 -323 11z m302 -71 c67 -23 131 -88 149
-151 l14 -48 -41 -7 c-72 -12 -86 -10 -86 12 0 31 -67 98 -108 110 -179 49
-339 -73 -242 -184 32 -36 63 -49 248 -100 205 -57 266 -118 267 -266 0 -64
-4 -82 -29 -127 -50 -90 -131 -130 -286 -140 -157 -10 -285 37 -341 125 -35
56 -56 119 -43 131 5 5 32 11 60 13 l52 5 11 -37 c14 -47 86 -115 137 -129 49
-14 138 -14 186 -1 108 30 162 148 102 220 -36 42 -62 54 -199 90 -252 68
-319 124 -320 270 0 113 64 191 185 225 69 19 214 13 284 -11z"/>
<path d="M20032 29685 c-69 -19 -86 -29 -139 -78 -70 -64 -88 -107 -88 -207 0
-101 18 -143 90 -209 58 -53 117 -80 269 -120 137 -37 172 -53 181 -82 10 -30
-14 -78 -48 -95 -40 -21 -124 -28 -173 -15 -59 16 -90 44 -109 100 -24 73 -29
75 -136 62 -113 -13 -123 -20 -114 -80 14 -100 85 -207 169 -256 96 -56 312
-71 444 -30 69 21 147 86 186 155 29 51 31 62 31 150 0 110 -15 148 -87 216
-55 53 -104 78 -220 110 -220 61 -248 76 -233 124 9 29 86 54 146 47 67 -8 96
-28 109 -76 16 -60 27 -65 133 -56 50 4 98 11 105 17 16 14 15 54 -4 118 -21
71 -116 168 -189 194 -70 25 -253 31 -323 11z m302 -71 c67 -23 131 -88 149
-151 l14 -48 -41 -7 c-72 -12 -86 -10 -86 12 0 31 -67 98 -108 110 -179 49
-339 -73 -242 -184 32 -36 63 -49 248 -100 205 -57 266 -118 267 -266 0 -64
-4 -82 -29 -127 -50 -90 -131 -130 -286 -140 -157 -10 -285 37 -341 125 -35
56 -56 119 -43 131 5 5 32 11 60 13 l52 5 11 -37 c14 -47 86 -115 137 -129 49
-14 138 -14 186 -1 108 30 162 148 102 220 -36 42 -62 54 -199 90 -252 68
-319 124 -320 270 0 113 64 191 185 225 69 19 214 13 284 -11z"/>
<path d="M4242 29668 c-16 -16 -16 -180 0 -196 8 -8 54 -12 140 -12 l128 0 0
-383 c0 -285 3 -386 12 -395 16 -16 210 -16 226 0 9 9 12 110 12 395 l0 383
128 0 c86 0 132 4 140 12 7 7 12 44 12 98 0 54 -5 91 -12 98 -9 9 -110 12
-393 12 -283 0 -384 -3 -393 -12z m738 -98 l0 -50 -128 0 c-86 0 -132 -4 -140
-12 -9 -9 -12 -110 -12 -395 l0 -383 -65 0 -65 0 0 383 c0 285 -3 386 -12 395
-8 8 -54 12 -140 12 l-128 0 0 50 0 50 345 0 345 0 0 -50z"/>
<path d="M5122 29668 c-17 -17 -17 -969 0 -986 16 -16 210 -16 226 0 9 9 12
69 12 210 l0 198 160 0 160 0 0 -198 c0 -141 3 -201 12 -210 8 -8 48 -12 113
-12 65 0 105 4 113 12 17 17 17 969 0 986 -8 8 -48 12 -113 12 -65 0 -105 -4
-113 -12 -8 -8 -12 -64 -12 -185 l0 -173 -160 0 -160 0 0 173 c0 121 -4 177
-12 185 -8 8 -48 12 -113 12 -65 0 -105 -4 -113 -12z m178 -221 c0 -121 4
-177 12 -185 9 -9 69 -12 208 -12 139 0 199 3 208 12 8 8 12 64 12 185 l0 173
65 0 65 0 0 -445 0 -445 -65 0 -65 0 0 198 c0 141 -3 201 -12 210 -9 9 -69 12
-208 12 -139 0 -199 -3 -208 -12 -9 -9 -12 -69 -12 -210 l0 -198 -65 0 -65 0
0 445 0 445 65 0 65 0 0 -173z"/>
<path d="M6082 29668 c-17 -17 -17 -969 0 -986 9 -9 107 -12 378 -12 271 0
369 3 378 12 16 16 16 180 0 196 -9 9 -82 12 -265 12 l-253 0 0 100 0 100 223
0 c160 0 226 3 235 12 16 16 16 180 0 196 -9 9 -75 12 -235 12 l-223 0 0 75 0
75 243 0 c176 0 246 3 255 12 7 7 12 44 12 98 0 54 -5 91 -12 98 -9 9 -104 12
-368 12 -264 0 -359 -3 -368 -12z m688 -98 l0 -50 -243 0 c-176 0 -246 -3
-255 -12 -8 -8 -12 -50 -12 -123 0 -73 4 -115 12 -123 9 -9 75 -12 235 -12
l223 0 0 -50 0 -50 -223 0 c-160 0 -226 -3 -235 -12 -8 -8 -12 -56 -12 -148 0
-92 4 -140 12 -148 9 -9 82 -12 265 -12 l253 0 0 -50 0 -50 -330 0 -330 0 0
445 0 445 320 0 320 0 0 -50z"/>
<path d="M7240 29665 c-11 -13 14 -95 150 -488 89 -260 169 -480 178 -489 13
-15 33 -18 122 -18 89 0 109 3 122 18 8 9 90 229 183 489 141 396 166 475 155
488 -20 24 -221 22 -242 -2 -9 -10 -60 -152 -114 -316 l-99 -297 -100 299
c-55 164 -106 306 -114 315 -19 23 -222 24 -241 1z m312 -387 c71 -212 121
-346 131 -352 12 -8 20 -7 31 4 7 8 64 167 126 353 l112 337 64 0 c35 0 64 -3
64 -7 0 -5 -70 -205 -156 -445 l-157 -438 -77 0 -77 0 -21 58 c-51 139 -282
815 -282 823 0 5 29 9 64 9 l64 0 114 -342z"/>
<path d="M8222 29668 c-17 -17 -17 -969 0 -986 16 -16 210 -16 226 0 17 17 17
969 0 986 -8 8 -48 12 -113 12 -65 0 -105 -4 -113 -12z m178 -493 l0 -445 -65
0 -65 0 0 445 0 445 65 0 65 0 0 -445z"/>
<path d="M8603 29669 c-18 -18 -19 -969 -1 -987 16 -16 210 -16 226 0 8 8 12
67 12 200 l0 188 35 0 c85 0 131 -42 252 -235 112 -178 95 -166 236 -163 95 2
122 6 130 18 7 12 -13 52 -84 169 -52 84 -113 175 -137 202 l-43 48 35 15 c44
18 106 80 131 131 15 31 20 61 20 130 0 82 -3 95 -31 145 -34 61 -94 113 -152
131 -55 18 -613 25 -629 8z m563 -60 c83 -15 127 -43 158 -99 51 -95 43 -204
-20 -279 -27 -31 -49 -45 -97 -60 -92 -28 -94 -40 -21 -109 41 -39 87 -99 142
-190 45 -73 82 -134 82 -137 0 -3 -33 -5 -72 -5 l-73 0 -67 109 c-99 159 -169
245 -221 270 -49 24 -165 29 -185 9 -8 -8 -12 -67 -12 -200 l0 -188 -65 0 -65
0 0 445 0 445 228 0 c126 0 255 -5 288 -11z"/>
<path d="M8792 29508 c-19 -19 -16 -252 3 -268 11 -9 59 -11 178 -9 180 4 199
10 238 72 15 24 19 44 16 85 -4 59 -30 95 -84 118 -43 18 -333 20 -351 2z
m332 -62 c25 -10 36 -22 41 -46 8 -36 -9 -85 -33 -96 -10 -4 -79 -9 -154 -12
l-138 -4 0 86 0 86 125 0 c85 0 136 -5 159 -14z"/>
<path d="M9492 29668 c-7 -7 -12 -44 -12 -98 0 -54 5 -91 12 -98 8 -8 54 -12
140 -12 l128 0 0 -383 c0 -285 3 -386 12 -395 16 -16 210 -16 226 0 9 9 12
110 12 395 l0 383 128 0 c86 0 132 4 140 12 7 7 12 44 12 98 0 54 -5 91 -12
98 -9 9 -110 12 -393 12 -283 0 -384 -3 -393 -12z m738 -98 l0 -50 -128 0
c-86 0 -132 -4 -140 -12 -9 -9 -12 -110 -12 -395 l0 -383 -65 0 -65 0 0 383
c0 285 -3 386 -12 395 -8 8 -54 12 -140 12 l-128 0 0 50 0 50 345 0 345 0 0
-50z"/>
<path d="M10370 29665 c-9 -11 -11 -103 -8 -377 4 -305 7 -371 21 -415 24 -72
92 -144 175 -185 66 -33 69 -33 207 -33 162 0 216 14 293 74 61 48 99 119 112
207 15 103 13 717 -2 732 -17 17 -212 16 -226 -1 -7 -8 -12 -135 -14 -364 -3
-339 -4 -353 -24 -380 -28 -37 -85 -56 -152 -50 -60 6 -93 24 -119 64 -16 24
-18 62 -21 372 -2 227 -7 350 -14 358 -16 19 -211 18 -228 -2z m180 -362 c0
-177 4 -334 10 -353 12 -45 85 -117 130 -130 44 -13 125 -13 170 0 48 13 109
78 121 126 4 22 9 182 9 357 l0 317 65 0 65 0 0 -297 c0 -394 -12 -468 -87
-538 -55 -51 -125 -69 -263 -70 -122 0 -127 1 -193 33 -39 19 -78 47 -93 67
-53 70 -57 102 -62 468 l-4 337 66 0 66 0 0 -317z"/>
<path d="M11332 29668 c-17 -17 -17 -969 0 -986 9 -9 107 -12 378 -12 271 0
369 3 378 12 16 16 16 180 0 196 -9 9 -82 12 -265 12 l-253 0 0 100 0 100 223
0 c160 0 226 3 235 12 16 16 16 180 0 196 -9 9 -75 12 -235 12 l-223 0 0 75 0
75 243 0 c176 0 246 3 255 12 7 7 12 44 12 98 0 54 -5 91 -12 98 -9 9 -104 12
-368 12 -264 0 -359 -3 -368 -12z m688 -98 l0 -50 -243 0 c-176 0 -246 -3
-255 -12 -17 -17 -17 -229 0 -246 9 -9 75 -12 235 -12 l223 0 0 -50 0 -50
-223 0 c-160 0 -226 -3 -235 -12 -8 -8 -12 -56 -12 -148 0 -92 4 -140 12 -148
9 -9 82 -12 265 -12 l253 0 0 -50 0 -50 -330 0 -330 0 0 445 0 445 320 0 320
0 0 -50z"/>
<path d="M13622 29668 c-17 -17 -17 -969 0 -986 16 -16 210 -16 226 0 8 8 12
67 12 200 l0 188 183 0 c129 0 187 4 195 12 16 16 16 180 0 196 -8 8 -66 12
-195 12 l-183 0 0 85 0 85 213 0 c152 0 216 3 225 12 7 7 12 44 12 98 0 54 -5
91 -12 98 -9 9 -98 12 -338 12 -240 0 -329 -3 -338 -12z m628 -98 l0 -50 -213
0 c-152 0 -216 -3 -225 -12 -17 -17 -17 -249 0 -266 8 -8 66 -12 195 -12 l183
0 0 -50 0 -50 -183 0 c-129 0 -187 -4 -195 -12 -8 -8 -12 -67 -12 -200 l0
-188 -65 0 -65 0 0 445 0 445 290 0 290 0 0 -50z"/>
<path d="M15693 29669 c-18 -18 -19 -969 -1 -987 16 -16 210 -16 226 0 8 8 12
62 12 179 l0 166 148 6 c170 6 219 19 284 77 24 21 57 62 73 91 28 50 30 62
30 154 0 89 -3 106 -28 157 -32 64 -80 111 -146 142 -42 19 -68 21 -316 24
-210 3 -273 1 -282 -9z m593 -84 c51 -27 62 -38 89 -90 26 -51 30 -69 30 -139
0 -71 -4 -88 -29 -134 -56 -100 -112 -122 -326 -129 -85 -3 -161 -10 -167 -15
-10 -8 -13 -56 -13 -179 l0 -169 -65 0 -65 0 0 446 0 446 243 -3 243 -4 60
-30z"/>
<path d="M15882 29508 c-17 -17 -17 -289 0 -306 14 -14 213 -16 272 -2 25 5
55 24 80 49 39 40 41 44 41 106 0 61 -2 66 -40 105 -21 22 -55 45 -75 50 -51
14 -263 13 -278 -2z m292 -71 c55 -37 57 -120 4 -160 -23 -17 -47 -21 -138
-25 l-110 -5 0 108 0 107 108 -3 c83 -3 115 -8 136 -22z"/>
<path d="M16572 29668 c-17 -17 -17 -969 0 -986 16 -16 210 -16 226 0 17 17
17 969 0 986 -8 8 -48 12 -113 12 -65 0 -105 -4 -113 -12z m178 -493 l0 -445
-65 0 -65 0 0 445 0 445 65 0 65 0 0 -445z"/>
<path d="M16953 29669 c-18 -18 -19 -969 -1 -987 16 -16 210 -16 226 0 8 8 12
67 12 200 l0 188 35 0 c85 0 131 -42 252 -235 112 -178 95 -166 236 -163 95 2
122 6 130 18 7 12 -13 52 -84 169 -52 84 -113 175 -137 202 l-43 48 35 15 c44
18 106 80 131 131 15 31 20 61 20 130 0 82 -3 95 -31 145 -34 61 -94 113 -152
131 -55 18 -613 25 -629 8z m563 -60 c83 -15 127 -43 158 -99 51 -95 43 -204
-20 -279 -27 -31 -49 -45 -97 -60 -92 -28 -94 -40 -21 -109 41 -39 87 -99 142
-190 45 -73 82 -134 82 -137 0 -3 -33 -5 -72 -5 l-73 0 -67 109 c-99 159 -169
245 -221 270 -49 24 -165 29 -185 9 -8 -8 -12 -67 -12 -200 l0 -188 -65 0 -65
0 0 445 0 445 228 0 c126 0 255 -5 288 -11z"/>
<path d="M17142 29508 c-19 -19 -16 -252 3 -268 11 -9 59 -11 178 -9 180 4
199 10 238 72 15 24 19 44 16 85 -4 59 -30 95 -84 118 -43 18 -333 20 -351 2z
m332 -62 c25 -10 36 -22 41 -46 8 -36 -9 -85 -33 -96 -10 -4 -79 -9 -154 -12
l-138 -4 0 86 0 86 125 0 c85 0 136 -5 159 -14z"/>
<path d="M17902 29668 c-17 -17 -17 -969 0 -986 16 -16 210 -16 226 0 17 17
17 969 0 986 -8 8 -48 12 -113 12 -65 0 -105 -4 -113 -12z m178 -493 l0 -445
-65 0 -65 0 0 445 0 445 65 0 65 0 0 -445z"/>
<path d="M18212 29668 c-16 -16 -16 -180 0 -196 8 -8 54 -12 140 -12 l128 0 0
-383 c0 -285 3 -386 12 -395 16 -16 210 -16 226 0 9 9 12 110 12 395 l0 383
128 0 c86 0 132 4 140 12 7 7 12 44 12 98 0 54 -5 91 -12 98 -9 9 -110 12
-393 12 -283 0 -384 -3 -393 -12z m738 -98 l0 -50 -128 0 c-86 0 -132 -4 -140
-12 -9 -9 -12 -110 -12 -395 l0 -383 -65 0 -65 0 0 383 c0 285 -3 386 -12 395
-8 8 -54 12 -140 12 l-128 0 0 50 0 50 345 0 345 0 0 -50z"/>
<path d="M19452 29668 c-17 -17 -17 -969 0 -986 16 -16 210 -16 226 0 17 17
17 969 0 986 -8 8 -48 12 -113 12 -65 0 -105 -4 -113 -12z m178 -493 l0 -445
-65 0 -65 0 0 445 0 445 65 0 65 0 0 -445z"/>
<path d="M11811 28154 c-82 -22 -147 -62 -208 -128 -95 -103 -133 -214 -133
-391 0 -168 48 -292 151 -390 90 -86 194 -125 334 -125 139 0 243 38 331 122
102 97 143 195 151 363 11 233 -60 393 -220 496 -99 64 -278 88 -406 53z m259
-60 c97 -22 180 -77 229 -153 58 -90 76 -163 75 -306 -1 -128 -16 -191 -69
-280 -114 -195 -462 -234 -642 -71 -167 150 -177 521 -20 701 90 104 260 147
427 109z"/>
<path d="M11856 27996 c-88 -33 -156 -114 -182 -216 -24 -95 -15 -249 19 -324
55 -121 159 -183 288 -174 110 8 185 64 236 176 44 95 42 305 -4 397 -22 44
-82 104 -128 128 -52 26 -173 33 -229 13z m216 -78 c82 -45 113 -120 113 -279
0 -99 -2 -109 -33 -172 -26 -53 -42 -72 -77 -92 -122 -72 -267 -24 -325 108
-45 100 -34 284 21 373 21 34 69 69 117 85 45 14 137 3 184 -23z"/>
<path d="M10712 28138 c-17 -17 -17 -969 0 -986 9 -9 101 -12 353 -12 252 0
344 3 353 12 16 16 16 180 0 196 -9 9 -76 12 -240 12 l-228 0 0 383 c0 285 -3
386 -12 395 -8 8 -48 12 -113 12 -65 0 -105 -4 -113 -12z m178 -431 c0 -285 3
-386 12 -395 9 -9 76 -12 240 -12 l228 0 0 -50 0 -50 -305 0 -305 0 0 445 0
445 65 0 65 0 0 -383z"/>
<path d="M12450 28135 c-11 -13 14 -95 150 -488 89 -260 169 -480 178 -489 13
-15 33 -18 122 -18 89 0 109 3 122 18 8 9 90 229 183 489 141 396 166 475 155
488 -20 24 -221 22 -242 -2 -9 -10 -60 -152 -114 -316 l-99 -297 -100 299
c-55 164 -106 306 -114 315 -19 23 -222 24 -241 1z m312 -387 c71 -212 121
-346 131 -352 12 -8 20 -7 31 4 7 8 64 167 126 353 l112 337 64 0 c35 0 64 -3
64 -7 0 -5 -70 -205 -156 -445 l-157 -438 -77 0 -77 0 -21 58 c-51 139 -282
815 -282 823 0 5 29 9 64 9 l64 0 114 -342z"/>
<path d="M13442 28138 c-17 -17 -17 -969 0 -986 9 -9 107 -12 378 -12 271 0
369 3 378 12 16 16 16 180 0 196 -9 9 -82 12 -265 12 l-253 0 0 100 0 100 223
0 c160 0 226 3 235 12 16 16 16 180 0 196 -9 9 -75 12 -235 12 l-223 0 0 75 0
75 243 0 c176 0 246 3 255 12 7 7 12 44 12 98 0 54 -5 91 -12 98 -9 9 -104 12
-368 12 -264 0 -359 -3 -368 -12z m688 -98 l0 -50 -243 0 c-176 0 -246 -3
-255 -12 -17 -17 -17 -229 0 -246 9 -9 75 -12 235 -12 l223 0 0 -50 0 -50
-223 0 c-160 0 -226 -3 -235 -12 -8 -8 -12 -56 -12 -148 0 -92 4 -140 12 -148
9 -9 82 -12 265 -12 l253 0 0 -50 0 -50 -330 0 -330 0 0 445 0 445 320 0 320
0 0 -50z"/>
<path d="M12240 23050 c-287 -18 -688 -99 -927 -186 -51 -19 -96 -34 -100 -34
-5 0 -82 -30 -173 -66 -176 -70 -321 -140 -464 -223 -49 -28 -90 -51 -92 -51
-9 0 -337 -228 -401 -278 -303 -240 -588 -538 -806 -845 -96 -135 -185 -273
-222 -345 -19 -37 -41 -78 -50 -92 -27 -46 -142 -294 -179 -390 -21 -52 -44
-108 -51 -125 -90 -209 -201 -719 -225 -1030 -5 -60 -9 -1514 -9 -3231 -1
-2414 2 -3123 11 -3132 9 -9 914 -12 4009 -12 3394 0 3998 2 4008 14 9 10 11
799 8 3162 -4 3361 -3 3296 -50 3510 -9 38 -25 116 -36 174 -23 122 -82 346
-116 440 -70 195 -120 323 -150 385 -19 39 -46 95 -60 125 -14 30 -39 80 -56
110 -18 30 -46 80 -63 111 -71 127 -93 163 -123 202 -18 23 -33 46 -33 51 0
10 -127 182 -190 256 -25 30 -54 66 -63 79 -38 56 -228 255 -367 384 -116 109
-516 415 -543 416 -5 1 -34 19 -64 41 -31 22 -62 40 -69 40 -6 0 -34 15 -60
33 -27 18 -83 50 -124 70 -41 21 -82 41 -90 46 -45 27 -292 128 -435 177 -221
76 -538 157 -690 174 -49 6 -103 15 -120 20 -16 5 -61 12 -100 15 -120 9 -614
13 -735 5z m590 -70 c372 -28 685 -93 1035 -214 230 -79 538 -219 649 -293 26
-18 54 -33 60 -33 7 0 38 -18 69 -40 30 -22 60 -40 65 -40 5 0 17 -9 27 -20
10 -11 22 -20 27 -20 5 0 26 -13 46 -29 20 -15 73 -55 117 -87 173 -127 396
-321 488 -424 140 -158 267 -309 267 -318 0 -5 10 -17 21 -28 39 -35 192 -266
287 -434 14 -25 38 -67 53 -95 16 -27 40 -75 54 -105 14 -30 41 -86 60 -125
30 -62 76 -181 150 -385 56 -152 149 -563 170 -745 3 -22 10 -80 17 -130 8
-67 12 -895 15 -3212 l4 -3123 -3951 0 -3950 0 0 2769 c0 1836 3 2772 10 2776
13 8 13 48 -1 62 -18 18 -6 646 15 808 40 308 138 719 211 890 7 17 30 73 51
125 37 96 152 344 179 390 9 14 31 55 50 92 161 312 545 778 856 1040 169 141
387 301 503 368 17 10 72 41 121 70 196 114 403 207 685 307 126 44 239 78
295 89 17 3 39 9 50 14 30 11 337 67 442 80 234 29 531 37 753 20z"/>
<path d="M10950 21743 c-315 -47 -527 -132 -755 -302 -352 -263 -586 -670
-626 -1090 -12 -120 -6 -330 11 -436 15 -94 68 -270 110 -364 81 -185 158
-295 397 -565 87 -99 282 -320 433 -491 151 -172 419 -476 595 -675 476 -540
826 -938 1143 -1298 184 -209 290 -322 303 -322 18 0 111 102 599 655 445 506
766 871 914 1039 202 230 497 566 840 955 362 412 396 455 479 625 111 229
157 432 157 702 0 181 -21 324 -71 479 -180 564 -656 978 -1234 1075 -112 19
-155 21 -310 17 -209 -6 -316 -23 -470 -76 -346 -120 -629 -345 -836 -666 -15
-22 -36 -60 -49 -85 l-22 -44 -20 39 c-86 170 -273 387 -448 521 -277 212
-596 316 -961 313 -85 -1 -165 -3 -179 -6z m444 -84 c353 -57 696 -253 910
-519 69 -85 130 -179 171 -260 60 -120 101 -131 149 -40 197 380 478 625 871
761 147 50 259 70 445 76 130 4 176 2 285 -17 416 -70 778 -300 999 -635 202
-305 289 -673 245 -1040 -30 -258 -151 -543 -316 -750 -22 -27 -161 -188 -309
-356 -460 -522 -677 -769 -805 -915 -68 -78 -282 -321 -475 -540 -193 -220
-457 -518 -585 -664 -129 -146 -276 -314 -328 -372 l-94 -106 -226 257 c-124
141 -372 423 -551 626 -179 202 -450 510 -603 684 -154 174 -419 475 -590 669
-172 195 -374 424 -450 510 -218 248 -298 362 -377 542 -211 481 -159 1017
143 1465 103 153 255 299 425 408 139 90 369 183 507 206 39 6 93 15 120 20
97 17 302 12 439 -10z"/>
<path d="M11775 14844 c-152 -25 -262 -81 -367 -186 -63 -63 -86 -96 -122
-170 -64 -135 -71 -173 -71 -393 1 -179 2 -195 28 -270 38 -115 90 -196 183
-285 137 -132 269 -180 493 -180 217 0 353 52 486 185 91 91 141 175 177 300
20 70 23 103 22 255 0 199 -12 263 -72 390 -46 96 -177 232 -267 278 -112 56
-188 74 -330 77 -71 2 -143 1 -160 -1z m340 -95 c217 -67 342 -200 401 -424
28 -108 26 -343 -4 -450 -82 -287 -295 -445 -598 -445 -303 0 -510 143 -601
415 -25 73 -27 93 -28 245 0 192 8 236 71 366 85 178 233 283 449 318 68 11
240 -3 310 -25z"/>
<path d="M11795 14596 c-72 -18 -112 -41 -171 -100 -92 -92 -126 -195 -126
-381 -1 -193 35 -299 137 -401 33 -33 83 -71 110 -85 45 -21 63 -24 170 -24
107 0 125 3 170 25 113 55 202 182 225 322 19 108 8 307 -19 389 -70 203 -276
309 -496 255z m208 -70 c68 -16 144 -64 175 -111 40 -62 64 -154 70 -261 11
-230 -56 -387 -194 -455 -41 -20 -64 -24 -144 -24 -80 0 -103 4 -144 24 -131
65 -197 201 -197 407 0 240 84 377 256 420 67 16 108 16 178 0z"/>
<path d="M12632 14818 c-7 -7 -12 -19 -12 -27 -1 -26 482 -1374 498 -1393 13
-16 35 -18 177 -18 118 0 165 3 172 13 17 21 493 1362 493 1388 0 45 -13 49
-182 49 -152 0 -158 -1 -172 -22 -8 -13 -79 -220 -157 -460 -79 -241 -146
-438 -149 -438 -3 0 -75 202 -159 449 -85 248 -159 455 -164 460 -16 16 -329
15 -345 -1z m461 -545 c103 -301 175 -495 187 -508 16 -15 24 -17 38 -9 11 7
71 175 182 507 l164 497 108 0 c59 0 108 -1 108 -2 0 -2 -105 -295 -233 -653
l-233 -650 -123 0 -123 0 -204 570 c-112 314 -217 607 -233 653 l-30 82 113 0
113 0 166 -487z"/>
<path d="M14052 14818 c-9 -9 -12 -180 -12 -708 0 -662 1 -698 18 -713 17 -15
69 -17 543 -17 395 0 528 3 537 12 17 17 17 259 0 276 -9 9 -107 12 -380 12
l-368 0 0 155 0 155 333 0 c246 0 336 3 345 12 8 8 12 52 12 133 0 105 -2 124
-18 138 -17 15 -55 17 -345 17 l-327 0 0 115 0 115 358 0 c265 0 361 3 370 12
8 8 12 53 12 138 0 110 -2 129 -18 143 -17 15 -68 17 -533 17 -387 0 -518 -3
-527 -12z m1008 -143 l0 -85 -358 0 c-265 0 -361 -3 -370 -12 -8 -8 -12 -60
-12 -167 0 -130 3 -157 17 -173 15 -17 39 -18 345 -18 l328 0 0 -80 0 -80
-333 0 c-246 0 -336 -3 -345 -12 -9 -9 -12 -69 -12 -207 0 -167 2 -197 17
-213 15 -17 40 -18 380 -18 l363 0 0 -80 0 -80 -485 0 -485 0 0 655 0 655 475
0 475 0 0 -85z"/>
<path d="M10112 14808 c-9 -9 -12 -179 -12 -703 0 -658 1 -693 18 -708 17 -15
67 -17 508 -17 368 0 493 3 502 12 8 8 12 53 12 138 0 85 -4 130 -12 138 -9 9
-99 12 -345 12 l-333 0 0 553 c0 524 -1 555 -18 570 -16 14 -43 17 -163 17
-100 0 -149 -4 -157 -12z m268 -610 c0 -499 2 -553 17 -570 15 -17 39 -18 345
-18 l328 0 0 -80 0 -80 -450 0 -450 0 0 650 0 650 105 0 105 0 0 -552z"/>
<path d="M10672 10945 c-69 -19 -86 -29 -139 -78 -70 -64 -88 -107 -88 -207 0
-101 18 -143 90 -209 58 -53 117 -80 269 -120 137 -37 172 -53 181 -82 10 -30
-14 -78 -48 -95 -40 -21 -124 -28 -173 -15 -59 16 -90 44 -109 100 -24 73 -29
75 -136 62 -113 -13 -123 -20 -114 -80 14 -100 85 -207 169 -256 96 -56 312
-71 444 -30 69 21 147 86 186 155 29 51 31 62 31 150 0 110 -15 148 -87 216
-55 53 -104 78 -220 110 -220 61 -248 76 -233 124 9 29 86 54 146 47 67 -8 96
-28 109 -76 16 -60 27 -65 133 -56 50 4 98 11 105 17 16 14 15 54 -4 118 -21
71 -116 168 -189 194 -70 25 -253 31 -323 11z m302 -71 c67 -23 131 -88 149
-151 l14 -48 -41 -7 c-72 -12 -86 -10 -86 12 0 31 -67 98 -108 110 -179 49
-339 -73 -242 -184 32 -36 63 -49 248 -100 205 -57 266 -118 267 -266 0 -64
-4 -82 -29 -127 -50 -90 -131 -130 -286 -140 -157 -10 -285 37 -341 125 -35
56 -56 119 -43 131 5 5 32 11 60 13 l52 5 11 -37 c14 -47 86 -115 137 -129 49
-14 138 -14 186 -1 108 30 162 148 102 220 -36 42 -62 54 -199 90 -252 68
-319 124 -320 270 0 113 64 191 185 225 69 19 214 13 284 -11z"/>
<path d="M15421 10944 c-82 -22 -147 -62 -208 -128 -95 -103 -133 -214 -133
-391 0 -168 48 -292 151 -390 90 -86 194 -125 334 -125 139 0 243 38 331 122
102 97 143 195 151 363 11 233 -60 393 -220 496 -99 64 -278 88 -406 53z m259
-60 c97 -22 180 -77 229 -153 58 -90 76 -163 75 -306 -1 -128 -16 -191 -69
-280 -114 -195 -462 -234 -642 -71 -167 150 -177 521 -20 701 90 104 260 147
427 109z"/>
<path d="M15466 10786 c-88 -33 -156 -114 -182 -216 -24 -95 -15 -249 19 -324
55 -121 159 -183 288 -174 110 8 185 64 236 176 44 95 42 305 -4 397 -22 44
-82 104 -128 128 -52 26 -173 33 -229 13z m216 -78 c82 -45 113 -120 113 -279
0 -99 -2 -109 -33 -172 -26 -53 -42 -72 -77 -92 -122 -72 -267 -24 -325 108
-45 100 -34 284 21 373 21 34 69 69 117 85 45 14 137 3 184 -23z"/>
<path d="M18441 10944 c-82 -22 -147 -62 -208 -128 -95 -103 -133 -214 -133
-391 0 -168 48 -292 151 -390 90 -86 194 -125 334 -125 139 0 243 38 331 122
102 97 143 195 151 363 11 233 -60 393 -220 496 -99 64 -278 88 -406 53z m259
-60 c97 -22 180 -77 229 -153 58 -90 76 -163 75 -306 -1 -128 -16 -191 -69
-280 -114 -195 -462 -234 -642 -71 -167 150 -177 521 -20 701 90 104 260 147
427 109z"/>
<path d="M18486 10786 c-88 -33 -156 -114 -182 -216 -24 -95 -15 -249 19 -324
55 -121 159 -183 288 -174 110 8 185 64 236 176 44 95 42 305 -4 397 -22 44
-82 104 -128 128 -52 26 -173 33 -229 13z m216 -78 c82 -45 113 -120 113 -279
0 -99 -2 -109 -33 -172 -26 -53 -42 -72 -77 -92 -122 -72 -267 -24 -325 108
-45 100 -34 284 21 373 21 34 69 69 117 85 45 14 137 3 184 -23z"/>
<path d="M2582 10928 c-17 -17 -17 -969 0 -986 17 -17 202 -16 217 1 7 9 12
98 13 257 l3 244 54 -235 c30 -129 60 -244 68 -256 13 -22 20 -23 128 -23 108
0 115 1 128 23 8 12 38 127 68 256 l54 235 3 -244 c1 -159 6 -248 13 -257 15
-17 200 -18 217 -1 17 17 17 969 0 986 -16 16 -329 17 -346 0 -6 -6 -39 -128
-74 -271 l-63 -260 -63 258 c-34 142 -67 264 -73 272 -15 18 -329 19 -347 1z
m378 -365 c41 -172 81 -318 88 -325 32 -32 45 4 122 323 l75 314 128 3 127 3
0 -446 0 -445 -60 0 -60 0 0 364 c0 319 -2 365 -16 377 -36 30 -46 2 -133
-374 l-86 -367 -80 0 -80 0 -86 367 c-87 376 -97 404 -133 374 -14 -12 -16
-58 -16 -377 l0 -364 -60 0 -60 0 0 445 0 446 127 -3 128 -3 75 -312z"/>
<path d="M3952 10927 c-6 -7 -90 -226 -187 -487 -127 -341 -174 -479 -167
-490 14 -23 218 -27 243 -4 10 9 32 59 49 110 l32 94 153 0 153 0 31 -86 c17
-47 31 -89 31 -93 0 -4 8 -15 18 -24 26 -24 223 -25 242 -1 11 13 -14 91 -160
492 -95 262 -178 483 -183 490 -13 17 -240 17 -255 -1z m369 -486 c88 -239
159 -438 159 -443 0 -4 -29 -8 -64 -8 l-63 0 -33 93 c-18 50 -40 100 -48 110
-13 15 -36 17 -197 17 -156 0 -185 -2 -196 -16 -8 -9 -28 -58 -45 -108 l-31
-91 -67 -3 c-55 -2 -67 0 -64 11 2 8 75 209 163 446 l160 431 84 -2 84 -3 158
-434z"/>
<path d="M4053 10698 c-12 -16 -123 -331 -123 -350 0 -32 24 -38 145 -38 123
0 145 6 145 39 0 20 -110 332 -123 349 -5 6 -15 12 -22 12 -7 0 -17 -6 -22
-12z m56 -209 c16 -46 32 -92 36 -101 6 -16 0 -18 -68 -18 l-76 0 36 106 c19
58 37 103 39 101 2 -2 17 -42 33 -88z"/>
<path d="M4612 10928 c-17 -17 -17 -969 0 -986 8 -8 48 -12 113 -12 65 0 105
4 113 12 17 17 17 969 0 986 -16 16 -210 16 -226 0z m178 -493 l0 -445 -65 0
-65 0 0 445 0 445 65 0 65 0 0 -445z"/>
<path d="M4992 10928 c-17 -17 -17 -969 0 -986 17 -17 202 -16 217 1 7 9 12
101 13 270 l3 257 165 -267 165 -268 109 -3 c71 -2 113 1 122 9 19 16 21 968
2 987 -17 17 -202 16 -217 -1 -7 -9 -12 -103 -13 -275 l-3 -262 -155 252 c-85
138 -163 262 -173 275 -17 21 -25 23 -121 23 -66 0 -106 -4 -114 -12z m380
-358 c103 -168 194 -309 202 -314 10 -7 20 -5 30 3 14 12 16 52 16 317 l0 304
60 0 60 0 0 -445 0 -445 -74 0 -73 0 -188 306 c-104 168 -194 308 -202 311 -7
3 -20 0 -28 -7 -13 -11 -15 -59 -15 -311 l0 -299 -60 0 -60 0 0 445 0 446 72
-3 72 -3 188 -305z"/>
<path d="M5882 10928 c-7 -7 -12 -44 -12 -98 0 -54 5 -91 12 -98 8 -8 54 -12
140 -12 l128 0 0 -383 c0 -285 3 -386 12 -395 16 -16 210 -16 226 0 9 9 12
110 12 395 l0 383 128 0 c86 0 132 4 140 12 16 16 16 180 0 196 -17 17 -769
17 -786 0z m738 -98 l0 -50 -128 0 c-86 0 -132 -4 -140 -12 -9 -9 -12 -110
-12 -395 l0 -383 -65 0 -65 0 0 383 c0 285 -3 386 -12 395 -8 8 -54 12 -140
12 l-128 0 0 50 0 50 345 0 345 0 0 -50z"/>
<path d="M6912 10927 c-6 -7 -90 -226 -187 -487 -127 -341 -174 -479 -167
-490 14 -23 218 -27 243 -4 10 9 32 59 49 110 l32 94 153 0 153 0 31 -86 c17
-47 31 -89 31 -93 0 -4 8 -15 18 -24 26 -24 223 -25 242 -1 11 13 -14 91 -160
492 -95 262 -178 483 -183 490 -13 17 -240 17 -255 -1z m369 -486 c88 -239
159 -438 159 -443 0 -4 -29 -8 -64 -8 l-63 0 -33 93 c-18 50 -40 100 -48 110
-13 15 -36 17 -197 17 -156 0 -185 -2 -196 -16 -8 -9 -28 -58 -45 -108 l-31
-91 -67 -3 c-55 -2 -67 0 -64 11 2 8 75 209 163 446 l160 431 84 -2 84 -3 158
-434z"/>
<path d="M7013 10698 c-12 -16 -123 -331 -123 -350 0 -32 24 -38 145 -38 123
0 145 6 145 39 0 20 -110 332 -123 349 -5 6 -15 12 -22 12 -7 0 -17 -6 -22
-12z m56 -209 c16 -46 32 -92 36 -101 6 -16 0 -18 -68 -18 l-76 0 36 106 c19
58 37 103 39 101 2 -2 17 -42 33 -88z"/>
<path d="M7572 10928 c-17 -17 -17 -969 0 -986 8 -8 48 -12 113 -12 65 0 105
4 113 12 17 17 17 969 0 986 -16 16 -210 16 -226 0z m178 -493 l0 -445 -65 0
-65 0 0 445 0 445 65 0 65 0 0 -445z"/>
<path d="M7952 10928 c-17 -17 -17 -969 0 -986 17 -17 202 -16 217 1 7 9 12
101 13 270 l3 257 165 -267 165 -268 109 -3 c71 -2 113 1 122 9 19 16 21 968
2 987 -17 17 -202 16 -217 -1 -7 -9 -12 -103 -13 -275 l-3 -262 -155 252 c-85
138 -163 262 -173 275 -17 21 -25 23 -121 23 -66 0 -106 -4 -114 -12z m380
-358 c103 -168 194 -309 202 -314 10 -7 20 -5 30 3 14 12 16 52 16 317 l0 304
60 0 60 0 0 -445 0 -445 -74 0 -73 0 -188 306 c-104 168 -194 308 -202 311 -7
3 -20 0 -28 -7 -13 -11 -15 -59 -15 -311 l0 -299 -60 0 -60 0 0 445 0 446 72
-3 72 -3 188 -305z"/>
<path d="M9482 10927 c-6 -7 -90 -226 -187 -487 -127 -341 -174 -479 -167
-490 14 -23 218 -27 243 -4 10 9 32 59 49 110 l32 94 153 0 153 0 31 -86 c17
-47 31 -89 31 -93 0 -4 8 -15 18 -24 26 -24 223 -25 242 -1 11 13 -14 91 -160
492 -95 262 -178 483 -183 490 -13 17 -240 17 -255 -1z m369 -486 c88 -239
159 -438 159 -443 0 -4 -29 -8 -64 -8 l-63 0 -33 93 c-18 50 -40 100 -48 110
-13 15 -36 17 -197 17 -156 0 -185 -2 -196 -16 -8 -9 -28 -58 -45 -108 l-31
-91 -67 -3 c-55 -2 -67 0 -64 11 2 8 75 209 163 446 l160 431 84 -2 84 -3 158
-434z"/>
<path d="M9583 10698 c-12 -16 -123 -331 -123 -350 0 -32 24 -38 145 -38 123
0 145 6 145 39 0 20 -110 332 -123 349 -5 6 -15 12 -22 12 -7 0 -17 -6 -22
-12z m56 -209 c16 -46 32 -92 36 -101 6 -16 0 -18 -68 -18 l-76 0 36 106 c19
58 37 103 39 101 2 -2 17 -42 33 -88z"/>
<path d="M11363 10929 c-18 -18 -19 -969 -1 -987 8 -8 48 -12 113 -12 65 0
105 4 113 12 8 8 12 62 12 179 l0 166 148 6 c170 6 219 19 284 77 24 21 57 62
73 91 28 50 30 62 30 154 0 89 -3 106 -28 157 -32 64 -80 111 -146 142 -42 19
-68 21 -316 24 -210 3 -273 1 -282 -9z m593 -84 c51 -27 62 -38 89 -90 26 -51
30 -69 30 -139 0 -71 -4 -88 -29 -134 -56 -100 -112 -122 -326 -129 -85 -3
-161 -10 -167 -15 -10 -8 -13 -56 -13 -179 l0 -169 -65 0 -65 0 0 446 0 446
243 -3 243 -4 60 -30z"/>
<path d="M11552 10768 c-17 -17 -17 -289 0 -306 14 -14 213 -16 272 -2 25 5
55 24 80 49 39 40 41 44 41 106 0 61 -2 66 -40 105 -21 22 -55 45 -75 50 -51
14 -263 13 -278 -2z m292 -71 c55 -37 57 -120 4 -160 -23 -17 -47 -21 -138
-25 l-110 -5 0 108 0 107 108 -3 c83 -3 115 -8 136 -22z"/>
<path d="M12242 10928 c-17 -17 -17 -969 0 -986 8 -8 48 -12 113 -12 65 0 105
4 113 12 17 17 17 969 0 986 -16 16 -210 16 -226 0z m178 -493 l0 -445 -65 0
-65 0 0 445 0 445 65 0 65 0 0 -445z"/>
<path d="M12623 10929 c-18 -18 -19 -969 -1 -987 8 -8 48 -12 113 -12 65 0
105 4 113 12 8 8 12 67 12 200 l0 188 35 0 c85 0 131 -42 252 -235 112 -178
95 -166 236 -163 95 2 122 6 130 18 7 12 -13 52 -84 169 -52 84 -113 175 -137
202 l-43 48 35 15 c44 18 106 80 131 131 15 31 20 61 20 130 0 82 -3 95 -31
145 -34 61 -94 113 -152 131 -55 18 -613 25 -629 8z m563 -60 c83 -15 127 -43
158 -99 51 -95 43 -204 -20 -279 -27 -31 -49 -45 -97 -60 -92 -28 -94 -40 -21
-109 41 -39 87 -99 142 -190 45 -73 82 -134 82 -137 0 -3 -33 -5 -72 -5 l-73
0 -67 109 c-99 159 -169 245 -221 270 -49 24 -165 29 -185 9 -8 -8 -12 -67
-12 -200 l0 -188 -65 0 -65 0 0 445 0 445 228 0 c126 0 255 -5 288 -11z"/>
<path d="M12812 10768 c-19 -19 -16 -252 3 -268 11 -9 59 -11 178 -9 180 4
199 10 238 72 15 24 19 44 16 85 -4 59 -30 95 -84 118 -43 18 -333 20 -351 2z
m332 -62 c25 -10 36 -22 41 -46 8 -36 -9 -85 -33 -96 -10 -4 -79 -9 -154 -12
l-138 -4 0 86 0 86 125 0 c85 0 136 -5 159 -14z"/>
<path d="M13572 10928 c-17 -17 -17 -969 0 -986 8 -8 48 -12 113 -12 65 0 105
4 113 12 17 17 17 969 0 986 -16 16 -210 16 -226 0z m178 -493 l0 -445 -65 0
-65 0 0 445 0 445 65 0 65 0 0 -445z"/>
<path d="M13882 10928 c-16 -16 -16 -180 0 -196 8 -8 54 -12 140 -12 l128 0 0
-383 c0 -285 3 -386 12 -395 16 -16 210 -16 226 0 9 9 12 110 12 395 l0 383
128 0 c86 0 132 4 140 12 7 7 12 44 12 98 0 54 -5 91 -12 98 -17 17 -769 17
-786 0z m738 -98 l0 -50 -128 0 c-86 0 -132 -4 -140 -12 -9 -9 -12 -110 -12
-395 l0 -383 -65 0 -65 0 0 383 c0 285 -3 386 -12 395 -8 8 -54 12 -140 12
l-128 0 0 50 0 50 345 0 345 0 0 -50z"/>
<path d="M16162 10928 c-17 -17 -17 -969 0 -986 8 -8 48 -12 113 -12 65 0 105
4 113 12 8 8 12 67 12 200 l0 188 183 0 c129 0 187 4 195 12 16 16 16 180 0
196 -8 8 -66 12 -195 12 l-183 0 0 85 0 85 213 0 c152 0 216 3 225 12 7 7 12
44 12 98 0 54 -5 91 -12 98 -17 17 -659 17 -676 0z m628 -98 l0 -50 -213 0
c-152 0 -216 -3 -225 -12 -17 -17 -17 -249 0 -266 8 -8 66 -12 195 -12 l183 0
0 -50 0 -50 -183 0 c-129 0 -187 -4 -195 -12 -8 -8 -12 -67 -12 -200 l0 -188
-65 0 -65 0 0 445 0 445 290 0 290 0 0 -50z"/>
<path d="M17342 10928 c-17 -17 -17 -969 0 -986 17 -17 689 -17 706 0 16 16
16 180 0 196 -9 9 -76 12 -240 12 l-228 0 0 383 c0 285 -3 386 -12 395 -16 16
-210 16 -226 0z m178 -431 c0 -285 3 -386 12 -395 9 -9 76 -12 240 -12 l228 0
0 -50 0 -50 -305 0 -305 0 0 445 0 445 65 0 65 0 0 -383z"/>
<path d="M19080 10925 c-11 -13 14 -95 150 -488 89 -260 169 -480 178 -489 13
-15 33 -18 122 -18 89 0 109 3 122 18 8 9 90 229 183 489 141 396 166 475 155
488 -20 24 -221 22 -242 -2 -9 -10 -60 -152 -114 -316 l-99 -297 -100 299
c-55 164 -106 306 -114 315 -19 23 -222 24 -241 1z m312 -387 c71 -212 121
-346 131 -352 12 -8 20 -7 31 4 7 8 64 167 126 353 l112 337 64 0 c35 0 64 -3
64 -7 0 -5 -70 -205 -156 -445 l-157 -438 -77 0 -77 0 -21 58 c-51 139 -282
815 -282 823 0 5 29 9 64 9 l64 0 114 -342z"/>
<path d="M20072 10928 c-17 -17 -17 -969 0 -986 17 -17 739 -17 756 0 7 7 12
44 12 98 0 54 -5 91 -12 98 -9 9 -82 12 -265 12 l-253 0 0 100 0 100 223 0
c160 0 226 3 235 12 7 7 12 44 12 98 0 54 -5 91 -12 98 -9 9 -75 12 -235 12
l-223 0 0 75 0 75 243 0 c176 0 246 3 255 12 7 7 12 44 12 98 0 54 -5 91 -12
98 -9 9 -104 12 -368 12 -264 0 -359 -3 -368 -12z m688 -98 l0 -50 -243 0
c-176 0 -246 -3 -255 -12 -17 -17 -17 -229 0 -246 9 -9 75 -12 235 -12 l223 0
0 -50 0 -50 -223 0 c-160 0 -226 -3 -235 -12 -8 -8 -12 -56 -12 -148 0 -92 4
-140 12 -148 9 -9 82 -12 265 -12 l253 0 0 -50 0 -50 -330 0 -330 0 0 445 0
445 320 0 320 0 0 -50z"/>
<path d="M21322 10928 c-9 -9 -12 -132 -12 -493 0 -361 3 -484 12 -493 8 -8
48 -12 113 -12 65 0 105 4 113 12 9 9 12 132 12 493 0 361 -3 484 -12 493 -16
16 -210 16 -226 0z m178 -493 l0 -445 -65 0 -65 0 0 445 0 445 65 0 65 0 0
-445z"/>
<path d="M21702 10928 c-9 -9 -12 -132 -12 -493 0 -361 3 -484 12 -493 17 -17
202 -16 217 1 7 9 12 101 13 270 l3 257 165 -267 165 -268 109 -3 c71 -2 113
1 122 9 19 16 21 968 2 987 -17 17 -202 16 -217 -1 -7 -9 -12 -103 -13 -275
l-3 -262 -155 252 c-85 138 -163 262 -173 275 -17 21 -25 23 -121 23 -66 0
-106 -4 -114 -12z m380 -358 c103 -168 194 -309 202 -314 10 -7 20 -5 30 3 14
12 16 52 16 317 l0 304 60 0 60 0 0 -445 0 -445 -74 0 -73 0 -188 306 c-104
168 -194 308 -202 311 -7 3 -20 0 -28 -7 -13 -11 -15 -59 -15 -311 l0 -299
-60 0 -60 0 0 445 0 446 72 -3 72 -3 188 -305z"/>
<path d="M7431 9414 c-82 -22 -147 -62 -208 -128 -95 -103 -133 -214 -133
-391 0 -168 48 -292 151 -390 90 -86 194 -125 334 -125 139 0 243 38 331 122
102 97 143 195 151 363 11 233 -60 393 -220 496 -99 64 -278 88 -406 53z m259
-60 c97 -22 180 -77 229 -153 58 -90 76 -163 75 -306 -1 -128 -16 -191 -69
-280 -114 -195 -462 -234 -642 -71 -167 150 -177 521 -20 701 90 104 260 147
427 109z"/>
<path d="M7476 9256 c-88 -33 -156 -114 -182 -216 -24 -95 -15 -249 19 -324
55 -121 159 -183 288 -174 110 8 185 64 236 176 44 95 42 305 -4 397 -22 44
-82 104 -128 128 -52 26 -173 33 -229 13z m216 -78 c82 -45 113 -120 113 -279
0 -99 -2 -109 -33 -172 -26 -53 -42 -72 -77 -92 -122 -72 -267 -24 -325 108
-45 100 -34 284 21 373 21 34 69 69 117 85 45 14 137 3 184 -23z"/>
<path d="M10751 9414 c-82 -22 -147 -62 -208 -128 -95 -103 -133 -214 -133
-391 0 -168 48 -292 151 -390 90 -86 194 -125 334 -125 139 0 243 38 331 122
102 97 143 195 151 363 11 233 -60 393 -220 496 -99 64 -278 88 -406 53z m259
-60 c97 -22 180 -77 229 -153 58 -90 76 -163 75 -306 -1 -128 -16 -191 -69
-280 -114 -195 -462 -234 -642 -71 -167 150 -177 521 -20 701 90 104 260 147
427 109z"/>
<path d="M10796 9256 c-88 -33 -156 -114 -182 -216 -24 -95 -15 -249 19 -324
55 -121 159 -183 288 -174 110 8 185 64 236 176 44 95 42 305 -4 397 -22 44
-82 104 -128 128 -52 26 -173 33 -229 13z m216 -78 c82 -45 113 -120 113 -279
0 -99 -2 -109 -33 -172 -26 -53 -42 -72 -77 -92 -122 -72 -267 -24 -325 108
-45 100 -34 284 21 373 21 34 69 69 117 85 45 14 137 3 184 -23z"/>
<path d="M16551 9414 c-82 -22 -147 -62 -208 -128 -95 -103 -133 -214 -133
-391 0 -168 48 -292 151 -390 90 -86 194 -125 334 -125 139 0 243 38 331 122
102 97 143 195 151 363 11 233 -60 393 -220 496 -99 64 -278 88 -406 53z m259
-60 c97 -22 180 -77 229 -153 58 -90 76 -163 75 -306 -1 -128 -16 -191 -69
-280 -114 -195 -462 -234 -642 -71 -167 150 -177 521 -20 701 90 104 260 147
427 109z"/>
<path d="M16596 9256 c-88 -33 -156 -114 -182 -216 -24 -95 -15 -249 19 -324
55 -121 159 -183 288 -174 110 8 185 64 236 176 44 95 42 305 -4 397 -22 44
-82 104 -128 128 -52 26 -173 33 -229 13z m216 -78 c82 -45 113 -120 113 -279
0 -99 -2 -109 -33 -172 -26 -53 -42 -72 -77 -92 -122 -72 -267 -24 -325 108
-45 100 -34 284 21 373 21 34 69 69 117 85 45 14 137 3 184 -23z"/>
<path d="M3632 9397 c-6 -7 -90 -226 -187 -487 -127 -341 -174 -479 -167 -490
14 -23 218 -27 243 -4 10 9 32 59 49 110 l32 94 153 0 153 0 31 -86 c17 -47
31 -89 31 -93 0 -4 8 -15 18 -24 26 -24 223 -25 242 -1 11 13 -14 91 -160 492
-95 262 -178 483 -183 490 -13 17 -240 17 -255 -1z m369 -486 c88 -239 159
-438 159 -443 0 -4 -29 -8 -64 -8 l-63 0 -33 93 c-18 50 -40 100 -48 110 -13
15 -36 17 -197 17 -156 0 -185 -2 -196 -16 -8 -9 -28 -58 -45 -108 l-31 -91
-67 -3 c-55 -2 -67 0 -64 11 2 8 75 209 163 446 l160 431 84 -2 84 -3 158
-434z"/>
<path d="M3733 9168 c-12 -16 -123 -331 -123 -350 0 -32 24 -38 145 -38 123 0
145 6 145 39 0 20 -110 332 -123 349 -5 6 -15 12 -22 12 -7 0 -17 -6 -22 -12z
m56 -209 c16 -46 32 -92 36 -101 6 -16 0 -18 -68 -18 l-76 0 36 106 c19 58 37
103 39 101 2 -2 17 -42 33 -88z"/>
<path d="M4302 9398 c-17 -17 -17 -969 0 -986 17 -17 689 -17 706 0 16 16 16
180 0 196 -9 9 -76 12 -240 12 l-228 0 0 383 c0 285 -3 386 -12 395 -8 8 -48
12 -113 12 -65 0 -105 -4 -113 -12z m178 -431 c0 -285 3 -386 12 -395 9 -9 76
-12 240 -12 l228 0 0 -50 0 -50 -305 0 -305 0 0 445 0 445 65 0 65 0 0 -383z"/>
<path d="M5112 9398 c-17 -17 -17 -969 0 -986 17 -17 689 -17 706 0 16 16 16
180 0 196 -9 9 -76 12 -240 12 l-228 0 0 383 c0 285 -3 386 -12 395 -8 8 -48
12 -113 12 -65 0 -105 -4 -113 -12z m178 -431 c0 -285 3 -386 12 -395 9 -9 76
-12 240 -12 l228 0 0 -50 0 -50 -305 0 -305 0 0 445 0 445 65 0 65 0 0 -383z"/>
<path d="M6162 9398 c-7 -7 -12 -18 -12 -24 0 -7 77 -134 170 -283 l170 -270
0 -199 c0 -141 3 -201 12 -210 16 -16 210 -16 226 0 9 9 12 69 12 209 l0 197
170 272 c94 149 170 277 170 284 0 29 -25 36 -140 36 -99 0 -119 -3 -132 -17
-8 -10 -54 -88 -102 -173 -49 -85 -89 -156 -90 -157 -1 -1 -42 68 -90 155 -49
86 -96 165 -104 175 -13 14 -33 17 -132 17 -77 0 -120 -4 -128 -12z m320 -230
c57 -99 110 -186 120 -191 12 -8 21 -7 31 1 8 7 61 94 116 192 l102 180 74 0
75 0 -48 -77 c-27 -43 -99 -158 -160 -256 l-112 -178 0 -190 0 -189 -65 0 -65
0 0 190 0 191 -137 217 c-75 119 -147 234 -160 255 l-23 37 74 0 75 0 103
-182z"/>
<path d="M8170 9395 c-9 -11 -11 -103 -8 -377 4 -305 7 -371 21 -415 24 -72
92 -144 175 -185 66 -33 69 -33 207 -33 162 0 216 14 293 74 61 48 99 119 112
207 15 103 13 717 -2 732 -17 17 -212 16 -226 -1 -7 -8 -12 -135 -14 -364 -3
-339 -4 -353 -24 -380 -28 -37 -85 -56 -152 -50 -60 6 -93 24 -119 64 -16 24
-18 62 -21 372 -2 227 -7 350 -14 358 -16 19 -211 18 -228 -2z m180 -362 c0
-177 4 -334 10 -353 12 -45 85 -117 130 -130 44 -13 125 -13 170 0 48 13 109
78 121 126 4 22 9 182 9 357 l0 317 65 0 65 0 0 -297 c0 -394 -12 -468 -87
-538 -55 -51 -125 -69 -263 -70 -122 0 -127 1 -193 33 -39 19 -78 47 -93 67
-53 70 -57 102 -62 468 l-4 337 66 0 66 0 0 -317z"/>
<path d="M9503 9399 c-10 -10 -13 -123 -13 -495 0 -408 2 -483 14 -494 11 -8
81 -11 268 -8 284 5 316 11 404 77 111 84 163 202 171 386 8 204 -31 329 -137
435 -97 97 -124 103 -435 108 -201 3 -263 1 -272 -9z m569 -78 c146 -57 227
-228 215 -456 -8 -155 -64 -284 -146 -338 -82 -54 -118 -61 -363 -65 l-228 -4
0 447 0 447 233 -4 c211 -4 237 -6 289 -27z"/>
<path d="M9692 9238 c-9 -9 -12 -97 -12 -333 0 -236 3 -324 12 -333 15 -15
247 -16 302 -1 56 16 121 80 143 142 14 41 18 83 18 197 0 126 -3 151 -21 191
-31 66 -84 115 -146 134 -64 19 -278 21 -296 3z m275 -63 c98 -29 128 -93 128
-270 0 -236 -43 -284 -252 -285 l-103 0 0 285 0 285 88 0 c50 0 111 -7 139
-15z"/>
<path d="M12432 9397 c-6 -7 -90 -226 -187 -487 -127 -341 -174 -479 -167
-490 14 -23 218 -27 243 -4 10 9 32 59 49 110 l32 94 153 0 153 0 31 -86 c17
-47 31 -89 31 -93 0 -4 8 -15 18 -24 26 -24 223 -25 242 -1 11 13 -14 91 -160
492 -95 262 -178 483 -183 490 -13 17 -240 17 -255 -1z m369 -486 c88 -239
159 -438 159 -443 0 -4 -29 -8 -64 -8 l-63 0 -33 93 c-18 50 -40 100 -48 110
-13 15 -36 17 -197 17 -156 0 -185 -2 -196 -16 -8 -9 -28 -58 -45 -108 l-31
-91 -67 -3 c-55 -2 -67 0 -64 11 2 8 75 209 163 446 l160 431 84 -2 84 -3 158
-434z"/>
<path d="M12533 9168 c-12 -16 -123 -331 -123 -350 0 -32 24 -38 145 -38 123
0 145 6 145 39 0 20 -110 332 -123 349 -5 6 -15 12 -22 12 -7 0 -17 -6 -22
-12z m56 -209 c16 -46 32 -92 36 -101 6 -16 0 -18 -68 -18 l-76 0 36 106 c19
58 37 103 39 101 2 -2 17 -42 33 -88z"/>
<path d="M13102 9398 c-17 -17 -17 -969 0 -986 17 -17 202 -16 217 1 7 9 12
101 13 270 l3 257 165 -267 165 -268 109 -3 c71 -2 113 1 122 9 19 16 21 968
2 987 -17 17 -202 16 -217 -1 -7 -9 -12 -103 -13 -275 l-3 -262 -155 252 c-85
138 -163 262 -173 275 -17 21 -25 23 -121 23 -66 0 -106 -4 -114 -12z m380
-358 c103 -168 194 -309 202 -314 10 -7 20 -5 30 3 14 12 16 52 16 317 l0 304
60 0 60 0 0 -445 0 -445 -74 0 -73 0 -188 306 c-104 168 -194 308 -202 311 -7
3 -20 0 -28 -7 -13 -11 -15 -59 -15 -311 l0 -299 -60 0 -60 0 0 445 0 446 72
-3 72 -3 188 -305z"/>
<path d="M14063 9399 c-10 -10 -13 -123 -13 -495 0 -408 2 -483 14 -494 11 -8
81 -11 268 -8 284 5 316 11 404 77 111 84 163 202 171 386 8 204 -31 329 -137
435 -97 97 -124 103 -435 108 -201 3 -263 1 -272 -9z m569 -78 c146 -57 227
-228 215 -456 -8 -155 -64 -284 -146 -338 -82 -54 -118 -61 -363 -65 l-228 -4
0 447 0 447 233 -4 c211 -4 237 -6 289 -27z"/>
<path d="M14252 9238 c-17 -17 -17 -649 0 -666 15 -15 247 -16 302 -1 56 16
121 80 143 142 14 41 18 83 18 197 0 126 -3 151 -21 191 -31 66 -84 115 -146
134 -64 19 -278 21 -296 3z m275 -63 c98 -29 128 -93 128 -270 0 -236 -43
-284 -252 -285 l-103 0 0 285 0 285 88 0 c50 0 111 -7 139 -15z"/>
<path d="M15282 9398 c-7 -7 -12 -18 -12 -24 0 -7 77 -134 170 -283 l170 -270
0 -199 c0 -141 3 -201 12 -210 16 -16 210 -16 226 0 9 9 12 69 12 209 l0 197
170 272 c94 149 170 277 170 284 0 29 -25 36 -140 36 -99 0 -119 -3 -132 -17
-8 -10 -54 -88 -102 -173 -49 -85 -89 -156 -90 -157 -1 -1 -42 68 -90 155 -49
86 -96 165 -104 175 -13 14 -33 17 -132 17 -77 0 -120 -4 -128 -12z m320 -230
c57 -99 110 -186 120 -191 12 -8 21 -7 31 1 8 7 61 94 116 192 l102 180 74 0
75 0 -48 -77 c-27 -43 -99 -158 -160 -256 l-112 -178 0 -190 0 -189 -65 0 -65
0 0 190 0 191 -137 217 c-75 119 -147 234 -160 255 l-23 37 74 0 75 0 103
-182z"/>
<path d="M17290 9395 c-9 -11 -11 -103 -8 -377 4 -305 7 -371 21 -415 24 -72
92 -144 175 -185 66 -33 69 -33 207 -33 162 0 216 14 293 74 61 48 99 119 112
207 15 103 13 717 -2 732 -17 17 -212 16 -226 -1 -7 -8 -12 -135 -14 -364 -3
-339 -4 -353 -24 -380 -28 -37 -85 -56 -152 -50 -60 6 -93 24 -119 64 -16 24
-18 62 -21 372 -2 227 -7 350 -14 358 -16 19 -211 18 -228 -2z m180 -362 c0
-177 4 -334 10 -353 12 -45 85 -117 130 -130 44 -13 125 -13 170 0 48 13 109
78 121 126 4 22 9 182 9 357 l0 317 65 0 65 0 0 -297 c0 -394 -12 -468 -87
-538 -55 -51 -125 -69 -263 -70 -122 0 -127 1 -193 33 -39 19 -78 47 -93 67
-53 70 -57 102 -62 468 l-4 337 66 0 66 0 0 -317z"/>
<path d="M18520 9395 c-10 -12 8 -104 95 -492 59 -263 112 -484 118 -490 7 -9
46 -13 133 -13 117 0 124 1 138 23 7 12 47 150 87 305 45 175 75 277 79 265 4
-10 40 -142 80 -293 41 -151 78 -281 83 -287 7 -9 45 -13 128 -13 112 0 119 1
132 23 8 12 62 232 122 490 87 378 105 470 95 482 -16 20 -222 22 -237 3 -6
-7 -34 -129 -64 -270 -29 -142 -56 -254 -60 -250 -3 4 -34 120 -68 257 -35
138 -68 256 -73 263 -7 8 -49 12 -143 12 -94 0 -135 -4 -142 -12 -6 -7 -38
-123 -73 -258 -35 -135 -66 -248 -70 -253 -3 -4 -30 107 -60 245 -29 139 -57
259 -63 266 -15 19 -221 17 -237 -3z m205 -117 c8 -40 39 -183 68 -317 54
-253 67 -286 101 -251 8 8 44 132 81 275 37 143 73 284 82 313 l14 52 94 0 93
0 11 -32 c5 -18 42 -161 81 -318 40 -157 78 -292 86 -300 34 -35 47 -3 101
256 29 137 60 282 69 322 l15 72 66 0 c48 0 64 -3 61 -12 -2 -7 -49 -208 -104
-445 l-99 -433 -82 0 c-77 0 -83 1 -88 23 -3 12 -45 168 -94 346 -89 331 -103
365 -134 331 -8 -8 -54 -169 -103 -357 l-89 -343 -87 0 c-74 0 -87 3 -92 18
-3 9 -46 199 -96 422 -50 223 -94 415 -97 428 -5 21 -3 22 60 22 l66 0 16 -72z"/>
<path d="M19872 9398 c-17 -17 -17 -969 0 -986 8 -8 48 -12 113 -12 65 0 105
4 113 12 17 17 17 969 0 986 -8 8 -48 12 -113 12 -65 0 -105 -4 -113 -12z
m178 -493 l0 -445 -65 0 -65 0 0 445 0 445 65 0 65 0 0 -445z"/>
<path d="M20252 9398 c-17 -17 -17 -969 0 -986 17 -17 689 -17 706 0 7 7 12
44 12 98 0 54 -5 91 -12 98 -9 9 -76 12 -240 12 l-228 0 0 383 c0 285 -3 386
-12 395 -8 8 -48 12 -113 12 -65 0 -105 -4 -113 -12z m178 -431 c0 -285 3
-386 12 -395 9 -9 76 -12 240 -12 l228 0 0 -50 0 -50 -305 0 -305 0 0 445 0
445 65 0 65 0 0 -383z"/>
<path d="M21062 9398 c-9 -9 -12 -132 -12 -493 0 -361 3 -484 12 -493 17 -17
689 -17 706 0 7 7 12 44 12 98 0 54 -5 91 -12 98 -9 9 -76 12 -240 12 l-228 0
0 383 c0 285 -3 386 -12 395 -8 8 -48 12 -113 12 -65 0 -105 -4 -113 -12z
m178 -431 c0 -285 3 -386 12 -395 9 -9 76 -12 240 -12 l228 0 0 -50 0 -50
-305 0 -305 0 0 445 0 445 65 0 65 0 0 -383z"/>
<path d="M11482 8628 c-16 -16 -16 -200 0 -216 7 -7 25 -12 40 -12 18 0 28 -5
28 -15 0 -17 -38 -55 -55 -55 -7 0 -20 -9 -30 -20 -17 -19 -17 -21 0 -60 10
-22 26 -47 36 -56 16 -15 23 -15 51 -3 59 24 126 96 143 152 19 63 21 267 3
285 -8 8 -47 12 -108 12 -61 0 -100 -4 -108 -12z m166 -150 c-4 -120 -23 -170
-78 -206 -48 -32 -50 -10 -2 35 28 26 42 50 48 77 9 51 -4 70 -50 74 l-36 3 0
60 0 59 61 0 61 0 -4 -102z"/>
<path d="M11031 7884 c-82 -22 -147 -62 -208 -128 -95 -103 -133 -214 -133
-391 0 -168 48 -292 151 -390 90 -86 194 -125 334 -125 139 0 243 38 331 122
102 97 143 195 151 363 11 233 -60 393 -220 496 -99 64 -278 88 -406 53z m259
-60 c97 -22 180 -77 229 -153 58 -90 76 -163 75 -306 -1 -128 -16 -191 -69
-280 -114 -195 -462 -234 -642 -71 -167 150 -177 521 -20 701 90 104 260 147
427 109z"/>
<path d="M11076 7726 c-88 -33 -156 -114 -182 -216 -24 -95 -15 -249 19 -324
55 -121 159 -183 288 -174 110 8 185 64 236 176 44 95 42 305 -4 397 -22 44
-82 104 -128 128 -52 26 -173 33 -229 13z m216 -78 c82 -45 113 -120 113 -279
0 -99 -2 -109 -33 -172 -26 -53 -42 -72 -77 -92 -122 -72 -267 -24 -325 108
-45 100 -34 284 21 373 21 34 69 69 117 85 45 14 137 3 184 -23z"/>
<path d="M16984 7886 c-168 -41 -303 -194 -334 -379 -18 -105 -8 -256 23 -339
44 -122 155 -235 269 -275 81 -28 263 -25 341 6 82 32 167 114 212 203 40 80
42 98 18 120 -24 21 -180 71 -198 64 -8 -3 -27 -34 -43 -69 -44 -96 -112 -137
-205 -123 -67 10 -107 42 -142 111 -28 57 -30 67 -30 180 0 104 3 127 23 172
29 63 55 88 111 108 98 34 188 4 232 -78 39 -72 37 -71 131 -52 92 20 128 37
128 63 0 67 -114 213 -200 257 -87 44 -228 57 -336 31z m218 -57 c106 -23 183
-79 227 -166 12 -23 21 -44 21 -46 0 -2 -26 -10 -57 -17 -53 -11 -58 -11 -68
5 -24 43 -83 99 -120 116 -50 23 -137 24 -196 4 -57 -20 -122 -84 -151 -149
-21 -46 -23 -66 -23 -191 0 -125 3 -146 24 -192 30 -67 105 -138 162 -153 115
-31 228 12 286 109 18 30 34 58 35 63 3 9 96 -18 112 -32 14 -13 -54 -129 -98
-166 -66 -56 -135 -78 -251 -78 -135 0 -197 24 -281 108 -64 64 -95 127 -115
230 -31 165 20 365 118 458 92 88 238 126 375 97z"/>
<path d="M3772 7868 c-17 -17 -17 -969 0 -986 17 -17 689 -17 706 0 16 16 16
180 0 196 -9 9 -76 12 -240 12 l-228 0 0 383 c0 285 -3 386 -12 395 -8 8 -48
12 -113 12 -65 0 -105 -4 -113 -12z m178 -431 c0 -285 3 -386 12 -395 9 -9 76
-12 240 -12 l228 0 0 -50 0 -50 -305 0 -305 0 0 445 0 445 65 0 65 0 0 -383z"/>
<path d="M4582 7868 c-17 -17 -17 -969 0 -986 17 -17 739 -17 756 0 16 16 16
180 0 196 -9 9 -82 12 -265 12 l-253 0 0 100 0 100 223 0 c160 0 226 3 235 12
16 16 16 180 0 196 -9 9 -75 12 -235 12 l-223 0 0 75 0 75 243 0 c176 0 246 3
255 12 7 7 12 44 12 98 0 54 -5 91 -12 98 -9 9 -104 12 -368 12 -264 0 -359
-3 -368 -12z m688 -98 l0 -50 -243 0 c-176 0 -246 -3 -255 -12 -17 -17 -17
-229 0 -246 9 -9 75 -12 235 -12 l223 0 0 -50 0 -50 -223 0 c-160 0 -226 -3
-235 -12 -8 -8 -12 -56 -12 -148 0 -92 4 -140 12 -148 9 -9 82 -12 265 -12
l253 0 0 -50 0 -50 -330 0 -330 0 0 445 0 445 320 0 320 0 0 -50z"/>
<path d="M5722 7867 c-6 -7 -90 -226 -187 -487 -127 -341 -174 -479 -167 -490
14 -23 218 -27 243 -4 10 9 32 59 49 110 l32 94 153 0 153 0 31 -86 c17 -47
31 -89 31 -93 0 -4 8 -15 18 -24 26 -24 223 -25 242 -1 11 13 -14 91 -160 492
-95 262 -178 483 -183 490 -13 17 -240 17 -255 -1z m369 -486 c88 -239 159
-438 159 -443 0 -4 -29 -8 -64 -8 l-63 0 -33 93 c-18 50 -40 100 -48 110 -13
15 -36 17 -197 17 -156 0 -185 -2 -196 -16 -8 -9 -28 -58 -45 -108 l-31 -91
-67 -3 c-55 -2 -67 0 -64 11 2 8 75 209 163 446 l160 431 84 -2 84 -3 158
-434z"/>
<path d="M5823 7638 c-12 -16 -123 -331 -123 -350 0 -32 24 -38 145 -38 123 0
145 6 145 39 0 20 -110 332 -123 349 -5 6 -15 12 -22 12 -7 0 -17 -6 -22 -12z
m56 -209 c16 -46 32 -92 36 -101 6 -16 0 -18 -68 -18 l-76 0 36 106 c19 58 37
103 39 101 2 -2 17 -42 33 -88z"/>
<path d="M6190 7865 c-11 -13 14 -95 150 -488 89 -260 169 -480 178 -489 13
-15 33 -18 122 -18 89 0 109 3 122 18 8 9 90 229 183 489 141 396 166 475 155
488 -20 24 -221 22 -242 -2 -9 -10 -60 -152 -114 -316 l-99 -297 -100 299
c-55 164 -106 306 -114 315 -19 23 -222 24 -241 1z m312 -387 c71 -212 121
-346 131 -352 12 -8 20 -7 31 4 7 8 64 167 126 353 l112 337 64 0 c35 0 64 -3
64 -7 0 -5 -70 -205 -156 -445 l-157 -438 -77 0 -77 0 -21 58 c-51 139 -282
815 -282 823 0 5 29 9 64 9 l64 0 114 -342z"/>
<path d="M7182 7868 c-17 -17 -17 -969 0 -986 17 -17 739 -17 756 0 16 16 16
180 0 196 -9 9 -82 12 -265 12 l-253 0 0 100 0 100 223 0 c160 0 226 3 235 12
16 16 16 180 0 196 -9 9 -75 12 -235 12 l-223 0 0 75 0 75 243 0 c176 0 246 3
255 12 7 7 12 44 12 98 0 54 -5 91 -12 98 -9 9 -104 12 -368 12 -264 0 -359
-3 -368 -12z m688 -98 l0 -50 -243 0 c-176 0 -246 -3 -255 -12 -8 -8 -12 -50
-12 -123 0 -73 4 -115 12 -123 9 -9 75 -12 235 -12 l223 0 0 -50 0 -50 -223 0
c-160 0 -226 -3 -235 -12 -8 -8 -12 -56 -12 -148 0 -92 4 -140 12 -148 9 -9
82 -12 265 -12 l253 0 0 -50 0 -50 -330 0 -330 0 0 445 0 445 320 0 320 0 0
-50z"/>
<path d="M8642 7867 c-6 -7 -90 -226 -187 -487 -127 -341 -174 -479 -167 -490
14 -23 218 -27 243 -4 10 9 32 59 49 110 l32 94 153 0 153 0 31 -86 c17 -47
31 -89 31 -93 0 -4 8 -15 18 -24 26 -24 223 -25 242 -1 11 13 -14 91 -160 492
-95 262 -178 483 -183 490 -13 17 -240 17 -255 -1z m369 -486 c88 -239 159
-438 159 -443 0 -4 -29 -8 -64 -8 l-63 0 -33 93 c-18 50 -40 100 -48 110 -13
15 -36 17 -197 17 -156 0 -185 -2 -196 -16 -8 -9 -28 -58 -45 -108 l-31 -91
-67 -3 c-55 -2 -67 0 -64 11 2 8 75 209 163 446 l160 431 84 -2 84 -3 158
-434z"/>
<path d="M8743 7638 c-12 -16 -123 -331 -123 -350 0 -32 24 -38 145 -38 123 0
145 6 145 39 0 20 -110 332 -123 349 -5 6 -15 12 -22 12 -7 0 -17 -6 -22 -12z
m56 -209 c16 -46 32 -92 36 -101 6 -16 0 -18 -68 -18 l-76 0 36 106 c19 58 37
103 39 101 2 -2 17 -42 33 -88z"/>
<path d="M9622 7868 c-17 -17 -17 -969 0 -986 17 -17 202 -16 217 1 7 9 12 98
13 257 l3 244 54 -235 c30 -129 60 -244 68 -256 13 -22 20 -23 128 -23 108 0
115 1 128 23 8 12 38 127 68 256 l54 235 3 -244 c1 -159 6 -248 13 -257 15
-17 200 -18 217 -1 17 17 17 969 0 986 -16 16 -329 17 -346 0 -6 -6 -39 -128
-74 -271 l-63 -260 -63 258 c-34 142 -67 264 -73 272 -15 18 -329 19 -347 1z
m378 -365 c41 -172 81 -318 88 -325 32 -32 45 4 122 323 l75 314 128 3 127 3
0 -446 0 -445 -60 0 -60 0 0 364 c0 319 -2 365 -16 377 -36 30 -46 2 -133
-374 l-86 -367 -80 0 -80 0 -86 367 c-87 376 -97 404 -133 374 -14 -12 -16
-58 -16 -377 l0 -364 -60 0 -60 0 0 445 0 446 127 -3 128 -3 75 -312z"/>
<path d="M11773 7869 c-18 -18 -19 -969 -1 -987 8 -8 48 -12 113 -12 65 0 105
4 113 12 8 8 12 67 12 200 l0 188 35 0 c85 0 131 -42 252 -235 112 -178 95
-166 236 -163 95 2 122 6 130 18 7 12 -13 52 -84 169 -52 84 -113 175 -137
202 l-43 48 35 15 c44 18 106 80 131 131 15 31 20 61 20 130 0 82 -3 95 -31
145 -34 61 -94 113 -152 131 -55 18 -613 25 -629 8z m563 -60 c83 -15 127 -43
158 -99 51 -95 43 -204 -20 -279 -27 -31 -49 -45 -97 -60 -92 -28 -94 -40 -21
-109 41 -39 87 -99 142 -190 45 -73 82 -134 82 -137 0 -3 -33 -5 -72 -5 l-73
0 -67 109 c-99 159 -169 245 -221 270 -49 24 -165 29 -185 9 -8 -8 -12 -67
-12 -200 l0 -188 -65 0 -65 0 0 445 0 445 228 0 c126 0 255 -5 288 -11z"/>
<path d="M11962 7708 c-19 -19 -16 -252 3 -268 11 -9 59 -11 178 -9 180 4 199
10 238 72 15 24 19 44 16 85 -4 59 -30 95 -84 118 -43 18 -333 20 -351 2z
m332 -62 c25 -10 36 -22 41 -46 8 -36 -9 -85 -33 -96 -10 -4 -79 -9 -154 -12
l-138 -4 0 86 0 86 125 0 c85 0 136 -5 159 -14z"/>
<path d="M12732 7868 c-17 -17 -17 -969 0 -986 17 -17 739 -17 756 0 16 16 16
180 0 196 -9 9 -82 12 -265 12 l-253 0 0 100 0 100 223 0 c160 0 226 3 235 12
16 16 16 180 0 196 -9 9 -75 12 -235 12 l-223 0 0 75 0 75 243 0 c176 0 246 3
255 12 7 7 12 44 12 98 0 54 -5 91 -12 98 -9 9 -104 12 -368 12 -264 0 -359
-3 -368 -12z m688 -98 l0 -50 -243 0 c-176 0 -246 -3 -255 -12 -17 -17 -17
-229 0 -246 9 -9 75 -12 235 -12 l223 0 0 -50 0 -50 -223 0 c-160 0 -226 -3
-235 -12 -8 -8 -12 -56 -12 -148 0 -92 4 -140 12 -148 9 -9 82 -12 265 -12
l253 0 0 -50 0 -50 -330 0 -330 0 0 445 0 445 320 0 320 0 0 -50z"/>
<path d="M13993 7869 c-18 -18 -19 -969 -1 -987 8 -8 48 -12 113 -12 65 0 105
4 113 12 8 8 12 62 12 179 l0 166 148 6 c170 6 219 19 284 77 24 21 57 62 73
91 28 50 30 62 30 154 0 89 -3 106 -28 157 -32 64 -80 111 -146 142 -42 19
-68 21 -316 24 -210 3 -273 1 -282 -9z m593 -84 c51 -27 62 -38 89 -90 26 -51
30 -69 30 -139 0 -71 -4 -88 -29 -134 -56 -100 -112 -122 -326 -129 -85 -3
-161 -10 -167 -15 -10 -8 -13 -56 -13 -179 l0 -169 -65 0 -65 0 0 446 0 446
243 -3 243 -4 60 -30z"/>
<path d="M14182 7708 c-17 -17 -17 -289 0 -306 14 -14 213 -16 272 -2 25 5 55
24 80 49 39 40 41 44 41 106 0 61 -2 66 -40 105 -21 22 -55 45 -75 50 -51 14
-263 13 -278 -2z m292 -71 c55 -37 57 -120 4 -160 -23 -17 -47 -21 -138 -25
l-110 -5 0 108 0 107 108 -3 c83 -3 115 -8 136 -22z"/>
<path d="M14882 7868 c-17 -17 -17 -969 0 -986 17 -17 739 -17 756 0 16 16 16
180 0 196 -9 9 -82 12 -265 12 l-253 0 0 100 0 100 223 0 c160 0 226 3 235 12
16 16 16 180 0 196 -9 9 -75 12 -235 12 l-223 0 0 75 0 75 243 0 c176 0 246 3
255 12 7 7 12 44 12 98 0 54 -5 91 -12 98 -9 9 -104 12 -368 12 -264 0 -359
-3 -368 -12z m688 -98 l0 -50 -243 0 c-176 0 -246 -3 -255 -12 -17 -17 -17
-229 0 -246 9 -9 75 -12 235 -12 l223 0 0 -50 0 -50 -223 0 c-160 0 -226 -3
-235 -12 -8 -8 -12 -56 -12 -148 0 -92 4 -140 12 -148 9 -9 82 -12 265 -12
l253 0 0 -50 0 -50 -330 0 -330 0 0 445 0 445 320 0 320 0 0 -50z"/>
<path d="M16022 7867 c-6 -7 -90 -226 -187 -487 -127 -341 -174 -479 -167
-490 14 -23 218 -27 243 -4 10 9 32 59 49 110 l32 94 153 0 153 0 31 -86 c17
-47 31 -89 31 -93 0 -4 8 -15 18 -24 26 -24 223 -25 242 -1 11 13 -14 91 -160
492 -95 262 -178 483 -183 490 -13 17 -240 17 -255 -1z m369 -486 c88 -239
159 -438 159 -443 0 -4 -29 -8 -64 -8 l-63 0 -33 93 c-18 50 -40 100 -48 110
-13 15 -36 17 -197 17 -156 0 -185 -2 -196 -16 -8 -9 -28 -58 -45 -108 l-31
-91 -67 -3 c-55 -2 -67 0 -64 11 2 8 75 209 163 446 l160 431 84 -2 84 -3 158
-434z"/>
<path d="M16123 7638 c-12 -16 -123 -331 -123 -350 0 -32 24 -38 145 -38 123
0 145 6 145 39 0 20 -110 332 -123 349 -5 6 -15 12 -22 12 -7 0 -17 -6 -22
-12z m56 -209 c16 -46 32 -92 36 -101 6 -16 0 -18 -68 -18 l-76 0 36 106 c19
58 37 103 39 101 2 -2 17 -42 33 -88z"/>
<path d="M17652 7868 c-17 -17 -17 -969 0 -986 17 -17 739 -17 756 0 16 16 16
180 0 196 -9 9 -82 12 -265 12 l-253 0 0 100 0 100 223 0 c160 0 226 3 235 12
16 16 16 180 0 196 -9 9 -75 12 -235 12 l-223 0 0 75 0 75 243 0 c176 0 246 3
255 12 7 7 12 44 12 98 0 54 -5 91 -12 98 -9 9 -104 12 -368 12 -264 0 -359
-3 -368 -12z m688 -98 l0 -50 -243 0 c-176 0 -246 -3 -255 -12 -17 -17 -17
-229 0 -246 9 -9 75 -12 235 -12 l223 0 0 -50 0 -50 -223 0 c-160 0 -226 -3
-235 -12 -8 -8 -12 -56 -12 -148 0 -92 4 -140 12 -148 9 -9 82 -12 265 -12
l253 0 0 -50 0 -50 -330 0 -330 0 0 445 0 445 320 0 320 0 0 -50z"/>
<path d="M18542 7868 c-17 -17 -17 -969 0 -986 8 -8 48 -12 113 -12 65 0 105
4 113 12 8 8 12 67 12 200 l0 188 183 0 c129 0 187 4 195 12 16 16 16 180 0
196 -8 8 -66 12 -195 12 l-183 0 0 85 0 85 213 0 c152 0 216 3 225 12 7 7 12
44 12 98 0 54 -5 91 -12 98 -9 9 -98 12 -338 12 -240 0 -329 -3 -338 -12z
m628 -98 l0 -50 -213 0 c-152 0 -216 -3 -225 -12 -17 -17 -17 -249 0 -266 8
-8 66 -12 195 -12 l183 0 0 -50 0 -50 -183 0 c-129 0 -187 -4 -195 -12 -8 -8
-12 -67 -12 -200 l0 -188 -65 0 -65 0 0 445 0 445 290 0 290 0 0 -50z"/>
<path d="M19350 7865 c-9 -11 -11 -103 -8 -377 4 -305 7 -371 21 -415 24 -72
92 -144 175 -185 66 -33 69 -33 207 -33 162 0 216 14 293 74 61 48 99 119 112
207 15 103 13 717 -2 732 -17 17 -212 16 -226 -1 -7 -8 -12 -135 -14 -364 -3
-339 -4 -353 -24 -380 -28 -37 -85 -56 -152 -50 -60 6 -93 24 -119 64 -16 24
-18 62 -21 372 -2 227 -7 350 -14 358 -16 19 -211 18 -228 -2z m180 -362 c0
-177 4 -334 10 -353 12 -45 85 -117 130 -130 44 -13 125 -13 170 0 48 13 109
78 121 126 4 22 9 182 9 357 l0 317 65 0 65 0 0 -297 c0 -394 -12 -468 -87
-538 -55 -51 -125 -69 -263 -70 -122 0 -127 1 -193 33 -39 19 -78 47 -93 67
-53 70 -57 102 -62 468 l-4 337 66 0 66 0 0 -317z"/>
<path d="M20312 7868 c-17 -17 -17 -969 0 -986 17 -17 689 -17 706 0 7 7 12
44 12 98 0 54 -5 91 -12 98 -9 9 -76 12 -240 12 l-228 0 0 383 c0 285 -3 386
-12 395 -8 8 -48 12 -113 12 -65 0 -105 -4 -113 -12z m178 -431 c0 -285 3
-386 12 -395 9 -9 76 -12 240 -12 l228 0 0 -50 0 -50 -305 0 -305 0 0 445 0
445 65 0 65 0 0 -383z"/>
<path d="M21112 7098 c-8 -8 -12 -47 -12 -108 0 -105 7 -120 52 -120 18 0 28
-5 28 -15 0 -17 -38 -55 -55 -55 -7 0 -20 -9 -30 -20 -17 -19 -17 -21 0 -60
10 -22 26 -47 36 -56 16 -15 23 -15 51 -3 59 24 126 96 143 152 19 63 21 267
3 285 -8 8 -47 12 -108 12 -61 0 -100 -4 -108 -12z m166 -150 c-4 -120 -23
-170 -78 -206 -48 -32 -50 -10 -2 35 28 26 42 50 48 77 9 51 -4 70 -50 74
l-36 3 0 60 0 59 61 0 61 0 -4 -102z"/>
<path d="M4431 6354 c-82 -22 -147 -62 -208 -128 -95 -103 -133 -214 -133
-391 0 -168 48 -292 151 -390 90 -86 194 -125 334 -125 139 0 243 38 331 122
102 97 143 195 151 363 11 233 -60 393 -220 496 -99 64 -278 88 -406 53z m259
-60 c97 -22 180 -77 229 -153 58 -90 76 -163 75 -306 -1 -128 -16 -191 -69
-280 -114 -195 -462 -234 -642 -71 -167 150 -177 521 -20 701 90 104 260 147
427 109z"/>
<path d="M4476 6196 c-88 -33 -156 -114 -182 -216 -24 -95 -15 -249 19 -324
55 -121 159 -183 288 -174 110 8 185 64 236 176 44 95 42 305 -4 397 -22 44
-82 104 -128 128 -52 26 -173 33 -229 13z m216 -78 c82 -45 113 -120 113 -279
0 -99 -2 -109 -33 -172 -26 -53 -42 -72 -77 -92 -122 -72 -267 -24 -325 108
-45 100 -34 284 21 373 21 34 69 69 117 85 45 14 137 3 184 -23z"/>
<path d="M5372 6355 c-69 -19 -86 -29 -139 -78 -70 -64 -88 -107 -88 -207 0
-101 18 -143 90 -209 58 -53 117 -80 269 -120 137 -37 172 -53 181 -82 10 -30
-14 -78 -48 -95 -40 -21 -124 -28 -173 -15 -59 16 -90 44 -109 100 -24 73 -29
75 -136 62 -113 -13 -123 -20 -114 -80 14 -100 85 -207 169 -256 96 -56 312
-71 444 -30 69 21 147 86 186 155 29 51 31 62 31 150 0 110 -15 148 -87 216
-55 53 -104 78 -220 110 -220 61 -248 76 -233 124 9 29 86 54 146 47 67 -8 96
-28 109 -76 16 -60 27 -65 133 -56 50 4 98 11 105 17 16 14 15 54 -4 118 -21
71 -116 168 -189 194 -70 25 -253 31 -323 11z m302 -71 c67 -23 131 -88 149
-151 l14 -48 -41 -7 c-72 -12 -86 -10 -86 12 0 31 -67 98 -108 110 -179 49
-339 -73 -242 -184 32 -36 63 -49 248 -100 205 -57 266 -118 267 -266 0 -64
-4 -82 -29 -127 -50 -90 -131 -130 -286 -140 -157 -10 -285 37 -341 125 -35
56 -56 119 -43 131 5 5 32 11 60 13 l52 5 11 -37 c14 -47 86 -115 137 -129 49
-14 138 -14 186 -1 108 30 162 148 102 220 -36 42 -62 54 -199 90 -252 68
-319 124 -320 270 0 113 64 191 185 225 69 19 214 13 284 -11z"/>
<path d="M9091 6354 c-82 -22 -147 -62 -208 -128 -95 -103 -133 -214 -133
-391 0 -168 48 -292 151 -390 90 -86 194 -125 334 -125 139 0 243 38 331 122
102 97 143 195 151 363 11 233 -60 393 -220 496 -99 64 -278 88 -406 53z m259
-60 c97 -22 180 -77 229 -153 58 -90 76 -163 75 -306 -1 -128 -16 -191 -69
-280 -114 -195 -462 -234 -642 -71 -167 150 -177 521 -20 701 90 104 260 147
427 109z"/>
<path d="M9136 6196 c-88 -33 -156 -114 -182 -216 -24 -95 -15 -249 19 -324
55 -121 159 -183 288 -174 110 8 185 64 236 176 44 95 42 305 -4 397 -22 44
-82 104 -128 128 -52 26 -173 33 -229 13z m216 -78 c82 -45 113 -120 113 -279
0 -99 -2 -109 -33 -172 -26 -53 -42 -72 -77 -92 -122 -72 -267 -24 -325 108
-45 100 -34 284 21 373 21 34 69 69 117 85 45 14 137 3 184 -23z"/>
<path d="M10992 6355 c-69 -19 -86 -29 -139 -78 -70 -64 -88 -107 -88 -207 0
-101 18 -143 90 -209 58 -53 117 -80 269 -120 137 -37 172 -53 181 -82 10 -30
-14 -78 -48 -95 -40 -21 -124 -28 -173 -15 -59 16 -90 44 -109 100 -24 73 -29
75 -136 62 -113 -13 -123 -20 -114 -80 14 -100 85 -207 169 -256 96 -56 312
-71 444 -30 69 21 147 86 186 155 29 51 31 62 31 150 0 110 -15 148 -87 216
-55 53 -104 78 -220 110 -220 61 -248 76 -233 124 9 29 86 54 146 47 67 -8 96
-28 109 -76 16 -60 27 -65 133 -56 50 4 98 11 105 17 16 14 15 54 -4 118 -21
71 -116 168 -189 194 -70 25 -253 31 -323 11z m302 -71 c67 -23 131 -88 149
-151 l14 -48 -41 -7 c-72 -12 -86 -10 -86 12 0 31 -67 98 -108 110 -179 49
-339 -73 -242 -184 32 -36 63 -49 248 -100 205 -57 266 -118 267 -266 0 -64
-4 -82 -29 -127 -50 -90 -131 -130 -286 -140 -157 -10 -285 37 -341 125 -35
56 -56 119 -43 131 5 5 32 11 60 13 l52 5 11 -37 c14 -47 86 -115 137 -129 49
-14 138 -14 186 -1 108 30 162 148 102 220 -36 42 -62 54 -199 90 -252 68
-319 124 -320 270 0 113 64 191 185 225 69 19 214 13 284 -11z"/>
<path d="M13601 6354 c-82 -22 -147 -62 -208 -128 -95 -103 -133 -214 -133
-391 0 -168 48 -292 151 -390 90 -86 194 -125 334 -125 139 0 243 38 331 122
102 97 143 195 151 363 11 233 -60 393 -220 496 -99 64 -278 88 -406 53z m259
-60 c97 -22 180 -77 229 -153 58 -90 76 -163 75 -306 -1 -128 -16 -191 -69
-280 -114 -195 -462 -234 -642 -71 -167 150 -177 521 -20 701 90 104 260 147
427 109z"/>
<path d="M13646 6196 c-88 -33 -156 -114 -182 -216 -24 -95 -15 -249 19 -324
55 -121 159 -183 288 -174 110 8 185 64 236 176 44 95 42 305 -4 397 -22 44
-82 104 -128 128 -52 26 -173 33 -229 13z m216 -78 c82 -45 113 -120 113 -279
0 -99 -2 -109 -33 -172 -26 -53 -42 -72 -77 -92 -122 -72 -267 -24 -325 108
-45 100 -34 284 21 373 21 34 69 69 117 85 45 14 137 3 184 -23z"/>
<path d="M20301 6354 c-82 -22 -147 -62 -208 -128 -95 -103 -133 -214 -133
-391 0 -168 48 -292 151 -390 90 -86 194 -125 334 -125 139 0 243 38 331 122
102 97 143 195 151 363 11 233 -60 393 -220 496 -99 64 -278 88 -406 53z m259
-60 c97 -22 180 -77 229 -153 58 -90 76 -163 75 -306 -1 -128 -16 -191 -69
-280 -114 -195 -462 -234 -642 -71 -167 150 -177 521 -20 701 90 104 260 147
427 109z"/>
<path d="M20346 6196 c-88 -33 -156 -114 -182 -216 -24 -95 -15 -249 19 -324
55 -121 159 -183 288 -174 110 8 185 64 236 176 44 95 42 305 -4 397 -22 44
-82 104 -128 128 -52 26 -173 33 -229 13z m216 -78 c82 -45 113 -120 113 -279
0 -99 -2 -109 -33 -172 -26 -53 -42 -72 -77 -92 -122 -72 -267 -24 -325 108
-45 100 -34 284 21 373 21 34 69 69 117 85 45 14 137 3 184 -23z"/>
<path d="M2293 6339 c-18 -18 -19 -969 -1 -987 8 -8 48 -12 113 -12 65 0 105
4 113 12 8 8 12 62 12 179 l0 166 148 6 c170 6 219 19 284 77 24 21 57 62 73
91 28 50 30 62 30 154 0 89 -3 106 -28 157 -32 64 -80 111 -146 142 -42 19
-68 21 -316 24 -210 3 -273 1 -282 -9z m593 -84 c51 -27 62 -38 89 -90 26 -51
30 -69 30 -139 0 -71 -4 -88 -29 -134 -56 -100 -112 -122 -326 -129 -85 -3
-161 -10 -167 -15 -10 -8 -13 -56 -13 -179 l0 -169 -65 0 -65 0 0 446 0 446
243 -3 243 -4 60 -30z"/>
<path d="M2482 6178 c-8 -8 -12 -57 -12 -153 0 -96 4 -145 12 -153 14 -14 213
-16 272 -2 25 5 55 24 80 49 39 40 41 44 41 106 0 61 -2 66 -40 105 -21 22
-55 45 -75 50 -51 14 -263 13 -278 -2z m292 -71 c55 -37 57 -120 4 -160 -23
-17 -47 -21 -138 -25 l-110 -5 0 108 0 107 108 -3 c83 -3 115 -8 136 -22z"/>
<path d="M3183 6339 c-18 -18 -19 -969 -1 -987 8 -8 48 -12 113 -12 65 0 105
4 113 12 8 8 12 67 12 200 l0 188 35 0 c85 0 131 -42 252 -235 112 -178 95
-166 236 -163 95 2 122 6 130 18 7 12 -13 52 -84 169 -52 84 -113 175 -137
202 l-43 48 35 15 c44 18 106 80 131 131 15 31 20 61 20 130 0 82 -3 95 -31
145 -34 61 -94 113 -152 131 -55 18 -613 25 -629 8z m563 -60 c83 -15 127 -43
158 -99 51 -95 43 -204 -20 -279 -27 -31 -49 -45 -97 -60 -92 -28 -94 -40 -21
-109 41 -39 87 -99 142 -190 45 -73 82 -134 82 -137 0 -3 -33 -5 -72 -5 l-73
0 -67 109 c-99 159 -169 245 -221 270 -49 24 -165 29 -185 9 -8 -8 -12 -67
-12 -200 l0 -188 -65 0 -65 0 0 445 0 445 228 0 c126 0 255 -5 288 -11z"/>
<path d="M3372 6178 c-19 -19 -16 -252 3 -268 11 -9 59 -11 178 -9 180 4 199
10 238 72 15 24 19 44 16 85 -4 59 -30 95 -84 118 -43 18 -333 20 -351 2z
m332 -62 c25 -10 36 -22 41 -46 8 -36 -9 -85 -33 -96 -10 -4 -79 -9 -154 -12
l-138 -4 0 86 0 86 125 0 c85 0 136 -5 159 -14z"/>
<path d="M6063 6339 c-18 -18 -19 -969 -1 -987 8 -8 48 -12 113 -12 65 0 105
4 113 12 8 8 12 62 12 179 l0 166 148 6 c170 6 219 19 284 77 24 21 57 62 73
91 28 50 30 62 30 154 0 89 -3 106 -28 157 -32 64 -80 111 -146 142 -42 19
-68 21 -316 24 -210 3 -273 1 -282 -9z m593 -84 c51 -27 62 -38 89 -90 26 -51
30 -69 30 -139 0 -71 -4 -88 -29 -134 -56 -100 -112 -122 -326 -129 -85 -3
-161 -10 -167 -15 -10 -8 -13 -56 -13 -179 l0 -169 -65 0 -65 0 0 446 0 446
243 -3 243 -4 60 -30z"/>
<path d="M6252 6178 c-8 -8 -12 -57 -12 -153 0 -96 4 -145 12 -153 14 -14 213
-16 272 -2 25 5 55 24 80 49 39 40 41 44 41 106 0 61 -2 66 -40 105 -21 22
-55 45 -75 50 -51 14 -263 13 -278 -2z m292 -71 c55 -37 57 -120 4 -160 -23
-17 -47 -21 -138 -25 l-110 -5 0 108 0 107 108 -3 c83 -3 115 -8 136 -22z"/>
<path d="M6952 6338 c-17 -17 -17 -969 0 -986 17 -17 739 -17 756 0 16 16 16
180 0 196 -9 9 -82 12 -265 12 l-253 0 0 100 0 100 223 0 c160 0 226 3 235 12
16 16 16 180 0 196 -9 9 -75 12 -235 12 l-223 0 0 75 0 75 243 0 c176 0 246 3
255 12 7 7 12 44 12 98 0 54 -5 91 -12 98 -9 9 -104 12 -368 12 -264 0 -359
-3 -368 -12z m688 -98 l0 -50 -243 0 c-176 0 -246 -3 -255 -12 -8 -8 -12 -50
-12 -123 0 -73 4 -115 12 -123 9 -9 75 -12 235 -12 l223 0 0 -50 0 -50 -223 0
c-160 0 -226 -3 -235 -12 -8 -8 -12 -56 -12 -148 0 -92 4 -140 12 -148 9 -9
82 -12 265 -12 l253 0 0 -50 0 -50 -330 0 -330 0 0 445 0 445 320 0 320 0 0
-50z"/>
<path d="M7843 6339 c-18 -18 -19 -969 -1 -987 8 -8 48 -12 113 -12 65 0 105
4 113 12 8 8 12 67 12 200 l0 188 35 0 c85 0 131 -42 252 -235 112 -178 95
-166 236 -163 95 2 122 6 130 18 7 12 -13 52 -84 169 -52 84 -113 175 -137
202 l-43 48 35 15 c44 18 106 80 131 131 15 31 20 61 20 130 0 82 -3 95 -31
145 -34 61 -94 113 -152 131 -55 18 -613 25 -629 8z m563 -60 c83 -15 127 -43
158 -99 51 -95 43 -204 -20 -279 -27 -31 -49 -45 -97 -60 -92 -28 -94 -40 -21
-109 41 -39 87 -99 142 -190 45 -73 82 -134 82 -137 0 -3 -33 -5 -72 -5 l-73
0 -67 109 c-99 159 -169 245 -221 270 -49 24 -165 29 -185 9 -8 -8 -12 -67
-12 -200 l0 -188 -65 0 -65 0 0 445 0 445 228 0 c126 0 255 -5 288 -11z"/>
<path d="M8032 6178 c-19 -19 -16 -252 3 -268 11 -9 59 -11 178 -9 180 4 199
10 238 72 15 24 19 44 16 85 -4 59 -30 95 -84 118 -43 18 -333 20 -351 2z
m332 -62 c25 -10 36 -22 41 -46 8 -36 -9 -85 -33 -96 -10 -4 -79 -9 -154 -12
l-138 -4 0 86 0 86 125 0 c85 0 136 -5 159 -14z"/>
<path d="M9830 6335 c-9 -11 -11 -103 -8 -377 4 -305 7 -371 21 -415 24 -72
92 -144 175 -185 66 -33 69 -33 207 -33 162 0 216 14 293 74 61 48 99 119 112
207 15 103 13 717 -2 732 -17 17 -212 16 -226 -1 -7 -8 -12 -135 -14 -364 -3
-339 -4 -353 -24 -380 -28 -37 -85 -56 -152 -50 -60 6 -93 24 -119 64 -16 24
-18 62 -21 372 -2 227 -7 350 -14 358 -16 19 -211 18 -228 -2z m180 -362 c0
-177 4 -334 10 -353 12 -45 85 -117 130 -130 44 -13 125 -13 170 0 48 13 109
78 121 126 4 22 9 182 9 357 l0 317 65 0 65 0 0 -297 c0 -394 -12 -468 -87
-538 -55 -51 -125 -69 -263 -70 -122 0 -127 1 -193 33 -39 19 -78 47 -93 67
-53 70 -57 102 -62 468 l-4 337 66 0 66 0 0 -317z"/>
<path d="M11950 6335 c-10 -12 8 -104 95 -492 59 -263 112 -484 118 -490 7 -9
46 -13 133 -13 117 0 124 1 138 23 7 12 47 150 87 305 45 175 75 277 79 265 4
-10 40 -142 80 -293 41 -151 78 -281 83 -287 7 -9 45 -13 128 -13 112 0 119 1
132 23 8 12 62 232 122 490 87 378 105 470 95 482 -16 20 -222 22 -237 3 -6
-7 -34 -129 -64 -270 -29 -142 -56 -254 -60 -250 -3 4 -34 120 -68 257 -35
138 -68 256 -73 263 -7 8 -49 12 -143 12 -94 0 -135 -4 -142 -12 -6 -7 -38
-123 -73 -258 -35 -135 -66 -248 -70 -253 -3 -4 -30 107 -60 245 -29 139 -57
259 -63 266 -15 19 -221 17 -237 -3z m205 -117 c8 -40 39 -183 68 -317 54
-253 67 -286 101 -251 8 8 44 132 81 275 37 143 73 284 82 313 l14 52 94 0 93
0 11 -32 c5 -18 42 -161 81 -318 40 -157 78 -292 86 -300 34 -35 47 -3 101
256 29 137 60 282 69 322 l15 72 66 0 c48 0 64 -3 61 -12 -2 -7 -49 -208 -104
-445 l-99 -433 -82 0 c-77 0 -83 1 -88 23 -3 12 -45 168 -94 346 -89 331 -103
365 -134 331 -8 -8 -54 -169 -103 -357 l-89 -343 -87 0 c-74 0 -87 3 -92 18
-3 9 -46 199 -96 422 -50 223 -94 415 -97 428 -5 21 -3 22 60 22 l66 0 16 -72z"/>
<path d="M14343 6339 c-18 -18 -19 -969 -1 -987 8 -8 48 -12 113 -12 65 0 105
4 113 12 8 8 12 67 12 200 l0 188 35 0 c85 0 131 -42 252 -235 112 -178 95
-166 236 -163 95 2 122 6 130 18 7 12 -13 52 -84 169 -52 84 -113 175 -137
202 l-43 48 35 15 c44 18 106 80 131 131 15 31 20 61 20 130 0 82 -3 95 -31
145 -34 61 -94 113 -152 131 -55 18 -613 25 -629 8z m563 -60 c83 -15 127 -43
158 -99 51 -95 43 -204 -20 -279 -27 -31 -49 -45 -97 -60 -92 -28 -94 -40 -21
-109 41 -39 87 -99 142 -190 45 -73 82 -134 82 -137 0 -3 -33 -5 -72 -5 l-73
0 -67 109 c-99 159 -169 245 -221 270 -49 24 -165 29 -185 9 -8 -8 -12 -67
-12 -200 l0 -188 -65 0 -65 0 0 445 0 445 228 0 c126 0 255 -5 288 -11z"/>
<path d="M14532 6178 c-19 -19 -16 -252 3 -268 11 -9 59 -11 178 -9 180 4 199
10 238 72 15 24 19 44 16 85 -4 59 -30 95 -84 118 -43 18 -333 20 -351 2z
m332 -62 c25 -10 36 -22 41 -46 8 -36 -9 -85 -33 -96 -10 -4 -79 -9 -154 -12
l-138 -4 0 86 0 86 125 0 c85 0 136 -5 159 -14z"/>
<path d="M15302 6338 c-17 -17 -17 -969 0 -986 17 -17 689 -17 706 0 16 16 16
180 0 196 -9 9 -76 12 -240 12 l-228 0 0 383 c0 285 -3 386 -12 395 -8 8 -48
12 -113 12 -65 0 -105 -4 -113 -12z m178 -431 c0 -285 3 -386 12 -395 9 -9 76
-12 240 -12 l228 0 0 -50 0 -50 -305 0 -305 0 0 445 0 445 65 0 65 0 0 -383z"/>
<path d="M16113 6339 c-10 -10 -13 -123 -13 -495 0 -408 2 -483 14 -494 11 -8
81 -11 268 -8 284 5 316 11 404 77 111 84 163 202 171 386 8 204 -31 329 -137
435 -97 97 -124 103 -435 108 -201 3 -263 1 -272 -9z m569 -78 c146 -57 227
-228 215 -456 -8 -155 -64 -284 -146 -338 -82 -54 -118 -61 -363 -65 l-228 -4
0 447 0 447 233 -4 c211 -4 237 -6 289 -27z"/>
<path d="M16302 6178 c-17 -17 -17 -649 0 -666 15 -15 247 -16 302 -1 56 16
121 80 143 142 14 41 18 83 18 197 0 126 -3 151 -21 191 -31 66 -84 115 -146
134 -64 19 -278 21 -296 3z m275 -63 c98 -29 128 -93 128 -270 0 -236 -43
-284 -252 -285 l-103 0 0 285 0 285 88 0 c50 0 111 -7 139 -15z"/>
<path d="M17432 6338 c-17 -17 -17 -969 0 -986 8 -8 48 -12 113 -12 65 0 105
4 113 12 17 17 17 969 0 986 -8 8 -48 12 -113 12 -65 0 -105 -4 -113 -12z
m178 -493 l0 -445 -65 0 -65 0 0 445 0 445 65 0 65 0 0 -445z"/>
<path d="M17812 6338 c-17 -17 -17 -969 0 -986 17 -17 202 -16 217 1 7 9 12
101 13 270 l3 257 165 -267 165 -268 109 -3 c71 -2 113 1 122 9 19 16 21 968
2 987 -17 17 -202 16 -217 -1 -7 -9 -12 -103 -13 -275 l-3 -262 -155 252 c-85
138 -163 262 -173 275 -17 21 -25 23 -121 23 -66 0 -106 -4 -114 -12z m380
-358 c103 -168 194 -309 202 -314 10 -7 20 -5 30 3 14 12 16 52 16 317 l0 304
60 0 60 0 0 -445 0 -445 -74 0 -73 0 -188 306 c-104 168 -194 308 -202 311 -7
3 -20 0 -28 -7 -13 -11 -15 -59 -15 -311 l0 -299 -60 0 -60 0 0 445 0 446 72
-3 72 -3 188 -305z"/>
<path d="M19032 6338 c-7 -7 -12 -18 -12 -24 0 -7 77 -134 170 -283 l170 -270
0 -199 c0 -141 3 -201 12 -210 16 -16 210 -16 226 0 9 9 12 69 12 209 l0 197
170 272 c94 149 170 277 170 284 0 29 -25 36 -140 36 -99 0 -119 -3 -132 -17
-8 -10 -54 -88 -102 -173 -49 -85 -89 -156 -90 -157 -1 -1 -42 68 -90 155 -49
86 -96 165 -104 175 -13 14 -33 17 -132 17 -77 0 -120 -4 -128 -12z m320 -230
c57 -99 110 -186 120 -191 12 -8 21 -7 31 1 8 7 61 94 116 192 l102 180 74 0
75 0 -48 -77 c-27 -43 -99 -158 -160 -256 l-112 -178 0 -190 0 -189 -65 0 -65
0 0 190 0 191 -137 217 c-75 119 -147 234 -160 255 l-23 37 74 0 75 0 103
-182z"/>
<path d="M21040 6335 c-9 -11 -11 -103 -8 -377 4 -305 7 -371 21 -415 24 -72
92 -144 175 -185 66 -33 69 -33 207 -33 162 0 216 14 293 74 61 48 99 119 112
207 15 103 13 717 -2 732 -17 17 -212 16 -226 -1 -7 -8 -12 -135 -14 -364 -3
-339 -4 -353 -24 -380 -28 -37 -85 -56 -152 -50 -60 6 -93 24 -119 64 -16 24
-18 62 -21 372 -2 227 -7 350 -14 358 -16 19 -211 18 -228 -2z m180 -362 c0
-177 4 -334 10 -353 12 -45 85 -117 130 -130 44 -13 125 -13 170 0 48 13 109
78 121 126 4 22 9 182 9 357 l0 317 65 0 65 0 0 -297 c0 -394 -12 -468 -87
-538 -55 -51 -125 -69 -263 -70 -122 0 -127 1 -193 33 -39 19 -78 47 -93 67
-53 70 -57 102 -62 468 l-4 337 66 0 66 0 0 -317z"/>
<path d="M22003 6339 c-18 -18 -19 -969 -1 -987 8 -8 48 -12 113 -12 65 0 105
4 113 12 8 8 12 67 12 200 l0 188 35 0 c85 0 131 -42 252 -235 112 -178 95
-166 236 -163 95 2 122 6 130 18 7 12 -13 52 -84 169 -52 84 -113 175 -137
202 l-43 48 35 15 c44 18 106 80 131 131 15 31 20 61 20 130 0 82 -3 95 -31
145 -34 61 -94 113 -152 131 -55 18 -613 25 -629 8z m563 -60 c83 -15 127 -43
158 -99 51 -95 43 -204 -20 -279 -27 -31 -49 -45 -97 -60 -92 -28 -94 -40 -21
-109 41 -39 87 -99 142 -190 45 -73 82 -134 82 -137 0 -3 -33 -5 -72 -5 l-73
0 -67 109 c-99 159 -169 245 -221 270 -49 24 -165 29 -185 9 -8 -8 -12 -67
-12 -200 l0 -188 -65 0 -65 0 0 445 0 445 228 0 c126 0 255 -5 288 -11z"/>
<path d="M22192 6178 c-19 -19 -16 -252 3 -268 11 -9 59 -11 178 -9 180 4 199
10 238 72 15 24 19 44 16 85 -4 59 -30 95 -84 118 -43 18 -333 20 -351 2z
m332 -62 c25 -10 36 -22 41 -46 8 -36 -9 -85 -33 -96 -10 -4 -79 -9 -154 -12
l-138 -4 0 86 0 86 125 0 c85 0 136 -5 159 -14z"/>
<path d="M10360 4805 c-10 -12 8 -104 95 -492 59 -263 112 -484 118 -490 7 -9
46 -13 133 -13 117 0 124 1 138 23 7 12 47 150 87 305 45 175 75 277 79 265 4
-10 40 -142 80 -293 41 -151 78 -281 83 -287 7 -9 45 -13 128 -13 112 0 119 1
132 23 8 12 62 232 122 490 87 378 105 470 95 482 -16 20 -222 22 -237 3 -6
-7 -34 -129 -64 -270 -29 -142 -56 -254 -60 -250 -3 4 -34 120 -68 257 -35
138 -68 256 -73 263 -7 8 -49 12 -143 12 -94 0 -135 -4 -142 -12 -6 -7 -38
-123 -73 -258 -35 -135 -66 -248 -70 -253 -3 -4 -30 107 -60 245 -29 139 -57
259 -63 266 -15 19 -221 17 -237 -3z m205 -117 c8 -40 39 -183 68 -317 54
-253 67 -286 101 -251 8 8 44 132 81 275 37 143 73 284 82 313 l14 52 94 0 93
0 11 -32 c5 -18 42 -161 81 -318 40 -157 78 -292 86 -300 34 -35 47 -3 101
256 29 137 60 282 69 322 l15 72 66 0 c48 0 64 -3 61 -12 -2 -7 -49 -208 -104
-445 l-99 -433 -82 0 c-77 0 -83 1 -88 23 -3 12 -45 168 -94 346 -89 331 -103
365 -134 331 -8 -8 -54 -169 -103 -357 l-89 -343 -87 0 c-74 0 -87 3 -92 18
-3 9 -46 199 -96 422 -50 223 -94 415 -97 428 -5 21 -3 22 60 22 l66 0 16 -72z"/>
<path d="M11902 4807 c-6 -7 -90 -226 -187 -487 -127 -341 -174 -479 -167
-490 14 -23 218 -27 243 -4 10 9 32 59 49 110 l32 94 153 0 153 0 31 -86 c17
-47 31 -89 31 -93 0 -4 8 -15 18 -24 26 -24 223 -25 242 -1 11 13 -14 91 -160
492 -95 262 -178 483 -183 490 -13 17 -240 17 -255 -1z m369 -486 c88 -239
159 -438 159 -443 0 -4 -29 -8 -64 -8 l-63 0 -33 93 c-18 50 -40 100 -48 110
-13 15 -36 17 -197 17 -156 0 -185 -2 -196 -16 -8 -9 -28 -58 -45 -108 l-31
-91 -67 -3 c-55 -2 -67 0 -64 11 2 8 75 209 163 446 l160 431 84 -2 84 -3 158
-434z"/>
<path d="M12003 4578 c-12 -16 -123 -331 -123 -350 0 -32 24 -38 145 -38 123
0 145 6 145 39 0 20 -110 332 -123 349 -5 6 -15 12 -22 12 -7 0 -17 -6 -22
-12z m56 -209 c16 -46 32 -92 36 -101 6 -16 0 -18 -68 -18 l-76 0 36 106 c19
58 37 103 39 101 2 -2 17 -42 33 -88z"/>
<path d="M12572 4808 c-17 -17 -17 -969 0 -986 8 -8 48 -12 113 -12 65 0 105
4 113 12 8 8 12 57 12 155 l0 142 58 62 57 61 126 -213 125 -214 133 -3 c133
-3 161 3 161 33 0 7 -81 140 -181 295 l-181 282 68 72 c38 39 116 119 174 179
137 140 136 141 -57 145 l-141 3 -168 -180 -169 -180 -3 166 c-1 102 -7 172
-13 180 -15 17 -210 18 -227 1z m178 -236 c0 -188 4 -212 36 -212 7 0 97 90
200 200 l188 200 89 0 89 0 -154 -161 c-84 -88 -155 -165 -156 -170 -4 -11 7
-29 201 -331 l146 -228 -87 0 -87 0 -129 221 c-72 122 -136 224 -144 227 -10
3 -46 -27 -104 -86 l-88 -91 0 -135 0 -136 -65 0 -65 0 0 445 0 445 65 0 65 0
0 -188z"/>
<path d="M13532 4808 c-17 -17 -17 -969 0 -986 17 -17 739 -17 756 0 16 16 16
180 0 196 -9 9 -82 12 -265 12 l-253 0 0 100 0 100 223 0 c160 0 226 3 235 12
16 16 16 180 0 196 -9 9 -75 12 -235 12 l-223 0 0 75 0 75 243 0 c176 0 246 3
255 12 7 7 12 44 12 98 0 54 -5 91 -12 98 -17 17 -719 17 -736 0z m688 -98 l0
-50 -243 0 c-176 0 -246 -3 -255 -12 -17 -17 -17 -229 0 -246 9 -9 75 -12 235
-12 l223 0 0 -50 0 -50 -223 0 c-160 0 -226 -3 -235 -12 -8 -8 -12 -56 -12
-148 0 -92 4 -140 12 -148 9 -9 82 -12 265 -12 l253 0 0 -50 0 -50 -330 0
-330 0 0 445 0 445 320 0 320 0 0 -50z"/>
<path d="M14412 4038 c-16 -16 -16 -200 0 -216 16 -16 200 -16 216 0 8 8 12
47 12 108 0 61 -4 100 -12 108 -16 16 -200 16 -216 0z m168 -108 l0 -60 -60 0
-60 0 0 60 0 60 60 0 60 0 0 -60z"/>
<path d="M13284 2074 c-77 -21 -137 -59 -201 -127 -101 -108 -133 -202 -133
-385 0 -164 34 -267 119 -363 90 -102 206 -150 366 -151 163 -1 258 36 361
140 95 97 134 209 134 386 0 164 -41 277 -136 376 -96 101 -200 141 -364 139
-52 0 -118 -7 -146 -15z m329 -74 c163 -62 257 -221 257 -434 0 -286 -161
-457 -431 -457 -261 1 -413 150 -427 418 -5 120 8 204 46 281 53 109 138 178
252 208 80 20 229 12 303 -16z"/>
<path d="M13342 1911 c-99 -34 -174 -132 -187 -242 -4 -30 -8 -65 -9 -79 -6
-48 15 -172 35 -211 28 -56 85 -117 133 -142 59 -31 193 -31 252 0 51 27 110
92 138 152 18 40 21 64 21 186 0 126 -2 145 -23 187 -34 67 -108 133 -173 152
-68 21 -121 20 -187 -3z m197 -67 c80 -34 121 -109 129 -234 12 -215 -69 -334
-228 -335 -88 0 -143 30 -187 104 -37 62 -48 128 -40 240 6 81 21 128 57 174
54 69 173 91 269 51z"/>
<path d="M9507 2062 c-9 -10 -17 -25 -17 -32 0 -7 77 -134 170 -281 l170 -268
0 -198 c0 -142 3 -202 12 -211 16 -16 210 -16 226 0 9 9 12 69 12 211 l0 198
170 268 c94 148 170 278 170 289 0 35 -23 43 -126 41 -54 -1 -108 -5 -120 -9
-13 -5 -57 -70 -115 -169 -51 -89 -97 -161 -100 -161 -4 0 -46 66 -94 148 -48
81 -96 156 -106 168 -17 18 -32 21 -127 23 -95 2 -110 0 -125 -17z m213 -58
c5 -5 53 -83 107 -173 54 -90 106 -169 115 -175 33 -20 39 -13 246 341 10 17
155 25 149 9 -3 -7 -75 -123 -161 -258 l-156 -247 0 -191 0 -190 -65 0 -65 0
0 193 -1 192 -159 249 c-87 138 -157 252 -155 255 5 10 135 5 145 -5z"/>
<path d="M10481 2067 c-16 -16 -15 -979 1 -995 17 -17 739 -17 756 0 7 7 12
44 12 98 0 54 -5 91 -12 98 -9 9 -82 12 -265 12 l-253 0 0 100 0 100 228 0
c164 0 231 3 240 12 16 16 16 180 0 196 -9 9 -76 12 -240 12 l-228 0 0 80 0
80 246 0 c199 0 248 3 260 14 10 10 14 38 14 89 0 64 -3 76 -24 96 -23 22 -24
22 -374 20 -236 -1 -354 -5 -361 -12z m694 -100 c0 -26 -4 -47 -10 -48 -5 0
-115 0 -244 0 -211 1 -235 -1 -247 -17 -18 -23 -19 -233 -2 -250 9 -9 76 -12
240 -12 l228 0 0 -50 0 -50 -228 0 c-164 0 -231 -3 -240 -12 -8 -8 -12 -56
-12 -148 0 -92 4 -140 12 -148 9 -9 82 -12 265 -12 l253 0 0 -50 0 -50 -330 0
-330 0 0 443 c0 244 2 446 4 448 2 2 148 4 323 4 l318 0 0 -48z"/>
<path d="M13948 2061 l-21 -17 113 -470 c62 -258 118 -479 126 -491 14 -22 21
-23 128 -23 79 0 117 4 124 13 6 6 46 147 90 312 45 165 81 297 81 293 4 -43
157 -587 169 -600 13 -15 33 -18 123 -18 102 0 109 1 123 23 7 12 32 99 55
192 22 94 72 300 111 459 38 158 70 294 70 301 0 34 -30 45 -125 45 -80 0 -97
-3 -112 -19 -12 -13 -36 -101 -72 -270 -30 -138 -57 -251 -60 -251 -4 0 -35
115 -70 255 -38 153 -70 260 -80 269 -12 10 -46 15 -127 15 -93 1 -115 -1
-132 -16 -14 -13 -38 -87 -87 -273 -38 -140 -69 -256 -70 -258 -1 -1 -27 114
-59 255 -35 159 -63 264 -73 275 -14 16 -31 19 -110 17 -71 -1 -99 -6 -115
-18z m184 -63 c5 -7 31 -118 58 -246 71 -330 77 -354 93 -370 34 -33 48 -2
114 244 35 132 73 273 84 314 l20 75 86 -2 c47 -1 88 -5 92 -8 3 -4 40 -144
83 -312 112 -445 114 -445 212 3 l71 319 58 -1 c31 -1 59 -3 62 -6 3 -3 -43
-203 -102 -446 l-107 -442 -78 0 c-64 0 -77 3 -82 18 -3 9 -42 156 -86 327
-45 170 -86 319 -91 332 -9 25 -40 31 -58 10 -6 -7 -50 -164 -99 -348 l-89
-334 -79 -3 -80 -3 -103 433 c-57 238 -106 438 -108 445 -3 6 4 13 14 16 34 8
108 -1 115 -15z"/>
<path d="M11372 2058 c-17 -17 -17 -969 0 -986 17 -17 689 -17 706 0 16 16 16
180 0 196 -9 9 -76 12 -240 12 l-228 0 0 383 c0 285 -3 386 -12 395 -8 8 -48
12 -113 12 -65 0 -105 -4 -113 -12z m178 -425 c0 -336 2 -378 17 -395 15 -16
36 -18 240 -18 l223 0 0 -50 0 -50 -305 0 -305 0 0 445 0 445 65 0 65 0 0
-377z"/>
<path d="M12192 2058 c-17 -17 -17 -969 0 -986 17 -17 689 -17 706 0 16 16 16
180 0 196 -9 9 -76 12 -240 12 l-228 0 0 383 c0 285 -3 386 -12 395 -8 8 -48
12 -113 12 -65 0 -105 -4 -113 -12z m178 -431 c0 -285 3 -386 12 -395 9 -9 76
-12 240 -12 l228 0 0 -50 0 -50 -305 0 -305 0 0 445 0 445 65 0 65 0 0 -383z"/>
</g>
</svg>
