<?xml version="1.0" standalone="no"?>
<!DOCTYPE svg PUBLIC "-//W3C//DTD SVG 20010904//EN"
 "http://www.w3.org/TR/2001/REC-SVG-20010904/DTD/svg10.dtd">
<svg version="1.0" xmlns="http://www.w3.org/2000/svg"
 width="2550.000000pt" height="3300.000000pt" viewBox="0 0 2550.000000 3300.000000"
 preserveAspectRatio="xMidYMid meet">
<metadata>
Created by potrace 1.14, written by Peter Selinger 2001-2017
</metadata>
<g transform="translate(0.000000,3300.000000) scale(0.100000,-0.100000)"
fill="#000000" stroke="none">
<path d="M11870 30745 c-19 -7 -51 -14 -71 -14 -20 -1 -56 -8 -79 -16 -31 -11
-86 -15 -201 -15 -90 0 -170 -5 -186 -11 -28 -11 -104 -22 -265 -39 -48 -5
-96 -13 -107 -19 -11 -6 -55 -11 -99 -11 -59 0 -97 -7 -153 -26 -41 -14 -99
-30 -129 -34 -75 -12 -138 -26 -325 -71 -88 -22 -178 -39 -200 -39 -22 -1 -58
-7 -80 -15 -22 -8 -53 -15 -69 -15 -16 0 -54 -7 -85 -16 -86 -24 -342 -101
-481 -145 -69 -21 -131 -39 -138 -39 -16 0 -130 -38 -157 -53 -11 -6 -67 -27
-125 -48 -157 -55 -234 -86 -292 -115 -28 -14 -113 -48 -187 -74 -221 -78
-259 -93 -406 -167 -77 -39 -151 -74 -165 -77 -21 -7 -120 -49 -235 -102 -16
-8 -64 -34 -105 -59 -41 -25 -91 -52 -110 -61 -103 -47 -136 -66 -280 -157
-30 -19 -80 -47 -110 -62 -30 -15 -73 -40 -95 -55 -22 -15 -68 -41 -101 -58
-34 -17 -116 -68 -183 -113 -67 -44 -145 -90 -173 -101 -64 -24 -126 -66 -204
-137 -72 -66 -128 -106 -193 -141 -63 -33 -130 -82 -205 -151 -34 -30 -77 -66
-96 -79 -19 -13 -59 -45 -88 -72 -30 -26 -58 -48 -63 -48 -5 0 -36 -25 -69
-55 -33 -30 -64 -55 -69 -55 -5 0 -46 -34 -91 -75 -45 -41 -86 -75 -91 -75 -6
0 -68 -55 -138 -122 -71 -68 -156 -143 -191 -168 -93 -67 -579 -560 -641 -650
-13 -19 -79 -92 -146 -162 -68 -69 -123 -131 -123 -137 0 -7 -38 -52 -85 -102
-47 -49 -85 -94 -85 -99 0 -6 -24 -37 -52 -69 -51 -57 -74 -86 -145 -189 -18
-25 -61 -75 -96 -111 -54 -56 -134 -169 -290 -413 -15 -24 -45 -68 -67 -98
-22 -30 -50 -73 -61 -95 -12 -22 -51 -85 -86 -140 -172 -265 -205 -320 -247
-403 -24 -48 -66 -120 -92 -158 -26 -38 -63 -103 -81 -144 -19 -41 -41 -86
-48 -100 -8 -14 -43 -82 -79 -151 -36 -70 -82 -154 -103 -186 -56 -87 -145
-286 -165 -368 -6 -22 -32 -87 -59 -145 -27 -58 -62 -143 -78 -190 -30 -88
-60 -165 -92 -237 -28 -63 -89 -251 -89 -272 0 -11 -13 -48 -30 -83 -16 -34
-30 -68 -30 -75 0 -6 -18 -49 -40 -94 -24 -49 -40 -98 -40 -118 0 -20 -18 -87
-40 -150 -21 -63 -42 -135 -46 -160 -3 -25 -16 -82 -29 -126 -47 -160 -55
-192 -55 -223 0 -17 -5 -43 -11 -59 -6 -15 -15 -53 -20 -83 -4 -30 -15 -84
-24 -120 -9 -36 -21 -87 -27 -115 -6 -27 -19 -86 -30 -130 -11 -44 -23 -105
-28 -135 -4 -30 -13 -68 -19 -83 -6 -16 -11 -64 -11 -108 0 -48 -6 -94 -15
-116 -9 -21 -15 -67 -15 -113 0 -43 -7 -96 -15 -120 -8 -23 -15 -69 -15 -101
0 -32 -5 -70 -11 -86 -12 -28 -22 -140 -37 -403 -5 -80 -14 -158 -20 -173 -7
-16 -12 -74 -12 -130 -1 -63 -6 -117 -15 -142 -19 -52 -19 -102 0 -155 22 -62
22 -578 0 -640 -19 -53 -19 -103 0 -155 9 -26 14 -82 15 -163 0 -75 5 -132 12
-145 6 -12 15 -87 20 -167 12 -218 24 -342 37 -373 6 -16 11 -56 11 -90 1 -34
7 -80 15 -102 9 -24 15 -77 15 -131 0 -58 5 -105 15 -127 8 -20 15 -65 15
-101 0 -36 5 -77 11 -93 6 -15 15 -53 20 -83 18 -120 68 -343 95 -429 8 -25
14 -59 14 -77 0 -17 7 -48 15 -67 8 -20 15 -51 15 -68 0 -32 7 -62 55 -224 13
-44 26 -100 29 -124 4 -25 31 -119 61 -209 30 -91 55 -174 55 -184 0 -11 8
-33 17 -51 29 -56 68 -165 139 -392 26 -82 61 -179 79 -215 18 -36 45 -103 60
-150 15 -47 42 -114 60 -150 18 -36 35 -83 39 -105 7 -37 108 -266 176 -395
129 -249 280 -553 280 -565 0 -8 15 -32 34 -52 18 -21 50 -71 70 -111 20 -40
71 -123 112 -184 42 -61 85 -131 95 -156 11 -24 50 -90 88 -146 38 -56 78
-121 90 -144 12 -24 44 -67 71 -97 27 -30 66 -86 85 -125 43 -86 124 -206 160
-240 15 -14 38 -46 51 -72 13 -25 51 -74 84 -108 33 -34 78 -87 100 -118 96
-136 125 -171 205 -253 47 -47 85 -91 85 -98 0 -6 38 -51 85 -100 47 -50 85
-95 85 -102 0 -6 104 -118 230 -248 127 -130 241 -246 253 -259 12 -13 55 -53
95 -89 40 -37 92 -93 114 -125 23 -32 63 -73 92 -92 28 -19 60 -44 71 -56 11
-12 40 -36 65 -53 25 -17 82 -66 127 -109 46 -43 87 -78 93 -78 6 0 44 -31 85
-70 41 -39 79 -70 84 -70 6 0 41 -28 78 -63 38 -34 95 -80 128 -101 33 -22 96
-74 140 -117 91 -88 178 -150 282 -202 40 -20 98 -60 131 -89 32 -29 87 -69
121 -88 34 -19 79 -47 99 -62 85 -63 184 -129 224 -149 24 -12 57 -32 73 -44
17 -13 84 -50 150 -83 121 -60 209 -114 255 -157 14 -12 48 -30 75 -39 28 -9
71 -31 96 -48 25 -18 88 -53 140 -77 101 -46 117 -54 224 -113 39 -20 77 -38
87 -38 9 0 92 -38 185 -84 110 -54 223 -101 326 -135 87 -28 198 -71 248 -96
49 -25 129 -59 177 -74 48 -16 141 -52 208 -79 117 -49 142 -57 269 -88 33 -9
83 -22 111 -30 28 -8 58 -14 68 -14 9 0 47 -16 85 -35 71 -35 155 -60 251 -75
30 -4 68 -13 83 -19 16 -6 43 -11 61 -11 19 0 53 -7 76 -15 23 -8 59 -15 79
-15 20 0 56 -10 81 -22 60 -27 139 -48 225 -58 39 -5 83 -13 98 -19 16 -6 43
-11 61 -11 19 0 53 -7 76 -15 23 -8 64 -15 90 -15 26 0 64 -7 83 -15 20 -8 52
-15 70 -15 19 0 54 -7 77 -15 23 -8 65 -15 92 -15 27 0 58 -5 69 -11 27 -14
181 -30 379 -38 91 -4 178 -13 193 -19 16 -7 43 -12 61 -12 18 0 54 -7 80 -16
34 -12 62 -14 99 -9 60 8 55 8 252 -3 83 -5 162 -13 177 -20 22 -9 36 -8 69 3
34 12 125 15 514 15 394 0 480 2 515 15 30 11 84 15 184 15 96 0 157 5 190 15
34 10 94 15 190 15 124 0 149 3 211 25 39 13 91 25 116 25 26 0 66 7 89 15 23
8 75 15 115 15 40 0 92 7 115 15 26 9 79 15 137 15 80 0 101 4 143 25 48 25
94 35 250 55 41 5 86 14 100 19 14 5 41 12 60 15 19 4 59 17 88 31 30 14 68
25 85 25 35 0 77 11 317 85 96 30 204 61 240 70 112 27 634 208 795 275 55 23
133 53 173 66 40 13 104 40 142 59 38 19 75 35 82 35 13 0 190 78 248 110 152
82 267 137 338 161 48 16 100 42 125 62 23 19 98 63 167 97 69 34 139 72 155
85 17 12 62 38 101 58 39 20 102 57 140 83 38 26 103 66 145 88 152 82 747
475 771 509 10 14 48 45 85 70 38 25 82 60 98 77 17 18 43 39 59 47 16 8 50
34 75 57 25 24 66 56 91 73 25 17 54 41 65 53 11 12 40 35 65 52 57 39 136
109 315 281 79 75 148 137 154 137 6 0 40 27 76 59 36 33 74 63 85 66 10 3 29
23 41 43 12 20 109 125 216 233 106 108 193 202 193 208 0 7 69 84 153 172
273 284 326 345 348 395 11 27 46 76 77 110 54 58 71 80 149 192 18 25 52 66
77 91 25 25 63 71 85 101 80 111 181 261 200 297 23 46 86 140 111 168 35 38
88 125 100 162 7 21 41 83 77 138 91 141 126 198 174 290 23 44 52 93 64 110
13 16 91 165 174 330 83 165 159 316 170 335 31 57 71 149 71 164 0 7 23 60
51 117 28 57 66 149 85 203 18 55 45 116 60 137 14 21 30 57 35 81 5 24 19 55
30 70 11 16 24 51 29 79 5 27 21 78 36 112 14 34 40 105 59 157 18 52 42 115
54 140 11 25 21 60 21 79 0 19 38 149 85 289 51 151 85 270 85 294 0 23 14 83
30 135 17 51 30 105 30 120 0 15 11 63 24 107 14 45 30 106 36 136 24 120 28
136 39 163 6 16 11 57 11 91 0 35 7 83 15 106 8 23 15 75 15 116 0 40 5 85 11
101 6 15 15 64 19 108 5 44 13 124 19 177 5 54 15 106 20 117 6 11 11 49 11
84 0 36 7 84 15 107 10 27 15 79 15 145 0 66 5 118 15 145 11 31 15 87 15 215
0 128 4 184 15 215 22 63 22 977 0 1040 -11 31 -15 87 -15 215 0 128 -4 184
-15 215 -10 27 -15 79 -15 145 0 66 -5 118 -15 145 -8 23 -15 75 -15 116 0 40
-5 85 -11 101 -11 29 -23 111 -38 263 -5 47 -14 98 -20 113 -6 16 -11 61 -11
101 0 41 -7 93 -15 116 -8 23 -15 69 -15 102 0 33 -6 81 -14 107 -32 102 -46
159 -46 188 0 17 -7 50 -16 74 -23 64 -85 306 -93 364 -4 28 -13 70 -20 95 -7
25 -19 70 -28 100 -8 30 -25 73 -37 95 -13 22 -31 74 -41 115 -10 41 -37 136
-60 210 -24 74 -46 149 -49 167 -5 31 -75 214 -115 303 -11 25 -21 56 -21 70
0 14 -20 68 -45 120 -25 52 -45 102 -45 111 0 8 -14 37 -31 65 -36 55 -74 143
-124 284 -31 88 -281 597 -323 658 -10 15 -26 48 -36 74 -9 26 -28 63 -42 83
-13 20 -34 55 -46 78 -11 23 -31 56 -43 72 -13 17 -46 76 -74 133 -28 56 -66
119 -85 140 -37 41 -60 82 -70 126 -4 16 -18 43 -30 60 -13 17 -35 54 -49 81
-14 28 -39 64 -57 80 -30 29 -104 133 -130 185 -14 27 -142 219 -193 288 -18
24 -57 72 -88 105 -60 67 -108 134 -150 211 -31 56 -126 167 -306 356 -68 71
-123 134 -123 140 0 6 -59 71 -130 145 -72 73 -130 139 -130 145 0 18 -418
438 -455 457 -16 9 -94 78 -172 154 -78 77 -146 139 -152 139 -6 0 -52 38
-103 85 -147 134 -201 180 -238 206 -19 13 -56 43 -81 65 -25 23 -63 53 -85
66 -22 14 -46 33 -53 42 -8 10 -28 24 -45 33 -17 9 -65 48 -106 88 -41 39 -91
81 -111 93 -19 12 -44 31 -55 43 -10 12 -39 31 -64 44 -25 13 -102 61 -172
108 -69 47 -144 95 -165 106 -21 10 -88 53 -148 93 -61 41 -125 80 -143 86
-19 6 -49 25 -68 42 -19 16 -54 40 -77 51 -23 12 -60 34 -82 49 -22 15 -83 49
-135 75 -52 26 -108 58 -125 70 -16 13 -180 99 -363 191 -184 93 -348 177
-366 186 -18 10 -66 27 -108 37 -41 11 -129 46 -195 79 -66 33 -137 63 -159
67 -21 4 -77 24 -124 45 -176 78 -314 130 -346 130 -19 0 -130 37 -165 55 -32
17 -289 103 -344 115 -150 34 -240 61 -303 94 -17 9 -45 16 -63 16 -18 0 -55
6 -83 14 -51 15 -100 27 -256 67 -47 12 -114 25 -150 29 -76 9 -132 22 -255
61 -64 21 -111 29 -162 29 -39 0 -84 5 -100 11 -15 7 -73 15 -128 19 -55 4
-135 17 -179 29 -43 11 -104 21 -135 21 -31 1 -74 7 -96 15 -23 9 -78 15 -130
15 -52 1 -107 7 -130 15 -29 11 -88 15 -216 15 -131 0 -187 4 -219 15 -62 22
-1206 22 -1269 0 -36 -12 -47 -12 -88 0 -58 18 -97 18 -143 0z m1346 -120 c34
-10 95 -15 197 -15 111 0 157 -4 185 -16 31 -12 44 -13 79 -3 31 8 50 8 74 0
18 -6 47 -11 66 -11 19 0 44 -5 56 -12 12 -7 60 -15 107 -19 213 -19 299 -29
326 -40 28 -10 134 -22 329 -37 51 -4 127 -19 175 -34 154 -48 196 -58 243
-58 25 0 58 -5 74 -11 15 -6 46 -14 68 -19 62 -14 152 -36 239 -59 44 -12 93
-21 110 -21 17 0 54 -11 81 -23 62 -29 155 -59 260 -83 44 -10 150 -43 235
-72 186 -65 303 -104 390 -131 81 -25 174 -62 266 -106 40 -18 89 -37 110 -41
21 -4 97 -36 169 -70 72 -35 147 -67 166 -70 50 -9 138 -42 168 -63 14 -10
172 -92 351 -181 179 -89 339 -172 355 -185 17 -12 80 -48 140 -79 127 -66
214 -118 271 -162 21 -17 53 -36 71 -42 18 -6 83 -45 144 -87 62 -42 130 -86
152 -97 22 -11 92 -55 156 -98 64 -42 130 -85 148 -94 17 -8 44 -31 60 -50 15
-19 51 -44 78 -56 29 -13 81 -51 126 -93 42 -40 104 -92 139 -117 34 -25 83
-63 109 -86 25 -22 62 -51 81 -64 19 -13 65 -52 103 -87 37 -35 72 -63 78 -63
5 0 50 -38 100 -85 49 -47 94 -85 100 -85 6 0 75 -63 154 -140 78 -77 148
-140 155 -140 18 0 346 -326 383 -380 16 -25 83 -100 149 -167 65 -66 118
-126 118 -133 0 -6 38 -53 85 -103 220 -238 311 -348 399 -482 22 -33 65 -87
97 -120 31 -34 70 -88 87 -120 16 -33 45 -73 62 -90 33 -31 99 -124 127 -179
22 -43 163 -255 174 -262 19 -11 92 -130 110 -180 11 -29 37 -74 58 -101 21
-26 60 -91 86 -143 26 -52 57 -108 70 -125 12 -16 31 -48 43 -70 11 -22 36
-64 56 -93 19 -29 40 -71 46 -91 5 -21 18 -49 29 -62 35 -46 302 -591 331
-677 38 -114 78 -210 101 -242 10 -14 35 -63 55 -110 20 -47 47 -110 60 -140
13 -30 24 -65 24 -78 0 -12 11 -45 25 -72 14 -27 25 -55 25 -62 0 -7 13 -40
28 -73 15 -33 36 -89 46 -125 9 -36 33 -114 53 -175 34 -103 51 -167 74 -275
5 -25 19 -58 30 -74 12 -16 24 -53 28 -85 4 -31 17 -75 29 -98 12 -22 24 -61
27 -85 9 -63 63 -281 91 -368 14 -43 24 -98 24 -131 0 -31 7 -76 15 -99 8 -23
15 -56 15 -73 0 -17 7 -55 16 -86 29 -101 33 -125 38 -211 3 -47 9 -98 15
-113 6 -16 11 -54 11 -86 0 -32 7 -78 15 -101 8 -23 15 -65 15 -92 0 -27 7
-65 15 -85 9 -21 15 -67 15 -113 0 -43 7 -96 15 -120 10 -27 15 -80 15 -146 0
-58 5 -115 12 -131 7 -17 15 -107 19 -223 3 -107 11 -215 17 -240 15 -61 15
-799 0 -860 -6 -25 -13 -135 -17 -245 -4 -131 -10 -208 -19 -222 -7 -13 -12
-61 -12 -126 0 -67 -5 -120 -15 -147 -8 -23 -15 -71 -15 -105 0 -34 -7 -82
-15 -105 -8 -23 -15 -68 -15 -99 0 -31 -7 -78 -15 -105 -8 -27 -15 -76 -15
-108 0 -33 -4 -68 -10 -78 -5 -10 -14 -67 -20 -127 -25 -261 -28 -278 -54
-333 -14 -30 -26 -65 -26 -77 0 -12 -5 -34 -11 -50 -7 -15 -15 -59 -20 -98
-10 -92 -25 -163 -55 -261 -13 -44 -24 -98 -24 -121 0 -51 -34 -159 -62 -197
-11 -16 -23 -50 -26 -75 -2 -25 -29 -119 -58 -209 -30 -89 -54 -169 -54 -177
0 -18 -67 -221 -85 -254 -18 -36 -51 -137 -59 -182 -4 -21 -15 -48 -26 -62
-11 -14 -24 -45 -29 -69 -4 -24 -22 -65 -39 -92 -17 -27 -43 -85 -58 -130 -15
-45 -51 -130 -81 -190 -29 -60 -53 -115 -53 -123 0 -7 -11 -35 -24 -61 -13
-26 -26 -60 -30 -76 -4 -16 -18 -43 -30 -60 -13 -17 -90 -164 -171 -326 -81
-162 -160 -313 -175 -335 -15 -22 -44 -71 -64 -110 -51 -96 -98 -176 -160
-270 -65 -97 -96 -151 -134 -230 -16 -33 -36 -66 -44 -73 -17 -14 -92 -128
-149 -226 -19 -32 -58 -85 -87 -118 -28 -32 -64 -82 -78 -110 -14 -28 -53 -81
-87 -118 -34 -37 -75 -87 -92 -110 -76 -107 -106 -146 -148 -189 -25 -25 -50
-62 -56 -81 -7 -23 -46 -70 -112 -135 -55 -55 -118 -125 -139 -155 -21 -30
-80 -95 -130 -145 -50 -49 -109 -115 -130 -145 -44 -64 -510 -530 -529 -530
-7 0 -79 -65 -161 -145 -81 -80 -153 -145 -159 -145 -6 0 -41 -28 -78 -63 -38
-35 -81 -71 -96 -81 -15 -9 -54 -39 -85 -66 -106 -91 -137 -117 -192 -157 -30
-22 -62 -48 -70 -58 -8 -10 -58 -46 -111 -81 -53 -35 -102 -70 -109 -79 -8 -9
-27 -23 -43 -32 -17 -8 -51 -35 -77 -59 -26 -24 -64 -51 -85 -60 -22 -9 -60
-34 -85 -56 -25 -22 -65 -51 -90 -65 -25 -15 -101 -63 -170 -108 -69 -46 -152
-96 -186 -113 -34 -17 -97 -55 -141 -85 -43 -30 -108 -69 -144 -87 -35 -18
-77 -42 -94 -54 -16 -11 -104 -60 -195 -107 -238 -124 -250 -130 -410 -208
-80 -38 -156 -77 -170 -85 -34 -20 -219 -102 -250 -111 -14 -4 -52 -21 -85
-38 -33 -16 -100 -43 -148 -59 -49 -15 -99 -34 -110 -40 -68 -36 -744 -273
-867 -303 -36 -9 -141 -41 -235 -71 -93 -30 -177 -55 -185 -54 -8 0 -33 -7
-55 -15 -22 -8 -56 -14 -75 -15 -19 0 -55 -10 -80 -21 -60 -28 -183 -59 -234
-59 -23 -1 -59 -7 -81 -15 -22 -8 -54 -15 -71 -15 -17 0 -51 -7 -74 -15 -23
-8 -57 -15 -75 -15 -18 0 -52 -7 -75 -15 -23 -8 -65 -15 -92 -15 -27 0 -59 -5
-71 -12 -12 -6 -67 -15 -122 -19 -159 -12 -245 -27 -324 -54 -67 -22 -90 -25
-223 -25 -110 0 -158 -4 -185 -15 -26 -11 -74 -15 -183 -15 -106 0 -160 -4
-190 -15 -62 -22 -1227 -22 -1292 -1 -29 10 -86 14 -173 14 -96 0 -141 4 -174
16 -28 10 -75 16 -132 16 -48 0 -100 5 -116 12 -15 6 -91 15 -168 19 -77 4
-169 12 -205 18 -140 25 -177 32 -240 46 -36 9 -81 15 -101 15 -20 0 -56 7
-79 15 -23 8 -57 15 -75 15 -18 0 -52 7 -75 15 -23 8 -65 15 -92 15 -29 0 -65
8 -88 20 -43 22 -134 47 -221 61 -31 4 -68 13 -83 19 -15 5 -42 10 -61 10 -19
0 -46 5 -62 11 -15 6 -53 15 -83 19 -89 12 -150 30 -230 67 -41 20 -102 42
-135 50 -264 61 -353 89 -524 165 -24 10 -77 30 -118 43 -41 14 -127 49 -191
79 -64 30 -182 75 -262 102 -81 26 -214 81 -300 123 -85 42 -178 84 -205 93
-28 10 -79 36 -113 58 -35 22 -68 40 -76 40 -20 0 -185 84 -244 124 -29 19
-71 40 -93 46 -22 6 -54 24 -72 40 -58 51 -138 100 -277 171 -161 83 -190 101
-412 252 -26 18 -80 52 -120 77 -40 24 -93 63 -118 86 -25 22 -69 54 -98 69
-29 16 -69 43 -90 60 -20 18 -46 35 -58 39 -12 3 -42 25 -67 49 -95 86 -144
126 -232 185 -49 33 -106 77 -125 97 -19 20 -60 54 -90 75 -30 21 -71 55 -90
75 -19 20 -53 49 -75 63 -22 14 -74 57 -117 96 -115 105 -168 149 -220 184
-26 18 -50 42 -54 55 -3 12 -158 176 -343 364 -364 371 -446 459 -508 543 -23
30 -67 80 -98 110 -31 30 -75 80 -96 110 -22 30 -62 84 -89 120 -27 36 -67 90
-89 120 -21 30 -48 64 -60 75 -12 10 -43 51 -69 90 -25 38 -68 95 -94 125 -26
30 -68 93 -92 140 -25 47 -61 101 -81 120 -20 19 -48 56 -61 82 -13 26 -62
104 -109 174 -47 69 -85 133 -85 141 0 9 -38 72 -84 142 -46 69 -103 164 -126
211 -23 47 -52 99 -65 115 -13 17 -77 140 -144 273 -67 134 -135 261 -151 283
-16 22 -37 64 -46 92 -9 29 -45 108 -79 177 -34 69 -65 143 -68 164 -3 22 -23
73 -43 115 -19 42 -45 105 -56 141 -11 36 -35 94 -53 130 -18 36 -56 139 -84
230 -63 200 -65 206 -103 300 -34 84 -35 88 -112 330 -31 97 -56 187 -56 201
0 15 -11 62 -25 105 -14 43 -30 97 -35 119 -20 88 -32 143 -45 210 -14 69 -42
191 -71 310 -8 33 -19 85 -23 115 -5 30 -14 68 -20 83 -6 16 -11 43 -11 61 0
19 -7 53 -15 76 -9 25 -15 78 -15 131 0 48 -5 100 -11 116 -7 15 -16 66 -20
113 -4 47 -15 132 -24 190 -9 58 -19 150 -24 205 -5 55 -13 113 -20 128 -6 16
-11 80 -11 142 0 77 -5 129 -16 160 -23 69 -23 1351 0 1420 11 31 16 83 16
160 0 62 5 126 11 142 7 15 15 78 20 138 11 165 28 305 39 325 6 10 10 54 10
97 1 43 7 96 15 118 8 22 15 74 15 116 0 42 7 96 15 119 8 23 15 56 15 73 0
17 7 55 16 86 9 31 22 78 30 105 8 26 14 59 14 72 0 13 11 67 24 121 29 120
45 193 55 258 10 61 26 122 63 243 15 51 28 105 28 120 0 15 25 101 55 191 30
90 55 171 55 180 0 10 21 67 46 127 26 60 54 138 64 174 28 101 74 234 128
365 27 66 57 145 67 175 10 30 47 113 82 184 34 71 63 136 63 146 0 56 92 274
145 345 13 16 53 89 90 160 36 72 75 146 85 165 11 19 32 65 48 101 16 36 55
103 87 149 31 46 78 127 105 180 27 53 68 125 92 161 24 35 69 107 101 159
104 168 120 194 176 278 93 137 110 163 183 277 39 61 93 134 119 163 27 30
49 58 49 63 0 5 24 36 53 68 50 56 72 86 144 188 17 25 47 62 65 82 19 20 47
54 63 76 32 46 108 130 282 314 68 71 123 135 123 141 0 6 58 71 130 145 72
74 130 139 130 146 0 18 130 147 177 174 23 14 53 41 65 59 24 34 83 85 153
132 22 15 95 79 162 143 150 142 227 210 273 242 19 13 61 48 93 77 32 28 62
52 68 52 5 0 36 24 68 53 56 49 85 71 187 143 24 17 70 56 103 87 33 32 68 57
78 57 24 0 110 63 208 152 41 36 88 69 104 73 17 3 40 14 53 24 13 10 41 27
63 39 22 11 98 59 168 106 70 47 156 100 190 117 34 17 76 41 92 54 17 12 66
41 110 64 75 39 126 69 234 137 24 15 67 37 95 48 28 12 96 48 151 81 55 33
123 69 150 81 28 12 79 33 115 48 36 15 144 66 240 112 96 46 181 84 188 84 7
0 31 10 54 21 23 12 100 40 172 64 72 23 154 53 181 67 131 66 435 177 710
258 77 23 203 62 280 86 78 24 149 44 159 44 9 0 26 5 37 10 18 10 58 17 219
40 36 5 101 18 145 30 44 12 101 25 127 30 26 5 56 13 67 19 11 6 35 11 54 11
19 0 54 7 77 15 23 8 57 15 76 15 18 0 45 5 60 10 29 11 104 25 220 40 40 5
84 14 99 20 14 5 54 10 88 10 34 1 80 7 102 15 22 8 61 15 86 15 25 0 60 5 78
11 22 8 44 8 72 1 31 -8 51 -7 81 4 23 8 78 14 128 14 55 0 104 6 131 16 33
12 80 16 189 15 102 0 157 4 185 14 60 21 980 22 1051 0z"/>
<path d="M14753 28688 c-11 -13 -30 -42 -42 -66 -23 -44 -121 -334 -121 -356
0 -17 -98 -314 -115 -345 -17 -34 -55 -146 -55 -163 0 -7 -44 -150 -99 -318
-55 -168 -107 -334 -117 -370 -10 -36 -31 -99 -47 -140 -55 -141 -77 -205 -77
-220 0 -13 -141 -455 -232 -725 -50 -151 -103 -310 -175 -530 -38 -115 -77
-230 -86 -255 -9 -25 -23 -74 -32 -110 -9 -36 -29 -105 -46 -155 -71 -207
-110 -327 -145 -442 -21 -66 -45 -132 -55 -145 l-18 -23 -2302 -3 -2303 -2
-23 -22 c-23 -21 -29 -51 -17 -83 4 -9 43 -41 88 -71 81 -55 143 -100 203
-149 18 -15 73 -53 122 -85 49 -33 92 -64 96 -70 3 -5 30 -26 58 -45 29 -20
95 -67 147 -105 52 -38 138 -99 190 -135 95 -66 158 -112 216 -160 18 -14 60
-44 95 -67 35 -23 79 -55 97 -72 31 -29 71 -58 337 -246 55 -39 129 -93 165
-120 36 -27 102 -75 147 -105 45 -31 85 -60 88 -65 4 -6 45 -36 93 -67 48 -32
103 -71 124 -88 20 -16 55 -43 78 -60 23 -16 68 -49 99 -72 57 -43 153 -112
330 -238 169 -120 182 -129 219 -160 21 -17 69 -52 107 -77 39 -26 94 -67 124
-93 30 -25 75 -57 100 -70 25 -12 57 -35 71 -50 14 -15 70 -58 125 -96 55 -38
124 -87 153 -109 55 -43 62 -62 43 -124 -5 -17 -18 -60 -27 -96 -10 -36 -26
-82 -36 -103 -21 -41 -118 -331 -118 -351 0 -17 -96 -306 -118 -357 -19 -43
-36 -102 -52 -184 -5 -22 -21 -71 -35 -110 -35 -90 -124 -358 -169 -505 -19
-63 -45 -144 -59 -180 -38 -100 -45 -120 -62 -190 -9 -36 -23 -85 -32 -110
-99 -281 -146 -423 -153 -461 -5 -26 -21 -64 -35 -84 -16 -24 -25 -52 -25 -76
0 -21 -14 -75 -31 -121 -41 -110 -62 -173 -164 -498 -104 -328 -159 -496 -214
-649 -49 -134 -55 -211 -20 -255 39 -50 79 -37 230 77 31 23 76 56 99 72 23
17 58 44 78 60 21 17 64 48 97 70 33 21 80 55 105 75 25 20 78 58 117 84 40
26 75 52 78 57 4 5 30 25 58 44 29 20 102 71 162 115 61 44 146 104 190 134
44 30 91 66 105 81 14 15 69 56 122 92 54 35 100 68 103 73 3 5 45 35 93 66
48 32 103 70 122 86 71 59 138 107 180 128 24 12 64 41 89 64 25 24 84 68 131
99 47 30 96 67 110 82 14 15 62 51 108 81 45 30 97 67 115 83 17 15 64 49 102
75 39 26 99 69 135 96 36 27 110 82 165 120 55 39 139 99 186 133 48 34 106
76 129 92 23 17 58 44 78 61 21 17 76 56 124 88 48 31 90 61 93 66 3 4 49 38
103 73 53 36 110 79 126 96 38 39 57 39 103 -2 21 -18 56 -45 78 -60 22 -15
83 -59 135 -97 52 -38 138 -98 190 -134 52 -35 106 -76 120 -91 14 -15 63 -52
110 -83 47 -31 105 -75 130 -98 25 -23 65 -52 90 -64 25 -12 56 -32 70 -45 14
-12 66 -50 116 -83 50 -34 97 -68 104 -77 7 -9 27 -23 43 -32 17 -8 51 -34 76
-58 25 -23 66 -52 89 -64 24 -13 63 -40 86 -61 23 -21 100 -78 171 -125 71
-48 143 -98 160 -111 46 -38 115 -90 170 -129 28 -19 93 -67 145 -105 52 -38
138 -98 190 -134 52 -35 106 -76 120 -91 14 -15 69 -56 122 -92 54 -35 100
-68 103 -73 3 -5 43 -34 88 -65 79 -54 191 -133 270 -192 21 -15 59 -42 84
-60 25 -17 62 -47 82 -66 20 -18 59 -47 86 -62 28 -16 75 -49 105 -75 30 -26
102 -78 160 -115 58 -38 122 -84 143 -102 43 -38 74 -41 111 -12 34 27 35 76
0 166 -35 90 -94 269 -199 603 -95 303 -110 347 -196 594 -32 93 -59 184 -59
203 0 19 -8 50 -19 71 -21 42 -151 427 -151 449 0 18 -38 129 -55 164 -17 32
-115 328 -115 346 0 7 -45 148 -100 313 -55 166 -100 311 -100 321 0 11 -9 37
-19 57 -22 42 -121 335 -121 357 0 19 -96 308 -114 343 -19 37 -56 147 -56
167 0 8 -18 70 -41 136 -45 133 -45 159 -1 186 15 9 42 29 59 45 18 15 71 52
117 83 47 31 88 60 91 65 3 5 49 38 103 73 53 36 106 75 117 87 11 12 58 49
105 81 133 92 183 129 210 153 14 13 64 49 112 80 48 31 90 61 93 66 3 5 44
34 91 65 46 31 99 68 117 83 17 15 64 48 102 74 39 25 79 56 90 68 11 13 64
51 117 87 54 35 100 68 104 74 3 6 43 34 87 63 45 30 101 69 124 87 97 77 152
118 220 163 40 26 75 51 78 56 3 5 49 39 103 75 97 66 142 98 288 210 44 33
111 82 149 108 73 50 137 97 192 142 18 15 73 53 122 85 49 33 92 64 95 69 4
5 59 44 124 87 64 42 133 92 152 110 19 18 76 61 126 96 209 145 227 164 199
217 -8 16 -22 31 -30 35 -9 3 -1046 6 -2304 6 -1920 0 -2290 2 -2306 14 -22
16 -175 441 -210 586 -9 36 -21 79 -27 95 -6 17 -37 109 -69 205 -76 229 -160
483 -197 595 -76 224 -203 621 -202 632 0 17 -97 308 -114 341 -19 36 -56 147
-56 166 0 9 -45 151 -100 317 -55 166 -100 308 -100 316 0 18 -37 129 -55 163
-17 33 -85 236 -85 255 0 8 -45 149 -100 314 -55 164 -100 308 -100 318 0 63
-85 96 -127 51z m79 -355 c14 -38 48 -142 77 -233 69 -220 121 -377 159 -479
18 -46 32 -91 32 -100 0 -14 143 -462 227 -711 93 -279 152 -459 228 -700 48
-151 98 -309 112 -350 28 -83 116 -348 198 -595 29 -88 60 -180 68 -205 9 -25
23 -74 32 -110 30 -117 48 -174 65 -210 10 -19 43 -112 74 -206 45 -136 63
-177 87 -200 l30 -29 2207 -5 c2174 -5 2207 -5 2207 -24 0 -13 -22 -35 -65
-63 -36 -24 -81 -59 -100 -77 -19 -18 -77 -62 -128 -97 -51 -35 -130 -91 -176
-124 -46 -33 -103 -73 -126 -90 -23 -16 -58 -44 -78 -61 -21 -17 -71 -53 -112
-79 -41 -26 -91 -62 -112 -79 -20 -17 -55 -44 -78 -61 -23 -16 -68 -49 -99
-73 -31 -23 -96 -70 -144 -105 -48 -34 -107 -76 -130 -92 -23 -17 -69 -50
-102 -73 -33 -23 -89 -65 -125 -92 -36 -27 -102 -75 -147 -105 -45 -31 -85
-60 -88 -65 -3 -5 -49 -38 -103 -73 -53 -36 -108 -77 -122 -92 -14 -15 -68
-56 -120 -92 -179 -121 -259 -178 -282 -199 -13 -12 -61 -47 -108 -78 -83 -55
-143 -99 -205 -150 -17 -13 -69 -50 -115 -81 -47 -31 -99 -70 -115 -86 -32
-30 -129 -100 -297 -214 -54 -36 -100 -70 -103 -75 -4 -6 -33 -28 -65 -50 -78
-53 -101 -87 -107 -160 -6 -62 12 -127 118 -445 42 -124 130 -389 193 -580 29
-88 60 -180 68 -205 9 -25 62 -189 118 -365 92 -289 149 -464 238 -730 17 -49
56 -171 87 -270 32 -99 70 -210 86 -247 16 -36 29 -82 29 -101 0 -19 24 -103
54 -188 78 -221 104 -301 200 -604 138 -440 140 -445 111 -445 -22 0 -93 46
-146 96 -26 23 -70 54 -98 68 -28 15 -76 48 -106 74 -67 58 -117 96 -222 167
-45 31 -85 60 -88 65 -3 5 -50 38 -104 74 -55 36 -102 70 -106 76 -3 5 -49 38
-103 73 -53 36 -106 75 -117 87 -11 13 -52 44 -91 70 -40 26 -92 63 -115 82
-24 19 -75 56 -114 82 -65 44 -94 65 -200 146 -22 17 -60 46 -85 65 -25 19
-97 69 -160 111 -63 42 -136 96 -161 120 -26 23 -70 54 -98 68 -28 15 -75 48
-104 74 -55 48 -102 83 -217 162 -36 25 -86 61 -110 81 -25 20 -67 48 -95 62
-27 14 -63 39 -80 57 -16 17 -73 60 -125 95 -52 34 -104 73 -115 85 -11 12
-58 49 -105 81 -75 52 -197 139 -329 234 -23 17 -62 47 -87 68 -41 34 -51 37
-105 37 -66 0 -101 -14 -139 -55 -14 -15 -63 -54 -110 -86 -47 -33 -131 -92
-186 -132 -56 -39 -121 -85 -144 -102 -23 -16 -58 -44 -78 -60 -21 -17 -76
-56 -124 -88 -48 -31 -89 -61 -93 -67 -3 -5 -43 -34 -88 -65 -45 -30 -111 -78
-147 -105 -36 -27 -105 -77 -155 -111 -49 -34 -104 -74 -120 -88 -17 -14 -55
-41 -85 -60 -30 -19 -75 -53 -100 -76 -25 -22 -79 -63 -120 -90 -41 -27 -96
-68 -121 -91 -26 -23 -69 -54 -97 -68 -28 -14 -67 -39 -85 -56 -38 -33 -93
-73 -214 -155 -45 -31 -85 -60 -89 -66 -3 -5 -49 -39 -102 -74 -54 -34 -108
-75 -122 -90 -14 -15 -68 -56 -122 -90 -53 -35 -99 -69 -102 -74 -4 -6 -44
-35 -89 -66 -45 -30 -111 -78 -147 -105 -36 -27 -105 -77 -155 -111 -49 -34
-101 -71 -115 -84 -14 -12 -52 -39 -85 -61 -55 -35 -120 -83 -200 -147 -81
-65 -111 -57 -82 21 45 116 97 268 97 282 0 14 125 407 201 635 30 88 62 184
207 620 38 116 76 230 85 255 9 25 23 74 32 110 9 36 23 85 32 110 8 25 40
118 69 207 91 275 161 484 193 578 17 50 37 119 46 155 9 36 23 85 32 110 8
25 40 118 69 208 86 259 160 480 193 577 48 143 61 198 61 259 0 100 -25 127
-255 283 -38 26 -97 70 -130 99 -33 28 -82 63 -110 77 -27 14 -63 39 -80 57
-16 17 -68 57 -115 87 -47 31 -96 66 -110 79 -28 25 -83 65 -207 149 -45 31
-85 60 -89 66 -3 5 -50 39 -103 74 -54 35 -104 71 -111 80 -8 9 -26 23 -41 31
-15 7 -48 31 -73 51 -24 21 -64 52 -86 68 -23 17 -81 58 -129 92 -75 55 -175
125 -339 241 -26 19 -58 44 -72 56 -14 13 -58 44 -98 70 -40 26 -87 59 -105
75 -17 15 -63 48 -102 73 -38 26 -81 58 -95 73 -14 15 -68 56 -122 90 -53 35
-99 69 -103 75 -3 5 -30 26 -58 45 -29 20 -95 67 -147 105 -52 38 -138 99
-190 135 -95 66 -157 112 -215 159 -17 13 -68 49 -113 80 -101 68 -162 117
-162 132 0 7 7 15 16 18 9 3 999 6 2201 6 2422 0 2213 -6 2262 65 22 33 101
246 101 275 0 21 67 225 85 260 16 31 45 122 70 220 9 36 23 85 32 110 8 25
47 140 85 255 83 250 147 442 181 545 14 41 71 219 127 395 56 176 115 361
132 410 84 250 115 345 208 640 56 176 115 361 132 410 101 301 140 418 159
485 27 92 45 130 63 130 8 0 24 -29 38 -67z"/>
<path d="M10792 16533 c-11 -10 -33 -56 -50 -103 -17 -47 -44 -122 -61 -168
-17 -46 -31 -97 -31 -113 0 -30 -42 -164 -66 -210 -17 -33 -104 -295 -104
-314 0 -20 -98 -313 -119 -354 -10 -20 -21 -54 -25 -76 -4 -22 -11 -53 -16
-70 -5 -16 -17 -59 -26 -95 -10 -36 -25 -81 -35 -101 -21 -42 -119 -332 -119
-351 0 -7 -16 -61 -35 -121 -37 -114 -76 -200 -97 -214 -7 -4 -552 -10 -1211
-13 l-1199 -5 -19 -24 c-47 -58 -19 -92 196 -240 50 -34 119 -84 155 -111 95
-72 171 -128 259 -190 43 -30 96 -69 117 -86 22 -17 86 -61 144 -99 58 -38
132 -94 165 -125 33 -32 81 -67 105 -80 25 -12 63 -37 85 -54 22 -18 75 -57
118 -87 145 -100 172 -120 197 -143 14 -13 59 -45 100 -72 41 -26 95 -66 120
-89 25 -22 71 -58 103 -79 36 -24 60 -48 64 -64 8 -32 -22 -131 -176 -587 -22
-66 -70 -214 -107 -330 -36 -115 -75 -227 -85 -247 -11 -21 -19 -52 -19 -70 0
-18 -20 -89 -44 -158 -69 -196 -120 -349 -187 -560 -34 -107 -72 -219 -85
-249 -33 -73 -32 -123 2 -150 32 -25 55 -26 97 -5 47 25 190 125 277 195 25
19 78 57 117 83 40 26 75 51 78 56 3 5 50 38 104 74 55 36 102 70 105 75 4 5
39 31 79 57 39 26 90 64 112 84 23 20 80 62 128 94 47 31 89 61 92 66 3 5 67
51 143 101 75 50 158 110 183 133 67 59 137 110 270 198 65 43 120 82 124 88
11 19 115 80 135 80 20 0 124 -61 135 -80 4 -6 50 -40 103 -75 54 -34 108 -75
122 -89 13 -15 76 -61 140 -103 63 -42 126 -87 140 -99 14 -12 66 -49 115 -83
50 -34 119 -84 155 -111 99 -75 173 -129 260 -190 43 -30 89 -65 102 -76 13
-12 57 -43 98 -69 41 -26 92 -64 113 -84 21 -20 80 -65 132 -101 52 -36 142
-98 199 -137 83 -58 113 -73 141 -73 50 0 71 14 85 54 9 29 7 46 -20 125 -16
50 -30 98 -30 106 0 18 -94 302 -119 358 -19 41 -35 101 -52 184 -5 24 -15 56
-24 73 -19 37 -145 412 -145 433 0 18 -85 275 -115 347 -22 54 -39 115 -56
197 -4 23 -17 59 -27 80 -27 54 -122 346 -122 375 0 28 18 46 115 111 70 48
186 130 258 184 21 15 58 42 81 58 23 17 57 43 76 58 18 15 54 39 79 52 25 12
73 46 106 74 115 96 130 108 172 134 23 14 44 31 48 37 4 6 51 40 105 75 54
35 101 68 104 74 4 6 46 36 93 67 48 32 105 74 128 94 22 21 93 72 157 114 65
42 120 81 123 86 3 6 51 40 106 77 162 108 208 175 160 234 l-19 24 -1192 5
-1192 5 -19 24 c-10 13 -19 34 -19 48 0 14 -13 55 -29 91 -16 37 -54 148 -86
247 -31 99 -70 221 -87 270 -152 452 -309 936 -308 951 0 17 -36 128 -53 161
-28 55 -117 333 -117 365 0 42 -42 133 -69 147 -30 17 -86 13 -109 -6z m67
-286 c21 -26 110 -285 247 -722 47 -148 110 -344 140 -435 81 -239 108 -323
176 -535 33 -104 69 -206 79 -227 10 -20 22 -56 25 -80 5 -33 18 -54 54 -90
l47 -48 1075 0 c592 0 1090 -3 1107 -6 17 -4 31 -12 31 -18 0 -18 -80 -81
-224 -177 -72 -47 -140 -97 -151 -109 -11 -12 -58 -49 -105 -81 -47 -33 -131
-92 -186 -132 -56 -39 -121 -85 -144 -102 -23 -16 -58 -44 -78 -60 -21 -17
-69 -52 -109 -78 -39 -26 -89 -62 -111 -79 -93 -76 -301 -227 -507 -368 -150
-104 -185 -145 -185 -220 0 -40 94 -339 140 -445 12 -27 25 -68 30 -90 26
-120 38 -163 53 -190 18 -37 117 -330 117 -350 0 -21 119 -374 140 -415 10
-20 23 -58 28 -86 20 -95 42 -175 58 -206 26 -49 105 -301 100 -315 -9 -23
-45 -14 -83 20 -21 19 -72 55 -113 82 -41 27 -92 65 -113 84 -21 20 -73 61
-117 91 -175 122 -288 203 -350 250 -36 28 -88 66 -117 85 -28 19 -54 39 -58
44 -3 5 -38 31 -78 57 -39 26 -87 60 -105 76 -17 15 -89 65 -160 112 -70 46
-138 96 -152 111 -14 15 -68 56 -120 91 -52 36 -124 86 -160 112 -62 45 -68
47 -130 47 -62 0 -68 -2 -130 -47 -36 -26 -130 -93 -210 -148 -192 -133 -248
-174 -290 -214 -19 -18 -88 -67 -153 -110 -64 -43 -119 -82 -122 -87 -3 -4
-45 -34 -93 -65 -48 -31 -103 -72 -122 -90 -34 -32 -149 -115 -317 -229 -45
-31 -85 -60 -89 -66 -3 -5 -50 -39 -103 -74 -54 -35 -104 -71 -111 -80 -19
-23 -89 -57 -105 -51 -16 6 -3 63 40 180 14 38 25 77 25 87 0 22 66 222 86
260 27 52 84 235 84 269 0 19 11 58 23 85 13 28 51 138 86 245 59 184 95 296
189 575 67 198 122 380 122 399 0 10 -12 41 -27 69 -23 41 -44 61 -123 112
-52 34 -106 75 -120 90 -14 15 -68 56 -120 91 -52 35 -124 86 -160 114 -36 28
-96 72 -135 98 -38 25 -87 61 -107 79 -21 18 -63 46 -95 62 -32 16 -78 50
-103 76 -25 25 -97 80 -160 122 -63 42 -126 86 -140 98 -14 13 -65 50 -115 84
-49 34 -119 84 -155 111 -36 27 -90 67 -120 89 -104 76 -126 98 -112 113 11
10 224 14 1112 18 l1098 5 25 23 c39 37 81 126 122 257 51 167 137 427 169
510 15 39 31 88 36 110 16 80 33 141 55 195 30 72 115 329 115 348 0 20 96
305 115 342 23 44 55 150 55 183 0 15 9 56 21 90 29 85 44 102 68 74z"/>
<path d="M8630 6205 c-8 -2 -49 -9 -90 -15 -205 -34 -375 -125 -553 -296 -223
-216 -356 -493 -413 -864 -22 -146 -22 -496 1 -645 56 -369 172 -636 368 -842
171 -180 377 -293 623 -343 152 -31 401 -31 558 0 132 26 260 68 385 126 199
93 422 269 436 344 3 19 5 282 3 583 l-3 549 -33 29 -32 29 -515 0 c-302 0
-524 -4 -539 -10 -14 -5 -33 -21 -43 -37 -16 -24 -18 -52 -18 -253 0 -169 3
-231 13 -248 26 -45 64 -52 301 -52 l221 0 16 -25 c25 -38 17 -203 -12 -242
-52 -71 -281 -175 -429 -195 -212 -29 -429 84 -544 280 -54 92 -105 250 -126
386 -24 155 -17 464 14 586 74 292 197 445 416 517 64 21 100 26 180 27 211 2
348 -89 448 -297 53 -110 76 -131 145 -129 53 1 412 76 442 92 59 32 67 123
20 261 -56 168 -126 281 -253 410 -120 123 -275 207 -459 250 -77 18 -130 22
-303 25 -115 1 -217 1 -225 -1z m448 -146 c225 -47 403 -150 513 -297 56 -76
142 -243 161 -315 17 -65 5 -74 -144 -108 -187 -43 -195 -41 -235 51 -23 52
-121 173 -182 224 -49 41 -129 81 -197 97 -27 7 -110 12 -184 12 -113 -1 -148
-5 -217 -25 -198 -59 -370 -226 -452 -436 -61 -160 -75 -258 -75 -542 0 -224
3 -269 22 -367 54 -270 177 -473 360 -591 249 -161 656 -117 919 101 83 68 83
68 83 274 l0 183 -29 32 -29 33 -242 5 c-199 4 -242 8 -250 20 -16 25 -12 283
4 306 14 18 30 19 449 19 353 0 437 -3 450 -14 15 -12 17 -60 17 -505 0 -568
9 -516 -111 -608 -211 -160 -493 -271 -754 -298 -223 -23 -433 18 -639 123
-251 128 -419 329 -525 630 -147 418 -145 895 6 1291 150 394 442 651 805 711
51 8 109 17 128 19 69 8 257 -6 348 -25z"/>
<path d="M20016 6195 c-243 -46 -403 -132 -572 -306 -203 -210 -319 -441 -377
-749 -19 -103 -21 -149 -21 -445 l0 -330 32 -155 c44 -208 108 -368 207 -515
147 -220 360 -389 577 -456 351 -108 743 -74 1018 88 166 98 362 310 453 488
136 270 196 641 169 1059 -28 452 -162 779 -418 1027 -154 148 -320 237 -534
285 -98 22 -434 28 -534 9z m366 -120 c511 -60 835 -384 959 -960 32 -149 32
-152 32 -425 0 -273 0 -276 -32 -425 -83 -386 -255 -652 -523 -812 -327 -195
-765 -194 -1098 4 -287 171 -472 487 -534 918 -34 229 -30 491 9 720 49 283
186 549 374 727 159 151 352 234 601 261 69 7 87 7 212 -8z"/>
<path d="M20160 5720 c-142 -18 -264 -84 -377 -203 -114 -122 -178 -258 -220
-472 -26 -133 -26 -549 1 -690 39 -207 109 -356 230 -483 87 -91 169 -145 271
-178 69 -23 97 -26 210 -26 113 0 141 3 210 26 101 32 185 87 268 175 176 187
247 426 247 830 0 366 -47 565 -176 747 -87 123 -227 224 -357 258 -72 19
-224 27 -307 16z m280 -151 c226 -77 359 -264 416 -584 27 -152 24 -434 -5
-584 -68 -346 -225 -543 -479 -596 -84 -18 -110 -18 -197 0 -257 54 -432 279
-490 630 -37 222 -15 543 50 735 81 237 238 380 465 424 50 9 177 -4 240 -25z"/>
<path d="M1453 6150 c-18 -11 -36 -32 -40 -47 -5 -15 -8 -651 -8 -1413 0
-1492 -3 -1411 52 -1448 24 -15 55 -17 254 -17 167 0 232 3 250 13 57 31 54
-60 57 1437 2 960 0 1391 -8 1417 -6 20 -22 46 -37 57 -24 20 -39 21 -257 21
-212 0 -234 -2 -263 -20z m420 -119 c16 -12 17 -118 17 -1329 0 -1210 -1
-1317 -17 -1334 -14 -16 -33 -18 -160 -18 -130 0 -145 2 -163 20 -20 20 -20
33 -20 1328 0 1031 3 1312 13 1324 17 23 44 26 188 25 90 -2 131 -6 142 -16z"/>
<path d="M2413 6160 c-12 -5 -30 -21 -40 -37 -17 -26 -18 -93 -18 -1423 0
-1118 3 -1399 13 -1418 29 -50 55 -57 230 -61 214 -4 267 3 304 39 l28 28 1
639 c2 646 6 788 24 788 17 0 41 -92 140 -552 196 -908 190 -886 242 -920 24
-16 54 -18 254 -18 303 0 285 -13 344 251 20 88 69 314 110 504 99 461 141
642 161 687 16 37 17 38 24 13 5 -14 9 -322 10 -685 1 -482 4 -669 13 -694 24
-67 48 -76 234 -80 215 -4 268 3 305 39 l28 28 0 1401 c0 1064 -3 1406 -12
1426 -24 53 -37 55 -417 55 -371 0 -387 -2 -417 -48 -9 -13 -92 -359 -185
-769 -93 -410 -174 -752 -180 -759 -17 -21 -28 -17 -40 14 -9 22 -174 730
-315 1351 -30 130 -52 177 -94 198 -30 15 -711 17 -747 3z m676 -136 c10 -12
46 -150 90 -340 266 -1160 322 -1400 338 -1432 39 -80 111 -81 150 -2 12 25
47 158 78 295 241 1078 333 1467 349 1483 15 15 47 17 265 20 291 4 327 -1
336 -51 3 -17 4 -614 3 -1325 -3 -1267 -3 -1294 -22 -1308 -29 -21 -253 -20
-284 2 l-22 15 0 943 c0 592 -4 963 -10 996 -12 62 -33 90 -68 90 -39 0 -70
-37 -92 -109 -18 -62 -97 -421 -300 -1356 -120 -557 -120 -555 -141 -576 -17
-17 -35 -19 -165 -19 -80 0 -154 4 -164 10 -10 5 -23 25 -29 42 -12 39 -77
337 -241 1098 -183 854 -204 930 -251 945 -30 10 -58 -4 -77 -38 -16 -30 -17
-106 -22 -1030 -5 -974 -5 -999 -24 -1013 -15 -10 -52 -14 -143 -14 -110 0
-125 2 -143 20 -20 20 -20 33 -20 1328 0 1384 -2 1334 45 1345 11 3 139 5 283
4 255 -2 264 -3 281 -23z"/>
<path d="M5911 6133 c-35 -36 -50 -74 -240 -643 -112 -333 -316 -940 -453
-1350 -165 -489 -252 -764 -255 -800 -4 -48 -2 -58 20 -82 33 -35 83 -41 333
-36 216 3 233 7 270 63 9 14 52 137 94 274 43 137 83 258 90 270 6 12 22 26
36 31 40 16 783 13 814 -3 21 -11 38 -52 120 -290 107 -312 117 -330 196 -341
71 -9 423 -7 469 4 22 5 48 19 58 31 39 49 34 66 -317 1085 -184 533 -391
1136 -461 1339 -135 392 -150 428 -185 460 -21 19 -38 20 -287 23 l-264 3 -38
-38z m498 -108 c24 -24 911 -2589 911 -2633 0 -18 -6 -32 -16 -36 -9 -3 -82
-6 -163 -6 -133 0 -151 2 -173 20 -21 16 -42 71 -108 272 -45 139 -89 266 -97
281 -7 15 -28 37 -46 47 -31 19 -54 20 -515 20 l-484 0 -33 -33 c-27 -27 -42
-60 -80 -183 -26 -82 -63 -201 -83 -264 -51 -163 -47 -160 -226 -160 -79 0
-151 3 -160 6 -9 4 -16 18 -16 34 0 26 826 2501 875 2622 12 30 63 37 232 35
148 -2 164 -4 182 -22z"/>
<path d="M6162 5444 c-12 -8 -31 -32 -41 -52 -34 -67 -284 -874 -289 -933 -4
-48 -1 -59 21 -85 l25 -29 321 -3 322 -3 29 30 c50 49 45 73 -111 563 -78 244
-147 455 -155 470 -28 54 -79 72 -122 42z m66 -311 c5 -10 53 -156 107 -325
80 -253 95 -310 85 -323 -10 -12 -47 -15 -216 -15 -191 0 -204 1 -214 19 -8
16 0 52 34 163 100 322 143 455 155 476 14 26 37 29 49 5z"/>
<path d="M10298 6141 l-33 -29 -3 -1401 c-2 -1238 0 -1405 13 -1431 27 -53 40
-55 292 -55 219 0 233 1 260 21 15 11 33 36 40 55 15 44 18 2734 3 2790 -20
73 -23 74 -295 77 l-244 3 -33 -30z m438 -116 c12 -16 14 -224 14 -1331 l0
-1313 -22 -15 c-31 -22 -294 -23 -324 -2 -19 14 -19 39 -19 1329 0 1405 -2
1339 48 1351 12 2 82 3 156 2 118 -1 135 -4 147 -21z"/>
<path d="M11258 6141 l-33 -29 -3 -1389 c-2 -979 0 -1399 8 -1426 20 -68 35
-72 287 -72 l223 0 27 28 28 27 5 740 c5 794 6 800 52 738 12 -15 189 -343
395 -730 206 -387 384 -717 396 -735 42 -62 62 -68 271 -71 241 -5 291 1 328
38 l28 28 0 1401 c0 1064 -3 1406 -12 1426 -22 50 -49 55 -273 55 -221 0 -250
-6 -277 -53 -10 -17 -14 -190 -18 -781 -3 -528 -8 -760 -16 -763 -6 -2 -18 4
-26 14 -9 10 -195 355 -412 768 -229 434 -409 762 -426 780 l-30 30 -244 3
-245 3 -33 -30z m424 -101 c24 -7 43 -21 56 -43 11 -18 214 -401 452 -852 238
-451 446 -838 461 -861 36 -53 81 -73 118 -53 14 8 31 30 38 49 9 26 12 253
12 881 1 694 3 848 15 864 11 15 31 19 117 23 62 2 121 0 146 -7 36 -10 43
-16 48 -44 3 -17 4 -614 3 -1325 -3 -1267 -3 -1294 -22 -1308 -15 -11 -57 -14
-177 -14 -149 0 -159 1 -183 23 -15 12 -223 393 -470 857 -244 459 -457 850
-473 868 -38 41 -79 43 -114 6 l-24 -26 -5 -850 c-5 -826 -6 -850 -24 -864
-30 -21 -269 -20 -290 2 -14 14 -16 149 -16 1333 0 1043 3 1321 13 1329 6 5
21 12 32 15 38 9 250 7 287 -3z"/>
<path d="M14391 6133 c-35 -36 -59 -104 -490 -1388 -250 -742 -456 -1371 -458
-1396 -6 -57 16 -106 55 -116 15 -5 133 -8 262 -8 257 0 268 2 306 61 10 14
53 139 96 277 44 139 86 262 93 274 8 12 30 25 47 28 18 3 205 5 415 3 338 -3
384 -5 399 -19 9 -9 53 -129 98 -265 90 -270 101 -296 141 -334 26 -25 29 -25
237 -29 253 -4 312 2 344 34 49 50 51 46 -317 1111 -187 544 -397 1155 -467
1358 -112 327 -131 374 -163 408 l-36 38 -263 0 -262 0 -37 -37z m498 -108
c11 -11 56 -123 100 -250 511 -1477 811 -2358 811 -2383 0 -18 -6 -32 -16 -36
-9 -3 -83 -6 -164 -6 -140 0 -150 1 -174 23 -18 16 -45 86 -106 272 -46 138
-89 263 -97 278 -8 15 -28 37 -46 47 -31 19 -54 20 -515 20 l-484 0 -33 -33
c-26 -26 -41 -60 -80 -182 -25 -83 -63 -202 -83 -265 -52 -163 -48 -160 -226
-160 -79 0 -151 3 -160 6 -9 4 -16 18 -16 34 0 22 791 2400 860 2582 28 74 39
78 247 75 148 -2 164 -4 182 -22z"/>
<path d="M14642 5444 c-12 -8 -31 -32 -41 -52 -36 -71 -291 -901 -291 -947 0
-32 7 -52 24 -72 l24 -28 321 -3 322 -3 29 30 c50 49 45 73 -111 563 -77 243
-147 454 -155 469 -28 55 -79 73 -122 43z m105 -424 c124 -374 166 -520 153
-535 -10 -12 -47 -15 -216 -15 -225 0 -229 1 -214 64 14 59 173 561 187 589
26 53 45 32 90 -103z"/>
<path d="M15991 6154 c-45 -32 -51 -68 -51 -289 0 -158 3 -214 15 -241 25 -61
45 -64 379 -64 254 0 297 -2 310 -16 14 -14 16 -129 16 -1121 0 -976 2 -1109
15 -1138 28 -57 44 -60 299 -60 257 0 273 4 295 67 8 21 11 373 11 1134 0 989
2 1104 16 1118 13 14 56 16 310 16 334 0 354 3 379 64 12 27 15 83 15 243 0
228 -8 264 -60 290 -19 10 -236 13 -975 13 -863 0 -953 -2 -974 -16z m1862
-123 c24 -20 25 -301 1 -325 -13 -14 -56 -16 -312 -16 -337 0 -356 -4 -379
-70 -9 -26 -12 -311 -12 -1137 -1 -988 -3 -1103 -17 -1117 -23 -24 -299 -23
-326 1 -17 15 -18 64 -19 1117 0 826 -3 1110 -12 1136 -23 66 -42 70 -379 70
-256 0 -299 2 -312 16 -13 13 -16 42 -16 163 0 154 2 163 45 174 11 3 403 4
871 3 705 -1 854 -3 867 -15z"/>
<path d="M18230 6157 c-14 -7 -33 -28 -43 -47 -16 -33 -17 -117 -15 -1427 l3
-1393 33 -32 32 -33 234 0 c258 0 273 3 301 61 14 29 15 183 13 1429 l-3 1397
-33 29 -32 29 -233 0 c-165 0 -239 -4 -257 -13z m414 -126 c15 -12 16 -128 16
-1332 0 -1184 -2 -1319 -16 -1333 -23 -24 -299 -23 -326 1 -17 15 -18 70 -18
1333 0 1042 3 1320 13 1328 22 18 50 21 183 19 93 -2 136 -6 148 -16z"/>
<path d="M21831 6156 c-53 -30 -50 43 -51 -1464 l0 -1404 28 -28 c37 -36 90
-43 304 -39 175 4 201 11 230 61 10 18 14 185 18 757 4 540 8 735 16 738 7 2
21 -9 32 -24 11 -15 189 -347 397 -738 228 -429 390 -723 410 -744 43 -44 79
-50 300 -50 203 -1 250 7 283 44 l22 26 0 1407 c0 1540 4 1435 -58 1461 -20 9
-94 11 -246 9 l-218 -3 -24 -28 -24 -28 -1 -722 c0 -397 -4 -742 -7 -766 -4
-24 -12 -46 -19 -48 -7 -3 -23 13 -36 34 -13 21 -196 364 -406 763 -251 475
-394 737 -417 760 l-34 35 -238 2 c-184 2 -242 0 -261 -11z m439 -131 c18 -18
119 -208 689 -1290 263 -499 263 -497 316 -511 32 -8 76 21 86 57 4 13 7 407
8 875 1 717 3 853 15 870 13 17 27 19 151 19 124 0 138 -2 151 -19 12 -17 14
-214 14 -1328 0 -1295 0 -1308 -20 -1328 -18 -18 -33 -20 -181 -20 l-161 0
-26 28 c-15 15 -223 395 -462 846 -239 450 -450 836 -469 858 -30 35 -37 39
-75 36 -36 -3 -43 -8 -58 -38 -17 -32 -18 -95 -18 -862 0 -815 0 -828 -20
-848 -18 -18 -33 -20 -145 -20 -112 0 -127 2 -145 20 -20 20 -20 33 -20 1328
0 1031 3 1312 13 1324 17 23 44 27 199 24 123 -1 140 -4 158 -21z"/>
</g>
</svg>
