<?xml version="1.0" standalone="no"?>
<!DOCTYPE svg PUBLIC "-//W3C//DTD SVG 20010904//EN"
 "http://www.w3.org/TR/2001/REC-SVG-20010904/DTD/svg10.dtd">
<svg version="1.0" xmlns="http://www.w3.org/2000/svg"
 width="2550.000000pt" height="3300.000000pt" viewBox="0 0 2550.000000 3300.000000"
 preserveAspectRatio="xMidYMid meet">
<metadata>
Created by potrace 1.14, written by Peter Selinger 2001-2017
</metadata>
<g transform="translate(0.000000,3300.000000) scale(0.100000,-0.100000)"
fill="#000000" stroke="none">
<path d="M12125 30995 c-30 -11 -95 -15 -271 -15 -180 0 -241 -3 -274 -15 -25
-9 -78 -15 -130 -15 -52 0 -105 -6 -130 -15 -23 -8 -70 -15 -104 -15 -33 0
-79 -7 -101 -15 -22 -8 -61 -14 -87 -15 -26 0 -59 -5 -75 -11 -15 -6 -59 -15
-98 -19 -104 -13 -147 -21 -320 -60 -27 -6 -72 -15 -100 -19 -27 -4 -70 -13
-95 -20 -69 -19 -143 -38 -285 -72 -71 -17 -157 -40 -190 -51 -33 -11 -78 -24
-100 -29 -43 -8 -101 -23 -180 -45 -27 -8 -90 -23 -140 -35 -81 -20 -183 -53
-460 -153 -55 -20 -120 -44 -145 -55 -25 -10 -81 -33 -125 -51 -44 -18 -105
-42 -135 -55 -30 -13 -109 -41 -175 -63 -66 -22 -204 -80 -305 -130 -102 -49
-203 -98 -224 -109 -59 -27 -76 -36 -120 -60 -119 -65 -235 -121 -264 -128
-17 -3 -54 -22 -80 -40 -27 -18 -78 -48 -113 -65 -35 -18 -82 -45 -104 -60
-22 -15 -69 -42 -105 -60 -36 -18 -78 -42 -95 -55 -16 -12 -52 -34 -80 -49
-27 -15 -75 -42 -105 -61 -30 -19 -77 -46 -103 -62 -123 -72 -200 -123 -239
-160 -24 -21 -117 -88 -208 -148 -91 -59 -181 -121 -200 -138 -37 -31 -167
-129 -239 -180 -25 -18 -71 -56 -104 -84 -33 -29 -63 -53 -68 -53 -5 0 -36
-25 -69 -55 -33 -30 -64 -55 -70 -55 -5 0 -52 -40 -105 -90 -53 -49 -101 -90
-107 -90 -6 0 -66 -53 -132 -118 -67 -65 -139 -130 -162 -145 -50 -34 -574
-560 -574 -577 0 -6 -52 -65 -115 -130 -63 -66 -115 -124 -115 -130 0 -7 -26
-39 -58 -73 -32 -34 -69 -78 -82 -97 -13 -19 -49 -62 -79 -96 -31 -34 -69 -80
-86 -104 -60 -85 -101 -138 -135 -177 -19 -22 -55 -68 -80 -102 -25 -34 -59
-79 -76 -99 -17 -21 -80 -111 -139 -201 -60 -91 -121 -178 -135 -195 -37 -43
-213 -311 -240 -366 -25 -50 -77 -139 -126 -216 -18 -28 -47 -80 -64 -115 -18
-35 -42 -77 -55 -94 -12 -16 -34 -52 -49 -80 -15 -27 -43 -75 -62 -105 -19
-30 -42 -77 -52 -105 -9 -27 -88 -194 -175 -370 -163 -328 -173 -349 -262
-595 -29 -80 -67 -181 -85 -225 -18 -44 -49 -127 -69 -185 -21 -58 -42 -114
-48 -125 -16 -29 -163 -469 -163 -487 0 -8 -13 -55 -30 -104 -16 -49 -30 -102
-30 -118 0 -16 -6 -52 -14 -80 -8 -28 -22 -80 -31 -116 -9 -36 -20 -79 -26
-96 -5 -16 -13 -50 -18 -75 -12 -59 -48 -202 -66 -265 -8 -28 -15 -65 -15 -82
0 -17 -5 -43 -11 -59 -6 -15 -15 -53 -19 -83 -8 -53 -20 -107 -42 -200 -10
-43 -16 -86 -37 -250 -5 -41 -14 -88 -20 -103 -6 -16 -11 -61 -11 -101 0 -41
-7 -93 -15 -116 -8 -24 -15 -77 -15 -122 0 -47 -6 -93 -15 -115 -11 -25 -15
-73 -15 -168 0 -92 -5 -145 -15 -175 -13 -36 -15 -154 -15 -820 0 -666 2 -784
15 -820 10 -30 15 -83 15 -175 0 -95 4 -143 15 -168 10 -23 15 -70 15 -129 0
-55 6 -109 15 -133 8 -22 14 -68 15 -102 0 -34 5 -74 11 -90 6 -15 15 -62 20
-103 5 -41 13 -107 18 -146 5 -40 14 -81 20 -92 6 -12 11 -38 11 -59 1 -21 7
-56 15 -78 8 -22 15 -54 15 -71 0 -17 7 -51 15 -74 8 -23 15 -57 15 -76 0 -18
5 -45 11 -61 6 -15 14 -46 19 -68 5 -22 16 -69 25 -105 9 -36 20 -85 26 -109
5 -25 13 -59 18 -75 6 -17 17 -60 26 -96 9 -36 23 -88 31 -116 8 -28 14 -63
14 -79 0 -30 10 -67 70 -265 21 -69 46 -154 56 -190 10 -36 26 -83 37 -105 11
-22 33 -80 49 -128 15 -49 34 -99 40 -110 6 -12 29 -69 49 -127 53 -148 142
-393 172 -472 15 -36 64 -142 110 -235 46 -92 90 -186 97 -208 24 -74 288
-590 343 -671 30 -44 69 -109 87 -145 18 -35 42 -78 55 -94 12 -17 41 -66 64
-110 80 -155 279 -461 331 -510 17 -16 48 -59 68 -95 52 -93 130 -207 184
-270 46 -54 60 -72 127 -167 19 -26 49 -64 68 -84 19 -20 49 -57 66 -82 77
-110 96 -133 160 -203 37 -40 67 -78 67 -84 0 -6 49 -62 108 -123 59 -62 120
-130 135 -153 33 -50 779 -794 796 -794 7 0 59 -45 116 -100 58 -55 109 -100
115 -100 6 0 44 -31 85 -70 41 -39 78 -70 83 -70 5 0 37 -25 71 -55 34 -30 74
-61 89 -69 16 -8 35 -22 43 -32 7 -9 31 -27 51 -41 21 -13 63 -45 92 -71 67
-58 211 -167 274 -206 89 -56 207 -137 272 -186 118 -90 244 -171 394 -251 49
-27 96 -55 105 -62 9 -8 39 -27 66 -41 50 -27 120 -69 205 -123 62 -40 206
-119 264 -145 27 -13 196 -96 376 -184 179 -89 348 -169 374 -178 25 -9 70
-28 98 -42 29 -15 120 -50 202 -79 160 -56 310 -112 441 -165 78 -32 391 -137
591 -199 55 -17 114 -31 131 -31 18 0 44 -5 60 -11 15 -6 46 -14 68 -19 22 -5
69 -16 105 -25 36 -9 85 -20 109 -26 25 -5 59 -13 75 -18 29 -9 74 -21 214
-55 31 -8 77 -20 102 -27 25 -7 68 -16 95 -20 28 -4 84 -15 125 -23 41 -9 103
-20 136 -26 34 -5 74 -14 88 -20 15 -5 47 -10 70 -10 24 0 63 -7 86 -15 23 -8
71 -15 105 -15 34 0 82 -7 105 -15 23 -8 75 -15 115 -15 40 0 92 -7 115 -15
27 -10 80 -15 146 -15 58 0 115 -5 131 -12 43 -18 422 -29 1033 -29 621 -1
1004 10 1037 29 13 7 63 12 130 12 68 1 123 6 148 15 22 8 74 15 116 15 42 0
96 7 119 15 23 8 68 15 100 15 32 0 77 7 100 15 23 8 57 15 76 15 18 0 45 5
61 11 15 7 60 15 98 19 39 5 106 16 150 25 44 9 103 20 132 25 28 4 66 13 85
18 85 26 146 42 163 42 9 0 38 7 64 15 25 8 138 38 251 66 113 27 232 57 265
65 33 8 76 18 95 23 109 26 149 38 290 86 232 79 371 130 405 147 17 8 64 26
105 38 41 13 91 31 111 41 20 10 90 36 156 58 66 21 160 59 209 84 49 24 107
50 129 57 54 17 872 426 910 455 17 12 64 39 105 60 41 20 82 43 90 51 18 15
119 74 230 133 41 22 147 89 235 150 88 61 237 163 330 226 159 109 199 137
300 215 44 34 109 82 158 117 47 33 121 92 178 141 28 23 67 53 87 66 20 13
60 47 87 76 28 28 75 69 105 90 30 21 84 68 120 105 36 37 88 82 115 100 58
38 745 725 745 744 0 8 56 71 125 141 69 70 125 132 125 139 0 6 28 41 63 78
34 38 85 99 112 137 28 38 78 99 111 136 34 37 74 84 88 106 14 21 49 68 76
104 27 36 105 145 172 243 163 236 185 268 212 297 39 43 159 235 211 340 15
30 52 90 82 134 30 43 70 111 90 150 19 39 46 85 58 102 30 40 515 1010 515
1030 0 8 9 32 19 52 10 21 33 80 51 132 18 52 43 115 56 141 47 94 128 311
239 639 88 261 104 316 115 395 4 28 24 99 44 158 20 60 36 114 36 121 0 8 6
36 14 62 14 48 34 124 62 237 8 31 20 83 28 115 8 31 20 77 26 102 12 43 17
72 39 206 6 33 15 73 21 88 5 15 10 42 10 60 0 19 7 53 15 76 8 23 15 62 15
85 0 23 7 62 15 85 8 23 15 71 15 105 0 34 7 82 15 105 8 23 15 75 15 116 0
40 5 85 12 101 12 27 19 158 36 658 5 150 12 238 20 252 17 31 17 875 0 906
-9 15 -15 99 -20 247 -15 454 -24 615 -36 637 -7 12 -12 61 -12 115 -1 55 -7
109 -15 133 -8 22 -15 68 -15 101 0 34 -7 81 -15 104 -8 23 -15 57 -15 74 0
17 -7 49 -15 71 -8 22 -14 61 -15 87 0 26 -5 59 -10 74 -6 15 -15 52 -20 83
-5 31 -16 85 -25 121 -9 36 -20 88 -24 115 -4 28 -13 70 -20 95 -12 43 -23 86
-57 225 -9 33 -33 115 -55 183 -21 67 -39 128 -39 136 0 8 -6 36 -14 62 -15
52 -38 139 -62 239 -30 121 -207 627 -276 785 -66 150 -85 197 -118 285 -21
55 -50 130 -64 167 -32 85 -231 484 -261 523 -28 38 -69 118 -85 170 -17 53
-86 192 -115 230 -12 17 -32 50 -45 75 -13 25 -33 59 -45 75 -13 17 -39 62
-58 101 -20 39 -56 100 -81 137 -25 36 -61 97 -80 134 -19 37 -57 100 -85 138
-27 39 -78 111 -112 160 -34 50 -71 101 -84 115 -12 14 -70 97 -129 185 -129
192 -155 228 -223 305 -29 33 -53 64 -53 69 0 5 -21 33 -48 63 -26 29 -61 71
-77 93 -40 56 -86 110 -182 215 -46 50 -83 95 -83 101 0 6 -58 71 -130 144
-71 74 -130 139 -130 146 0 18 -159 177 -205 204 -46 27 -116 98 -138 142 -17
32 -161 173 -178 173 -6 0 -57 45 -114 100 -58 55 -109 100 -115 100 -6 0 -62
48 -125 108 -210 197 -235 218 -395 331 -30 21 -64 49 -75 61 -11 13 -42 38
-70 57 -51 34 -115 82 -171 127 -16 14 -122 86 -235 161 -112 75 -213 145
-224 155 -27 25 -120 86 -175 117 -25 13 -68 39 -97 56 -60 37 -93 58 -185
112 -37 22 -114 68 -170 102 -106 63 -1064 542 -1175 587 -34 14 -79 28 -100
32 -21 4 -64 20 -96 36 -31 15 -88 40 -125 54 -150 58 -314 118 -442 163 -74
26 -148 54 -165 63 -16 9 -46 19 -65 22 -19 4 -71 17 -115 31 -157 46 -192 55
-221 55 -17 0 -77 16 -135 35 -103 35 -182 58 -268 76 -25 5 -59 13 -75 18
-17 6 -60 17 -96 26 -36 9 -88 23 -116 31 -28 8 -65 14 -82 14 -17 0 -43 5
-59 11 -15 6 -53 15 -83 20 -30 4 -89 15 -130 24 -41 9 -110 20 -153 25 -44 6
-87 15 -97 20 -10 6 -41 10 -68 10 -27 0 -69 7 -92 15 -23 8 -71 15 -107 15
-35 0 -80 7 -100 15 -24 10 -70 15 -142 15 -67 0 -121 6 -146 15 -30 10 -94
14 -255 15 -160 0 -227 4 -264 15 -72 22 -1250 22 -1311 0z m1505 -132 c148
-6 256 -14 273 -21 16 -7 74 -12 130 -12 63 -1 117 -6 142 -15 22 -8 68 -15
101 -15 34 0 81 -7 104 -15 23 -8 64 -15 90 -15 26 0 67 -7 90 -15 23 -8 62
-15 86 -15 23 0 55 -5 70 -10 15 -6 52 -15 83 -20 31 -5 92 -17 136 -25 44 -9
103 -20 130 -24 28 -4 70 -13 95 -20 25 -7 71 -19 103 -27 121 -30 184 -46
231 -60 26 -8 55 -14 62 -14 8 0 68 -18 134 -40 66 -22 132 -40 146 -40 27 0
44 -4 244 -62 117 -33 104 -29 325 -108 88 -32 205 -74 260 -94 111 -40 159
-60 286 -118 47 -21 103 -41 125 -45 21 -3 60 -16 86 -29 26 -13 54 -24 62
-24 18 0 1050 -517 1121 -562 72 -45 163 -101 219 -134 27 -16 77 -46 110 -66
34 -20 82 -49 109 -63 58 -31 194 -122 202 -135 3 -5 99 -71 213 -146 114 -75
219 -148 233 -161 14 -13 44 -36 66 -51 57 -38 150 -109 199 -151 23 -20 70
-56 103 -81 34 -25 96 -75 137 -112 41 -38 79 -68 85 -68 5 0 63 -52 129 -115
66 -63 124 -115 130 -115 6 0 57 -44 114 -97 57 -54 122 -110 145 -125 23 -16
57 -52 75 -80 40 -61 164 -185 218 -217 39 -23 128 -116 128 -133 0 -6 56 -68
125 -138 69 -70 125 -132 125 -138 0 -6 41 -54 90 -107 50 -53 90 -100 90
-105 0 -6 25 -37 55 -70 30 -33 55 -64 55 -69 0 -5 24 -36 53 -69 91 -105 157
-186 176 -218 11 -18 24 -35 30 -39 7 -3 63 -85 127 -181 63 -96 127 -189 142
-207 15 -18 49 -63 75 -102 27 -38 68 -97 93 -130 24 -33 63 -96 86 -140 22
-44 64 -114 93 -155 29 -41 67 -104 85 -140 17 -36 47 -87 64 -115 96 -148
160 -264 185 -337 22 -65 64 -149 101 -203 36 -53 214 -408 247 -493 14 -37
42 -114 63 -172 21 -58 54 -139 74 -180 20 -41 36 -80 36 -87 0 -7 11 -36 24
-65 35 -78 65 -152 100 -253 18 -49 37 -99 43 -110 6 -11 33 -90 61 -175 45
-141 57 -183 83 -290 5 -19 15 -62 23 -95 8 -33 20 -80 26 -105 6 -25 28 -101
50 -170 21 -69 46 -154 55 -190 9 -36 23 -92 31 -125 9 -33 20 -74 25 -91 5
-17 9 -38 9 -48 0 -23 28 -148 46 -205 8 -25 14 -59 14 -77 0 -17 7 -51 15
-74 8 -23 15 -62 15 -85 0 -23 7 -62 15 -85 8 -23 15 -57 15 -76 0 -18 5 -45
11 -61 12 -28 21 -107 38 -318 5 -60 14 -123 20 -138 6 -17 11 -96 11 -190 1
-115 5 -174 15 -202 11 -30 15 -92 15 -241 0 -153 4 -212 15 -244 12 -35 15
-108 15 -400 0 -292 -3 -365 -15 -400 -11 -32 -15 -91 -15 -244 0 -149 -4
-211 -15 -241 -10 -29 -14 -89 -15 -218 0 -98 -4 -187 -10 -197 -5 -10 -14
-67 -20 -127 -22 -233 -28 -279 -39 -306 -6 -16 -11 -51 -11 -78 0 -27 -7 -66
-15 -86 -8 -19 -15 -50 -15 -68 0 -18 -7 -52 -15 -75 -8 -23 -15 -57 -15 -76
0 -18 -5 -45 -11 -61 -6 -15 -15 -53 -19 -83 -5 -30 -16 -84 -25 -120 -9 -36
-20 -81 -24 -100 -4 -19 -14 -55 -20 -80 -13 -46 -31 -119 -57 -225 -8 -33
-33 -116 -55 -185 -22 -69 -40 -138 -40 -155 0 -16 -6 -48 -14 -70 -8 -22 -15
-47 -15 -57 0 -18 -148 -461 -175 -523 -9 -22 -28 -73 -41 -113 -13 -40 -33
-91 -44 -112 -11 -22 -20 -45 -20 -52 0 -8 -16 -47 -36 -88 -20 -41 -51 -118
-70 -170 -18 -52 -50 -138 -72 -190 -47 -114 -459 -939 -497 -994 -14 -21 -42
-70 -62 -110 -20 -39 -59 -105 -88 -146 -29 -41 -68 -106 -88 -145 -19 -38
-50 -93 -68 -122 -19 -29 -50 -78 -69 -108 -19 -31 -63 -93 -98 -138 -34 -45
-117 -163 -183 -262 -67 -99 -133 -194 -148 -212 -14 -17 -46 -60 -71 -94 -25
-34 -69 -88 -99 -120 -30 -33 -68 -79 -85 -103 -77 -110 -95 -133 -158 -202
-38 -40 -68 -78 -68 -84 0 -6 -58 -71 -130 -145 -71 -73 -130 -139 -130 -146
0 -19 -608 -626 -665 -664 -27 -18 -79 -63 -115 -100 -36 -37 -90 -84 -120
-105 -30 -21 -80 -64 -110 -95 -30 -31 -68 -63 -84 -72 -15 -8 -49 -33 -73
-56 -25 -23 -65 -55 -88 -72 -76 -53 -216 -159 -262 -198 -24 -20 -57 -44 -72
-51 -15 -8 -33 -22 -40 -30 -7 -8 -86 -64 -174 -123 -89 -59 -180 -121 -202
-139 -72 -58 -299 -205 -370 -241 -38 -19 -83 -45 -100 -58 -16 -12 -50 -32
-75 -45 -25 -13 -58 -33 -75 -45 -16 -13 -59 -37 -95 -55 -36 -18 -83 -45
-105 -60 -53 -36 -881 -450 -901 -450 -8 0 -56 -21 -107 -46 -50 -26 -159 -70
-242 -99 -82 -29 -199 -72 -260 -95 -60 -23 -157 -59 -215 -79 -58 -21 -114
-42 -126 -49 -26 -14 -285 -100 -339 -112 -118 -27 -567 -139 -620 -154 -27
-8 -61 -17 -75 -20 -14 -3 -52 -12 -85 -20 -102 -25 -237 -56 -310 -71 -38 -8
-92 -19 -120 -25 -27 -7 -81 -15 -120 -20 -38 -4 -83 -12 -98 -19 -16 -6 -43
-11 -61 -11 -19 0 -53 -7 -76 -15 -23 -8 -69 -15 -101 -15 -32 0 -70 -5 -86
-11 -29 -12 -129 -22 -358 -38 -71 -5 -143 -14 -158 -20 -18 -7 -106 -11 -230
-11 -150 -1 -212 -5 -242 -15 -60 -22 -943 -22 -1005 0 -32 11 -91 15 -247 15
-138 0 -211 4 -226 12 -12 6 -80 15 -152 20 -241 14 -340 24 -362 36 -12 7
-51 12 -86 12 -36 0 -84 7 -107 15 -23 8 -64 15 -90 15 -26 0 -64 7 -83 15
-20 8 -52 15 -71 15 -19 0 -47 5 -63 11 -15 6 -53 15 -83 19 -87 12 -176 31
-307 64 -35 9 -90 23 -123 31 -33 8 -87 22 -120 30 -102 26 -183 46 -220 56
-69 18 -126 31 -176 39 -89 14 -558 164 -719 230 -44 18 -127 49 -185 69 -58
21 -114 42 -125 48 -12 7 -76 30 -144 53 -68 22 -149 54 -180 69 -31 16 -74
34 -96 41 -22 7 -184 85 -360 173 -176 88 -341 166 -367 173 -25 8 -68 29 -95
48 -27 19 -79 48 -114 66 -35 18 -77 42 -94 55 -16 12 -52 34 -80 49 -27 15
-86 49 -130 76 -44 27 -114 68 -155 90 -169 91 -339 201 -466 304 -47 38 -134
96 -179 118 -22 11 -52 31 -66 45 -15 14 -47 39 -72 56 -106 74 -132 94 -181
137 -28 25 -69 58 -91 73 -81 56 -151 109 -185 141 -19 18 -43 38 -53 43 -25
13 -163 132 -266 229 -47 45 -106 95 -131 112 -55 37 -770 753 -770 770 0 7
-48 64 -108 127 -140 149 -210 228 -247 280 -60 85 -101 138 -145 189 -42 49
-68 83 -147 194 -17 25 -45 59 -61 76 -37 39 -153 210 -186 273 -13 27 -38 62
-56 78 -32 30 -221 308 -255 375 -10 19 -28 49 -40 65 -13 17 -37 59 -55 95
-18 36 -45 83 -60 105 -15 22 -41 67 -58 100 -16 33 -54 96 -84 141 -29 44
-114 206 -190 360 -341 697 -325 663 -428 949 -32 88 -77 210 -100 270 -23 61
-59 157 -79 215 -21 58 -45 119 -53 135 -8 17 -23 57 -32 90 -10 33 -37 125
-61 205 -67 222 -75 254 -75 288 0 17 -5 43 -11 59 -6 15 -14 46 -19 68 -5 22
-16 69 -25 105 -9 36 -20 81 -24 100 -4 19 -14 55 -20 80 -7 25 -19 72 -27
105 -9 33 -22 83 -30 111 -8 28 -14 65 -14 83 0 18 -5 41 -10 52 -6 10 -15 47
-20 82 -5 34 -16 96 -25 137 -8 41 -20 110 -24 152 -5 42 -14 86 -20 97 -6 11
-11 42 -11 69 0 27 -7 69 -15 92 -8 23 -15 68 -15 100 0 32 -7 77 -15 100 -9
26 -15 79 -15 134 0 54 -6 107 -15 131 -9 27 -14 83 -15 167 0 79 -6 149 -15
185 -22 85 -22 1401 0 1486 9 36 15 104 15 181 0 80 5 140 15 172 8 27 15 81
15 120 0 39 7 91 15 114 8 23 15 75 15 115 0 40 7 92 15 115 8 23 15 65 15 92
0 27 5 58 11 69 6 11 15 55 20 97 4 42 16 111 24 152 9 41 20 103 25 137 5 35
14 72 20 82 5 11 10 34 10 52 0 18 6 55 14 83 8 28 21 78 30 111 8 33 20 80
27 105 6 25 16 61 20 80 4 19 15 64 24 100 9 36 20 83 25 105 5 22 13 53 19
68 6 16 11 42 11 60 0 69 210 700 340 1022 18 44 56 148 84 230 29 83 60 164
69 182 9 18 17 38 17 45 0 11 96 211 379 788 48 98 115 217 135 240 8 8 33 51
55 95 41 79 75 137 144 245 19 30 47 79 61 108 30 59 197 313 231 352 13 14
73 99 134 190 61 91 134 194 161 230 27 36 62 83 77 105 15 22 48 63 73 91 43
49 63 76 137 182 18 25 54 68 81 96 27 28 59 67 72 86 27 40 91 113 242 273
58 63 113 127 121 143 19 36 518 534 535 534 7 0 74 58 150 130 196 185 272
254 312 281 19 13 61 48 93 77 32 28 63 52 68 52 5 0 31 20 57 44 26 25 69 59
94 78 61 43 146 106 228 168 36 27 142 101 235 164 94 63 181 126 195 141 26
28 126 97 195 134 40 22 104 60 200 121 144 89 274 164 419 240 43 23 101 57
127 75 27 18 72 41 101 51 64 21 182 78 223 108 17 13 45 28 63 34 18 6 45 20
60 30 15 11 45 25 67 32 22 7 117 51 210 98 94 46 231 106 305 132 175 62 314
115 419 162 24 10 77 30 117 43 40 13 85 30 101 38 50 26 372 127 453 143 14
3 48 11 75 19 28 8 90 24 139 36 50 12 106 27 126 34 20 7 76 22 126 34 49 12
112 28 139 36 28 8 61 16 75 19 14 3 52 12 85 20 77 20 147 35 210 46 82 15
197 38 250 50 28 7 82 15 120 20 39 4 83 12 98 19 16 6 50 11 76 11 27 0 65 7
84 15 20 8 65 15 100 15 36 0 84 7 107 15 25 9 77 15 126 15 46 0 109 7 141
15 44 12 109 15 273 14 131 -1 225 3 240 9 29 13 1066 8 1460 -5z"/>
<path d="M12500 29999 c-14 -4 -58 -18 -99 -29 -41 -12 -142 -56 -225 -97
l-151 -75 -148 -147 c-222 -218 -264 -291 -360 -621 l-22 -75 -5 -4483 -5
-4484 -24 -19 c-22 -18 -45 -19 -481 -19 l-457 0 -34 23 -34 23 -5 4064 c-4
3226 -8 4070 -17 4087 -7 12 -13 30 -13 40 0 29 -67 228 -96 286 -15 28 -37
66 -49 82 -13 17 -34 53 -48 80 -29 57 -262 293 -341 344 -84 55 -217 117
-321 149 -210 66 -191 63 -440 59 -292 -5 -345 -17 -575 -132 l-135 -67 -168
-166 c-148 -147 -219 -232 -267 -322 -24 -44 -90 -249 -90 -278 0 -16 -7 -49
-15 -72 -13 -38 -15 -610 -15 -4916 l0 -4873 -24 -28 -24 -28 -529 -3 c-290
-2 -543 0 -561 3 -18 3 -42 15 -53 26 -19 19 -19 51 -19 2011 0 1740 -2 1998
-15 2045 -8 29 -22 77 -30 106 -8 30 -15 62 -15 72 0 41 -142 335 -198 410
-48 65 -283 299 -347 347 -58 43 -328 183 -395 205 -44 15 -72 21 -180 44 -30
6 -80 17 -111 25 -65 17 -247 18 -304 3 -22 -6 -69 -14 -105 -18 -71 -8 -143
-25 -205 -48 -136 -51 -190 -74 -230 -99 -26 -16 -72 -43 -103 -61 -136 -76
-353 -290 -454 -448 -118 -185 -153 -263 -186 -420 -15 -74 -17 -340 -20
-3525 -2 -2603 0 -3455 9 -3485 6 -22 15 -76 20 -120 24 -229 27 -243 112
-505 39 -119 85 -235 129 -324 37 -76 68 -146 68 -155 0 -10 17 -46 39 -82 21
-35 44 -81 50 -101 12 -36 135 -227 190 -295 14 -18 46 -60 71 -94 25 -34 63
-82 86 -108 22 -25 55 -66 72 -91 38 -57 473 -490 491 -490 8 0 118 -101 245
-225 532 -517 633 -614 666 -636 19 -13 123 -110 231 -216 108 -106 202 -193
209 -193 7 0 84 -69 170 -152 86 -84 176 -166 199 -183 24 -16 67 -48 97 -70
29 -22 75 -55 101 -74 26 -19 69 -53 95 -75 86 -75 113 -94 469 -332 214 -142
402 -260 474 -296 66 -33 138 -73 160 -88 45 -31 619 -320 635 -320 11 0 129
-52 300 -131 47 -21 91 -39 98 -39 7 0 34 -11 60 -24 26 -13 81 -33 122 -46
41 -12 91 -31 112 -41 35 -18 318 -112 368 -122 66 -14 122 -29 195 -51 44
-14 108 -32 143 -40 34 -9 88 -23 120 -31 180 -46 322 -77 432 -94 30 -5 68
-14 83 -20 16 -6 43 -11 61 -11 19 0 53 -7 76 -15 23 -8 62 -15 85 -15 23 0
62 -7 85 -15 23 -8 64 -15 91 -15 26 0 60 -5 76 -12 30 -12 142 -23 373 -36
80 -5 155 -14 167 -20 31 -17 1335 -17 1366 0 12 6 87 15 167 20 231 13 343
24 373 36 16 7 51 12 78 12 27 0 66 7 86 15 19 8 57 15 83 15 26 0 67 7 90 15
23 8 57 15 76 15 18 0 45 5 61 11 15 6 53 15 83 19 30 5 84 16 120 25 36 9 79
19 95 21 60 10 172 37 260 64 85 26 145 42 225 61 19 4 64 15 100 24 36 9 83
20 105 25 76 18 271 87 394 142 25 11 83 32 130 47 47 16 111 41 141 56 30 15
77 36 105 46 27 9 88 34 135 54 47 20 108 45 135 54 67 24 491 237 530 266 16
13 89 53 160 89 158 81 193 102 315 181 52 35 113 72 136 83 22 11 46 28 54
37 17 21 145 107 201 135 45 23 124 77 176 119 17 14 59 46 93 71 34 25 85 65
114 90 52 45 114 92 189 142 22 15 82 68 132 118 51 49 98 90 104 90 7 0 56
42 109 93 53 52 113 103 132 115 43 25 440 424 440 441 0 7 45 59 100 116 55
58 100 110 100 116 0 6 52 64 115 129 63 66 115 124 115 129 0 6 14 26 30 45
17 19 52 66 78 104 26 38 70 98 99 133 29 35 63 78 76 94 33 40 316 467 353
530 15 28 62 100 102 160 90 133 508 963 552 1093 16 48 43 121 61 162 59 138
92 224 144 375 28 83 59 164 68 182 9 18 17 39 17 48 0 8 20 80 44 158 63 201
76 250 76 283 0 16 7 51 15 78 13 43 15 605 15 4660 0 3261 -4 4623 -11 4651
-6 22 -14 72 -19 110 -4 39 -12 83 -19 98 -6 16 -11 39 -11 51 0 40 -118 267
-165 317 -23 25 -54 63 -68 85 -35 54 -211 225 -277 269 -69 46 -113 69 -192
99 -35 13 -81 30 -103 39 -22 8 -90 27 -151 42 -106 25 -122 26 -305 22 -243
-6 -318 -19 -469 -85 -25 -10 -66 -27 -92 -36 -91 -33 -218 -129 -349 -262
-70 -71 -134 -145 -144 -164 -10 -19 -39 -71 -66 -115 -46 -76 -93 -200 -128
-330 -14 -54 -16 -360 -21 -2890 -3 -1556 -8 -2835 -12 -2841 -4 -6 -23 -19
-42 -28 -30 -14 -90 -16 -488 -16 l-455 0 -21 23 -22 23 0 4020 c-1 3473 -3
4024 -15 4059 -8 22 -15 60 -15 85 0 28 -19 103 -49 190 -39 117 -60 163 -111
240 -75 113 -275 321 -370 385 -85 57 -302 162 -360 174 -25 5 -79 17 -120 26
-61 13 -117 16 -295 12 -283 -5 -337 -18 -571 -135 -136 -68 -172 -94 -311
-223 -40 -38 -103 -114 -155 -189 -81 -117 -136 -239 -191 -430 l-22 -75 -5
-4073 -5 -4074 -24 -19 c-22 -18 -45 -19 -495 -19 l-473 0 -21 23 -22 23 0
4445 c-1 3843 -3 4449 -15 4484 -8 22 -15 54 -15 70 0 80 -103 333 -185 455
-51 77 -277 303 -355 354 -76 51 -248 139 -305 156 -140 42 -158 44 -420 46
-143 1 -271 -2 -285 -7z m504 -123 c28 -8 78 -22 111 -31 73 -21 256 -112 345
-171 79 -52 232 -207 288 -290 80 -121 157 -309 185 -454 7 -38 12 -1419 16
-4520 5 -3441 9 -4470 18 -4486 7 -11 30 -37 53 -57 l40 -37 536 0 c523 0 537
0 565 20 15 12 39 35 51 53 l23 32 6 4065 c5 3694 7 4070 21 4125 78 288 158
433 345 617 116 114 121 118 268 191 83 41 176 82 208 91 31 9 81 23 110 31
37 10 101 15 209 15 116 0 165 -4 191 -15 20 -8 51 -15 70 -15 74 0 297 -98
427 -187 103 -71 223 -197 301 -314 58 -88 78 -131 115 -240 25 -74 50 -168
56 -209 8 -53 13 -1274 17 -4125 5 -3183 9 -4055 18 -4072 7 -11 32 -30 56
-42 42 -21 56 -21 563 -21 l519 0 51 29 c93 54 84 -266 84 2907 0 2517 2 2813
16 2863 62 223 106 335 159 406 13 17 33 50 45 75 51 101 277 298 405 352 261
111 346 131 545 131 102 0 163 -4 205 -16 33 -9 80 -21 105 -27 99 -23 274
-101 371 -166 65 -43 209 -184 209 -205 0 -5 22 -34 49 -62 32 -34 70 -94 110
-175 63 -126 76 -165 91 -283 5 -37 14 -84 20 -105 8 -29 10 -1279 7 -4634 -4
-4910 -1 -4584 -45 -4785 -34 -156 -238 -734 -343 -972 -10 -23 -32 -83 -49
-134 -51 -149 -444 -925 -546 -1076 -47 -70 -93 -141 -101 -158 -17 -32 -302
-460 -356 -533 -18 -24 -52 -67 -77 -95 -25 -29 -72 -90 -103 -137 -101 -149
-136 -193 -226 -285 -48 -49 -99 -106 -112 -125 -22 -34 -171 -198 -225 -250
-15 -14 -37 -36 -50 -50 -13 -14 -44 -45 -69 -70 -24 -25 -56 -57 -71 -71
-128 -130 -174 -175 -251 -245 -48 -44 -106 -93 -128 -109 -22 -16 -78 -66
-125 -111 -47 -44 -103 -92 -125 -106 -22 -14 -47 -33 -54 -42 -8 -10 -28 -24
-44 -33 -17 -8 -51 -34 -76 -58 -25 -23 -60 -51 -77 -61 -17 -11 -46 -32 -65
-47 -96 -79 -220 -167 -274 -194 -47 -24 -161 -101 -176 -119 -7 -8 -33 -26
-58 -39 -25 -12 -83 -48 -128 -78 -45 -31 -101 -66 -125 -78 -24 -12 -56 -32
-73 -44 -16 -13 -86 -51 -155 -85 -68 -34 -138 -73 -155 -85 -37 -29 -491
-255 -511 -255 -7 0 -37 -11 -66 -24 -71 -32 -152 -65 -214 -86 -27 -10 -74
-30 -103 -45 -29 -14 -94 -41 -144 -60 -167 -60 -222 -81 -252 -97 -16 -8 -75
-29 -130 -46 -94 -28 -146 -43 -287 -78 -140 -34 -189 -47 -288 -75 -58 -17
-119 -34 -136 -39 -17 -6 -44 -10 -61 -10 -17 0 -53 -6 -79 -14 -27 -8 -74
-21 -105 -30 -31 -9 -69 -16 -86 -16 -17 0 -50 -7 -73 -15 -23 -8 -57 -15 -74
-15 -17 0 -49 -7 -71 -15 -22 -8 -61 -14 -87 -15 -26 0 -59 -5 -75 -11 -33
-13 -137 -27 -278 -38 -55 -4 -110 -13 -122 -19 -13 -7 -69 -12 -141 -12 -81
0 -133 -5 -162 -15 -63 -22 -1197 -22 -1260 0 -29 10 -81 15 -162 15 -72 0
-128 5 -141 12 -12 6 -67 15 -122 19 -131 10 -246 26 -280 39 -14 5 -47 10
-73 10 -26 1 -65 7 -87 15 -22 8 -54 15 -71 15 -17 0 -51 7 -74 15 -23 8 -57
15 -76 15 -18 0 -45 5 -61 11 -15 6 -53 15 -83 20 -53 8 -79 14 -260 58 -152
38 -203 52 -305 81 -55 16 -129 36 -165 45 -36 9 -137 40 -225 70 -144 47
-212 72 -435 158 -36 14 -99 41 -140 61 -41 20 -80 36 -87 36 -8 0 -49 18 -93
40 -44 22 -86 40 -94 40 -20 0 -591 285 -630 315 -17 12 -83 49 -146 80 -71
35 -255 151 -480 302 -406 271 -459 309 -510 357 -19 19 -53 46 -75 60 -41 27
-106 75 -162 121 -18 15 -50 38 -70 52 -38 25 -158 138 -532 501 -109 105
-204 192 -211 192 -7 0 -110 97 -230 215 -120 118 -223 215 -230 215 -8 0
-118 104 -245 230 -128 127 -238 230 -245 230 -20 0 -376 356 -420 420 -21 30
-48 64 -60 75 -13 11 -35 39 -50 61 -14 23 -38 57 -54 75 -109 134 -228 312
-252 377 -10 26 -30 65 -45 87 -14 22 -34 61 -43 87 -8 26 -42 100 -74 165
-86 172 -211 560 -212 656 -1 23 -7 60 -15 82 -8 22 -15 68 -15 103 0 34 -7
79 -15 99 -13 31 -15 434 -15 3418 0 2984 2 3387 15 3418 8 20 15 51 15 70 0
39 63 233 84 256 7 9 23 34 34 56 28 57 88 145 124 182 17 17 47 56 67 85 21
29 59 67 85 85 27 17 65 47 85 66 20 19 56 45 81 57 25 13 59 33 75 45 39 29
127 73 179 90 23 7 64 22 91 33 144 58 415 84 555 53 110 -24 186 -43 240 -60
83 -27 310 -144 360 -186 24 -20 55 -42 69 -50 35 -18 193 -181 219 -226 12
-19 31 -44 43 -55 49 -44 153 -287 194 -454 9 -36 22 -78 28 -95 9 -23 13
-518 17 -2041 l5 -2011 27 -35 c54 -71 27 -69 708 -66 l611 3 50 52 49 52 0
4874 c0 4307 2 4879 15 4917 8 23 15 56 15 72 0 37 60 218 93 285 48 94 100
159 225 286 127 128 127 129 275 203 137 69 178 85 328 128 77 22 354 23 406
1 19 -8 44 -15 54 -15 31 0 228 -69 301 -106 169 -85 363 -257 427 -379 17
-33 46 -83 64 -112 36 -57 94 -220 126 -354 l21 -87 0 -4052 0 -4052 34 -34
34 -34 553 0 552 0 34 26 c18 14 41 37 51 52 16 25 17 282 22 4502 5 3661 8
4483 19 4520 46 158 116 353 144 400 17 30 97 122 177 204 l145 148 136 69
c132 66 239 108 276 110 10 0 34 6 53 13 51 20 376 21 444 2z"/>
<path d="M8405 6754 c-395 -53 -691 -181 -942 -406 -370 -331 -562 -707 -633
-1239 -26 -193 -28 -605 -5 -803 44 -367 148 -658 333 -926 81 -116 303 -341
421 -424 166 -118 413 -226 641 -279 219 -52 645 -68 885 -33 455 66 777 224
1066 523 298 307 452 653 515 1152 20 155 22 547 5 711 -41 383 -160 727 -339
979 -131 185 -354 394 -539 505 -203 121 -465 207 -736 241 -155 19 -529 18
-672 -1z m532 -115 c458 -38 848 -209 1133 -499 331 -336 510 -845 510 -1445
0 -716 -252 -1289 -711 -1617 -171 -123 -435 -237 -649 -282 -138 -29 -310
-46 -458 -46 -867 0 -1502 444 -1732 1212 -166 556 -118 1295 114 1756 149
295 362 531 620 687 305 183 740 270 1173 234z"/>
<path d="M8574 6090 c-90 -10 -241 -53 -319 -93 -208 -104 -390 -284 -485
-480 -56 -117 -75 -178 -112 -356 -31 -155 -31 -157 -31 -461 0 -303 0 -306
31 -453 28 -133 80 -287 129 -381 80 -155 275 -356 427 -441 174 -97 330 -129
596 -122 162 4 196 8 273 31 183 54 290 118 435 260 282 275 383 603 369 1196
-6 219 -10 261 -37 393 -57 279 -155 464 -337 637 -238 226 -537 312 -939 270z
m306 -125 c290 -35 519 -168 665 -384 127 -188 195 -421 216 -733 29 -441 -64
-833 -256 -1075 -327 -414 -974 -470 -1376 -120 -81 71 -176 192 -223 284
-160 317 -204 772 -118 1198 108 527 428 807 962 843 8 1 67 -5 130 -13z"/>
<path d="M16555 6753 c-226 -30 -484 -111 -646 -203 -171 -97 -343 -243 -486
-413 -236 -282 -374 -615 -429 -1037 -22 -171 -25 -621 -5 -785 60 -500 235
-876 545 -1179 291 -283 609 -432 1048 -493 170 -23 529 -23 693 1 237 34 387
78 570 166 153 73 277 156 402 269 339 305 522 668 599 1186 21 141 29 539 15
705 -55 643 -290 1103 -734 1442 -239 182 -544 301 -884 343 -153 19 -537 18
-688 -2z m680 -128 c732 -107 1237 -554 1429 -1265 106 -391 108 -909 6 -1306
-44 -168 -65 -226 -140 -379 -86 -177 -174 -301 -314 -440 -317 -317 -764
-485 -1286 -485 -486 0 -917 145 -1231 413 -277 237 -472 591 -553 1004 -37
188 -48 315 -47 533 1 465 97 848 292 1162 158 255 391 473 639 598 166 83
443 158 666 179 128 12 411 5 539 -14z"/>
<path d="M16730 6089 c-144 -17 -316 -82 -445 -170 -75 -50 -224 -200 -274
-275 -96 -143 -138 -250 -181 -461 -40 -193 -54 -431 -40 -646 5 -89 15 -187
21 -217 49 -261 108 -415 217 -568 71 -99 200 -227 295 -291 72 -49 201 -106
297 -133 78 -21 105 -23 310 -22 199 0 234 3 304 22 333 92 605 353 730 700
73 204 107 530 88 845 -28 451 -136 729 -371 948 -241 225 -555 314 -951 268z
m362 -130 c175 -24 370 -116 494 -232 150 -140 249 -333 306 -596 30 -143 31
-152 32 -416 1 -242 -1 -282 -22 -390 -41 -215 -103 -373 -201 -512 -128 -181
-307 -303 -539 -365 -115 -30 -344 -31 -464 -1 -399 101 -651 387 -749 853
-32 152 -33 161 -33 405 1 239 2 256 31 400 58 283 132 434 288 590 81 81 118
111 195 152 209 113 413 148 662 112z"/>
<path d="M3078 6694 c-15 -8 -31 -27 -35 -42 -5 -15 -8 -902 -8 -1970 l0
-1944 28 -24 28 -24 398 0 c386 0 399 1 424 21 l26 20 3 814 c3 766 4 815 21
832 17 17 58 18 691 18 552 0 676 -2 689 -14 15 -12 17 -88 19 -828 l3 -815
28 -24 28 -24 400 0 400 0 24 25 25 24 0 1955 c0 1075 -3 1962 -6 1971 -17 42
-44 45 -444 45 -421 0 -428 -1 -449 -61 -8 -22 -11 -246 -11 -735 0 -625 -2
-704 -16 -718 -14 -14 -90 -16 -693 -16 -619 0 -680 1 -692 17 -12 13 -14 140
-15 724 -1 390 -4 720 -8 733 -13 54 -31 56 -448 56 -319 -1 -388 -3 -410 -16z
m725 -123 c16 -12 17 -75 17 -723 0 -777 -1 -769 57 -785 15 -4 371 -8 790 -8
l763 0 27 28 28 27 3 724 c2 655 4 725 19 737 13 11 79 14 315 14 285 0 300
-1 314 -19 12 -17 14 -288 14 -1870 0 -1707 -1 -1851 -17 -1868 -15 -17 -38
-18 -314 -18 -257 0 -300 2 -313 16 -14 14 -16 101 -16 810 0 867 1 849 -56
872 -22 9 -220 12 -796 10 l-767 -3 -23 -23 -23 -23 -5 -820 c-4 -714 -7 -821
-20 -829 -9 -6 -142 -10 -312 -10 -257 0 -299 2 -312 16 -15 14 -16 195 -14
1877 l3 1861 25 13 c37 19 590 14 613 -6z"/>
<path d="M11248 6694 c-18 -9 -31 -28 -38 -53 -7 -27 -9 -651 -8 -1971 l3
-1932 28 -24 28 -24 373 0 c353 0 375 1 397 19 l24 19 5 1130 c3 622 9 1134
13 1138 4 4 18 -3 32 -17 13 -13 322 -508 688 -1099 365 -591 675 -1094 690
-1117 49 -77 23 -73 480 -73 l408 0 24 25 25 24 0 1955 0 1955 -24 28 -24 28
-371 3 -370 3 -33 -30 -33 -29 -5 -1148 c-4 -860 -8 -1148 -17 -1151 -6 -2
-23 11 -37 29 -14 18 -336 539 -715 1158 -518 848 -696 1131 -721 1148 -33 22
-35 22 -414 22 -316 -1 -386 -3 -408 -16z m714 -114 c44 -13 -11 72 633 -980
886 -1446 940 -1533 965 -1551 44 -31 66 -32 97 -5 l28 24 3 1245 c2 1139 4
1246 19 1258 23 20 556 20 575 1 11 -11 13 -362 16 -1867 2 -1846 2 -1855 -18
-1875 -19 -19 -33 -20 -327 -20 -225 0 -314 4 -332 13 -15 8 -283 432 -768
1217 -409 663 -757 1221 -772 1240 -42 52 -107 54 -129 5 -9 -19 -12 -331 -12
-1230 0 -1192 0 -1205 -20 -1225 -19 -19 -33 -20 -289 -20 -232 0 -272 2 -285
16 -15 14 -16 195 -14 1877 l3 1861 25 13 c31 16 546 18 602 3z"/>
<path d="M19415 6698 c-11 -6 -25 -19 -32 -27 -10 -13 -12 -451 -13 -1974 l0
-1958 25 -24 24 -25 400 0 400 0 28 24 28 24 3 776 2 776 24 15 c21 14 43 14
169 5 80 -5 169 -15 199 -21 81 -17 196 -81 265 -149 100 -96 155 -175 776
-1095 136 -202 232 -335 247 -342 19 -10 139 -13 496 -13 462 0 472 0 498 21
31 24 34 64 10 112 -26 49 -506 815 -597 952 -97 145 -235 327 -312 412 -31
34 -97 97 -148 139 -60 51 -92 85 -92 98 0 17 21 28 125 66 238 87 390 196
532 383 181 237 248 601 177 958 -42 215 -127 374 -289 543 -208 216 -436 296
-937 326 -247 14 -1982 13 -2008 -2z m1910 -119 c447 -24 680 -86 870 -231
135 -103 268 -319 322 -523 24 -89 26 -118 26 -270 0 -153 -2 -180 -27 -273
-60 -232 -198 -431 -376 -544 -126 -80 -281 -143 -443 -178 -98 -22 -134 -39
-146 -73 -17 -46 7 -74 132 -160 208 -141 351 -298 564 -617 168 -253 533
-846 533 -867 0 -11 -7 -24 -16 -27 -9 -3 -169 -6 -357 -6 -252 0 -348 4 -366
13 -14 7 -164 220 -365 518 -461 684 -513 757 -631 875 -107 107 -186 160
-285 188 -105 30 -518 49 -562 25 -48 -26 -48 -27 -48 -838 0 -741 0 -761 -19
-771 -12 -6 -130 -10 -312 -10 -258 0 -295 2 -311 17 -17 15 -18 87 -18 1868
0 1466 3 1855 13 1867 6 9 21 18 32 21 42 10 1606 7 1790 -4z"/>
<path d="M20202 6040 c-50 -21 -52 -44 -52 -537 0 -287 4 -472 11 -495 19 -69
11 -68 538 -68 456 0 673 9 776 32 180 40 342 203 375 378 18 94 12 280 -10
353 -35 114 -131 223 -247 281 -111 56 -128 57 -773 62 -382 3 -603 1 -618 -6z
m1201 -134 c145 -32 244 -103 294 -212 55 -121 53 -264 -6 -389 -37 -81 -78
-125 -149 -163 -118 -63 -134 -65 -710 -69 -399 -4 -526 -2 -537 7 -13 11 -15
75 -15 416 l0 403 23 16 c20 15 67 16 527 11 392 -4 520 -9 573 -20z"/>
</g>
</svg>
