<?xml version="1.0" standalone="no"?>
<!DOCTYPE svg PUBLIC "-//W3C//DTD SVG 20010904//EN"
 "http://www.w3.org/TR/2001/REC-SVG-20010904/DTD/svg10.dtd">
<svg version="1.0" xmlns="http://www.w3.org/2000/svg"
 width="2550.000000pt" height="3300.000000pt" viewBox="0 0 2550.000000 3300.000000"
 preserveAspectRatio="xMidYMid meet">
<metadata>
Created by potrace 1.14, written by Peter Selinger 2001-2017
</metadata>
<g transform="translate(0.000000,3300.000000) scale(0.100000,-0.100000)"
fill="#000000" stroke="none">
<path d="M10161 30044 c-82 -22 -147 -62 -208 -128 -95 -103 -133 -214 -133
-391 0 -168 48 -292 151 -390 90 -86 194 -125 334 -125 139 0 243 38 331 122
102 97 143 195 151 363 11 233 -60 393 -220 496 -99 64 -278 88 -406 53z m259
-60 c97 -22 180 -77 229 -153 58 -90 76 -163 75 -306 -1 -128 -16 -191 -69
-280 -114 -195 -462 -234 -642 -71 -167 150 -177 521 -20 701 90 104 260 147
427 109z"/>
<path d="M10206 29886 c-88 -33 -156 -114 -182 -216 -24 -95 -15 -249 19 -324
55 -121 159 -183 288 -174 110 8 185 64 236 176 44 95 42 305 -4 397 -22 44
-82 104 -128 128 -52 26 -173 33 -229 13z m216 -78 c82 -45 113 -120 113 -279
0 -99 -2 -109 -33 -172 -26 -53 -42 -72 -77 -92 -122 -72 -267 -24 -325 108
-45 100 -34 284 21 373 21 34 69 69 117 85 45 14 137 3 184 -23z"/>
<path d="M16702 30045 c-69 -19 -86 -29 -139 -78 -70 -64 -88 -107 -88 -207 0
-101 18 -143 90 -209 58 -53 117 -80 269 -120 137 -37 172 -53 181 -82 10 -30
-14 -78 -48 -95 -40 -21 -124 -28 -173 -15 -59 16 -90 44 -109 100 -24 73 -29
75 -136 62 -113 -13 -123 -20 -114 -80 14 -100 85 -207 169 -256 96 -56 312
-71 444 -30 69 21 147 86 186 155 29 51 31 62 31 150 0 110 -15 148 -87 216
-55 53 -104 78 -220 110 -220 61 -248 76 -233 124 9 29 86 54 146 47 67 -8 96
-28 109 -76 16 -60 27 -65 133 -56 50 4 98 11 105 17 16 14 15 54 -4 118 -21
71 -116 168 -189 194 -70 25 -253 31 -323 11z m302 -71 c67 -23 131 -88 149
-151 l14 -48 -41 -7 c-72 -12 -86 -10 -86 12 0 31 -67 98 -108 110 -179 49
-339 -73 -242 -184 32 -36 63 -49 248 -100 205 -57 266 -118 267 -266 0 -64
-4 -82 -29 -127 -50 -90 -131 -130 -286 -140 -157 -10 -285 37 -341 125 -35
56 -56 119 -43 131 5 5 32 11 60 13 l52 5 11 -37 c14 -47 86 -115 137 -129 49
-14 138 -14 186 -1 108 30 162 148 102 220 -36 42 -62 54 -199 90 -252 68
-319 124 -320 270 0 113 64 191 185 225 69 19 214 13 284 -11z"/>
<path d="M4762 30028 c-17 -17 -17 -969 0 -986 17 -17 202 -16 217 1 7 9 12
98 13 257 l3 244 54 -235 c30 -129 60 -244 68 -256 13 -22 20 -23 128 -23 108
0 115 1 128 23 8 12 38 127 68 256 l54 235 3 -244 c1 -159 6 -248 13 -257 15
-17 200 -18 217 -1 17 17 17 969 0 986 -16 16 -329 17 -346 0 -6 -6 -39 -128
-74 -271 l-63 -260 -63 258 c-34 142 -67 264 -73 272 -15 18 -329 19 -347 1z
m378 -365 c41 -172 81 -318 88 -325 32 -32 45 4 122 323 l75 314 128 3 127 3
0 -446 0 -445 -60 0 -60 0 0 364 c0 319 -2 365 -16 377 -36 30 -46 2 -133
-374 l-86 -367 -80 0 -80 0 -86 367 c-87 376 -97 404 -133 374 -14 -12 -16
-58 -16 -377 l0 -364 -60 0 -60 0 0 445 0 446 127 -3 128 -3 75 -312z"/>
<path d="M5872 30028 c-17 -17 -17 -969 0 -986 16 -16 210 -16 226 0 17 17 17
969 0 986 -8 8 -48 12 -113 12 -65 0 -105 -4 -113 -12z m178 -493 l0 -445 -65
0 -65 0 0 445 0 445 65 0 65 0 0 -445z"/>
<path d="M6252 30028 c-17 -17 -17 -969 0 -986 17 -17 202 -16 217 1 7 9 12
101 13 270 l3 257 165 -267 165 -268 109 -3 c71 -2 113 1 122 9 19 16 21 968
2 987 -17 17 -202 16 -217 -1 -7 -9 -12 -103 -13 -275 l-3 -262 -155 252 c-85
138 -163 262 -173 275 -17 21 -25 23 -121 23 -66 0 -106 -4 -114 -12z m380
-358 c103 -168 194 -309 202 -314 10 -7 20 -5 30 3 14 12 16 52 16 317 l0 304
60 0 60 0 0 -445 0 -445 -74 0 -73 0 -188 306 c-104 168 -194 308 -202 311 -7
3 -20 0 -28 -7 -13 -11 -15 -59 -15 -311 l0 -299 -60 0 -60 0 0 445 0 446 72
-3 72 -3 188 -305z"/>
<path d="M7213 30029 c-10 -10 -13 -123 -13 -495 0 -408 2 -483 14 -494 11 -8
81 -11 268 -8 284 5 316 11 404 77 111 84 163 202 171 386 8 204 -31 329 -137
435 -97 97 -124 103 -435 108 -201 3 -263 1 -272 -9z m569 -78 c146 -57 227
-228 215 -456 -8 -155 -64 -284 -146 -338 -82 -54 -118 -61 -363 -65 l-228 -4
0 447 0 447 233 -4 c211 -4 237 -6 289 -27z"/>
<path d="M7402 29868 c-9 -9 -12 -97 -12 -333 0 -236 3 -324 12 -333 15 -15
247 -16 302 -1 56 16 121 80 143 142 14 41 18 83 18 197 0 126 -3 151 -21 191
-31 66 -84 115 -146 134 -64 19 -278 21 -296 3z m275 -63 c98 -29 128 -93 128
-270 0 -236 -43 -284 -252 -285 l-103 0 0 285 0 285 88 0 c50 0 111 -7 139
-15z"/>
<path d="M8913 30029 c-10 -10 -13 -123 -13 -495 0 -410 2 -483 15 -494 11 -9
90 -11 317 -8 343 4 356 6 437 87 58 58 83 113 89 196 6 90 -21 156 -84 215
l-45 41 34 39 c111 130 56 326 -112 404 -43 20 -66 21 -336 24 -224 3 -293 0
-302 -9z m630 -82 c44 -22 63 -39 85 -75 53 -91 29 -207 -54 -264 -54 -36 -50
-56 16 -93 45 -24 60 -40 83 -85 24 -46 28 -64 24 -111 -8 -94 -60 -169 -142
-206 -34 -15 -80 -18 -317 -21 l-278 -4 0 447 0 447 263 -4 262 -3 58 -28z"/>
<path d="M9103 29869 c-18 -18 -18 -240 -1 -257 15 -15 276 -17 329 -2 57 16
92 60 97 124 4 52 3 56 -36 98 l-41 43 -168 3 c-126 3 -171 0 -180 -9z m306
-55 c46 -9 67 -45 55 -92 -12 -50 -47 -61 -196 -61 l-118 -1 0 80 0 80 114 0
c62 0 128 -3 145 -6z"/>
<path d="M9103 29489 c-18 -18 -18 -270 -1 -287 18 -18 328 -16 371 2 18 7 47
30 65 50 59 68 37 170 -48 220 -31 19 -55 21 -205 24 -128 3 -173 0 -182 -9z
m358 -68 c43 -21 61 -79 38 -123 -20 -37 -69 -48 -214 -48 l-135 0 0 96 0 96
143 -4 c86 -3 152 -10 168 -17z"/>
<path d="M10903 30029 c-10 -10 -13 -123 -13 -495 0 -408 2 -483 14 -494 11
-8 81 -11 268 -8 284 5 316 11 404 77 111 84 163 202 171 386 8 204 -31 329
-137 435 -97 97 -124 103 -435 108 -201 3 -263 1 -272 -9z m569 -78 c146 -57
227 -228 215 -456 -8 -155 -64 -284 -146 -338 -82 -54 -118 -61 -363 -65
l-228 -4 0 447 0 447 233 -4 c211 -4 237 -6 289 -27z"/>
<path d="M11092 29868 c-17 -17 -17 -649 0 -666 15 -15 247 -16 302 -1 56 16
121 80 143 142 14 41 18 83 18 197 0 126 -3 151 -21 191 -31 66 -84 115 -146
134 -64 19 -278 21 -296 3z m275 -63 c98 -29 128 -93 128 -270 0 -236 -43
-284 -252 -285 l-103 0 0 285 0 285 88 0 c50 0 111 -7 139 -15z"/>
<path d="M11772 30028 c-7 -7 -12 -18 -12 -24 0 -7 77 -134 170 -283 l170
-270 0 -199 c0 -141 3 -201 12 -210 16 -16 210 -16 226 0 9 9 12 69 12 209 l0
197 170 272 c94 149 170 277 170 284 0 29 -25 36 -140 36 -99 0 -119 -3 -132
-17 -8 -10 -54 -88 -102 -173 -49 -85 -89 -156 -90 -157 -1 -1 -42 68 -90 155
-49 86 -96 165 -104 175 -13 14 -33 17 -132 17 -77 0 -120 -4 -128 -12z m320
-230 c57 -99 110 -186 120 -191 12 -8 21 -7 31 1 8 7 61 94 116 192 l102 180
74 0 75 0 -48 -77 c-27 -43 -99 -158 -160 -256 l-112 -178 0 -190 0 -189 -65
0 -65 0 0 190 0 191 -137 217 c-75 119 -147 234 -160 255 l-23 37 74 0 75 0
103 -182z"/>
<path d="M13542 30027 c-6 -7 -90 -226 -187 -487 -127 -341 -174 -479 -167
-490 14 -23 218 -27 243 -4 10 9 32 59 49 110 l32 94 153 0 153 0 31 -86 c17
-47 31 -89 31 -93 0 -4 8 -15 18 -24 26 -24 223 -25 242 -1 11 13 -14 91 -160
492 -95 262 -178 483 -183 490 -13 17 -240 17 -255 -1z m369 -486 c88 -239
159 -438 159 -443 0 -4 -29 -8 -64 -8 l-63 0 -33 93 c-18 50 -40 100 -48 110
-13 15 -36 17 -197 17 -156 0 -185 -2 -196 -16 -8 -9 -28 -58 -45 -108 l-31
-91 -67 -3 c-55 -2 -67 0 -64 11 2 8 75 209 163 446 l160 431 84 -2 84 -3 158
-434z"/>
<path d="M13643 29798 c-12 -16 -123 -331 -123 -350 0 -32 24 -38 145 -38 123
0 145 6 145 39 0 20 -110 332 -123 349 -5 6 -15 12 -22 12 -7 0 -17 -6 -22
-12z m56 -209 c16 -46 32 -92 36 -101 6 -16 0 -18 -68 -18 l-76 0 36 106 c19
58 37 103 39 101 2 -2 17 -42 33 -88z"/>
<path d="M14212 30028 c-17 -17 -17 -969 0 -986 17 -17 202 -16 217 1 7 9 12
101 13 270 l3 257 165 -267 165 -268 109 -3 c71 -2 113 1 122 9 19 16 21 968
2 987 -17 17 -202 16 -217 -1 -7 -9 -12 -103 -13 -275 l-3 -262 -155 252 c-85
138 -163 262 -173 275 -17 21 -25 23 -121 23 -66 0 -106 -4 -114 -12z m380
-358 c103 -168 194 -309 202 -314 10 -7 20 -5 30 3 14 12 16 52 16 317 l0 304
60 0 60 0 0 -445 0 -445 -74 0 -73 0 -188 306 c-104 168 -194 308 -202 311 -7
3 -20 0 -28 -7 -13 -11 -15 -59 -15 -311 l0 -299 -60 0 -60 0 0 445 0 446 72
-3 72 -3 188 -305z"/>
<path d="M15173 30029 c-10 -10 -13 -123 -13 -495 0 -408 2 -483 14 -494 11
-8 81 -11 268 -8 284 5 316 11 404 77 111 84 163 202 171 386 8 204 -31 329
-137 435 -97 97 -124 103 -435 108 -201 3 -263 1 -272 -9z m569 -78 c146 -57
227 -228 215 -456 -8 -155 -64 -284 -146 -338 -82 -54 -118 -61 -363 -65
l-228 -4 0 447 0 447 233 -4 c211 -4 237 -6 289 -27z"/>
<path d="M15362 29868 c-17 -17 -17 -649 0 -666 15 -15 247 -16 302 -1 56 16
121 80 143 142 14 41 18 83 18 197 0 126 -3 151 -21 191 -31 66 -84 115 -146
134 -64 19 -278 21 -296 3z m275 -63 c98 -29 128 -93 128 -270 0 -236 -43
-284 -252 -285 l-103 0 0 285 0 285 88 0 c50 0 111 -7 139 -15z"/>
<path d="M17393 30029 c-18 -18 -19 -969 -1 -987 16 -16 210 -16 226 0 8 8 12
62 12 179 l0 166 148 6 c170 6 219 19 284 77 24 21 57 62 73 91 28 50 30 62
30 154 0 89 -3 106 -28 157 -32 64 -80 111 -146 142 -42 19 -68 21 -316 24
-210 3 -273 1 -282 -9z m593 -84 c51 -27 62 -38 89 -90 26 -51 30 -69 30 -139
0 -71 -4 -88 -29 -134 -56 -100 -112 -122 -326 -129 -85 -3 -161 -10 -167 -15
-10 -8 -13 -56 -13 -179 l0 -169 -65 0 -65 0 0 446 0 446 243 -3 243 -4 60
-30z"/>
<path d="M17582 29868 c-17 -17 -17 -289 0 -306 14 -14 213 -16 272 -2 25 5
55 24 80 49 39 40 41 44 41 106 0 61 -2 66 -40 105 -21 22 -55 45 -75 50 -51
14 -263 13 -278 -2z m292 -71 c55 -37 57 -120 4 -160 -23 -17 -47 -21 -138
-25 l-110 -5 0 108 0 107 108 -3 c83 -3 115 -8 136 -22z"/>
<path d="M18272 30028 c-17 -17 -17 -969 0 -986 16 -16 210 -16 226 0 17 17
17 969 0 986 -8 8 -48 12 -113 12 -65 0 -105 -4 -113 -12z m178 -493 l0 -445
-65 0 -65 0 0 445 0 445 65 0 65 0 0 -445z"/>
<path d="M18653 30029 c-18 -18 -19 -969 -1 -987 16 -16 210 -16 226 0 8 8 12
67 12 200 l0 188 35 0 c85 0 131 -42 252 -235 112 -178 95 -166 236 -163 95 2
122 6 130 18 7 12 -13 52 -84 169 -52 84 -113 175 -137 202 l-43 48 35 15 c44
18 106 80 131 131 15 31 20 61 20 130 0 82 -3 95 -31 145 -34 61 -94 113 -152
131 -55 18 -613 25 -629 8z m563 -60 c83 -15 127 -43 158 -99 51 -95 43 -204
-20 -279 -27 -31 -49 -45 -97 -60 -92 -28 -94 -40 -21 -109 41 -39 87 -99 142
-190 45 -73 82 -134 82 -137 0 -3 -33 -5 -72 -5 l-73 0 -67 109 c-99 159 -169
245 -221 270 -49 24 -165 29 -185 9 -8 -8 -12 -67 -12 -200 l0 -188 -65 0 -65
0 0 445 0 445 228 0 c126 0 255 -5 288 -11z"/>
<path d="M18842 29868 c-19 -19 -16 -252 3 -268 11 -9 59 -11 178 -9 180 4
199 10 238 72 15 24 19 44 16 85 -4 59 -30 95 -84 118 -43 18 -333 20 -351 2z
m332 -62 c25 -10 36 -22 41 -46 8 -36 -9 -85 -33 -96 -10 -4 -79 -9 -154 -12
l-138 -4 0 86 0 86 125 0 c85 0 136 -5 159 -14z"/>
<path d="M19602 30028 c-17 -17 -17 -969 0 -986 16 -16 210 -16 226 0 17 17
17 969 0 986 -8 8 -48 12 -113 12 -65 0 -105 -4 -113 -12z m178 -493 l0 -445
-65 0 -65 0 0 445 0 445 65 0 65 0 0 -445z"/>
<path d="M19912 30028 c-16 -16 -16 -180 0 -196 8 -8 54 -12 140 -12 l128 0 0
-383 c0 -285 3 -386 12 -395 16 -16 210 -16 226 0 9 9 12 110 12 395 l0 383
128 0 c86 0 132 4 140 12 7 7 12 44 12 98 0 54 -5 91 -12 98 -9 9 -110 12
-393 12 -283 0 -384 -3 -393 -12z m738 -98 l0 -50 -128 0 c-86 0 -132 -4 -140
-12 -9 -9 -12 -110 -12 -395 l0 -383 -65 0 -65 0 0 383 c0 285 -3 386 -12 395
-8 8 -54 12 -140 12 l-128 0 0 50 0 50 345 0 345 0 0 -50z"/>
<path d="M8162 29258 c-8 -8 -12 -47 -12 -108 0 -105 7 -120 52 -120 18 0 28
-5 28 -15 0 -17 -38 -55 -55 -55 -7 0 -20 -9 -30 -20 -17 -19 -17 -21 0 -60
10 -22 26 -47 36 -56 16 -15 23 -15 51 -3 59 24 126 96 143 152 19 63 21 267
3 285 -8 8 -47 12 -108 12 -61 0 -100 -4 -108 -12z m166 -150 c-4 -120 -23
-170 -78 -206 -48 -32 -50 -10 -2 35 28 26 42 50 48 77 9 51 -4 70 -50 74
l-36 3 0 60 0 59 61 0 61 0 -4 -102z"/>
<path d="M12592 29258 c-16 -16 -16 -200 0 -216 7 -7 25 -12 40 -12 18 0 28
-5 28 -15 0 -17 -38 -55 -55 -55 -7 0 -20 -9 -30 -20 -17 -19 -17 -21 0 -60
10 -22 26 -47 36 -56 16 -15 23 -15 51 -3 59 24 126 96 143 152 19 63 21 267
3 285 -8 8 -47 12 -108 12 -61 0 -100 -4 -108 -12z m166 -150 c-4 -120 -23
-170 -78 -206 -48 -32 -50 -10 -2 35 28 26 42 50 48 77 9 51 -4 70 -50 74
l-36 3 0 60 0 59 61 0 61 0 -4 -102z"/>
<path d="M7064 28516 c-168 -41 -303 -194 -334 -379 -18 -105 -8 -256 23 -339
44 -122 155 -235 269 -275 81 -28 263 -25 341 6 82 32 167 114 212 203 40 80
42 98 18 120 -24 21 -180 71 -198 64 -8 -3 -27 -34 -43 -69 -44 -96 -112 -137
-205 -123 -67 10 -107 42 -142 111 -28 57 -30 67 -30 180 0 104 3 127 23 172
29 63 55 88 111 108 98 34 188 4 232 -78 39 -72 37 -71 131 -52 92 20 128 37
128 63 0 67 -114 213 -200 257 -87 44 -228 57 -336 31z m218 -57 c106 -23 183
-79 227 -166 12 -23 21 -44 21 -46 0 -2 -26 -10 -57 -17 -53 -11 -58 -11 -68
5 -24 43 -83 99 -120 116 -50 23 -137 24 -196 4 -57 -20 -122 -84 -151 -149
-21 -46 -23 -66 -23 -191 0 -125 3 -146 24 -192 30 -67 105 -138 162 -153 115
-31 228 12 286 109 18 30 34 58 35 63 3 9 96 -18 112 -32 14 -13 -54 -129 -98
-166 -66 -56 -135 -78 -251 -78 -135 0 -197 24 -281 108 -64 64 -95 127 -115
230 -31 165 20 365 118 458 92 88 238 126 375 97z"/>
<path d="M8021 28514 c-82 -22 -147 -62 -208 -128 -95 -103 -133 -214 -133
-391 0 -168 48 -292 151 -390 90 -86 194 -125 334 -125 139 0 243 38 331 122
102 97 143 195 151 363 11 233 -60 393 -220 496 -99 64 -278 88 -406 53z m259
-60 c97 -22 180 -77 229 -153 58 -90 76 -163 75 -306 -1 -128 -16 -191 -69
-280 -114 -195 -462 -234 -642 -71 -167 150 -177 521 -20 701 90 104 260 147
427 109z"/>
<path d="M8066 28356 c-88 -33 -156 -114 -182 -216 -24 -95 -15 -249 19 -324
55 -121 159 -183 288 -174 110 8 185 64 236 176 44 95 42 305 -4 397 -22 44
-82 104 -128 128 -52 26 -173 33 -229 13z m216 -78 c82 -45 113 -120 113 -279
0 -99 -2 -109 -33 -172 -26 -53 -42 -72 -77 -92 -122 -72 -267 -24 -325 108
-45 100 -34 284 21 373 21 34 69 69 117 85 45 14 137 3 184 -23z"/>
<path d="M14501 28514 c-82 -22 -147 -62 -208 -128 -95 -103 -133 -214 -133
-391 0 -168 48 -292 151 -390 90 -86 194 -125 334 -125 139 0 243 38 331 122
102 97 143 195 151 363 11 233 -60 393 -220 496 -99 64 -278 88 -406 53z m259
-60 c97 -22 180 -77 229 -153 58 -90 76 -163 75 -306 -1 -128 -16 -191 -69
-280 -114 -195 -462 -234 -642 -71 -167 150 -177 521 -20 701 90 104 260 147
427 109z"/>
<path d="M14546 28356 c-88 -33 -156 -114 -182 -216 -24 -95 -15 -249 19 -324
55 -121 159 -183 288 -174 110 8 185 64 236 176 44 95 42 305 -4 397 -22 44
-82 104 -128 128 -52 26 -173 33 -229 13z m216 -78 c82 -45 113 -120 113 -279
0 -99 -2 -109 -33 -172 -26 -53 -42 -72 -77 -92 -122 -72 -267 -24 -325 108
-45 100 -34 284 21 373 21 34 69 69 117 85 45 14 137 3 184 -23z"/>
<path d="M15932 28520 c-109 -23 -241 -119 -298 -216 -89 -152 -98 -392 -19
-557 30 -64 99 -145 159 -186 112 -77 290 -101 446 -62 98 24 197 70 246 113
l34 30 0 202 c0 144 -3 205 -12 214 -9 9 -72 12 -223 12 -151 0 -214 -3 -223
-12 -7 -7 -12 -44 -12 -98 0 -54 5 -91 12 -98 8 -8 47 -12 111 -12 l98 0 -3
-42 c-3 -42 -5 -44 -63 -73 -50 -25 -72 -30 -130 -30 -75 1 -118 16 -167 63
-60 56 -92 212 -68 336 25 134 101 200 230 201 87 0 136 -25 171 -89 14 -25
30 -51 36 -57 14 -14 199 23 221 45 14 14 14 20 -1 70 -32 101 -125 194 -232
231 -58 20 -246 29 -313 15z m233 -61 c129 -24 218 -93 249 -195 6 -19 1 -22
-56 -34 -58 -11 -64 -11 -73 7 -23 41 -102 109 -141 121 -95 28 -212 6 -282
-54 -85 -72 -119 -175 -109 -332 6 -116 33 -184 94 -244 74 -71 103 -83 208
-83 97 0 153 18 222 71 32 24 33 27 33 98 0 43 -5 77 -12 84 -8 8 -47 12 -110
12 l-98 0 0 50 0 50 175 0 175 0 0 -175 0 -174 -62 -35 c-103 -57 -197 -81
-313 -81 -214 0 -350 93 -416 285 -19 53 -23 86 -23 180 1 123 16 186 68 275
83 141 272 211 471 174z"/>
<path d="M8752 28498 c-17 -17 -17 -969 0 -986 17 -17 202 -16 217 1 7 9 12
98 13 257 l3 244 54 -235 c30 -129 60 -244 68 -256 13 -22 20 -23 128 -23 108
0 115 1 128 23 8 12 38 127 68 256 l54 235 3 -244 c1 -159 6 -248 13 -257 15
-17 200 -18 217 -1 17 17 17 969 0 986 -16 16 -329 17 -346 0 -6 -6 -39 -128
-74 -271 l-63 -260 -63 258 c-34 142 -67 264 -73 272 -15 18 -329 19 -347 1z
m378 -365 c41 -172 81 -318 88 -325 32 -32 45 4 122 323 l75 314 128 3 127 3
0 -446 0 -445 -60 0 -60 0 0 364 c0 319 -2 365 -16 377 -36 30 -46 2 -133
-374 l-86 -367 -80 0 -80 0 -86 367 c-87 376 -97 404 -133 374 -14 -12 -16
-58 -16 -377 l0 -364 -60 0 -60 0 0 445 0 446 127 -3 128 -3 75 -312z"/>
<path d="M9873 28499 c-10 -10 -13 -123 -13 -495 0 -410 2 -483 15 -494 11 -9
90 -11 317 -8 343 4 356 6 437 87 58 58 83 113 89 196 6 90 -21 156 -84 215
l-45 41 34 39 c111 130 56 326 -112 404 -43 20 -66 21 -336 24 -224 3 -293 0
-302 -9z m630 -82 c44 -22 63 -39 85 -75 53 -91 29 -207 -54 -264 -54 -36 -50
-56 16 -93 45 -24 60 -40 83 -85 24 -46 28 -64 24 -111 -8 -94 -60 -169 -142
-206 -34 -15 -80 -18 -317 -21 l-278 -4 0 447 0 447 263 -4 262 -3 58 -28z"/>
<path d="M10063 28339 c-18 -18 -18 -240 -1 -257 15 -15 276 -17 329 -2 57 16
92 60 97 124 4 52 3 56 -36 98 l-41 43 -168 3 c-126 3 -171 0 -180 -9z m306
-55 c46 -9 67 -45 55 -92 -12 -50 -47 -61 -196 -61 l-118 -1 0 80 0 80 114 0
c62 0 128 -3 145 -6z"/>
<path d="M10063 27959 c-18 -18 -18 -270 -1 -287 18 -18 328 -16 371 2 18 7
47 30 65 50 59 68 37 170 -48 220 -31 19 -55 21 -205 24 -128 3 -173 0 -182
-9z m358 -68 c43 -21 61 -79 38 -123 -20 -37 -69 -48 -214 -48 l-135 0 0 96 0
96 143 -4 c86 -3 152 -10 168 -17z"/>
<path d="M10822 28498 c-17 -17 -17 -969 0 -986 16 -16 210 -16 226 0 17 17
17 969 0 986 -8 8 -48 12 -113 12 -65 0 -105 -4 -113 -12z m178 -493 l0 -445
-65 0 -65 0 0 445 0 445 65 0 65 0 0 -445z"/>
<path d="M11202 28498 c-17 -17 -17 -969 0 -986 17 -17 202 -16 217 1 7 9 12
101 13 270 l3 257 165 -267 165 -268 109 -3 c71 -2 113 1 122 9 19 16 21 968
2 987 -17 17 -202 16 -217 -1 -7 -9 -12 -103 -13 -275 l-3 -262 -155 252 c-85
138 -163 262 -173 275 -17 21 -25 23 -121 23 -66 0 -106 -4 -114 -12z m380
-358 c103 -168 194 -309 202 -314 10 -7 20 -5 30 3 14 12 16 52 16 317 l0 304
60 0 60 0 0 -445 0 -445 -74 0 -73 0 -188 306 c-104 168 -194 308 -202 311 -7
3 -20 0 -28 -7 -13 -11 -15 -59 -15 -311 l0 -299 -60 0 -60 0 0 445 0 446 72
-3 72 -3 188 -305z"/>
<path d="M12162 28498 c-17 -17 -17 -969 0 -986 9 -9 107 -12 378 -12 271 0
369 3 378 12 16 16 16 180 0 196 -9 9 -82 12 -265 12 l-253 0 0 100 0 100 223
0 c160 0 226 3 235 12 16 16 16 180 0 196 -9 9 -75 12 -235 12 l-223 0 0 75 0
75 243 0 c176 0 246 3 255 12 7 7 12 44 12 98 0 54 -5 91 -12 98 -9 9 -104 12
-368 12 -264 0 -359 -3 -368 -12z m688 -98 l0 -50 -243 0 c-176 0 -246 -3
-255 -12 -17 -17 -17 -229 0 -246 9 -9 75 -12 235 -12 l223 0 0 -50 0 -50
-223 0 c-160 0 -226 -3 -235 -12 -8 -8 -12 -56 -12 -148 0 -92 4 -140 12 -148
9 -9 82 -12 265 -12 l253 0 0 -50 0 -50 -330 0 -330 0 0 445 0 445 320 0 320
0 0 -50z"/>
<path d="M13352 28498 c-16 -16 -16 -180 0 -196 8 -8 54 -12 140 -12 l128 0 0
-383 c0 -285 3 -386 12 -395 16 -16 210 -16 226 0 9 9 12 110 12 395 l0 383
128 0 c86 0 132 4 140 12 7 7 12 44 12 98 0 54 -5 91 -12 98 -9 9 -110 12
-393 12 -283 0 -384 -3 -393 -12z m738 -98 l0 -50 -128 0 c-86 0 -132 -4 -140
-12 -9 -9 -12 -110 -12 -395 l0 -383 -65 0 -65 0 0 383 c0 285 -3 386 -12 395
-8 8 -54 12 -140 12 l-128 0 0 50 0 50 345 0 345 0 0 -50z"/>
<path d="M16632 28498 c-17 -17 -17 -969 0 -986 16 -16 210 -16 226 0 17 17
17 969 0 986 -8 8 -48 12 -113 12 -65 0 -105 -4 -113 -12z m178 -493 l0 -445
-65 0 -65 0 0 445 0 445 65 0 65 0 0 -445z"/>
<path d="M16910 28495 c-11 -13 14 -95 150 -488 89 -260 169 -480 178 -489 13
-15 33 -18 122 -18 89 0 109 3 122 18 8 9 90 229 183 489 141 396 166 475 155
488 -20 24 -221 22 -242 -2 -9 -10 -60 -152 -114 -316 l-99 -297 -100 299
c-55 164 -106 306 -114 315 -19 23 -222 24 -241 1z m312 -387 c71 -212 121
-346 131 -352 12 -8 20 -7 31 4 7 8 64 167 126 353 l112 337 64 0 c35 0 64 -3
64 -7 0 -5 -70 -205 -156 -445 l-157 -438 -77 0 -77 0 -21 58 c-51 139 -282
815 -282 823 0 5 29 9 64 9 l64 0 114 -342z"/>
<path d="M17902 28498 c-17 -17 -17 -969 0 -986 9 -9 107 -12 378 -12 271 0
369 3 378 12 16 16 16 180 0 196 -9 9 -82 12 -265 12 l-253 0 0 100 0 100 223
0 c160 0 226 3 235 12 16 16 16 180 0 196 -9 9 -75 12 -235 12 l-223 0 0 75 0
75 243 0 c176 0 246 3 255 12 7 7 12 44 12 98 0 54 -5 91 -12 98 -9 9 -104 12
-368 12 -264 0 -359 -3 -368 -12z m688 -98 l0 -50 -243 0 c-176 0 -246 -3
-255 -12 -17 -17 -17 -229 0 -246 9 -9 75 -12 235 -12 l223 0 0 -50 0 -50
-223 0 c-160 0 -226 -3 -235 -12 -8 -8 -12 -56 -12 -148 0 -92 4 -140 12 -148
9 -9 82 -12 265 -12 l253 0 0 -50 0 -50 -330 0 -330 0 0 445 0 445 320 0 320
0 0 -50z"/>
<path d="M11342 26968 c-17 -17 -17 -969 0 -986 9 -9 101 -12 353 -12 252 0
344 3 353 12 16 16 16 180 0 196 -9 9 -76 12 -240 12 l-228 0 0 383 c0 285 -3
386 -12 395 -8 8 -48 12 -113 12 -65 0 -105 -4 -113 -12z m178 -431 c0 -285 3
-386 12 -395 9 -9 76 -12 240 -12 l228 0 0 -50 0 -50 -305 0 -305 0 0 445 0
445 65 0 65 0 0 -383z"/>
<path d="M12142 26968 c-17 -17 -17 -969 0 -986 16 -16 210 -16 226 0 17 17
17 969 0 986 -8 8 -48 12 -113 12 -65 0 -105 -4 -113 -12z m178 -493 l0 -445
-65 0 -65 0 0 445 0 445 65 0 65 0 0 -445z"/>
<path d="M12522 26968 c-17 -17 -17 -969 0 -986 16 -16 210 -16 226 0 8 8 12
67 12 200 l0 188 183 0 c129 0 187 4 195 12 16 16 16 180 0 196 -8 8 -66 12
-195 12 l-183 0 0 85 0 85 213 0 c152 0 216 3 225 12 7 7 12 44 12 98 0 54 -5
91 -12 98 -9 9 -98 12 -338 12 -240 0 -329 -3 -338 -12z m628 -98 l0 -50 -213
0 c-152 0 -216 -3 -225 -12 -17 -17 -17 -249 0 -266 8 -8 66 -12 195 -12 l183
0 0 -50 0 -50 -183 0 c-129 0 -187 -4 -195 -12 -8 -8 -12 -67 -12 -200 l0
-188 -65 0 -65 0 0 445 0 445 290 0 290 0 0 -50z"/>
<path d="M13332 26968 c-17 -17 -17 -969 0 -986 9 -9 107 -12 378 -12 271 0
369 3 378 12 16 16 16 180 0 196 -9 9 -82 12 -265 12 l-253 0 0 100 0 100 223
0 c160 0 226 3 235 12 16 16 16 180 0 196 -9 9 -75 12 -235 12 l-223 0 0 75 0
75 243 0 c176 0 246 3 255 12 7 7 12 44 12 98 0 54 -5 91 -12 98 -9 9 -104 12
-368 12 -264 0 -359 -3 -368 -12z m688 -98 l0 -50 -243 0 c-176 0 -246 -3
-255 -12 -17 -17 -17 -229 0 -246 9 -9 75 -12 235 -12 l223 0 0 -50 0 -50
-223 0 c-160 0 -226 -3 -235 -12 -8 -8 -12 -56 -12 -148 0 -92 4 -140 12 -148
9 -9 82 -12 265 -12 l253 0 0 -50 0 -50 -330 0 -330 0 0 445 0 445 320 0 320
0 0 -50z"/>
<path d="M12280 23163 c-30 -2 -64 -7 -75 -12 -11 -5 -59 -12 -106 -15 -48 -3
-104 -12 -124 -20 -21 -9 -57 -16 -81 -16 -23 0 -55 -5 -71 -11 -15 -6 -56
-15 -91 -20 -34 -5 -73 -15 -85 -23 -12 -8 -58 -22 -102 -30 -92 -18 -303 -87
-349 -115 -17 -10 -47 -21 -67 -25 -21 -4 -53 -17 -72 -30 -39 -27 -123 -66
-141 -66 -16 0 -144 -68 -181 -96 -17 -12 -59 -37 -95 -54 -36 -17 -110 -62
-165 -100 -55 -38 -105 -70 -111 -70 -6 0 -37 -23 -70 -52 -32 -28 -83 -67
-113 -86 -30 -19 -73 -53 -96 -76 -22 -23 -88 -83 -145 -135 -220 -196 -496
-523 -665 -786 -43 -67 -110 -182 -174 -295 -23 -41 -53 -93 -66 -115 -14 -22
-32 -65 -41 -95 -8 -30 -25 -68 -37 -85 -11 -16 -29 -56 -38 -90 -10 -33 -52
-161 -94 -285 -41 -124 -75 -233 -75 -242 0 -10 -9 -55 -20 -102 -10 -46 -26
-132 -35 -191 l-16 -107 22 -24 22 -24 522 0 c596 0 533 -11 583 101 28 62 63
138 132 284 15 33 37 80 48 105 11 25 45 97 74 160 30 63 239 510 464 992 225
482 412 874 416 870 6 -6 222 -466 335 -712 19 -41 43 -93 53 -115 11 -22 298
-638 639 -1369 341 -731 628 -1337 637 -1347 21 -24 46 -24 67 -1 8 9 124 251
257 537 134 286 258 554 278 595 76 163 102 219 145 310 24 52 57 122 72 155
15 33 46 101 69 150 23 50 94 201 157 337 63 136 117 248 120 248 3 0 151
-312 329 -692 178 -381 332 -703 344 -716 36 -40 66 -27 104 46 l33 62 998 0
c954 0 999 1 1014 18 10 10 17 28 17 40 0 24 -50 313 -55 323 -2 3 -9 35 -15
71 -5 36 -17 79 -25 94 -8 16 -15 35 -15 42 0 18 -99 311 -116 344 -8 15 -14
35 -14 45 0 10 -13 45 -29 78 -16 33 -39 86 -52 118 -12 32 -32 73 -43 90 -12
18 -44 73 -70 122 -98 183 -209 353 -339 525 -88 115 -227 278 -277 325 -18
17 -50 54 -72 83 -22 29 -47 56 -56 59 -16 6 -52 37 -216 191 -42 39 -81 72
-86 72 -12 0 -86 56 -123 93 -15 15 -39 33 -55 40 -35 16 -156 95 -218 143
-27 20 -78 50 -114 67 -36 16 -73 36 -82 44 -20 18 -147 83 -162 83 -6 0 -51
20 -101 44 -178 87 -422 176 -521 191 -27 4 -68 15 -91 26 -23 10 -70 23 -105
28 -35 5 -76 14 -91 20 -16 6 -50 11 -76 11 -26 0 -52 5 -58 11 -6 6 -62 15
-124 21 -63 5 -120 15 -128 21 -10 8 -124 12 -390 13 -207 0 -401 -1 -431 -3z
m802 -80 c13 -10 99 -23 192 -28 26 -2 53 -8 59 -14 6 -6 32 -11 58 -11 26 0
60 -5 76 -11 15 -6 57 -15 93 -20 35 -5 73 -15 85 -23 11 -7 56 -21 100 -30
95 -22 331 -98 385 -126 22 -11 46 -20 53 -20 8 0 25 -8 38 -18 13 -10 56 -31
94 -46 92 -37 195 -87 202 -99 3 -5 42 -26 87 -46 44 -21 95 -49 111 -63 40
-33 216 -148 227 -148 4 0 27 -17 51 -38 43 -38 108 -89 138 -107 35 -20 251
-219 347 -318 262 -269 482 -570 653 -892 29 -55 60 -110 70 -122 9 -12 26
-48 38 -80 13 -32 36 -85 52 -118 16 -33 29 -68 29 -78 0 -10 6 -30 14 -45 17
-33 111 -313 121 -360 4 -18 13 -45 21 -60 8 -15 14 -38 14 -52 0 -14 5 -41
10 -60 6 -19 19 -89 31 -155 11 -66 22 -128 25 -137 5 -17 -47 -18 -995 -18
l-1000 0 -20 -26 c-11 -14 -23 -34 -26 -45 -4 -10 -10 -19 -14 -19 -4 0 -159
323 -343 717 -185 395 -343 722 -352 728 -11 7 -21 7 -33 -1 -16 -10 -142
-273 -398 -829 -20 -44 -55 -118 -77 -165 -37 -80 -52 -111 -140 -300 -20 -41
-138 -295 -263 -565 -125 -269 -231 -493 -234 -497 -5 -6 -916 1932 -1234
2622 -21 47 -51 112 -67 145 -15 33 -103 222 -195 420 -92 198 -172 366 -178
373 -14 17 -41 15 -60 -6 -8 -9 -214 -442 -457 -962 -242 -520 -454 -972 -469
-1005 -16 -33 -41 -87 -56 -120 -15 -33 -39 -87 -55 -120 -60 -128 -103 -220
-131 -281 l-28 -64 -486 0 -486 0 6 58 c4 31 18 107 32 167 14 61 29 130 33
155 5 25 39 133 75 240 36 107 74 222 84 255 9 34 27 74 38 90 12 17 29 55 37
85 9 30 27 73 41 95 13 22 43 74 66 115 199 355 372 596 616 860 116 125 369
357 437 401 23 14 68 49 100 77 33 29 64 52 70 52 6 0 56 32 111 70 55 38 128
83 163 99 35 17 86 46 115 64 71 47 147 87 162 87 19 0 125 49 152 70 13 10
48 24 78 30 29 6 59 17 65 25 14 16 226 86 335 110 44 10 99 26 122 36 23 11
55 19 71 19 16 0 49 7 72 15 23 8 62 15 85 15 23 0 59 7 79 15 20 9 47 13 60
9 13 -3 27 -1 30 5 4 6 36 11 71 11 36 0 67 5 71 11 3 6 18 9 33 6 14 -3 42
-2 61 2 55 12 736 7 752 -6z"/>
<path d="M10914 19658 c-9 -13 -121 -248 -249 -523 l-234 -500 -857 -3 c-781
-2 -859 -4 -876 -19 -17 -15 -18 -117 -18 -2738 0 -2103 3 -2724 12 -2733 17
-17 7909 -17 7926 0 17 17 17 5459 0 5476 -9 9 -174 12 -682 12 -593 0 -671
-2 -687 -16 -9 -8 -117 -230 -239 -492 -122 -262 -230 -493 -240 -512 -10 -19
-73 -154 -140 -300 -68 -146 -126 -268 -129 -272 -4 -4 -26 36 -51 90 -24 53
-72 156 -106 227 -34 72 -159 339 -278 594 -119 256 -223 475 -231 488 -19 28
-65 31 -87 6 -8 -10 -39 -70 -68 -133 -94 -207 -72 -160 -590 -1270 -232 -498
-425 -908 -429 -912 -3 -4 -16 12 -28 35 -16 32 -1198 2564 -1308 2802 -32 71
-86 187 -130 280 -87 188 -105 225 -144 310 -23 49 -49 97 -58 107 -22 25 -59
23 -79 -4z m78 -145 c16 -38 45 -99 63 -138 59 -126 154 -328 200 -430 13 -27
308 -660 656 -1405 347 -745 647 -1389 666 -1430 46 -100 47 -102 66 -114 13
-8 21 -6 37 9 11 11 220 450 466 975 467 1001 473 1013 524 1125 110 237 121
260 130 245 4 -8 99 -211 210 -450 112 -239 223 -478 248 -530 25 -52 78 -167
118 -254 78 -171 112 -218 142 -200 21 13 21 14 186 369 74 160 140 301 146
315 6 14 109 234 229 490 l217 465 632 3 632 2 0 -2680 0 -2680 -3905 0 -3905
0 0 2680 0 2680 858 0 c806 0 860 1 874 18 8 9 118 238 244 509 126 271 230
493 232 493 2 0 17 -30 34 -67z"/>
<path d="M11827 14862 c-16 -17 -17 -81 -17 -709 0 -656 1 -691 18 -706 16
-14 43 -17 163 -17 100 0 149 4 157 12 17 17 17 1409 0 1426 -8 8 -58 12 -158
12 -130 0 -149 -2 -163 -18z m263 -707 l0 -655 -105 0 -105 0 0 655 0 655 105
0 105 0 0 -655z"/>
<path d="M12372 14868 c-9 -9 -12 -180 -12 -708 0 -662 1 -698 18 -713 16 -14
43 -17 163 -17 100 0 149 4 157 12 9 9 12 87 12 290 l0 278 273 0 c199 0 276
3 285 12 17 17 17 269 0 286 -9 9 -86 12 -285 12 l-273 0 0 125 0 125 318 0
c234 0 321 3 330 12 8 8 12 54 12 143 0 89 -4 135 -12 143 -17 17 -969 17
-986 0z m928 -143 l0 -85 -318 0 c-234 0 -321 -3 -330 -12 -8 -8 -12 -62 -12
-177 0 -139 3 -167 17 -183 15 -17 37 -18 285 -18 l268 0 0 -85 0 -85 -273 0
c-199 0 -276 -3 -285 -12 -9 -9 -12 -87 -12 -290 l0 -278 -105 0 -105 0 0 655
0 655 435 0 435 0 0 -85z"/>
<path d="M13542 14868 c-9 -9 -12 -180 -12 -708 0 -662 1 -698 18 -713 17 -15
69 -17 548 -17 399 0 533 3 542 12 17 17 17 259 0 276 -9 9 -108 12 -385 12
l-373 0 0 155 0 155 333 0 c246 0 336 3 345 12 17 17 17 259 0 276 -9 9 -99
12 -345 12 l-333 0 0 115 0 115 358 0 c265 0 361 3 370 12 8 8 12 54 12 143 0
89 -4 135 -12 143 -17 17 -1049 17 -1066 0z m1008 -143 l0 -85 -358 0 c-265 0
-361 -3 -370 -12 -8 -8 -12 -60 -12 -167 0 -130 3 -157 17 -173 15 -17 39 -18
345 -18 l328 0 0 -80 0 -80 -333 0 c-246 0 -336 -3 -345 -12 -9 -9 -12 -69
-12 -207 0 -167 2 -197 17 -213 15 -17 40 -18 385 -18 l368 0 0 -80 0 -80
-490 0 -490 0 0 655 0 655 475 0 475 0 0 -85z"/>
<path d="M10672 14858 c-9 -9 -12 -179 -12 -703 0 -658 1 -693 18 -708 17 -15
67 -17 508 -17 368 0 493 3 502 12 8 8 12 53 12 138 0 85 -4 130 -12 138 -9 9
-99 12 -345 12 l-333 0 0 553 c0 524 -1 555 -18 570 -16 14 -43 17 -163 17
-100 0 -149 -4 -157 -12z m268 -610 c0 -499 2 -553 17 -570 15 -17 39 -18 345
-18 l328 0 0 -80 0 -80 -450 0 -450 0 0 650 0 650 105 0 105 0 0 -552z"/>
<path d="M7361 8974 c-82 -22 -147 -62 -208 -128 -95 -103 -133 -214 -133
-391 0 -168 48 -292 151 -390 90 -86 194 -125 334 -125 139 0 243 38 331 122
102 97 143 195 151 363 11 233 -60 393 -220 496 -99 64 -278 88 -406 53z m259
-60 c97 -22 180 -77 229 -153 58 -90 76 -163 75 -306 -1 -128 -16 -191 -69
-280 -114 -195 -462 -234 -642 -71 -167 150 -177 521 -20 701 90 104 260 147
427 109z"/>
<path d="M7406 8816 c-88 -33 -156 -114 -182 -216 -24 -95 -15 -249 19 -324
55 -121 159 -183 288 -174 110 8 185 64 236 176 44 95 42 305 -4 397 -22 44
-82 104 -128 128 -52 26 -173 33 -229 13z m216 -78 c82 -45 113 -120 113 -279
0 -99 -2 -109 -33 -172 -26 -53 -42 -72 -77 -92 -122 -72 -267 -24 -325 108
-45 100 -34 284 21 373 21 34 69 69 117 85 45 14 137 3 184 -23z"/>
<path d="M2872 8958 c-17 -17 -17 -969 0 -986 17 -17 689 -17 706 0 16 16 16
180 0 196 -9 9 -76 12 -240 12 l-228 0 0 383 c0 285 -3 386 -12 395 -8 8 -48
12 -113 12 -65 0 -105 -4 -113 -12z m178 -431 c0 -285 3 -386 12 -395 9 -9 76
-12 240 -12 l228 0 0 -50 0 -50 -305 0 -305 0 0 445 0 445 65 0 65 0 0 -383z"/>
<path d="M3672 8958 c-17 -17 -17 -969 0 -986 8 -8 48 -12 113 -12 65 0 105 4
113 12 17 17 17 969 0 986 -8 8 -48 12 -113 12 -65 0 -105 -4 -113 -12z m178
-493 l0 -445 -65 0 -65 0 0 445 0 445 65 0 65 0 0 -445z"/>
<path d="M3950 8955 c-11 -13 14 -95 150 -488 89 -260 169 -480 178 -489 13
-15 33 -18 122 -18 89 0 109 3 122 18 8 9 90 229 183 489 141 396 166 475 155
488 -20 24 -221 22 -242 -2 -9 -10 -60 -152 -114 -316 l-99 -297 -100 299
c-55 164 -106 306 -114 315 -19 23 -222 24 -241 1z m312 -387 c71 -212 121
-346 131 -352 12 -8 20 -7 31 4 7 8 64 167 126 353 l112 337 64 0 c35 0 64 -3
64 -7 0 -5 -70 -205 -156 -445 l-157 -438 -77 0 -77 0 -21 58 c-51 139 -282
815 -282 823 0 5 29 9 64 9 l64 0 114 -342z"/>
<path d="M4942 8958 c-17 -17 -17 -969 0 -986 17 -17 739 -17 756 0 16 16 16
180 0 196 -9 9 -82 12 -265 12 l-253 0 0 100 0 100 223 0 c160 0 226 3 235 12
16 16 16 180 0 196 -9 9 -75 12 -235 12 l-223 0 0 75 0 75 243 0 c176 0 246 3
255 12 7 7 12 44 12 98 0 54 -5 91 -12 98 -9 9 -104 12 -368 12 -264 0 -359
-3 -368 -12z m688 -98 l0 -50 -243 0 c-176 0 -246 -3 -255 -12 -8 -8 -12 -50
-12 -123 0 -73 4 -115 12 -123 9 -9 75 -12 235 -12 l223 0 0 -50 0 -50 -223 0
c-160 0 -226 -3 -235 -12 -8 -8 -12 -56 -12 -148 0 -92 4 -140 12 -148 9 -9
82 -12 265 -12 l253 0 0 -50 0 -50 -330 0 -330 0 0 445 0 445 320 0 320 0 0
-50z"/>
<path d="M6092 8958 c-7 -7 -12 -18 -12 -24 0 -7 77 -134 170 -283 l170 -270
0 -199 c0 -141 3 -201 12 -210 16 -16 210 -16 226 0 9 9 12 69 12 209 l0 197
170 272 c94 149 170 277 170 284 0 29 -25 36 -140 36 -99 0 -119 -3 -132 -17
-8 -10 -54 -88 -102 -173 -49 -85 -89 -156 -90 -157 -1 -1 -42 68 -90 155 -49
86 -96 165 -104 175 -13 14 -33 17 -132 17 -77 0 -120 -4 -128 -12z m320 -230
c57 -99 110 -186 120 -191 12 -8 21 -7 31 1 8 7 61 94 116 192 l102 180 74 0
75 0 -48 -77 c-27 -43 -99 -158 -160 -256 l-112 -178 0 -190 0 -189 -65 0 -65
0 0 190 0 191 -137 217 c-75 119 -147 234 -160 255 l-23 37 74 0 75 0 103
-182z"/>
<path d="M8100 8955 c-9 -11 -11 -103 -8 -377 4 -305 7 -371 21 -415 24 -72
92 -144 175 -185 66 -33 69 -33 207 -33 162 0 216 14 293 74 61 48 99 119 112
207 15 103 13 717 -2 732 -17 17 -212 16 -226 -1 -7 -8 -12 -135 -14 -364 -3
-339 -4 -353 -24 -380 -28 -37 -85 -56 -152 -50 -60 6 -93 24 -119 64 -16 24
-18 62 -21 372 -2 227 -7 350 -14 358 -16 19 -211 18 -228 -2z m180 -362 c0
-177 4 -334 10 -353 12 -45 85 -117 130 -130 44 -13 125 -13 170 0 48 13 109
78 121 126 4 22 9 182 9 357 l0 317 65 0 65 0 0 -297 c0 -394 -12 -468 -87
-538 -55 -51 -125 -69 -263 -70 -122 0 -127 1 -193 33 -39 19 -78 47 -93 67
-53 70 -57 102 -62 468 l-4 337 66 0 66 0 0 -317z"/>
<path d="M9063 8959 c-18 -18 -19 -969 -1 -987 8 -8 48 -12 113 -12 65 0 105
4 113 12 8 8 12 67 12 200 l0 188 35 0 c85 0 131 -42 252 -235 112 -178 95
-166 236 -163 95 2 122 6 130 18 7 12 -13 52 -84 169 -52 84 -113 175 -137
202 l-43 48 35 15 c44 18 106 80 131 131 15 31 20 61 20 130 0 82 -3 95 -31
145 -34 61 -94 113 -152 131 -55 18 -613 25 -629 8z m563 -60 c83 -15 127 -43
158 -99 51 -95 43 -204 -20 -279 -27 -31 -49 -45 -97 -60 -92 -28 -94 -40 -21
-109 41 -39 87 -99 142 -190 45 -73 82 -134 82 -137 0 -3 -33 -5 -72 -5 l-73
0 -67 109 c-99 159 -169 245 -221 270 -49 24 -165 29 -185 9 -8 -8 -12 -67
-12 -200 l0 -188 -65 0 -65 0 0 445 0 445 228 0 c126 0 255 -5 288 -11z"/>
<path d="M9252 8798 c-19 -19 -16 -252 3 -268 11 -9 59 -11 178 -9 180 4 199
10 238 72 15 24 19 44 16 85 -4 59 -30 95 -84 118 -43 18 -333 20 -351 2z
m332 -62 c25 -10 36 -22 41 -46 8 -36 -9 -85 -33 -96 -10 -4 -79 -9 -154 -12
l-138 -4 0 86 0 86 125 0 c85 0 136 -5 159 -14z"/>
<path d="M10392 8958 c-17 -17 -17 -969 0 -986 17 -17 689 -17 706 0 16 16 16
180 0 196 -9 9 -76 12 -240 12 l-228 0 0 383 c0 285 -3 386 -12 395 -8 8 -48
12 -113 12 -65 0 -105 -4 -113 -12z m178 -431 c0 -285 3 -386 12 -395 9 -9 76
-12 240 -12 l228 0 0 -50 0 -50 -305 0 -305 0 0 445 0 445 65 0 65 0 0 -383z"/>
<path d="M11192 8958 c-17 -17 -17 -969 0 -986 8 -8 48 -12 113 -12 65 0 105
4 113 12 17 17 17 969 0 986 -8 8 -48 12 -113 12 -65 0 -105 -4 -113 -12z
m178 -493 l0 -445 -65 0 -65 0 0 445 0 445 65 0 65 0 0 -445z"/>
<path d="M11572 8958 c-17 -17 -17 -969 0 -986 8 -8 48 -12 113 -12 65 0 105
4 113 12 8 8 12 67 12 200 l0 188 183 0 c129 0 187 4 195 12 16 16 16 180 0
196 -8 8 -66 12 -195 12 l-183 0 0 85 0 85 213 0 c152 0 216 3 225 12 7 7 12
44 12 98 0 54 -5 91 -12 98 -9 9 -98 12 -338 12 -240 0 -329 -3 -338 -12z
m628 -98 l0 -50 -213 0 c-152 0 -216 -3 -225 -12 -17 -17 -17 -249 0 -266 8
-8 66 -12 195 -12 l183 0 0 -50 0 -50 -183 0 c-129 0 -187 -4 -195 -12 -8 -8
-12 -67 -12 -200 l0 -188 -65 0 -65 0 0 445 0 445 290 0 290 0 0 -50z"/>
<path d="M12382 8958 c-17 -17 -17 -969 0 -986 17 -17 739 -17 756 0 16 16 16
180 0 196 -9 9 -82 12 -265 12 l-253 0 0 100 0 100 223 0 c160 0 226 3 235 12
16 16 16 180 0 196 -9 9 -75 12 -235 12 l-223 0 0 75 0 75 243 0 c176 0 246 3
255 12 7 7 12 44 12 98 0 54 -5 91 -12 98 -9 9 -104 12 -368 12 -264 0 -359
-3 -368 -12z m688 -98 l0 -50 -243 0 c-176 0 -246 -3 -255 -12 -17 -17 -17
-229 0 -246 9 -9 75 -12 235 -12 l223 0 0 -50 0 -50 -223 0 c-160 0 -226 -3
-235 -12 -8 -8 -12 -56 -12 -148 0 -92 4 -140 12 -148 9 -9 82 -12 265 -12
l253 0 0 -50 0 -50 -330 0 -330 0 0 445 0 445 320 0 320 0 0 -50z"/>
<path d="M13620 8955 c-10 -12 8 -104 95 -492 59 -263 112 -484 118 -490 7 -9
46 -13 133 -13 117 0 124 1 138 23 7 12 47 150 87 305 45 175 75 277 79 265 4
-10 40 -142 80 -293 41 -151 78 -281 83 -287 7 -9 45 -13 128 -13 112 0 119 1
132 23 8 12 62 232 122 490 87 378 105 470 95 482 -16 20 -222 22 -237 3 -6
-7 -34 -129 -64 -270 -29 -142 -56 -254 -60 -250 -3 4 -34 120 -68 257 -35
138 -68 256 -73 263 -7 8 -49 12 -143 12 -94 0 -135 -4 -142 -12 -6 -7 -38
-123 -73 -258 -35 -135 -66 -248 -70 -253 -3 -4 -30 107 -60 245 -29 139 -57
259 -63 266 -15 19 -221 17 -237 -3z m205 -117 c8 -40 39 -183 68 -317 54
-253 67 -286 101 -251 8 8 44 132 81 275 37 143 73 284 82 313 l14 52 94 0 93
0 11 -32 c5 -18 42 -161 81 -318 40 -157 78 -292 86 -300 34 -35 47 -3 101
256 29 137 60 282 69 322 l15 72 66 0 c48 0 64 -3 61 -12 -2 -7 -49 -208 -104
-445 l-99 -433 -82 0 c-77 0 -83 1 -88 23 -3 12 -45 168 -94 346 -89 331 -103
365 -134 331 -8 -8 -54 -169 -103 -357 l-89 -343 -87 0 c-74 0 -87 3 -92 18
-3 9 -46 199 -96 422 -50 223 -94 415 -97 428 -5 21 -3 22 60 22 l66 0 16 -72z"/>
<path d="M14972 8958 c-17 -17 -17 -969 0 -986 8 -8 48 -12 113 -12 65 0 105
4 113 12 17 17 17 969 0 986 -8 8 -48 12 -113 12 -65 0 -105 -4 -113 -12z
m178 -493 l0 -445 -65 0 -65 0 0 445 0 445 65 0 65 0 0 -445z"/>
<path d="M15282 8958 c-16 -16 -16 -180 0 -196 8 -8 54 -12 140 -12 l128 0 0
-383 c0 -285 3 -386 12 -395 16 -16 210 -16 226 0 9 9 12 110 12 395 l0 383
128 0 c86 0 132 4 140 12 7 7 12 44 12 98 0 54 -5 91 -12 98 -9 9 -110 12
-393 12 -283 0 -384 -3 -393 -12z m738 -98 l0 -50 -128 0 c-86 0 -132 -4 -140
-12 -9 -9 -12 -110 -12 -395 l0 -383 -65 0 -65 0 0 383 c0 285 -3 386 -12 395
-8 8 -54 12 -140 12 l-128 0 0 50 0 50 345 0 345 0 0 -50z"/>
<path d="M16162 8958 c-17 -17 -17 -969 0 -986 8 -8 48 -12 113 -12 65 0 105
4 113 12 9 9 12 69 12 210 l0 198 160 0 160 0 0 -198 c0 -141 3 -201 12 -210
8 -8 48 -12 113 -12 65 0 105 4 113 12 17 17 17 969 0 986 -8 8 -48 12 -113
12 -65 0 -105 -4 -113 -12 -8 -8 -12 -64 -12 -185 l0 -173 -160 0 -160 0 0
173 c0 121 -4 177 -12 185 -8 8 -48 12 -113 12 -65 0 -105 -4 -113 -12z m178
-221 c0 -121 4 -177 12 -185 9 -9 69 -12 208 -12 139 0 199 3 208 12 8 8 12
64 12 185 l0 173 65 0 65 0 0 -445 0 -445 -65 0 -65 0 0 198 c0 141 -3 201
-12 210 -17 17 -399 17 -416 0 -9 -9 -12 -69 -12 -210 l0 -198 -65 0 -65 0 0
445 0 445 65 0 65 0 0 -173z"/>
<path d="M17390 8955 c-11 -13 14 -95 150 -488 89 -260 169 -480 178 -489 13
-15 33 -18 122 -18 89 0 109 3 122 18 8 9 90 229 183 489 141 396 166 475 155
488 -20 24 -221 22 -242 -2 -9 -10 -60 -152 -114 -316 l-99 -297 -100 299
c-55 164 -106 306 -114 315 -19 23 -222 24 -241 1z m312 -387 c71 -212 121
-346 131 -352 12 -8 20 -7 31 4 7 8 64 167 126 353 l112 337 64 0 c35 0 64 -3
64 -7 0 -5 -70 -205 -156 -445 l-157 -438 -77 0 -77 0 -21 58 c-51 139 -282
815 -282 823 0 5 29 9 64 9 l64 0 114 -342z"/>
<path d="M18372 8958 c-17 -17 -17 -969 0 -986 8 -8 48 -12 113 -12 65 0 105
4 113 12 17 17 17 969 0 986 -8 8 -48 12 -113 12 -65 0 -105 -4 -113 -12z
m178 -493 l0 -445 -65 0 -65 0 0 445 0 445 65 0 65 0 0 -445z"/>
<path d="M18753 8959 c-18 -18 -19 -969 -1 -987 8 -8 48 -12 113 -12 65 0 105
4 113 12 8 8 12 67 12 200 l0 188 35 0 c85 0 131 -42 252 -235 112 -178 95
-166 236 -163 95 2 122 6 130 18 7 12 -13 52 -84 169 -52 84 -113 175 -137
202 l-43 48 35 15 c44 18 106 80 131 131 15 31 20 61 20 130 0 82 -3 95 -31
145 -34 61 -94 113 -152 131 -55 18 -613 25 -629 8z m563 -60 c83 -15 127 -43
158 -99 51 -95 43 -204 -20 -279 -27 -31 -49 -45 -97 -60 -92 -28 -94 -40 -21
-109 41 -39 87 -99 142 -190 45 -73 82 -134 82 -137 0 -3 -33 -5 -72 -5 l-73
0 -67 109 c-99 159 -169 245 -221 270 -49 24 -165 29 -185 9 -8 -8 -12 -67
-12 -200 l0 -188 -65 0 -65 0 0 445 0 445 228 0 c126 0 255 -5 288 -11z"/>
<path d="M18942 8798 c-19 -19 -16 -252 3 -268 11 -9 59 -11 178 -9 180 4 199
10 238 72 15 24 19 44 16 85 -4 59 -30 95 -84 118 -43 18 -333 20 -351 2z
m332 -62 c25 -10 36 -22 41 -46 8 -36 -9 -85 -33 -96 -10 -4 -79 -9 -154 -12
l-138 -4 0 86 0 86 125 0 c85 0 136 -5 159 -14z"/>
<path d="M19642 8958 c-16 -16 -16 -180 0 -196 8 -8 54 -12 140 -12 l128 0 0
-383 c0 -285 3 -386 12 -395 16 -16 210 -16 226 0 9 9 12 110 12 395 l0 383
128 0 c86 0 132 4 140 12 7 7 12 44 12 98 0 54 -5 91 -12 98 -9 9 -110 12
-393 12 -283 0 -384 -3 -393 -12z m738 -98 l0 -50 -128 0 c-86 0 -132 -4 -140
-12 -9 -9 -12 -110 -12 -395 l0 -383 -65 0 -65 0 0 383 c0 285 -3 386 -12 395
-8 8 -54 12 -140 12 l-128 0 0 50 0 50 345 0 345 0 0 -50z"/>
<path d="M20520 8955 c-9 -11 -11 -103 -8 -377 4 -305 7 -371 21 -415 24 -72
92 -144 175 -185 66 -33 69 -33 207 -33 162 0 216 14 293 74 61 48 99 119 112
207 15 103 13 717 -2 732 -17 17 -212 16 -226 -1 -7 -8 -12 -135 -14 -364 -3
-339 -4 -353 -24 -380 -28 -37 -85 -56 -152 -50 -60 6 -93 24 -119 64 -16 24
-18 62 -21 372 -2 227 -7 350 -14 358 -16 19 -211 18 -228 -2z m180 -362 c0
-177 4 -334 10 -353 12 -45 85 -117 130 -130 44 -13 125 -13 170 0 48 13 109
78 121 126 4 22 9 182 9 357 l0 317 65 0 65 0 0 -297 c0 -394 -12 -468 -87
-538 -55 -51 -125 -69 -263 -70 -122 0 -127 1 -193 33 -39 19 -78 47 -93 67
-53 70 -57 102 -62 468 l-4 337 66 0 66 0 0 -317z"/>
<path d="M21482 8958 c-9 -9 -12 -132 -12 -493 0 -361 3 -484 12 -493 17 -17
739 -17 756 0 7 7 12 44 12 98 0 54 -5 91 -12 98 -9 9 -82 12 -265 12 l-253 0
0 100 0 100 223 0 c160 0 226 3 235 12 7 7 12 44 12 98 0 54 -5 91 -12 98 -9
9 -75 12 -235 12 l-223 0 0 75 0 75 243 0 c176 0 246 3 255 12 7 7 12 44 12
98 0 54 -5 91 -12 98 -9 9 -104 12 -368 12 -264 0 -359 -3 -368 -12z m688 -98
l0 -50 -243 0 c-176 0 -246 -3 -255 -12 -8 -8 -12 -50 -12 -123 0 -73 4 -115
12 -123 9 -9 75 -12 235 -12 l223 0 0 -50 0 -50 -223 0 c-160 0 -226 -3 -235
-12 -8 -8 -12 -56 -12 -148 0 -92 4 -140 12 -148 9 -9 82 -12 265 -12 l253 0
0 -50 0 -50 -330 0 -330 0 0 445 0 445 320 0 320 0 0 -50z"/>
<path d="M22362 8188 c-8 -8 -12 -47 -12 -108 0 -105 7 -120 52 -120 18 0 28
-5 28 -15 0 -17 -38 -55 -55 -55 -7 0 -20 -9 -30 -20 -17 -19 -17 -21 0 -60
10 -22 26 -47 36 -56 16 -15 23 -15 51 -3 59 24 126 96 143 152 19 63 21 267
3 285 -8 8 -47 12 -108 12 -61 0 -100 -4 -108 -12z m166 -150 c-4 -120 -23
-170 -78 -206 -48 -32 -50 -10 -2 35 28 26 42 50 48 77 9 51 -4 70 -50 74
l-36 3 0 60 0 59 61 0 61 0 -4 -102z"/>
<path d="M6314 7446 c-168 -41 -303 -194 -334 -379 -18 -105 -8 -256 23 -339
44 -122 155 -235 269 -275 81 -28 263 -25 341 6 82 32 167 114 212 203 40 80
42 98 18 120 -24 21 -180 71 -198 64 -8 -3 -27 -34 -43 -69 -44 -96 -112 -137
-205 -123 -67 10 -107 42 -142 111 -28 57 -30 67 -30 180 0 104 3 127 23 172
29 63 55 88 111 108 98 34 188 4 232 -78 39 -72 37 -71 131 -52 92 20 128 37
128 63 0 67 -114 213 -200 257 -87 44 -228 57 -336 31z m218 -57 c106 -23 183
-79 227 -166 12 -23 21 -44 21 -46 0 -2 -26 -10 -57 -17 -53 -11 -58 -11 -68
5 -24 43 -83 99 -120 116 -50 23 -137 24 -196 4 -57 -20 -122 -84 -151 -149
-21 -46 -23 -66 -23 -191 0 -125 3 -146 24 -192 30 -67 105 -138 162 -153 115
-31 228 12 286 109 18 30 34 58 35 63 3 9 96 -18 112 -32 14 -13 -54 -129 -98
-166 -66 -56 -135 -78 -251 -78 -135 0 -197 24 -281 108 -64 64 -95 127 -115
230 -31 165 20 365 118 458 92 88 238 126 375 97z"/>
<path d="M8231 7444 c-82 -22 -147 -62 -208 -128 -95 -103 -133 -214 -133
-391 0 -168 48 -292 151 -390 90 -86 194 -125 334 -125 139 0 243 38 331 122
102 97 143 195 151 363 11 233 -60 393 -220 496 -99 64 -278 88 -406 53z m259
-60 c97 -22 180 -77 229 -153 58 -90 76 -163 75 -306 -1 -128 -16 -191 -69
-280 -114 -195 -462 -234 -642 -71 -167 150 -177 521 -20 701 90 104 260 147
427 109z"/>
<path d="M8276 7286 c-88 -33 -156 -114 -182 -216 -24 -95 -15 -249 19 -324
55 -121 159 -183 288 -174 110 8 185 64 236 176 44 95 42 305 -4 397 -22 44
-82 104 -128 128 -52 26 -173 33 -229 13z m216 -78 c82 -45 113 -120 113 -279
0 -99 -2 -109 -33 -172 -26 -53 -42 -72 -77 -92 -122 -72 -267 -24 -325 108
-45 100 -34 284 21 373 21 34 69 69 117 85 45 14 137 3 184 -23z"/>
<path d="M9261 7444 c-82 -22 -147 -62 -208 -128 -95 -103 -133 -214 -133
-391 0 -168 48 -292 151 -390 90 -86 194 -125 334 -125 139 0 243 38 331 122
102 97 143 195 151 363 11 233 -60 393 -220 496 -99 64 -278 88 -406 53z m259
-60 c97 -22 180 -77 229 -153 58 -90 76 -163 75 -306 -1 -128 -16 -191 -69
-280 -114 -195 -462 -234 -642 -71 -167 150 -177 521 -20 701 90 104 260 147
427 109z"/>
<path d="M9306 7286 c-88 -33 -156 -114 -182 -216 -24 -95 -15 -249 19 -324
55 -121 159 -183 288 -174 110 8 185 64 236 176 44 95 42 305 -4 397 -22 44
-82 104 -128 128 -52 26 -173 33 -229 13z m216 -78 c82 -45 113 -120 113 -279
0 -99 -2 -109 -33 -172 -26 -53 -42 -72 -77 -92 -122 -72 -267 -24 -325 108
-45 100 -34 284 21 373 21 34 69 69 117 85 45 14 137 3 184 -23z"/>
<path d="M10202 7445 c-69 -19 -86 -29 -139 -78 -70 -64 -88 -107 -88 -207 0
-101 18 -143 90 -209 58 -53 117 -80 269 -120 137 -37 172 -53 181 -82 10 -30
-14 -78 -48 -95 -40 -21 -124 -28 -173 -15 -59 16 -90 44 -109 100 -24 73 -29
75 -136 62 -113 -13 -123 -20 -114 -80 14 -100 85 -207 169 -256 96 -56 312
-71 444 -30 69 21 147 86 186 155 29 51 31 62 31 150 0 110 -15 148 -87 216
-55 53 -104 78 -220 110 -220 61 -248 76 -233 124 9 29 86 54 146 47 67 -8 96
-28 109 -76 16 -60 27 -65 133 -56 50 4 98 11 105 17 16 14 15 54 -4 118 -21
71 -116 168 -189 194 -70 25 -253 31 -323 11z m302 -71 c67 -23 131 -88 149
-151 l14 -48 -41 -7 c-72 -12 -86 -10 -86 12 0 31 -67 98 -108 110 -179 49
-339 -73 -242 -184 32 -36 63 -49 248 -100 205 -57 266 -118 267 -266 0 -64
-4 -82 -29 -127 -50 -90 -131 -130 -286 -140 -157 -10 -285 37 -341 125 -35
56 -56 119 -43 131 5 5 32 11 60 13 l52 5 11 -37 c14 -47 86 -115 137 -129 49
-14 138 -14 186 -1 108 30 162 148 102 220 -36 42 -62 54 -199 90 -252 68
-319 124 -320 270 0 113 64 191 185 225 69 19 214 13 284 -11z"/>
<path d="M21174 7446 c-168 -41 -303 -194 -334 -379 -18 -105 -8 -256 23 -339
44 -122 155 -235 269 -275 81 -28 263 -25 341 6 82 32 167 114 212 203 40 80
42 98 18 120 -24 21 -180 71 -198 64 -8 -3 -27 -34 -43 -69 -44 -96 -112 -137
-205 -123 -67 10 -107 42 -142 111 -28 57 -30 67 -30 180 0 104 3 127 23 172
29 63 55 88 111 108 98 34 188 4 232 -78 39 -72 37 -71 131 -52 92 20 128 37
128 63 0 67 -114 213 -200 257 -87 44 -228 57 -336 31z m218 -57 c106 -23 183
-79 227 -166 12 -23 21 -44 21 -46 0 -2 -26 -10 -57 -17 -53 -11 -58 -11 -68
5 -24 43 -83 99 -120 116 -50 23 -137 24 -196 4 -57 -20 -122 -84 -151 -149
-21 -46 -23 -66 -23 -191 0 -125 3 -146 24 -192 30 -67 105 -138 162 -153 115
-31 228 12 286 109 18 30 34 58 35 63 3 9 96 -18 112 -32 14 -13 -54 -129 -98
-166 -66 -56 -135 -78 -251 -78 -135 0 -197 24 -281 108 -64 64 -95 127 -115
230 -31 165 20 365 118 458 92 88 238 126 375 97z"/>
<path d="M3062 7427 c-6 -7 -90 -226 -187 -487 -127 -341 -174 -479 -167 -490
14 -23 218 -27 243 -4 10 9 32 59 49 110 l32 94 153 0 153 0 31 -86 c17 -47
31 -89 31 -93 0 -4 8 -15 18 -24 26 -24 223 -25 242 -1 11 13 -14 91 -160 492
-95 262 -178 483 -183 490 -13 17 -240 17 -255 -1z m369 -486 c88 -239 159
-438 159 -443 0 -4 -29 -8 -64 -8 l-63 0 -33 93 c-18 50 -40 100 -48 110 -13
15 -36 17 -197 17 -156 0 -185 -2 -196 -16 -8 -9 -28 -58 -45 -108 l-31 -91
-67 -3 c-55 -2 -67 0 -64 11 2 8 75 209 163 446 l160 431 84 -2 84 -3 158
-434z"/>
<path d="M3163 7198 c-12 -16 -123 -331 -123 -350 0 -32 24 -38 145 -38 123 0
145 6 145 39 0 20 -110 332 -123 349 -5 6 -15 12 -22 12 -7 0 -17 -6 -22 -12z
m56 -209 c16 -46 32 -92 36 -101 6 -16 0 -18 -68 -18 l-76 0 36 106 c19 58 37
103 39 101 2 -2 17 -42 33 -88z"/>
<path d="M3732 7428 c-17 -17 -17 -969 0 -986 17 -17 202 -16 217 1 7 9 12
101 13 270 l3 257 165 -267 165 -268 109 -3 c71 -2 113 1 122 9 19 16 21 968
2 987 -17 17 -202 16 -217 -1 -7 -9 -12 -103 -13 -275 l-3 -262 -155 252 c-85
138 -163 262 -173 275 -17 21 -25 23 -121 23 -66 0 -106 -4 -114 -12z m380
-358 c103 -168 194 -309 202 -314 10 -7 20 -5 30 3 14 12 16 52 16 317 l0 304
60 0 60 0 0 -445 0 -445 -74 0 -73 0 -188 306 c-104 168 -194 308 -202 311 -7
3 -20 0 -28 -7 -13 -11 -15 -59 -15 -311 l0 -299 -60 0 -60 0 0 445 0 446 72
-3 72 -3 188 -305z"/>
<path d="M4693 7429 c-10 -10 -13 -123 -13 -495 0 -408 2 -483 14 -494 11 -8
81 -11 268 -8 284 5 316 11 404 77 111 84 163 202 171 386 8 204 -31 329 -137
435 -97 97 -124 103 -435 108 -201 3 -263 1 -272 -9z m569 -78 c146 -57 227
-228 215 -456 -8 -155 -64 -284 -146 -338 -82 -54 -118 -61 -363 -65 l-228 -4
0 447 0 447 233 -4 c211 -4 237 -6 289 -27z"/>
<path d="M4882 7268 c-17 -17 -17 -649 0 -666 15 -15 247 -16 302 -1 56 16
121 80 143 142 14 41 18 83 18 197 0 126 -3 151 -21 191 -31 66 -84 115 -146
134 -64 19 -278 21 -296 3z m275 -63 c98 -29 128 -93 128 -270 0 -236 -43
-284 -252 -285 l-103 0 0 285 0 285 88 0 c50 0 111 -7 139 -15z"/>
<path d="M6982 7428 c-17 -17 -17 -969 0 -986 8 -8 48 -12 113 -12 65 0 105 4
113 12 9 9 12 69 12 210 l0 198 160 0 160 0 0 -198 c0 -141 3 -201 12 -210 8
-8 48 -12 113 -12 65 0 105 4 113 12 17 17 17 969 0 986 -16 16 -210 16 -226
0 -8 -8 -12 -64 -12 -185 l0 -173 -160 0 -160 0 0 173 c0 121 -4 177 -12 185
-8 8 -48 12 -113 12 -65 0 -105 -4 -113 -12z m178 -221 c0 -121 4 -177 12
-185 9 -9 69 -12 208 -12 139 0 199 3 208 12 8 8 12 64 12 185 l0 173 65 0 65
0 0 -445 0 -445 -65 0 -65 0 0 198 c0 141 -3 201 -12 210 -17 17 -399 17 -416
0 -9 -9 -12 -69 -12 -210 l0 -198 -65 0 -65 0 0 445 0 445 65 0 65 0 0 -173z"/>
<path d="M10892 7428 c-17 -17 -17 -969 0 -986 17 -17 739 -17 756 0 16 16 16
180 0 196 -9 9 -82 12 -265 12 l-253 0 0 100 0 100 223 0 c160 0 226 3 235 12
16 16 16 180 0 196 -9 9 -75 12 -235 12 l-223 0 0 75 0 75 243 0 c176 0 246 3
255 12 7 7 12 44 12 98 0 54 -5 91 -12 98 -9 9 -104 12 -368 12 -264 0 -359
-3 -368 -12z m688 -98 l0 -50 -243 0 c-176 0 -246 -3 -255 -12 -17 -17 -17
-229 0 -246 9 -9 75 -12 235 -12 l223 0 0 -50 0 -50 -223 0 c-160 0 -226 -3
-235 -12 -8 -8 -12 -56 -12 -148 0 -92 4 -140 12 -148 9 -9 82 -12 265 -12
l253 0 0 -50 0 -50 -330 0 -330 0 0 445 0 445 320 0 320 0 0 -50z"/>
<path d="M12352 7427 c-6 -7 -90 -226 -187 -487 -127 -341 -174 -479 -167
-490 14 -23 218 -27 243 -4 10 9 32 59 49 110 l32 94 153 0 153 0 31 -86 c17
-47 31 -89 31 -93 0 -4 8 -15 18 -24 26 -24 223 -25 242 -1 11 13 -14 91 -160
492 -95 262 -178 483 -183 490 -13 17 -240 17 -255 -1z m369 -486 c88 -239
159 -438 159 -443 0 -4 -29 -8 -64 -8 l-63 0 -33 93 c-18 50 -40 100 -48 110
-13 15 -36 17 -197 17 -156 0 -185 -2 -196 -16 -8 -9 -28 -58 -45 -108 l-31
-91 -67 -3 c-55 -2 -67 0 -64 11 2 8 75 209 163 446 l160 431 84 -2 84 -3 158
-434z"/>
<path d="M12453 7198 c-12 -16 -123 -331 -123 -350 0 -32 24 -38 145 -38 123
0 145 6 145 39 0 20 -110 332 -123 349 -5 6 -15 12 -22 12 -7 0 -17 -6 -22
-12z m56 -209 c16 -46 32 -92 36 -101 6 -16 0 -18 -68 -18 l-76 0 36 106 c19
58 37 103 39 101 2 -2 17 -42 33 -88z"/>
<path d="M13342 7428 c-17 -17 -17 -969 0 -986 17 -17 689 -17 706 0 16 16 16
180 0 196 -9 9 -76 12 -240 12 l-228 0 0 383 c0 285 -3 386 -12 395 -8 8 -48
12 -113 12 -65 0 -105 -4 -113 -12z m178 -431 c0 -285 3 -386 12 -395 9 -9 76
-12 240 -12 l228 0 0 -50 0 -50 -305 0 -305 0 0 445 0 445 65 0 65 0 0 -383z"/>
<path d="M14142 7428 c-17 -17 -17 -969 0 -986 8 -8 48 -12 113 -12 65 0 105
4 113 12 17 17 17 969 0 986 -8 8 -48 12 -113 12 -65 0 -105 -4 -113 -12z
m178 -493 l0 -445 -65 0 -65 0 0 445 0 445 65 0 65 0 0 -445z"/>
<path d="M14522 7428 c-17 -17 -17 -969 0 -986 8 -8 48 -12 113 -12 65 0 105
4 113 12 8 8 12 67 12 200 l0 188 183 0 c129 0 187 4 195 12 16 16 16 180 0
196 -8 8 -66 12 -195 12 l-183 0 0 85 0 85 213 0 c152 0 216 3 225 12 7 7 12
44 12 98 0 54 -5 91 -12 98 -9 9 -98 12 -338 12 -240 0 -329 -3 -338 -12z
m628 -98 l0 -50 -213 0 c-152 0 -216 -3 -225 -12 -17 -17 -17 -249 0 -266 8
-8 66 -12 195 -12 l183 0 0 -50 0 -50 -183 0 c-129 0 -187 -4 -195 -12 -8 -8
-12 -67 -12 -200 l0 -188 -65 0 -65 0 0 445 0 445 290 0 290 0 0 -50z"/>
<path d="M15332 7428 c-17 -17 -17 -969 0 -986 17 -17 739 -17 756 0 16 16 16
180 0 196 -9 9 -82 12 -265 12 l-253 0 0 100 0 100 223 0 c160 0 226 3 235 12
16 16 16 180 0 196 -9 9 -75 12 -235 12 l-223 0 0 75 0 75 243 0 c176 0 246 3
255 12 7 7 12 44 12 98 0 54 -5 91 -12 98 -9 9 -104 12 -368 12 -264 0 -359
-3 -368 -12z m688 -98 l0 -50 -243 0 c-176 0 -246 -3 -255 -12 -17 -17 -17
-229 0 -246 9 -9 75 -12 235 -12 l223 0 0 -50 0 -50 -223 0 c-160 0 -226 -3
-235 -12 -8 -8 -12 -56 -12 -148 0 -92 4 -140 12 -148 9 -9 82 -12 265 -12
l253 0 0 -50 0 -50 -330 0 -330 0 0 445 0 445 320 0 320 0 0 -50z"/>
<path d="M16582 7428 c-17 -17 -17 -969 0 -986 8 -8 48 -12 113 -12 65 0 105
4 113 12 17 17 17 969 0 986 -8 8 -48 12 -113 12 -65 0 -105 -4 -113 -12z
m178 -493 l0 -445 -65 0 -65 0 0 445 0 445 65 0 65 0 0 -445z"/>
<path d="M16962 7428 c-17 -17 -17 -969 0 -986 17 -17 202 -16 217 1 7 9 12
101 13 270 l3 257 165 -267 165 -268 109 -3 c71 -2 113 1 122 9 19 16 21 968
2 987 -17 17 -202 16 -217 -1 -7 -9 -12 -103 -13 -275 l-3 -262 -155 252 c-85
138 -163 262 -173 275 -17 21 -25 23 -121 23 -66 0 -106 -4 -114 -12z m380
-358 c103 -168 194 -309 202 -314 10 -7 20 -5 30 3 14 12 16 52 16 317 l0 304
60 0 60 0 0 -445 0 -445 -74 0 -73 0 -188 306 c-104 168 -194 308 -202 311 -7
3 -20 0 -28 -7 -13 -11 -15 -59 -15 -311 l0 -299 -60 0 -60 0 0 445 0 446 72
-3 72 -3 188 -305z"/>
<path d="M18190 7425 c-10 -12 8 -104 95 -492 59 -263 112 -484 118 -490 7 -9
46 -13 133 -13 117 0 124 1 138 23 7 12 47 150 87 305 45 175 75 277 79 265 4
-10 40 -142 80 -293 41 -151 78 -281 83 -287 7 -9 45 -13 128 -13 112 0 119 1
132 23 8 12 62 232 122 490 87 378 105 470 95 482 -16 20 -222 22 -237 3 -6
-7 -34 -129 -64 -270 -29 -142 -56 -254 -60 -250 -3 4 -34 120 -68 257 -35
138 -68 256 -73 263 -7 8 -49 12 -143 12 -94 0 -135 -4 -142 -12 -6 -7 -38
-123 -73 -258 -35 -135 -66 -248 -70 -253 -3 -4 -30 107 -60 245 -29 139 -57
259 -63 266 -15 19 -221 17 -237 -3z m205 -117 c8 -40 39 -183 68 -317 54
-253 67 -286 101 -251 8 8 44 132 81 275 37 143 73 284 82 313 l14 52 94 0 93
0 11 -32 c5 -18 42 -161 81 -318 40 -157 78 -292 86 -300 34 -35 47 -3 101
256 29 137 60 282 69 322 l15 72 66 0 c48 0 64 -3 61 -12 -2 -7 -49 -208 -104
-445 l-99 -433 -82 0 c-77 0 -83 1 -88 23 -3 12 -45 168 -94 346 -89 331 -103
365 -134 331 -8 -8 -54 -169 -103 -357 l-89 -343 -87 0 c-74 0 -87 3 -92 18
-3 9 -46 199 -96 422 -50 223 -94 415 -97 428 -5 21 -3 22 60 22 l66 0 16 -72z"/>
<path d="M19552 7428 c-17 -17 -17 -969 0 -986 8 -8 48 -12 113 -12 65 0 105
4 113 12 9 9 12 69 12 210 l0 198 160 0 160 0 0 -198 c0 -141 3 -201 12 -210
8 -8 48 -12 113 -12 65 0 105 4 113 12 17 17 17 969 0 986 -8 8 -48 12 -113
12 -65 0 -105 -4 -113 -12 -8 -8 -12 -64 -12 -185 l0 -173 -160 0 -160 0 0
173 c0 121 -4 177 -12 185 -8 8 -48 12 -113 12 -65 0 -105 -4 -113 -12z m178
-221 c0 -121 4 -177 12 -185 9 -9 69 -12 208 -12 139 0 199 3 208 12 8 8 12
64 12 185 l0 173 65 0 65 0 0 -445 0 -445 -65 0 -65 0 0 198 c0 141 -3 201
-12 210 -17 17 -399 17 -416 0 -9 -9 -12 -69 -12 -210 l0 -198 -65 0 -65 0 0
445 0 445 65 0 65 0 0 -173z"/>
<path d="M20502 7428 c-9 -9 -12 -132 -12 -493 0 -361 3 -484 12 -493 8 -8 48
-12 113 -12 65 0 105 4 113 12 9 9 12 132 12 493 0 361 -3 484 -12 493 -8 8
-48 12 -113 12 -65 0 -105 -4 -113 -12z m178 -493 l0 -445 -65 0 -65 0 0 445
0 445 65 0 65 0 0 -445z"/>
<path d="M21842 7428 c-9 -9 -12 -132 -12 -493 0 -361 3 -484 12 -493 8 -8 48
-12 113 -12 65 0 105 4 113 12 9 9 12 69 12 210 l0 198 160 0 160 0 0 -198 c0
-141 3 -201 12 -210 8 -8 48 -12 113 -12 65 0 105 4 113 12 9 9 12 132 12 493
0 361 -3 484 -12 493 -8 8 -48 12 -113 12 -65 0 -105 -4 -113 -12 -8 -8 -12
-64 -12 -185 l0 -173 -160 0 -160 0 0 173 c0 121 -4 177 -12 185 -8 8 -48 12
-113 12 -65 0 -105 -4 -113 -12z m178 -221 c0 -121 4 -177 12 -185 9 -9 69
-12 208 -12 139 0 199 3 208 12 8 8 12 64 12 185 l0 173 65 0 65 0 0 -445 0
-445 -65 0 -65 0 0 198 c0 141 -3 201 -12 210 -17 17 -399 17 -416 0 -9 -9
-12 -69 -12 -210 l0 -198 -65 0 -65 0 0 445 0 445 65 0 65 0 0 -173z"/>
<path d="M5031 5914 c-82 -22 -147 -62 -208 -128 -95 -103 -133 -214 -133
-391 0 -168 48 -292 151 -390 90 -86 194 -125 334 -125 139 0 243 38 331 122
102 97 143 195 151 363 11 233 -60 393 -220 496 -99 64 -278 88 -406 53z m259
-60 c97 -22 180 -77 229 -153 58 -90 76 -163 75 -306 -1 -128 -16 -191 -69
-280 -114 -195 -462 -234 -642 -71 -167 150 -177 521 -20 701 90 104 260 147
427 109z"/>
<path d="M5076 5756 c-88 -33 -156 -114 -182 -216 -24 -95 -15 -249 19 -324
55 -121 159 -183 288 -174 110 8 185 64 236 176 44 95 42 305 -4 397 -22 44
-82 104 -128 128 -52 26 -173 33 -229 13z m216 -78 c82 -45 113 -120 113 -279
0 -99 -2 -109 -33 -172 -26 -53 -42 -72 -77 -92 -122 -72 -267 -24 -325 108
-45 100 -34 284 21 373 21 34 69 69 117 85 45 14 137 3 184 -23z"/>
<path d="M13604 5916 c-168 -41 -303 -194 -334 -379 -18 -105 -8 -256 23 -339
44 -122 155 -235 269 -275 81 -28 263 -25 341 6 82 32 167 114 212 203 40 80
42 98 18 120 -24 21 -180 71 -198 64 -8 -3 -27 -34 -43 -69 -44 -96 -112 -137
-205 -123 -67 10 -107 42 -142 111 -28 57 -30 67 -30 180 0 104 3 127 23 172
29 63 55 88 111 108 98 34 188 4 232 -78 39 -72 37 -71 131 -52 92 20 128 37
128 63 0 67 -114 213 -200 257 -87 44 -228 57 -336 31z m218 -57 c106 -23 183
-79 227 -166 12 -23 21 -44 21 -46 0 -2 -26 -10 -57 -17 -53 -11 -58 -11 -68
5 -24 43 -83 99 -120 116 -50 23 -137 24 -196 4 -57 -20 -122 -84 -151 -149
-21 -46 -23 -66 -23 -191 0 -125 3 -146 24 -192 30 -67 105 -138 162 -153 115
-31 228 12 286 109 18 30 34 58 35 63 3 9 96 -18 112 -32 14 -13 -54 -129 -98
-166 -66 -56 -135 -78 -251 -78 -135 0 -197 24 -281 108 -64 64 -95 127 -115
230 -31 165 20 365 118 458 92 88 238 126 375 97z"/>
<path d="M3762 5898 c-7 -7 -12 -18 -12 -24 0 -7 77 -134 170 -283 l170 -270
0 -199 c0 -141 3 -201 12 -210 16 -16 210 -16 226 0 9 9 12 69 12 209 l0 197
170 272 c94 149 170 277 170 284 0 29 -25 36 -140 36 -99 0 -119 -3 -132 -17
-8 -10 -54 -88 -102 -173 -49 -85 -89 -156 -90 -157 -1 -1 -42 68 -90 155 -49
86 -96 165 -104 175 -13 14 -33 17 -132 17 -77 0 -120 -4 -128 -12z m320 -230
c57 -99 110 -186 120 -191 12 -8 21 -7 31 1 8 7 61 94 116 192 l102 180 74 0
75 0 -48 -77 c-27 -43 -99 -158 -160 -256 l-112 -178 0 -190 0 -189 -65 0 -65
0 0 190 0 191 -137 217 c-75 119 -147 234 -160 255 l-23 37 74 0 75 0 103
-182z"/>
<path d="M5770 5895 c-9 -11 -11 -103 -8 -377 4 -305 7 -371 21 -415 24 -72
92 -144 175 -185 66 -33 69 -33 207 -33 162 0 216 14 293 74 61 48 99 119 112
207 15 103 13 717 -2 732 -17 17 -212 16 -226 -1 -7 -8 -12 -135 -14 -364 -3
-339 -4 -353 -24 -380 -28 -37 -85 -56 -152 -50 -60 6 -93 24 -119 64 -16 24
-18 62 -21 372 -2 227 -7 350 -14 358 -16 19 -211 18 -228 -2z m180 -362 c0
-177 4 -334 10 -353 12 -45 85 -117 130 -130 44 -13 125 -13 170 0 48 13 109
78 121 126 4 22 9 182 9 357 l0 317 65 0 65 0 0 -297 c0 -394 -12 -468 -87
-538 -55 -51 -125 -69 -263 -70 -122 0 -127 1 -193 33 -39 19 -78 47 -93 67
-53 70 -57 102 -62 468 l-4 337 66 0 66 0 0 -317z"/>
<path d="M6733 5899 c-18 -18 -19 -969 -1 -987 8 -8 48 -12 113 -12 65 0 105
4 113 12 8 8 12 67 12 200 l0 188 35 0 c85 0 131 -42 252 -235 112 -178 95
-166 236 -163 95 2 122 6 130 18 7 12 -13 52 -84 169 -52 84 -113 175 -137
202 l-43 48 35 15 c44 18 106 80 131 131 15 31 20 61 20 130 0 82 -3 95 -31
145 -34 61 -94 113 -152 131 -55 18 -613 25 -629 8z m563 -60 c83 -15 127 -43
158 -99 51 -95 43 -204 -20 -279 -27 -31 -49 -45 -97 -60 -92 -28 -94 -40 -21
-109 41 -39 87 -99 142 -190 45 -73 82 -134 82 -137 0 -3 -33 -5 -72 -5 l-73
0 -67 109 c-99 159 -169 245 -221 270 -49 24 -165 29 -185 9 -8 -8 -12 -67
-12 -200 l0 -188 -65 0 -65 0 0 445 0 445 228 0 c126 0 255 -5 288 -11z"/>
<path d="M6922 5738 c-19 -19 -16 -252 3 -268 11 -9 59 -11 178 -9 180 4 199
10 238 72 15 24 19 44 16 85 -4 59 -30 95 -84 118 -43 18 -333 20 -351 2z
m332 -62 c25 -10 36 -22 41 -46 8 -36 -9 -85 -33 -96 -10 -4 -79 -9 -154 -12
l-138 -4 0 86 0 86 125 0 c85 0 136 -5 159 -14z"/>
<path d="M7960 5895 c-11 -13 14 -95 150 -488 89 -260 169 -480 178 -489 13
-15 33 -18 122 -18 89 0 109 3 122 18 8 9 90 229 183 489 141 396 166 475 155
488 -20 24 -221 22 -242 -2 -9 -10 -60 -152 -114 -316 l-99 -297 -100 299
c-55 164 -106 306 -114 315 -19 23 -222 24 -241 1z m312 -387 c71 -212 121
-346 131 -352 12 -8 20 -7 31 4 7 8 64 167 126 353 l112 337 64 0 c35 0 64 -3
64 -7 0 -5 -70 -205 -156 -445 l-157 -438 -77 0 -77 0 -21 58 c-51 139 -282
815 -282 823 0 5 29 9 64 9 l64 0 114 -342z"/>
<path d="M8942 5898 c-17 -17 -17 -969 0 -986 8 -8 48 -12 113 -12 65 0 105 4
113 12 17 17 17 969 0 986 -8 8 -48 12 -113 12 -65 0 -105 -4 -113 -12z m178
-493 l0 -445 -65 0 -65 0 0 445 0 445 65 0 65 0 0 -445z"/>
<path d="M9323 5899 c-18 -18 -19 -969 -1 -987 8 -8 48 -12 113 -12 65 0 105
4 113 12 8 8 12 67 12 200 l0 188 35 0 c85 0 131 -42 252 -235 112 -178 95
-166 236 -163 95 2 122 6 130 18 7 12 -13 52 -84 169 -52 84 -113 175 -137
202 l-43 48 35 15 c44 18 106 80 131 131 15 31 20 61 20 130 0 82 -3 95 -31
145 -34 61 -94 113 -152 131 -55 18 -613 25 -629 8z m563 -60 c83 -15 127 -43
158 -99 51 -95 43 -204 -20 -279 -27 -31 -49 -45 -97 -60 -92 -28 -94 -40 -21
-109 41 -39 87 -99 142 -190 45 -73 82 -134 82 -137 0 -3 -33 -5 -72 -5 l-73
0 -67 109 c-99 159 -169 245 -221 270 -49 24 -165 29 -185 9 -8 -8 -12 -67
-12 -200 l0 -188 -65 0 -65 0 0 445 0 445 228 0 c126 0 255 -5 288 -11z"/>
<path d="M9512 5738 c-19 -19 -16 -252 3 -268 11 -9 59 -11 178 -9 180 4 199
10 238 72 15 24 19 44 16 85 -4 59 -30 95 -84 118 -43 18 -333 20 -351 2z
m332 -62 c25 -10 36 -22 41 -46 8 -36 -9 -85 -33 -96 -10 -4 -79 -9 -154 -12
l-138 -4 0 86 0 86 125 0 c85 0 136 -5 159 -14z"/>
<path d="M10212 5898 c-7 -7 -12 -44 -12 -98 0 -54 5 -91 12 -98 8 -8 54 -12
140 -12 l128 0 0 -383 c0 -285 3 -386 12 -395 16 -16 210 -16 226 0 9 9 12
110 12 395 l0 383 128 0 c86 0 132 4 140 12 7 7 12 44 12 98 0 54 -5 91 -12
98 -9 9 -110 12 -393 12 -283 0 -384 -3 -393 -12z m738 -98 l0 -50 -128 0
c-86 0 -132 -4 -140 -12 -9 -9 -12 -110 -12 -395 l0 -383 -65 0 -65 0 0 383
c0 285 -3 386 -12 395 -8 8 -54 12 -140 12 l-128 0 0 50 0 50 345 0 345 0 0
-50z"/>
<path d="M11090 5895 c-9 -11 -11 -103 -8 -377 4 -305 7 -371 21 -415 24 -72
92 -144 175 -185 66 -33 69 -33 207 -33 162 0 216 14 293 74 61 48 99 119 112
207 15 103 13 717 -2 732 -17 17 -212 16 -226 -1 -7 -8 -12 -135 -14 -364 -3
-339 -4 -353 -24 -380 -28 -37 -85 -56 -152 -50 -60 6 -93 24 -119 64 -16 24
-18 62 -21 372 -2 227 -7 350 -14 358 -16 19 -211 18 -228 -2z m180 -362 c0
-177 4 -334 10 -353 12 -45 85 -117 130 -130 44 -13 125 -13 170 0 48 13 109
78 121 126 4 22 9 182 9 357 l0 317 65 0 65 0 0 -297 c0 -394 -12 -468 -87
-538 -55 -51 -125 -69 -263 -70 -122 0 -127 1 -193 33 -39 19 -78 47 -93 67
-53 70 -57 102 -62 468 l-4 337 66 0 66 0 0 -317z"/>
<path d="M12052 5898 c-17 -17 -17 -969 0 -986 17 -17 739 -17 756 0 16 16 16
180 0 196 -9 9 -82 12 -265 12 l-253 0 0 100 0 100 223 0 c160 0 226 3 235 12
16 16 16 180 0 196 -9 9 -75 12 -235 12 l-223 0 0 75 0 75 243 0 c176 0 246 3
255 12 7 7 12 44 12 98 0 54 -5 91 -12 98 -9 9 -104 12 -368 12 -264 0 -359
-3 -368 -12z m688 -98 l0 -50 -243 0 c-176 0 -246 -3 -255 -12 -17 -17 -17
-229 0 -246 9 -9 75 -12 235 -12 l223 0 0 -50 0 -50 -223 0 c-160 0 -226 -3
-235 -12 -8 -8 -12 -56 -12 -148 0 -92 4 -140 12 -148 9 -9 82 -12 265 -12
l253 0 0 -50 0 -50 -330 0 -330 0 0 445 0 445 320 0 320 0 0 -50z"/>
<path d="M14522 5897 c-6 -7 -90 -226 -187 -487 -127 -341 -174 -479 -167
-490 14 -23 218 -27 243 -4 10 9 32 59 49 110 l32 94 153 0 153 0 31 -86 c17
-47 31 -89 31 -93 0 -4 8 -15 18 -24 26 -24 223 -25 242 -1 11 13 -14 91 -160
492 -95 262 -178 483 -183 490 -13 17 -240 17 -255 -1z m369 -486 c88 -239
159 -438 159 -443 0 -4 -29 -8 -64 -8 l-63 0 -33 93 c-18 50 -40 100 -48 110
-13 15 -36 17 -197 17 -156 0 -185 -2 -196 -16 -8 -9 -28 -58 -45 -108 l-31
-91 -67 -3 c-55 -2 -67 0 -64 11 2 8 75 209 163 446 l160 431 84 -2 84 -3 158
-434z"/>
<path d="M14623 5668 c-12 -16 -123 -331 -123 -350 0 -32 24 -38 145 -38 123
0 145 6 145 39 0 20 -110 332 -123 349 -5 6 -15 12 -22 12 -7 0 -17 -6 -22
-12z m56 -209 c16 -46 32 -92 36 -101 6 -16 0 -18 -68 -18 l-76 0 36 106 c19
58 37 103 39 101 2 -2 17 -42 33 -88z"/>
<path d="M15192 5898 c-17 -17 -17 -969 0 -986 17 -17 202 -16 217 1 7 9 12
101 13 270 l3 257 165 -267 165 -268 109 -3 c71 -2 113 1 122 9 19 16 21 968
2 987 -17 17 -202 16 -217 -1 -7 -9 -12 -103 -13 -275 l-3 -262 -155 252 c-85
138 -163 262 -173 275 -17 21 -25 23 -121 23 -66 0 -106 -4 -114 -12z m380
-358 c103 -168 194 -309 202 -314 10 -7 20 -5 30 3 14 12 16 52 16 317 l0 304
60 0 60 0 0 -445 0 -445 -74 0 -73 0 -188 306 c-104 168 -194 308 -202 311 -7
3 -20 0 -28 -7 -13 -11 -15 -59 -15 -311 l0 -299 -60 0 -60 0 0 445 0 446 72
-3 72 -3 188 -305z"/>
<path d="M16452 5898 c-16 -16 -16 -180 0 -196 8 -8 54 -12 140 -12 l128 0 0
-383 c0 -285 3 -386 12 -395 16 -16 210 -16 226 0 9 9 12 110 12 395 l0 383
128 0 c86 0 132 4 140 12 7 7 12 44 12 98 0 54 -5 91 -12 98 -9 9 -110 12
-393 12 -283 0 -384 -3 -393 -12z m738 -98 l0 -50 -128 0 c-86 0 -132 -4 -140
-12 -9 -9 -12 -110 -12 -395 l0 -383 -65 0 -65 0 0 383 c0 285 -3 386 -12 395
-8 8 -54 12 -140 12 l-128 0 0 50 0 50 345 0 345 0 0 -50z"/>
<path d="M17332 5898 c-17 -17 -17 -969 0 -986 8 -8 48 -12 113 -12 65 0 105
4 113 12 9 9 12 69 12 210 l0 198 160 0 160 0 0 -198 c0 -141 3 -201 12 -210
8 -8 48 -12 113 -12 65 0 105 4 113 12 17 17 17 969 0 986 -8 8 -48 12 -113
12 -65 0 -105 -4 -113 -12 -8 -8 -12 -64 -12 -185 l0 -173 -160 0 -160 0 0
173 c0 121 -4 177 -12 185 -8 8 -48 12 -113 12 -65 0 -105 -4 -113 -12z m178
-221 c0 -121 4 -177 12 -185 9 -9 69 -12 208 -12 139 0 199 3 208 12 8 8 12
64 12 185 l0 173 65 0 65 0 0 -445 0 -445 -65 0 -65 0 0 198 c0 141 -3 201
-12 210 -17 17 -399 17 -416 0 -9 -9 -12 -69 -12 -210 l0 -198 -65 0 -65 0 0
445 0 445 65 0 65 0 0 -173z"/>
<path d="M18293 5899 c-18 -18 -19 -969 -1 -987 8 -8 48 -12 113 -12 65 0 105
4 113 12 8 8 12 67 12 200 l0 188 35 0 c85 0 131 -42 252 -235 112 -178 95
-166 236 -163 95 2 122 6 130 18 7 12 -13 52 -84 169 -52 84 -113 175 -137
202 l-43 48 35 15 c44 18 106 80 131 131 15 31 20 61 20 130 0 82 -3 95 -31
145 -34 61 -94 113 -152 131 -55 18 -613 25 -629 8z m563 -60 c83 -15 127 -43
158 -99 51 -95 43 -204 -20 -279 -27 -31 -49 -45 -97 -60 -92 -28 -94 -40 -21
-109 41 -39 87 -99 142 -190 45 -73 82 -134 82 -137 0 -3 -33 -5 -72 -5 l-73
0 -67 109 c-99 159 -169 245 -221 270 -49 24 -165 29 -185 9 -8 -8 -12 -67
-12 -200 l0 -188 -65 0 -65 0 0 445 0 445 228 0 c126 0 255 -5 288 -11z"/>
<path d="M18482 5738 c-19 -19 -16 -252 3 -268 11 -9 59 -11 178 -9 180 4 199
10 238 72 15 24 19 44 16 85 -4 59 -30 95 -84 118 -43 18 -333 20 -351 2z
m332 -62 c25 -10 36 -22 41 -46 8 -36 -9 -85 -33 -96 -10 -4 -79 -9 -154 -12
l-138 -4 0 86 0 86 125 0 c85 0 136 -5 159 -14z"/>
<path d="M19242 5898 c-17 -17 -17 -969 0 -986 8 -8 48 -12 113 -12 65 0 105
4 113 12 17 17 17 969 0 986 -8 8 -48 12 -113 12 -65 0 -105 -4 -113 -12z
m178 -493 l0 -445 -65 0 -65 0 0 445 0 445 65 0 65 0 0 -445z"/>
<path d="M19520 5895 c-11 -13 14 -95 150 -488 89 -260 169 -480 178 -489 13
-15 33 -18 122 -18 89 0 109 3 122 18 8 9 90 229 183 489 141 396 166 475 155
488 -20 24 -221 22 -242 -2 -9 -10 -60 -152 -114 -316 l-99 -297 -100 299
c-55 164 -106 306 -114 315 -19 23 -222 24 -241 1z m312 -387 c71 -212 121
-346 131 -352 12 -8 20 -7 31 4 7 8 64 167 126 353 l112 337 64 0 c35 0 64 -3
64 -7 0 -5 -70 -205 -156 -445 l-157 -438 -77 0 -77 0 -21 58 c-51 139 -282
815 -282 823 0 5 29 9 64 9 l64 0 114 -342z"/>
<path d="M20512 5898 c-9 -9 -12 -132 -12 -493 0 -361 3 -484 12 -493 17 -17
739 -17 756 0 7 7 12 44 12 98 0 54 -5 91 -12 98 -9 9 -82 12 -265 12 l-253 0
0 100 0 100 223 0 c160 0 226 3 235 12 7 7 12 44 12 98 0 54 -5 91 -12 98 -9
9 -75 12 -235 12 l-223 0 0 75 0 75 243 0 c176 0 246 3 255 12 7 7 12 44 12
98 0 54 -5 91 -12 98 -9 9 -104 12 -368 12 -264 0 -359 -3 -368 -12z m688 -98
l0 -50 -243 0 c-176 0 -246 -3 -255 -12 -8 -8 -12 -50 -12 -123 0 -73 4 -115
12 -123 9 -9 75 -12 235 -12 l223 0 0 -50 0 -50 -223 0 c-160 0 -226 -3 -235
-12 -8 -8 -12 -56 -12 -148 0 -92 4 -140 12 -148 9 -9 82 -12 265 -12 l253 0
0 -50 0 -50 -330 0 -330 0 0 445 0 445 320 0 320 0 0 -50z"/>
<path d="M21392 5128 c-8 -8 -12 -47 -12 -108 0 -61 4 -100 12 -108 16 -16
200 -16 216 0 8 8 12 47 12 108 0 61 -4 100 -12 108 -16 16 -200 16 -216 0z
m168 -108 l0 -60 -60 0 -60 0 0 60 0 60 60 0 60 0 0 -60z"/>
<path d="M10370 2656 c-6 -6 -10 -19 -10 -30 0 -32 221 -950 232 -963 7 -9 45
-13 123 -13 94 0 114 3 127 18 8 9 48 141 87 292 40 151 76 280 80 287 3 7 41
-119 84 -280 43 -161 83 -298 89 -304 15 -18 232 -18 246 0 5 6 62 228 126
492 l117 480 -23 19 c-20 16 -36 18 -116 14 -62 -4 -98 -10 -107 -19 -7 -8
-38 -129 -69 -269 -31 -140 -58 -258 -59 -263 -1 -4 -31 109 -66 250 -50 203
-68 262 -86 279 -20 18 -35 21 -130 22 -98 0 -110 -2 -129 -21 -15 -16 -40
-93 -86 -269 -36 -137 -67 -248 -70 -248 -3 0 -30 115 -60 256 -65 302 -54
287 -201 282 -49 -1 -94 -7 -99 -12z m187 -60 c1 -1 33 -141 70 -311 71 -322
82 -350 118 -314 9 9 53 153 97 320 44 167 82 305 83 307 1 2 43 4 91 4 l89 2
80 -319 c114 -447 116 -448 214 0 38 173 74 310 81 315 7 4 20 6 29 5 9 -2 32
-4 52 -4 l37 -1 -23 -92 c-13 -51 -57 -235 -100 -408 -42 -173 -80 -332 -86
-353 l-10 -38 -76 3 -77 3 -91 339 c-63 239 -95 342 -108 350 -35 22 -52 -20
-131 -324 -43 -162 -83 -312 -88 -332 l-11 -38 -78 0 -78 0 -10 38 c-19 70
-201 839 -201 849 0 8 118 7 127 -1z"/>
<path d="M11720 2649 c-15 -28 -13 -972 2 -987 16 -16 210 -16 226 0 9 9 12
69 12 210 l0 198 160 0 160 0 0 -198 c0 -141 3 -201 12 -210 16 -16 210 -16
226 0 18 18 17 983 0 995 -21 13 -211 11 -225 -3 -10 -9 -13 -61 -13 -188 l0
-176 -160 0 -160 0 0 176 c0 127 -3 179 -12 187 -8 8 -51 13 -116 13 -89 1
-104 -1 -112 -17z m173 -48 c4 -1 7 -79 7 -174 0 -121 4 -177 12 -185 18 -18
402 -17 417 1 6 8 12 80 13 188 l3 174 60 -1 60 0 3 -447 2 -447 -65 0 -65 0
0 198 c0 141 -3 201 -12 210 -17 17 -399 17 -416 0 -9 -9 -12 -69 -12 -210 l0
-198 -65 0 -65 0 0 443 c0 244 2 446 4 448 4 3 94 3 119 0z"/>
<path d="M12690 2658 l-25 -14 -3 -483 c-1 -349 1 -488 9 -497 8 -10 40 -14
114 -14 86 0 104 3 118 18 15 17 17 66 17 494 0 416 -2 477 -15 488 -23 19
-183 24 -215 8z m163 -57 c4 -1 7 -201 7 -446 l0 -445 -70 0 -70 0 0 444 0
445 48 3 c26 2 54 2 62 1 8 -1 18 -2 23 -2z"/>
<path d="M12986 2651 c-23 -26 -23 -173 1 -192 12 -10 50 -14 140 -14 l123 0
0 -381 c0 -356 1 -382 18 -397 15 -14 40 -17 118 -17 65 0 104 4 112 12 9 9
12 110 12 395 l0 383 88 1 c48 1 104 1 125 0 56 -3 66 16 67 120 0 73 -3 88
-17 95 -10 5 -187 10 -394 11 -352 2 -377 1 -393 -16z m737 -50 c4 -1 7 -21 7
-46 0 -25 -3 -45 -7 -45 -5 0 -63 -1 -131 -2 -107 -1 -124 -3 -132 -19 -6 -10
-10 -173 -10 -398 l0 -381 -70 0 -70 0 0 389 c0 426 2 412 -61 410 -19 -1 -76
-1 -126 0 l-93 1 0 45 0 45 328 2 c180 2 334 2 342 1 8 -1 18 -2 23 -2z"/>
<path d="M13866 2651 c-14 -16 -16 -72 -16 -493 0 -447 1 -476 18 -491 17 -15
58 -17 383 -17 271 0 368 3 377 12 7 7 12 44 12 98 0 54 -5 91 -12 98 -9 9
-82 12 -265 12 l-253 0 0 100 0 100 223 0 c269 0 257 -5 257 116 0 49 -5 85
-12 92 -9 9 -76 12 -240 12 l-228 0 0 78 0 77 242 -2 c216 -1 243 0 255 15 18
24 18 186 0 201 -10 7 -122 11 -369 10 -327 0 -357 -2 -372 -18z m694 -96 l0
-45 -207 -1 c-115 -1 -223 -1 -242 0 -57 2 -61 -8 -61 -138 0 -78 4 -121 12
-129 9 -9 76 -12 240 -12 l228 0 0 -50 0 -50 -228 0 c-164 0 -231 -3 -240 -12
-8 -8 -12 -56 -12 -148 0 -92 4 -140 12 -148 9 -9 82 -12 265 -12 l253 0 0
-50 0 -50 -335 0 -335 0 0 445 0 445 325 0 325 0 0 -45z"/>
</g>
</svg>
