<?xml version="1.0" standalone="no"?>
<!DOCTYPE svg PUBLIC "-//W3C//DTD SVG 20010904//EN"
 "http://www.w3.org/TR/2001/REC-SVG-20010904/DTD/svg10.dtd">
<svg version="1.0" xmlns="http://www.w3.org/2000/svg"
 width="2550.000000pt" height="3300.000000pt" viewBox="0 0 2550.000000 3300.000000"
 preserveAspectRatio="xMidYMid meet">
<metadata>
Created by potrace 1.14, written by Peter Selinger 2001-2017
</metadata>
<g transform="translate(0.000000,3300.000000) scale(0.100000,-0.100000)"
fill="#000000" stroke="none">
<path d="M11700 30815 c-23 -9 -83 -14 -175 -14 -136 -1 -142 -2 -180 -28 -39
-27 -45 -28 -225 -35 -268 -10 -357 -25 -490 -87 -37 -17 -65 -21 -163 -21
-110 0 -125 -2 -236 -40 -88 -30 -134 -40 -182 -40 -35 0 -82 -5 -104 -11 -22
-6 -60 -14 -84 -20 -24 -5 -64 -23 -89 -39 -25 -17 -62 -34 -82 -39 -19 -5
-55 -15 -80 -21 -53 -14 -127 -27 -225 -40 -57 -7 -277 -77 -500 -158 -16 -6
-84 -27 -150 -48 -126 -38 -198 -70 -253 -111 -42 -32 -94 -53 -130 -53 -69 0
-235 -69 -304 -126 -44 -38 -109 -74 -130 -74 -7 0 -56 -20 -108 -45 -61 -29
-109 -45 -133 -45 -26 0 -52 -9 -80 -29 -23 -16 -114 -65 -202 -109 -89 -44
-167 -87 -174 -96 -33 -40 -288 -186 -324 -186 -29 0 -156 -71 -207 -117 -58
-52 -286 -206 -358 -242 -24 -12 -60 -37 -80 -55 -39 -35 -92 -66 -114 -66
-29 0 -147 -84 -222 -159 -84 -82 -118 -109 -271 -210 -207 -136 -255 -173
-271 -203 -22 -42 -81 -104 -122 -130 -21 -12 -81 -63 -134 -115 -53 -51 -102
-93 -109 -93 -7 0 -83 -70 -169 -155 -86 -85 -162 -155 -168 -155 -17 0 -119
-98 -143 -138 -12 -20 -89 -105 -171 -188 -81 -83 -148 -156 -148 -163 0 -7
-49 -63 -108 -124 -59 -62 -116 -125 -127 -142 -18 -30 -42 -59 -162 -195 -36
-41 -76 -90 -88 -110 -12 -19 -35 -46 -49 -60 -15 -13 -37 -40 -48 -60 -12
-19 -40 -55 -63 -80 -23 -25 -68 -84 -99 -132 -31 -48 -61 -90 -66 -93 -5 -3
-47 -63 -95 -133 -47 -70 -106 -154 -131 -187 -24 -33 -56 -82 -70 -109 -14
-27 -64 -105 -110 -172 -46 -68 -97 -151 -115 -186 -17 -35 -46 -85 -63 -113
-70 -107 -109 -175 -177 -305 -118 -226 -164 -306 -202 -351 -20 -23 -37 -50
-37 -59 0 -10 -12 -35 -27 -56 -46 -68 -92 -176 -118 -279 -30 -114 -60 -182
-109 -242 -41 -50 -75 -135 -87 -218 -9 -60 -29 -121 -89 -270 -18 -44 -57
-154 -87 -245 -81 -243 -82 -246 -97 -292 -138 -413 -216 -671 -216 -716 0
-28 -11 -95 -24 -149 -24 -99 -39 -168 -56 -255 -5 -26 -13 -56 -19 -67 -6
-11 -11 -35 -11 -54 0 -19 -7 -54 -15 -77 -9 -24 -15 -77 -15 -122 0 -44 -5
-88 -11 -99 -10 -20 -26 -125 -36 -241 -4 -54 -3 -58 30 -95 l35 -38 1476 0
1475 0 31 30 c30 28 109 171 125 225 8 29 89 213 110 250 47 83 110 212 126
255 31 89 86 213 107 242 38 54 70 125 142 312 16 40 40 90 53 110 14 20 28
47 32 61 4 14 22 54 40 90 18 36 40 88 49 116 9 28 37 81 61 119 25 37 45 76
45 85 0 9 24 66 53 126 30 60 60 127 67 149 7 22 59 132 115 245 56 113 108
223 115 245 7 22 52 119 100 215 48 96 90 186 94 200 4 14 49 113 101 220 219
458 294 616 301 640 4 14 49 110 100 213 52 104 94 195 94 203 0 7 45 104 100
214 55 111 100 208 100 216 0 8 42 99 94 202 51 103 99 205 106 227 7 22 59
132 115 245 56 113 105 216 109 230 7 24 77 173 295 625 56 116 101 215 101
222 0 7 45 103 100 213 55 111 100 208 100 216 0 25 88 191 105 197 12 5 38
-39 119 -206 198 -405 306 -632 306 -644 0 -7 45 -103 100 -213 55 -111 100
-208 100 -216 0 -8 50 -113 110 -234 61 -121 110 -225 110 -232 0 -13 52 -135
80 -188 76 -143 143 -288 180 -395 10 -28 36 -79 59 -114 23 -35 46 -83 52
-105 6 -22 26 -70 44 -106 18 -36 36 -76 40 -90 4 -14 47 -104 95 -200 48 -96
93 -193 100 -215 7 -22 52 -119 100 -215 48 -96 93 -193 100 -215 7 -22 55
-124 106 -227 52 -103 94 -194 94 -202 0 -8 45 -105 100 -216 55 -110 100
-207 100 -215 0 -7 45 -104 100 -215 55 -110 100 -207 100 -215 0 -7 49 -112
109 -232 59 -120 112 -229 116 -243 4 -14 44 -97 87 -185 44 -88 91 -188 104
-222 13 -34 61 -138 107 -230 46 -93 90 -186 97 -208 7 -22 55 -124 106 -227
52 -103 94 -194 94 -202 0 -8 45 -105 100 -216 55 -110 100 -207 100 -215 0
-7 49 -112 109 -232 59 -120 111 -229 115 -243 4 -14 49 -113 101 -220 220
-459 294 -616 301 -640 3 -14 46 -104 94 -200 48 -96 93 -193 100 -215 7 -22
52 -119 100 -215 48 -96 93 -193 100 -215 7 -22 52 -119 100 -215 48 -96 93
-193 100 -215 19 -59 199 -416 223 -442 30 -33 95 -32 137 3 31 27 134 219
160 299 7 22 52 119 100 215 48 96 93 193 100 215 7 22 52 119 100 215 48 96
90 186 94 200 7 23 52 119 302 640 51 107 96 206 100 220 4 14 46 104 94 200
48 96 93 193 100 215 7 22 58 130 113 240 55 110 112 237 128 283 15 45 37 95
47 110 37 52 129 247 157 332 15 47 41 105 57 129 46 69 108 199 139 290 16
47 47 114 68 150 22 36 48 86 59 111 11 25 54 117 96 206 42 88 76 166 76 173
0 7 14 32 31 57 16 24 38 68 49 97 27 76 97 235 133 302 42 78 157 328 157
342 0 7 45 103 100 213 55 111 100 208 100 216 0 8 43 100 95 204 52 104 95
195 95 202 0 12 122 273 228 488 28 57 53 95 62 95 16 0 221 -391 241 -459 6
-22 53 -124 105 -228 52 -103 94 -193 94 -200 0 -12 45 -108 301 -638 55 -113
99 -210 99 -217 0 -7 45 -103 100 -213 55 -111 100 -208 100 -216 0 -8 50
-113 110 -234 61 -121 110 -226 110 -234 0 -8 45 -105 100 -216 55 -110 100
-207 100 -215 0 -7 45 -104 100 -215 55 -110 100 -206 100 -213 0 -7 44 -104
99 -217 54 -113 109 -229 122 -258 39 -90 107 -128 184 -102 33 11 41 22 111
163 42 84 85 162 97 175 l20 22 2817 0 2817 0 34 23 c18 12 39 34 46 47 17 34
16 149 -2 200 -8 23 -15 58 -15 77 0 19 -5 43 -11 55 -6 11 -15 52 -19 92 -20
169 -31 239 -40 256 -6 10 -10 40 -10 66 0 26 -6 70 -14 98 -8 28 -22 80 -31
116 -9 36 -23 88 -31 116 -8 28 -14 73 -14 101 0 64 -34 197 -58 228 -17 22
-37 82 -68 210 -16 66 -69 226 -134 405 -23 63 -45 136 -50 162 -10 53 -83
240 -135 350 -20 41 -35 88 -35 108 0 51 -43 171 -80 224 -39 58 -90 165 -90
191 0 52 -160 394 -212 453 -15 18 -63 102 -105 185 -41 84 -88 170 -103 192
-15 22 -49 82 -75 134 -26 52 -71 130 -102 174 -30 44 -69 110 -88 146 -35 69
-430 667 -469 711 -13 14 -32 41 -44 60 -11 19 -35 49 -52 65 -17 17 -52 62
-77 100 -26 39 -61 86 -79 105 -32 34 -86 105 -141 185 -15 22 -55 70 -90 107
-35 36 -63 71 -63 77 0 6 -45 58 -100 116 -55 57 -100 109 -100 116 0 6 -87
100 -193 208 -106 108 -210 223 -232 256 -54 84 -113 143 -154 156 -25 8 -80
55 -176 149 -77 75 -160 151 -185 168 -25 17 -67 54 -95 82 -27 29 -73 67
-102 85 -32 21 -65 54 -86 87 -19 29 -43 60 -53 70 -38 33 -124 87 -158 98
-19 6 -55 30 -81 53 -26 23 -84 67 -128 97 -49 33 -93 72 -110 98 -33 49 -161
138 -212 148 -19 3 -51 20 -72 38 -45 38 -121 89 -166 112 -58 30 -252 162
-277 189 -55 60 -380 255 -423 255 -35 0 -180 83 -224 128 -35 35 -63 54 -103
67 -67 22 -144 59 -185 90 -46 34 -86 52 -133 59 -24 4 -66 18 -92 31 -27 14
-55 25 -63 25 -20 0 -177 78 -214 106 -44 34 -173 94 -200 94 -12 0 -66 21
-120 46 -153 72 -226 101 -393 156 -197 64 -243 79 -415 139 -77 27 -174 53
-215 59 -184 24 -280 50 -319 83 -16 14 -96 41 -217 72 -33 8 -89 15 -125 15
-49 0 -94 10 -184 40 -113 38 -125 40 -240 40 -112 0 -123 2 -157 25 -21 14
-61 30 -89 35 -28 5 -56 13 -62 17 -7 4 -82 11 -167 15 -283 13 -350 22 -401
51 -43 25 -54 27 -166 27 -87 0 -131 4 -158 16 -44 18 -123 15 -197 -6 -41
-12 -54 -12 -90 0 -35 11 -158 15 -623 17 -498 3 -585 1 -624 -12 -57 -19
-122 -19 -168 0 -43 18 -96 18 -143 0z m1466 -121 c37 -12 71 -14 158 -10 142
7 135 8 306 -1 132 -7 148 -10 180 -33 29 -21 49 -25 135 -30 55 -3 106 -10
114 -15 28 -16 184 -30 286 -24 50 3 139 -21 185 -49 31 -19 50 -22 151 -22
109 0 122 -2 240 -42 93 -31 148 -43 219 -49 131 -10 207 -29 276 -72 33 -21
69 -37 80 -37 12 0 41 -7 64 -15 23 -8 56 -15 72 -15 16 0 63 -11 103 -25 41
-14 107 -30 147 -34 40 -5 116 -25 168 -44 116 -43 143 -52 345 -117 181 -59
215 -72 375 -146 63 -29 133 -56 155 -59 49 -8 80 -24 134 -69 23 -19 51 -37
64 -41 12 -3 60 -23 107 -44 119 -54 189 -82 235 -94 64 -16 94 -29 134 -55
50 -35 166 -92 185 -92 9 0 41 -22 71 -50 54 -49 190 -125 270 -150 93 -30
294 -148 340 -200 19 -21 248 -176 417 -280 40 -25 86 -57 103 -72 17 -15 58
-37 91 -49 46 -17 78 -41 149 -109 50 -47 124 -108 165 -135 41 -27 99 -71
128 -97 30 -27 61 -48 71 -48 25 0 138 -76 152 -102 19 -36 110 -127 159 -160
52 -35 127 -103 349 -316 105 -100 169 -154 188 -158 40 -8 52 -20 112 -109
31 -47 128 -157 235 -267 226 -234 335 -352 372 -403 15 -22 57 -70 91 -108
35 -37 63 -72 63 -77 0 -6 15 -27 33 -47 18 -21 43 -54 55 -73 11 -20 33 -47
48 -60 14 -14 54 -65 87 -115 33 -49 78 -111 101 -136 67 -76 109 -136 324
-458 112 -168 219 -336 238 -372 18 -37 53 -95 77 -130 25 -35 66 -107 92
-159 26 -52 57 -109 70 -125 13 -17 66 -117 118 -222 53 -105 113 -210 134
-235 50 -58 148 -268 175 -373 20 -79 41 -127 75 -178 19 -29 41 -64 49 -80
23 -44 54 -149 54 -184 0 -18 18 -70 39 -115 52 -110 78 -177 108 -273 26 -85
74 -229 146 -440 41 -120 56 -170 77 -265 24 -102 38 -147 53 -171 29 -44 57
-140 57 -197 0 -30 6 -78 14 -106 47 -166 80 -328 96 -472 5 -40 13 -81 19
-92 6 -12 11 -43 11 -71 0 -27 5 -62 11 -78 6 -15 15 -57 21 -93 5 -36 12 -80
15 -97 4 -28 2 -34 -22 -43 -17 -7 -957 -10 -2835 -10 l-2810 0 -31 -28 c-17
-15 -59 -82 -93 -147 -47 -93 -66 -120 -81 -120 -12 0 -24 10 -30 25 -5 14
-51 108 -101 210 -50 102 -97 203 -104 225 -7 22 -52 119 -100 215 -48 96 -90
186 -94 200 -7 25 -95 211 -310 655 -64 132 -116 245 -116 252 0 7 -45 103
-100 213 -55 111 -100 208 -100 215 0 8 -45 105 -100 215 -55 111 -100 208
-100 215 0 8 -45 105 -100 215 -55 111 -100 208 -100 216 0 8 -42 99 -94 202
-51 103 -96 198 -100 212 -4 14 -57 129 -118 255 -197 412 -190 398 -222 408
-48 16 -73 -14 -163 -188 -45 -88 -90 -182 -99 -210 -9 -27 -49 -115 -89 -195
-40 -80 -78 -163 -85 -185 -7 -22 -52 -119 -100 -215 -48 -96 -90 -186 -94
-200 -4 -14 -49 -113 -101 -220 -141 -294 -215 -456 -215 -472 0 -9 -9 -27
-20 -41 -11 -14 -27 -45 -35 -68 -9 -24 -22 -50 -29 -59 -14 -15 -38 -71 -81
-188 -13 -34 -37 -84 -53 -110 -16 -26 -33 -58 -37 -72 -5 -14 -39 -87 -76
-164 -38 -76 -69 -145 -69 -152 0 -20 -55 -128 -90 -176 -16 -22 -42 -82 -59
-133 -33 -103 -85 -212 -135 -285 -18 -27 -48 -92 -66 -146 -34 -103 -116
-276 -155 -329 -12 -16 -33 -61 -45 -100 -13 -38 -72 -169 -131 -290 -60 -122
-109 -226 -109 -233 0 -6 -45 -102 -100 -212 -55 -111 -100 -208 -100 -215 0
-8 -45 -105 -100 -215 -55 -111 -100 -208 -100 -215 0 -8 -45 -105 -100 -215
-55 -111 -100 -208 -100 -216 0 -8 -42 -99 -94 -202 -51 -103 -99 -205 -106
-227 -7 -22 -51 -115 -97 -208 -46 -92 -94 -196 -107 -231 -33 -87 -73 -148
-94 -144 -17 3 -124 198 -161 294 -11 28 -57 127 -104 220 -46 93 -90 187 -97
209 -7 22 -52 119 -100 215 -48 96 -93 193 -100 215 -7 22 -52 119 -100 215
-48 96 -93 193 -100 215 -7 22 -55 124 -106 227 -52 103 -94 194 -94 202 0 8
-45 105 -100 216 -55 110 -100 206 -100 213 0 7 -49 113 -109 237 -181 373
-309 644 -317 670 -3 14 -46 104 -94 200 -48 96 -93 193 -100 215 -7 22 -52
119 -100 215 -48 96 -93 193 -100 215 -7 22 -52 119 -100 215 -48 96 -93 193
-100 215 -7 22 -59 132 -115 245 -56 113 -105 216 -109 230 -4 14 -49 113
-101 220 -220 459 -294 616 -301 640 -3 14 -46 104 -94 200 -48 96 -93 193
-100 215 -7 22 -52 119 -100 215 -48 96 -93 193 -100 215 -7 22 -52 119 -100
215 -48 96 -93 193 -100 215 -7 22 -26 67 -43 100 -16 33 -38 84 -48 113 -10
29 -32 72 -49 95 -17 24 -43 77 -59 118 -74 192 -105 261 -144 325 -23 38 -62
119 -86 179 -24 61 -90 204 -147 318 -57 115 -104 215 -104 222 0 8 -45 105
-100 215 -55 111 -100 208 -100 215 0 8 -45 105 -100 215 -55 111 -100 208
-100 216 0 8 -42 99 -94 202 -51 103 -99 205 -106 227 -32 102 -87 175 -131
175 -40 0 -88 -61 -157 -198 -38 -75 -75 -155 -82 -177 -7 -22 -52 -119 -100
-215 -48 -96 -93 -193 -100 -215 -7 -22 -52 -119 -100 -215 -48 -96 -93 -193
-100 -215 -7 -22 -52 -119 -100 -215 -48 -96 -93 -193 -100 -215 -7 -22 -59
-132 -115 -245 -56 -113 -105 -216 -109 -230 -7 -23 -52 -119 -302 -640 -51
-107 -96 -206 -100 -220 -4 -14 -46 -104 -94 -200 -48 -96 -93 -193 -100 -215
-7 -22 -52 -119 -100 -215 -48 -96 -93 -193 -100 -215 -7 -22 -52 -119 -100
-215 -48 -96 -93 -193 -100 -215 -7 -22 -52 -119 -100 -215 -48 -96 -90 -186
-94 -200 -4 -14 -58 -131 -120 -260 -147 -304 -222 -469 -230 -500 -3 -14 -24
-55 -47 -90 -23 -36 -48 -83 -55 -106 -6 -22 -28 -72 -47 -110 -19 -38 -37
-82 -41 -99 -4 -16 -19 -45 -33 -64 -24 -31 -49 -88 -107 -246 -28 -75 -62
-140 -93 -182 -23 -29 -48 -88 -107 -248 -28 -75 -81 -181 -111 -220 -12 -16
-28 -48 -35 -70 -7 -22 -28 -70 -46 -107 -19 -37 -34 -73 -34 -80 0 -7 -20
-53 -45 -104 -37 -77 -49 -94 -76 -103 -34 -12 -2698 -17 -2757 -5 -17 3 -33
12 -36 19 -2 7 0 48 5 91 5 44 13 120 18 170 5 50 13 113 19 140 6 27 16 72
22 99 6 28 15 71 20 97 5 26 13 56 19 67 6 11 11 36 11 57 0 20 6 57 14 83 55
178 66 223 66 275 0 45 18 110 84 309 47 139 88 270 92 292 4 22 17 61 30 87
13 26 24 56 24 66 0 21 91 302 118 363 66 148 112 282 112 324 0 40 45 164 70
195 65 81 82 110 105 189 58 198 68 228 87 266 11 22 30 54 42 70 13 17 28 45
34 63 6 19 25 49 42 68 17 19 46 67 66 107 20 40 46 86 59 102 12 17 51 87 85
155 34 69 77 148 94 175 55 85 98 157 140 235 22 41 73 124 114 185 41 60 83
128 94 150 23 45 72 118 104 155 12 14 59 81 104 150 46 69 93 136 106 150 12
14 48 63 79 110 32 47 73 103 91 125 19 22 57 66 84 97 27 31 57 70 66 85 10
15 46 58 81 96 35 37 63 72 63 77 0 5 27 39 60 76 33 36 60 70 60 76 0 5 52
63 115 128 63 66 115 124 115 131 0 29 690 719 719 719 6 0 60 47 121 105 61
58 115 105 122 105 6 0 73 60 147 134 77 76 155 143 181 156 89 45 232 151
335 250 98 94 169 144 241 171 30 11 74 36 97 55 23 18 60 43 82 55 77 41 350
228 380 259 31 33 131 88 200 110 53 17 172 76 210 105 17 12 50 32 75 45 25
12 62 38 82 56 21 19 100 65 175 103 76 39 152 79 168 90 18 13 46 21 71 21
26 0 68 13 120 38 43 22 97 45 119 52 64 20 133 58 173 94 20 18 47 39 60 45
39 21 135 50 163 51 45 0 162 40 189 64 14 13 39 32 55 43 33 22 218 87 280
98 21 4 55 15 75 25 60 31 315 110 353 110 20 0 79 14 130 30 52 17 107 30
122 30 26 0 54 7 195 47 30 9 71 26 90 38 58 36 129 55 205 55 58 0 97 8 207
45 130 43 141 45 253 45 107 0 122 2 183 29 107 47 145 55 183 42 48 -17 72
-14 109 14 33 24 39 25 188 25 l153 0 59 32 58 32 54 -17 c51 -16 58 -16 99
-1 35 13 82 16 230 15 139 -1 195 2 225 13 61 23 1024 23 1090 0z"/>
<path d="M7721 20904 c-38 -32 -75 -92 -100 -165 -10 -30 -57 -130 -103 -224
-47 -93 -91 -188 -98 -210 -7 -22 -59 -132 -115 -245 -56 -113 -108 -223 -115
-245 -7 -22 -52 -119 -100 -215 -48 -96 -93 -193 -100 -215 -7 -22 -52 -119
-100 -215 -48 -96 -90 -186 -94 -200 -4 -14 -49 -113 -101 -220 -220 -460
-294 -617 -301 -640 -13 -47 -63 -137 -79 -144 -9 -3 -1099 -6 -2421 -6 -2618
0 -2446 4 -2493 -56 -19 -24 -22 -37 -17 -74 3 -25 10 -85 15 -135 5 -49 14
-103 20 -118 6 -16 11 -54 11 -86 0 -32 7 -78 15 -101 8 -23 15 -63 15 -88 0
-25 7 -70 16 -101 9 -31 22 -78 30 -105 8 -26 14 -61 14 -76 0 -15 9 -52 19
-82 11 -31 29 -96 40 -144 12 -49 27 -107 33 -129 6 -22 15 -62 19 -90 11 -72
22 -110 114 -400 46 -143 100 -314 120 -380 39 -126 91 -269 127 -345 29 -64
68 -188 68 -219 0 -63 63 -206 105 -241 19 -16 95 -165 95 -187 0 -7 18 -49
40 -93 22 -44 40 -91 40 -105 0 -32 167 -356 226 -440 12 -16 52 -88 88 -160
65 -125 94 -177 169 -295 19 -30 49 -82 65 -116 17 -33 47 -80 67 -104 20 -24
43 -57 52 -74 36 -71 118 -203 143 -231 15 -16 36 -46 48 -66 12 -19 31 -44
43 -55 12 -10 32 -40 45 -67 14 -26 47 -80 74 -121 27 -40 52 -86 56 -102 4
-17 48 -71 106 -131 54 -57 98 -107 98 -113 0 -6 25 -37 55 -70 30 -33 55 -64
55 -70 0 -6 35 -47 78 -93 43 -45 91 -100 107 -122 33 -47 117 -140 268 -300
59 -63 107 -119 107 -125 0 -6 46 -59 103 -118 57 -59 114 -123 127 -142 35
-52 90 -108 140 -142 25 -17 79 -64 121 -105 42 -40 82 -73 89 -73 7 0 90 -75
186 -167 246 -238 436 -414 459 -426 11 -5 47 -36 80 -67 38 -36 93 -74 145
-100 59 -30 107 -64 155 -110 84 -82 157 -133 223 -154 27 -9 67 -32 88 -50
46 -39 237 -166 326 -216 34 -19 85 -56 113 -82 53 -48 158 -115 229 -146 170
-74 340 -166 390 -211 66 -60 344 -204 434 -225 31 -7 84 -27 117 -43 33 -17
84 -38 113 -48 29 -9 81 -39 114 -66 46 -37 81 -55 142 -73 134 -40 192 -56
210 -56 9 0 47 -15 84 -34 37 -18 91 -41 120 -50 29 -10 75 -33 102 -52 50
-34 153 -76 220 -89 46 -9 279 -87 355 -119 39 -17 79 -26 115 -26 78 0 311
-61 400 -104 41 -20 84 -36 96 -36 12 0 41 -7 64 -15 23 -8 77 -15 119 -15 55
0 88 -6 121 -21 105 -49 123 -52 282 -58 144 -6 159 -8 188 -30 21 -15 54 -26
94 -31 33 -4 74 -13 89 -19 16 -6 46 -11 67 -11 22 0 65 -7 97 -15 35 -9 103
-15 178 -15 102 0 130 -4 190 -25 59 -21 89 -25 184 -25 79 0 131 -5 168 -17
47 -15 60 -15 101 -3 75 21 128 23 179 6 68 -23 1137 -24 1203 -1 55 19 101
19 167 -2 50 -16 56 -16 106 0 38 12 89 17 173 17 106 0 125 3 172 25 49 23
66 25 190 25 76 0 155 5 177 11 22 6 72 14 111 18 38 4 76 11 83 16 8 4 46 11
86 15 53 5 82 14 106 31 31 22 48 25 174 30 142 6 192 17 273 58 31 16 60 21
115 21 41 0 96 7 123 15 27 8 58 15 69 15 11 0 54 16 95 36 93 45 277 94 390
104 61 5 116 19 195 48 155 57 247 88 345 117 48 13 112 41 145 63 60 38 149
74 215 87 48 9 225 68 280 93 25 11 69 30 97 43 29 12 63 33 75 47 24 25 108
72 131 72 7 0 50 18 95 39 45 22 98 43 119 47 48 9 381 174 425 211 68 58 129
94 166 100 20 3 77 26 126 50 87 44 280 165 291 183 15 24 566 381 619 401 47
17 79 41 160 119 82 78 113 101 161 119 40 15 78 40 115 75 30 29 73 64 95 78
22 14 46 33 54 42 7 9 31 26 53 38 22 13 47 35 55 51 21 42 81 105 132 139 25
17 87 71 137 120 50 48 97 88 104 88 6 0 69 55 138 123 70 68 143 133 163 145
41 25 179 166 179 183 0 7 83 96 185 199 102 103 185 193 185 199 0 6 45 58
100 116 55 57 100 108 100 114 0 5 30 44 68 85 37 41 86 101 110 133 86 117
115 153 121 153 4 0 25 24 46 53 22 28 72 86 111 129 42 44 77 90 82 110 9 31
120 204 166 258 33 38 81 110 104 155 25 50 86 142 116 175 13 14 40 56 62 93
21 38 55 95 74 127 19 32 48 80 64 107 16 26 43 71 61 98 18 28 54 93 80 145
26 52 58 108 70 125 13 16 51 86 85 155 34 69 78 145 98 169 40 50 116 199
127 251 21 101 112 305 176 395 33 46 79 174 79 218 0 16 19 75 41 131 67 162
100 248 114 291 151 462 215 666 215 688 0 16 11 61 24 100 14 40 28 90 32
112 4 22 17 61 30 87 13 26 24 62 24 79 0 18 7 56 15 86 8 29 22 77 30 106 8
30 15 68 15 85 0 17 5 43 11 59 6 15 15 53 20 83 8 55 23 141 39 235 16 94 31
180 39 235 5 30 14 68 20 83 6 16 11 66 11 112 0 74 -3 87 -24 112 l-24 28
-1880 0 c-1875 0 -1881 0 -1909 -20 -20 -15 -61 -87 -139 -245 -178 -359 -315
-644 -314 -657 0 -7 -52 -116 -115 -243 -63 -128 -115 -238 -115 -246 0 -8
-43 -100 -95 -204 -52 -104 -95 -196 -95 -204 0 -8 -45 -105 -100 -216 -55
-110 -100 -207 -100 -214 0 -8 -43 -101 -96 -207 -52 -106 -106 -224 -119
-263 -12 -39 -38 -96 -56 -127 -19 -31 -56 -103 -83 -160 -27 -57 -93 -196
-147 -309 -55 -113 -99 -210 -99 -217 0 -7 -45 -103 -100 -213 -55 -111 -100
-208 -100 -215 0 -8 -45 -105 -100 -215 -55 -111 -100 -208 -100 -216 0 -8
-11 -37 -25 -64 -14 -27 -25 -56 -25 -64 0 -7 -8 -24 -19 -37 -16 -21 -21 -22
-36 -9 -19 16 -105 182 -105 204 0 8 -38 91 -85 185 -47 95 -85 178 -85 186 0
7 -43 100 -96 206 -52 106 -102 213 -111 238 -21 62 -105 228 -137 270 -14 19
-26 40 -26 47 0 20 -58 152 -161 364 -55 113 -99 210 -99 217 0 7 -45 103
-100 213 -55 111 -100 208 -100 215 0 8 -45 105 -100 215 -55 111 -100 208
-100 216 0 8 -43 100 -95 204 -52 104 -95 196 -95 204 0 8 -45 105 -100 216
-55 110 -100 206 -100 213 0 24 -201 418 -225 443 -36 36 -121 35 -165 -2 -31
-27 -70 -91 -70 -118 0 -8 -45 -105 -100 -216 -55 -110 -100 -206 -100 -213 0
-7 -16 -46 -36 -87 -20 -41 -44 -99 -55 -127 -10 -29 -32 -73 -48 -97 -17 -25
-31 -51 -31 -59 0 -8 -24 -63 -53 -123 -30 -60 -60 -127 -67 -149 -7 -22 -28
-63 -46 -91 -19 -28 -34 -56 -34 -62 0 -6 -24 -62 -54 -124 -29 -62 -57 -124
-61 -138 -4 -14 -47 -104 -95 -200 -48 -96 -93 -193 -100 -215 -7 -22 -52
-119 -100 -215 -48 -96 -93 -193 -100 -215 -7 -22 -52 -119 -100 -215 -48 -96
-93 -193 -100 -215 -7 -22 -59 -132 -115 -245 -56 -113 -108 -223 -115 -245
-7 -22 -51 -115 -97 -208 -46 -92 -94 -196 -107 -230 -13 -34 -60 -134 -104
-222 -43 -88 -83 -171 -87 -185 -4 -14 -47 -104 -95 -200 -48 -96 -93 -193
-100 -215 -7 -22 -52 -119 -100 -215 -48 -96 -93 -193 -100 -215 -7 -22 -52
-119 -100 -215 -48 -96 -93 -193 -100 -215 -7 -22 -52 -119 -100 -215 -48 -96
-93 -193 -100 -215 -7 -22 -59 -132 -115 -245 -56 -113 -106 -216 -110 -230
-12 -40 -84 -191 -106 -222 -11 -15 -25 -28 -30 -28 -5 0 -29 42 -53 94 -24
52 -57 114 -73 138 -17 23 -37 63 -46 88 -30 86 -75 186 -154 345 -44 88 -86
178 -93 200 -7 22 -52 119 -100 215 -48 96 -93 193 -100 215 -7 22 -52 119
-100 215 -48 96 -93 193 -100 215 -7 22 -52 119 -100 215 -48 96 -93 193 -100
215 -7 22 -59 132 -115 245 -56 113 -105 216 -109 230 -4 14 -49 113 -100 220
-250 521 -295 617 -302 640 -4 14 -46 104 -94 200 -48 96 -93 193 -100 215 -7
22 -52 119 -100 215 -48 96 -93 193 -100 215 -7 22 -52 119 -100 215 -48 96
-93 193 -100 215 -7 22 -59 132 -115 245 -56 113 -105 216 -109 230 -7 23 -52
119 -302 640 -51 107 -96 206 -100 220 -4 14 -49 110 -100 213 -52 104 -94
195 -94 203 0 7 -45 104 -100 214 -55 111 -100 208 -100 216 0 8 -42 99 -94
202 -51 103 -99 205 -106 227 -7 22 -52 119 -100 215 -48 96 -90 186 -94 200
-11 39 -166 371 -211 450 -7 14 -28 61 -45 105 -31 77 -109 243 -149 315 -27
49 -81 174 -81 188 0 11 -44 100 -120 242 -28 53 -80 175 -80 188 0 11 -23 58
-120 242 -33 65 -70 150 -70 165 0 8 -43 99 -95 203 -63 126 -105 199 -126
216 -42 35 -96 35 -138 0z m146 -289 c34 -66 80 -167 103 -225 22 -58 49 -121
60 -140 70 -122 146 -287 175 -378 8 -23 25 -57 38 -75 31 -40 84 -145 107
-212 29 -83 80 -198 94 -215 19 -21 85 -155 107 -215 34 -96 69 -172 104 -231
20 -32 44 -81 53 -109 9 -27 41 -99 70 -158 28 -60 52 -114 52 -122 0 -7 45
-104 100 -215 55 -110 100 -206 100 -212 0 -6 45 -103 100 -214 55 -112 100
-208 100 -213 0 -6 45 -101 100 -211 55 -111 100 -208 100 -215 0 -8 45 -105
100 -215 55 -111 100 -208 100 -215 0 -8 45 -105 100 -215 55 -111 100 -208
100 -216 0 -8 43 -100 95 -204 52 -104 95 -196 95 -204 0 -8 50 -115 111 -237
61 -122 117 -243 126 -268 8 -24 55 -125 104 -222 49 -98 89 -183 89 -189 0
-6 40 -90 89 -188 49 -97 96 -198 104 -223 9 -25 59 -132 111 -238 53 -106 96
-199 96 -207 0 -8 43 -100 95 -204 52 -104 95 -196 95 -204 0 -8 45 -105 100
-216 55 -110 100 -207 100 -215 0 -7 52 -117 115 -245 63 -127 115 -236 115
-243 0 -7 45 -106 101 -222 218 -452 288 -601 295 -625 4 -14 49 -109 100
-212 52 -103 94 -194 94 -202 0 -8 45 -105 100 -216 55 -110 100 -206 100
-212 0 -13 52 -136 80 -188 79 -148 114 -219 125 -254 28 -86 67 -172 87 -188
29 -25 61 -22 98 8 31 27 193 333 220 419 7 22 59 132 115 245 56 113 108 223
115 245 7 22 51 116 97 208 46 93 93 193 104 224 12 30 54 119 94 197 40 77
80 162 89 188 8 26 55 127 104 225 49 98 95 196 102 218 7 22 55 125 107 228
51 104 93 195 93 203 0 8 42 99 94 202 51 103 99 205 106 227 7 22 52 119 100
215 48 96 93 193 100 215 7 22 59 133 116 247 57 114 104 213 104 218 0 6 45
103 100 216 55 114 100 210 100 215 0 4 45 99 100 209 55 111 100 208 100 215
0 8 45 105 100 215 55 111 100 208 100 216 0 8 25 64 55 124 30 60 55 116 55
123 0 7 16 37 35 67 20 30 42 75 49 100 8 25 37 92 65 148 28 56 51 107 51
113 0 6 16 36 35 67 19 32 43 82 53 112 11 31 31 79 46 107 14 29 33 73 42 99
8 25 55 125 103 222 49 98 91 187 95 200 4 12 15 22 26 22 15 0 39 -40 105
-171 47 -93 85 -177 85 -185 0 -8 42 -99 94 -202 51 -103 96 -198 100 -212 4
-14 49 -113 101 -220 220 -459 294 -616 301 -640 3 -14 46 -104 94 -200 48
-96 93 -193 100 -215 7 -22 51 -116 98 -210 46 -93 93 -192 102 -220 30 -83
72 -179 91 -206 25 -36 139 -269 139 -285 0 -8 42 -99 94 -202 51 -103 96
-198 100 -212 4 -14 43 -99 86 -190 120 -251 197 -422 204 -451 8 -37 89 -109
122 -109 14 0 39 9 55 21 30 21 90 128 114 203 23 71 70 176 152 341 44 88 86
178 93 200 7 22 52 119 100 215 48 96 93 193 100 215 7 22 55 124 106 227 52
103 94 194 94 202 0 17 113 248 140 284 11 15 33 66 49 113 16 48 68 162 114
255 46 93 87 180 91 194 4 14 49 113 100 220 250 521 295 617 302 640 4 14 53
117 109 230 56 113 108 223 115 245 7 22 52 119 100 215 48 96 93 193 100 215
18 56 195 408 213 423 11 9 422 11 1818 10 l1804 -3 -1 -35 c-3 -54 -21 -162
-33 -193 -6 -16 -11 -51 -11 -78 0 -28 -5 -59 -11 -70 -6 -11 -15 -55 -20 -97
-5 -42 -16 -111 -25 -152 -8 -41 -19 -97 -23 -125 -9 -54 -26 -124 -47 -194
-8 -25 -14 -60 -14 -79 0 -18 -13 -64 -30 -102 -16 -38 -30 -77 -30 -89 0 -11
-11 -51 -25 -89 -14 -38 -25 -83 -25 -100 0 -17 -44 -165 -98 -329 -54 -164
-103 -316 -109 -338 -11 -43 -40 -117 -79 -203 -13 -29 -24 -58 -24 -65 0 -6
-14 -41 -30 -75 -17 -35 -30 -78 -30 -95 0 -57 -51 -197 -85 -237 -47 -54
-175 -348 -175 -402 0 -29 -89 -199 -126 -240 -19 -21 -64 -97 -100 -170 -36
-73 -72 -140 -79 -148 -7 -8 -40 -67 -72 -130 -33 -63 -70 -132 -84 -152 -13
-20 -44 -71 -69 -113 -25 -42 -60 -100 -79 -128 -18 -29 -44 -73 -56 -98 -13
-25 -39 -64 -59 -87 -19 -24 -56 -77 -82 -120 -78 -127 -133 -210 -143 -217
-17 -10 -142 -205 -154 -239 -5 -17 -45 -68 -89 -113 -43 -46 -78 -87 -78 -93
0 -6 -30 -44 -67 -84 -64 -69 -82 -92 -159 -202 -17 -24 -56 -70 -87 -103 -32
-33 -57 -64 -57 -70 0 -5 -45 -57 -100 -115 -55 -58 -100 -110 -100 -116 0 -9
-292 -318 -442 -468 -129 -129 -304 -289 -348 -319 -25 -17 -72 -59 -105 -93
-33 -34 -80 -76 -105 -93 -25 -16 -65 -49 -90 -72 -25 -22 -58 -49 -75 -59
-16 -9 -45 -40 -63 -67 -18 -27 -51 -62 -74 -77 -22 -15 -71 -55 -108 -89 -48
-46 -81 -67 -121 -80 -41 -13 -72 -35 -129 -88 -119 -112 -145 -132 -202 -153
-47 -18 -553 -347 -603 -392 -85 -78 -373 -240 -425 -240 -27 0 -140 -69 -190
-115 -36 -33 -367 -195 -399 -195 -15 0 -63 -17 -107 -38 -43 -22 -97 -45
-119 -52 -61 -20 -131 -57 -168 -90 -53 -46 -175 -93 -479 -185 -50 -15 -110
-41 -140 -62 -51 -35 -165 -82 -200 -83 -21 0 -162 -47 -198 -65 -61 -31 -214
-75 -262 -75 -49 0 -103 -11 -224 -46 -28 -7 -60 -14 -70 -14 -11 0 -57 -18
-102 -39 -84 -41 -173 -64 -211 -54 -26 7 -163 -23 -205 -45 -92 -46 -168 -62
-291 -62 -115 0 -124 -2 -161 -26 -26 -18 -59 -29 -108 -35 -164 -20 -219 -29
-253 -40 -27 -8 -45 -8 -79 1 -24 7 -54 9 -66 5 -13 -3 -63 -10 -113 -15 -63
-5 -106 -16 -145 -34 -55 -26 -56 -26 -316 -26 -207 0 -270 -3 -304 -15 -63
-22 -1013 -22 -1067 0 -26 11 -74 15 -183 15 -104 0 -160 4 -189 15 -36 12
-46 12 -82 0 -59 -21 -93 -19 -189 15 -47 16 -104 29 -127 30 -24 0 -63 5 -87
12 -35 9 -53 9 -84 -1 -31 -11 -47 -11 -75 -2 -20 7 -66 16 -104 21 -171 23
-197 29 -227 51 -26 20 -48 24 -131 29 -55 3 -107 10 -115 15 -8 5 -41 8 -73
7 -43 -2 -73 4 -120 23 -86 37 -206 67 -242 62 -52 -8 -136 11 -214 49 -42 19
-94 40 -116 44 -104 24 -165 40 -224 60 -35 12 -80 20 -100 18 -24 -2 -100 18
-226 59 -104 34 -222 72 -262 83 -40 12 -100 40 -138 65 -37 24 -82 47 -99 51
-17 3 -66 24 -108 45 -43 22 -86 39 -97 39 -10 0 -41 6 -67 14 -166 48 -202
61 -232 87 -38 34 -124 78 -214 113 -35 13 -96 40 -135 60 -40 21 -90 40 -110
43 -61 10 -329 148 -382 198 -39 37 -192 119 -392 211 -73 34 -149 82 -189
119 -48 44 -143 111 -200 140 -50 25 -197 123 -250 166 -49 39 -101 69 -123
69 -24 0 -136 80 -160 114 -27 40 -101 92 -207 146 -41 21 -93 57 -115 80 -22
23 -66 59 -97 81 -31 21 -72 58 -90 81 -18 23 -46 54 -63 70 -110 101 -188
168 -197 168 -6 0 -75 63 -153 140 -78 77 -147 140 -153 140 -7 0 -51 37 -99
83 -49 46 -103 92 -121 102 -18 11 -43 36 -55 55 -11 19 -70 85 -129 147 -59
62 -108 117 -108 123 0 6 -52 64 -115 130 -63 65 -115 123 -115 129 0 6 -38
51 -85 100 -47 50 -85 94 -85 100 0 5 -37 49 -82 99 -97 105 -181 205 -207
247 -10 17 -44 55 -76 85 -35 33 -69 79 -86 115 -16 33 -47 82 -68 109 -22 28
-55 76 -73 108 -18 32 -63 97 -100 146 -37 48 -79 107 -94 132 -15 25 -44 72
-65 106 -22 33 -46 82 -55 107 -10 30 -28 57 -49 73 -18 14 -52 60 -75 102
-67 124 -120 215 -134 232 -8 8 -42 71 -76 140 -34 69 -72 139 -85 155 -12 17
-39 64 -60 105 -20 41 -48 89 -61 107 -37 49 -114 213 -114 243 0 14 -16 59
-36 100 -20 41 -43 95 -51 120 -24 71 -78 171 -118 220 -39 48 -74 135 -75
185 0 42 -46 175 -111 323 -25 56 -119 339 -119 358 0 8 -38 128 -84 267 -46
138 -90 286 -99 327 -9 41 -26 116 -37 165 -12 50 -26 110 -31 134 -5 25 -20
77 -34 117 -14 40 -25 85 -25 100 0 15 -7 50 -14 78 -34 117 -46 175 -46 215
0 23 -4 51 -10 61 -10 19 -29 169 -37 291 -3 57 -1 78 10 87 10 9 598 12 2423
14 l2409 3 32 23 c31 22 113 166 113 198 0 7 45 104 100 214 55 111 100 208
100 216 0 8 43 100 95 204 52 104 95 196 95 204 0 8 45 105 100 216 55 110
100 206 100 213 0 11 60 138 316 667 63 129 114 241 114 248 0 7 42 97 94 200
51 103 97 201 100 219 9 38 43 85 60 81 6 -2 39 -58 73 -123z"/>
<path d="M10368 6504 c-18 -9 -31 -28 -38 -53 -7 -27 -9 -651 -8 -1971 l3
-1932 28 -24 28 -24 400 0 400 0 24 25 25 24 0 1958 c-1 1523 -3 1962 -13
1974 -29 37 -47 39 -439 39 -318 -1 -388 -3 -410 -16z m722 -124 c20 -20 20
-33 20 -1874 l0 -1855 -22 -15 c-33 -24 -583 -24 -616 0 l-22 15 0 1859 0
1859 22 15 c19 14 66 16 310 16 275 0 289 -1 308 -20z"/>
<path d="M11895 6495 l-25 -24 0 -1961 0 -1961 25 -24 24 -25 400 0 400 0 28
24 28 24 3 789 c2 788 2 788 23 806 20 16 72 17 786 17 l764 0 24 25 25 24 0
339 c0 320 -1 341 -19 363 l-19 24 -781 5 c-680 4 -783 7 -791 20 -13 20 -13
740 0 760 8 13 124 16 914 20 l905 5 23 23 23 23 0 340 0 341 -28 24 -28 24
-1340 0 -1340 0 -24 -25z m2613 -111 c22 -15 22 -18 22 -259 0 -231 -1 -245
-19 -255 -13 -7 -315 -10 -910 -10 l-890 0 -28 -24 -28 -24 0 -472 0 -472 28
-24 28 -24 765 0 c751 0 764 0 784 -20 19 -19 20 -33 20 -250 0 -217 -1 -231
-20 -250 -20 -20 -33 -20 -781 -20 -525 0 -767 -3 -781 -11 -48 -26 -48 -26
-48 -848 l0 -770 -22 -15 c-33 -24 -583 -24 -616 0 l-22 15 0 1855 c0 1841 0
1854 20 1874 20 20 33 20 1248 20 1095 0 1230 -2 1250 -16z"/>
<path d="M15215 6496 c-14 -14 -26 -41 -30 -67 -3 -24 -5 -907 -3 -1962 l3
-1919 28 -24 28 -24 1496 2 1495 3 19 24 c18 22 19 43 19 360 -1 353 -1 355
-47 379 -16 9 -289 12 -1055 12 -877 0 -1037 2 -1054 14 -18 14 -19 32 -22
443 -1 332 1 434 11 453 l13 25 943 5 943 5 24 28 24 28 0 319 c0 187 -4 330
-10 345 -21 56 2 55 -998 55 -843 0 -921 1 -933 17 -11 13 -14 82 -14 355 0
325 1 340 19 354 17 12 172 14 1022 14 l1003 0 28 24 28 24 0 342 0 342 -28
24 -28 24 -1450 0 -1450 0 -24 -24z m2822 -102 c38 -10 45 -60 41 -292 -3
-198 -4 -215 -22 -228 -17 -12 -173 -14 -1024 -14 l-1004 0 -29 -29 -29 -29 0
-427 c0 -479 0 -476 68 -494 24 -7 348 -11 948 -11 835 0 913 -1 925 -17 20
-23 25 -437 6 -473 l-13 -25 -934 -5 c-514 -3 -943 -9 -953 -14 -46 -22 -47
-33 -47 -591 l0 -527 29 -29 29 -29 1041 0 c1028 0 1041 0 1061 -20 19 -19 20
-33 20 -250 0 -217 -1 -231 -20 -250 -20 -20 -29 -20 -1410 -18 -1223 3 -1392
5 -1400 18 -6 9 -10 719 -10 1872 l0 1857 22 15 c20 14 165 16 1353 16 731 0
1340 -3 1352 -6z"/>
<path d="M7073 6466 l-28 -24 0 -1947 0 -1947 28 -24 28 -24 1375 0 1376 0 29
30 30 29 -3 336 -3 337 -28 24 -28 24 -930 0 c-916 0 -929 0 -949 20 -20 20
-20 33 -20 1576 l0 1556 -29 29 -29 29 -396 0 -395 0 -28 -24z m737 -116 c20
-20 20 -33 20 -1570 0 -1114 3 -1556 11 -1573 6 -14 22 -30 36 -36 17 -8 289
-11 936 -11 502 0 922 -3 934 -6 37 -10 45 -65 41 -295 -2 -154 -6 -211 -16
-221 -11 -11 -258 -13 -1298 -13 -1131 0 -1286 2 -1294 15 -6 9 -10 713 -10
1857 0 1661 2 1843 16 1857 13 14 56 16 310 16 281 0 295 -1 314 -20z"/>
</g>
</svg>
