<?xml version="1.0" standalone="no"?>
<!DOCTYPE svg PUBLIC "-//W3C//DTD SVG 20010904//EN"
 "http://www.w3.org/TR/2001/REC-SVG-20010904/DTD/svg10.dtd">
<svg version="1.0" xmlns="http://www.w3.org/2000/svg"
 width="2550.000000pt" height="3300.000000pt" viewBox="0 0 2550.000000 3300.000000"
 preserveAspectRatio="xMidYMid meet">
<metadata>
Created by potrace 1.14, written by Peter Selinger 2001-2017
</metadata>
<g transform="translate(0.000000,3300.000000) scale(0.100000,-0.100000)"
fill="#000000" stroke="none">
<path d="M13411 29024 c-82 -22 -147 -62 -208 -128 -95 -103 -133 -214 -133
-391 0 -168 48 -292 151 -390 90 -86 194 -125 334 -125 139 0 243 38 331 122
102 97 143 195 151 363 11 233 -60 393 -220 496 -99 64 -278 88 -406 53z m259
-60 c97 -22 180 -77 229 -153 58 -90 76 -163 75 -306 -1 -128 -16 -191 -69
-280 -114 -195 -462 -234 -642 -71 -167 150 -177 521 -20 701 90 104 260 147
427 109z"/>
<path d="M13456 28866 c-88 -33 -156 -114 -182 -216 -24 -95 -15 -249 19 -324
55 -121 159 -183 288 -174 110 8 185 64 236 176 44 95 42 305 -4 397 -22 44
-82 104 -128 128 -52 26 -173 33 -229 13z m216 -78 c82 -45 113 -120 113 -279
0 -99 -2 -109 -33 -172 -26 -53 -42 -72 -77 -92 -122 -72 -267 -24 -325 108
-45 100 -34 284 21 373 21 34 69 69 117 85 45 14 137 3 184 -23z"/>
<path d="M19672 29025 c-69 -19 -86 -29 -139 -78 -70 -64 -88 -107 -88 -207 0
-101 18 -143 90 -209 58 -53 117 -80 269 -120 137 -37 172 -53 181 -82 10 -30
-14 -78 -48 -95 -40 -21 -124 -28 -173 -15 -59 16 -90 44 -109 100 -24 73 -29
75 -136 62 -113 -13 -123 -20 -114 -80 14 -100 85 -207 169 -256 96 -56 312
-71 444 -30 69 21 147 86 186 155 29 51 31 62 31 150 0 110 -15 148 -87 216
-55 53 -104 78 -220 110 -220 61 -248 76 -233 124 9 29 86 54 146 47 67 -8 96
-28 109 -76 16 -60 27 -65 133 -56 50 4 98 11 105 17 16 14 15 54 -4 118 -21
71 -116 168 -189 194 -70 25 -253 31 -323 11z m302 -71 c67 -23 131 -88 149
-151 l14 -48 -41 -7 c-72 -12 -86 -10 -86 12 0 31 -67 98 -108 110 -179 49
-339 -73 -242 -184 32 -36 63 -49 248 -100 205 -57 266 -118 267 -266 0 -64
-4 -82 -29 -127 -50 -90 -131 -130 -286 -140 -157 -10 -285 37 -341 125 -35
56 -56 119 -43 131 5 5 32 11 60 13 l52 5 11 -37 c14 -47 86 -115 137 -129 49
-14 138 -14 186 -1 108 30 162 148 102 220 -36 42 -62 54 -199 90 -252 68
-319 124 -320 270 0 113 64 191 185 225 69 19 214 13 284 -11z"/>
<path d="M4772 29008 c-16 -16 -16 -180 0 -196 8 -8 54 -12 140 -12 l128 0 0
-383 c0 -285 3 -386 12 -395 16 -16 210 -16 226 0 9 9 12 110 12 395 l0 383
128 0 c86 0 132 4 140 12 7 7 12 44 12 98 0 54 -5 91 -12 98 -9 9 -110 12
-393 12 -283 0 -384 -3 -393 -12z m738 -98 l0 -50 -128 0 c-86 0 -132 -4 -140
-12 -9 -9 -12 -110 -12 -395 l0 -383 -65 0 -65 0 0 383 c0 285 -3 386 -12 395
-8 8 -54 12 -140 12 l-128 0 0 50 0 50 345 0 345 0 0 -50z"/>
<path d="M5652 29008 c-17 -17 -17 -969 0 -986 16 -16 210 -16 226 0 9 9 12
69 12 210 l0 198 160 0 160 0 0 -198 c0 -141 3 -201 12 -210 8 -8 48 -12 113
-12 65 0 105 4 113 12 17 17 17 969 0 986 -8 8 -48 12 -113 12 -65 0 -105 -4
-113 -12 -8 -8 -12 -64 -12 -185 l0 -173 -160 0 -160 0 0 173 c0 121 -4 177
-12 185 -8 8 -48 12 -113 12 -65 0 -105 -4 -113 -12z m178 -221 c0 -121 4
-177 12 -185 9 -9 69 -12 208 -12 139 0 199 3 208 12 8 8 12 64 12 185 l0 173
65 0 65 0 0 -445 0 -445 -65 0 -65 0 0 198 c0 141 -3 201 -12 210 -9 9 -69 12
-208 12 -139 0 -199 -3 -208 -12 -9 -9 -12 -69 -12 -210 l0 -198 -65 0 -65 0
0 445 0 445 65 0 65 0 0 -173z"/>
<path d="M6612 29008 c-17 -17 -17 -969 0 -986 9 -9 107 -12 378 -12 271 0
369 3 378 12 16 16 16 180 0 196 -9 9 -82 12 -265 12 l-253 0 0 100 0 100 223
0 c160 0 226 3 235 12 16 16 16 180 0 196 -9 9 -75 12 -235 12 l-223 0 0 75 0
75 243 0 c176 0 246 3 255 12 7 7 12 44 12 98 0 54 -5 91 -12 98 -9 9 -104 12
-368 12 -264 0 -359 -3 -368 -12z m688 -98 l0 -50 -243 0 c-176 0 -246 -3
-255 -12 -8 -8 -12 -50 -12 -123 0 -73 4 -115 12 -123 9 -9 75 -12 235 -12
l223 0 0 -50 0 -50 -223 0 c-160 0 -226 -3 -235 -12 -8 -8 -12 -56 -12 -148 0
-92 4 -140 12 -148 9 -9 82 -12 265 -12 l253 0 0 -50 0 -50 -330 0 -330 0 0
445 0 445 320 0 320 0 0 -50z"/>
<path d="M7770 29005 c-11 -13 14 -95 150 -488 89 -260 169 -480 178 -489 13
-15 33 -18 122 -18 89 0 109 3 122 18 8 9 90 229 183 489 141 396 166 475 155
488 -20 24 -221 22 -242 -2 -9 -10 -60 -152 -114 -316 l-99 -297 -100 299
c-55 164 -106 306 -114 315 -19 23 -222 24 -241 1z m312 -387 c71 -212 121
-346 131 -352 12 -8 20 -7 31 4 7 8 64 167 126 353 l112 337 64 0 c35 0 64 -3
64 -7 0 -5 -70 -205 -156 -445 l-157 -438 -77 0 -77 0 -21 58 c-51 139 -282
815 -282 823 0 5 29 9 64 9 l64 0 114 -342z"/>
<path d="M8752 29008 c-17 -17 -17 -969 0 -986 16 -16 210 -16 226 0 17 17 17
969 0 986 -8 8 -48 12 -113 12 -65 0 -105 -4 -113 -12z m178 -493 l0 -445 -65
0 -65 0 0 445 0 445 65 0 65 0 0 -445z"/>
<path d="M9133 29009 c-18 -18 -19 -969 -1 -987 16 -16 210 -16 226 0 8 8 12
67 12 200 l0 188 35 0 c85 0 131 -42 252 -235 112 -178 95 -166 236 -163 95 2
122 6 130 18 7 12 -13 52 -84 169 -52 84 -113 175 -137 202 l-43 48 35 15 c44
18 106 80 131 131 15 31 20 61 20 130 0 82 -3 95 -31 145 -34 61 -94 113 -152
131 -55 18 -613 25 -629 8z m563 -60 c83 -15 127 -43 158 -99 51 -95 43 -204
-20 -279 -27 -31 -49 -45 -97 -60 -92 -28 -94 -40 -21 -109 41 -39 87 -99 142
-190 45 -73 82 -134 82 -137 0 -3 -33 -5 -72 -5 l-73 0 -67 109 c-99 159 -169
245 -221 270 -49 24 -165 29 -185 9 -8 -8 -12 -67 -12 -200 l0 -188 -65 0 -65
0 0 445 0 445 228 0 c126 0 255 -5 288 -11z"/>
<path d="M9322 28848 c-19 -19 -16 -252 3 -268 11 -9 59 -11 178 -9 180 4 199
10 238 72 15 24 19 44 16 85 -4 59 -30 95 -84 118 -43 18 -333 20 -351 2z
m332 -62 c25 -10 36 -22 41 -46 8 -36 -9 -85 -33 -96 -10 -4 -79 -9 -154 -12
l-138 -4 0 86 0 86 125 0 c85 0 136 -5 159 -14z"/>
<path d="M10022 29008 c-7 -7 -12 -44 -12 -98 0 -54 5 -91 12 -98 8 -8 54 -12
140 -12 l128 0 0 -383 c0 -285 3 -386 12 -395 16 -16 210 -16 226 0 9 9 12
110 12 395 l0 383 128 0 c86 0 132 4 140 12 7 7 12 44 12 98 0 54 -5 91 -12
98 -9 9 -110 12 -393 12 -283 0 -384 -3 -393 -12z m738 -98 l0 -50 -128 0
c-86 0 -132 -4 -140 -12 -9 -9 -12 -110 -12 -395 l0 -383 -65 0 -65 0 0 383
c0 285 -3 386 -12 395 -8 8 -54 12 -140 12 l-128 0 0 50 0 50 345 0 345 0 0
-50z"/>
<path d="M10900 29005 c-9 -11 -11 -103 -8 -377 4 -305 7 -371 21 -415 24 -72
92 -144 175 -185 66 -33 69 -33 207 -33 162 0 216 14 293 74 61 48 99 119 112
207 15 103 13 717 -2 732 -17 17 -212 16 -226 -1 -7 -8 -12 -135 -14 -364 -3
-339 -4 -353 -24 -380 -28 -37 -85 -56 -152 -50 -60 6 -93 24 -119 64 -16 24
-18 62 -21 372 -2 227 -7 350 -14 358 -16 19 -211 18 -228 -2z m180 -362 c0
-177 4 -334 10 -353 12 -45 85 -117 130 -130 44 -13 125 -13 170 0 48 13 109
78 121 126 4 22 9 182 9 357 l0 317 65 0 65 0 0 -297 c0 -394 -12 -468 -87
-538 -55 -51 -125 -69 -263 -70 -122 0 -127 1 -193 33 -39 19 -78 47 -93 67
-53 70 -57 102 -62 468 l-4 337 66 0 66 0 0 -317z"/>
<path d="M11862 29008 c-17 -17 -17 -969 0 -986 9 -9 107 -12 378 -12 271 0
369 3 378 12 16 16 16 180 0 196 -9 9 -82 12 -265 12 l-253 0 0 100 0 100 223
0 c160 0 226 3 235 12 16 16 16 180 0 196 -9 9 -75 12 -235 12 l-223 0 0 75 0
75 243 0 c176 0 246 3 255 12 7 7 12 44 12 98 0 54 -5 91 -12 98 -9 9 -104 12
-368 12 -264 0 -359 -3 -368 -12z m688 -98 l0 -50 -243 0 c-176 0 -246 -3
-255 -12 -17 -17 -17 -229 0 -246 9 -9 75 -12 235 -12 l223 0 0 -50 0 -50
-223 0 c-160 0 -226 -3 -235 -12 -8 -8 -12 -56 -12 -148 0 -92 4 -140 12 -148
9 -9 82 -12 265 -12 l253 0 0 -50 0 -50 -330 0 -330 0 0 445 0 445 320 0 320
0 0 -50z"/>
<path d="M14152 29008 c-17 -17 -17 -969 0 -986 16 -16 210 -16 226 0 8 8 12
67 12 200 l0 188 183 0 c129 0 187 4 195 12 16 16 16 180 0 196 -8 8 -66 12
-195 12 l-183 0 0 85 0 85 213 0 c152 0 216 3 225 12 7 7 12 44 12 98 0 54 -5
91 -12 98 -9 9 -98 12 -338 12 -240 0 -329 -3 -338 -12z m628 -98 l0 -50 -213
0 c-152 0 -216 -3 -225 -12 -17 -17 -17 -249 0 -266 8 -8 66 -12 195 -12 l183
0 0 -50 0 -50 -183 0 c-129 0 -187 -4 -195 -12 -8 -8 -12 -67 -12 -200 l0
-188 -65 0 -65 0 0 445 0 445 290 0 290 0 0 -50z"/>
<path d="M15322 29008 c-17 -17 -17 -969 0 -986 17 -17 202 -16 217 1 7 9 12
98 13 257 l3 244 54 -235 c30 -129 60 -244 68 -256 13 -22 20 -23 128 -23 108
0 115 1 128 23 8 12 38 127 68 256 l54 235 3 -244 c1 -159 6 -248 13 -257 15
-17 200 -18 217 -1 17 17 17 969 0 986 -16 16 -329 17 -346 0 -6 -6 -39 -128
-74 -271 l-63 -260 -63 258 c-34 142 -67 264 -73 272 -15 18 -329 19 -347 1z
m378 -365 c41 -172 81 -318 88 -325 32 -32 45 4 122 323 l75 314 128 3 127 3
0 -446 0 -445 -60 0 -60 0 0 364 c0 319 -2 365 -16 377 -36 30 -46 2 -133
-374 l-86 -367 -80 0 -80 0 -86 367 c-87 376 -97 404 -133 374 -14 -12 -16
-58 -16 -377 l0 -364 -60 0 -60 0 0 445 0 446 127 -3 128 -3 75 -312z"/>
<path d="M16432 29008 c-17 -17 -17 -969 0 -986 16 -16 210 -16 226 0 17 17
17 969 0 986 -8 8 -48 12 -113 12 -65 0 -105 -4 -113 -12z m178 -493 l0 -445
-65 0 -65 0 0 445 0 445 65 0 65 0 0 -445z"/>
<path d="M16812 29008 c-17 -17 -17 -969 0 -986 17 -17 202 -16 217 1 7 9 12
101 13 270 l3 257 165 -267 165 -268 109 -3 c71 -2 113 1 122 9 19 16 21 968
2 987 -17 17 -202 16 -217 -1 -7 -9 -12 -103 -13 -275 l-3 -262 -155 252 c-85
138 -163 262 -173 275 -17 21 -25 23 -121 23 -66 0 -106 -4 -114 -12z m380
-358 c103 -168 194 -309 202 -314 10 -7 20 -5 30 3 14 12 16 52 16 317 l0 304
60 0 60 0 0 -445 0 -445 -74 0 -73 0 -188 306 c-104 168 -194 308 -202 311 -7
3 -20 0 -28 -7 -13 -11 -15 -59 -15 -311 l0 -299 -60 0 -60 0 0 445 0 446 72
-3 72 -3 188 -305z"/>
<path d="M17773 29009 c-10 -10 -13 -123 -13 -495 0 -408 2 -483 14 -494 11
-8 81 -11 268 -8 284 5 316 11 404 77 111 84 163 202 171 386 8 204 -31 329
-137 435 -97 97 -124 103 -435 108 -201 3 -263 1 -272 -9z m569 -78 c146 -57
227 -228 215 -456 -8 -155 -64 -284 -146 -338 -82 -54 -118 -61 -363 -65
l-228 -4 0 447 0 447 233 -4 c211 -4 237 -6 289 -27z"/>
<path d="M17962 28848 c-17 -17 -17 -649 0 -666 15 -15 247 -16 302 -1 56 16
121 80 143 142 14 41 18 83 18 197 0 126 -3 151 -21 191 -31 66 -84 115 -146
134 -64 19 -278 21 -296 3z m275 -63 c98 -29 128 -93 128 -270 0 -236 -43
-284 -252 -285 l-103 0 0 285 0 285 88 0 c50 0 111 -7 139 -15z"/>
<path d="M19092 29008 c-17 -17 -17 -969 0 -986 16 -16 210 -16 226 0 17 17
17 969 0 986 -8 8 -48 12 -113 12 -65 0 -105 -4 -113 -12z m178 -493 l0 -445
-65 0 -65 0 0 445 0 445 65 0 65 0 0 -445z"/>
<path d="M10631 27494 c-82 -22 -147 -62 -208 -128 -95 -103 -133 -214 -133
-391 0 -168 48 -292 151 -390 90 -86 194 -125 334 -125 139 0 243 38 331 122
102 97 143 195 151 363 11 233 -60 393 -220 496 -99 64 -278 88 -406 53z m259
-60 c97 -22 180 -77 229 -153 58 -90 76 -163 75 -306 -1 -128 -16 -191 -69
-280 -114 -195 -462 -234 -642 -71 -167 150 -177 521 -20 701 90 104 260 147
427 109z"/>
<path d="M10676 27336 c-88 -33 -156 -114 -182 -216 -24 -95 -15 -249 19 -324
55 -121 159 -183 288 -174 110 8 185 64 236 176 44 95 42 305 -4 397 -22 44
-82 104 -128 128 -52 26 -173 33 -229 13z m216 -78 c82 -45 113 -120 113 -279
0 -99 -2 -109 -33 -172 -26 -53 -42 -72 -77 -92 -122 -72 -267 -24 -325 108
-45 100 -34 284 21 373 21 34 69 69 117 85 45 14 137 3 184 -23z"/>
<path d="M13422 27495 c-69 -19 -86 -29 -139 -78 -70 -64 -88 -107 -88 -207 0
-101 18 -143 90 -209 58 -53 117 -80 269 -120 137 -37 172 -53 181 -82 10 -30
-14 -78 -48 -95 -40 -21 -124 -28 -173 -15 -59 16 -90 44 -109 100 -24 73 -29
75 -136 62 -113 -13 -123 -20 -114 -80 14 -100 85 -207 169 -256 96 -56 312
-71 444 -30 69 21 147 86 186 155 29 51 31 62 31 150 0 110 -15 148 -87 216
-55 53 -104 78 -220 110 -220 61 -248 76 -233 124 9 29 86 54 146 47 67 -8 96
-28 109 -76 16 -60 27 -65 133 -56 50 4 98 11 105 17 16 14 15 54 -4 118 -21
71 -116 168 -189 194 -70 25 -253 31 -323 11z m302 -71 c67 -23 131 -88 149
-151 l14 -48 -41 -7 c-72 -12 -86 -10 -86 12 0 31 -67 98 -108 110 -179 49
-339 -73 -242 -184 32 -36 63 -49 248 -100 205 -57 266 -118 267 -266 0 -64
-4 -82 -29 -127 -50 -90 -131 -130 -286 -140 -157 -10 -285 37 -341 125 -35
56 -56 119 -43 131 5 5 32 11 60 13 l52 5 11 -37 c14 -47 86 -115 137 -129 49
-14 138 -14 186 -1 108 30 162 148 102 220 -36 42 -62 54 -199 90 -252 68
-319 124 -320 270 0 113 64 191 185 225 69 19 214 13 284 -11z"/>
<path d="M9382 27478 c-17 -17 -17 -969 0 -986 16 -16 210 -16 226 0 9 9 12
69 12 210 l0 198 160 0 160 0 0 -198 c0 -141 3 -201 12 -210 8 -8 48 -12 113
-12 65 0 105 4 113 12 17 17 17 969 0 986 -8 8 -48 12 -113 12 -65 0 -105 -4
-113 -12 -8 -8 -12 -64 -12 -185 l0 -173 -160 0 -160 0 0 173 c0 121 -4 177
-12 185 -8 8 -48 12 -113 12 -65 0 -105 -4 -113 -12z m178 -221 c0 -121 4
-177 12 -185 9 -9 69 -12 208 -12 139 0 199 3 208 12 8 8 12 64 12 185 l0 173
65 0 65 0 0 -445 0 -445 -65 0 -65 0 0 198 c0 141 -3 201 -12 210 -9 9 -69 12
-208 12 -139 0 -199 -3 -208 -12 -9 -9 -12 -69 -12 -210 l0 -198 -65 0 -65 0
0 445 0 445 65 0 65 0 0 -173z"/>
<path d="M11372 27478 c-17 -17 -17 -969 0 -986 17 -17 202 -16 217 1 7 9 12
101 13 270 l3 257 165 -267 165 -268 109 -3 c71 -2 113 1 122 9 19 16 21 968
2 987 -17 17 -202 16 -217 -1 -7 -9 -12 -103 -13 -275 l-3 -262 -155 252 c-85
138 -163 262 -173 275 -17 21 -25 23 -121 23 -66 0 -106 -4 -114 -12z m380
-358 c103 -168 194 -309 202 -314 10 -7 20 -5 30 3 14 12 16 52 16 317 l0 304
60 0 60 0 0 -445 0 -445 -74 0 -73 0 -188 306 c-104 168 -194 308 -202 311 -7
3 -20 0 -28 -7 -13 -11 -15 -59 -15 -311 l0 -299 -60 0 -60 0 0 445 0 446 72
-3 72 -3 188 -305z"/>
<path d="M12332 27478 c-17 -17 -17 -969 0 -986 9 -9 107 -12 378 -12 271 0
369 3 378 12 16 16 16 180 0 196 -9 9 -82 12 -265 12 l-253 0 0 100 0 100 223
0 c160 0 226 3 235 12 16 16 16 180 0 196 -9 9 -75 12 -235 12 l-223 0 0 75 0
75 243 0 c176 0 246 3 255 12 7 7 12 44 12 98 0 54 -5 91 -12 98 -9 9 -104 12
-368 12 -264 0 -359 -3 -368 -12z m688 -98 l0 -50 -243 0 c-176 0 -246 -3
-255 -12 -17 -17 -17 -229 0 -246 9 -9 75 -12 235 -12 l223 0 0 -50 0 -50
-223 0 c-160 0 -226 -3 -235 -12 -8 -8 -12 -56 -12 -148 0 -92 4 -140 12 -148
9 -9 82 -12 265 -12 l253 0 0 -50 0 -50 -330 0 -330 0 0 445 0 445 320 0 320
0 0 -50z"/>
<path d="M14042 27478 c-16 -16 -16 -180 0 -196 8 -8 54 -12 140 -12 l128 0 0
-383 c0 -285 3 -386 12 -395 16 -16 210 -16 226 0 9 9 12 110 12 395 l0 383
129 0 c92 0 132 4 139 13 6 7 12 37 14 66 l3 53 158 -251 157 -251 0 -198 c0
-141 3 -201 12 -210 8 -8 48 -12 113 -12 65 0 105 4 113 12 9 9 12 69 12 209
l0 197 170 272 c94 149 170 277 170 284 0 29 -25 36 -140 36 -99 0 -119 -3
-132 -17 -8 -10 -55 -89 -104 -175 -48 -87 -89 -156 -90 -155 -1 1 -41 72 -90
157 -48 85 -94 163 -102 172 -13 16 -56 17 -526 18 -387 0 -515 -3 -524 -12z
m738 -98 l0 -50 -128 0 c-86 0 -132 -4 -140 -12 -9 -9 -12 -110 -12 -395 l0
-383 -65 0 -65 0 0 383 c0 285 -3 386 -12 395 -8 8 -54 12 -140 12 l-128 0 0
50 0 50 345 0 345 0 0 -50z m372 -132 c57 -99 110 -186 120 -191 12 -8 21 -7
31 1 8 7 61 94 116 192 l102 180 74 0 75 0 -48 -77 c-27 -43 -99 -158 -160
-256 l-112 -178 0 -190 0 -189 -65 0 -65 0 0 190 0 191 -137 217 c-75 119
-147 234 -160 255 l-23 37 74 0 75 0 103 -182z"/>
<path d="M12205 23049 c-44 -4 -100 -13 -125 -18 -25 -6 -81 -15 -125 -21
-100 -13 -275 -52 -432 -96 -67 -19 -127 -34 -133 -34 -7 0 -26 -6 -43 -14
-62 -26 -142 -55 -172 -62 -16 -4 -41 -13 -55 -20 -14 -7 -65 -29 -114 -49
-201 -84 -599 -315 -786 -456 -215 -162 -537 -461 -668 -620 -29 -35 -89 -107
-132 -160 -44 -53 -80 -101 -80 -107 0 -6 -12 -25 -27 -42 -14 -18 -55 -78
-89 -133 -34 -56 -71 -113 -81 -127 -10 -14 -39 -65 -64 -115 -25 -49 -69
-135 -98 -190 -29 -55 -63 -129 -77 -165 -14 -36 -32 -80 -39 -98 -8 -18 -37
-101 -65 -185 -28 -83 -59 -179 -70 -212 -11 -33 -20 -67 -20 -75 0 -8 -9 -44
-19 -80 -11 -36 -27 -110 -36 -165 -74 -454 -68 -140 -72 -3628 -3 -2202 0
-3133 7 -3147 11 -20 25 -20 4004 -20 3789 0 3995 1 4015 18 l22 17 -3 3215
c-3 2430 -6 3224 -15 3250 -7 19 -17 79 -23 133 -5 55 -14 106 -19 115 -5 10
-14 53 -21 97 -15 107 -121 497 -141 521 -5 7 -23 54 -40 105 -17 52 -38 107
-48 124 -10 16 -24 48 -31 70 -7 22 -16 45 -20 50 -4 6 -45 84 -91 173 -96
188 -101 196 -121 219 -8 10 -29 43 -46 73 -70 125 -306 430 -469 608 -103
112 -423 396 -548 486 -22 16 -63 47 -91 68 -28 21 -54 38 -59 38 -6 0 -108
64 -205 129 -21 14 -289 148 -475 237 -27 13 -99 40 -160 60 -60 20 -123 42
-140 49 -16 7 -59 20 -95 30 -36 9 -101 28 -145 41 -103 31 -410 90 -545 105
-128 14 -764 20 -875 8z m827 -78 c36 -6 92 -13 125 -16 100 -9 300 -52 533
-114 107 -29 396 -127 455 -155 118 -56 443 -219 475 -239 19 -11 78 -48 130
-82 52 -34 102 -65 110 -69 40 -18 283 -212 425 -339 222 -199 527 -566 662
-796 25 -42 55 -89 67 -106 13 -16 58 -100 101 -185 42 -85 81 -159 85 -165 4
-5 13 -28 20 -50 7 -22 18 -50 26 -61 14 -23 48 -113 66 -174 5 -19 17 -46 24
-60 8 -14 28 -72 45 -130 17 -58 39 -134 50 -170 11 -36 29 -117 40 -180 11
-63 24 -128 29 -145 13 -40 38 -231 50 -380 13 -160 13 -672 0 -680 -5 -3 -10
-19 -10 -35 0 -16 5 -32 10 -35 7 -4 10 -938 10 -2771 l0 -2764 -3955 0 -3956
0 4 3103 c3 2851 5 3114 21 3247 31 264 76 502 126 670 33 109 119 368 135
402 7 18 25 62 39 98 14 36 48 110 77 165 29 55 71 136 94 180 22 44 53 98 67
120 14 22 52 83 84 135 32 52 67 106 79 120 12 14 30 38 40 54 16 26 69 93
225 285 88 107 421 421 526 497 23 16 88 63 145 105 189 137 533 334 726 414
48 20 99 42 113 49 14 7 39 16 55 20 30 7 110 36 172 62 17 8 36 14 43 14 6 0
66 15 133 34 233 65 436 103 727 135 108 12 663 6 752 -8z"/>
<path d="M10332 21038 c-9 -9 -12 -181 -12 -713 0 -667 1 -703 18 -718 17 -16
190 -17 2278 -17 1745 0 2263 3 2272 12 17 17 17 1419 0 1436 -17 17 -4539 17
-4556 0z m4498 -718 l0 -660 -2220 0 -2220 0 0 660 0 660 2220 0 2220 0 0
-660z"/>
<path d="M10332 18478 c-9 -9 -12 -181 -12 -713 0 -667 1 -703 18 -718 17 -16
190 -17 2278 -17 1745 0 2263 3 2272 12 17 17 17 1419 0 1436 -17 17 -4539 17
-4556 0z m4498 -718 l0 -660 -2220 0 -2220 0 0 660 0 660 2220 0 2220 0 0
-660z"/>
<path d="M10440 14720 c-224 -36 -399 -214 -445 -454 -19 -100 -19 -273 0
-372 42 -222 219 -412 421 -454 88 -18 286 -9 357 18 76 27 175 99 226 163 98
124 134 248 133 464 0 211 -37 328 -141 453 -61 73 -152 135 -238 162 -75 23
-231 33 -313 20z m297 -91 c209 -65 324 -255 325 -539 1 -238 -67 -403 -208
-503 -79 -56 -152 -79 -265 -85 -117 -5 -187 9 -279 54 -163 82 -260 275 -260
519 0 272 120 479 320 550 107 38 251 39 367 4z"/>
<path d="M10464 14507 c-61 -16 -99 -41 -153 -103 -62 -71 -83 -137 -89 -282
-7 -198 23 -297 119 -394 68 -67 123 -91 219 -91 98 0 163 27 225 94 64 68 92
135 106 252 15 121 0 266 -35 344 -33 71 -96 136 -157 163 -63 26 -167 34
-235 17z m226 -95 c49 -24 58 -34 87 -92 78 -156 62 -403 -34 -528 -37 -49
-113 -82 -188 -82 -169 1 -265 136 -265 373 0 195 72 320 203 353 68 17 129 9
197 -24z"/>
<path d="M13724 14720 c-99 -15 -152 -39 -219 -101 -87 -82 -110 -135 -110
-259 0 -116 20 -164 106 -252 64 -66 135 -102 264 -137 224 -62 265 -83 265
-141 0 -39 -37 -90 -78 -107 -50 -22 -158 -22 -198 0 -46 24 -78 67 -98 130
-10 31 -24 61 -31 67 -10 9 -43 8 -129 -1 -145 -15 -153 -21 -137 -110 26
-151 122 -278 258 -342 64 -30 76 -32 204 -35 149 -5 215 5 297 43 65 30 143
110 179 184 26 52 28 66 28 176 0 111 -2 124 -28 176 -54 112 -160 183 -347
234 -232 64 -287 95 -262 150 6 14 28 31 48 40 47 20 156 20 194 0 28 -15 60
-60 60 -86 0 -7 12 -25 26 -40 26 -27 26 -27 138 -22 139 7 151 15 142 90 -16
133 -95 248 -210 302 -90 43 -235 60 -362 41z m196 -71 c177 -22 264 -94 299
-247 l9 -41 -83 -3 c-82 -3 -84 -3 -89 22 -8 41 -49 93 -91 117 -33 19 -55 23
-131 23 -107 0 -148 -14 -193 -65 -24 -28 -31 -45 -31 -77 0 -36 6 -47 48 -88
39 -39 61 -51 132 -73 47 -14 130 -39 185 -56 182 -56 250 -115 276 -240 35
-171 -45 -331 -197 -392 -52 -21 -75 -23 -204 -24 -142 0 -146 1 -210 31 -36
17 -82 45 -101 62 -38 33 -96 147 -106 205 l-5 34 47 6 c94 13 101 11 120 -35
40 -100 121 -164 221 -174 89 -9 168 10 216 54 52 47 68 80 68 140 0 100 -51
138 -265 198 -222 62 -295 107 -347 213 -17 35 -23 63 -23 116 1 164 102 268
289 295 74 11 74 11 166 -1z"/>
<path d="M8917 14692 c-15 -17 -17 -74 -17 -614 l0 -595 23 -21 c21 -20 34
-22 128 -22 156 0 149 -14 149 283 l0 237 180 0 180 0 0 -232 0 -232 27 -28
c26 -27 30 -28 133 -28 91 0 109 3 123 18 15 17 17 75 17 623 0 457 -3 608
-12 617 -8 8 -53 12 -134 12 -164 0 -154 17 -154 -257 l0 -213 -180 0 -180 0
0 213 c0 273 9 257 -149 257 -102 0 -120 -3 -134 -18z m213 -269 c0 -187 2
-219 17 -235 15 -16 36 -18 238 -18 158 0 224 3 233 12 9 9 12 75 12 235 l0
223 80 0 80 0 0 -565 0 -565 -80 0 -80 0 0 248 c0 180 -3 251 -12 260 -17 17
-459 17 -476 0 -9 -9 -12 -80 -12 -260 l0 -248 -80 0 -80 0 0 565 0 565 80 0
80 0 0 -217z"/>
<path d="M11257 14692 c-15 -17 -17 -74 -17 -615 l0 -596 26 -20 c23 -18 41
-21 124 -21 81 0 100 3 113 18 15 16 17 58 19 341 l3 323 182 -314 c101 -173
195 -326 211 -341 27 -26 33 -27 133 -27 78 0 110 4 127 16 l22 15 0 603 c0
571 -1 604 -18 619 -15 14 -40 17 -128 17 -72 0 -114 -4 -122 -12 -9 -9 -12
-100 -12 -347 l0 -336 -43 75 c-24 41 -108 188 -187 325 -78 138 -152 260
-163 273 -19 20 -29 22 -137 22 -101 0 -119 -3 -133 -18z m266 -129 c25 -43
120 -208 212 -368 92 -159 174 -298 182 -307 19 -21 44 -23 61 -6 9 9 12 108
12 385 l0 373 70 0 70 0 0 -565 0 -565 -84 0 -84 0 -207 358 c-114 196 -217
367 -228 380 -23 24 -47 28 -65 10 -9 -9 -12 -107 -12 -380 l0 -368 -70 0 -70
0 0 565 0 565 84 0 84 0 45 -77z"/>
<path d="M12377 14692 c-15 -17 -17 -74 -17 -608 l0 -590 28 -27 28 -27 415 0
c359 0 418 2 437 16 21 14 22 23 22 128 0 74 -4 116 -12 124 -9 9 -92 12 -310
12 l-298 0 0 125 0 125 263 0 c319 0 297 -10 297 137 0 84 -3 103 -18 116 -16
15 -51 17 -280 17 l-262 0 0 95 0 95 283 0 c262 0 285 1 300 18 26 28 25 222
-1 245 -17 15 -62 17 -439 17 -394 0 -421 -1 -436 -18z m823 -122 l0 -70 -288
0 c-211 0 -291 -3 -300 -12 -8 -8 -12 -55 -12 -147 0 -111 3 -138 17 -153 15
-17 37 -18 280 -18 l263 0 0 -65 0 -65 -268 0 c-195 0 -271 -3 -280 -12 -8 -8
-12 -62 -12 -177 0 -139 3 -167 17 -183 15 -17 38 -18 310 -18 l293 0 0 -70 0
-70 -395 0 -395 0 0 565 0 565 385 0 385 0 0 -70z"/>
<path d="M14382 14698 c-8 -8 -12 -49 -12 -118 0 -98 2 -108 23 -128 22 -20
33 -22 165 -22 l142 0 0 -473 0 -474 23 -21 c21 -20 34 -22 128 -22 78 0 110
4 127 16 l22 15 0 480 0 479 148 0 c175 0 179 2 184 93 l3 58 178 -299 177
-299 0 -251 0 -251 26 -20 c23 -18 41 -21 134 -21 91 0 109 3 123 18 15 16 17
49 17 261 l0 242 205 344 c113 189 205 350 205 358 0 8 -8 21 -18 30 -28 26
-282 25 -304 0 -9 -10 -62 -102 -118 -205 -56 -104 -105 -190 -109 -192 -4 -3
-54 79 -111 182 -56 103 -112 197 -123 209 l-20 22 -601 1 c-457 0 -605 -3
-614 -12z m878 -128 l0 -70 -153 0 c-106 0 -157 -4 -165 -12 -9 -9 -12 -133
-12 -495 l0 -483 -80 0 -80 0 0 483 c0 362 -3 486 -12 495 -8 8 -59 12 -165
12 l-153 0 0 70 0 70 410 0 410 0 0 -70z m425 -139 c123 -221 154 -263 183
-245 15 9 66 96 228 392 l35 62 84 0 c47 0 85 -3 85 -6 0 -3 -85 -149 -190
-324 l-190 -319 0 -241 0 -240 -80 0 -80 0 0 246 0 247 -189 319 -190 319 95
-3 95 -3 114 -204z"/>
<path d="M4191 11654 c-82 -22 -147 -62 -208 -128 -95 -103 -133 -214 -133
-391 0 -168 48 -292 151 -390 90 -86 194 -125 334 -125 139 0 243 38 331 122
102 97 143 195 151 363 11 233 -60 393 -220 496 -99 64 -278 88 -406 53z m259
-60 c97 -22 180 -77 229 -153 58 -90 76 -163 75 -306 -1 -128 -16 -191 -69
-280 -114 -195 -462 -234 -642 -71 -167 150 -177 521 -20 701 90 104 260 147
427 109z"/>
<path d="M4236 11496 c-88 -33 -156 -114 -182 -216 -24 -95 -15 -249 19 -324
55 -121 159 -183 288 -174 110 8 185 64 236 176 44 95 42 305 -4 397 -22 44
-82 104 -128 128 -52 26 -173 33 -229 13z m216 -78 c82 -45 113 -120 113 -279
0 -99 -2 -109 -33 -172 -26 -53 -42 -72 -77 -92 -122 -72 -267 -24 -325 108
-45 100 -34 284 21 373 21 34 69 69 117 85 45 14 137 3 184 -23z"/>
<path d="M6982 11655 c-69 -19 -86 -29 -139 -78 -70 -64 -88 -107 -88 -207 0
-101 18 -143 90 -209 58 -53 117 -80 269 -120 137 -37 172 -53 181 -82 10 -30
-14 -78 -48 -95 -40 -21 -124 -28 -173 -15 -59 16 -90 44 -109 100 -24 73 -29
75 -136 62 -113 -13 -123 -20 -114 -80 14 -100 85 -207 169 -256 96 -56 312
-71 444 -30 69 21 147 86 186 155 29 51 31 62 31 150 0 110 -15 148 -87 216
-55 53 -104 78 -220 110 -220 61 -248 76 -233 124 9 29 86 54 146 47 67 -8 96
-28 109 -76 16 -60 27 -65 133 -56 50 4 98 11 105 17 16 14 15 54 -4 118 -21
71 -116 168 -189 194 -70 25 -253 31 -323 11z m302 -71 c67 -23 131 -88 149
-151 l14 -48 -41 -7 c-72 -12 -86 -10 -86 12 0 31 -67 98 -108 110 -179 49
-339 -73 -242 -184 32 -36 63 -49 248 -100 205 -57 266 -118 267 -266 0 -64
-4 -82 -29 -127 -50 -90 -131 -130 -286 -140 -157 -10 -285 37 -341 125 -35
56 -56 119 -43 131 5 5 32 11 60 13 l52 5 11 -37 c14 -47 86 -115 137 -129 49
-14 138 -14 186 -1 108 30 162 148 102 220 -36 42 -62 54 -199 90 -252 68
-319 124 -320 270 0 113 64 191 185 225 69 19 214 13 284 -11z"/>
<path d="M14651 11654 c-82 -22 -147 -62 -208 -128 -95 -103 -133 -214 -133
-391 0 -168 48 -292 151 -390 90 -86 194 -125 334 -125 139 0 243 38 331 122
102 97 143 195 151 363 11 233 -60 393 -220 496 -99 64 -278 88 -406 53z m259
-60 c97 -22 180 -77 229 -153 58 -90 76 -163 75 -306 -1 -128 -16 -191 -69
-280 -114 -195 -462 -234 -642 -71 -167 150 -177 521 -20 701 90 104 260 147
427 109z"/>
<path d="M14696 11496 c-88 -33 -156 -114 -182 -216 -24 -95 -15 -249 19 -324
55 -121 159 -183 288 -174 110 8 185 64 236 176 44 95 42 305 -4 397 -22 44
-82 104 -128 128 -52 26 -173 33 -229 13z m216 -78 c82 -45 113 -120 113 -279
0 -99 -2 -109 -33 -172 -26 -53 -42 -72 -77 -92 -122 -72 -267 -24 -325 108
-45 100 -34 284 21 373 21 34 69 69 117 85 45 14 137 3 184 -23z"/>
<path d="M17512 11655 c-69 -19 -86 -29 -139 -78 -70 -64 -88 -107 -88 -207 0
-101 18 -143 90 -209 58 -53 117 -80 269 -120 137 -37 172 -53 181 -82 10 -30
-14 -78 -48 -95 -40 -21 -124 -28 -173 -15 -59 16 -90 44 -109 100 -24 73 -29
75 -136 62 -113 -13 -123 -20 -114 -80 14 -100 85 -207 169 -256 96 -56 312
-71 444 -30 69 21 147 86 186 155 29 51 31 62 31 150 0 110 -15 148 -87 216
-55 53 -104 78 -220 110 -220 61 -248 76 -233 124 9 29 86 54 146 47 67 -8 96
-28 109 -76 16 -60 27 -65 133 -56 50 4 98 11 105 17 16 14 15 54 -4 118 -21
71 -116 168 -189 194 -70 25 -253 31 -323 11z m302 -71 c67 -23 131 -88 149
-151 l14 -48 -41 -7 c-72 -12 -86 -10 -86 12 0 31 -67 98 -108 110 -179 49
-339 -73 -242 -184 32 -36 63 -49 248 -100 205 -57 266 -118 267 -266 0 -64
-4 -82 -29 -127 -50 -90 -131 -130 -286 -140 -157 -10 -285 37 -341 125 -35
56 -56 119 -43 131 5 5 32 11 60 13 l52 5 11 -37 c14 -47 86 -115 137 -129 49
-14 138 -14 186 -1 108 30 162 148 102 220 -36 42 -62 54 -199 90 -252 68
-319 124 -320 270 0 113 64 191 185 225 69 19 214 13 284 -11z"/>
<path d="M21652 11655 c-69 -19 -86 -29 -139 -78 -70 -64 -88 -107 -88 -207 0
-101 18 -143 90 -209 58 -53 117 -80 269 -120 137 -37 172 -53 181 -82 10 -30
-14 -78 -48 -95 -40 -21 -124 -28 -173 -15 -59 16 -90 44 -109 100 -24 73 -29
75 -136 62 -113 -13 -123 -20 -114 -80 14 -100 85 -207 169 -256 96 -56 312
-71 444 -30 69 21 147 86 186 155 29 51 31 62 31 150 0 110 -15 148 -87 216
-55 53 -104 78 -220 110 -220 61 -248 76 -233 124 9 29 86 54 146 47 67 -8 96
-28 109 -76 16 -60 27 -65 133 -56 50 4 98 11 105 17 16 14 15 54 -4 118 -21
71 -116 168 -189 194 -70 25 -253 31 -323 11z m302 -71 c67 -23 131 -88 149
-151 l14 -48 -41 -7 c-72 -12 -86 -10 -86 12 0 31 -67 98 -108 110 -179 49
-339 -73 -242 -184 32 -36 63 -49 248 -100 205 -57 266 -118 267 -266 0 -64
-4 -82 -29 -127 -50 -90 -131 -130 -286 -140 -157 -10 -285 37 -341 125 -35
56 -56 119 -43 131 5 5 32 11 60 13 l52 5 11 -37 c14 -47 86 -115 137 -129 49
-14 138 -14 186 -1 108 30 162 148 102 220 -36 42 -62 54 -199 90 -252 68
-319 124 -320 270 0 113 64 191 185 225 69 19 214 13 284 -11z"/>
<path d="M2942 11638 c-17 -17 -17 -969 0 -986 8 -8 48 -12 113 -12 65 0 105
4 113 12 9 9 12 69 12 210 l0 198 160 0 160 0 0 -198 c0 -141 3 -201 12 -210
8 -8 48 -12 113 -12 65 0 105 4 113 12 17 17 17 969 0 986 -16 16 -210 16
-226 0 -8 -8 -12 -64 -12 -185 l0 -173 -160 0 -160 0 0 173 c0 121 -4 177 -12
185 -16 16 -210 16 -226 0z m178 -221 c0 -121 4 -177 12 -185 17 -17 399 -17
416 0 8 8 12 64 12 185 l0 173 65 0 65 0 0 -445 0 -445 -65 0 -65 0 0 198 c0
141 -3 201 -12 210 -17 17 -399 17 -416 0 -9 -9 -12 -69 -12 -210 l0 -198 -65
0 -65 0 0 445 0 445 65 0 65 0 0 -173z"/>
<path d="M4932 11638 c-17 -17 -17 -969 0 -986 17 -17 202 -16 217 1 7 9 12
101 13 270 l3 257 165 -267 165 -268 109 -3 c71 -2 113 1 122 9 19 16 21 968
2 987 -17 17 -202 16 -217 -1 -7 -9 -12 -103 -13 -275 l-3 -262 -155 252 c-85
138 -163 262 -173 275 -17 21 -25 23 -121 23 -66 0 -106 -4 -114 -12z m380
-358 c103 -168 194 -309 202 -314 10 -7 20 -5 30 3 14 12 16 52 16 317 l0 304
60 0 60 0 0 -445 0 -445 -74 0 -73 0 -188 306 c-104 168 -194 308 -202 311 -7
3 -20 0 -28 -7 -13 -11 -15 -59 -15 -311 l0 -299 -60 0 -60 0 0 445 0 446 72
-3 72 -3 188 -305z"/>
<path d="M5892 11638 c-17 -17 -17 -969 0 -986 17 -17 739 -17 756 0 16 16 16
180 0 196 -9 9 -82 12 -265 12 l-253 0 0 100 0 100 223 0 c160 0 226 3 235 12
16 16 16 180 0 196 -9 9 -75 12 -235 12 l-223 0 0 75 0 75 243 0 c176 0 246 3
255 12 7 7 12 44 12 98 0 54 -5 91 -12 98 -9 9 -104 12 -368 12 -264 0 -359
-3 -368 -12z m688 -98 l0 -50 -243 0 c-176 0 -246 -3 -255 -12 -8 -8 -12 -50
-12 -123 0 -73 4 -115 12 -123 9 -9 75 -12 235 -12 l223 0 0 -50 0 -50 -223 0
c-160 0 -226 -3 -235 -12 -8 -8 -12 -56 -12 -148 0 -92 4 -140 12 -148 9 -9
82 -12 265 -12 l253 0 0 -50 0 -50 -330 0 -330 0 0 445 0 445 320 0 320 0 0
-50z"/>
<path d="M7602 11638 c-16 -16 -16 -180 0 -196 8 -8 54 -12 140 -12 l128 0 0
-383 c0 -285 3 -386 12 -395 16 -16 210 -16 226 0 9 9 12 110 12 395 l0 383
129 0 c92 0 132 4 139 13 6 7 12 37 14 66 l3 53 158 -251 157 -251 0 -198 c0
-141 3 -201 12 -210 8 -8 48 -12 113 -12 65 0 105 4 113 12 9 9 12 69 12 209
l0 197 170 272 c94 149 170 277 170 284 0 29 -25 36 -140 36 -99 0 -119 -3
-132 -17 -8 -10 -55 -89 -104 -175 -48 -87 -89 -156 -90 -155 -1 1 -41 72 -90
157 -48 85 -94 163 -102 172 -13 16 -56 17 -526 18 -387 0 -515 -3 -524 -12z
m738 -98 l0 -50 -128 0 c-86 0 -132 -4 -140 -12 -9 -9 -12 -110 -12 -395 l0
-383 -65 0 -65 0 0 383 c0 285 -3 386 -12 395 -8 8 -54 12 -140 12 l-128 0 0
50 0 50 345 0 345 0 0 -50z m372 -132 c57 -99 110 -186 120 -191 12 -8 21 -7
31 1 8 7 61 94 116 192 l102 180 74 0 75 0 -48 -77 c-27 -43 -99 -158 -160
-256 l-112 -178 0 -190 0 -189 -65 0 -65 0 0 190 0 191 -137 217 c-75 119
-147 234 -160 255 l-23 37 74 0 75 0 103 -182z"/>
<path d="M9620 11635 c-10 -12 8 -104 95 -492 59 -263 112 -484 118 -490 7 -9
46 -13 133 -13 117 0 124 1 138 23 7 12 47 150 87 305 45 175 75 277 79 265 4
-10 40 -142 80 -293 41 -151 78 -281 83 -287 7 -9 45 -13 128 -13 112 0 119 1
132 23 8 12 62 232 122 490 87 378 105 470 95 482 -16 20 -222 22 -237 3 -6
-7 -34 -129 -64 -270 -29 -142 -56 -254 -60 -250 -3 4 -34 120 -68 257 -35
138 -68 256 -73 263 -7 8 -49 12 -143 12 -94 0 -135 -4 -142 -12 -6 -7 -38
-123 -73 -258 -35 -135 -66 -248 -70 -253 -3 -4 -30 107 -60 245 -29 139 -57
259 -63 266 -15 19 -221 17 -237 -3z m205 -117 c8 -40 39 -183 68 -317 54
-253 67 -286 101 -251 8 8 44 132 81 275 37 143 73 284 82 313 l14 52 94 0 93
0 11 -32 c5 -18 42 -161 81 -318 40 -157 78 -292 86 -300 34 -35 47 -3 101
256 29 137 60 282 69 322 l15 72 66 0 c48 0 64 -3 61 -12 -2 -7 -49 -208 -104
-445 l-99 -433 -82 0 c-77 0 -83 1 -88 23 -3 12 -45 168 -94 346 -89 331 -103
365 -134 331 -8 -8 -54 -169 -103 -357 l-89 -343 -87 0 c-74 0 -87 3 -92 18
-3 9 -46 199 -96 422 -50 223 -94 415 -97 428 -5 21 -3 22 60 22 l66 0 16 -72z"/>
<path d="M10972 11638 c-17 -17 -17 -969 0 -986 8 -8 48 -12 113 -12 65 0 105
4 113 12 17 17 17 969 0 986 -16 16 -210 16 -226 0z m178 -493 l0 -445 -65 0
-65 0 0 445 0 445 65 0 65 0 0 -445z"/>
<path d="M11282 11638 c-16 -16 -16 -180 0 -196 8 -8 54 -12 140 -12 l128 0 0
-383 c0 -285 3 -386 12 -395 16 -16 210 -16 226 0 9 9 12 110 12 395 l0 383
128 0 c86 0 132 4 140 12 7 7 12 44 12 98 0 54 -5 91 -12 98 -17 17 -769 17
-786 0z m738 -98 l0 -50 -128 0 c-86 0 -132 -4 -140 -12 -9 -9 -12 -110 -12
-395 l0 -383 -65 0 -65 0 0 383 c0 285 -3 386 -12 395 -8 8 -54 12 -140 12
l-128 0 0 50 0 50 345 0 345 0 0 -50z"/>
<path d="M12162 11638 c-17 -17 -17 -969 0 -986 8 -8 48 -12 113 -12 65 0 105
4 113 12 9 9 12 69 12 210 l0 198 160 0 160 0 0 -198 c0 -141 3 -201 12 -210
8 -8 48 -12 113 -12 65 0 105 4 113 12 17 17 17 969 0 986 -16 16 -210 16
-226 0 -8 -8 -12 -64 -12 -185 l0 -173 -160 0 -160 0 0 173 c0 121 -4 177 -12
185 -16 16 -210 16 -226 0z m178 -221 c0 -121 4 -177 12 -185 17 -17 399 -17
416 0 8 8 12 64 12 185 l0 173 65 0 65 0 0 -445 0 -445 -65 0 -65 0 0 198 c0
141 -3 201 -12 210 -17 17 -399 17 -416 0 -9 -9 -12 -69 -12 -210 l0 -198 -65
0 -65 0 0 445 0 445 65 0 65 0 0 -173z"/>
<path d="M13382 11638 c-7 -7 -12 -18 -12 -24 0 -7 77 -134 170 -283 l170
-270 0 -199 c0 -141 3 -201 12 -210 16 -16 210 -16 226 0 9 9 12 69 12 209 l0
197 170 272 c94 149 170 277 170 284 0 29 -25 36 -140 36 -99 0 -119 -3 -132
-17 -8 -10 -54 -88 -102 -173 -49 -85 -89 -156 -90 -157 -1 -1 -42 68 -90 155
-49 86 -96 165 -104 175 -13 14 -33 17 -132 17 -77 0 -120 -4 -128 -12z m320
-230 c57 -99 110 -186 120 -191 12 -8 21 -7 31 1 8 7 61 94 116 192 l102 180
74 0 75 0 -48 -77 c-27 -43 -99 -158 -160 -256 l-112 -178 0 -190 0 -189 -65
0 -65 0 0 190 0 191 -137 217 c-75 119 -147 234 -160 255 l-23 37 74 0 75 0
103 -182z"/>
<path d="M15390 11635 c-9 -11 -11 -103 -8 -377 4 -305 7 -371 21 -415 24 -72
92 -144 175 -185 66 -33 69 -33 207 -33 162 0 216 14 293 74 61 48 99 119 112
207 15 103 13 717 -2 732 -17 17 -212 16 -226 -1 -7 -8 -12 -135 -14 -364 -3
-339 -4 -353 -24 -380 -28 -37 -85 -56 -152 -50 -60 6 -93 24 -119 64 -16 24
-18 62 -21 372 -2 227 -7 350 -14 358 -16 19 -211 18 -228 -2z m180 -362 c0
-177 4 -334 10 -353 12 -45 85 -117 130 -130 44 -13 125 -13 170 0 48 13 109
78 121 126 4 22 9 182 9 357 l0 317 65 0 65 0 0 -297 c0 -394 -12 -468 -87
-538 -55 -51 -125 -69 -263 -70 -122 0 -127 1 -193 33 -39 19 -78 47 -93 67
-53 70 -57 102 -62 468 l-4 337 66 0 66 0 0 -317z"/>
<path d="M16353 11639 c-18 -18 -19 -969 -1 -987 8 -8 48 -12 113 -12 65 0
105 4 113 12 8 8 12 67 12 200 l0 188 35 0 c85 0 131 -42 252 -235 112 -178
95 -166 236 -163 95 2 122 6 130 18 7 12 -13 52 -84 169 -52 84 -113 175 -137
202 l-43 48 35 15 c44 18 106 80 131 131 15 31 20 61 20 130 0 82 -3 95 -31
145 -34 61 -94 113 -152 131 -55 18 -613 25 -629 8z m563 -60 c83 -15 127 -43
158 -99 51 -95 43 -204 -20 -279 -27 -31 -49 -45 -97 -60 -92 -28 -94 -40 -21
-109 41 -39 87 -99 142 -190 45 -73 82 -134 82 -137 0 -3 -33 -5 -72 -5 l-73
0 -67 109 c-99 159 -169 245 -221 270 -49 24 -165 29 -185 9 -8 -8 -12 -67
-12 -200 l0 -188 -65 0 -65 0 0 445 0 445 228 0 c126 0 255 -5 288 -11z"/>
<path d="M16542 11478 c-19 -19 -16 -252 3 -268 11 -9 59 -11 178 -9 180 4
199 10 238 72 15 24 19 44 16 85 -4 59 -30 95 -84 118 -43 18 -333 20 -351 2z
m332 -62 c25 -10 36 -22 41 -46 8 -36 -9 -85 -33 -96 -10 -4 -79 -9 -154 -12
l-138 -4 0 86 0 86 125 0 c85 0 136 -5 159 -14z"/>
<path d="M18202 11638 c-17 -17 -17 -969 0 -986 17 -17 739 -17 756 0 16 16
16 180 0 196 -9 9 -82 12 -265 12 l-253 0 0 100 0 100 223 0 c160 0 226 3 235
12 16 16 16 180 0 196 -9 9 -75 12 -235 12 l-223 0 0 75 0 75 243 0 c176 0
246 3 255 12 7 7 12 44 12 98 0 54 -5 91 -12 98 -9 9 -104 12 -368 12 -264 0
-359 -3 -368 -12z m688 -98 l0 -50 -243 0 c-176 0 -246 -3 -255 -12 -17 -17
-17 -229 0 -246 9 -9 75 -12 235 -12 l223 0 0 -50 0 -50 -223 0 c-160 0 -226
-3 -235 -12 -8 -8 -12 -56 -12 -148 0 -92 4 -140 12 -148 9 -9 82 -12 265 -12
l253 0 0 -50 0 -50 -330 0 -330 0 0 445 0 445 320 0 320 0 0 -50z"/>
<path d="M19092 11638 c-17 -17 -17 -969 0 -986 17 -17 689 -17 706 0 16 16
16 180 0 196 -9 9 -76 12 -240 12 l-228 0 0 383 c0 285 -3 386 -12 395 -16 16
-210 16 -226 0z m178 -431 c0 -285 3 -386 12 -395 9 -9 76 -12 240 -12 l228 0
0 -50 0 -50 -305 0 -305 0 0 445 0 445 65 0 65 0 0 -383z"/>
<path d="M19902 11638 c-17 -17 -17 -969 0 -986 8 -8 48 -12 113 -12 65 0 105
4 113 12 8 8 12 67 12 200 l0 188 183 0 c129 0 187 4 195 12 7 7 12 44 12 98
0 54 -5 91 -12 98 -8 8 -66 12 -195 12 l-183 0 0 85 0 85 213 0 c152 0 216 3
225 12 7 7 12 44 12 98 0 54 -5 91 -12 98 -17 17 -659 17 -676 0z m628 -98 l0
-50 -213 0 c-152 0 -216 -3 -225 -12 -17 -17 -17 -249 0 -266 8 -8 66 -12 195
-12 l183 0 0 -50 0 -50 -183 0 c-129 0 -187 -4 -195 -12 -8 -8 -12 -67 -12
-200 l0 -188 -65 0 -65 0 0 445 0 445 290 0 290 0 0 -50z"/>
<path d="M21072 11638 c-9 -9 -12 -132 -12 -493 0 -361 3 -484 12 -493 8 -8
48 -12 113 -12 65 0 105 4 113 12 9 9 12 132 12 493 0 361 -3 484 -12 493 -16
16 -210 16 -226 0z m178 -493 l0 -445 -65 0 -65 0 0 445 0 445 65 0 65 0 0
-445z"/>
<path d="M6221 10124 c-82 -22 -147 -62 -208 -128 -95 -103 -133 -214 -133
-391 0 -168 48 -292 151 -390 90 -86 194 -125 334 -125 139 0 243 38 331 122
102 97 143 195 151 363 11 233 -60 393 -220 496 -99 64 -278 88 -406 53z m259
-60 c97 -22 180 -77 229 -153 58 -90 76 -163 75 -306 -1 -128 -16 -191 -69
-280 -114 -195 -462 -234 -642 -71 -167 150 -177 521 -20 701 90 104 260 147
427 109z"/>
<path d="M6266 9966 c-88 -33 -156 -114 -182 -216 -24 -95 -15 -249 19 -324
55 -121 159 -183 288 -174 110 8 185 64 236 176 44 95 42 305 -4 397 -22 44
-82 104 -128 128 -52 26 -173 33 -229 13z m216 -78 c82 -45 113 -120 113 -279
0 -99 -2 -109 -33 -172 -26 -53 -42 -72 -77 -92 -122 -72 -267 -24 -325 108
-45 100 -34 284 21 373 21 34 69 69 117 85 45 14 137 3 184 -23z"/>
<path d="M12131 10124 c-82 -22 -147 -62 -208 -128 -95 -103 -133 -214 -133
-391 0 -168 48 -292 151 -390 90 -86 194 -125 334 -125 139 0 243 38 331 122
102 97 143 195 151 363 11 233 -60 393 -220 496 -99 64 -278 88 -406 53z m259
-60 c97 -22 180 -77 229 -153 58 -90 76 -163 75 -306 -1 -128 -16 -191 -69
-280 -114 -195 -462 -234 -642 -71 -167 150 -177 521 -20 701 90 104 260 147
427 109z"/>
<path d="M12176 9966 c-88 -33 -156 -114 -182 -216 -24 -95 -15 -249 19 -324
55 -121 159 -183 288 -174 110 8 185 64 236 176 44 95 42 305 -4 397 -22 44
-82 104 -128 128 -52 26 -173 33 -229 13z m216 -78 c82 -45 113 -120 113 -279
0 -99 -2 -109 -33 -172 -26 -53 -42 -72 -77 -92 -122 -72 -267 -24 -325 108
-45 100 -34 284 21 373 21 34 69 69 117 85 45 14 137 3 184 -23z"/>
<path d="M14491 10124 c-82 -22 -147 -62 -208 -128 -95 -103 -133 -214 -133
-391 0 -168 48 -292 151 -390 90 -86 194 -125 334 -125 139 0 243 38 331 122
102 97 143 195 151 363 11 233 -60 393 -220 496 -99 64 -278 88 -406 53z m259
-60 c97 -22 180 -77 229 -153 58 -90 76 -163 75 -306 -1 -128 -16 -191 -69
-280 -114 -195 -462 -234 -642 -71 -167 150 -177 521 -20 701 90 104 260 147
427 109z"/>
<path d="M14536 9966 c-88 -33 -156 -114 -182 -216 -24 -95 -15 -249 19 -324
55 -121 159 -183 288 -174 110 8 185 64 236 176 44 95 42 305 -4 397 -22 44
-82 104 -128 128 -52 26 -173 33 -229 13z m216 -78 c82 -45 113 -120 113 -279
0 -99 -2 -109 -33 -172 -26 -53 -42 -72 -77 -92 -122 -72 -267 -24 -325 108
-45 100 -34 284 21 373 21 34 69 69 117 85 45 14 137 3 184 -23z"/>
<path d="M18471 10124 c-82 -22 -147 -62 -208 -128 -95 -103 -133 -214 -133
-391 0 -168 48 -292 151 -390 90 -86 194 -125 334 -125 139 0 243 38 331 122
102 97 143 195 151 363 11 233 -60 393 -220 496 -99 64 -278 88 -406 53z m259
-60 c97 -22 180 -77 229 -153 58 -90 76 -163 75 -306 -1 -128 -16 -191 -69
-280 -114 -195 -462 -234 -642 -71 -167 150 -177 521 -20 701 90 104 260 147
427 109z"/>
<path d="M18516 9966 c-88 -33 -156 -114 -182 -216 -24 -95 -15 -249 19 -324
55 -121 159 -183 288 -174 110 8 185 64 236 176 44 95 42 305 -4 397 -22 44
-82 104 -128 128 -52 26 -173 33 -229 13z m216 -78 c82 -45 113 -120 113 -279
0 -99 -2 -109 -33 -172 -26 -53 -42 -72 -77 -92 -122 -72 -267 -24 -325 108
-45 100 -34 284 21 373 21 34 69 69 117 85 45 14 137 3 184 -23z"/>
<path d="M20492 10130 c-109 -23 -241 -119 -298 -216 -89 -152 -98 -392 -19
-557 30 -64 99 -145 159 -186 112 -77 290 -101 446 -62 98 24 197 70 246 113
l34 30 0 202 c0 144 -3 205 -12 214 -17 17 -429 17 -446 0 -7 -7 -12 -44 -12
-98 0 -54 5 -91 12 -98 8 -8 47 -12 111 -12 l98 0 -3 -42 c-3 -42 -5 -44 -63
-73 -50 -25 -72 -30 -130 -30 -75 1 -118 16 -167 63 -60 56 -92 212 -68 336
25 134 101 200 230 201 87 0 136 -25 171 -89 14 -25 30 -51 36 -57 14 -14 199
23 221 45 14 14 14 20 -1 70 -32 101 -125 194 -232 231 -58 20 -246 29 -313
15z m233 -61 c129 -24 218 -93 249 -195 6 -19 1 -22 -56 -34 -58 -11 -64 -11
-73 7 -23 41 -102 109 -141 121 -95 28 -212 6 -282 -54 -85 -72 -119 -175
-109 -332 6 -116 33 -184 94 -244 74 -71 103 -83 208 -83 97 0 153 18 222 71
32 24 33 27 33 98 0 43 -5 77 -12 84 -8 8 -47 12 -110 12 l-98 0 0 50 0 50
175 0 175 0 0 -175 0 -174 -62 -35 c-103 -57 -197 -81 -313 -81 -214 0 -350
93 -416 285 -19 53 -23 86 -23 180 1 123 16 186 68 275 83 141 272 211 471
174z"/>
<path d="M2022 10108 c-7 -7 -12 -44 -12 -98 0 -54 5 -91 12 -98 8 -8 54 -12
140 -12 l128 0 0 -383 c0 -285 3 -386 12 -395 16 -16 210 -16 226 0 9 9 12
110 12 395 l0 383 128 0 c86 0 132 4 140 12 7 7 12 44 12 98 0 54 -5 91 -12
98 -9 9 -110 12 -393 12 -283 0 -384 -3 -393 -12z m738 -98 l0 -50 -128 0
c-86 0 -132 -4 -140 -12 -9 -9 -12 -110 -12 -395 l0 -383 -65 0 -65 0 0 383
c0 285 -3 386 -12 395 -8 8 -54 12 -140 12 l-128 0 0 50 0 50 345 0 345 0 0
-50z"/>
<path d="M2902 10108 c-17 -17 -17 -969 0 -986 8 -8 48 -12 113 -12 65 0 105
4 113 12 9 9 12 69 12 210 l0 198 160 0 160 0 0 -198 c0 -141 3 -201 12 -210
8 -8 48 -12 113 -12 65 0 105 4 113 12 17 17 17 969 0 986 -8 8 -48 12 -113
12 -65 0 -105 -4 -113 -12 -8 -8 -12 -64 -12 -185 l0 -173 -160 0 -160 0 0
173 c0 121 -4 177 -12 185 -8 8 -48 12 -113 12 -65 0 -105 -4 -113 -12z m178
-221 c0 -121 4 -177 12 -185 9 -9 69 -12 208 -12 139 0 199 3 208 12 8 8 12
64 12 185 l0 173 65 0 65 0 0 -445 0 -445 -65 0 -65 0 0 198 c0 141 -3 201
-12 210 -17 17 -399 17 -416 0 -9 -9 -12 -69 -12 -210 l0 -198 -65 0 -65 0 0
445 0 445 65 0 65 0 0 -173z"/>
<path d="M3862 10108 c-17 -17 -17 -969 0 -986 17 -17 739 -17 756 0 16 16 16
180 0 196 -9 9 -82 12 -265 12 l-253 0 0 100 0 100 223 0 c160 0 226 3 235 12
16 16 16 180 0 196 -9 9 -75 12 -235 12 l-223 0 0 75 0 75 243 0 c176 0 246 3
255 12 16 16 16 180 0 196 -9 9 -104 12 -368 12 -264 0 -359 -3 -368 -12z
m688 -98 l0 -50 -243 0 c-176 0 -246 -3 -255 -12 -17 -17 -17 -229 0 -246 9
-9 75 -12 235 -12 l223 0 0 -50 0 -50 -223 0 c-160 0 -226 -3 -235 -12 -8 -8
-12 -56 -12 -148 0 -92 4 -140 12 -148 9 -9 82 -12 265 -12 l253 0 0 -50 0
-50 -330 0 -330 0 0 445 0 445 320 0 320 0 0 -50z"/>
<path d="M5122 10108 c-17 -17 -17 -969 0 -986 8 -8 48 -12 113 -12 65 0 105
4 113 12 8 8 12 67 12 200 l0 188 183 0 c129 0 187 4 195 12 16 16 16 180 0
196 -8 8 -66 12 -195 12 l-183 0 0 85 0 85 213 0 c152 0 216 3 225 12 16 16
16 180 0 196 -9 9 -98 12 -338 12 -240 0 -329 -3 -338 -12z m628 -98 l0 -50
-213 0 c-152 0 -216 -3 -225 -12 -8 -8 -12 -52 -12 -133 0 -81 4 -125 12 -133
8 -8 66 -12 195 -12 l183 0 0 -50 0 -50 -183 0 c-129 0 -187 -4 -195 -12 -8
-8 -12 -67 -12 -200 l0 -188 -65 0 -65 0 0 445 0 445 290 0 290 0 0 -50z"/>
<path d="M6960 10105 c-9 -11 -11 -103 -8 -377 4 -305 7 -371 21 -415 24 -72
92 -144 175 -185 66 -33 69 -33 207 -33 162 0 216 14 293 74 61 48 99 119 112
207 15 103 13 717 -2 732 -17 17 -212 16 -226 -1 -7 -8 -12 -135 -14 -364 -3
-339 -4 -353 -24 -380 -28 -37 -85 -56 -152 -50 -60 6 -93 24 -119 64 -16 24
-18 62 -21 372 -2 227 -7 350 -14 358 -16 19 -211 18 -228 -2z m180 -362 c0
-177 4 -334 10 -353 12 -45 85 -117 130 -130 44 -13 125 -13 170 0 48 13 109
78 121 126 4 22 9 182 9 357 l0 317 65 0 65 0 0 -297 c0 -394 -12 -468 -87
-538 -55 -51 -125 -69 -263 -70 -122 0 -127 1 -193 33 -39 19 -78 47 -93 67
-53 70 -57 102 -62 468 l-4 337 66 0 66 0 0 -317z"/>
<path d="M7922 10108 c-17 -17 -17 -969 0 -986 17 -17 202 -16 217 1 7 9 12
101 13 270 l3 257 165 -267 165 -268 109 -3 c71 -2 113 1 122 9 19 16 21 968
2 987 -17 17 -202 16 -217 -1 -7 -9 -12 -103 -13 -275 l-3 -262 -155 252 c-85
138 -163 262 -173 275 -17 21 -25 23 -121 23 -66 0 -106 -4 -114 -12z m380
-358 c103 -168 194 -309 202 -314 10 -7 20 -5 30 3 14 12 16 52 16 317 l0 304
60 0 60 0 0 -445 0 -445 -74 0 -73 0 -188 306 c-104 168 -194 308 -202 311 -7
3 -20 0 -28 -7 -13 -11 -15 -59 -15 -311 l0 -299 -60 0 -60 0 0 445 0 446 72
-3 72 -3 188 -305z"/>
<path d="M8883 10109 c-10 -10 -13 -123 -13 -495 0 -408 2 -483 14 -494 11 -8
81 -11 268 -8 284 5 316 11 404 77 111 84 163 202 171 386 8 204 -31 329 -137
435 -97 97 -124 103 -435 108 -201 3 -263 1 -272 -9z m569 -78 c146 -57 227
-228 215 -456 -8 -155 -64 -284 -146 -338 -82 -54 -118 -61 -363 -65 l-228 -4
0 447 0 447 233 -4 c211 -4 237 -6 289 -27z"/>
<path d="M9072 9948 c-9 -9 -12 -97 -12 -333 0 -236 3 -324 12 -333 15 -15
247 -16 302 -1 56 16 121 80 143 142 14 41 18 83 18 197 0 126 -3 151 -21 191
-31 66 -84 115 -146 134 -64 19 -278 21 -296 3z m275 -63 c98 -29 128 -93 128
-270 0 -236 -43 -284 -252 -285 l-103 0 0 285 0 285 88 0 c50 0 111 -7 139
-15z"/>
<path d="M10092 10107 c-6 -7 -90 -226 -187 -487 -127 -341 -174 -479 -167
-490 14 -23 218 -27 243 -4 10 9 32 59 49 110 l32 94 153 0 153 0 31 -86 c17
-47 31 -89 31 -93 0 -4 8 -15 18 -24 26 -24 223 -25 242 -1 11 13 -14 91 -160
492 -95 262 -178 483 -183 490 -13 17 -240 17 -255 -1z m369 -486 c88 -239
159 -438 159 -443 0 -4 -29 -8 -64 -8 l-63 0 -33 93 c-18 50 -40 100 -48 110
-13 15 -36 17 -197 17 -156 0 -185 -2 -196 -16 -8 -9 -28 -58 -45 -108 l-31
-91 -67 -3 c-55 -2 -67 0 -64 11 2 8 75 209 163 446 l160 431 84 -2 84 -3 158
-434z"/>
<path d="M10193 9878 c-12 -16 -123 -331 -123 -350 0 -32 24 -38 145 -38 123
0 145 6 145 39 0 20 -110 332 -123 349 -5 6 -15 12 -22 12 -7 0 -17 -6 -22
-12z m56 -209 c16 -46 32 -92 36 -101 6 -16 0 -18 -68 -18 l-76 0 36 106 c19
58 37 103 39 101 2 -2 17 -42 33 -88z"/>
<path d="M10592 10108 c-16 -16 -16 -180 0 -196 8 -8 54 -12 140 -12 l128 0 0
-383 c0 -285 3 -386 12 -395 16 -16 210 -16 226 0 9 9 12 110 12 395 l0 383
128 0 c86 0 132 4 140 12 7 7 12 44 12 98 0 54 -5 91 -12 98 -9 9 -110 12
-393 12 -283 0 -384 -3 -393 -12z m738 -98 l0 -50 -128 0 c-86 0 -132 -4 -140
-12 -9 -9 -12 -110 -12 -395 l0 -383 -65 0 -65 0 0 383 c0 285 -3 386 -12 395
-8 8 -54 12 -140 12 l-128 0 0 50 0 50 345 0 345 0 0 -50z"/>
<path d="M11462 10108 c-17 -17 -17 -969 0 -986 8 -8 48 -12 113 -12 65 0 105
4 113 12 17 17 17 969 0 986 -8 8 -48 12 -113 12 -65 0 -105 -4 -113 -12z
m178 -493 l0 -445 -65 0 -65 0 0 445 0 445 65 0 65 0 0 -445z"/>
<path d="M12872 10108 c-17 -17 -17 -969 0 -986 17 -17 202 -16 217 1 7 9 12
101 13 270 l3 257 165 -267 165 -268 109 -3 c71 -2 113 1 122 9 19 16 21 968
2 987 -17 17 -202 16 -217 -1 -7 -9 -12 -103 -13 -275 l-3 -262 -155 252 c-85
138 -163 262 -173 275 -17 21 -25 23 -121 23 -66 0 -106 -4 -114 -12z m380
-358 c103 -168 194 -309 202 -314 10 -7 20 -5 30 3 14 12 16 52 16 317 l0 304
60 0 60 0 0 -445 0 -445 -74 0 -73 0 -188 306 c-104 168 -194 308 -202 311 -7
3 -20 0 -28 -7 -13 -11 -15 -59 -15 -311 l0 -299 -60 0 -60 0 0 445 0 446 72
-3 72 -3 188 -305z"/>
<path d="M15232 10108 c-17 -17 -17 -969 0 -986 8 -8 48 -12 113 -12 65 0 105
4 113 12 8 8 12 67 12 200 l0 188 183 0 c129 0 187 4 195 12 16 16 16 180 0
196 -8 8 -66 12 -195 12 l-183 0 0 85 0 85 213 0 c152 0 216 3 225 12 7 7 12
44 12 98 0 54 -5 91 -12 98 -9 9 -98 12 -338 12 -240 0 -329 -3 -338 -12z
m628 -98 l0 -50 -213 0 c-152 0 -216 -3 -225 -12 -17 -17 -17 -249 0 -266 8
-8 66 -12 195 -12 l183 0 0 -50 0 -50 -183 0 c-129 0 -187 -4 -195 -12 -8 -8
-12 -67 -12 -200 l0 -188 -65 0 -65 0 0 445 0 445 290 0 290 0 0 -50z"/>
<path d="M16342 10108 c-16 -16 -16 -180 0 -196 8 -8 54 -12 140 -12 l128 0 0
-383 c0 -285 3 -386 12 -395 16 -16 210 -16 226 0 9 9 12 110 12 395 l0 383
128 0 c86 0 132 4 140 12 7 7 12 44 12 98 0 54 -5 91 -12 98 -9 9 -110 12
-393 12 -283 0 -384 -3 -393 -12z m738 -98 l0 -50 -128 0 c-86 0 -132 -4 -140
-12 -9 -9 -12 -110 -12 -395 l0 -383 -65 0 -65 0 0 383 c0 285 -3 386 -12 395
-8 8 -54 12 -140 12 l-128 0 0 50 0 50 345 0 345 0 0 -50z"/>
<path d="M17222 10108 c-17 -17 -17 -969 0 -986 8 -8 48 -12 113 -12 65 0 105
4 113 12 9 9 12 69 12 210 l0 198 160 0 160 0 0 -198 c0 -141 3 -201 12 -210
8 -8 48 -12 113 -12 65 0 105 4 113 12 17 17 17 969 0 986 -8 8 -48 12 -113
12 -65 0 -105 -4 -113 -12 -8 -8 -12 -64 -12 -185 l0 -173 -160 0 -160 0 0
173 c0 121 -4 177 -12 185 -8 8 -48 12 -113 12 -65 0 -105 -4 -113 -12z m178
-221 c0 -121 4 -177 12 -185 9 -9 69 -12 208 -12 139 0 199 3 208 12 8 8 12
64 12 185 l0 173 65 0 65 0 0 -445 0 -445 -65 0 -65 0 0 198 c0 141 -3 201
-12 210 -17 17 -399 17 -416 0 -9 -9 -12 -69 -12 -210 l0 -198 -65 0 -65 0 0
445 0 445 65 0 65 0 0 -173z"/>
<path d="M19210 10105 c-9 -11 -11 -103 -8 -377 4 -305 7 -371 21 -415 24 -72
92 -144 175 -185 66 -33 69 -33 207 -33 162 0 216 14 293 74 61 48 99 119 112
207 15 103 13 717 -2 732 -17 17 -212 16 -226 -1 -7 -8 -12 -135 -14 -364 -3
-339 -4 -353 -24 -380 -28 -37 -85 -56 -152 -50 -60 6 -93 24 -119 64 -16 24
-18 62 -21 372 -2 227 -7 350 -14 358 -16 19 -211 18 -228 -2z m180 -362 c0
-177 4 -334 10 -353 12 -45 85 -117 130 -130 44 -13 125 -13 170 0 48 13 109
78 121 126 4 22 9 182 9 357 l0 317 65 0 65 0 0 -297 c0 -394 -12 -468 -87
-538 -55 -51 -125 -69 -263 -70 -122 0 -127 1 -193 33 -39 19 -78 47 -93 67
-53 70 -57 102 -62 468 l-4 337 66 0 66 0 0 -317z"/>
<path d="M21202 10108 c-9 -9 -12 -132 -12 -493 0 -361 3 -484 12 -493 8 -8
48 -12 113 -12 65 0 105 4 113 12 9 9 12 69 12 210 l0 198 160 0 160 0 0 -198
c0 -141 3 -201 12 -210 8 -8 48 -12 113 -12 65 0 105 4 113 12 9 9 12 132 12
493 0 361 -3 484 -12 493 -8 8 -48 12 -113 12 -65 0 -105 -4 -113 -12 -8 -8
-12 -64 -12 -185 l0 -173 -160 0 -160 0 0 173 c0 121 -4 177 -12 185 -8 8 -48
12 -113 12 -65 0 -105 -4 -113 -12z m178 -221 c0 -121 4 -177 12 -185 9 -9 69
-12 208 -12 139 0 199 3 208 12 8 8 12 64 12 185 l0 173 65 0 65 0 0 -445 0
-445 -65 0 -65 0 0 198 c0 141 -3 201 -12 210 -17 17 -399 17 -416 0 -9 -9
-12 -69 -12 -210 l0 -198 -65 0 -65 0 0 445 0 445 65 0 65 0 0 -173z"/>
<path d="M22092 10108 c-7 -7 -12 -44 -12 -98 0 -54 5 -91 12 -98 8 -8 54 -12
140 -12 l128 0 0 -383 c0 -285 3 -386 12 -395 16 -16 210 -16 226 0 9 9 12
110 12 395 l0 383 128 0 c86 0 132 4 140 12 7 7 12 44 12 98 0 54 -5 91 -12
98 -9 9 -110 12 -393 12 -283 0 -384 -3 -393 -12z m738 -98 l0 -50 -128 0
c-86 0 -132 -4 -140 -12 -9 -9 -12 -110 -12 -395 l0 -383 -65 0 -65 0 0 383
c0 285 -3 386 -12 395 -8 8 -54 12 -140 12 l-128 0 0 50 0 50 345 0 345 0 0
-50z"/>
<path d="M22812 9338 c-8 -8 -12 -47 -12 -108 0 -61 4 -100 12 -108 8 -8 47
-12 108 -12 61 0 100 4 108 12 8 8 12 47 12 108 0 61 -4 100 -12 108 -8 8 -47
12 -108 12 -61 0 -100 -4 -108 -12z m168 -108 l0 -60 -60 0 -60 0 0 60 0 60
60 0 60 0 0 -60z"/>
<path d="M3114 8596 c-168 -41 -303 -194 -334 -379 -18 -105 -8 -256 23 -339
44 -122 155 -235 269 -275 81 -28 263 -25 341 6 82 32 167 114 212 203 40 80
42 98 18 120 -24 21 -180 71 -198 64 -8 -3 -27 -34 -43 -69 -44 -96 -112 -137
-205 -123 -67 10 -107 42 -142 111 -28 57 -30 67 -30 180 0 104 3 127 23 172
29 63 55 88 111 108 98 34 188 4 232 -78 39 -72 37 -71 131 -52 92 20 128 37
128 63 0 67 -114 213 -200 257 -87 44 -228 57 -336 31z m218 -57 c106 -23 183
-79 227 -166 12 -23 21 -44 21 -46 0 -2 -26 -10 -57 -17 -53 -11 -58 -11 -68
5 -24 43 -83 99 -120 116 -50 23 -137 24 -196 4 -57 -20 -122 -84 -151 -149
-21 -46 -23 -66 -23 -191 0 -125 3 -146 24 -192 30 -67 105 -138 162 -153 115
-31 228 12 286 109 18 30 34 58 35 63 3 9 96 -18 112 -32 14 -13 -54 -129 -98
-166 -66 -56 -135 -78 -251 -78 -135 0 -197 24 -281 108 -64 64 -95 127 -115
230 -31 165 20 365 118 458 92 88 238 126 375 97z"/>
<path d="M4071 8594 c-82 -22 -147 -62 -208 -128 -95 -103 -133 -214 -133
-391 0 -168 48 -292 151 -390 90 -86 194 -125 334 -125 139 0 243 38 331 122
102 97 143 195 151 363 11 233 -60 393 -220 496 -99 64 -278 88 -406 53z m259
-60 c97 -22 180 -77 229 -153 58 -90 76 -163 75 -306 -1 -128 -16 -191 -69
-280 -114 -195 -462 -234 -642 -71 -167 150 -177 521 -20 701 90 104 260 147
427 109z"/>
<path d="M4116 8436 c-88 -33 -156 -114 -182 -216 -24 -95 -15 -249 19 -324
55 -121 159 -183 288 -174 110 8 185 64 236 176 44 95 42 305 -4 397 -22 44
-82 104 -128 128 -52 26 -173 33 -229 13z m216 -78 c82 -45 113 -120 113 -279
0 -99 -2 -109 -33 -172 -26 -53 -42 -72 -77 -92 -122 -72 -267 -24 -325 108
-45 100 -34 284 21 373 21 34 69 69 117 85 45 14 137 3 184 -23z"/>
<path d="M7614 8596 c-168 -41 -303 -194 -334 -379 -18 -105 -8 -256 23 -339
44 -122 155 -235 269 -275 81 -28 263 -25 341 6 82 32 167 114 212 203 40 80
42 98 18 120 -24 21 -180 71 -198 64 -8 -3 -27 -34 -43 -69 -44 -96 -112 -137
-205 -123 -67 10 -107 42 -142 111 -28 57 -30 67 -30 180 0 104 3 127 23 172
29 63 55 88 111 108 98 34 188 4 232 -78 39 -72 37 -71 131 -52 92 20 128 37
128 63 0 67 -114 213 -200 257 -87 44 -228 57 -336 31z m218 -57 c106 -23 183
-79 227 -166 12 -23 21 -44 21 -46 0 -2 -26 -10 -57 -17 -53 -11 -58 -11 -68
5 -24 43 -83 99 -120 116 -50 23 -137 24 -196 4 -57 -20 -122 -84 -151 -149
-21 -46 -23 -66 -23 -191 0 -125 3 -146 24 -192 30 -67 105 -138 162 -153 115
-31 228 12 286 109 18 30 34 58 35 63 3 9 96 -18 112 -32 14 -13 -54 -129 -98
-166 -66 -56 -135 -78 -251 -78 -135 0 -197 24 -281 108 -64 64 -95 127 -115
230 -31 165 20 365 118 458 92 88 238 126 375 97z"/>
<path d="M11891 8594 c-82 -22 -147 -62 -208 -128 -95 -103 -133 -214 -133
-391 0 -168 48 -292 151 -390 90 -86 194 -125 334 -125 139 0 243 38 331 122
102 97 143 195 151 363 11 233 -60 393 -220 496 -99 64 -278 88 -406 53z m259
-60 c97 -22 180 -77 229 -153 58 -90 76 -163 75 -306 -1 -128 -16 -191 -69
-280 -114 -195 -462 -234 -642 -71 -167 150 -177 521 -20 701 90 104 260 147
427 109z"/>
<path d="M11936 8436 c-88 -33 -156 -114 -182 -216 -24 -95 -15 -249 19 -324
55 -121 159 -183 288 -174 110 8 185 64 236 176 44 95 42 305 -4 397 -22 44
-82 104 -128 128 -52 26 -173 33 -229 13z m216 -78 c82 -45 113 -120 113 -279
0 -99 -2 -109 -33 -172 -26 -53 -42 -72 -77 -92 -122 -72 -267 -24 -325 108
-45 100 -34 284 21 373 21 34 69 69 117 85 45 14 137 3 184 -23z"/>
<path d="M16991 8594 c-82 -22 -147 -62 -208 -128 -95 -103 -133 -214 -133
-391 0 -168 48 -292 151 -390 90 -86 194 -125 334 -125 139 0 243 38 331 122
102 97 143 195 151 363 11 233 -60 393 -220 496 -99 64 -278 88 -406 53z m259
-60 c97 -22 180 -77 229 -153 58 -90 76 -163 75 -306 -1 -128 -16 -191 -69
-280 -114 -195 -462 -234 -642 -71 -167 150 -177 521 -20 701 90 104 260 147
427 109z"/>
<path d="M17036 8436 c-88 -33 -156 -114 -182 -216 -24 -95 -15 -249 19 -324
55 -121 159 -183 288 -174 110 8 185 64 236 176 44 95 42 305 -4 397 -22 44
-82 104 -128 128 -52 26 -173 33 -229 13z m216 -78 c82 -45 113 -120 113 -279
0 -99 -2 -109 -33 -172 -26 -53 -42 -72 -77 -92 -122 -72 -267 -24 -325 108
-45 100 -34 284 21 373 21 34 69 69 117 85 45 14 137 3 184 -23z"/>
<path d="M4812 8578 c-17 -17 -17 -969 0 -986 17 -17 689 -17 706 0 16 16 16
180 0 196 -9 9 -76 12 -240 12 l-228 0 0 383 c0 285 -3 386 -12 395 -8 8 -48
12 -113 12 -65 0 -105 -4 -113 -12z m178 -431 c0 -285 3 -386 12 -395 9 -9 76
-12 240 -12 l228 0 0 -50 0 -50 -305 0 -305 0 0 445 0 445 65 0 65 0 0 -383z"/>
<path d="M5622 8578 c-17 -17 -17 -969 0 -986 17 -17 689 -17 706 0 16 16 16
180 0 196 -9 9 -76 12 -240 12 l-228 0 0 383 c0 285 -3 386 -12 395 -8 8 -48
12 -113 12 -65 0 -105 -4 -113 -12z m178 -431 c0 -285 3 -386 12 -395 9 -9 76
-12 240 -12 l228 0 0 -50 0 -50 -305 0 -305 0 0 445 0 445 65 0 65 0 0 -383z"/>
<path d="M6432 8578 c-17 -17 -17 -969 0 -986 17 -17 739 -17 756 0 16 16 16
180 0 196 -9 9 -82 12 -265 12 l-253 0 0 100 0 100 223 0 c160 0 226 3 235 12
16 16 16 180 0 196 -9 9 -75 12 -235 12 l-223 0 0 75 0 75 243 0 c176 0 246 3
255 12 7 7 12 44 12 98 0 54 -5 91 -12 98 -9 9 -104 12 -368 12 -264 0 -359
-3 -368 -12z m688 -98 l0 -50 -243 0 c-176 0 -246 -3 -255 -12 -8 -8 -12 -50
-12 -123 0 -73 4 -115 12 -123 9 -9 75 -12 235 -12 l223 0 0 -50 0 -50 -223 0
c-160 0 -226 -3 -235 -12 -8 -8 -12 -56 -12 -148 0 -92 4 -140 12 -148 9 -9
82 -12 265 -12 l253 0 0 -50 0 -50 -330 0 -330 0 0 445 0 445 320 0 320 0 0
-50z"/>
<path d="M8212 8578 c-7 -7 -12 -44 -12 -98 0 -54 5 -91 12 -98 8 -8 54 -12
140 -12 l128 0 0 -383 c0 -285 3 -386 12 -395 16 -16 210 -16 226 0 9 9 12
110 12 395 l0 383 128 0 c86 0 132 4 140 12 7 7 12 44 12 98 0 54 -5 91 -12
98 -17 17 -769 17 -786 0z m738 -98 l0 -50 -128 0 c-86 0 -132 -4 -140 -12 -9
-9 -12 -110 -12 -395 l0 -383 -65 0 -65 0 0 383 c0 285 -3 386 -12 395 -8 8
-54 12 -140 12 l-128 0 0 50 0 50 345 0 345 0 0 -50z"/>
<path d="M9452 8578 c-17 -17 -17 -969 0 -986 8 -8 48 -12 113 -12 65 0 105 4
113 12 17 17 17 969 0 986 -8 8 -48 12 -113 12 -65 0 -105 -4 -113 -12z m178
-493 l0 -445 -65 0 -65 0 0 445 0 445 65 0 65 0 0 -445z"/>
<path d="M9832 8578 c-17 -17 -17 -969 0 -986 17 -17 202 -16 217 1 7 9 12
101 13 270 l3 257 165 -267 165 -268 109 -3 c71 -2 113 1 122 9 19 16 21 968
2 987 -17 17 -202 16 -217 -1 -7 -9 -12 -103 -13 -275 l-3 -262 -155 252 c-85
138 -163 262 -173 275 -17 21 -25 23 -121 23 -66 0 -106 -4 -114 -12z m380
-358 c103 -168 194 -309 202 -314 10 -7 20 -5 30 3 14 12 16 52 16 317 l0 304
60 0 60 0 0 -445 0 -445 -74 0 -73 0 -188 306 c-104 168 -194 308 -202 311 -7
3 -20 0 -28 -7 -13 -11 -15 -59 -15 -311 l0 -299 -60 0 -60 0 0 445 0 446 72
-3 72 -3 188 -305z"/>
<path d="M10792 8578 c-17 -17 -17 -969 0 -986 8 -8 48 -12 113 -12 65 0 105
4 113 12 8 8 12 67 12 200 l0 188 183 0 c129 0 187 4 195 12 16 16 16 180 0
196 -8 8 -66 12 -195 12 l-183 0 0 85 0 85 213 0 c152 0 216 3 225 12 7 7 12
44 12 98 0 54 -5 91 -12 98 -9 9 -98 12 -338 12 -240 0 -329 -3 -338 -12z
m628 -98 l0 -50 -213 0 c-152 0 -216 -3 -225 -12 -17 -17 -17 -249 0 -266 8
-8 66 -12 195 -12 l183 0 0 -50 0 -50 -183 0 c-129 0 -187 -4 -195 -12 -8 -8
-12 -67 -12 -200 l0 -188 -65 0 -65 0 0 445 0 445 290 0 290 0 0 -50z"/>
<path d="M12633 8579 c-18 -18 -19 -969 -1 -987 8 -8 48 -12 113 -12 65 0 105
4 113 12 8 8 12 67 12 200 l0 188 35 0 c85 0 131 -42 252 -235 112 -178 95
-166 236 -163 95 2 122 6 130 18 7 12 -13 52 -84 169 -52 84 -113 175 -137
202 l-43 48 35 15 c44 18 106 80 131 131 15 31 20 61 20 130 0 82 -3 95 -31
145 -34 61 -94 113 -152 131 -55 18 -613 25 -629 8z m563 -60 c83 -15 127 -43
158 -99 51 -95 43 -204 -20 -279 -27 -31 -49 -45 -97 -60 -92 -28 -94 -40 -21
-109 41 -39 87 -99 142 -190 45 -73 82 -134 82 -137 0 -3 -33 -5 -72 -5 l-73
0 -67 109 c-99 159 -169 245 -221 270 -49 24 -165 29 -185 9 -8 -8 -12 -67
-12 -200 l0 -188 -65 0 -65 0 0 445 0 445 228 0 c126 0 255 -5 288 -11z"/>
<path d="M12822 8418 c-19 -19 -16 -252 3 -268 11 -9 59 -11 178 -9 180 4 199
10 238 72 15 24 19 44 16 85 -4 59 -30 95 -84 118 -43 18 -333 20 -351 2z
m332 -62 c25 -10 36 -22 41 -46 8 -36 -9 -85 -33 -96 -10 -4 -79 -9 -154 -12
l-138 -4 0 86 0 86 125 0 c85 0 136 -5 159 -14z"/>
<path d="M13582 8578 c-17 -17 -17 -969 0 -986 17 -17 202 -16 217 1 7 9 12
98 13 257 l3 244 54 -235 c30 -129 60 -244 68 -256 13 -22 20 -23 128 -23 108
0 115 1 128 23 8 12 38 127 68 256 l54 235 3 -244 c1 -159 6 -248 13 -257 15
-17 200 -18 217 -1 17 17 17 969 0 986 -16 16 -329 17 -346 0 -6 -6 -39 -128
-74 -271 l-63 -260 -63 258 c-34 142 -67 264 -73 272 -15 18 -329 19 -347 1z
m378 -365 c41 -172 81 -318 88 -325 32 -32 45 4 122 323 l75 314 128 3 127 3
0 -446 0 -445 -60 0 -60 0 0 364 c0 319 -2 365 -16 377 -36 30 -46 2 -133
-374 l-86 -367 -80 0 -80 0 -86 367 c-87 376 -97 404 -133 374 -14 -12 -16
-58 -16 -377 l0 -364 -60 0 -60 0 0 445 0 446 127 -3 128 -3 75 -312z"/>
<path d="M14952 8577 c-6 -7 -90 -226 -187 -487 -127 -341 -174 -479 -167
-490 14 -23 218 -27 243 -4 10 9 32 59 49 110 l32 94 153 0 153 0 31 -86 c17
-47 31 -89 31 -93 0 -4 8 -15 18 -24 26 -24 223 -25 242 -1 11 13 -14 91 -160
492 -95 262 -178 483 -183 490 -13 17 -240 17 -255 -1z m369 -486 c88 -239
159 -438 159 -443 0 -4 -29 -8 -64 -8 l-63 0 -33 93 c-18 50 -40 100 -48 110
-13 15 -36 17 -197 17 -156 0 -185 -2 -196 -16 -8 -9 -28 -58 -45 -108 l-31
-91 -67 -3 c-55 -2 -67 0 -64 11 2 8 75 209 163 446 l160 431 84 -2 84 -3 158
-434z"/>
<path d="M15053 8348 c-12 -16 -123 -331 -123 -350 0 -32 24 -38 145 -38 123
0 145 6 145 39 0 20 -110 332 -123 349 -5 6 -15 12 -22 12 -7 0 -17 -6 -22
-12z m56 -209 c16 -46 32 -92 36 -101 6 -16 0 -18 -68 -18 l-76 0 36 106 c19
58 37 103 39 101 2 -2 17 -42 33 -88z"/>
<path d="M15452 8578 c-16 -16 -16 -180 0 -196 8 -8 54 -12 140 -12 l128 0 0
-383 c0 -285 3 -386 12 -395 16 -16 210 -16 226 0 9 9 12 110 12 395 l0 383
128 0 c86 0 132 4 140 12 7 7 12 44 12 98 0 54 -5 91 -12 98 -9 9 -110 12
-393 12 -283 0 -384 -3 -393 -12z m738 -98 l0 -50 -128 0 c-86 0 -132 -4 -140
-12 -9 -9 -12 -110 -12 -395 l0 -383 -65 0 -65 0 0 383 c0 285 -3 386 -12 395
-8 8 -54 12 -140 12 l-128 0 0 50 0 50 345 0 345 0 0 -50z"/>
<path d="M16322 8578 c-17 -17 -17 -969 0 -986 8 -8 48 -12 113 -12 65 0 105
4 113 12 17 17 17 969 0 986 -8 8 -48 12 -113 12 -65 0 -105 -4 -113 -12z
m178 -493 l0 -445 -65 0 -65 0 0 445 0 445 65 0 65 0 0 -445z"/>
<path d="M17732 8578 c-17 -17 -17 -969 0 -986 17 -17 202 -16 217 1 7 9 12
101 13 270 l3 257 165 -267 165 -268 109 -3 c71 -2 113 1 122 9 19 16 21 968
2 987 -17 17 -202 16 -217 -1 -7 -9 -12 -103 -13 -275 l-3 -262 -155 252 c-85
138 -163 262 -173 275 -17 21 -25 23 -121 23 -66 0 -106 -4 -114 -12z m380
-358 c103 -168 194 -309 202 -314 10 -7 20 -5 30 3 14 12 16 52 16 317 l0 304
60 0 60 0 0 -445 0 -445 -74 0 -73 0 -188 306 c-104 168 -194 308 -202 311 -7
3 -20 0 -28 -7 -13 -11 -15 -59 -15 -311 l0 -299 -60 0 -60 0 0 445 0 446 72
-3 72 -3 188 -305z"/>
<path d="M18960 8575 c-10 -12 8 -104 95 -492 59 -263 112 -484 118 -490 7 -9
46 -13 133 -13 117 0 124 1 138 23 7 12 47 150 87 305 45 175 75 277 79 265 4
-10 40 -142 80 -293 41 -151 78 -281 83 -287 7 -9 45 -13 128 -13 112 0 119 1
132 23 8 12 62 232 122 490 87 378 105 470 95 482 -16 20 -222 22 -237 3 -6
-7 -34 -129 -64 -270 -29 -142 -56 -254 -60 -250 -3 4 -34 120 -68 257 -35
138 -68 256 -73 263 -7 8 -49 12 -143 12 -94 0 -135 -4 -142 -12 -6 -7 -38
-123 -73 -258 -35 -135 -66 -248 -70 -253 -3 -4 -30 107 -60 245 -29 139 -57
259 -63 266 -15 19 -221 17 -237 -3z m205 -117 c8 -40 39 -183 68 -317 54
-253 67 -286 101 -251 8 8 44 132 81 275 37 143 73 284 82 313 l14 52 94 0 93
0 11 -32 c5 -18 42 -161 81 -318 40 -157 78 -292 86 -300 34 -35 47 -3 101
256 29 137 60 282 69 322 l15 72 66 0 c48 0 64 -3 61 -12 -2 -7 -49 -208 -104
-445 l-99 -433 -82 0 c-77 0 -83 1 -88 23 -3 12 -45 168 -94 346 -89 331 -103
365 -134 331 -8 -8 -54 -169 -103 -357 l-89 -343 -87 0 c-74 0 -87 3 -92 18
-3 9 -46 199 -96 422 -50 223 -94 415 -97 428 -5 21 -3 22 60 22 l66 0 16 -72z"/>
<path d="M20312 8578 c-17 -17 -17 -969 0 -986 8 -8 48 -12 113 -12 65 0 105
4 113 12 9 9 12 132 12 493 0 361 -3 484 -12 493 -8 8 -48 12 -113 12 -65 0
-105 -4 -113 -12z m178 -493 l0 -445 -65 0 -65 0 0 445 0 445 65 0 65 0 0
-445z"/>
<path d="M20622 8578 c-7 -7 -12 -44 -12 -98 0 -54 5 -91 12 -98 8 -8 54 -12
140 -12 l128 0 0 -383 c0 -285 3 -386 12 -395 16 -16 210 -16 226 0 9 9 12
110 12 395 l0 383 128 0 c86 0 132 4 140 12 7 7 12 44 12 98 0 54 -5 91 -12
98 -9 9 -110 12 -393 12 -283 0 -384 -3 -393 -12z m738 -98 l0 -50 -128 0
c-86 0 -132 -4 -140 -12 -9 -9 -12 -110 -12 -395 l0 -383 -65 0 -65 0 0 383
c0 285 -3 386 -12 395 -8 8 -54 12 -140 12 l-128 0 0 50 0 50 345 0 345 0 0
-50z"/>
<path d="M21502 8578 c-9 -9 -12 -132 -12 -493 0 -361 3 -484 12 -493 8 -8 48
-12 113 -12 65 0 105 4 113 12 9 9 12 69 12 210 l0 198 160 0 160 0 0 -198 c0
-141 3 -201 12 -210 8 -8 48 -12 113 -12 65 0 105 4 113 12 9 9 12 132 12 493
0 361 -3 484 -12 493 -8 8 -48 12 -113 12 -65 0 -105 -4 -113 -12 -8 -8 -12
-64 -12 -185 l0 -173 -160 0 -160 0 0 173 c0 121 -4 177 -12 185 -8 8 -48 12
-113 12 -65 0 -105 -4 -113 -12z m178 -221 c0 -121 4 -177 12 -185 9 -9 69
-12 208 -12 139 0 199 3 208 12 8 8 12 64 12 185 l0 173 65 0 65 0 0 -445 0
-445 -65 0 -65 0 0 198 c0 141 -3 201 -12 210 -17 17 -399 17 -416 0 -9 -9
-12 -69 -12 -210 l0 -198 -65 0 -65 0 0 445 0 445 65 0 65 0 0 -173z"/>
<path d="M2832 7065 c-69 -19 -86 -29 -139 -78 -70 -64 -88 -107 -88 -207 0
-101 18 -143 90 -209 58 -53 117 -80 269 -120 137 -37 172 -53 181 -82 10 -30
-14 -78 -48 -95 -40 -21 -124 -28 -173 -15 -59 16 -90 44 -109 100 -24 73 -29
75 -136 62 -113 -13 -123 -20 -114 -80 14 -100 85 -207 169 -256 96 -56 312
-71 444 -30 69 21 147 86 186 155 29 51 31 62 31 150 0 110 -15 148 -87 216
-55 53 -104 78 -220 110 -220 61 -248 76 -233 124 9 29 86 54 146 47 67 -8 96
-28 109 -76 16 -60 27 -65 133 -56 50 4 98 11 105 17 16 14 15 54 -4 118 -21
71 -116 168 -189 194 -70 25 -253 31 -323 11z m302 -71 c67 -23 131 -88 149
-151 l14 -48 -41 -7 c-72 -12 -86 -10 -86 12 0 31 -67 98 -108 110 -179 49
-339 -73 -242 -184 32 -36 63 -49 248 -100 205 -57 266 -118 267 -266 0 -64
-4 -82 -29 -127 -50 -90 -131 -130 -286 -140 -157 -10 -285 37 -341 125 -35
56 -56 119 -43 131 5 5 32 11 60 13 l52 5 11 -37 c14 -47 86 -115 137 -129 49
-14 138 -14 186 -1 108 30 162 148 102 220 -36 42 -62 54 -199 90 -252 68
-319 124 -320 270 0 113 64 191 185 225 69 19 214 13 284 -11z"/>
<path d="M7734 7066 c-168 -41 -303 -194 -334 -379 -18 -105 -8 -256 23 -339
44 -122 155 -235 269 -275 81 -28 263 -25 341 6 82 32 167 114 212 203 40 80
42 98 18 120 -24 21 -180 71 -198 64 -8 -3 -27 -34 -43 -69 -44 -96 -112 -137
-205 -123 -67 10 -107 42 -142 111 -28 57 -30 67 -30 180 0 104 3 127 23 172
29 63 55 88 111 108 98 34 188 4 232 -78 39 -72 37 -71 131 -52 92 20 128 37
128 63 0 67 -114 213 -200 257 -87 44 -228 57 -336 31z m218 -57 c106 -23 183
-79 227 -166 12 -23 21 -44 21 -46 0 -2 -26 -10 -57 -17 -53 -11 -58 -11 -68
5 -24 43 -83 99 -120 116 -50 23 -137 24 -196 4 -57 -20 -122 -84 -151 -149
-21 -46 -23 -66 -23 -191 0 -125 3 -146 24 -192 30 -67 105 -138 162 -153 115
-31 228 12 286 109 18 30 34 58 35 63 3 9 96 -18 112 -32 14 -13 -54 -129 -98
-166 -66 -56 -135 -78 -251 -78 -135 0 -197 24 -281 108 -64 64 -95 127 -115
230 -31 165 20 365 118 458 92 88 238 126 375 97z"/>
<path d="M8972 7065 c-69 -19 -86 -29 -139 -78 -70 -64 -88 -107 -88 -207 0
-101 18 -143 90 -209 58 -53 117 -80 269 -120 137 -37 172 -53 181 -82 10 -30
-14 -78 -48 -95 -40 -21 -124 -28 -173 -15 -59 16 -90 44 -109 100 -24 73 -29
75 -136 62 -113 -13 -123 -20 -114 -80 14 -100 85 -207 169 -256 96 -56 312
-71 444 -30 69 21 147 86 186 155 29 51 31 62 31 150 0 110 -15 148 -87 216
-55 53 -104 78 -220 110 -220 61 -248 76 -233 124 9 29 86 54 146 47 67 -8 96
-28 109 -76 16 -60 27 -65 133 -56 50 4 98 11 105 17 16 14 15 54 -4 118 -21
71 -116 168 -189 194 -70 25 -253 31 -323 11z m302 -71 c67 -23 131 -88 149
-151 l14 -48 -41 -7 c-72 -12 -86 -10 -86 12 0 31 -67 98 -108 110 -179 49
-339 -73 -242 -184 32 -36 63 -49 248 -100 205 -57 266 -118 267 -266 0 -64
-4 -82 -29 -127 -50 -90 -131 -130 -286 -140 -157 -10 -285 37 -341 125 -35
56 -56 119 -43 131 5 5 32 11 60 13 l52 5 11 -37 c14 -47 86 -115 137 -129 49
-14 138 -14 186 -1 108 30 162 148 102 220 -36 42 -62 54 -199 90 -252 68
-319 124 -320 270 0 113 64 191 185 225 69 19 214 13 284 -11z"/>
<path d="M16881 7064 c-82 -22 -147 -62 -208 -128 -95 -103 -133 -214 -133
-391 0 -168 48 -292 151 -390 90 -86 194 -125 334 -125 139 0 243 38 331 122
102 97 143 195 151 363 11 233 -60 393 -220 496 -99 64 -278 88 -406 53z m259
-60 c97 -22 180 -77 229 -153 58 -90 76 -163 75 -306 -1 -128 -16 -191 -69
-280 -114 -195 -462 -234 -642 -71 -167 150 -177 521 -20 701 90 104 260 147
427 109z"/>
<path d="M16926 6906 c-88 -33 -156 -114 -182 -216 -24 -95 -15 -249 19 -324
55 -121 159 -183 288 -174 110 8 185 64 236 176 44 95 42 305 -4 397 -22 44
-82 104 -128 128 -52 26 -173 33 -229 13z m216 -78 c82 -45 113 -120 113 -279
0 -99 -2 -109 -33 -172 -26 -53 -42 -72 -77 -92 -122 -72 -267 -24 -325 108
-45 100 -34 284 21 373 21 34 69 69 117 85 45 14 137 3 184 -23z"/>
<path d="M3522 7048 c-17 -17 -17 -969 0 -986 8 -8 48 -12 113 -12 65 0 105 4
113 12 8 8 12 57 12 155 l0 142 58 62 57 61 126 -213 125 -214 133 -3 c133 -3
161 3 161 33 0 7 -81 140 -181 295 l-181 282 68 72 c38 39 116 119 174 179
137 140 136 141 -57 145 l-141 3 -168 -180 -169 -180 -3 166 c-1 102 -7 172
-13 180 -15 17 -210 18 -227 1z m178 -236 c0 -188 4 -212 36 -212 7 0 97 90
200 200 l188 200 89 0 89 0 -154 -161 c-84 -88 -155 -165 -156 -170 -4 -11 7
-29 201 -331 l146 -228 -87 0 -87 0 -129 221 c-72 122 -136 224 -144 227 -10
3 -46 -27 -104 -86 l-88 -91 0 -135 0 -136 -65 0 -65 0 0 445 0 445 65 0 65 0
0 -188z"/>
<path d="M4482 7048 c-17 -17 -17 -969 0 -986 17 -17 739 -17 756 0 16 16 16
180 0 196 -9 9 -82 12 -265 12 l-253 0 0 100 0 100 223 0 c160 0 226 3 235 12
16 16 16 180 0 196 -9 9 -75 12 -235 12 l-223 0 0 75 0 75 243 0 c176 0 246 3
255 12 7 7 12 44 12 98 0 54 -5 91 -12 98 -9 9 -104 12 -368 12 -264 0 -359
-3 -368 -12z m688 -98 l0 -50 -243 0 c-176 0 -246 -3 -255 -12 -17 -17 -17
-229 0 -246 9 -9 75 -12 235 -12 l223 0 0 -50 0 -50 -223 0 c-160 0 -226 -3
-235 -12 -8 -8 -12 -56 -12 -148 0 -92 4 -140 12 -148 9 -9 82 -12 265 -12
l253 0 0 -50 0 -50 -330 0 -330 0 0 445 0 445 320 0 320 0 0 -50z"/>
<path d="M5373 7049 c-18 -18 -19 -969 -1 -987 8 -8 48 -12 113 -12 65 0 105
4 113 12 8 8 12 62 12 179 l0 166 148 6 c170 6 219 19 284 77 24 21 57 62 73
91 28 50 30 62 30 154 0 89 -3 106 -28 157 -32 64 -80 111 -146 142 -42 19
-68 21 -316 24 -210 3 -273 1 -282 -9z m593 -84 c51 -27 62 -38 89 -90 26 -51
30 -69 30 -139 0 -71 -4 -88 -29 -134 -56 -100 -112 -122 -326 -129 -85 -3
-161 -10 -167 -15 -10 -8 -13 -56 -13 -179 l0 -169 -65 0 -65 0 0 446 0 446
243 -3 243 -4 60 -30z"/>
<path d="M5562 6888 c-8 -8 -12 -57 -12 -153 0 -96 4 -145 12 -153 14 -14 213
-16 272 -2 25 5 55 24 80 49 39 40 41 44 41 106 0 61 -2 66 -40 105 -21 22
-55 45 -75 50 -51 14 -263 13 -278 -2z m292 -71 c55 -37 57 -120 4 -160 -23
-17 -47 -21 -138 -25 l-110 -5 0 108 0 107 108 -3 c83 -3 115 -8 136 -22z"/>
<path d="M6192 7048 c-7 -7 -12 -44 -12 -98 0 -54 5 -91 12 -98 8 -8 54 -12
140 -12 l128 0 0 -383 c0 -285 3 -386 12 -395 16 -16 210 -16 226 0 9 9 12
110 12 395 l0 383 128 0 c86 0 132 4 140 12 7 7 12 44 12 98 0 54 -5 91 -12
98 -17 17 -769 17 -786 0z m738 -98 l0 -50 -128 0 c-86 0 -132 -4 -140 -12 -9
-9 -12 -110 -12 -395 l0 -383 -65 0 -65 0 0 383 c0 285 -3 386 -12 395 -8 8
-54 12 -140 12 l-128 0 0 50 0 50 345 0 345 0 0 -50z"/>
<path d="M7062 7048 c-17 -17 -17 -969 0 -986 8 -8 48 -12 113 -12 65 0 105 4
113 12 17 17 17 969 0 986 -8 8 -48 12 -113 12 -65 0 -105 -4 -113 -12z m178
-493 l0 -445 -65 0 -65 0 0 445 0 445 65 0 65 0 0 -445z"/>
<path d="M8392 7048 c-17 -17 -17 -969 0 -986 8 -8 48 -12 113 -12 65 0 105 4
113 12 17 17 17 969 0 986 -8 8 -48 12 -113 12 -65 0 -105 -4 -113 -12z m178
-493 l0 -445 -65 0 -65 0 0 445 0 445 65 0 65 0 0 -445z"/>
<path d="M9652 7048 c-17 -17 -17 -969 0 -986 17 -17 202 -16 217 1 7 9 12 98
13 257 l3 244 54 -235 c30 -129 60 -244 68 -256 13 -22 20 -23 128 -23 108 0
115 1 128 23 8 12 38 127 68 256 l54 235 3 -244 c1 -159 6 -248 13 -257 15
-17 200 -18 217 -1 17 17 17 969 0 986 -16 16 -329 17 -346 0 -6 -6 -39 -128
-74 -271 l-63 -260 -63 258 c-34 142 -67 264 -73 272 -15 18 -329 19 -347 1z
m378 -365 c41 -172 81 -318 88 -325 32 -32 45 4 122 323 l75 314 128 3 127 3
0 -446 0 -445 -60 0 -60 0 0 364 c0 319 -2 365 -16 377 -36 30 -46 2 -133
-374 l-86 -367 -80 0 -80 0 -86 367 c-87 376 -97 404 -133 374 -14 -12 -16
-58 -16 -377 l0 -364 -60 0 -60 0 0 445 0 446 127 -3 128 -3 75 -312z"/>
<path d="M11712 7047 c-6 -7 -90 -226 -187 -487 -127 -341 -174 -479 -167
-490 14 -23 218 -27 243 -4 10 9 32 59 49 110 l32 94 153 0 153 0 31 -86 c17
-47 31 -89 31 -93 0 -4 8 -15 18 -24 26 -24 223 -25 242 -1 11 13 -14 91 -160
492 -95 262 -178 483 -183 490 -13 17 -240 17 -255 -1z m369 -486 c88 -239
159 -438 159 -443 0 -4 -29 -8 -64 -8 l-63 0 -33 93 c-18 50 -40 100 -48 110
-13 15 -36 17 -197 17 -156 0 -185 -2 -196 -16 -8 -9 -28 -58 -45 -108 l-31
-91 -67 -3 c-55 -2 -67 0 -64 11 2 8 75 209 163 446 l160 431 84 -2 84 -3 158
-434z"/>
<path d="M11813 6818 c-12 -16 -123 -331 -123 -350 0 -32 24 -38 145 -38 123
0 145 6 145 39 0 20 -110 332 -123 349 -5 6 -15 12 -22 12 -7 0 -17 -6 -22
-12z m56 -209 c16 -46 32 -92 36 -101 6 -16 0 -18 -68 -18 l-76 0 36 106 c19
58 37 103 39 101 2 -2 17 -42 33 -88z"/>
<path d="M12382 7048 c-17 -17 -17 -969 0 -986 17 -17 202 -16 217 1 7 9 12
101 13 270 l3 257 165 -267 165 -268 109 -3 c71 -2 113 1 122 9 19 16 21 968
2 987 -17 17 -202 16 -217 -1 -7 -9 -12 -103 -13 -275 l-3 -262 -155 252 c-85
138 -163 262 -173 275 -17 21 -25 23 -121 23 -66 0 -106 -4 -114 -12z m380
-358 c103 -168 194 -309 202 -314 10 -7 20 -5 30 3 14 12 16 52 16 317 l0 304
60 0 60 0 0 -445 0 -445 -74 0 -73 0 -188 306 c-104 168 -194 308 -202 311 -7
3 -20 0 -28 -7 -13 -11 -15 -59 -15 -311 l0 -299 -60 0 -60 0 0 445 0 446 72
-3 72 -3 188 -305z"/>
<path d="M13343 7049 c-10 -10 -13 -123 -13 -495 0 -408 2 -483 14 -494 11 -8
81 -11 268 -8 284 5 316 11 404 77 111 84 163 202 171 386 8 204 -31 329 -137
435 -97 97 -124 103 -435 108 -201 3 -263 1 -272 -9z m569 -78 c146 -57 227
-228 215 -456 -8 -155 -64 -284 -146 -338 -82 -54 -118 -61 -363 -65 l-228 -4
0 447 0 447 233 -4 c211 -4 237 -6 289 -27z"/>
<path d="M13532 6888 c-17 -17 -17 -649 0 -666 15 -15 247 -16 302 -1 56 16
121 80 143 142 14 41 18 83 18 197 0 126 -3 151 -21 191 -31 66 -84 115 -146
134 -64 19 -278 21 -296 3z m275 -63 c98 -29 128 -93 128 -270 0 -236 -43
-284 -252 -285 l-103 0 0 285 0 285 88 0 c50 0 111 -7 139 -15z"/>
<path d="M14672 7048 c-17 -17 -17 -969 0 -986 8 -8 48 -12 113 -12 65 0 105
4 113 12 8 8 12 57 12 155 l0 142 58 62 57 61 126 -213 125 -214 133 -3 c133
-3 161 3 161 33 0 7 -81 140 -181 295 l-181 282 68 72 c38 39 116 119 174 179
137 140 136 141 -57 145 l-141 3 -168 -180 -169 -180 -3 166 c-1 102 -7 172
-13 180 -15 17 -210 18 -227 1z m178 -236 c0 -188 4 -212 36 -212 7 0 97 90
200 200 l188 200 89 0 89 0 -154 -161 c-84 -88 -155 -165 -156 -170 -4 -11 7
-29 201 -331 l146 -228 -87 0 -87 0 -129 221 c-72 122 -136 224 -144 227 -10
3 -46 -27 -104 -86 l-88 -91 0 -135 0 -136 -65 0 -65 0 0 445 0 445 65 0 65 0
0 -188z"/>
<path d="M15632 7048 c-17 -17 -17 -969 0 -986 17 -17 202 -16 217 1 7 9 12
101 13 270 l3 257 165 -267 165 -268 109 -3 c71 -2 113 1 122 9 19 16 21 968
2 987 -17 17 -202 16 -217 -1 -7 -9 -12 -103 -13 -275 l-3 -262 -155 252 c-85
138 -163 262 -173 275 -17 21 -25 23 -121 23 -66 0 -106 -4 -114 -12z m380
-358 c103 -168 194 -309 202 -314 10 -7 20 -5 30 3 14 12 16 52 16 317 l0 304
60 0 60 0 0 -445 0 -445 -74 0 -73 0 -188 306 c-104 168 -194 308 -202 311 -7
3 -20 0 -28 -7 -13 -11 -15 -59 -15 -311 l0 -299 -60 0 -60 0 0 445 0 446 72
-3 72 -3 188 -305z"/>
<path d="M17520 7045 c-10 -12 8 -104 95 -492 59 -263 112 -484 118 -490 7 -9
46 -13 133 -13 117 0 124 1 138 23 7 12 47 150 87 305 45 175 75 277 79 265 4
-10 40 -142 80 -293 41 -151 78 -281 83 -287 7 -9 45 -13 128 -13 112 0 119 1
132 23 8 12 62 232 122 490 87 378 105 470 95 482 -16 20 -222 22 -237 3 -6
-7 -34 -129 -64 -270 -29 -142 -56 -254 -60 -250 -3 4 -34 120 -68 257 -35
138 -68 256 -73 263 -7 8 -49 12 -143 12 -94 0 -135 -4 -142 -12 -6 -7 -38
-123 -73 -258 -35 -135 -66 -248 -70 -253 -3 -4 -30 107 -60 245 -29 139 -57
259 -63 266 -15 19 -221 17 -237 -3z m205 -117 c8 -40 39 -183 68 -317 54
-253 67 -286 101 -251 8 8 44 132 81 275 37 143 73 284 82 313 l14 52 94 0 93
0 11 -32 c5 -18 42 -161 81 -318 40 -157 78 -292 86 -300 34 -35 47 -3 101
256 29 137 60 282 69 322 l15 72 66 0 c48 0 64 -3 61 -12 -2 -7 -49 -208 -104
-445 l-99 -433 -82 0 c-77 0 -83 1 -88 23 -3 12 -45 168 -94 346 -89 331 -103
365 -134 331 -8 -8 -54 -169 -103 -357 l-89 -343 -87 0 c-74 0 -87 3 -92 18
-3 9 -46 199 -96 422 -50 223 -94 415 -97 428 -5 21 -3 22 60 22 l66 0 16 -72z"/>
<path d="M19182 7048 c-16 -16 -16 -180 0 -196 8 -8 54 -12 140 -12 l128 0 0
-383 c0 -285 3 -386 12 -395 16 -16 210 -16 226 0 9 9 12 110 12 395 l0 383
128 0 c86 0 132 4 140 12 7 7 12 44 12 98 0 54 -5 91 -12 98 -9 9 -110 12
-393 12 -283 0 -384 -3 -393 -12z m738 -98 l0 -50 -128 0 c-86 0 -132 -4 -140
-12 -9 -9 -12 -110 -12 -395 l0 -383 -65 0 -65 0 0 383 c0 285 -3 386 -12 395
-8 8 -54 12 -140 12 l-128 0 0 50 0 50 345 0 345 0 0 -50z"/>
<path d="M20062 7048 c-17 -17 -17 -969 0 -986 8 -8 48 -12 113 -12 65 0 105
4 113 12 9 9 12 69 12 210 l0 198 160 0 160 0 0 -198 c0 -141 3 -201 12 -210
8 -8 48 -12 113 -12 65 0 105 4 113 12 9 9 12 132 12 493 0 361 -3 484 -12
493 -8 8 -48 12 -113 12 -65 0 -105 -4 -113 -12 -8 -8 -12 -64 -12 -185 l0
-173 -160 0 -160 0 0 173 c0 121 -4 177 -12 185 -8 8 -48 12 -113 12 -65 0
-105 -4 -113 -12z m178 -221 c0 -121 4 -177 12 -185 9 -9 69 -12 208 -12 139
0 199 3 208 12 8 8 12 64 12 185 l0 173 65 0 65 0 0 -445 0 -445 -65 0 -65 0
0 198 c0 141 -3 201 -12 210 -17 17 -399 17 -416 0 -9 -9 -12 -69 -12 -210 l0
-198 -65 0 -65 0 0 445 0 445 65 0 65 0 0 -173z"/>
<path d="M21272 7047 c-6 -7 -90 -226 -187 -487 -127 -341 -174 -479 -167
-490 14 -23 218 -27 243 -4 10 9 32 59 49 110 l32 94 153 0 153 0 31 -86 c17
-47 31 -89 31 -93 0 -4 8 -15 18 -24 26 -24 223 -25 242 -1 11 13 -14 91 -160
492 -95 262 -178 483 -183 490 -13 17 -240 17 -255 -1z m369 -486 c88 -239
159 -438 159 -443 0 -4 -29 -8 -64 -8 l-63 0 -33 93 c-18 50 -40 100 -48 110
-13 15 -36 17 -197 17 -156 0 -185 -2 -196 -16 -8 -9 -28 -58 -45 -108 l-31
-91 -67 -3 c-55 -2 -67 0 -64 11 2 8 75 209 163 446 l160 431 84 -2 84 -3 158
-434z"/>
<path d="M21373 6818 c-12 -16 -123 -331 -123 -350 0 -32 24 -38 145 -38 123
0 145 6 145 39 0 20 -110 332 -123 349 -5 6 -15 12 -22 12 -7 0 -17 -6 -22
-12z m56 -209 c16 -46 32 -92 36 -101 6 -16 0 -18 -68 -18 l-76 0 36 106 c19
58 37 103 39 101 2 -2 17 -42 33 -88z"/>
<path d="M21772 7048 c-7 -7 -12 -44 -12 -98 0 -54 5 -91 12 -98 8 -8 54 -12
140 -12 l128 0 0 -383 c0 -285 3 -386 12 -395 16 -16 210 -16 226 0 9 9 12
110 12 395 l0 383 128 0 c86 0 132 4 140 12 7 7 12 44 12 98 0 54 -5 91 -12
98 -9 9 -110 12 -393 12 -283 0 -384 -3 -393 -12z m738 -98 l0 -50 -128 0
c-86 0 -132 -4 -140 -12 -9 -9 -12 -110 -12 -395 l0 -383 -65 0 -65 0 0 383
c0 285 -3 386 -12 395 -8 8 -54 12 -140 12 l-128 0 0 50 0 50 345 0 345 0 0
-50z"/>
<path d="M10762 6278 c-16 -16 -16 -200 0 -216 7 -7 25 -12 40 -12 18 0 28 -5
28 -15 0 -17 -38 -55 -55 -55 -7 0 -20 -9 -30 -20 -17 -19 -17 -21 0 -60 10
-22 26 -47 36 -56 16 -15 23 -15 51 -3 59 24 126 96 143 152 19 63 21 267 3
285 -8 8 -47 12 -108 12 -61 0 -100 -4 -108 -12z m166 -150 c-4 -120 -23 -170
-78 -206 -48 -32 -50 -10 -2 35 28 26 42 50 48 77 9 51 -4 70 -50 74 l-36 3 0
60 0 59 61 0 61 0 -4 -102z"/>
<path d="M4081 5534 c-82 -22 -147 -62 -208 -128 -95 -103 -133 -214 -133
-391 0 -168 48 -292 151 -390 90 -86 194 -125 334 -125 139 0 243 38 331 122
102 97 143 195 151 363 11 233 -60 393 -220 496 -99 64 -278 88 -406 53z m259
-60 c97 -22 180 -77 229 -153 58 -90 76 -163 75 -306 -1 -128 -16 -191 -69
-280 -114 -195 -462 -234 -642 -71 -167 150 -177 521 -20 701 90 104 260 147
427 109z"/>
<path d="M4126 5376 c-88 -33 -156 -114 -182 -216 -24 -95 -15 -249 19 -324
55 -121 159 -183 288 -174 110 8 185 64 236 176 44 95 42 305 -4 397 -22 44
-82 104 -128 128 -52 26 -173 33 -229 13z m216 -78 c82 -45 113 -120 113 -279
0 -99 -2 -109 -33 -172 -26 -53 -42 -72 -77 -92 -122 -72 -267 -24 -325 108
-45 100 -34 284 21 373 21 34 69 69 117 85 45 14 137 3 184 -23z"/>
<path d="M8242 5540 c-109 -23 -241 -119 -298 -216 -89 -152 -98 -392 -19
-557 30 -64 99 -145 159 -186 112 -77 290 -101 446 -62 98 24 197 70 246 113
l34 30 0 202 c0 144 -3 205 -12 214 -17 17 -429 17 -446 0 -7 -7 -12 -44 -12
-98 0 -54 5 -91 12 -98 8 -8 47 -12 111 -12 l98 0 -3 -42 c-3 -42 -5 -44 -63
-73 -50 -25 -72 -30 -130 -30 -75 1 -118 16 -167 63 -60 56 -92 212 -68 336
25 134 101 200 230 201 87 0 136 -25 171 -89 14 -25 30 -51 36 -57 14 -14 199
23 221 45 14 14 14 20 -1 70 -32 101 -125 194 -232 231 -58 20 -246 29 -313
15z m233 -61 c129 -24 218 -93 249 -195 6 -19 1 -22 -56 -34 -58 -11 -64 -11
-73 7 -23 41 -102 109 -141 121 -95 28 -212 6 -282 -54 -85 -72 -119 -175
-109 -332 6 -116 33 -184 94 -244 74 -71 103 -83 208 -83 97 0 153 18 222 71
32 24 33 27 33 98 0 43 -5 77 -12 84 -8 8 -47 12 -110 12 l-98 0 0 50 0 50
175 0 175 0 0 -175 0 -174 -62 -35 c-103 -57 -197 -81 -313 -81 -214 0 -350
93 -416 285 -19 53 -23 86 -23 180 1 123 16 186 68 275 83 141 272 211 471
174z"/>
<path d="M9892 5535 c-69 -19 -86 -29 -139 -78 -70 -64 -88 -107 -88 -207 0
-101 18 -143 90 -209 58 -53 117 -80 269 -120 137 -37 172 -53 181 -82 10 -30
-14 -78 -48 -95 -40 -21 -124 -28 -173 -15 -59 16 -90 44 -109 100 -24 73 -29
75 -136 62 -113 -13 -123 -20 -114 -80 14 -100 85 -207 169 -256 96 -56 312
-71 444 -30 69 21 147 86 186 155 29 51 31 62 31 150 0 110 -15 148 -87 216
-55 53 -104 78 -220 110 -220 61 -248 76 -233 124 9 29 86 54 146 47 67 -8 96
-28 109 -76 16 -60 27 -65 133 -56 50 4 98 11 105 17 16 14 15 54 -4 118 -21
71 -116 168 -189 194 -70 25 -253 31 -323 11z m302 -71 c67 -23 131 -88 149
-151 l14 -48 -41 -7 c-72 -12 -86 -10 -86 12 0 31 -67 98 -108 110 -179 49
-339 -73 -242 -184 32 -36 63 -49 248 -100 205 -57 266 -118 267 -266 0 -64
-4 -82 -29 -127 -50 -90 -131 -130 -286 -140 -157 -10 -285 37 -341 125 -35
56 -56 119 -43 131 5 5 32 11 60 13 l52 5 11 -37 c14 -47 86 -115 137 -129 49
-14 138 -14 186 -1 108 30 162 148 102 220 -36 42 -62 54 -199 90 -252 68
-319 124 -320 270 0 113 64 191 185 225 69 19 214 13 284 -11z"/>
<path d="M11272 5540 c-109 -23 -241 -119 -298 -216 -89 -152 -98 -392 -19
-557 30 -64 99 -145 159 -186 112 -77 290 -101 446 -62 98 24 197 70 246 113
l34 30 0 202 c0 144 -3 205 -12 214 -17 17 -429 17 -446 0 -7 -7 -12 -44 -12
-98 0 -54 5 -91 12 -98 8 -8 47 -12 111 -12 l98 0 -3 -42 c-3 -42 -5 -44 -63
-73 -50 -25 -72 -30 -130 -30 -75 1 -118 16 -167 63 -60 56 -92 212 -68 336
25 134 101 200 230 201 87 0 136 -25 171 -89 14 -25 30 -51 36 -57 14 -14 199
23 221 45 14 14 14 20 -1 70 -32 101 -125 194 -232 231 -58 20 -246 29 -313
15z m233 -61 c129 -24 218 -93 249 -195 6 -19 1 -22 -56 -34 -58 -11 -64 -11
-73 7 -23 41 -102 109 -141 121 -95 28 -212 6 -282 -54 -85 -72 -119 -175
-109 -332 6 -116 33 -184 94 -244 74 -71 103 -83 208 -83 97 0 153 18 222 71
32 24 33 27 33 98 0 43 -5 77 -12 84 -8 8 -47 12 -110 12 l-98 0 0 50 0 50
175 0 175 0 0 -175 0 -174 -62 -35 c-103 -57 -197 -81 -313 -81 -214 0 -350
93 -416 285 -19 53 -23 86 -23 180 1 123 16 186 68 275 83 141 272 211 471
174z"/>
<path d="M21701 5534 c-82 -22 -147 -62 -208 -128 -95 -103 -133 -214 -133
-391 0 -168 48 -292 151 -390 90 -86 194 -125 334 -125 139 0 243 38 331 122
102 97 143 195 151 363 11 233 -60 393 -220 496 -99 64 -278 88 -406 53z m259
-60 c97 -22 180 -77 229 -153 58 -90 76 -163 75 -306 -1 -128 -16 -191 -69
-280 -114 -195 -462 -234 -642 -71 -167 150 -177 521 -20 701 90 104 260 147
427 109z"/>
<path d="M21746 5376 c-88 -33 -156 -114 -182 -216 -24 -95 -15 -249 19 -324
55 -121 159 -183 288 -174 110 8 185 64 236 176 44 95 42 305 -4 397 -22 44
-82 104 -128 128 -52 26 -173 33 -229 13z m216 -78 c82 -45 113 -120 113 -279
0 -99 -2 -109 -33 -172 -26 -53 -42 -72 -77 -92 -122 -72 -267 -24 -325 108
-45 100 -34 284 21 373 21 34 69 69 117 85 45 14 137 3 184 -23z"/>
<path d="M2832 5518 c-17 -17 -17 -969 0 -986 17 -17 202 -16 217 1 7 9 12
101 13 270 l3 257 165 -267 165 -268 109 -3 c71 -2 113 1 122 9 19 16 21 968
2 987 -17 17 -202 16 -217 -1 -7 -9 -12 -103 -13 -275 l-3 -262 -155 252 c-85
138 -163 262 -173 275 -17 21 -25 23 -121 23 -66 0 -106 -4 -114 -12z m380
-358 c103 -168 194 -309 202 -314 10 -7 20 -5 30 3 14 12 16 52 16 317 l0 304
60 0 60 0 0 -445 0 -445 -74 0 -73 0 -188 306 c-104 168 -194 308 -202 311 -7
3 -20 0 -28 -7 -13 -11 -15 -59 -15 -311 l0 -299 -60 0 -60 0 0 445 0 446 72
-3 72 -3 188 -305z"/>
<path d="M4752 5518 c-16 -16 -16 -180 0 -196 8 -8 54 -12 140 -12 l128 0 0
-383 c0 -285 3 -386 12 -395 16 -16 210 -16 226 0 9 9 12 110 12 395 l0 383
128 0 c86 0 132 4 140 12 7 7 12 44 12 98 0 54 -5 91 -12 98 -17 17 -769 17
-786 0z m738 -98 l0 -50 -128 0 c-86 0 -132 -4 -140 -12 -9 -9 -12 -110 -12
-395 l0 -383 -65 0 -65 0 0 383 c0 285 -3 386 -12 395 -8 8 -54 12 -140 12
l-128 0 0 50 0 50 345 0 345 0 0 -50z"/>
<path d="M5632 5518 c-17 -17 -17 -969 0 -986 8 -8 48 -12 113 -12 65 0 105 4
113 12 9 9 12 69 12 210 l0 198 160 0 160 0 0 -198 c0 -141 3 -201 12 -210 8
-8 48 -12 113 -12 65 0 105 4 113 12 17 17 17 969 0 986 -16 16 -210 16 -226
0 -8 -8 -12 -64 -12 -185 l0 -173 -160 0 -160 0 0 173 c0 121 -4 177 -12 185
-8 8 -48 12 -113 12 -65 0 -105 -4 -113 -12z m178 -221 c0 -121 4 -177 12
-185 17 -17 399 -17 416 0 8 8 12 64 12 185 l0 173 65 0 65 0 0 -445 0 -445
-65 0 -65 0 0 198 c0 141 -3 201 -12 210 -17 17 -399 17 -416 0 -9 -9 -12 -69
-12 -210 l0 -198 -65 0 -65 0 0 445 0 445 65 0 65 0 0 -173z"/>
<path d="M6582 5518 c-17 -17 -17 -969 0 -986 8 -8 48 -12 113 -12 65 0 105 4
113 12 17 17 17 969 0 986 -8 8 -48 12 -113 12 -65 0 -105 -4 -113 -12z m178
-493 l0 -445 -65 0 -65 0 0 445 0 445 65 0 65 0 0 -445z"/>
<path d="M6962 5518 c-17 -17 -17 -969 0 -986 17 -17 202 -16 217 1 7 9 12
101 13 270 l3 257 165 -267 165 -268 109 -3 c71 -2 113 1 122 9 19 16 21 968
2 987 -17 17 -202 16 -217 -1 -7 -9 -12 -103 -13 -275 l-3 -262 -155 252 c-85
138 -163 262 -173 275 -17 21 -25 23 -121 23 -66 0 -106 -4 -114 -12z m380
-358 c103 -168 194 -309 202 -314 10 -7 20 -5 30 3 14 12 16 52 16 317 l0 304
60 0 60 0 0 -445 0 -445 -74 0 -73 0 -188 306 c-104 168 -194 308 -202 311 -7
3 -20 0 -28 -7 -13 -11 -15 -59 -15 -311 l0 -299 -60 0 -60 0 0 445 0 446 72
-3 72 -3 188 -305z"/>
<path d="M9312 5518 c-17 -17 -17 -969 0 -986 8 -8 48 -12 113 -12 65 0 105 4
113 12 17 17 17 969 0 986 -8 8 -48 12 -113 12 -65 0 -105 -4 -113 -12z m178
-493 l0 -445 -65 0 -65 0 0 445 0 445 65 0 65 0 0 -445z"/>
<path d="M11980 5515 c-9 -11 -11 -103 -8 -377 4 -305 7 -371 21 -415 24 -72
92 -144 175 -185 66 -33 69 -33 207 -33 162 0 216 14 293 74 61 48 99 119 112
207 15 103 13 717 -2 732 -17 17 -212 16 -226 -1 -7 -8 -12 -135 -14 -364 -3
-339 -4 -353 -24 -380 -28 -37 -85 -56 -152 -50 -60 6 -93 24 -119 64 -16 24
-18 62 -21 372 -2 227 -7 350 -14 358 -16 19 -211 18 -228 -2z m180 -362 c0
-177 4 -334 10 -353 12 -45 85 -117 130 -130 44 -13 125 -13 170 0 48 13 109
78 121 126 4 22 9 182 9 357 l0 317 65 0 65 0 0 -297 c0 -394 -12 -468 -87
-538 -55 -51 -125 -69 -263 -70 -122 0 -127 1 -193 33 -39 19 -78 47 -93 67
-53 70 -57 102 -62 468 l-4 337 66 0 66 0 0 -317z"/>
<path d="M13192 5517 c-6 -7 -90 -226 -187 -487 -127 -341 -174 -479 -167
-490 14 -23 218 -27 243 -4 10 9 32 59 49 110 l32 94 153 0 153 0 31 -86 c17
-47 31 -89 31 -93 0 -4 8 -15 18 -24 26 -24 223 -25 242 -1 11 13 -14 91 -160
492 -95 262 -178 483 -183 490 -13 17 -240 17 -255 -1z m369 -486 c88 -239
159 -438 159 -443 0 -4 -29 -8 -64 -8 l-63 0 -33 93 c-18 50 -40 100 -48 110
-13 15 -36 17 -197 17 -156 0 -185 -2 -196 -16 -8 -9 -28 -58 -45 -108 l-31
-91 -67 -3 c-55 -2 -67 0 -64 11 2 8 75 209 163 446 l160 431 84 -2 84 -3 158
-434z"/>
<path d="M13293 5288 c-12 -16 -123 -331 -123 -350 0 -32 24 -38 145 -38 123
0 145 6 145 39 0 20 -110 332 -123 349 -5 6 -15 12 -22 12 -7 0 -17 -6 -22
-12z m56 -209 c16 -46 32 -92 36 -101 6 -16 0 -18 -68 -18 l-76 0 36 106 c19
58 37 103 39 101 2 -2 17 -42 33 -88z"/>
<path d="M13863 5519 c-18 -18 -19 -969 -1 -987 8 -8 48 -12 113 -12 65 0 105
4 113 12 8 8 12 67 12 200 l0 188 35 0 c85 0 131 -42 252 -235 115 -183 78
-165 336 -165 189 0 223 2 238 16 10 9 32 59 49 110 l32 94 153 0 153 0 31
-86 c17 -47 31 -89 31 -93 0 -4 8 -15 18 -24 26 -24 223 -25 242 -1 11 13 -14
91 -160 492 -95 262 -178 483 -183 490 -14 17 -240 17 -255 -1 -6 -7 -83 -208
-172 -447 -89 -239 -165 -439 -169 -443 -4 -4 -43 50 -86 120 -43 70 -96 147
-118 170 l-39 42 35 15 c45 18 107 80 132 131 15 31 20 61 20 130 0 82 -3 95
-31 145 -34 61 -94 113 -152 131 -55 18 -613 25 -629 8z m563 -60 c83 -15 127
-43 158 -99 51 -95 43 -204 -20 -279 -27 -31 -49 -45 -97 -60 -92 -28 -94 -40
-21 -109 41 -39 87 -99 142 -190 45 -73 82 -134 82 -137 0 -3 -33 -5 -72 -5
l-73 0 -67 109 c-99 159 -169 245 -221 270 -49 24 -165 29 -185 9 -8 -8 -12
-67 -12 -200 l0 -188 -65 0 -65 0 0 445 0 445 228 0 c126 0 255 -5 288 -11z
m1015 -428 c88 -239 159 -438 159 -443 0 -4 -29 -8 -64 -8 l-63 0 -33 93 c-18
50 -40 100 -48 110 -13 15 -36 17 -197 17 -156 0 -185 -2 -196 -16 -8 -9 -28
-58 -45 -108 l-31 -91 -67 -3 c-55 -2 -67 0 -64 11 2 8 75 209 163 446 l160
431 84 -2 84 -3 158 -434z"/>
<path d="M14052 5358 c-19 -19 -16 -252 3 -268 11 -9 59 -11 178 -9 180 4 199
10 238 72 15 24 19 44 16 85 -4 59 -30 95 -84 118 -43 18 -333 20 -351 2z
m332 -62 c25 -10 36 -22 41 -46 8 -36 -9 -85 -33 -96 -10 -4 -79 -9 -154 -12
l-138 -4 0 86 0 86 125 0 c85 0 136 -5 159 -14z"/>
<path d="M15173 5288 c-12 -16 -123 -331 -123 -350 0 -32 24 -38 145 -38 123
0 145 6 145 39 0 20 -110 332 -123 349 -5 6 -15 12 -22 12 -7 0 -17 -6 -22
-12z m56 -209 c16 -46 32 -92 36 -101 6 -16 0 -18 -68 -18 l-76 0 36 106 c19
58 37 103 39 101 2 -2 17 -42 33 -88z"/>
<path d="M15742 5518 c-17 -17 -17 -969 0 -986 17 -17 202 -16 217 1 7 9 12
101 13 270 l3 257 165 -267 165 -268 109 -3 c71 -2 113 1 122 9 19 16 21 968
2 987 -17 17 -202 16 -217 -1 -7 -9 -12 -103 -13 -275 l-3 -262 -155 252 c-85
138 -163 262 -173 275 -17 21 -25 23 -121 23 -66 0 -106 -4 -114 -12z m380
-358 c103 -168 194 -309 202 -314 10 -7 20 -5 30 3 14 12 16 52 16 317 l0 304
60 0 60 0 0 -445 0 -445 -74 0 -73 0 -188 306 c-104 168 -194 308 -202 311 -7
3 -20 0 -28 -7 -13 -11 -15 -59 -15 -311 l0 -299 -60 0 -60 0 0 445 0 446 72
-3 72 -3 188 -305z"/>
<path d="M16632 5518 c-16 -16 -16 -180 0 -196 8 -8 54 -12 140 -12 l128 0 0
-383 c0 -285 3 -386 12 -395 16 -16 210 -16 226 0 9 9 12 110 12 395 l0 383
128 0 c86 0 132 4 140 12 7 7 12 44 12 98 0 54 -5 91 -12 98 -9 9 -110 12
-393 12 -283 0 -384 -3 -393 -12z m738 -98 l0 -50 -128 0 c-86 0 -132 -4 -140
-12 -9 -9 -12 -110 -12 -395 l0 -383 -65 0 -65 0 0 383 c0 285 -3 386 -12 395
-8 8 -54 12 -140 12 l-128 0 0 50 0 50 345 0 345 0 0 -50z"/>
<path d="M17512 5518 c-17 -17 -17 -969 0 -986 17 -17 739 -17 756 0 16 16 16
180 0 196 -9 9 -82 12 -265 12 l-253 0 0 100 0 100 223 0 c160 0 226 3 235 12
16 16 16 180 0 196 -9 9 -75 12 -235 12 l-223 0 0 75 0 75 243 0 c176 0 246 3
255 12 7 7 12 44 12 98 0 54 -5 91 -12 98 -9 9 -104 12 -368 12 -264 0 -359
-3 -368 -12z m688 -98 l0 -50 -243 0 c-176 0 -246 -3 -255 -12 -17 -17 -17
-229 0 -246 9 -9 75 -12 235 -12 l223 0 0 -50 0 -50 -223 0 c-160 0 -226 -3
-235 -12 -8 -8 -12 -56 -12 -148 0 -92 4 -140 12 -148 9 -9 82 -12 265 -12
l253 0 0 -50 0 -50 -330 0 -330 0 0 445 0 445 320 0 320 0 0 -50z"/>
<path d="M18402 5518 c-17 -17 -17 -969 0 -986 17 -17 739 -17 756 0 16 16 16
180 0 196 -9 9 -82 12 -265 12 l-253 0 0 100 0 100 223 0 c160 0 226 3 235 12
16 16 16 180 0 196 -9 9 -75 12 -235 12 l-223 0 0 75 0 75 243 0 c176 0 246 3
255 12 7 7 12 44 12 98 0 54 -5 91 -12 98 -9 9 -104 12 -368 12 -264 0 -359
-3 -368 -12z m688 -98 l0 -50 -243 0 c-176 0 -246 -3 -255 -12 -17 -17 -17
-229 0 -246 9 -9 75 -12 235 -12 l223 0 0 -50 0 -50 -223 0 c-160 0 -226 -3
-235 -12 -8 -8 -12 -56 -12 -148 0 -92 4 -140 12 -148 9 -9 82 -12 265 -12
l253 0 0 -50 0 -50 -330 0 -330 0 0 445 0 445 320 0 320 0 0 -50z"/>
<path d="M19293 5519 c-10 -10 -13 -123 -13 -495 0 -408 2 -483 14 -494 11 -8
81 -11 268 -8 284 5 316 11 404 77 111 84 163 202 171 386 8 204 -31 329 -137
435 -97 97 -124 103 -435 108 -201 3 -263 1 -272 -9z m569 -78 c146 -57 227
-228 215 -456 -8 -155 -64 -284 -146 -338 -82 -54 -118 -61 -363 -65 l-228 -4
0 447 0 447 233 -4 c211 -4 237 -6 289 -27z"/>
<path d="M19482 5358 c-17 -17 -17 -649 0 -666 15 -15 247 -16 302 -1 56 16
121 80 143 142 14 41 18 83 18 197 0 126 -3 151 -21 191 -31 66 -84 115 -146
134 -64 19 -278 21 -296 3z m275 -63 c98 -29 128 -93 128 -270 0 -236 -43
-284 -252 -285 l-103 0 0 285 0 285 88 0 c50 0 111 -7 139 -15z"/>
<path d="M20552 5518 c-7 -7 -12 -44 -12 -98 0 -54 5 -91 12 -98 8 -8 54 -12
140 -12 l128 0 0 -383 c0 -285 3 -386 12 -395 16 -16 210 -16 226 0 9 9 12
110 12 395 l0 383 128 0 c86 0 132 4 140 12 7 7 12 44 12 98 0 54 -5 91 -12
98 -9 9 -110 12 -393 12 -283 0 -384 -3 -393 -12z m738 -98 l0 -50 -128 0
c-86 0 -132 -4 -140 -12 -9 -9 -12 -110 -12 -395 l0 -383 -65 0 -65 0 0 383
c0 285 -3 386 -12 395 -8 8 -54 12 -140 12 l-128 0 0 50 0 50 345 0 345 0 0
-50z"/>
<path d="M9533 3989 c-10 -10 -13 -123 -13 -495 0 -410 2 -483 15 -494 11 -9
90 -11 317 -8 343 4 356 6 437 87 58 58 83 113 89 196 6 90 -21 156 -84 215
l-45 41 34 39 c111 130 56 326 -112 404 -43 20 -66 21 -336 24 -224 3 -293 0
-302 -9z m630 -82 c44 -22 63 -39 85 -75 53 -91 29 -207 -54 -264 -54 -36 -50
-56 16 -93 45 -24 60 -40 83 -85 24 -46 28 -64 24 -111 -8 -94 -60 -169 -142
-206 -34 -15 -80 -18 -317 -21 l-278 -4 0 447 0 447 263 -4 262 -3 58 -28z"/>
<path d="M9723 3829 c-18 -18 -18 -240 -1 -257 15 -15 276 -17 329 -2 57 16
92 60 97 124 4 52 3 56 -36 98 l-41 43 -168 3 c-126 3 -171 0 -180 -9z m306
-55 c46 -9 67 -45 55 -92 -12 -50 -47 -61 -196 -61 l-118 -1 0 80 0 80 114 0
c62 0 128 -3 145 -6z"/>
<path d="M9723 3449 c-18 -18 -18 -270 -1 -287 18 -18 328 -16 371 2 18 7 47
30 65 50 59 68 37 170 -48 220 -31 19 -55 21 -205 24 -128 3 -173 0 -182 -9z
m358 -68 c43 -21 61 -79 38 -123 -20 -37 -69 -48 -214 -48 l-135 0 0 96 0 96
143 -4 c86 -3 152 -10 168 -17z"/>
<path d="M10492 3988 c-17 -17 -17 -969 0 -986 17 -17 739 -17 756 0 16 16 16
180 0 196 -9 9 -82 12 -265 12 l-253 0 0 100 0 100 223 0 c160 0 226 3 235 12
16 16 16 180 0 196 -9 9 -75 12 -235 12 l-223 0 0 75 0 75 243 0 c176 0 246 3
255 12 7 7 12 44 12 98 0 54 -5 91 -12 98 -17 17 -719 17 -736 0z m688 -98 l0
-50 -243 0 c-176 0 -246 -3 -255 -12 -17 -17 -17 -229 0 -246 9 -9 75 -12 235
-12 l223 0 0 -50 0 -50 -223 0 c-160 0 -226 -3 -235 -12 -8 -8 -12 -56 -12
-148 0 -92 4 -140 12 -148 9 -9 82 -12 265 -12 l253 0 0 -50 0 -50 -330 0
-330 0 0 445 0 445 320 0 320 0 0 -50z"/>
<path d="M11682 3988 c-16 -16 -16 -180 0 -196 8 -8 54 -12 140 -12 l128 0 0
-383 c0 -285 3 -386 12 -395 16 -16 210 -16 226 0 9 9 12 110 12 395 l0 383
128 0 c86 0 132 4 140 12 7 7 12 44 12 98 0 54 -5 91 -12 98 -17 17 -769 17
-786 0z m738 -98 l0 -50 -128 0 c-86 0 -132 -4 -140 -12 -9 -9 -12 -110 -12
-395 l0 -383 -65 0 -65 0 0 383 c0 285 -3 386 -12 395 -8 8 -54 12 -140 12
l-128 0 0 50 0 50 345 0 345 0 0 -50z"/>
<path d="M12563 3989 c-18 -18 -19 -969 -1 -987 8 -8 48 -12 113 -12 65 0 105
4 113 12 8 8 12 67 12 200 l0 188 35 0 c85 0 131 -42 252 -235 112 -178 95
-166 236 -163 95 2 122 6 130 18 7 12 -13 52 -84 169 -52 84 -113 175 -137
202 l-43 48 35 15 c44 18 106 80 131 131 15 31 20 61 20 130 0 82 -3 95 -31
145 -34 61 -94 113 -152 131 -55 18 -613 25 -629 8z m563 -60 c83 -15 127 -43
158 -99 51 -95 43 -204 -20 -279 -27 -31 -49 -45 -97 -60 -92 -28 -94 -40 -21
-109 41 -39 87 -99 142 -190 45 -73 82 -134 82 -137 0 -3 -33 -5 -72 -5 l-73
0 -67 109 c-99 159 -169 245 -221 270 -49 24 -165 29 -185 9 -8 -8 -12 -67
-12 -200 l0 -188 -65 0 -65 0 0 445 0 445 228 0 c126 0 255 -5 288 -11z"/>
<path d="M12752 3828 c-19 -19 -16 -252 3 -268 11 -9 59 -11 178 -9 180 4 199
10 238 72 15 24 19 44 16 85 -4 59 -30 95 -84 118 -43 18 -333 20 -351 2z
m332 -62 c25 -10 36 -22 41 -46 8 -36 -9 -85 -33 -96 -10 -4 -79 -9 -154 -12
l-138 -4 0 86 0 86 125 0 c85 0 136 -5 159 -14z"/>
<path d="M13520 3985 c-9 -11 -11 -103 -8 -377 4 -305 7 -371 21 -415 24 -72
92 -144 175 -185 66 -33 69 -33 207 -33 162 0 216 14 293 74 61 48 99 119 112
207 15 103 13 717 -2 732 -17 17 -212 16 -226 -1 -7 -8 -12 -135 -14 -364 -3
-339 -4 -353 -24 -380 -28 -37 -85 -56 -152 -50 -60 6 -93 24 -119 64 -16 24
-18 62 -21 372 -2 227 -7 350 -14 358 -16 19 -211 18 -228 -2z m180 -362 c0
-177 4 -334 10 -353 12 -45 85 -117 130 -130 44 -13 125 -13 170 0 48 13 109
78 121 126 4 22 9 182 9 357 l0 317 65 0 65 0 0 -297 c0 -394 -12 -468 -87
-538 -55 -51 -125 -69 -263 -70 -122 0 -127 1 -193 33 -39 19 -78 47 -93 67
-53 70 -57 102 -62 468 l-4 337 66 0 66 0 0 -317z"/>
<path d="M14482 3988 c-17 -17 -17 -969 0 -986 17 -17 739 -17 756 0 16 16 16
180 0 196 -9 9 -82 12 -265 12 l-253 0 0 100 0 100 223 0 c160 0 226 3 235 12
16 16 16 180 0 196 -9 9 -75 12 -235 12 l-223 0 0 75 0 75 243 0 c176 0 246 3
255 12 7 7 12 44 12 98 0 54 -5 91 -12 98 -17 17 -719 17 -736 0z m688 -98 l0
-50 -243 0 c-176 0 -246 -3 -255 -12 -17 -17 -17 -229 0 -246 9 -9 75 -12 235
-12 l223 0 0 -50 0 -50 -223 0 c-160 0 -226 -3 -235 -12 -8 -8 -12 -56 -12
-148 0 -92 4 -140 12 -148 9 -9 82 -12 265 -12 l253 0 0 -50 0 -50 -330 0
-330 0 0 445 0 445 320 0 320 0 0 -50z"/>
<path d="M15362 3218 c-16 -16 -16 -200 0 -216 16 -16 200 -16 216 0 8 8 12
47 12 108 0 61 -4 100 -12 108 -16 16 -200 16 -216 0z m168 -108 l0 -60 -60 0
-60 0 0 60 0 60 60 0 60 0 0 -60z"/>
<path d="M10737 2178 c-15 -8 -17 -53 -17 -497 0 -408 2 -490 14 -500 10 -9
87 -11 268 -10 363 2 413 12 492 100 59 64 81 121 81 209 0 58 -5 84 -22 116
-23 42 -95 114 -115 114 -7 0 4 17 24 38 48 49 68 98 68 169 0 72 -25 129 -79
181 -57 55 -97 72 -199 83 -109 12 -493 10 -515 -3z m615 -82 c137 -67 157
-242 39 -335 -56 -45 -52 -66 19 -106 73 -41 104 -94 104 -180 0 -105 -65
-196 -163 -226 -21 -7 -149 -13 -303 -16 l-268 -5 0 448 0 449 267 -5 c235 -4
273 -7 305 -24z"/>
<path d="M10922 2018 c-17 -17 -17 -239 0 -256 20 -20 301 -16 344 4 51 24 74
63 74 123 0 42 -5 56 -31 85 -17 20 -47 40 -67 46 -53 14 -305 13 -320 -2z
m296 -59 c44 -10 62 -32 62 -74 0 -59 -24 -70 -176 -73 l-134 -4 0 82 0 81
106 -2 c58 -1 122 -5 142 -10z"/>
<path d="M10923 1639 c-18 -18 -18 -280 -1 -297 15 -15 267 -16 337 -1 84 18
133 95 117 182 -6 34 -51 84 -96 108 -36 19 -340 26 -357 8z m346 -74 c42 -21
56 -58 41 -108 -15 -51 -38 -59 -202 -65 l-138 -5 0 103 0 103 134 -6 c95 -4
143 -10 165 -22z"/>
<path d="M12506 2171 c-14 -15 -16 -55 -16 -282 0 -346 11 -475 45 -544 30
-62 99 -129 159 -155 104 -47 317 -46 427 1 60 26 149 119 167 175 19 58 32
279 31 538 0 232 -6 270 -39 279 -39 10 -187 2 -203 -12 -15 -12 -17 -49 -17
-347 0 -375 -4 -400 -63 -426 -44 -18 -145 -16 -183 5 -60 31 -64 58 -64 426
0 286 -2 330 -16 342 -10 8 -51 13 -114 15 -83 2 -101 -1 -114 -15z m177 -50
c4 -1 7 -147 7 -326 0 -304 1 -328 20 -364 38 -76 104 -111 210 -111 60 0 124
24 153 58 42 47 46 82 47 420 l0 322 45 1 c25 1 53 2 63 3 16 1 17 -22 20
-323 3 -359 -4 -414 -56 -481 -61 -77 -192 -114 -354 -98 -152 14 -239 83
-268 210 -7 32 -14 179 -17 370 l-6 317 49 3 c27 2 56 2 64 1 8 -1 18 -2 23
-2z"/>
<path d="M13473 2175 c-18 -20 -19 -975 -1 -993 17 -17 739 -17 756 0 7 7 12
44 12 98 0 54 -5 91 -12 98 -9 9 -82 12 -265 12 l-253 0 0 100 0 100 228 0
c164 0 231 3 240 12 16 16 16 180 0 196 -9 9 -76 12 -240 12 l-228 0 0 75 c0
41 3 75 8 75 4 0 114 2 244 3 173 1 240 5 249 14 8 8 14 46 15 95 4 125 26
118 -396 117 -279 -1 -347 -3 -357 -14z m689 -100 l3 -45 -205 0 c-215 -1
-277 -5 -297 -22 -18 -14 -18 -229 -1 -246 9 -9 76 -12 240 -12 l228 0 0 -50
0 -50 -228 0 c-164 0 -231 -3 -240 -12 -8 -8 -12 -56 -12 -148 0 -92 4 -140
12 -148 9 -9 82 -12 265 -12 l253 0 0 -50 0 -50 -330 0 -330 0 0 445 0 445
319 0 319 0 4 -45z"/>
<path d="M11702 2168 c-17 -17 -17 -969 0 -986 17 -17 689 -17 706 0 16 16 16
180 0 196 -9 9 -76 12 -240 12 l-228 0 0 383 c0 285 -3 386 -12 395 -8 8 -48
12 -113 12 -65 0 -105 -4 -113 -12z m178 -431 c0 -285 3 -386 12 -395 9 -9 76
-12 240 -12 l228 0 0 -50 0 -50 -305 0 -305 0 0 445 0 445 65 0 65 0 0 -383z"/>
</g>
</svg>
