<?xml version="1.0" standalone="no"?>
<!DOCTYPE svg PUBLIC "-//W3C//DTD SVG 20010904//EN"
 "http://www.w3.org/TR/2001/REC-SVG-20010904/DTD/svg10.dtd">
<svg version="1.0" xmlns="http://www.w3.org/2000/svg"
 width="2550.000000pt" height="3300.000000pt" viewBox="0 0 2550.000000 3300.000000"
 preserveAspectRatio="xMidYMid meet">
<metadata>
Created by potrace 1.14, written by Peter Selinger 2001-2017
</metadata>
<g transform="translate(0.000000,3300.000000) scale(0.100000,-0.100000)"
fill="#000000" stroke="none">
<path d="M11757 30854 c-20 -11 -63 -15 -159 -16 -90 0 -139 -5 -157 -14 -15
-8 -57 -14 -103 -14 -42 0 -80 -4 -83 -10 -3 -5 -23 -10 -43 -10 -20 0 -50 -7
-66 -15 -18 -10 -56 -15 -105 -15 -52 0 -83 -5 -97 -15 -13 -10 -46 -14 -115
-15 -68 0 -101 -4 -115 -15 -10 -8 -41 -15 -69 -15 -27 0 -61 -7 -75 -15 -14
-8 -48 -14 -75 -15 -28 0 -56 -5 -62 -11 -6 -6 -40 -15 -75 -20 -102 -13 -171
-28 -182 -39 -5 -5 -26 -10 -46 -10 -19 0 -48 -7 -64 -15 -15 -8 -48 -15 -72
-15 -24 0 -58 -6 -76 -14 -63 -26 -103 -39 -138 -43 -19 -3 -49 -11 -67 -19
-17 -8 -40 -14 -51 -14 -12 0 -24 -4 -27 -10 -3 -5 -20 -10 -36 -10 -16 0 -46
-7 -66 -15 -19 -8 -50 -15 -67 -15 -18 0 -41 -7 -52 -15 -10 -8 -30 -15 -44
-15 -14 0 -34 -7 -44 -15 -11 -9 -42 -15 -70 -15 -28 -1 -62 -7 -76 -15 -14
-8 -34 -14 -44 -15 -11 0 -33 -11 -50 -24 -17 -12 -52 -26 -78 -30 -26 -4 -50
-11 -53 -17 -4 -5 -16 -9 -29 -9 -12 0 -62 -20 -110 -45 -49 -25 -103 -45
-120 -45 -17 -1 -42 -7 -56 -15 -14 -8 -40 -14 -58 -15 -37 0 -83 -21 -125
-56 -18 -15 -41 -24 -62 -24 -22 0 -73 -20 -138 -54 -58 -30 -119 -57 -137
-61 -19 -4 -53 -18 -78 -31 -25 -13 -51 -24 -58 -24 -20 0 -160 -69 -174 -85
-6 -7 -117 -66 -245 -130 -129 -64 -239 -123 -245 -130 -6 -7 -75 -45 -154
-84 -79 -39 -149 -77 -156 -86 -6 -8 -40 -28 -75 -44 -35 -17 -66 -35 -70 -41
-3 -6 -33 -24 -65 -40 -32 -16 -61 -34 -65 -40 -4 -6 -34 -24 -68 -42 -34 -17
-75 -41 -90 -54 -16 -13 -34 -24 -41 -24 -7 0 -21 -9 -31 -19 -9 -11 -54 -38
-100 -61 -46 -23 -91 -50 -100 -61 -10 -10 -24 -19 -32 -19 -8 0 -50 -34 -93
-75 -43 -41 -85 -75 -93 -75 -7 0 -24 -11 -37 -25 -13 -14 -30 -25 -37 -25 -8
0 -36 -20 -62 -45 -26 -25 -54 -45 -60 -45 -7 0 -38 -25 -70 -55 -32 -30 -62
-55 -67 -55 -5 -1 -25 -14 -44 -30 -19 -17 -38 -30 -43 -30 -5 0 -25 -13 -44
-30 -18 -16 -39 -30 -46 -30 -7 0 -55 -43 -107 -95 -52 -52 -101 -95 -109 -95
-8 0 -60 -45 -116 -100 -55 -55 -107 -100 -115 -100 -7 0 -111 -97 -230 -215
-119 -118 -222 -215 -230 -215 -19 0 -199 -179 -220 -220 -22 -42 -83 -102
-126 -123 -33 -17 -104 -90 -104 -108 0 -6 -13 -27 -30 -46 -16 -18 -30 -39
-30 -46 0 -7 -54 -66 -120 -132 -91 -90 -128 -135 -149 -180 -18 -37 -53 -83
-90 -120 -34 -33 -61 -65 -61 -71 0 -7 -20 -34 -45 -62 -25 -27 -45 -54 -45
-58 0 -5 -13 -16 -29 -26 -16 -9 -37 -29 -47 -45 -10 -15 -39 -51 -66 -79 -26
-29 -50 -65 -53 -80 -14 -59 -45 -111 -100 -164 -31 -30 -68 -77 -82 -105 -14
-27 -35 -63 -47 -80 -12 -16 -30 -48 -41 -70 -11 -22 -32 -55 -47 -73 -16 -18
-28 -39 -28 -46 0 -7 -11 -23 -25 -36 -14 -13 -25 -29 -25 -36 0 -7 -12 -26
-26 -43 -14 -17 -43 -66 -64 -109 -21 -44 -56 -94 -79 -117 -44 -41 -91 -123
-91 -155 0 -10 -11 -32 -25 -48 -14 -17 -25 -36 -25 -44 0 -19 -76 -174 -89
-182 -6 -4 -32 -49 -57 -100 -24 -52 -54 -102 -64 -111 -11 -10 -20 -28 -20
-39 0 -24 -151 -330 -178 -361 -29 -32 -82 -143 -82 -170 0 -13 -4 -26 -9 -30
-5 -3 -13 -20 -16 -38 -4 -17 -25 -67 -46 -109 -22 -43 -39 -91 -39 -108 0
-17 -24 -78 -54 -138 -29 -59 -57 -122 -61 -139 -3 -18 -11 -35 -16 -38 -5 -4
-9 -22 -9 -40 0 -19 -6 -49 -14 -67 -18 -45 -36 -97 -45 -133 -4 -16 -17 -48
-28 -70 -11 -22 -30 -74 -43 -115 -12 -41 -26 -79 -31 -84 -5 -6 -9 -22 -9
-36 0 -14 -7 -35 -15 -46 -8 -10 -15 -30 -15 -44 0 -15 -6 -32 -12 -38 -7 -7
-15 -41 -19 -75 -7 -65 -17 -99 -55 -182 -12 -27 -25 -65 -29 -82 -4 -18 -11
-35 -16 -38 -5 -4 -9 -36 -9 -73 -1 -39 -7 -77 -15 -92 -8 -14 -14 -40 -15
-58 0 -18 -13 -57 -30 -87 -16 -30 -30 -63 -30 -73 0 -11 -7 -33 -15 -48 -10
-20 -15 -59 -15 -121 0 -50 -4 -95 -10 -98 -5 -3 -10 -40 -10 -82 0 -44 -6
-88 -14 -106 -8 -18 -17 -54 -19 -82 -4 -48 -13 -80 -43 -153 -9 -20 -14 -72
-14 -135 -1 -69 -5 -110 -15 -127 -8 -14 -14 -39 -15 -56 0 -18 -7 -45 -15
-60 -11 -22 -15 -65 -15 -176 0 -87 -4 -149 -10 -153 -6 -4 -10 -63 -10 -143
-1 -100 -5 -144 -15 -162 -12 -20 -14 -85 -15 -331 0 -252 -3 -309 -15 -325
-21 -28 -21 -380 0 -408 12 -16 15 -72 15 -322 0 -245 3 -308 15 -337 11 -26
15 -73 15 -166 0 -76 4 -132 10 -136 6 -4 10 -63 10 -143 1 -100 5 -144 15
-162 8 -14 14 -41 15 -61 0 -19 7 -44 15 -55 10 -14 14 -48 15 -130 0 -81 4
-115 15 -130 8 -10 15 -30 15 -44 0 -14 7 -34 15 -44 9 -11 15 -41 15 -69 0
-26 5 -58 12 -70 11 -21 16 -61 36 -292 4 -49 13 -99 19 -110 18 -33 35 -88
43 -135 7 -43 21 -86 43 -140 6 -14 14 -56 17 -95 7 -73 17 -105 56 -193 13
-29 24 -67 24 -85 0 -18 7 -42 15 -53 8 -10 15 -33 15 -51 0 -18 6 -47 14 -65
17 -42 35 -94 46 -133 11 -40 31 -96 41 -117 5 -10 9 -26 9 -35 0 -10 7 -31
15 -47 8 -15 15 -35 15 -43 0 -8 14 -41 30 -75 17 -33 30 -73 30 -90 0 -16 5
-39 12 -51 6 -12 15 -35 19 -52 13 -51 30 -97 70 -180 22 -45 39 -90 39 -101
0 -11 7 -29 15 -40 8 -10 15 -28 15 -39 0 -11 14 -47 30 -80 16 -33 30 -66 30
-73 0 -7 11 -35 25 -62 14 -27 25 -58 25 -69 0 -11 10 -32 23 -48 28 -33 207
-387 207 -409 0 -17 86 -192 106 -215 20 -22 144 -266 144 -282 0 -33 81 -175
124 -217 25 -24 46 -50 46 -57 0 -7 12 -27 28 -45 15 -18 45 -67 65 -108 21
-41 49 -91 62 -110 49 -71 66 -96 90 -130 14 -19 31 -49 39 -65 8 -17 24 -39
35 -49 11 -10 24 -34 27 -53 4 -19 16 -47 28 -61 11 -15 26 -36 32 -47 6 -11
24 -29 40 -40 27 -18 90 -103 150 -202 12 -19 42 -56 68 -82 25 -26 46 -52 46
-59 0 -7 17 -31 39 -55 21 -23 45 -55 54 -72 8 -16 36 -50 61 -75 25 -24 46
-50 46 -57 0 -7 14 -28 30 -46 17 -19 30 -39 30 -44 0 -5 12 -20 26 -34 14
-13 35 -39 46 -59 31 -52 58 -79 108 -111 34 -21 55 -46 85 -101 32 -57 49
-77 78 -91 25 -11 43 -29 52 -50 8 -18 54 -72 104 -122 50 -49 91 -95 91 -102
0 -19 70 -93 88 -93 8 0 74 -58 147 -130 73 -71 138 -130 145 -130 7 0 91 -76
185 -170 94 -93 177 -170 183 -170 6 0 50 -37 98 -82 47 -46 91 -85 98 -87 6
-2 43 -35 82 -72 40 -38 78 -69 86 -69 8 0 32 -18 53 -40 21 -22 45 -40 52
-40 8 0 32 -17 56 -39 23 -21 56 -45 72 -54 17 -8 50 -36 75 -61 24 -25 50
-46 57 -46 7 0 28 -14 46 -30 19 -17 39 -30 44 -30 5 0 32 -19 61 -42 78 -65
124 -98 137 -98 6 0 27 -16 46 -36 18 -20 59 -47 89 -61 30 -14 65 -34 76 -45
12 -11 36 -27 53 -36 16 -9 61 -38 98 -63 37 -26 97 -61 133 -79 36 -17 88
-54 115 -80 31 -29 63 -51 84 -55 38 -8 95 -37 126 -65 11 -9 79 -45 150 -80
72 -35 139 -71 150 -81 24 -22 254 -139 273 -139 26 0 104 -42 140 -74 42 -38
140 -90 189 -101 18 -3 35 -11 38 -16 4 -5 17 -9 29 -9 13 0 71 -24 128 -54
58 -30 120 -57 138 -61 19 -4 67 -25 107 -46 41 -22 88 -39 104 -39 17 0 40
-5 52 -12 12 -6 35 -15 52 -19 36 -9 94 -29 116 -40 9 -4 32 -11 52 -14 19 -4
45 -18 58 -31 13 -14 34 -24 49 -24 14 0 35 -7 46 -15 10 -8 35 -15 54 -15 39
0 100 -28 135 -60 24 -22 85 -37 205 -49 52 -5 89 -16 122 -34 26 -15 56 -27
67 -27 10 0 32 -6 48 -14 54 -27 98 -39 153 -44 30 -2 60 -8 67 -13 10 -9 55
-19 163 -38 25 -4 55 -13 67 -19 12 -7 37 -12 55 -12 19 0 43 -7 54 -15 10 -8
37 -15 59 -15 22 0 49 -7 59 -15 11 -9 42 -15 70 -15 28 -1 62 -7 76 -15 14
-8 48 -14 76 -15 27 0 55 -5 60 -10 17 -17 108 -31 236 -39 72 -4 122 -11 130
-18 7 -8 39 -13 77 -13 38 -1 77 -7 91 -15 14 -8 53 -15 90 -15 41 0 72 -6 84
-15 11 -9 42 -15 70 -15 28 -1 62 -7 76 -15 19 -11 69 -14 213 -15 132 0 195
-4 210 -12 21 -13 68 -15 691 -34 118 -3 183 -1 190 6 6 6 155 10 440 10 363
0 436 2 460 15 21 11 63 15 160 15 95 1 138 5 156 15 18 10 64 14 170 15 106
1 152 5 170 15 14 8 53 15 90 15 41 0 72 6 84 15 13 10 44 15 85 15 38 1 77 7
91 15 14 8 48 14 77 15 28 0 55 5 58 10 3 6 26 10 51 10 25 0 61 7 81 15 19 8
54 15 77 15 22 0 54 7 70 15 15 8 49 15 75 15 25 1 57 7 71 15 14 8 53 15 90
15 41 0 72 6 84 15 11 8 36 15 55 15 20 1 47 7 61 15 14 8 42 14 62 15 20 0
40 5 43 10 3 6 16 10 28 10 12 0 35 7 51 15 15 8 41 15 57 15 15 0 43 6 61 14
42 17 94 35 133 46 37 10 89 29 132 47 17 7 47 13 68 13 50 0 134 28 168 57
16 13 37 23 48 23 11 0 30 5 42 12 12 6 35 15 52 19 42 10 91 28 150 55 28 12
71 25 97 29 26 3 50 10 53 16 4 5 15 9 26 9 11 0 46 13 79 30 33 16 75 30 93
30 23 0 47 10 72 30 21 17 48 30 60 30 12 0 28 7 36 16 15 19 102 64 123 64 8
0 41 14 74 30 34 17 67 30 75 30 8 0 113 49 233 110 120 60 231 112 247 116
36 7 154 68 182 93 11 9 94 54 185 100 91 45 180 93 199 107 19 13 53 29 75
36 23 6 57 26 76 44 19 17 60 44 90 59 30 15 67 37 81 49 15 11 41 30 60 41
51 31 62 38 100 67 20 16 40 28 45 28 4 0 24 15 44 34 19 19 89 62 155 95 82
41 134 74 165 106 24 25 49 45 55 45 5 1 26 14 45 30 19 17 39 30 45 30 7 0
22 11 35 25 13 14 30 25 37 25 7 0 43 27 78 60 35 33 69 60 75 60 6 0 29 17
53 39 23 21 52 42 65 45 12 4 34 25 48 47 13 21 29 39 35 39 6 0 36 25 68 55
32 30 62 55 67 55 5 0 25 13 44 30 19 16 40 29 47 30 6 0 22 14 35 31 41 56
151 169 163 169 7 0 20 10 31 21 10 12 42 37 69 55 56 36 725 703 725 722 0 7
44 59 98 117 150 162 212 233 212 247 0 6 38 51 85 99 47 47 85 93 85 101 0 8
18 32 40 53 22 21 40 45 40 52 0 8 17 32 39 56 21 23 45 56 54 72 8 17 36 50
61 75 25 24 46 48 46 53 0 5 14 26 30 47 17 21 30 42 30 47 0 5 14 22 31 39
17 16 38 43 46 59 9 17 33 49 54 72 22 24 39 48 39 54 0 6 14 27 30 46 16 18
30 39 30 46 0 7 16 28 35 47 19 18 51 67 71 109 21 42 46 87 56 101 41 54 69
97 99 155 17 33 49 79 70 102 22 24 39 49 39 56 0 7 11 24 25 37 14 13 25 33
25 44 0 32 96 216 133 256 18 19 43 55 55 80 11 25 32 60 47 79 14 20 25 48
25 67 0 34 165 372 200 409 11 12 20 30 20 41 0 10 14 46 30 79 16 33 30 67
30 76 0 9 14 41 30 72 17 31 30 65 30 76 0 11 11 32 24 48 35 42 86 151 86
184 0 16 13 57 29 91 35 76 61 155 61 185 0 12 11 43 25 69 14 26 25 55 25 64
0 9 13 34 30 56 16 21 30 49 30 61 0 12 6 34 14 50 8 15 20 46 27 68 12 39 17
62 38 173 6 30 14 59 19 65 6 7 12 30 15 52 5 44 16 77 57 175 45 107 53 133
57 190 3 30 9 59 14 65 5 5 9 24 9 42 0 19 14 60 30 93 24 47 30 73 30 122 1
39 6 70 15 82 10 13 15 44 15 85 1 38 7 77 15 91 8 14 14 46 15 71 0 26 7 60
15 75 8 16 15 50 15 76 0 26 5 50 10 53 6 3 10 16 10 28 0 12 7 35 15 51 8 15
15 49 15 75 1 25 7 57 15 71 10 17 15 58 15 130 0 72 5 113 15 130 9 15 15 55
15 100 0 45 6 85 15 100 8 14 14 46 15 71 0 25 7 60 16 78 15 30 15 35 -1 71
-15 32 -15 41 -3 61 21 38 29 284 34 1088 3 495 1 748 -6 755 -14 14 -13 163
1 172 6 4 9 21 5 43 -3 20 -9 66 -14 102 -5 37 -12 71 -16 77 -4 7 -2 30 5 51
10 34 9 47 -5 84 -9 23 -16 56 -16 73 0 17 -7 39 -15 50 -10 13 -14 45 -15
100 0 55 -5 86 -15 100 -11 14 -15 50 -15 144 0 94 -4 130 -15 144 -9 11 -15
41 -15 68 0 32 -9 66 -25 98 -15 30 -25 66 -25 92 0 24 -7 56 -15 72 -8 15
-15 49 -15 75 -1 25 -7 57 -15 71 -10 17 -15 58 -15 130 0 72 -5 113 -15 130
-8 14 -15 41 -15 60 0 19 -7 44 -15 54 -8 11 -15 32 -15 46 0 14 -5 31 -10 36
-6 6 -15 34 -20 62 -6 29 -14 75 -20 104 -5 28 -14 56 -20 62 -5 5 -10 21 -10
34 0 12 -13 47 -30 77 -16 30 -30 64 -30 77 0 13 -7 32 -15 42 -8 11 -15 36
-15 55 -1 20 -7 47 -15 61 -8 14 -14 42 -15 62 0 20 -4 40 -10 43 -5 3 -10 16
-10 28 0 12 -7 35 -15 51 -8 15 -15 42 -15 60 -1 17 -7 42 -15 56 -8 14 -14
35 -15 47 0 12 -11 34 -24 50 -38 46 -86 164 -86 213 0 14 -14 52 -30 85 -16
33 -30 69 -30 81 0 11 -7 29 -15 40 -8 10 -15 34 -15 52 0 34 -57 160 -89 197
-26 30 -61 114 -80 190 -4 17 -13 40 -19 52 -7 12 -12 31 -12 42 0 11 -11 32
-24 48 -13 15 -110 201 -216 413 -106 212 -203 398 -216 413 -13 16 -24 40
-24 53 0 14 -16 42 -39 67 -21 23 -42 58 -46 77 -5 21 -28 56 -59 90 -29 31
-68 89 -89 131 -20 42 -43 82 -52 89 -8 7 -28 40 -45 74 -39 77 -65 117 -112
171 -21 23 -38 46 -38 51 -1 5 -14 25 -30 44 -17 19 -30 39 -30 44 0 5 -24 35
-52 66 -60 64 -82 97 -132 190 -19 36 -61 92 -95 125 -34 33 -61 65 -61 72 0
12 -19 36 -142 180 -32 37 -58 72 -58 77 0 5 -31 42 -70 82 -38 39 -70 78 -70
85 0 7 -45 59 -100 114 -55 56 -100 108 -100 115 0 7 -13 28 -30 47 -16 18
-30 40 -30 47 0 16 -65 76 -81 76 -17 0 -139 122 -139 138 0 20 -259 282 -278
282 -8 0 -81 65 -162 145 -81 80 -153 145 -160 145 -7 0 -63 49 -124 109 -61
60 -124 116 -141 124 -16 8 -50 36 -75 61 -24 25 -50 46 -57 46 -6 0 -39 25
-71 55 -33 30 -64 55 -69 55 -4 0 -42 34 -83 76 -41 41 -88 82 -105 91 -16 9
-49 33 -72 54 -24 22 -49 39 -56 39 -7 0 -24 11 -37 25 -13 14 -29 25 -36 25
-7 0 -29 14 -47 30 -19 17 -40 30 -47 30 -6 0 -37 24 -68 54 -31 29 -71 60
-88 69 -17 9 -36 23 -43 31 -8 9 -21 16 -31 16 -31 0 -104 38 -135 70 -16 17
-56 43 -90 59 -33 16 -71 41 -85 56 -14 15 -51 40 -82 56 -31 16 -59 33 -63
39 -4 6 -37 26 -73 44 -37 19 -78 46 -92 61 -24 26 -79 56 -130 71 -42 12
-268 125 -281 140 -13 16 -328 174 -347 174 -18 0 -131 58 -168 86 -17 13 -40
24 -50 24 -11 0 -67 25 -126 55 -58 30 -113 55 -122 55 -20 0 -112 46 -121 60
-10 17 -104 56 -215 91 -58 17 -109 36 -115 41 -5 4 -27 8 -50 8 -22 0 -49 7
-59 15 -11 8 -29 15 -40 15 -12 0 -48 13 -81 29 -33 16 -107 44 -165 62 -58
18 -118 43 -133 56 -22 17 -41 23 -80 23 -30 0 -60 7 -71 15 -11 8 -30 15 -42
15 -12 0 -35 6 -51 14 -51 25 -127 46 -170 46 -23 0 -45 5 -48 10 -3 6 -22 10
-41 10 -19 0 -62 13 -97 29 -68 31 -116 49 -162 60 -17 4 -40 13 -52 19 -12 7
-53 12 -91 12 -39 0 -85 7 -105 15 -20 8 -50 15 -66 15 -16 0 -33 5 -36 10 -3
6 -30 10 -58 10 -29 1 -63 7 -77 15 -14 8 -48 14 -76 15 -28 0 -59 6 -70 15
-11 8 -42 15 -74 15 -32 0 -63 7 -74 15 -11 9 -42 15 -70 15 -28 1 -62 7 -76
15 -14 8 -50 14 -81 15 -31 0 -73 7 -92 15 -22 9 -67 15 -111 15 -41 0 -78 5
-81 10 -4 6 -66 10 -153 10 -111 0 -154 4 -176 15 -18 9 -56 15 -103 15 -48 0
-85 6 -105 16 -21 11 -43 14 -72 9 -22 -3 -57 -5 -76 -4 -19 0 -404 3 -855 4
-709 3 -824 2 -848 -11z m1629 -119 c22 -11 67 -15 190 -15 112 0 164 -4 172
-12 8 -8 53 -14 115 -16 56 -2 106 -8 111 -13 6 -5 46 -9 91 -9 51 0 88 -5
100 -13 14 -9 59 -14 144 -15 92 -1 130 -6 147 -17 13 -8 45 -15 71 -15 26 -1
59 -7 73 -15 14 -8 48 -15 75 -15 28 0 59 -7 69 -15 11 -8 41 -15 67 -15 25 0
63 -7 82 -15 20 -8 56 -15 81 -15 25 0 48 -4 51 -10 3 -5 23 -10 43 -10 20 -1
48 -7 62 -15 14 -8 41 -15 60 -15 19 0 46 -7 60 -15 14 -8 41 -15 60 -15 19 0
44 -7 54 -15 11 -8 41 -15 67 -15 32 0 68 -10 111 -30 34 -16 77 -30 93 -30
17 0 35 -4 40 -9 6 -5 35 -11 65 -14 30 -2 71 -10 90 -17 19 -7 51 -18 70 -25
19 -7 51 -18 70 -24 19 -7 49 -16 65 -21 37 -10 89 -29 132 -47 17 -7 40 -13
51 -13 12 0 23 -4 26 -9 3 -5 18 -11 33 -14 35 -6 79 -22 163 -57 94 -40 131
-52 170 -57 19 -3 49 -11 67 -19 17 -8 38 -14 47 -14 9 0 24 -4 34 -9 23 -11
80 -31 117 -40 38 -10 112 -47 120 -61 8 -12 107 -60 125 -60 5 0 60 -25 120
-55 60 -30 118 -55 129 -55 11 0 32 -11 48 -24 33 -28 146 -86 167 -86 19 0
332 -156 341 -170 9 -15 253 -136 291 -144 17 -4 44 -20 60 -37 16 -16 69 -50
119 -75 49 -25 99 -53 110 -63 11 -9 38 -26 60 -36 22 -11 56 -34 75 -52 19
-17 62 -45 95 -62 33 -16 72 -42 85 -57 14 -14 52 -40 85 -56 33 -17 69 -38
80 -48 11 -9 33 -21 49 -24 17 -4 56 -32 88 -62 33 -30 64 -54 70 -54 7 0 22
-9 34 -21 12 -11 35 -28 51 -37 71 -40 99 -60 145 -99 27 -24 53 -43 57 -43 5
0 18 -16 29 -35 12 -19 36 -41 54 -48 18 -8 44 -27 58 -42 14 -15 41 -35 60
-45 19 -10 55 -39 80 -64 24 -25 49 -46 55 -46 6 0 31 -21 55 -46 25 -25 61
-54 80 -64 19 -10 78 -62 130 -115 52 -53 111 -105 130 -115 19 -10 93 -77
165 -149 71 -72 136 -131 144 -131 20 0 209 -188 231 -230 20 -37 157 -175
203 -204 15 -9 27 -22 27 -29 0 -8 11 -24 25 -37 14 -13 25 -30 25 -38 0 -8
45 -61 100 -117 55 -55 100 -106 100 -113 0 -6 33 -47 73 -91 131 -146 187
-213 187 -225 0 -7 14 -25 31 -42 17 -16 39 -45 49 -64 10 -19 44 -60 75 -90
33 -33 67 -79 84 -115 16 -33 38 -69 50 -79 11 -11 21 -25 21 -33 0 -8 25 -40
55 -72 30 -32 55 -62 55 -67 1 -5 14 -25 30 -44 17 -19 30 -38 30 -44 0 -5 17
-28 38 -51 46 -53 71 -91 116 -177 20 -36 40 -69 46 -73 6 -4 29 -43 52 -88
22 -45 51 -95 64 -110 13 -16 24 -33 24 -39 0 -6 14 -26 30 -45 17 -18 30 -39
30 -46 0 -7 18 -31 40 -52 25 -25 40 -48 40 -64 0 -13 12 -40 26 -59 15 -19
112 -206 217 -416 105 -209 201 -394 214 -409 12 -16 23 -39 23 -51 0 -12 7
-31 15 -42 8 -10 15 -31 15 -45 0 -14 7 -34 15 -45 8 -10 15 -28 15 -39 0 -24
32 -89 55 -115 27 -30 55 -93 55 -123 0 -15 14 -55 30 -89 17 -33 30 -66 30
-74 0 -8 14 -41 30 -74 17 -33 30 -72 30 -87 0 -54 54 -186 89 -217 12 -11 21
-31 21 -46 0 -14 7 -35 15 -46 8 -10 15 -37 15 -59 0 -23 4 -45 9 -50 12 -14
41 -110 41 -137 0 -13 7 -36 15 -52 8 -15 15 -42 15 -60 0 -17 7 -44 15 -60 8
-15 15 -35 15 -42 0 -8 13 -42 29 -77 38 -83 52 -123 61 -177 16 -83 30 -145
38 -165 27 -62 36 -98 41 -167 3 -42 12 -83 19 -90 7 -7 12 -42 12 -92 1 -51
6 -90 15 -106 8 -14 15 -47 15 -75 0 -27 7 -59 15 -69 9 -11 15 -41 15 -68 0
-32 9 -66 25 -98 21 -41 25 -64 25 -137 1 -57 6 -97 15 -113 9 -15 15 -55 15
-100 0 -45 6 -85 15 -100 9 -16 15 -55 15 -105 0 -54 5 -86 15 -99 11 -15 15
-48 15 -125 1 -73 5 -114 15 -131 11 -19 14 -67 15 -195 0 -122 4 -181 15
-210 22 -61 22 -1309 0 -1362 -11 -26 -15 -74 -15 -177 0 -105 -4 -148 -15
-170 -11 -20 -15 -61 -15 -145 -1 -82 -5 -123 -15 -141 -9 -16 -15 -55 -15
-105 0 -54 -5 -86 -15 -99 -10 -13 -15 -44 -15 -85 -1 -38 -7 -77 -15 -91 -8
-14 -14 -44 -15 -68 0 -24 -5 -52 -11 -64 -6 -11 -13 -53 -16 -94 -3 -41 -10
-77 -14 -80 -5 -3 -9 -29 -9 -57 -1 -29 -7 -63 -15 -77 -8 -14 -14 -48 -15
-76 0 -28 -6 -59 -15 -70 -9 -12 -15 -43 -15 -84 0 -37 -7 -76 -15 -90 -8 -14
-14 -41 -15 -60 0 -20 -5 -41 -10 -46 -6 -6 -15 -33 -20 -60 -5 -27 -14 -69
-20 -94 -7 -25 -16 -63 -22 -85 -5 -22 -16 -53 -24 -68 -8 -16 -14 -49 -14
-73 0 -28 -11 -68 -29 -107 -40 -88 -53 -126 -58 -172 -3 -22 -9 -45 -14 -51
-6 -7 -12 -35 -16 -63 -3 -28 -10 -54 -14 -57 -5 -3 -9 -22 -9 -42 -1 -20 -7
-48 -15 -62 -8 -14 -14 -35 -15 -47 0 -12 -12 -35 -26 -52 -14 -18 -30 -46
-34 -64 -13 -51 -30 -98 -56 -152 -13 -28 -24 -64 -24 -80 0 -17 -7 -43 -15
-59 -8 -15 -15 -35 -15 -43 0 -8 -13 -41 -30 -75 -16 -33 -30 -73 -30 -89 0
-33 -50 -139 -86 -182 -13 -16 -24 -37 -24 -48 0 -11 -13 -46 -30 -79 -16 -33
-30 -66 -30 -75 0 -9 -14 -42 -30 -75 -17 -33 -30 -67 -30 -77 0 -9 -9 -26
-20 -38 -36 -38 -200 -380 -200 -417 0 -22 -10 -45 -28 -68 -16 -19 -38 -56
-50 -81 -12 -25 -34 -57 -48 -70 -29 -27 -134 -229 -134 -258 0 -10 -7 -24
-16 -32 -8 -7 -24 -29 -34 -48 -10 -20 -30 -47 -45 -61 -15 -14 -39 -50 -53
-80 -14 -30 -39 -70 -54 -88 -15 -18 -28 -39 -28 -46 0 -7 -9 -21 -19 -30 -10
-9 -36 -52 -57 -94 -21 -42 -51 -91 -68 -109 -27 -30 -42 -51 -91 -133 -11
-18 -39 -55 -62 -82 -24 -27 -43 -54 -43 -61 0 -7 -18 -31 -40 -52 -22 -21
-40 -44 -40 -50 0 -15 -42 -71 -112 -152 -32 -36 -58 -70 -58 -77 0 -7 -18
-30 -40 -51 -22 -21 -40 -45 -40 -52 0 -8 -17 -32 -39 -56 -21 -23 -45 -55
-54 -72 -9 -16 -50 -64 -91 -105 -42 -41 -76 -81 -76 -88 0 -7 -25 -39 -55
-71 -30 -32 -55 -63 -55 -70 0 -7 -45 -59 -100 -115 -55 -57 -100 -107 -100
-112 0 -13 -643 -654 -656 -654 -5 0 -23 -14 -40 -31 -16 -17 -42 -38 -59 -46
-16 -8 -87 -71 -156 -139 -69 -68 -132 -124 -140 -124 -8 0 -35 -21 -59 -46
-25 -25 -61 -54 -80 -64 -19 -10 -66 -50 -105 -89 -44 -45 -92 -82 -131 -102
-44 -21 -66 -39 -74 -59 -6 -15 -25 -34 -40 -40 -16 -7 -36 -20 -46 -31 -9
-10 -22 -19 -28 -19 -6 -1 -27 -14 -46 -30 -19 -17 -39 -30 -45 -30 -6 0 -31
-21 -55 -46 -32 -32 -83 -65 -170 -109 -69 -35 -138 -77 -154 -94 -17 -17 -35
-31 -40 -31 -6 -1 -27 -14 -46 -30 -19 -17 -39 -30 -45 -30 -7 0 -22 -11 -35
-25 -13 -14 -29 -25 -36 -25 -7 0 -28 -12 -46 -28 -18 -15 -55 -38 -83 -51
-27 -13 -66 -38 -85 -57 -19 -18 -53 -37 -76 -43 -23 -6 -56 -22 -75 -36 -19
-13 -114 -65 -211 -114 -97 -50 -179 -95 -183 -101 -7 -12 -166 -90 -184 -90
-6 0 -110 -50 -231 -110 -121 -61 -227 -110 -235 -110 -8 0 -43 -13 -77 -29
-35 -17 -75 -32 -89 -35 -15 -3 -48 -21 -75 -39 -27 -19 -62 -37 -78 -41 -16
-4 -43 -18 -59 -32 -18 -15 -41 -24 -62 -24 -18 0 -60 -13 -93 -30 -34 -16
-67 -30 -75 -30 -8 0 -28 -7 -43 -15 -16 -8 -42 -15 -57 -15 -15 0 -47 -10
-70 -22 -23 -11 -55 -25 -72 -29 -36 -9 -88 -27 -133 -45 -18 -8 -40 -14 -50
-14 -9 0 -35 -14 -56 -30 -22 -17 -50 -30 -62 -30 -13 0 -26 -4 -29 -10 -3 -5
-25 -10 -48 -10 -38 0 -77 -10 -177 -45 -19 -7 -51 -18 -70 -24 -19 -7 -49
-16 -65 -20 -17 -4 -40 -13 -52 -19 -12 -7 -37 -12 -55 -12 -19 0 -39 -5 -45
-11 -6 -6 -40 -15 -75 -20 -90 -11 -171 -29 -182 -40 -6 -5 -26 -9 -45 -9 -20
-1 -47 -7 -61 -15 -14 -8 -41 -15 -60 -15 -19 0 -46 -7 -60 -15 -14 -8 -47
-15 -75 -15 -27 0 -59 -7 -69 -15 -11 -9 -42 -15 -70 -15 -28 -1 -62 -7 -76
-15 -14 -8 -48 -14 -77 -15 -28 0 -55 -4 -58 -10 -3 -5 -26 -10 -51 -10 -25 0
-61 -7 -81 -15 -23 -10 -69 -15 -137 -15 -74 0 -107 -4 -122 -15 -10 -8 -29
-15 -42 -15 -13 0 -31 -4 -41 -10 -12 -6 -29 -5 -49 2 -26 10 -37 9 -67 -5
-25 -12 -62 -17 -123 -17 -56 -1 -96 -6 -112 -15 -18 -10 -61 -14 -156 -15
-97 0 -139 -4 -160 -15 -24 -13 -97 -15 -460 -15 -290 0 -433 -3 -441 -11 -7
-7 -53 -8 -134 -5 -68 4 -235 10 -371 14 -176 5 -251 11 -260 20 -8 8 -53 12
-147 12 -99 1 -143 5 -161 15 -17 10 -58 15 -130 15 -72 0 -113 5 -130 15 -14
8 -52 15 -85 15 -33 0 -71 7 -85 15 -14 8 -53 14 -91 15 -38 0 -70 5 -77 12
-8 8 -54 14 -130 16 -64 2 -121 8 -126 13 -6 5 -26 9 -45 9 -20 1 -47 7 -61
15 -14 8 -48 14 -76 15 -28 0 -59 6 -70 15 -10 8 -41 15 -69 15 -27 0 -61 7
-75 15 -14 8 -41 15 -60 15 -19 0 -46 7 -60 15 -14 8 -41 14 -61 15 -19 0 -40
5 -45 10 -6 6 -35 15 -65 21 -30 5 -76 14 -103 19 -27 5 -54 14 -60 20 -5 5
-32 10 -59 10 -26 0 -58 5 -70 12 -12 6 -35 15 -52 19 -43 11 -91 28 -166 60
-36 16 -79 29 -95 29 -17 0 -34 4 -40 9 -5 5 -41 11 -81 13 -56 3 -77 8 -95
25 -35 32 -103 63 -140 63 -18 1 -44 7 -58 15 -14 8 -34 14 -46 15 -11 0 -31
11 -44 25 -13 14 -32 25 -43 25 -10 0 -33 6 -50 13 -46 20 -98 38 -132 46 -17
4 -40 13 -52 19 -12 7 -36 12 -53 12 -17 0 -66 18 -110 40 -44 22 -85 40 -92
40 -6 0 -67 27 -135 60 -67 33 -129 60 -137 60 -7 0 -27 7 -42 15 -16 8 -37
15 -46 15 -26 0 -150 68 -188 103 -35 33 -99 67 -124 67 -18 0 -236 109 -261
131 -11 9 -85 51 -165 91 -80 41 -162 86 -184 101 -21 15 -57 32 -80 38 -26 7
-59 28 -91 58 -28 27 -88 67 -135 91 -47 23 -94 51 -106 61 -11 11 -24 19 -30
19 -5 1 -25 14 -44 30 -19 17 -39 30 -46 30 -6 0 -19 9 -29 20 -10 11 -43 32
-74 46 -31 15 -74 43 -97 63 -22 20 -55 45 -74 56 -79 47 -102 63 -130 90 -16
15 -37 33 -47 39 -11 6 -34 20 -53 31 -18 11 -62 46 -97 78 -34 31 -68 57 -76
57 -7 0 -31 18 -52 40 -21 22 -45 40 -52 40 -8 0 -32 17 -56 39 -23 21 -55 45
-72 54 -16 8 -57 43 -90 76 -33 34 -65 61 -73 61 -7 0 -52 38 -101 85 -48 47
-92 85 -96 85 -5 0 -86 77 -181 170 -94 94 -177 170 -184 170 -10 0 -191 166
-302 278 -82 82 -208 222 -218 242 -17 34 -218 253 -290 317 -5 4 -29 31 -52
59 -41 48 -61 78 -100 147 -10 17 -40 54 -68 82 -27 28 -50 56 -50 63 0 7 -17
31 -39 55 -21 23 -45 56 -54 72 -8 17 -36 50 -61 75 -25 24 -46 49 -47 55 0 5
-20 37 -44 70 -25 33 -53 76 -64 95 -11 19 -47 62 -80 95 -47 45 -63 69 -67
97 -4 20 -17 47 -30 59 -13 12 -24 28 -24 35 0 7 -13 28 -28 46 -15 18 -33 44
-40 58 -7 14 -28 45 -47 70 -19 25 -57 88 -85 140 -46 87 -64 115 -117 190
-10 14 -27 43 -37 65 -11 22 -37 59 -57 82 -21 23 -41 54 -44 70 -8 37 -113
252 -136 278 -24 28 -119 215 -119 235 0 21 -179 378 -207 414 -13 16 -23 37
-23 46 0 10 -7 31 -15 46 -8 16 -15 45 -15 65 0 23 -7 42 -20 54 -26 23 -69
120 -89 200 -5 17 -22 58 -39 92 -18 34 -41 93 -53 130 -11 37 -27 81 -35 96
-8 16 -14 43 -14 61 0 18 -13 58 -30 89 -17 31 -30 67 -30 80 0 13 -4 27 -8
32 -5 6 -23 57 -41 115 -18 58 -39 118 -47 133 -8 16 -14 39 -14 51 0 12 -7
31 -15 42 -8 10 -15 37 -15 59 0 22 -7 49 -15 59 -8 11 -15 36 -15 55 -1 20
-7 47 -15 61 -8 14 -14 41 -15 61 0 25 -8 43 -25 59 -22 20 -25 32 -25 86 0
35 -6 78 -14 96 -27 64 -38 104 -45 151 -4 26 -13 53 -19 59 -7 7 -12 35 -12
63 -1 27 -7 61 -15 75 -8 14 -14 48 -15 77 0 28 -4 55 -10 58 -5 3 -10 39 -10
78 -1 40 -7 90 -15 112 -8 22 -15 58 -15 80 0 22 -7 51 -15 65 -8 14 -14 53
-15 91 0 41 -5 72 -15 85 -9 12 -15 43 -15 84 0 37 -7 76 -15 90 -9 16 -15 55
-15 105 0 54 -5 86 -15 99 -11 14 -15 46 -15 105 0 50 -7 104 -15 128 -10 30
-14 77 -12 162 1 85 -2 124 -11 132 -9 10 -12 88 -12 319 -1 246 -3 310 -15
330 -19 33 -21 270 -2 288 9 10 14 97 19 330 7 346 23 607 38 634 6 10 10 84
10 166 0 115 3 153 15 168 8 10 15 37 15 60 0 22 7 49 15 60 10 14 15 49 15
129 0 80 5 115 15 129 8 11 15 31 15 45 0 14 7 35 15 45 9 12 15 41 15 71 0
28 5 56 11 62 7 7 15 54 20 105 13 147 26 229 38 241 6 6 11 27 11 47 1 19 7
46 15 60 8 14 15 41 15 60 0 19 7 46 15 60 8 14 14 39 15 56 0 18 7 45 15 60
8 17 15 56 15 91 0 34 4 64 9 67 5 3 12 22 15 41 4 20 18 57 32 82 13 25 24
55 24 67 0 12 7 30 15 40 9 11 15 41 15 69 0 26 5 58 12 70 6 12 15 35 19 52
9 36 29 94 40 116 4 9 11 33 14 53 4 20 11 39 16 42 5 3 9 14 9 25 0 11 13 47
29 82 31 68 49 116 60 162 4 17 13 40 19 52 7 12 12 35 12 51 0 16 7 43 15 58
8 16 15 36 15 46 0 9 25 64 55 123 31 59 55 119 55 136 0 16 16 62 37 102 20
39 39 86 44 102 19 78 77 209 115 260 33 46 174 332 174 354 0 10 7 24 16 32
9 7 38 57 65 110 26 54 53 100 59 104 14 9 75 132 84 169 4 16 18 43 32 59 13
16 24 39 24 52 0 14 18 45 42 73 47 54 63 78 124 194 23 42 53 91 68 108 14
18 26 37 26 44 0 7 11 23 25 36 14 13 25 29 25 36 0 7 11 25 24 41 13 15 37
56 54 90 18 34 36 64 42 68 6 4 23 32 39 63 16 31 55 82 86 112 31 31 69 82
86 115 43 87 66 120 139 199 36 39 71 82 79 96 17 31 57 80 142 173 36 40 76
94 90 121 14 29 37 57 56 68 18 11 35 29 39 41 4 12 43 60 88 107 45 47 90
101 101 120 52 88 66 105 97 121 40 21 178 161 178 181 0 18 143 158 161 158
7 0 110 97 229 215 119 118 223 215 231 215 8 0 55 41 104 91 50 50 104 97
120 106 17 8 73 56 125 107 52 50 111 100 130 111 49 29 61 37 101 68 20 15
40 27 45 27 6 0 30 21 54 46 25 25 59 53 75 61 17 9 49 33 72 54 24 22 49 39
56 39 7 0 24 11 37 25 13 14 30 25 37 25 8 0 35 20 61 43 26 24 55 47 66 50
19 8 49 29 121 89 24 20 66 47 92 59 26 13 63 36 81 51 18 16 39 28 46 28 7 0
21 9 31 20 10 11 46 33 81 50 34 16 65 34 69 40 3 6 33 24 65 40 32 16 61 34
65 40 4 6 37 26 75 45 38 19 71 39 75 45 4 6 73 44 155 85 82 41 151 79 155
84 3 6 110 62 237 125 127 64 238 122 247 130 25 23 150 86 169 86 9 0 44 14
77 30 33 16 66 30 73 30 7 0 62 25 122 55 69 35 122 55 144 55 22 0 45 9 63
24 41 34 88 56 120 56 15 0 41 7 57 15 15 8 42 15 58 15 16 0 71 20 121 44
104 49 181 76 216 76 13 0 36 11 53 25 16 14 40 25 52 25 12 0 31 7 42 15 11
8 41 15 71 15 28 0 64 6 80 14 45 22 95 38 143 45 25 4 55 13 67 19 12 7 37
12 57 12 19 0 37 4 40 9 3 5 23 12 43 16 21 4 43 10 48 15 6 4 28 10 50 13 39
4 77 16 143 43 18 8 54 14 80 14 26 0 56 7 66 15 11 8 36 15 55 15 20 1 47 7
61 15 14 8 42 14 62 15 20 0 40 5 43 10 3 6 26 10 51 10 25 0 61 7 81 15 19 8
57 15 82 15 26 0 56 7 67 15 10 8 42 15 69 15 28 0 61 7 75 15 17 9 57 15 120
15 67 0 101 5 114 15 14 10 45 15 97 15 49 0 87 5 105 15 18 9 57 15 105 15
41 0 79 4 85 9 5 5 62 11 126 13 76 2 122 8 130 16 8 8 53 12 148 12 98 1 142
5 160 15 38 22 1384 22 1426 0z"/>
<path d="M6251 25144 l-21 -27 0 -1979 0 -1979 25 -24 24 -25 6406 0 6406 0
24 25 25 24 0 1979 0 1979 -21 27 -20 26 -6414 0 -6414 0 -20 -26z m12767
-1993 c1 -1392 -1 -1897 -9 -1907 -16 -19 -12628 -21 -12647 -2 -9 9 -12 444
-12 1894 0 1035 3 1889 6 1898 6 15 570 16 6333 14 l6326 -3 3 -1894z"/>
<path d="M6251 17884 l-21 -27 0 -1974 0 -1975 29 -29 30 -29 6406 2 6407 3
19 24 c19 23 19 69 19 2005 l0 1983 -23 21 -23 22 -6411 0 -6412 0 -20 -26z
m12767 -1993 c1 -1392 -1 -1897 -9 -1907 -16 -19 -12628 -21 -12647 -2 -9 9
-12 444 -12 1894 0 1035 3 1889 6 1898 6 15 570 16 6333 14 l6326 -3 3 -1894z"/>
<path d="M6248 6130 c-281 -30 -564 -128 -741 -258 -247 -181 -467 -468 -571
-746 -48 -127 -91 -311 -107 -461 -18 -154 -18 -561 -1 -680 61 -425 193 -712
449 -976 285 -294 613 -438 1065 -468 165 -11 409 0 556 25 324 55 595 195
827 428 245 247 377 508 447 889 21 111 23 152 23 452 0 302 -2 340 -23 447
-78 403 -202 650 -452 898 -242 242 -493 370 -840 431 -133 23 -488 34 -632
19z m537 -136 c252 -39 450 -112 638 -238 412 -274 636 -736 654 -1351 12
-396 -59 -729 -215 -1011 -210 -381 -557 -621 -1021 -706 -172 -32 -497 -32
-666 0 -703 133 -1130 608 -1226 1367 -16 127 -13 416 5 570 30 246 86 432
193 632 111 208 282 401 458 518 298 199 755 283 1180 219z"/>
<path d="M6350 5549 c-183 -21 -356 -102 -498 -235 -153 -143 -238 -298 -295
-539 -31 -129 -31 -131 -31 -425 -1 -273 1 -303 22 -405 32 -149 92 -299 162
-404 73 -108 212 -244 310 -301 274 -160 691 -164 967 -9 102 57 247 197 322
309 70 105 121 235 157 405 26 124 28 143 28 400 0 257 -1 276 -28 404 -55
266 -147 437 -314 584 -204 181 -473 253 -802 216z m435 -161 c187 -63 309
-153 405 -298 137 -210 205 -540 180 -874 -38 -499 -233 -806 -590 -927 -219
-75 -458 -55 -670 56 -215 114 -369 340 -436 645 -25 116 -27 141 -27 350 0
208 2 234 27 350 72 327 204 522 433 642 154 80 238 98 438 93 127 -3 149 -6
240 -37z"/>
<path d="M16155 6130 c-376 -39 -654 -175 -845 -415 -131 -165 -190 -337 -190
-560 0 -150 10 -221 46 -331 53 -163 199 -357 352 -466 187 -134 362 -200 947
-353 395 -103 497 -151 552 -258 54 -106 28 -237 -67 -341 -85 -92 -208 -145
-383 -166 -170 -20 -337 7 -470 77 -138 72 -211 172 -283 388 -27 84 -50 136
-64 147 -26 21 -92 23 -215 8 -44 -5 -156 -16 -250 -25 -210 -19 -218 -21
-255 -52 -38 -32 -39 -68 -6 -230 32 -156 93 -314 171 -443 77 -128 224 -278
356 -364 244 -158 610 -230 1059 -206 446 24 737 133 948 354 231 243 321 509
293 867 -16 204 -67 355 -165 493 -53 75 -192 208 -266 257 -164 108 -407 198
-810 299 -492 124 -643 190 -696 303 -27 59 -28 67 -13 120 55 198 533 288
817 155 34 -16 78 -45 97 -64 41 -41 95 -145 119 -228 35 -120 56 -132 229
-122 67 3 216 11 332 17 192 9 212 12 232 31 32 30 36 68 19 193 -29 215 -116
397 -265 556 -162 173 -353 273 -629 329 -131 26 -173 30 -377 34 -127 3 -270
1 -320 -4z m385 -120 c461 -28 785 -191 957 -480 63 -106 116 -262 117 -345
l1 -60 -75 -7 c-41 -4 -163 -8 -270 -10 l-194 -3 -32 87 c-38 106 -78 170
-148 236 -64 60 -132 96 -234 124 -114 30 -422 29 -537 -1 -161 -43 -286 -128
-331 -226 -20 -41 -24 -66 -24 -140 0 -112 18 -156 95 -231 100 -97 254 -158
670 -262 375 -95 519 -142 690 -227 229 -113 381 -276 450 -484 117 -351 44
-717 -194 -973 -228 -246 -604 -362 -1111 -344 -323 11 -571 80 -775 217 -183
122 -296 273 -389 520 -44 115 -75 264 -59 280 11 11 102 23 371 49 104 10
126 10 137 -1 7 -8 27 -57 45 -109 45 -139 100 -228 196 -320 100 -95 191
-143 332 -172 82 -17 123 -19 267 -15 196 6 273 20 382 73 97 46 216 161 259
249 28 57 29 66 29 195 0 129 -1 137 -27 182 -89 150 -196 206 -588 308 -482
126 -653 181 -811 261 -285 143 -455 382 -491 691 -14 117 -4 195 42 327 135
385 497 593 1080 619 14 1 90 -3 170 -8z"/>
<path d="M1579 6051 l-29 -29 0 -1682 c0 -1134 3 -1688 10 -1701 25 -46 48
-49 394 -49 l326 0 32 29 33 29 5 704 c3 387 6 704 8 706 1 1 271 1 600 0
l597 -3 5 -702 5 -703 28 -27 27 -28 340 -3 339 -3 33 30 33 29 3 1639 c2 901
0 1661 -3 1690 -4 34 -14 60 -30 77 l-24 26 -344 0 -343 0 -30 -31 -29 -30 -5
-627 -5 -627 -580 -3 c-319 -1 -590 0 -602 3 l-23 5 0 616 c0 433 -3 622 -11
637 -29 57 -25 57 -392 57 l-339 0 -29 -29z m625 -97 c14 -6 16 -68 16 -608 0
-383 4 -615 10 -638 20 -72 -21 -68 727 -68 l672 0 28 24 28 24 3 623 c2 432
6 627 14 636 15 18 508 19 526 1 9 -9 12 -382 12 -1615 l0 -1603 -26 -10 c-14
-6 -126 -10 -249 -10 -123 0 -235 4 -249 10 l-26 10 -1 677 c0 498 -3 687 -12
713 -8 24 -23 41 -47 52 -32 17 -85 18 -665 18 -407 0 -643 -4 -668 -11 -76
-21 -72 21 -75 -756 l-3 -694 -27 -10 c-16 -6 -118 -9 -265 -7 -198 2 -239 6
-247 18 -15 24 -13 3203 2 3218 9 9 80 12 259 12 136 0 254 -3 263 -6z"/>
<path d="M8657 6056 c-14 -13 -28 -39 -32 -57 -3 -19 -4 -780 -3 -1692 l3
-1659 33 -29 32 -29 310 0 310 0 32 29 33 29 3 962 c2 898 3 961 19 958 10 -2
249 -378 599 -943 320 -517 600 -960 622 -985 l40 -45 346 -3 347 -3 35 35 34
34 0 1682 0 1682 -29 29 -29 29 -317 0 c-348 0 -353 -1 -374 -62 -8 -21 -11
-333 -11 -994 0 -823 -2 -964 -14 -964 -17 0 25 -67 -650 1035 -345 562 -572
924 -596 948 l-39 37 -339 0 -339 0 -26 -24z m651 -113 c11 -10 100 -148 197
-308 98 -159 305 -497 460 -750 155 -253 366 -597 469 -765 102 -168 198 -315
212 -327 28 -26 80 -30 108 -10 10 7 22 33 27 58 4 24 8 505 9 1069 0 784 3
1029 12 1038 9 9 76 12 239 12 194 0 230 -2 243 -16 14 -14 16 -173 16 -1607
0 -986 -4 -1598 -10 -1607 -8 -13 -51 -15 -284 -15 -263 0 -276 1 -294 20 -11
11 -120 184 -244 385 -224 363 -647 1047 -905 1462 -74 119 -148 231 -165 247
-35 34 -81 41 -114 17 -19 -14 -19 -40 -24 -1060 -4 -838 -8 -1048 -18 -1058
-17 -17 -424 -24 -465 -9 l-27 11 0 1603 c0 1233 3 1606 12 1615 9 9 82 12
269 12 230 0 259 -2 277 -17z"/>
<path d="M12049 6051 l-29 -29 0 -1685 0 -1685 35 -31 36 -31 1274 0 1275 0
32 29 33 29 0 291 0 291 -28 27 -27 28 -905 3 c-890 2 -905 3 -915 22 -7 13
-10 142 -8 385 3 312 5 367 18 375 9 6 329 10 817 10 l802 0 28 24 28 24 0
291 0 291 -28 27 -27 28 -811 3 -810 3 -9 25 c-13 33 -13 535 0 568 l9 25 877
3 876 3 24 28 24 28 0 290 0 290 -25 24 -24 25 -1256 0 -1257 0 -29 -29z
m2460 -105 c8 -9 11 -75 9 -217 l-3 -204 -878 -5 -879 -5 -29 -33 -29 -32 0
-370 0 -370 29 -32 29 -33 813 -5 813 -5 9 -34 c5 -19 7 -113 5 -208 -2 -141
-6 -176 -18 -183 -9 -6 -330 -10 -818 -10 l-804 0 -29 -29 -29 -29 0 -456 0
-456 29 -32 29 -33 909 -5 908 -5 3 -213 2 -212 -26 -10 c-17 -7 -440 -9
-1210 -8 -1040 3 -1186 5 -1194 18 -6 9 -10 621 -10 1607 0 1434 2 1593 16
1607 14 14 134 16 1178 16 976 0 1165 -2 1175 -14z"/>
<path d="M18099 6051 l-29 -29 0 -284 c0 -319 1 -321 75 -338 22 -5 236 -10
476 -10 389 0 438 -2 443 -16 3 -9 6 -621 6 -1360 0 -1462 -3 -1386 55 -1412
18 -9 120 -12 350 -12 l324 0 36 31 35 31 0 1358 c0 1099 2 1360 13 1368 9 8
163 12 471 14 l458 3 29 33 29 32 0 208 c0 114 4 213 8 220 13 19 36 -12 179
-238 71 -113 312 -493 535 -845 223 -352 420 -665 439 -695 l34 -55 5 -703 5
-704 33 -29 33 -30 339 3 c338 3 340 3 362 26 l23 23 5 692 c5 625 7 695 22
723 9 17 106 172 216 345 109 173 370 584 579 914 209 330 385 610 391 622 20
38 15 91 -13 118 l-24 25 -391 0 -390 0 -36 -32 c-22 -21 -146 -223 -339 -553
-348 -597 -375 -640 -395 -640 -15 0 -46 50 -497 805 -117 195 -218 362 -225
370 -41 51 -36 50 -453 50 -370 0 -392 -1 -420 -20 -29 -19 -29 -19 -61 0 -31
20 -59 20 -1368 20 l-1338 0 -29 -29z m2631 -101 c12 -8 16 -44 18 -199 2
-123 -1 -197 -8 -210 -10 -20 -21 -20 -470 -23 l-459 -3 -30 -29 -31 -30 0
-1355 c0 -837 -4 -1362 -10 -1371 -8 -13 -49 -15 -265 -15 -242 0 -257 1 -271
19 -12 17 -14 219 -14 1369 0 905 -3 1355 -10 1368 -26 48 -39 49 -518 49
-335 0 -451 3 -460 12 -17 17 -17 399 0 416 15 15 2504 17 2528 2z m920 0 c10
-5 41 -47 68 -92 27 -46 163 -274 302 -508 139 -234 280 -470 313 -525 78
-131 110 -165 157 -165 69 0 33 -54 505 755 163 281 306 518 317 528 19 16 45
17 307 15 258 -3 286 -5 289 -20 3 -15 -141 -245 -924 -1479 -117 -185 -218
-348 -224 -363 -6 -18 -10 -262 -10 -697 l0 -669 -26 -10 c-33 -13 -465 -13
-498 0 l-25 9 -3 683 c-3 649 -4 685 -22 718 -10 19 -260 415 -554 880 -295
465 -546 863 -558 885 -38 65 -39 65 283 65 170 0 292 -4 303 -10z"/>
</g>
</svg>
