<?xml version="1.0" standalone="no"?>
<!DOCTYPE svg PUBLIC "-//W3C//DTD SVG 20010904//EN"
 "http://www.w3.org/TR/2001/REC-SVG-20010904/DTD/svg10.dtd">
<svg version="1.0" xmlns="http://www.w3.org/2000/svg"
 width="2550.000000pt" height="3300.000000pt" viewBox="0 0 2550.000000 3300.000000"
 preserveAspectRatio="xMidYMid meet">
<metadata>
Created by potrace 1.14, written by Peter Selinger 2001-2017
</metadata>
<g transform="translate(0.000000,3300.000000) scale(0.100000,-0.100000)"
fill="#000000" stroke="none">
<path d="M12520 31015 c-26 -10 -108 -14 -325 -14 -226 -1 -299 -5 -330 -16
-27 -9 -83 -14 -172 -15 -73 0 -144 -5 -160 -11 -31 -13 -155 -25 -373 -38
-80 -4 -158 -13 -173 -19 -16 -7 -41 -12 -58 -12 -16 0 -69 -13 -119 -30 -50
-16 -110 -30 -134 -30 -24 0 -63 -7 -86 -15 -23 -8 -57 -15 -76 -15 -18 0 -45
-5 -61 -11 -27 -11 -75 -19 -213 -39 -36 -5 -101 -18 -145 -30 -44 -12 -98
-25 -120 -29 -22 -4 -75 -20 -118 -34 -42 -15 -97 -27 -121 -27 -50 0 -144
-30 -185 -60 -16 -11 -37 -20 -47 -20 -21 0 -86 -18 -271 -76 -78 -24 -157
-44 -176 -44 -19 0 -47 -10 -65 -24 -18 -13 -51 -26 -73 -30 -23 -4 -57 -18
-77 -31 -20 -14 -48 -25 -62 -25 -14 0 -59 -16 -100 -36 -41 -20 -109 -47
-150 -61 -73 -24 -135 -50 -370 -158 -63 -29 -151 -65 -196 -79 -44 -15 -111
-46 -148 -71 -37 -24 -88 -51 -114 -61 -74 -26 -228 -101 -275 -132 -51 -36
-168 -95 -221 -112 -21 -7 -72 -36 -115 -65 -42 -28 -92 -60 -111 -70 -19 -10
-91 -54 -160 -100 -168 -109 -215 -139 -280 -174 -30 -16 -80 -48 -110 -70
-30 -22 -75 -55 -100 -72 -25 -18 -60 -45 -78 -61 -18 -16 -69 -46 -112 -68
-43 -22 -95 -53 -114 -70 -19 -17 -67 -53 -108 -80 -133 -91 -182 -130 -263
-209 -44 -44 -100 -89 -125 -101 -25 -12 -65 -41 -90 -65 -181 -173 -261 -245
-271 -245 -6 0 -66 -53 -132 -118 -67 -65 -144 -135 -172 -154 -65 -47 -393
-380 -431 -438 -16 -24 -45 -55 -64 -68 -61 -40 -107 -89 -156 -164 -26 -40
-82 -110 -126 -155 -43 -46 -78 -88 -78 -94 0 -7 -47 -60 -103 -118 -60 -60
-118 -132 -138 -166 -18 -33 -60 -90 -94 -126 -69 -76 -115 -137 -165 -219
-49 -79 -97 -144 -152 -207 -26 -29 -62 -81 -79 -115 -34 -70 -106 -186 -247
-401 -52 -78 -114 -182 -139 -232 -25 -49 -60 -112 -77 -140 -42 -63 -93 -151
-141 -239 -21 -39 -48 -85 -61 -103 -12 -19 -31 -55 -40 -81 -10 -26 -25 -58
-35 -72 -35 -52 -137 -268 -163 -345 -15 -44 -42 -107 -61 -140 -71 -124 -145
-291 -145 -326 0 -13 -10 -44 -21 -69 -11 -25 -40 -101 -64 -170 -23 -69 -51
-145 -62 -170 -10 -25 -28 -72 -38 -105 -11 -33 -27 -72 -36 -86 -21 -31 -59
-128 -59 -150 0 -9 -6 -39 -14 -65 -14 -47 -28 -103 -62 -236 -8 -35 -33 -121
-54 -193 -35 -116 -74 -253 -111 -385 -7 -25 -16 -67 -20 -95 -4 -27 -23 -113
-43 -189 -22 -87 -36 -162 -36 -201 0 -34 -7 -84 -15 -111 -8 -27 -15 -63 -15
-80 0 -16 -14 -70 -30 -119 -24 -72 -30 -105 -30 -176 0 -51 -6 -104 -15 -129
-8 -23 -15 -75 -15 -116 0 -40 -5 -85 -11 -101 -7 -15 -15 -77 -19 -138 -10
-142 -28 -272 -40 -295 -6 -11 -10 -108 -10 -223 0 -160 -3 -213 -16 -250 -14
-43 -14 -51 1 -96 14 -42 15 -92 12 -352 -2 -224 -7 -315 -17 -347 -12 -36
-12 -48 -1 -75 11 -26 22 -156 31 -357 1 -8 -2 -38 -6 -66 -4 -33 -2 -59 6
-74 14 -26 27 -127 38 -290 5 -63 14 -125 20 -137 7 -12 12 -51 12 -86 0 -36
7 -84 15 -107 10 -27 15 -79 15 -143 0 -57 6 -122 14 -151 8 -28 22 -80 31
-116 9 -36 21 -80 27 -99 6 -18 14 -72 19 -120 12 -119 27 -209 39 -231 5 -10
10 -27 10 -38 0 -11 6 -42 14 -68 8 -27 21 -74 30 -105 9 -31 16 -78 16 -105
0 -30 9 -68 24 -100 13 -28 27 -66 31 -85 3 -19 24 -88 44 -154 41 -129 55
-180 94 -350 8 -33 23 -78 34 -100 11 -22 23 -64 26 -94 4 -34 16 -68 32 -91
14 -20 25 -41 25 -48 0 -6 12 -37 26 -69 14 -32 43 -110 64 -173 38 -114 68
-192 116 -301 13 -31 24 -67 24 -79 0 -22 32 -96 180 -410 38 -80 72 -156 76
-170 9 -34 93 -201 110 -221 8 -9 38 -59 66 -110 28 -52 72 -134 99 -183 26
-49 55 -96 63 -105 7 -9 35 -58 61 -110 26 -52 75 -138 109 -190 90 -138 122
-190 151 -243 33 -62 141 -226 170 -258 13 -14 60 -81 105 -150 46 -69 93
-136 105 -150 12 -14 34 -47 50 -75 15 -27 47 -71 70 -96 24 -25 50 -59 58
-75 8 -16 32 -45 52 -64 20 -19 53 -64 72 -100 23 -41 75 -105 140 -171 56
-58 103 -111 103 -117 0 -6 34 -47 75 -91 41 -44 75 -85 75 -91 0 -9 227 -252
334 -359 36 -35 111 -110 137 -137 134 -135 440 -424 450 -424 7 0 82 -69 168
-154 114 -113 172 -162 216 -184 35 -18 95 -64 144 -112 46 -44 118 -103 160
-132 42 -28 90 -63 108 -77 101 -82 146 -112 213 -146 41 -21 91 -52 112 -69
20 -17 55 -44 78 -61 23 -16 65 -47 93 -67 29 -21 73 -49 98 -62 26 -14 82
-49 126 -79 43 -30 101 -66 128 -80 28 -14 59 -35 70 -47 11 -12 54 -39 95
-60 42 -21 96 -55 120 -76 25 -20 79 -52 120 -71 41 -19 91 -43 110 -53 19
-10 84 -44 145 -76 60 -31 123 -67 140 -79 38 -29 217 -118 270 -135 22 -7 69
-27 105 -45 36 -18 89 -38 118 -44 53 -11 173 -67 227 -105 41 -29 143 -69
290 -111 33 -10 71 -26 84 -36 13 -11 59 -30 102 -44 43 -13 105 -38 137 -54
74 -38 173 -71 209 -71 41 0 252 -66 512 -159 73 -27 130 -41 161 -41 27 0 61
-5 77 -11 15 -6 46 -15 68 -19 57 -13 147 -36 239 -59 43 -12 97 -21 120 -21
22 -1 59 -7 81 -15 22 -8 54 -15 71 -15 18 0 54 -6 80 -14 27 -8 74 -21 105
-30 31 -9 78 -16 105 -16 32 0 68 -9 104 -26 65 -30 155 -44 340 -50 75 -2
158 -11 187 -19 28 -8 89 -15 136 -15 50 0 102 -6 127 -15 30 -11 84 -15 185
-15 101 0 155 -4 185 -15 36 -13 144 -15 725 -15 581 0 689 2 725 15 31 11 86
15 204 15 115 0 172 4 201 15 23 8 78 14 130 15 52 0 107 6 130 15 23 8 78 14
129 15 49 0 103 4 120 9 39 12 135 31 206 41 30 4 68 13 83 19 16 6 43 11 61
11 19 0 50 7 69 15 20 8 52 15 70 15 19 0 54 7 77 15 23 8 57 15 76 15 18 0
45 5 61 11 15 6 60 15 98 19 104 13 171 26 260 50 44 12 98 25 120 29 22 4 95
27 163 49 67 23 129 42 137 42 9 0 50 11 93 24 42 14 106 32 142 41 36 9 88
23 116 31 28 8 66 14 85 14 19 0 57 11 84 23 28 13 86 36 131 51 45 15 103 40
130 57 26 17 102 49 167 70 66 22 137 49 158 60 21 10 44 19 52 19 7 0 49 17
93 38 43 21 116 51 161 66 86 29 825 391 928 455 154 96 186 115 279 162 54
28 154 88 221 134 67 46 138 91 156 100 51 26 287 183 339 226 25 20 68 48 95
62 28 13 59 34 69 46 11 12 36 31 55 43 20 12 52 35 73 52 20 17 55 45 78 61
130 93 244 179 295 222 22 19 68 58 102 87 34 29 89 67 123 85 40 22 71 47 88
73 51 75 85 109 136 134 28 14 78 52 111 85 33 33 109 106 169 162 59 56 123
125 141 153 18 28 50 61 71 74 50 30 247 222 286 280 17 25 56 72 87 106 31
34 68 80 83 102 15 22 49 56 77 74 34 23 67 60 106 118 31 47 67 96 80 110 12
14 28 35 34 48 7 12 30 33 51 47 25 16 49 43 64 74 14 26 38 63 53 81 15 19
42 53 58 76 17 23 44 61 60 85 17 23 57 72 91 108 33 36 85 104 116 151 31 47
63 92 71 99 9 7 21 29 28 49 6 20 25 52 40 70 16 18 38 51 50 73 11 22 59 98
106 167 47 70 94 145 105 167 12 22 35 56 52 76 17 21 50 73 73 117 23 43 67
116 97 161 30 45 62 104 71 132 9 27 21 51 26 55 5 3 41 69 80 147 39 78 77
149 85 157 13 15 55 110 99 225 49 129 67 170 130 296 71 140 86 177 175 424
85 234 105 286 149 373 49 97 81 187 81 226 0 16 14 75 30 130 28 92 43 146
95 331 9 33 30 91 47 128 45 106 92 318 106 487 4 47 12 92 17 100 5 8 13 40
16 70 8 59 18 100 57 225 25 82 35 132 52 268 6 44 15 87 20 97 6 10 10 48 10
85 0 36 7 82 15 102 11 25 15 73 15 168 0 92 5 145 15 175 10 30 15 83 15 175
0 92 5 145 15 175 12 33 15 95 15 282 0 189 3 251 16 294 13 45 15 96 12 267
-2 146 -7 219 -16 234 -9 16 -12 90 -12 270 -1 190 -4 257 -15 288 -19 52 -19
99 1 155 17 48 18 39 -32 216 -9 33 -14 100 -14 191 0 99 -4 153 -15 183 -8
23 -15 64 -15 91 0 26 -5 60 -11 76 -6 15 -15 60 -19 98 -16 126 -29 189 -55
264 -14 41 -25 90 -25 108 0 19 -7 50 -15 70 -8 19 -15 45 -15 57 0 11 -7 39
-15 61 -8 22 -14 67 -15 100 0 33 -7 82 -15 109 -8 27 -15 72 -15 99 0 28 -12
89 -26 136 -51 170 -103 327 -128 388 -15 34 -33 95 -40 135 -23 124 -110 411
-137 450 -10 15 -28 51 -40 80 -11 29 -35 87 -51 128 -46 113 -87 233 -88 253
0 20 -50 144 -75 187 -47 82 -107 208 -139 290 -20 52 -61 147 -91 210 -29 63
-57 126 -60 140 -4 14 -18 39 -30 55 -12 17 -55 94 -94 172 -38 78 -75 144
-80 147 -5 4 -17 29 -26 56 -9 27 -41 87 -72 132 -30 46 -64 100 -75 122 -11
21 -71 115 -134 208 -63 93 -123 186 -134 207 -10 21 -39 68 -64 104 -25 36
-54 83 -65 104 -11 22 -37 62 -59 89 -22 28 -47 66 -57 85 -36 71 -106 166
-160 219 -57 55 -125 150 -163 226 -12 23 -39 57 -62 76 -57 50 -164 178 -190
228 -12 23 -73 93 -135 156 -63 62 -132 140 -154 171 -42 61 -750 773 -768
773 -6 0 -35 22 -65 48 -29 27 -73 62 -98 79 -53 37 -89 74 -122 128 -17 26
-44 51 -79 69 -53 29 -125 84 -234 178 -30 26 -72 59 -94 72 -22 14 -42 30
-46 36 -3 5 -30 26 -58 45 -29 19 -81 57 -117 85 -36 28 -119 86 -185 131 -66
44 -131 91 -145 103 -29 27 -288 200 -334 223 -17 9 -91 56 -165 105 -74 49
-175 110 -225 135 -50 25 -105 55 -121 68 -17 12 -64 39 -105 60 -41 21 -88
48 -105 60 -37 29 -651 335 -670 335 -8 0 -78 32 -156 70 -78 39 -153 70 -168
70 -15 0 -60 16 -101 36 -41 20 -129 54 -195 76 -66 22 -131 48 -146 58 -29
22 -65 36 -239 95 -125 43 -180 59 -255 75 -82 18 -173 44 -440 124 -82 24
-178 52 -212 60 -35 9 -91 23 -125 32 -35 8 -77 19 -93 24 -35 11 -130 27
-230 40 -38 4 -83 13 -98 19 -16 6 -48 11 -71 11 -24 0 -63 7 -86 15 -23 8
-57 15 -75 15 -18 0 -52 7 -75 15 -23 8 -57 15 -75 15 -18 0 -52 7 -75 15 -23
8 -62 15 -86 15 -23 0 -55 5 -71 11 -32 12 -155 26 -323 38 -63 4 -125 13
-137 19 -12 7 -36 12 -54 12 -18 0 -56 8 -86 17 -45 14 -60 15 -101 4 -35 -8
-56 -9 -76 -1 -17 6 -139 10 -315 10 -231 0 -297 3 -331 15 -57 20 -348 20
-400 0z m190 -121 c43 -13 62 -14 91 -5 26 8 45 8 64 1 15 -6 144 -10 314 -10
231 0 297 -3 331 -15 29 -10 81 -15 160 -15 79 0 131 -5 160 -15 25 -9 78 -15
130 -15 52 0 105 -6 130 -15 23 -8 69 -15 101 -15 32 0 70 -5 84 -10 15 -6 59
-15 99 -20 134 -18 191 -28 219 -39 16 -6 43 -11 61 -11 19 0 53 -7 76 -15 23
-8 64 -15 90 -15 26 0 64 -7 83 -15 20 -8 59 -15 86 -15 27 0 62 -5 78 -11 15
-6 53 -15 83 -19 30 -5 84 -16 120 -25 36 -9 81 -20 100 -24 60 -14 120 -31
270 -76 233 -70 310 -92 390 -110 41 -10 93 -24 115 -31 23 -8 48 -14 58 -14
34 0 234 -72 287 -104 30 -18 127 -57 215 -86 88 -29 190 -68 227 -86 37 -19
78 -34 91 -34 14 0 82 -29 153 -63 71 -35 147 -70 169 -77 53 -17 649 -315
700 -350 22 -15 69 -42 105 -60 36 -18 72 -38 80 -45 8 -7 65 -40 126 -72 203
-107 894 -566 1125 -748 21 -16 66 -50 100 -75 33 -25 82 -63 108 -86 25 -22
62 -51 81 -64 19 -13 59 -45 88 -72 30 -26 58 -48 64 -48 5 0 63 -52 128 -115
66 -63 124 -115 130 -115 6 0 35 -22 63 -48 29 -27 68 -58 87 -70 49 -29 233
-217 273 -277 18 -28 54 -64 82 -82 64 -42 284 -261 338 -336 95 -132 116
-156 196 -237 46 -47 100 -110 121 -140 21 -30 48 -64 60 -75 12 -11 37 -42
55 -70 19 -27 47 -58 64 -68 17 -10 48 -47 70 -85 22 -37 53 -85 70 -107 17
-22 44 -59 61 -83 17 -23 52 -63 78 -90 27 -26 67 -81 90 -123 23 -41 51 -84
63 -95 12 -10 32 -40 45 -65 12 -26 47 -82 77 -125 30 -44 63 -97 75 -119 11
-22 71 -118 134 -212 201 -306 256 -397 278 -455 12 -32 26 -60 31 -64 5 -3
41 -67 79 -142 38 -75 79 -153 89 -172 34 -61 141 -294 141 -308 0 -7 11 -35
25 -62 14 -27 25 -56 25 -64 0 -12 37 -89 127 -261 42 -79 73 -156 73 -178 1
-38 98 -288 176 -452 18 -38 45 -110 59 -160 14 -49 37 -126 50 -171 14 -44
25 -92 25 -106 0 -31 40 -160 64 -207 24 -46 46 -116 56 -181 14 -93 36 -166
58 -198 17 -23 22 -45 22 -95 0 -35 7 -84 15 -107 8 -23 15 -67 15 -98 0 -30
7 -78 14 -106 30 -105 46 -173 46 -199 0 -14 11 -57 25 -95 14 -38 25 -85 25
-103 1 -19 7 -52 15 -74 9 -23 15 -77 15 -126 0 -60 6 -106 21 -150 14 -43 19
-78 15 -106 -3 -25 0 -59 9 -84 9 -24 15 -77 15 -129 0 -52 6 -105 15 -130 11
-30 15 -84 15 -186 0 -88 5 -154 12 -171 11 -26 17 -153 34 -760 3 -132 2
-189 -7 -205 -9 -16 -13 -101 -14 -283 -1 -181 -5 -267 -13 -282 -8 -14 -12
-70 -12 -156 0 -94 -5 -147 -15 -177 -9 -25 -15 -78 -15 -130 0 -52 -6 -105
-15 -130 -10 -27 -15 -79 -15 -145 0 -83 -5 -115 -26 -176 -14 -41 -30 -99
-35 -129 -4 -30 -15 -95 -23 -145 -8 -49 -24 -126 -35 -169 -12 -44 -21 -92
-21 -108 0 -16 -7 -45 -15 -65 -8 -19 -15 -64 -15 -99 0 -34 -5 -75 -11 -91
-7 -15 -15 -59 -20 -98 -10 -91 -30 -173 -64 -260 -54 -141 -75 -200 -75 -214
0 -13 -26 -104 -85 -297 -14 -44 -25 -94 -25 -111 0 -16 -13 -55 -30 -86 -16
-31 -30 -67 -30 -79 0 -13 -18 -61 -40 -108 -53 -115 -84 -193 -131 -334 -22
-65 -49 -136 -60 -157 -10 -21 -19 -44 -19 -52 0 -8 -40 -96 -90 -197 -49
-101 -90 -189 -90 -197 0 -8 -9 -32 -21 -55 -11 -22 -27 -59 -34 -82 -21 -66
-66 -169 -85 -196 -10 -14 -46 -81 -80 -150 -34 -68 -73 -138 -85 -155 -12
-16 -29 -51 -38 -76 -8 -26 -40 -84 -72 -129 -31 -46 -72 -115 -92 -154 -19
-38 -52 -91 -73 -116 -21 -25 -47 -64 -59 -87 -11 -23 -55 -93 -97 -155 -42
-62 -85 -131 -96 -153 -12 -22 -34 -55 -51 -74 -16 -19 -35 -48 -42 -65 -8
-17 -29 -46 -48 -65 -20 -18 -38 -45 -42 -60 -8 -35 -76 -133 -144 -207 -54
-59 -158 -194 -213 -276 -15 -22 -53 -68 -85 -103 -55 -58 -71 -80 -150 -192
-17 -25 -77 -91 -132 -148 -56 -56 -101 -107 -101 -113 0 -6 -31 -45 -70 -86
-38 -42 -70 -80 -70 -85 0 -16 -156 -176 -202 -206 -60 -40 -135 -113 -166
-160 -37 -58 -128 -150 -186 -189 -28 -19 -67 -51 -86 -71 -19 -20 -60 -54
-91 -76 -31 -21 -92 -76 -135 -122 -44 -47 -95 -93 -114 -102 -19 -10 -61 -42
-93 -71 -32 -30 -62 -54 -68 -54 -5 0 -36 -25 -69 -55 -33 -30 -64 -55 -68
-55 -5 0 -31 -19 -59 -43 -59 -49 -207 -160 -263 -198 -21 -14 -54 -40 -74
-57 -20 -18 -60 -44 -89 -58 -29 -14 -63 -37 -77 -49 -32 -30 -298 -208 -348
-234 -21 -11 -88 -53 -148 -94 -60 -41 -147 -93 -194 -117 -47 -23 -110 -58
-140 -77 -131 -83 -187 -113 -593 -318 -247 -124 -465 -228 -515 -244 -48 -15
-109 -39 -137 -53 -65 -33 -203 -87 -334 -132 -57 -20 -123 -49 -147 -65 -24
-16 -83 -41 -131 -56 -49 -15 -106 -37 -128 -48 -22 -11 -64 -23 -95 -28 -30
-4 -82 -15 -115 -23 -33 -8 -80 -20 -105 -26 -46 -10 -109 -29 -335 -99 -116
-35 -270 -75 -435 -110 -30 -7 -86 -16 -125 -20 -38 -5 -83 -13 -98 -20 -16
-6 -43 -11 -61 -11 -19 0 -53 -7 -76 -15 -23 -8 -58 -15 -77 -15 -19 0 -43 -4
-53 -10 -10 -5 -47 -14 -82 -20 -35 -5 -97 -17 -138 -26 -41 -9 -113 -19 -160
-23 -47 -5 -98 -13 -113 -20 -16 -6 -54 -11 -86 -11 -32 0 -78 -7 -101 -15
-26 -9 -78 -15 -135 -15 -60 0 -105 -5 -128 -15 -27 -11 -77 -15 -199 -15
-116 0 -174 -4 -203 -15 -61 -22 -1239 -22 -1311 0 -33 10 -94 15 -190 15
-100 0 -154 4 -184 15 -26 9 -78 15 -135 15 -60 0 -105 5 -128 15 -22 9 -68
15 -117 15 -45 0 -90 5 -101 11 -20 10 -106 23 -254 38 -38 3 -80 12 -92 19
-12 6 -41 12 -64 12 -40 0 -98 12 -215 46 -28 7 -64 14 -80 14 -16 0 -47 7
-69 15 -22 8 -60 14 -84 15 -24 0 -67 7 -95 15 -61 18 -274 71 -381 95 -22 4
-53 13 -68 19 -16 6 -43 11 -62 11 -18 0 -71 14 -117 31 -204 76 -505 169
-547 169 -17 0 -75 20 -129 44 -53 24 -122 52 -152 62 -30 9 -66 25 -80 35
-25 19 -140 59 -167 59 -16 0 -143 52 -183 75 -96 55 -223 115 -256 120 -21 4
-79 25 -129 47 -195 86 -576 284 -629 326 -16 12 -35 22 -43 22 -27 0 -139 58
-183 94 -24 21 -78 55 -120 76 -42 21 -96 55 -120 75 -24 20 -61 45 -82 56
-21 11 -78 45 -127 77 -49 31 -122 77 -162 102 -40 25 -93 62 -117 83 -24 20
-46 37 -50 37 -4 0 -30 18 -57 41 -27 23 -81 57 -120 76 -39 20 -97 61 -130
93 -33 32 -85 70 -114 85 -29 14 -84 55 -122 91 -37 35 -73 64 -78 64 -5 0
-36 24 -68 54 -32 29 -74 61 -93 71 -19 9 -53 35 -75 56 -131 129 -286 269
-297 269 -17 0 -865 847 -885 884 -8 16 -44 61 -79 100 -143 159 -160 180
-192 225 -18 25 -46 57 -63 69 -16 13 -39 43 -51 65 -11 23 -42 65 -68 93 -26
27 -54 63 -63 80 -8 16 -32 45 -52 64 -20 19 -48 58 -62 85 -14 28 -41 69 -59
92 -19 23 -70 95 -114 160 -44 65 -102 147 -128 183 -49 66 -102 150 -182 285
-25 42 -69 113 -98 158 -30 45 -77 127 -104 182 -28 55 -61 113 -73 130 -13
16 -37 59 -55 95 -18 36 -42 79 -55 95 -12 17 -39 64 -60 105 -21 41 -48 88
-60 105 -28 37 -105 190 -105 208 0 8 -34 83 -75 167 -41 84 -75 159 -75 166
0 7 -25 63 -55 125 -30 62 -55 123 -55 136 0 22 -17 67 -81 213 -10 25 -41
108 -68 185 -27 77 -74 208 -104 290 -92 255 -88 241 -133 430 -9 39 -33 124
-54 190 -34 110 -47 158 -71 255 -5 19 -15 62 -23 95 -105 429 -106 430 -116
535 -4 47 -13 101 -18 120 -6 19 -18 64 -27 100 -9 36 -23 88 -31 116 -8 29
-14 95 -14 153 0 56 -4 111 -10 121 -11 20 -28 160 -39 325 -5 61 -13 123 -20
138 -6 16 -11 86 -11 160 -1 89 -6 145 -15 172 -22 61 -22 1333 0 1395 10 29
15 82 15 171 0 72 5 140 11 156 7 15 15 78 20 138 15 215 28 335 39 354 5 11
10 62 10 113 1 77 6 108 30 178 17 47 30 99 30 117 0 17 5 44 12 60 6 15 14
73 18 128 5 62 21 153 44 240 20 77 36 150 36 161 0 12 6 44 14 70 8 27 24 83
36 124 12 41 27 93 32 115 6 22 27 96 48 165 36 117 51 172 85 310 53 217 75
288 97 322 10 14 34 70 54 125 31 84 128 352 162 448 6 17 16 48 21 70 6 23
24 61 40 86 17 24 34 64 40 88 5 24 18 56 29 71 32 43 67 120 97 210 28 85
111 261 147 313 11 15 30 54 43 87 13 32 34 74 48 92 14 18 39 62 57 98 18 36
47 88 64 115 67 103 108 173 156 266 27 53 83 148 126 210 42 63 84 130 95
150 10 20 43 72 73 116 29 44 70 112 90 151 20 40 58 97 84 127 76 87 128 157
152 205 12 25 50 75 84 111 63 68 97 113 153 203 18 28 48 65 67 81 18 17 47
50 64 75 16 25 47 61 67 80 21 19 49 53 63 75 14 22 55 72 92 110 37 39 86 99
109 135 27 41 62 78 94 101 29 20 70 60 92 89 58 76 395 419 430 437 17 9 87
70 158 137 236 224 302 284 347 314 25 17 54 40 65 52 11 12 45 39 75 60 30
21 64 48 75 60 11 12 38 35 60 50 22 16 69 56 105 90 36 34 103 87 150 117 47
31 96 66 110 78 14 12 61 42 105 65 44 23 89 51 100 61 57 52 252 184 390 265
55 32 150 91 210 132 61 41 127 83 148 93 21 11 74 44 119 74 44 30 86 55 94
55 19 0 191 86 229 115 38 28 158 88 210 105 55 17 149 65 197 100 22 16 82
42 133 59 52 17 133 50 182 74 48 24 106 50 128 57 22 7 67 26 99 42 33 17 99
43 147 59 49 16 115 43 148 59 32 17 79 34 104 39 25 4 57 18 72 30 15 11 36
21 46 21 11 0 108 30 217 66 108 36 224 72 257 80 33 8 83 21 110 28 28 7 63
21 79 31 44 29 126 54 177 55 25 0 72 9 105 20 90 31 336 90 376 90 19 0 55 7
78 15 23 8 57 15 75 15 18 0 52 7 75 15 23 8 57 15 75 15 18 0 52 7 75 15 23
8 61 15 85 15 23 0 75 11 116 25 48 17 115 29 189 35 247 21 297 27 317 39 12
6 57 11 101 11 45 0 98 6 122 15 29 10 82 15 170 15 88 0 141 5 170 15 34 12
100 15 329 15 219 0 297 4 331 14 58 19 57 19 120 0z"/>
<path d="M12360 29514 c-25 -7 -69 -14 -99 -14 -30 0 -77 -6 -105 -14 -52 -15
-134 -36 -241 -62 -33 -8 -166 -49 -295 -91 -228 -73 -445 -168 -525 -228 -16
-12 -46 -30 -65 -40 -81 -41 -310 -203 -400 -282 -33 -29 -65 -53 -71 -53 -18
0 -288 -270 -329 -330 -21 -30 -70 -86 -110 -125 -40 -39 -87 -98 -108 -135
-20 -36 -69 -113 -109 -172 -75 -111 -141 -233 -163 -303 -7 -22 -33 -80 -57
-128 -78 -158 -161 -389 -173 -487 -6 -41 -17 -109 -26 -150 -9 -41 -19 -106
-24 -145 -4 -38 -12 -83 -19 -98 -6 -16 -11 -75 -11 -131 0 -66 -5 -119 -15
-146 -10 -28 -15 -80 -15 -150 0 -73 5 -119 15 -143 11 -26 15 -74 15 -171 0
-74 5 -147 11 -163 6 -15 14 -59 19 -98 4 -38 17 -106 29 -149 11 -44 21 -96
21 -117 0 -61 87 -314 161 -466 38 -78 69 -146 69 -152 0 -52 299 -527 380
-606 23 -22 57 -62 75 -90 35 -54 355 -375 374 -375 6 0 38 -25 71 -55 33 -30
64 -55 69 -55 5 0 33 -22 63 -48 66 -61 125 -100 208 -142 36 -18 79 -42 95
-55 50 -37 325 -171 397 -193 37 -12 80 -28 95 -36 36 -18 179 -66 199 -66 8
0 43 -9 77 -21 88 -30 206 -59 237 -59 15 0 47 -7 70 -15 23 -8 68 -15 100
-15 32 0 77 -7 100 -15 56 -20 632 -22 677 -3 15 7 78 15 138 19 61 4 137 14
170 22 33 9 121 31 195 51 132 33 310 93 460 154 41 16 100 40 130 52 30 12
62 27 70 34 8 7 49 31 90 53 127 67 289 171 410 263 36 27 81 61 100 74 37 26
464 458 516 522 17 22 39 53 49 69 10 17 29 41 41 55 41 45 213 311 225 349 7
20 51 115 99 211 91 183 180 433 180 506 0 15 7 51 15 81 8 29 22 77 30 106 8
30 15 68 15 85 0 17 5 43 11 59 7 15 15 66 19 113 4 47 13 103 19 125 14 53
14 507 0 560 -6 22 -15 85 -19 140 -4 55 -12 113 -19 128 -6 16 -11 44 -11 63
0 19 -7 51 -15 71 -8 19 -15 44 -15 55 0 11 -7 41 -15 67 -24 78 -45 166 -45
194 0 14 -11 56 -25 92 -14 36 -36 94 -50 129 -13 35 -72 160 -131 277 -101
202 -126 244 -269 443 -33 46 -73 103 -90 127 -41 59 -431 455 -478 485 -20
13 -61 46 -91 72 -69 60 -166 131 -236 173 -30 18 -77 47 -105 65 -96 62 -361
188 -495 235 -74 26 -155 54 -180 63 -47 16 -212 65 -290 86 -25 6 -70 15
-100 20 -30 4 -68 13 -83 19 -16 6 -63 11 -105 11 -42 0 -95 7 -117 15 -57 20
-599 20 -665 -1z m710 -131 c58 -6 118 -16 133 -22 16 -6 42 -11 59 -11 32 0
77 -11 238 -61 52 -16 103 -29 113 -29 10 0 35 -9 56 -20 22 -11 99 -39 172
-63 129 -43 411 -175 474 -222 17 -12 53 -34 80 -49 28 -14 73 -43 102 -64 28
-20 70 -50 93 -67 23 -16 68 -54 101 -82 32 -29 64 -53 70 -53 19 0 359 -342
395 -397 19 -28 38 -54 44 -58 5 -3 38 -50 74 -104 36 -55 70 -102 75 -106 36
-22 257 -435 317 -593 68 -176 84 -226 84 -257 0 -19 5 -46 11 -62 7 -15 15
-46 20 -68 9 -47 26 -116 41 -163 15 -50 28 -135 37 -247 5 -55 14 -113 20
-128 15 -38 15 -466 0 -504 -6 -15 -15 -66 -20 -113 -12 -130 -23 -186 -60
-320 -7 -25 -16 -67 -20 -95 -21 -141 -90 -338 -188 -533 -49 -97 -92 -188
-96 -202 -9 -31 -160 -259 -238 -360 -32 -41 -73 -97 -92 -125 -38 -57 -399
-415 -464 -460 -24 -16 -69 -49 -100 -73 -110 -84 -251 -173 -366 -233 -44
-23 -93 -51 -110 -64 -16 -12 -41 -25 -55 -29 -14 -4 -50 -17 -80 -30 -30 -13
-80 -34 -110 -46 -82 -33 -338 -120 -354 -120 -7 0 -36 -6 -62 -14 -27 -8 -78
-22 -114 -31 -36 -9 -88 -23 -116 -31 -28 -8 -89 -14 -135 -14 -46 0 -106 -7
-133 -15 -71 -22 -485 -21 -546 0 -23 8 -70 15 -104 15 -33 1 -79 7 -101 15
-22 8 -53 15 -69 15 -16 0 -52 6 -80 14 -28 8 -100 28 -161 45 -293 83 -643
225 -750 306 -16 12 -59 37 -95 55 -86 43 -188 111 -225 150 -16 18 -43 38
-58 47 -16 8 -55 39 -88 69 -32 30 -64 54 -70 54 -18 0 -260 242 -294 295 -18
28 -52 68 -75 90 -86 82 -390 567 -390 622 0 7 -28 68 -61 136 -75 148 -147
356 -159 455 -5 40 -14 88 -19 105 -31 105 -41 149 -41 189 0 25 -7 65 -15 88
-10 30 -15 83 -15 175 0 95 -4 143 -15 168 -19 46 -19 103 0 157 10 27 15 79
15 145 0 66 5 118 15 145 8 23 15 63 15 89 0 25 7 64 15 86 8 22 14 57 15 78
0 21 4 47 10 57 5 10 14 53 19 97 12 99 94 329 176 492 25 50 45 96 45 102 0
29 87 190 165 305 48 71 98 151 112 177 13 27 65 93 116 148 187 203 323 342
372 380 77 60 147 115 184 146 19 15 83 60 142 98 286 185 446 263 734 357
210 69 259 83 365 109 56 13 152 37 195 48 22 6 65 11 95 11 30 0 62 5 70 10
19 13 513 7 660 -7z"/>
<path d="M5800 26705 c-19 -7 -57 -14 -83 -14 -61 -1 -202 -42 -388 -114 -133
-50 -371 -179 -430 -231 -31 -28 -94 -78 -139 -111 -45 -32 -105 -86 -133
-118 -29 -32 -90 -100 -137 -150 -80 -86 -110 -127 -195 -267 -53 -87 -195
-368 -195 -387 0 -9 -7 -40 -15 -70 -8 -29 -22 -77 -30 -106 -8 -30 -15 -67
-15 -84 0 -17 -7 -50 -15 -73 -8 -23 -15 -62 -15 -87 0 -24 -7 -65 -15 -91
-14 -42 -15 -381 -13 -3000 l3 -2954 28 -24 28 -24 2265 0 c1948 0 2269 -2
2292 -14 46 -25 2012 -1999 2012 -2021 0 -22 -1955 -1985 -2005 -2013 -28 -16
-129 -17 -1223 -22 l-1194 -5 -24 -28 -24 -28 0 -1608 c0 -1569 0 -1609 19
-1632 l19 -24 2014 -3 c1107 -1 2024 0 2038 3 16 4 476 457 1240 1221 960 959
1220 1214 1240 1214 20 0 281 -256 1245 -1220 l1220 -1220 2038 0 2038 0 24
25 25 24 0 1611 c0 1068 -3 1618 -10 1630 -6 11 -27 24 -48 30 -24 6 -432 10
-1217 10 l-1180 0 -1002 1002 c-551 551 -1004 1009 -1006 1019 -9 34 31 95
109 166 44 40 97 91 119 113 22 23 81 81 130 130 50 49 107 107 129 129 21 21
77 77 123 124 47 46 104 103 127 126 22 23 82 82 131 131 50 49 107 107 129
129 21 21 77 77 123 124 47 46 104 103 127 126 22 23 82 82 131 131 50 49 107
107 129 129 64 65 206 206 248 247 22 22 74 77 116 123 45 49 94 92 117 102
38 18 131 19 2287 19 1625 0 2254 3 2271 11 14 6 30 22 36 36 8 17 11 846 11
3022 0 2640 -2 3004 -15 3041 -8 23 -15 56 -15 72 0 34 -10 68 -92 323 -33
105 -71 211 -84 236 -32 64 -217 339 -244 364 -12 11 -39 45 -60 75 -40 59
-241 260 -260 260 -6 0 -32 20 -58 44 -73 68 -142 111 -346 213 -231 116 -448
193 -542 193 -34 0 -81 7 -104 15 -34 12 -99 15 -325 15 -226 0 -291 -3 -325
-15 -23 -8 -69 -15 -102 -15 -94 0 -316 -79 -544 -193 -204 -102 -273 -145
-346 -213 -26 -24 -52 -44 -59 -44 -6 0 -79 -67 -163 -149 -150 -149 -191
-202 -331 -431 -96 -157 -157 -306 -200 -490 -10 -41 -24 -95 -31 -119 -8 -25
-14 -59 -14 -77 0 -17 -7 -51 -15 -74 -22 -62 -22 -601 0 -653 8 -20 15 -49
15 -64 0 -15 22 -116 49 -223 39 -158 58 -215 101 -300 29 -58 62 -118 75
-135 12 -16 30 -46 40 -65 23 -46 104 -168 116 -175 5 -4 24 -30 43 -58 40
-61 280 -303 348 -350 26 -17 72 -51 102 -75 l56 -43 0 -302 c0 -222 -3 -306
-12 -315 -9 -9 -1219 -12 -5385 -12 l-5372 0 -11 20 c-7 14 -10 118 -8 316 3
283 4 297 23 310 11 8 40 30 65 49 25 19 61 46 81 59 63 42 377 363 400 408
12 24 49 84 83 135 108 163 132 214 206 433 72 215 82 259 100 423 6 49 15 97
20 107 13 25 13 329 0 367 -6 16 -15 67 -20 114 -16 140 -25 190 -54 284 -87
286 -143 406 -295 631 -88 132 -119 168 -268 314 -93 91 -189 180 -214 198
-24 18 -66 51 -94 73 -50 40 -312 179 -337 179 -8 0 -51 18 -95 39 -45 22
-106 47 -137 55 -31 9 -80 23 -109 31 -30 8 -79 15 -109 15 -31 0 -75 7 -98
15 -58 21 -606 21 -660 0z m590 -120 c23 -8 67 -15 98 -15 30 0 78 -6 106 -14
28 -8 80 -23 116 -32 36 -10 100 -35 142 -56 43 -21 84 -38 91 -38 21 0 245
-113 306 -154 29 -20 78 -59 108 -86 30 -28 59 -50 65 -50 6 0 69 -57 141
-127 104 -103 148 -156 227 -274 153 -228 228 -388 304 -649 33 -115 47 -189
56 -290 4 -47 12 -96 19 -107 14 -28 14 -203 0 -240 -7 -15 -15 -64 -19 -108
-4 -44 -13 -107 -20 -140 -14 -73 -160 -524 -171 -530 -4 -3 -24 -36 -45 -73
-21 -37 -56 -94 -79 -127 -23 -33 -54 -82 -68 -110 -28 -55 -278 -311 -358
-367 -94 -67 -155 -116 -187 -152 l-32 -37 0 -361 0 -361 25 -33 c15 -20 41
-38 63 -44 26 -8 1615 -10 5454 -8 l5418 3 37 38 38 37 3 338 c2 185 0 352 -3
370 -7 40 -53 93 -119 138 -113 76 -165 119 -259 212 -54 53 -107 113 -119
132 -12 19 -33 49 -48 65 -47 52 -180 269 -252 410 -20 39 -46 113 -58 165
-12 52 -28 113 -36 135 -8 23 -14 50 -14 62 0 11 -7 37 -15 56 -8 20 -15 52
-15 70 0 19 -7 54 -15 77 -21 60 -21 466 0 525 8 22 15 53 15 69 0 16 6 52 14
80 8 28 22 80 31 116 58 235 137 410 282 629 60 91 250 304 317 356 21 17 61
51 90 76 78 69 132 102 350 211 240 120 455 198 551 198 33 0 78 7 100 15 30
11 94 14 260 14 166 0 230 -3 260 -14 22 -8 67 -15 100 -15 93 0 339 -87 553
-194 191 -96 271 -146 349 -218 28 -26 56 -48 62 -48 18 0 142 -123 181 -180
21 -30 48 -64 60 -75 33 -30 240 -342 265 -400 20 -47 114 -333 149 -456 9
-31 16 -69 16 -86 0 -17 7 -50 15 -73 13 -37 15 -392 15 -2961 0 -2906 0
-2919 -20 -2939 -20 -20 -33 -20 -2257 -20 l-2238 0 -50 -29 c-28 -16 -92 -73
-143 -127 -50 -55 -98 -105 -106 -112 -8 -8 -64 -63 -124 -124 -61 -60 -120
-120 -132 -132 -12 -11 -71 -70 -131 -131 -60 -60 -116 -116 -124 -123 -7 -8
-63 -63 -123 -124 -61 -60 -120 -120 -132 -132 -12 -11 -71 -70 -131 -131 -60
-60 -117 -117 -125 -125 -9 -8 -65 -64 -125 -125 -61 -60 -119 -119 -130 -130
-29 -29 -238 -238 -252 -252 -7 -7 -54 -52 -106 -100 -93 -88 -166 -182 -182
-236 -5 -16 -4 -40 2 -55 14 -37 2075 -2100 2116 -2118 27 -12 220 -14 1196
-14 891 0 1166 -3 1175 -12 9 -9 12 -361 12 -1524 l0 -1513 -22 -15 c-20 -14
-223 -16 -1961 -16 -1665 0 -1942 2 -1965 14 -15 8 -569 558 -1232 1221 -663
663 -1217 1213 -1232 1221 -31 16 -76 18 -110 5 -13 -5 -572 -556 -1241 -1225
-670 -669 -1229 -1221 -1243 -1226 -16 -6 -738 -10 -1950 -10 -1911 0 -1924 0
-1944 20 -20 20 -20 33 -20 1524 0 1354 2 1506 16 1520 14 14 134 16 1167 16
l1152 0 55 26 c48 22 190 159 1044 1012 543 543 1001 1005 1017 1026 25 34 29
48 29 105 l0 66 -1040 1040 -1040 1040 -2265 5 c-1999 4 -2267 7 -2275 20 -6
9 -9 1093 -7 2915 3 2689 5 2907 21 2990 9 50 20 113 25 140 9 55 26 125 47
194 8 25 14 54 14 67 0 25 130 294 164 339 13 17 32 48 44 70 38 76 94 150
168 225 41 42 89 98 107 125 17 27 55 65 83 85 84 57 198 145 214 165 16 20
383 205 406 205 8 0 32 9 54 20 36 18 89 36 221 74 31 9 78 16 105 17 27 0 65
7 84 14 53 20 462 20 520 0z"/>
<path d="M2435 6174 c-183 -20 -352 -71 -482 -146 -96 -55 -238 -188 -301
-282 -156 -234 -200 -552 -116 -843 64 -220 227 -427 435 -549 153 -89 254
-126 772 -279 293 -86 374 -130 421 -230 64 -135 8 -311 -130 -406 -64 -44
-156 -75 -260 -89 -239 -30 -459 60 -558 229 -41 72 -79 167 -101 258 -33 140
-40 142 -435 97 -231 -26 -251 -32 -279 -89 -12 -25 -11 -45 8 -157 90 -544
390 -884 878 -995 113 -26 130 -27 398 -27 253 0 290 2 383 22 271 59 456 162
604 336 104 122 175 259 220 422 29 109 37 406 14 541 -33 194 -110 346 -245
486 -181 188 -344 269 -807 401 -463 132 -589 190 -635 291 -82 179 108 337
406 338 161 1 303 -48 370 -126 36 -42 74 -126 101 -220 20 -72 48 -106 97
-117 47 -10 550 16 588 31 45 18 53 46 46 166 -7 127 -38 248 -97 371 -50 105
-87 158 -173 249 -143 151 -289 231 -517 284 -113 26 -146 29 -345 33 -121 2
-238 2 -260 0z m385 -130 c103 -8 276 -53 382 -99 221 -97 371 -269 453 -519
42 -128 51 -194 32 -220 -13 -17 -32 -21 -133 -27 -66 -4 -160 -8 -210 -8
-108 -1 -110 1 -144 107 -57 181 -181 294 -367 336 -92 21 -312 21 -407 1 -98
-21 -187 -66 -253 -127 -77 -73 -103 -131 -103 -234 0 -101 19 -159 73 -220
91 -104 222 -162 607 -273 386 -110 540 -170 689 -269 146 -97 262 -260 315
-444 75 -260 52 -508 -68 -753 -91 -183 -197 -292 -371 -379 -182 -91 -375
-130 -640 -129 -155 1 -198 5 -310 28 -327 67 -544 220 -684 480 -98 182 -169
449 -128 483 8 7 98 22 206 34 153 17 193 19 205 9 9 -7 27 -52 42 -99 73
-243 223 -410 423 -473 211 -65 514 -34 667 67 75 50 152 137 188 214 30 62
31 70 31 195 0 118 -2 135 -25 180 -13 28 -49 75 -80 106 -90 91 -143 112
-710 279 -360 107 -555 212 -681 368 -158 195 -228 465 -181 692 74 360 308
589 683 671 157 34 286 40 499 23z"/>
<path d="M16795 6170 c-230 -25 -402 -87 -587 -211 -375 -252 -605 -646 -684
-1169 -25 -162 -25 -550 0 -710 117 -769 536 -1260 1186 -1391 101 -20 145
-23 355 -23 257 -1 333 8 519 60 263 74 563 232 731 386 31 28 63 64 70 79 13
24 15 130 15 679 0 707 1 693 -55 718 -33 15 -1260 17 -1299 2 -56 -21 -61
-42 -64 -305 -4 -265 2 -303 51 -339 27 -20 42 -21 320 -24 255 -3 294 -5 305
-20 19 -25 17 -271 -4 -300 -37 -53 -216 -153 -362 -202 -236 -79 -464 -52
-664 79 -170 111 -291 322 -350 611 -20 103 -23 142 -22 365 0 218 3 262 21
346 92 409 316 635 673 679 305 37 563 -115 665 -393 10 -27 31 -62 46 -78 24
-25 34 -29 83 -29 72 0 528 94 561 116 14 9 30 25 35 35 40 73 -50 351 -171
531 -67 100 -223 253 -324 320 -112 73 -259 131 -412 163 -99 21 -154 26 -338
29 -121 3 -256 1 -300 -4z m413 -125 c207 -15 425 -88 587 -196 144 -97 245
-214 328 -382 75 -154 96 -246 60 -265 -29 -15 -372 -83 -401 -80 -23 3 -34
17 -73 93 -33 64 -68 114 -123 172 -94 100 -164 147 -276 187 -84 31 -87 31
-280 30 -180 0 -201 -2 -277 -26 -114 -35 -222 -99 -316 -188 -148 -138 -234
-302 -284 -540 -26 -119 -27 -139 -27 -405 1 -260 3 -289 27 -405 31 -152 82
-296 139 -393 60 -102 213 -258 308 -313 258 -152 628 -144 938 21 101 54 213
135 238 173 17 24 19 52 22 227 2 176 1 204 -15 235 -30 58 -39 60 -352 60
-251 0 -287 2 -303 17 -16 14 -18 34 -18 193 0 136 3 181 14 196 14 18 32 19
566 19 l552 0 19 -24 c18 -22 19 -46 18 -585 0 -407 -3 -570 -12 -596 -39
-112 -461 -345 -777 -429 -451 -119 -949 -35 -1285 217 -298 223 -496 617
-561 1117 -21 163 -14 454 14 620 65 370 217 684 434 896 177 174 399 290 638
335 153 29 272 34 478 19z"/>
<path d="M4183 6123 c-39 -5 -79 -43 -87 -84 -3 -18 -6 -136 -6 -263 0 -253 7
-286 60 -313 19 -10 122 -13 406 -13 356 0 382 -1 397 -18 16 -17 17 -123 17
-1321 0 -1425 -3 -1353 59 -1385 43 -23 554 -24 607 -1 68 28 64 -57 64 1389
l0 1305 22 15 c19 14 75 16 405 16 l383 0 32 29 33 29 3 250 c4 276 -2 321
-45 350 -25 16 -100 17 -1173 18 -630 1 -1159 -1 -1177 -3z m2249 -140 c16
-14 18 -34 18 -198 0 -158 -2 -184 -17 -196 -13 -11 -96 -15 -409 -19 l-394
-5 -27 -28 -28 -27 -3 -1322 c-2 -948 -5 -1325 -13 -1335 -9 -10 -58 -13 -220
-13 -175 0 -210 2 -223 16 -14 14 -16 147 -16 1321 0 1417 2 1353 -53 1381
-15 8 -145 13 -408 14 -310 2 -389 6 -402 17 -15 12 -17 38 -17 194 0 154 2
183 17 199 15 17 63 18 1096 18 991 0 1082 -1 1099 -17z"/>
<path d="M6940 6123 c-44 -7 -73 -27 -87 -60 -21 -50 -19 -3238 2 -3289 25
-60 48 -64 348 -64 277 0 318 5 340 44 9 16 13 180 17 657 4 519 8 639 19 652
28 35 239 18 336 -27 130 -59 161 -102 633 -881 123 -203 236 -382 250 -398
14 -15 42 -32 62 -38 22 -6 157 -9 367 -7 l331 3 27 25 c24 22 26 31 23 75 -4
43 -31 97 -188 375 -339 601 -408 708 -567 871 -57 58 -103 113 -103 121 0 14
59 45 143 77 56 22 169 102 236 169 185 186 262 393 263 712 0 219 -26 349
-102 500 -103 205 -289 370 -480 423 -200 56 -392 67 -1175 66 -368 -1 -681
-4 -695 -6z m1500 -134 c405 -36 585 -137 720 -401 78 -151 103 -259 103 -438
0 -157 -13 -237 -58 -356 -94 -250 -268 -397 -566 -478 -99 -27 -135 -75 -104
-139 8 -18 49 -59 90 -91 102 -80 207 -192 286 -306 132 -190 522 -878 517
-912 l-3 -23 -249 -3 c-205 -2 -253 0 -271 12 -13 8 -130 192 -261 408 -407
673 -497 798 -637 881 -78 47 -160 62 -349 62 l-157 0 -28 -28 -28 -27 -3
-637 c-2 -573 -4 -639 -19 -655 -14 -16 -36 -18 -219 -18 -171 0 -205 2 -218
16 -14 14 -16 169 -16 1561 0 1425 1 1548 17 1565 15 17 49 18 677 18 379 0
710 -5 776 -11z"/>
<path d="M7487 5559 c-45 -26 -47 -44 -47 -473 l0 -406 29 -32 29 -33 409 0
c442 0 538 8 631 50 69 31 161 124 195 196 59 126 57 347 -4 476 -53 112 -180
200 -319 222 -86 14 -899 14 -923 0z m943 -145 c148 -46 213 -143 213 -319 1
-113 -26 -188 -88 -250 -87 -88 -195 -105 -646 -105 -282 0 -318 2 -330 17
-11 13 -14 80 -14 340 0 313 1 325 20 340 17 13 67 14 391 9 364 -6 374 -6
454 -32z"/>
<path d="M9926 6120 c-24 -4 -49 -18 -63 -34 l-23 -27 0 -1639 0 -1640 29 -32
29 -33 1131 0 1131 0 27 28 28 27 0 285 c0 277 -1 285 -21 306 -12 12 -41 25
-65 30 -24 4 -380 8 -791 9 l-748 0 -15 24 c-14 20 -15 70 -13 369 2 190 6
349 10 352 20 20 146 24 758 25 702 1 683 -1 708 47 15 28 17 546 2 574 -27
49 -20 49 -755 49 -677 0 -685 0 -705 20 -20 20 -21 30 -18 291 3 255 4 271
22 285 17 12 138 14 769 14 l749 0 28 28 c24 24 29 39 35 105 4 42 6 166 3
274 -3 168 -6 202 -21 225 -10 14 -26 30 -35 35 -21 10 -2133 14 -2186 3z
m2096 -137 c16 -14 18 -34 18 -193 0 -136 -3 -181 -14 -196 -14 -18 -37 -19
-776 -24 l-762 -5 -24 -28 -24 -28 0 -364 c0 -363 0 -364 23 -390 12 -14 40
-30 62 -35 22 -5 335 -10 707 -10 592 0 668 -2 682 -16 23 -23 23 -349 0 -382
l-15 -22 -690 0 c-740 0 -732 0 -759 -49 -14 -28 -14 -895 1 -923 26 -48 26
-48 842 -48 643 0 766 -2 783 -14 18 -13 19 -28 19 -199 0 -141 -3 -188 -14
-200 -12 -16 -98 -17 -1052 -17 l-1038 0 -15 22 c-14 20 -16 185 -16 1560 0
1525 0 1538 20 1558 20 20 33 20 1022 20 918 0 1003 -1 1020 -17z"/>
<path d="M12696 6121 c-45 -10 -73 -38 -81 -84 -3 -18 -4 -760 -3 -1649 l3
-1618 28 -27 27 -28 258 -3 c167 -2 270 1 294 8 72 21 68 -30 68 932 0 475 3
880 6 901 7 40 22 47 46 20 9 -10 235 -412 503 -893 268 -481 499 -890 513
-909 43 -58 62 -61 366 -61 151 0 286 4 299 9 14 6 35 20 46 32 l21 23 0 1644
0 1644 -28 28 c-23 23 -41 29 -94 35 -108 12 -479 2 -506 -14 -53 -29 -52 -10
-52 -979 0 -982 1 -971 -52 -901 -14 19 -247 434 -518 923 -270 489 -499 900
-508 912 -42 56 -56 59 -337 61 -143 1 -278 -2 -299 -6z m526 -153 c17 -18
275 -476 574 -1018 300 -542 556 -1002 570 -1023 45 -69 124 -81 156 -25 10
18 14 229 18 1051 4 899 7 1029 20 1037 8 5 97 10 197 10 177 0 182 -1 197
-22 14 -20 16 -185 16 -1565 0 -1388 -2 -1543 -16 -1557 -13 -14 -49 -16 -239
-16 -198 0 -225 2 -243 18 -12 9 -268 461 -571 1004 -303 543 -559 1000 -571
1016 -12 16 -34 36 -50 46 -26 15 -34 15 -57 4 -15 -7 -33 -24 -40 -38 -10
-20 -13 -237 -13 -1015 0 -880 -2 -993 -16 -1013 -15 -21 -20 -22 -203 -22
-132 0 -191 4 -199 12 -9 9 -12 370 -12 1564 0 1398 2 1554 16 1568 13 14 48
16 226 16 l211 0 29 -32z"/>
<path d="M18725 6124 c-11 -3 -30 -7 -43 -10 -12 -2 -31 -19 -42 -37 -18 -30
-20 -51 -20 -295 l0 -264 34 -34 34 -34 384 0 c316 0 388 -3 404 -14 19 -14
19 -42 24 -1340 l5 -1326 28 -27 27 -28 278 -3 c301 -4 338 1 368 46 18 26 19
81 24 1349 3 727 9 1325 13 1330 5 4 189 10 409 13 l400 5 24 28 24 28 0 274
0 275 -29 32 -29 33 -1149 1 c-631 1 -1157 0 -1168 -2z m2235 -144 c18 -18 20
-33 20 -193 0 -134 -3 -178 -14 -193 -14 -18 -31 -19 -398 -22 -211 -1 -393
-4 -406 -7 -12 -3 -31 -20 -42 -38 -20 -31 -20 -57 -20 -1344 0 -1179 -2
-1313 -16 -1327 -13 -14 -48 -16 -223 -16 -182 0 -210 2 -222 17 -12 13 -15
238 -19 1339 l-5 1323 -23 23 c-22 23 -23 23 -417 28 -361 5 -396 6 -412 23
-16 16 -18 38 -18 198 0 167 1 182 19 195 17 12 183 14 1098 14 1065 0 1078 0
1098 -20z"/>
<path d="M21453 6121 c-41 -10 -58 -24 -72 -59 -8 -20 -11 -471 -9 -1659 l3
-1633 28 -27 27 -28 300 0 300 0 27 28 28 27 5 676 c5 659 5 676 25 690 17 12
95 14 511 12 271 -2 496 -7 501 -11 4 -5 10 -311 13 -680 5 -628 6 -674 23
-699 10 -14 32 -31 49 -37 46 -16 565 -14 598 2 14 7 33 28 42 47 17 33 18
132 18 1640 0 1084 -3 1617 -11 1643 -19 71 -26 72 -356 72 l-293 0 -26 -27
c-18 -17 -30 -43 -35 -75 -4 -26 -8 -298 -9 -603 0 -331 -4 -561 -10 -570 -8
-13 -77 -15 -504 -18 -486 -2 -496 -2 -516 18 -20 20 -20 31 -20 604 0 348 -4
595 -10 610 -5 14 -21 33 -37 43 -24 16 -56 18 -293 20 -146 1 -280 -2 -297
-6z m493 -135 c18 -14 19 -35 24 -621 l5 -607 28 -24 28 -24 585 0 c382 0 592
4 605 10 49 27 49 28 49 655 0 572 0 585 20 605 19 19 33 20 219 20 168 0 202
-2 215 -16 14 -14 16 -169 16 -1560 0 -1046 -3 -1552 -10 -1565 -10 -18 -23
-19 -220 -19 -176 0 -211 2 -224 16 -14 14 -16 88 -16 668 0 440 -4 663 -11
684 -22 64 2 62 -644 62 l-587 0 -29 -29 -29 -29 0 -659 c0 -510 -3 -664 -13
-683 l-13 -25 -210 -3 c-187 -2 -213 0 -225 14 -12 14 -14 259 -14 1566 0
1522 0 1550 19 1564 29 20 403 20 432 0z"/>
</g>
</svg>
