<?xml version="1.0" standalone="no"?>
<!DOCTYPE svg PUBLIC "-//W3C//DTD SVG 20010904//EN"
 "http://www.w3.org/TR/2001/REC-SVG-20010904/DTD/svg10.dtd">
<svg version="1.0" xmlns="http://www.w3.org/2000/svg"
 width="2550.000000pt" height="3300.000000pt" viewBox="0 0 2550.000000 3300.000000"
 preserveAspectRatio="xMidYMid meet">
<metadata>
Created by potrace 1.14, written by Peter Selinger 2001-2017
</metadata>
<g transform="translate(0.000000,3300.000000) scale(0.100000,-0.100000)"
fill="#000000" stroke="none">
<path d="M11780 30590 c-8 -5 -74 -10 -146 -10 -87 0 -147 -5 -180 -15 -27 -8
-83 -15 -124 -15 -41 -1 -93 -7 -115 -15 -22 -8 -68 -15 -102 -15 -34 0 -74
-5 -90 -11 -15 -7 -59 -15 -98 -19 -66 -8 -105 -15 -215 -42 -25 -6 -74 -14
-110 -18 -36 -4 -101 -17 -144 -29 -44 -11 -91 -21 -106 -21 -15 0 -47 -7 -70
-15 -23 -8 -65 -15 -92 -15 -27 0 -65 -7 -85 -15 -19 -8 -44 -15 -55 -15 -11
0 -41 -7 -67 -15 -25 -8 -104 -29 -176 -46 -71 -17 -209 -55 -305 -85 -267
-85 -334 -105 -347 -104 -18 0 -216 -66 -287 -96 -33 -14 -81 -35 -106 -45
-25 -10 -90 -35 -145 -55 -55 -20 -148 -53 -206 -74 -58 -21 -133 -52 -165
-68 -32 -16 -70 -33 -84 -36 -54 -15 -610 -285 -785 -381 -44 -25 -86 -44 -94
-45 -7 0 -32 -12 -55 -26 -108 -67 -157 -96 -231 -135 -44 -23 -93 -52 -110
-64 -16 -13 -61 -39 -100 -58 -38 -20 -101 -59 -140 -86 -113 -81 -135 -95
-240 -156 -55 -32 -113 -70 -130 -85 -16 -14 -82 -61 -145 -102 -63 -42 -143
-98 -176 -125 -34 -26 -86 -67 -115 -90 -30 -23 -70 -55 -89 -71 -19 -16 -53
-40 -75 -54 -22 -14 -47 -33 -54 -42 -8 -10 -28 -24 -45 -33 -17 -9 -58 -42
-91 -73 -33 -31 -80 -71 -105 -88 -25 -16 -67 -53 -95 -82 -27 -28 -70 -65
-95 -82 -63 -42 -201 -173 -573 -545 -333 -332 -476 -483 -517 -543 -13 -19
-59 -72 -102 -117 -43 -46 -78 -88 -78 -94 0 -6 -26 -38 -58 -72 -33 -34 -72
-82 -89 -107 -17 -25 -41 -54 -53 -65 -13 -11 -47 -58 -77 -103 -30 -46 -76
-108 -101 -138 -70 -80 -93 -110 -161 -209 -34 -49 -82 -117 -106 -150 -24
-33 -66 -95 -92 -139 -26 -43 -88 -140 -138 -216 -91 -141 -111 -174 -200
-330 -90 -158 -110 -192 -142 -241 -41 -60 -373 -724 -373 -745 0 -8 -29 -72
-64 -142 -35 -70 -69 -145 -76 -167 -7 -22 -25 -65 -41 -96 -15 -30 -44 -104
-64 -165 -19 -60 -50 -143 -67 -184 -17 -41 -41 -100 -53 -130 -31 -73 -145
-421 -145 -440 0 -8 -11 -46 -25 -85 -13 -38 -25 -78 -25 -88 0 -10 -25 -92
-55 -183 -31 -90 -60 -183 -65 -207 -4 -23 -24 -105 -43 -182 -48 -194 -57
-240 -66 -320 -5 -38 -13 -83 -20 -98 -6 -16 -11 -43 -11 -62 0 -19 -5 -46
-11 -62 -6 -15 -15 -53 -19 -83 -5 -30 -14 -77 -20 -105 -6 -27 -15 -72 -20
-100 -5 -27 -14 -79 -20 -115 -6 -36 -15 -103 -19 -150 -4 -47 -13 -98 -20
-113 -6 -16 -11 -54 -11 -86 0 -32 -7 -78 -15 -101 -10 -29 -15 -81 -15 -160
0 -79 -5 -131 -15 -160 -11 -31 -15 -87 -15 -214 0 -123 -4 -185 -15 -220 -22
-73 -22 -1009 0 -1082 11 -36 15 -99 15 -235 0 -140 4 -197 15 -229 10 -27 15
-79 15 -145 0 -66 5 -118 15 -145 8 -23 15 -75 15 -115 0 -40 7 -92 15 -115 8
-23 15 -65 15 -92 0 -27 4 -58 10 -68 9 -17 20 -87 40 -256 4 -40 13 -81 19
-92 6 -12 11 -36 11 -55 0 -19 7 -54 15 -77 8 -23 15 -57 15 -75 0 -18 7 -52
15 -75 8 -23 15 -63 15 -87 0 -25 7 -66 15 -92 8 -25 37 -136 64 -246 53 -218
73 -288 131 -470 21 -66 45 -154 55 -195 9 -41 31 -113 47 -160 112 -322 137
-390 144 -401 4 -7 22 -53 39 -103 36 -101 66 -175 101 -254 13 -29 24 -58 24
-66 0 -7 34 -82 75 -166 41 -84 75 -159 75 -167 0 -13 65 -156 101 -223 11
-19 78 -152 150 -295 72 -143 147 -285 166 -315 66 -104 102 -165 141 -240 22
-41 74 -126 116 -188 41 -62 83 -127 92 -145 22 -43 224 -346 235 -353 5 -3
44 -58 86 -122 42 -64 97 -139 121 -167 25 -27 55 -66 68 -85 14 -19 47 -64
74 -100 27 -36 64 -85 81 -110 18 -25 58 -73 91 -107 32 -34 58 -66 58 -71 0
-6 34 -47 75 -92 41 -45 75 -86 75 -91 0 -5 45 -56 100 -114 55 -57 100 -108
100 -113 0 -13 669 -685 715 -718 22 -15 95 -81 162 -146 66 -65 126 -118 132
-118 6 0 40 -27 77 -60 36 -33 70 -60 75 -60 6 0 50 -38 100 -85 49 -47 93
-85 99 -85 5 0 29 -17 54 -37 25 -21 73 -58 106 -83 34 -25 84 -63 113 -86 29
-22 85 -61 124 -88 40 -26 75 -51 78 -56 3 -5 49 -39 103 -75 53 -36 129 -88
167 -116 39 -28 102 -66 140 -86 39 -19 81 -45 95 -57 46 -41 129 -95 202
-132 40 -20 102 -57 137 -81 35 -25 83 -53 107 -64 24 -10 81 -43 126 -73 46
-29 107 -61 136 -71 29 -9 74 -32 101 -50 59 -41 328 -176 393 -199 26 -8 87
-35 135 -60 49 -24 99 -47 113 -51 14 -4 54 -24 90 -45 36 -21 79 -42 95 -46
17 -4 47 -15 67 -25 21 -11 77 -32 125 -48 48 -16 108 -38 133 -50 25 -11 57
-21 71 -21 15 0 37 -8 50 -19 28 -22 137 -69 194 -83 22 -6 157 -48 300 -94
552 -175 535 -170 680 -199 117 -23 159 -33 188 -44 16 -6 43 -11 61 -11 18 0
52 -6 77 -14 71 -22 140 -38 194 -47 28 -4 100 -19 160 -33 185 -44 194 -46
238 -46 23 -1 60 -7 82 -15 22 -8 61 -15 86 -15 26 0 66 -7 89 -15 23 -8 69
-15 101 -15 32 0 70 -5 85 -10 14 -6 68 -12 120 -15 51 -2 102 -8 113 -14 11
-6 51 -11 88 -11 128 2 458 -17 498 -28 27 -8 233 -12 645 -12 507 0 615 2
663 15 39 10 107 15 211 15 111 0 165 4 196 15 30 10 83 15 177 15 96 0 144 4
170 15 19 8 50 15 68 15 18 0 52 7 75 15 24 9 77 15 122 15 44 0 88 4 98 10
10 5 47 14 82 20 84 13 188 34 268 55 36 9 97 20 135 24 39 5 83 13 98 20 16
6 43 11 62 11 19 0 46 5 62 11 15 6 53 15 83 19 62 9 109 21 225 55 163 48
193 55 224 55 18 0 63 14 101 30 38 16 78 30 89 30 11 0 45 11 75 24 29 13 69
27 87 31 72 15 557 179 614 208 82 41 191 77 233 77 22 0 53 11 81 29 25 16
71 40 101 54 91 41 204 87 214 87 6 0 26 11 46 25 38 26 174 87 245 110 65 20
325 154 364 187 20 16 62 40 94 53 32 13 75 35 95 48 21 14 48 28 62 32 14 5
57 29 95 55 39 26 87 52 107 59 20 7 42 19 48 26 7 8 30 20 52 25 21 6 56 26
76 44 20 18 54 39 75 45 21 7 48 26 60 43 24 33 95 86 154 116 49 25 340 219
348 232 3 5 58 44 123 86 64 42 144 102 177 134 33 32 85 70 114 85 30 14 74
46 100 69 25 24 55 48 66 54 21 11 112 87 209 173 34 31 76 65 92 75 16 11 72
61 124 112 52 51 114 104 136 118 24 14 57 48 78 80 22 33 57 68 89 89 60 39
334 313 365 365 24 41 71 87 125 123 22 14 54 47 72 74 18 26 71 87 117 134
46 47 106 116 133 154 28 37 75 96 106 129 31 34 69 81 86 106 17 25 41 54 53
65 12 11 49 61 82 110 33 50 82 113 108 140 27 28 82 100 122 160 87 130 134
194 206 277 28 33 52 68 52 78 0 22 138 230 191 287 21 23 39 50 39 58 0 26
71 158 106 198 19 20 34 45 34 55 0 10 24 54 54 98 29 45 59 97 65 117 7 19
18 41 26 47 8 6 21 36 30 66 9 32 33 75 60 108 44 54 105 164 105 189 0 7 15
36 34 66 19 29 49 96 66 149 35 104 88 218 125 267 12 17 28 48 35 70 7 22 26
66 42 98 26 53 51 119 109 287 12 36 34 92 50 125 15 33 48 122 73 197 24 76
53 150 64 165 11 16 25 55 30 88 20 112 32 160 58 230 75 200 114 324 114 365
0 30 9 59 25 85 17 27 25 55 25 84 0 24 7 68 15 98 8 29 22 77 30 106 8 30 15
68 15 85 0 17 5 43 11 59 6 15 15 46 19 68 5 22 17 69 26 105 8 36 18 79 20
95 5 30 23 115 44 210 7 28 15 82 20 120 4 39 12 83 19 98 6 16 11 50 11 76 0
27 7 68 15 91 8 23 15 69 15 101 0 32 5 70 12 86 12 29 22 203 36 603 5 136
13 236 20 253 17 40 17 1173 0 1214 -7 16 -15 115 -20 228 -10 267 -23 424
-37 458 -6 16 -11 63 -11 105 -1 42 -7 95 -15 117 -9 24 -15 77 -15 131 0 58
-5 105 -15 127 -8 20 -15 52 -15 70 0 19 -7 54 -15 77 -8 23 -15 57 -15 76 0
18 -5 45 -10 60 -6 15 -15 52 -20 83 -5 31 -12 72 -15 91 -9 55 -36 171 -51
219 -8 25 -14 59 -14 77 0 18 -5 45 -11 61 -7 15 -15 46 -20 68 -8 37 -16 72
-52 215 -8 30 -30 107 -50 170 -20 63 -56 185 -82 270 -81 273 -168 533 -197
594 -28 56 -55 126 -137 356 -21 58 -59 147 -84 197 -26 51 -47 99 -47 107 0
7 -30 74 -66 147 -37 74 -72 155 -80 180 -8 25 -27 64 -44 87 -16 23 -86 153
-155 289 -116 228 -154 297 -216 393 -12 19 -44 73 -69 120 -68 124 -115 201
-144 236 -36 43 -95 132 -117 177 -30 59 -200 303 -262 377 -15 18 -40 56 -54
84 -14 28 -51 78 -83 111 -31 33 -76 89 -99 125 -45 71 -108 149 -213 266 -38
41 -68 80 -68 85 0 6 -31 43 -70 84 -38 41 -70 79 -70 85 0 6 -58 71 -130 145
-72 73 -130 139 -130 146 0 17 -546 565 -590 591 -19 12 -85 70 -147 130 -61
59 -116 108 -122 108 -6 0 -51 38 -100 85 -50 47 -94 85 -99 85 -5 0 -37 24
-71 53 -105 90 -185 156 -218 179 -17 13 -58 42 -90 64 -32 23 -67 52 -78 64
-11 13 -85 67 -165 121 -80 54 -176 124 -215 154 -38 31 -90 66 -115 79 -25
13 -115 71 -201 129 -86 58 -198 126 -249 152 -51 26 -129 71 -173 102 -44 30
-115 72 -158 93 -43 22 -80 44 -83 49 -4 5 -37 21 -74 35 -38 15 -93 42 -123
61 -71 45 -427 225 -445 225 -8 0 -72 29 -142 64 -70 35 -145 69 -167 76 -22
7 -62 24 -90 38 -27 14 -90 40 -140 58 -49 17 -126 46 -170 64 -230 93 -458
172 -720 250 -77 23 -196 59 -265 81 -69 21 -143 43 -165 48 -83 19 -300 74
-365 92 -25 7 -74 16 -110 20 -36 4 -87 12 -115 19 -27 6 -99 22 -160 35 -60
13 -132 29 -160 35 -27 7 -81 15 -120 20 -38 4 -83 12 -98 19 -16 6 -50 11
-76 11 -27 0 -68 7 -91 15 -23 8 -68 15 -100 15 -32 0 -77 7 -100 15 -23 8
-75 15 -116 15 -40 0 -85 5 -101 12 -15 6 -93 15 -173 21 -207 13 -1941 19
-1960 7z m1753 -122 c12 -7 85 -15 162 -19 193 -10 345 -25 378 -38 16 -6 56
-11 90 -11 34 -1 80 -7 102 -15 22 -8 61 -15 86 -15 26 0 66 -7 89 -15 23 -8
64 -15 91 -15 26 0 60 -5 76 -11 15 -6 53 -15 83 -19 30 -5 82 -16 115 -25 82
-21 208 -46 280 -54 33 -4 80 -13 105 -20 25 -7 70 -19 100 -26 30 -7 84 -21
120 -30 36 -9 92 -23 125 -31 33 -9 115 -33 183 -55 67 -21 129 -39 136 -39 8
0 76 -20 150 -45 75 -25 144 -45 152 -45 18 0 232 -73 263 -90 12 -6 55 -22
95 -35 40 -13 93 -33 117 -43 84 -37 154 -65 250 -97 52 -18 122 -46 155 -63
32 -16 70 -33 84 -36 52 -15 502 -233 915 -444 101 -52 209 -114 269 -156 38
-26 110 -68 160 -93 50 -25 170 -98 267 -162 97 -64 196 -128 220 -143 24 -15
73 -50 109 -78 36 -27 126 -91 200 -141 74 -51 156 -110 181 -133 26 -23 74
-61 109 -86 34 -25 82 -63 108 -86 26 -22 63 -51 82 -64 19 -13 59 -45 88 -72
30 -26 58 -48 63 -48 6 0 50 -38 100 -85 49 -47 94 -85 100 -85 6 0 58 -46
117 -103 59 -57 130 -119 157 -139 59 -43 505 -490 505 -507 0 -7 59 -72 130
-146 72 -74 130 -139 130 -145 0 -6 32 -44 70 -85 39 -41 70 -79 70 -84 0 -6
28 -41 63 -78 35 -38 77 -88 94 -113 17 -25 40 -54 52 -65 12 -10 43 -51 68
-90 26 -38 72 -97 103 -130 32 -33 69 -83 83 -111 14 -28 39 -66 54 -84 59
-70 170 -232 311 -452 29 -46 68 -102 85 -125 35 -45 80 -120 135 -223 19 -36
49 -87 67 -115 51 -78 76 -124 204 -376 66 -130 138 -264 160 -298 22 -35 45
-79 51 -99 6 -20 42 -102 79 -182 38 -80 91 -194 119 -255 29 -60 63 -145 77
-188 14 -43 32 -92 40 -107 8 -16 28 -69 44 -117 15 -48 42 -115 58 -148 28
-55 72 -186 197 -585 26 -80 46 -151 46 -159 0 -7 18 -68 39 -135 37 -113 48
-153 85 -303 8 -32 20 -78 26 -103 7 -25 16 -67 21 -95 4 -27 15 -79 24 -115
9 -36 20 -90 25 -120 4 -30 13 -68 19 -83 6 -16 11 -43 11 -61 0 -19 7 -53 15
-76 8 -23 15 -57 15 -75 0 -18 7 -52 15 -75 8 -23 15 -58 15 -77 0 -19 5 -44
12 -56 6 -12 15 -74 20 -137 13 -205 27 -329 37 -349 6 -11 11 -62 11 -113 1
-55 7 -109 15 -133 11 -29 15 -89 15 -215 1 -126 5 -186 15 -215 22 -61 22
-1056 0 -1108 -12 -28 -15 -82 -15 -239 0 -151 -4 -216 -15 -252 -9 -29 -15
-89 -15 -147 0 -54 -5 -110 -11 -126 -6 -15 -15 -73 -20 -128 -15 -171 -27
-252 -38 -273 -6 -12 -11 -43 -11 -70 0 -27 -7 -69 -15 -92 -8 -23 -15 -57
-15 -75 0 -18 -7 -52 -15 -75 -8 -23 -15 -67 -15 -98 0 -30 -7 -78 -15 -106
-28 -98 -57 -221 -65 -277 -4 -30 -12 -71 -18 -90 -6 -19 -18 -63 -27 -99 -9
-36 -29 -108 -46 -161 -16 -52 -29 -114 -29 -138 0 -43 -53 -217 -87 -287 -11
-21 -27 -68 -37 -104 -40 -150 -191 -598 -212 -630 -12 -19 -26 -53 -30 -75
-4 -22 -14 -56 -24 -75 -9 -19 -27 -66 -40 -105 -21 -67 -96 -243 -125 -295
-57 -101 -116 -227 -139 -295 -14 -44 -37 -98 -51 -120 -30 -49 -37 -65 -65
-135 -11 -30 -34 -73 -50 -95 -64 -86 -91 -131 -100 -166 -6 -20 -18 -47 -28
-60 -11 -13 -24 -38 -30 -56 -6 -17 -29 -60 -52 -95 -24 -35 -52 -85 -65 -113
-12 -27 -32 -59 -45 -70 -12 -11 -38 -51 -57 -90 -36 -72 -368 -580 -408 -625
-13 -14 -63 -86 -113 -160 -50 -74 -107 -151 -127 -170 -21 -19 -60 -68 -86
-109 -54 -81 -125 -170 -210 -264 -30 -34 -66 -78 -79 -97 -13 -19 -56 -69
-97 -111 -40 -42 -73 -82 -73 -89 0 -7 -76 -89 -169 -184 -92 -94 -175 -184
-184 -201 -18 -36 -260 -275 -277 -275 -7 0 -84 -70 -170 -155 -87 -85 -163
-155 -169 -155 -6 0 -51 -38 -100 -85 -50 -47 -94 -85 -100 -85 -5 0 -33 -22
-63 -48 -29 -26 -75 -64 -103 -84 -27 -20 -75 -62 -105 -92 -40 -42 -71 -62
-120 -81 -54 -21 -70 -32 -92 -68 -31 -49 -164 -143 -736 -520 -48 -31 -100
-67 -117 -78 -71 -48 -154 -97 -176 -104 -13 -4 -73 -40 -134 -80 -60 -39
-132 -83 -160 -97 -27 -14 -68 -35 -90 -47 -22 -12 -65 -30 -96 -42 -32 -11
-77 -37 -101 -59 -43 -38 -276 -160 -305 -160 -7 0 -35 -11 -61 -24 -26 -13
-61 -27 -78 -30 -18 -4 -54 -21 -80 -38 -48 -30 -142 -72 -239 -107 -28 -10
-73 -30 -101 -44 -28 -14 -107 -44 -174 -67 -67 -23 -146 -53 -174 -67 -57
-29 -600 -213 -629 -213 -10 0 -49 -13 -87 -30 -38 -16 -79 -30 -92 -30 -13 0
-47 -12 -77 -25 -30 -14 -80 -30 -110 -35 -72 -11 -159 -32 -241 -58 -128 -40
-177 -52 -208 -52 -17 0 -43 -5 -59 -11 -15 -6 -53 -15 -83 -20 -157 -24 -251
-43 -455 -89 -27 -6 -75 -15 -105 -20 -30 -4 -68 -13 -83 -19 -16 -6 -63 -11
-105 -11 -42 0 -95 -7 -117 -15 -22 -8 -75 -14 -118 -15 -43 0 -88 -5 -100
-12 -24 -13 -162 -24 -447 -37 -102 -4 -198 -13 -213 -19 -41 -17 -1209 -17
-1240 0 -13 8 -94 15 -207 20 -278 11 -423 23 -447 36 -12 7 -57 12 -101 12
-45 0 -98 6 -122 15 -25 9 -78 15 -131 15 -48 0 -100 5 -116 11 -15 7 -59 15
-98 19 -38 5 -92 13 -120 20 -27 6 -99 22 -160 35 -60 13 -132 29 -160 35 -27
6 -77 18 -110 26 -33 8 -82 19 -110 23 -27 4 -69 13 -92 19 -24 7 -62 17 -85
24 -24 6 -65 15 -93 19 -79 12 -162 33 -278 73 -59 20 -113 36 -121 36 -7 0
-128 38 -267 83 -140 46 -272 89 -294 94 -71 19 -169 64 -214 99 -30 23 -55
34 -77 34 -63 0 -380 116 -464 170 -26 16 -52 30 -59 30 -6 0 -55 22 -109 49
-53 26 -115 54 -137 61 -56 18 -383 183 -425 215 -19 14 -59 33 -87 41 -29 9
-94 43 -145 76 -51 33 -106 65 -123 71 -16 6 -59 30 -94 55 -36 24 -96 59
-135 79 -76 38 -133 76 -206 134 -25 20 -74 51 -110 69 -68 34 -196 115 -205
130 -3 5 -38 30 -78 56 -39 26 -92 64 -117 84 -25 20 -72 54 -105 75 -33 22
-76 53 -97 70 -20 16 -55 44 -78 60 -23 17 -66 48 -96 70 -29 22 -75 55 -101
74 -26 19 -82 66 -125 105 -42 39 -111 98 -154 131 -43 33 -130 110 -194 171
-63 62 -133 123 -155 136 -22 14 -56 44 -75 67 -19 23 -48 55 -65 71 -336 326
-530 521 -542 545 -9 17 -57 74 -107 127 -141 151 -191 209 -224 258 -17 25
-47 61 -67 80 -20 19 -55 60 -76 90 -22 30 -62 84 -89 120 -27 36 -67 90 -89
120 -21 30 -48 64 -60 75 -12 10 -60 77 -107 147 -47 70 -90 130 -95 134 -11
6 -210 306 -232 349 -8 17 -53 87 -101 157 -47 70 -99 155 -117 189 -17 34
-45 85 -63 113 -70 110 -109 181 -231 426 -70 140 -137 269 -150 285 -12 17
-25 41 -29 55 -9 28 -59 141 -152 340 -35 74 -73 160 -85 190 -11 30 -35 89
-51 130 -17 41 -47 122 -67 180 -21 58 -42 114 -48 125 -7 12 -30 77 -53 144
-23 68 -49 140 -59 160 -24 47 -48 127 -80 271 -4 19 -26 94 -48 165 -80 255
-132 444 -153 557 -5 26 -13 56 -19 67 -6 11 -11 31 -11 44 0 14 -7 41 -15 60
-8 20 -15 59 -15 86 0 27 -5 62 -11 78 -6 15 -15 53 -20 83 -4 30 -15 89 -24
130 -8 41 -20 110 -24 152 -5 42 -14 86 -20 97 -6 11 -11 42 -11 69 0 27 -7
69 -15 92 -8 23 -15 64 -15 90 0 26 -7 67 -15 90 -8 23 -15 75 -15 115 0 40
-7 92 -15 115 -10 27 -15 80 -15 146 0 56 -5 115 -12 131 -18 43 -29 407 -29
948 -1 530 11 873 29 918 7 16 12 79 12 146 0 80 5 132 15 161 8 23 15 68 15
100 0 32 7 77 15 100 8 23 15 71 15 105 0 34 7 82 15 105 8 23 15 62 15 86 0
23 5 55 10 70 6 14 15 54 20 88 6 33 17 95 26 136 8 41 19 100 23 130 5 30 14
68 20 83 6 16 11 51 11 78 0 27 7 66 15 86 8 19 15 49 15 66 0 17 7 53 15 81
8 28 31 116 50 196 19 80 58 217 86 305 74 232 96 306 104 345 9 44 119 375
144 433 36 82 63 154 111 292 26 77 61 169 78 205 129 275 172 368 178 390 10
37 339 693 378 753 52 83 101 168 131 227 15 30 37 69 50 85 12 17 31 48 43
70 11 22 58 97 105 167 47 69 95 144 105 165 24 46 146 230 172 258 11 11 43
54 72 97 94 136 112 160 158 212 25 28 71 89 102 136 30 47 66 94 78 105 12
11 36 40 53 65 29 44 47 64 223 259 46 51 84 97 84 103 0 5 42 53 93 106 52
54 101 111 110 127 19 36 578 595 595 595 7 0 66 52 132 115 66 63 124 115
130 115 5 0 51 38 102 85 182 166 214 193 255 218 23 15 44 31 48 37 4 7 30
27 59 46 64 43 126 90 196 149 90 76 133 107 442 318 48 33 133 85 223 138 28
16 73 47 100 69 28 22 86 59 130 81 44 23 94 52 110 64 17 12 64 39 105 60 41
21 88 48 105 60 16 13 53 35 80 50 28 14 66 35 85 45 19 11 65 33 102 49 38
16 83 41 100 54 39 30 372 197 391 197 8 0 83 34 167 75 84 41 160 75 167 75
7 0 42 14 76 32 34 17 103 46 152 64 164 59 329 121 410 154 98 40 274 99 420
140 61 17 189 56 285 86 96 29 200 60 230 68 30 7 75 19 100 25 25 7 56 14 70
17 14 3 48 11 75 19 115 32 143 38 205 46 101 12 285 50 333 68 16 6 50 11 76
11 27 0 68 7 91 15 23 8 57 15 75 15 18 0 49 7 68 15 20 8 58 15 85 15 27 0
69 7 92 15 23 8 71 15 107 15 35 0 73 5 84 11 24 12 177 27 389 38 85 4 166
13 180 19 37 16 1663 16 1693 0z"/>
<path d="M12090 28890 c-8 -5 -51 -10 -95 -10 -44 -1 -100 -6 -125 -11 -25 -6
-83 -14 -130 -18 -47 -5 -96 -13 -107 -20 -12 -6 -64 -11 -117 -11 -52 0 -107
-5 -123 -11 -15 -7 -46 -15 -68 -20 -22 -4 -60 -13 -85 -19 -25 -7 -70 -19
-100 -26 -115 -30 -355 -104 -540 -167 -25 -8 -117 -38 -205 -66 -101 -32
-181 -64 -215 -86 -30 -19 -60 -35 -67 -35 -6 0 -62 -25 -124 -55 -62 -30
-123 -55 -136 -55 -37 0 -94 -27 -143 -69 -26 -22 -96 -64 -157 -95 -61 -30
-114 -60 -117 -65 -4 -5 -23 -15 -44 -22 -20 -6 -50 -22 -67 -34 -16 -12 -52
-34 -80 -48 -27 -14 -61 -37 -75 -52 -34 -37 -127 -99 -191 -128 -30 -14 -65
-37 -79 -52 -14 -15 -45 -41 -70 -58 -25 -17 -66 -49 -91 -71 -26 -23 -75 -61
-109 -86 -34 -25 -99 -79 -144 -121 -45 -42 -95 -83 -111 -92 -36 -19 -545
-528 -545 -545 0 -6 -37 -52 -82 -102 -100 -108 -166 -189 -239 -293 -106
-152 -121 -172 -164 -218 -24 -26 -60 -80 -81 -120 -20 -41 -52 -94 -71 -119
-65 -85 -119 -182 -192 -340 -10 -23 -53 -96 -128 -221 -18 -30 -40 -74 -49
-99 -8 -25 -26 -69 -40 -98 -13 -29 -24 -58 -24 -65 0 -6 -18 -50 -40 -97 -48
-104 -83 -191 -117 -290 -14 -41 -37 -91 -50 -110 -12 -19 -23 -44 -23 -56 0
-12 -7 -41 -15 -64 -8 -23 -15 -57 -15 -74 0 -18 -14 -72 -31 -122 -36 -105
-75 -249 -109 -399 -4 -22 -13 -53 -19 -68 -6 -16 -11 -43 -11 -61 0 -19 -7
-53 -15 -76 -8 -23 -15 -58 -15 -77 0 -19 -5 -43 -11 -54 -15 -29 -30 -190
-38 -409 -4 -113 -12 -207 -19 -223 -17 -41 -17 -849 0 -880 8 -14 15 -93 19
-207 8 -197 20 -317 38 -363 6 -16 11 -49 11 -75 1 -26 7 -65 15 -87 8 -22 15
-53 15 -69 0 -16 6 -52 14 -80 16 -57 37 -137 62 -241 9 -38 26 -97 36 -130
18 -55 33 -111 58 -220 17 -74 100 -316 127 -368 26 -51 43 -95 108 -273 48
-131 289 -596 395 -763 115 -180 279 -424 330 -491 27 -36 77 -105 111 -155
34 -49 101 -131 150 -181 49 -50 89 -97 89 -104 0 -18 544 -564 600 -603 25
-16 66 -49 91 -73 25 -23 59 -49 75 -57 16 -9 49 -36 74 -62 25 -26 83 -72
130 -102 47 -31 101 -70 122 -87 88 -74 173 -131 300 -200 26 -14 110 -68 188
-120 87 -58 162 -101 194 -110 29 -9 71 -29 94 -45 60 -44 365 -194 447 -221
39 -12 95 -32 125 -45 30 -12 91 -37 135 -54 44 -18 138 -60 210 -94 107 -51
142 -74 202 -131 63 -59 80 -83 127 -180 59 -121 75 -174 86 -281 4 -38 12
-83 19 -98 7 -17 11 -98 11 -208 0 -178 0 -180 25 -204 l24 -25 1456 0 1456 0
24 25 25 24 0 728 c0 608 -3 735 -15 768 -8 22 -14 65 -15 96 0 31 -9 92 -21
135 -11 44 -25 98 -29 122 -11 51 -95 304 -111 335 -7 11 -27 65 -45 118 -35
104 -92 225 -129 274 -12 17 -34 53 -49 80 -57 106 -175 291 -199 313 -10 9
-26 30 -34 46 -8 16 -34 50 -57 75 -24 25 -56 66 -73 91 -34 49 -336 350 -352
350 -5 0 -31 18 -56 40 -25 22 -50 40 -55 40 -5 0 -32 22 -62 48 -66 59 -156
120 -239 163 -35 17 -82 44 -104 59 -51 35 -208 113 -260 130 -22 7 -56 24
-75 36 -19 13 -46 24 -60 24 -14 0 -45 10 -70 21 -25 12 -94 34 -155 49 -115
30 -184 55 -325 120 -47 22 -91 40 -98 40 -7 0 -76 32 -153 71 -199 99 -480
289 -595 400 -50 49 -97 89 -103 89 -17 0 -181 160 -198 195 -9 16 -55 71
-103 120 -48 50 -98 110 -110 135 -13 25 -39 65 -60 90 -71 87 -173 253 -205
334 -18 44 -60 137 -95 206 -67 132 -156 378 -170 470 -12 74 -30 167 -40 210
-24 103 -34 166 -40 265 -4 61 -12 123 -18 138 -16 39 -16 380 0 410 6 12 15
67 19 122 4 55 15 134 24 175 8 41 20 103 25 136 5 34 14 74 20 88 5 15 10 41
10 57 0 33 91 311 120 370 11 21 20 45 20 53 0 8 39 92 86 187 79 160 276 475
366 587 18 22 46 59 63 82 39 55 340 350 390 384 41 27 106 76 161 120 66 54
234 161 334 213 58 30 129 70 159 88 30 19 75 42 100 51 25 8 65 24 89 35 54
24 157 59 175 59 7 0 67 18 133 39 164 54 299 85 434 101 36 4 78 13 93 19 38
15 714 15 754 0 15 -6 60 -15 98 -19 39 -5 99 -16 135 -25 36 -9 81 -20 100
-24 101 -24 152 -39 335 -99 192 -62 400 -154 470 -207 17 -12 63 -39 102 -59
97 -48 277 -171 402 -272 18 -16 52 -40 75 -55 47 -30 326 -310 326 -326 0 -6
22 -36 50 -66 55 -60 283 -399 307 -456 8 -20 23 -52 33 -71 125 -237 172
-339 204 -445 21 -66 41 -134 47 -151 5 -17 9 -38 9 -47 0 -9 13 -58 29 -109
52 -167 61 -204 61 -250 0 -25 7 -65 15 -88 9 -27 15 -79 15 -141 0 -116 27
-234 61 -261 20 -17 110 -18 1588 -18 1269 1 1569 3 1583 14 39 29 50 135 23
211 -11 29 -15 88 -15 218 0 135 -4 186 -15 214 -10 24 -15 70 -15 142 0 67
-6 121 -15 146 -8 22 -14 75 -15 118 0 43 -4 86 -9 96 -5 9 -14 46 -19 82 -9
57 -19 101 -67 289 -7 30 -21 84 -30 120 -9 36 -41 142 -71 235 -30 94 -55
177 -55 185 0 15 -56 182 -103 302 -14 37 -44 104 -66 148 -38 76 -60 128
-116 279 -13 36 -36 83 -52 105 -16 23 -44 70 -62 106 -18 36 -42 79 -55 95
-12 17 -54 94 -93 171 -39 77 -78 146 -87 154 -9 7 -68 90 -131 184 -63 94
-130 191 -149 216 -34 45 -64 84 -130 170 -19 25 -47 63 -61 85 -15 22 -60 74
-100 116 -41 42 -74 82 -74 89 0 18 -466 486 -520 523 -25 16 -79 63 -120 102
-41 40 -88 79 -105 88 -16 8 -43 30 -60 47 -16 18 -52 47 -80 66 -27 19 -79
56 -115 84 -145 110 -541 369 -669 437 -259 136 -625 313 -681 329 -14 3 -51
20 -83 36 -57 28 -346 128 -371 128 -7 0 -87 24 -177 54 -90 29 -198 61 -239
71 -41 10 -116 31 -165 46 -50 16 -104 29 -121 29 -17 0 -51 7 -74 15 -25 9
-78 15 -130 15 -52 0 -105 6 -130 15 -23 8 -69 15 -101 15 -32 0 -70 5 -86 11
-15 6 -82 16 -148 21 -162 14 -1225 21 -1245 8z m1080 -125 c26 -9 79 -15 137
-15 52 0 104 -5 116 -11 22 -12 119 -24 317 -38 64 -4 125 -13 137 -19 12 -7
36 -12 54 -12 18 0 76 -13 128 -29 53 -17 125 -37 161 -46 63 -15 251 -72 565
-171 83 -26 179 -61 215 -79 36 -18 83 -38 105 -45 22 -7 84 -35 137 -61 54
-27 104 -49 111 -49 20 0 256 -117 292 -145 17 -12 86 -50 153 -84 140 -70
568 -352 709 -466 18 -15 50 -38 70 -52 42 -28 94 -72 211 -179 43 -39 95 -82
117 -96 53 -35 464 -455 540 -553 33 -42 84 -103 113 -135 54 -59 104 -125
167 -217 19 -28 39 -54 44 -58 6 -3 59 -79 118 -168 59 -89 124 -182 144 -207
20 -25 65 -101 99 -170 34 -69 72 -138 84 -155 52 -73 150 -264 196 -380 18
-44 54 -127 81 -185 85 -184 97 -217 228 -640 58 -191 68 -226 112 -400 44
-181 50 -207 58 -260 5 -30 14 -68 20 -83 6 -16 11 -61 11 -101 0 -41 7 -93
15 -116 10 -27 15 -80 15 -144 0 -57 6 -121 14 -147 16 -51 26 -435 13 -456
-7 -10 -311 -13 -1470 -13 -804 0 -1468 4 -1475 8 -30 20 -52 110 -52 216 0
58 -5 117 -11 133 -7 15 -15 60 -20 98 -9 77 -24 144 -56 250 -12 39 -29 99
-38 135 -51 207 -166 486 -240 585 -12 17 -28 48 -35 70 -12 39 -241 389 -323
494 -66 84 -426 441 -496 491 -34 25 -77 57 -94 71 -65 52 -233 162 -301 196
-39 19 -85 45 -101 58 -17 12 -93 54 -170 92 -133 67 -407 164 -582 208 -147
36 -190 47 -223 57 -58 18 -164 29 -375 37 -123 5 -213 13 -234 21 -27 10 -40
10 -70 0 -20 -7 -112 -16 -206 -21 -174 -8 -276 -18 -355 -37 -47 -12 -128
-30 -170 -38 -14 -3 -88 -25 -165 -49 -77 -23 -167 -51 -200 -60 -225 -64
-646 -300 -894 -501 -18 -16 -52 -40 -75 -55 -47 -31 -445 -434 -493 -500
-149 -206 -303 -452 -379 -606 -46 -95 -84 -177 -84 -183 0 -6 -8 -27 -19 -48
-31 -61 -121 -342 -121 -377 0 -18 -7 -49 -15 -68 -8 -20 -15 -52 -15 -70 0
-19 -7 -54 -15 -77 -8 -23 -15 -58 -15 -77 0 -19 -5 -44 -11 -55 -43 -79 -43
-861 -1 -1038 22 -91 34 -146 42 -200 4 -30 13 -68 19 -83 6 -16 11 -42 11
-59 0 -59 92 -311 171 -470 44 -87 79 -163 79 -170 0 -40 180 -340 226 -379 9
-7 28 -38 44 -68 16 -31 58 -85 95 -121 36 -36 83 -87 102 -115 49 -67 229
-251 277 -282 21 -14 78 -62 125 -107 142 -136 580 -413 711 -450 14 -4 63
-25 110 -46 145 -66 211 -91 325 -120 61 -15 130 -37 155 -47 25 -11 61 -22
81 -25 19 -4 53 -18 74 -32 21 -14 44 -26 52 -26 18 0 250 -117 288 -145 16
-13 63 -39 103 -59 81 -41 154 -90 223 -150 26 -23 75 -61 109 -86 78 -56 334
-302 366 -352 13 -20 43 -59 66 -87 97 -115 172 -219 208 -291 12 -25 28 -52
35 -60 13 -14 38 -57 128 -215 60 -106 210 -516 248 -677 11 -51 27 -113 35
-137 8 -25 14 -70 14 -102 0 -31 7 -76 15 -99 13 -36 15 -139 15 -681 0 -626
0 -639 -20 -659 -20 -20 -33 -20 -1363 -20 -1199 0 -1345 2 -1365 16 -22 15
-22 20 -22 219 0 201 -1 206 -30 295 -16 50 -30 99 -30 109 0 11 -22 63 -49
118 -44 87 -62 110 -158 204 -95 94 -121 113 -213 159 -58 29 -132 63 -165 76
-33 12 -96 36 -140 54 -44 18 -121 47 -171 65 -76 28 -231 103 -504 245 -30
16 -70 35 -89 41 -19 7 -91 51 -160 97 -69 46 -146 95 -171 108 -25 14 -68 40
-97 57 -28 18 -64 40 -80 49 -28 18 -88 63 -150 113 -18 15 -67 49 -110 77
-43 28 -105 76 -139 107 -33 31 -96 83 -139 116 -104 80 -583 551 -650 640
-29 39 -78 95 -110 125 -31 30 -81 91 -111 135 -30 44 -77 109 -104 145 -48
62 -195 280 -333 495 -36 55 -93 156 -127 225 -34 68 -73 138 -85 155 -38 50
-145 272 -185 384 -58 162 -87 236 -115 291 -33 65 -107 289 -135 405 -12 50
-32 126 -45 170 -13 44 -31 107 -39 140 -31 127 -48 191 -58 223 -10 34 -16
68 -38 212 -6 41 -15 89 -21 106 -5 17 -9 51 -9 76 0 25 -7 65 -15 88 -11 31
-15 86 -15 200 0 114 -4 169 -15 200 -22 63 -22 721 0 773 11 28 15 79 15 217
0 117 4 189 11 203 7 11 15 60 20 107 4 47 15 119 23 160 9 41 19 93 22 115 3
22 11 66 19 98 8 31 21 83 29 115 36 143 50 194 84 297 19 61 38 133 42 160
11 81 30 147 57 199 14 27 36 83 49 123 13 41 33 92 44 113 11 22 20 45 20 52
0 8 16 47 36 88 20 41 44 98 54 125 61 166 115 275 215 430 18 28 40 73 49
102 10 28 35 79 56 112 22 34 48 78 59 99 11 21 36 58 56 82 20 24 55 80 77
123 22 44 58 100 81 126 54 58 120 147 179 236 26 39 61 84 78 100 18 17 39
43 47 60 9 16 51 66 93 110 42 44 84 94 93 110 18 36 448 465 465 465 6 0 54
41 107 90 53 50 100 90 105 90 5 0 30 18 55 40 25 22 50 40 55 40 4 0 38 26
74 58 118 103 191 159 216 167 36 11 128 72 181 121 25 23 66 52 90 64 24 13
56 31 71 42 15 10 42 24 60 30 18 6 47 21 63 34 17 12 76 45 132 73 56 28 117
64 136 81 40 35 112 69 145 70 12 0 66 22 120 49 53 26 115 54 137 61 22 7 54
24 72 37 31 24 338 133 373 133 10 0 50 14 90 31 40 17 104 39 144 49 39 10
121 34 181 53 103 33 148 45 293 81 31 8 77 20 102 27 25 7 92 16 150 20 170
12 298 27 319 38 11 6 62 11 113 12 51 0 109 6 128 13 55 21 971 22 1030 1z"/>
<path d="M12240 14084 c-25 -7 -63 -13 -85 -13 -22 -1 -71 -12 -110 -26 -38
-13 -78 -25 -87 -25 -23 0 -95 -24 -188 -62 -123 -49 -390 -182 -408 -202 -9
-10 -60 -46 -112 -81 -52 -34 -104 -72 -115 -85 -11 -12 -45 -39 -75 -60 -51
-35 -96 -80 -231 -230 -109 -121 -256 -338 -354 -523 -57 -108 -145 -345 -145
-390 0 -18 -13 -70 -30 -117 -16 -47 -29 -99 -30 -117 0 -17 -5 -44 -11 -60
-25 -62 -50 -623 -31 -693 6 -19 17 -60 26 -91 9 -31 16 -68 16 -84 0 -16 6
-51 14 -79 8 -28 22 -80 31 -116 26 -101 54 -189 71 -222 9 -17 22 -49 29 -72
21 -66 75 -189 89 -206 8 -8 25 -37 39 -65 14 -27 44 -75 66 -105 22 -30 59
-81 81 -112 22 -31 44 -60 50 -63 6 -3 25 -30 44 -58 35 -55 296 -317 315
-317 7 0 33 -20 59 -44 52 -48 135 -107 197 -138 22 -12 54 -31 70 -43 83 -62
458 -225 519 -225 7 0 53 -13 102 -30 49 -16 103 -30 121 -30 17 0 44 -5 60
-11 53 -20 178 -32 408 -36 147 -3 250 0 285 7 30 6 87 17 125 25 64 13 111
23 205 44 32 7 87 23 285 83 168 50 543 277 686 415 42 40 82 73 88 73 19 0
152 132 191 190 21 30 48 64 60 75 12 11 69 90 125 175 102 155 171 279 195
355 7 22 26 66 42 98 32 64 84 213 97 279 5 24 18 79 30 122 12 44 21 109 21
146 0 37 7 87 15 110 19 54 22 442 4 487 -7 15 -15 66 -19 113 -8 83 -16 125
-58 280 -18 68 -35 117 -106 305 -35 92 -152 320 -184 357 -16 18 -57 75 -93
126 -35 51 -76 109 -91 130 -38 53 -284 294 -343 336 -174 124 -356 241 -442
284 -110 56 -536 202 -587 202 -17 0 -58 7 -89 15 -78 20 -767 20 -837 -1z
m760 -119 c23 -8 62 -15 86 -15 63 0 475 -139 604 -203 91 -46 295 -176 439
-280 59 -43 268 -252 306 -306 17 -24 53 -75 80 -115 28 -40 66 -92 84 -115
32 -40 181 -330 181 -352 0 -5 9 -28 21 -51 23 -46 89 -238 89 -261 0 -8 6
-37 14 -63 8 -27 21 -74 30 -105 9 -31 16 -83 16 -116 0 -33 7 -80 15 -103 11
-30 15 -83 15 -180 0 -97 -4 -150 -15 -180 -8 -23 -15 -75 -15 -114 0 -40 -6
-92 -14 -117 -7 -24 -21 -78 -31 -119 -26 -110 -79 -268 -113 -336 -16 -32
-35 -77 -42 -99 -23 -71 -78 -172 -172 -312 -140 -209 -250 -341 -336 -405
-29 -22 -83 -67 -120 -102 -157 -145 -625 -406 -728 -406 -8 0 -48 -11 -88
-25 -40 -14 -94 -30 -122 -36 -151 -33 -197 -41 -274 -48 -47 -5 -98 -13 -113
-20 -37 -14 -237 -14 -274 0 -15 7 -73 15 -128 19 -55 5 -127 13 -160 20 -57
10 -92 20 -330 92 -109 33 -282 112 -415 191 -132 78 -243 152 -265 177 -11
12 -45 39 -75 60 -63 44 -202 183 -249 250 -17 25 -54 74 -81 110 -61 80 -147
208 -186 275 -59 105 -161 372 -198 520 -8 33 -20 80 -26 105 -19 71 -31 147
-39 255 -4 55 -13 110 -19 122 -15 28 -16 153 -1 190 7 15 15 80 20 143 8 131
28 238 58 324 12 33 21 73 21 90 0 35 30 128 61 187 10 21 19 44 19 52 0 8 25
63 55 123 196 385 445 681 735 874 36 24 80 56 98 72 66 56 326 178 512 238
209 69 255 79 375 86 66 4 129 10 140 15 11 4 131 8 266 8 195 1 255 -2 289
-14z"/>
<path d="M1734 6000 c-12 -4 -31 -21 -43 -36 l-21 -27 0 -1689 c0 -1837 -3
-1730 55 -1756 18 -9 121 -12 355 -12 l330 0 32 29 33 29 5 701 c4 556 8 703
18 713 10 10 130 13 592 13 543 0 580 -1 597 -18 17 -17 18 -63 23 -717 l5
-699 23 -23 c22 -23 24 -23 365 -26 335 -3 344 -2 370 18 14 12 31 38 37 58
14 50 14 3323 0 3373 -21 75 -14 74 -374 77 -207 2 -334 -1 -357 -7 -71 -21
-68 10 -71 -681 -3 -602 -4 -622 -22 -636 -17 -12 -114 -14 -596 -14 -546 0
-578 1 -593 18 -15 17 -17 74 -17 621 0 660 0 655 -59 685 -25 14 -78 16 -348
15 -175 0 -328 -4 -339 -9z m604 -132 c9 -9 12 -160 12 -619 0 -406 4 -616 11
-637 6 -17 23 -39 37 -49 25 -17 66 -18 692 -18 625 0 668 1 693 18 16 10 32
29 37 43 6 15 10 271 10 634 0 540 2 610 16 624 13 14 52 16 269 16 241 0 255
-1 265 -19 7 -13 10 -538 10 -1625 l0 -1606 -24 -15 c-21 -14 -59 -16 -265
-13 -180 2 -243 6 -253 16 -10 10 -14 158 -18 713 l-5 701 -33 29 -32 29 -663
0 c-638 0 -663 -1 -694 -20 -21 -13 -35 -31 -42 -57 -7 -25 -11 -269 -11 -709
0 -612 -1 -673 -17 -685 -23 -20 -506 -20 -525 -1 -20 20 -19 3222 1 3245 12
15 43 17 265 17 183 0 255 -3 264 -12z"/>
<path d="M5164 6000 c-12 -4 -31 -21 -43 -36 l-22 -28 4 -1126 c4 -1130 6
-1210 43 -1450 37 -247 129 -426 311 -601 180 -174 394 -273 676 -314 238 -34
664 -29 872 10 361 69 648 274 797 570 40 78 85 230 102 345 30 200 36 436 36
1502 l0 1068 -29 32 -29 33 -346 0 -346 0 -27 -28 -28 -27 -6 -1143 c-6 -1158
-8 -1227 -45 -1353 -43 -151 -175 -262 -354 -300 -109 -23 -285 -21 -385 5
-253 66 -380 213 -416 481 -8 57 -13 448 -16 1185 -2 736 -7 1109 -14 1127
-22 54 -46 58 -396 57 -175 0 -328 -4 -339 -9z m610 -142 c14 -20 16 -137 16
-1063 0 -1000 5 -1203 31 -1314 41 -172 195 -346 368 -416 165 -67 493 -74
677 -14 85 27 137 64 221 152 94 100 113 137 145 291 7 33 13 457 17 1202 5
954 8 1154 20 1167 12 15 43 17 265 17 141 0 258 -4 266 -10 13 -8 15 -136 15
-1052 -1 -1251 -7 -1362 -89 -1604 -41 -121 -52 -145 -129 -258 -128 -186
-354 -316 -656 -377 -149 -30 -511 -38 -696 -15 -319 39 -555 143 -722 319
-119 126 -203 285 -237 447 -51 250 -68 740 -64 1796 2 593 5 724 17 737 12
15 43 17 267 17 250 0 253 0 268 -22z"/>
<path d="M8583 5990 c-21 -13 -35 -31 -42 -57 -15 -52 -15 -3323 -1 -3375 6
-20 22 -46 37 -58 25 -19 39 -20 339 -20 l314 0 32 29 33 29 5 986 c6 1113 5
1106 68 891 11 -39 120 -466 242 -950 121 -484 226 -892 232 -908 6 -15 24
-39 40 -52 l30 -25 326 0 c369 0 372 1 405 76 9 21 109 408 222 859 213 849
270 1067 287 1099 31 57 33 -2 38 -990 l5 -986 33 -29 32 -29 310 0 310 0 32
29 33 29 0 1706 0 1706 -28 27 -27 28 -520 0 -519 0 -30 -29 c-17 -16 -35 -43
-40 -60 -6 -17 -120 -449 -255 -961 -134 -511 -250 -942 -257 -957 -15 -34
-24 -35 -43 -5 -8 12 -96 330 -196 707 -299 1129 -319 1204 -335 1238 -8 17
-29 41 -47 52 -32 19 -51 20 -533 20 -478 0 -501 -1 -532 -20z m991 -132 c8
-13 141 -499 296 -1082 154 -582 287 -1070 294 -1085 35 -67 102 -85 142 -38
28 33 6 -46 324 1162 154 582 278 1038 287 1047 15 17 49 18 448 18 390 0 434
-2 446 -17 12 -13 14 -275 14 -1620 l0 -1605 -24 -19 c-23 -19 -38 -20 -242
-17 -162 2 -221 6 -231 16 -10 10 -14 254 -18 1245 -4 929 -8 1237 -17 1253
-29 51 -72 55 -112 12 -31 -32 -47 -91 -226 -803 -372 -1479 -416 -1651 -430
-1682 -19 -43 -34 -45 -307 -41 -199 3 -229 5 -244 20 -12 11 -115 406 -309
1180 -161 640 -302 1195 -314 1234 -26 88 -52 124 -91 124 -32 0 -56 -20 -73
-59 -8 -19 -12 -365 -15 -1249 l-3 -1222 -24 -16 c-19 -13 -58 -15 -240 -12
-201 3 -218 4 -231 22 -12 17 -14 254 -14 1619 0 1083 3 1605 10 1618 10 18
26 19 450 19 l440 0 14 -22z"/>
<path d="M12555 6001 c-11 -5 -29 -19 -40 -31 -20 -22 -20 -36 -20 -1727 l0
-1705 33 -29 32 -29 330 0 c234 0 337 3 355 12 58 26 55 -81 55 1757 l0 1691
-29 32 -29 33 -334 2 c-183 1 -342 -2 -353 -6z m612 -151 c10 -20 12 -347 10
-1618 l-2 -1594 -24 -19 c-21 -17 -42 -19 -255 -19 -193 0 -235 3 -254 16
l-22 15 0 1613 c0 1252 3 1615 12 1624 9 9 77 12 267 10 l255 -3 13 -25z"/>
<path d="M16785 6001 c-11 -5 -29 -19 -40 -31 -20 -22 -20 -36 -20 -1727 l0
-1705 33 -29 33 -30 345 3 346 3 23 27 c18 21 25 44 30 100 3 40 5 804 3 1698
-3 1788 2 1654 -64 1685 -27 12 -87 15 -351 14 -175 0 -327 -4 -338 -8z m609
-137 c14 -14 16 -174 16 -1618 0 -1367 -2 -1605 -14 -1622 -13 -18 -30 -19
-256 -22 -207 -3 -245 -1 -266 13 l-24 15 0 1613 c0 1241 3 1616 12 1625 9 9
81 12 264 12 216 0 255 -2 268 -16z"/>
<path d="M17873 5990 c-49 -30 -55 -67 -51 -354 3 -284 6 -296 75 -315 24 -7
201 -11 470 -11 379 0 433 -2 447 -16 14 -14 16 -151 16 -1365 0 -1455 -2
-1395 51 -1433 21 -14 65 -16 359 -16 294 0 338 2 359 16 53 38 51 -22 51
1433 0 1214 2 1351 16 1365 14 14 68 16 447 16 269 0 446 4 470 11 66 18 71
36 77 265 3 111 8 206 12 210 14 13 46 -27 126 -155 44 -69 111 -175 149 -236
559 -883 886 -1402 900 -1428 17 -29 18 -88 23 -735 l5 -704 33 -29 32 -29
330 0 c234 0 337 3 355 12 56 25 55 9 55 745 0 643 1 680 19 720 11 23 116
194 233 380 118 186 383 603 588 928 205 324 377 605 381 623 4 19 3 47 -3 63
-20 58 -31 59 -438 59 -397 0 -399 0 -447 -52 -11 -12 -170 -279 -353 -593
-182 -313 -338 -576 -347 -582 -13 -10 -20 -10 -35 0 -10 6 -155 242 -323 522
-365 613 -390 654 -434 682 -34 23 -36 23 -412 23 -325 0 -384 -2 -419 -16
-37 -15 -43 -15 -80 0 -36 14 -172 16 -1373 16 -1303 0 -1333 0 -1364 -20z
m2647 -129 c6 -12 10 -96 10 -205 0 -154 -3 -187 -16 -200 -14 -14 -69 -16
-455 -16 -493 0 -498 -1 -524 -64 -13 -30 -15 -223 -15 -1389 0 -1248 -1
-1356 -17 -1368 -13 -11 -68 -14 -263 -14 -195 0 -250 3 -263 14 -16 12 -17
120 -17 1368 0 1166 -2 1359 -15 1389 -26 63 -31 64 -524 64 -386 0 -441 2
-455 16 -13 13 -16 46 -16 200 0 109 4 193 10 205 11 19 35 19 1280 19 1245 0
1269 0 1280 -19z m942 -9 c13 -15 181 -293 373 -616 193 -323 364 -603 380
-623 23 -26 40 -36 72 -40 38 -5 46 -2 76 28 18 19 189 304 381 634 191 330
359 610 373 623 24 22 28 22 302 22 311 0 316 -1 286 -60 -9 -17 -261 -418
-560 -890 -300 -473 -553 -875 -562 -893 -17 -29 -18 -87 -23 -715 l-5 -684
-24 -19 c-21 -17 -42 -19 -256 -19 -207 0 -235 2 -254 18 -21 17 -21 20 -23
697 -3 644 -4 682 -22 715 -10 19 -266 426 -569 905 -302 478 -554 879 -560
892 -24 53 -22 53 297 53 l294 0 24 -28z"/>
<path d="M13940 5981 c-49 -10 -60 -18 -76 -57 -12 -28 -14 -294 -14 -1695 0
-1815 -3 -1711 56 -1738 18 -8 346 -11 1213 -11 1184 0 1188 0 1214 21 44 34
49 72 45 356 l-3 263 -28 27 -27 28 -816 5 c-710 4 -816 7 -824 20 -6 9 -10
526 -10 1345 -1 1003 -4 1338 -13 1364 -7 19 -25 44 -40 55 -27 20 -41 21
-335 23 -169 1 -323 -2 -342 -6z m582 -138 c17 -15 18 -71 18 -1360 0 -1448
-2 -1385 49 -1413 13 -7 288 -10 813 -10 619 0 798 -3 818 -13 l25 -13 0 -204
0 -204 -25 -13 c-20 -10 -255 -13 -1110 -13 -967 0 -1088 2 -1108 16 l-22 15
0 1599 c0 1440 2 1600 16 1614 13 14 51 16 261 16 215 0 249 -2 265 -17z"/>
</g>
</svg>
