<?xml version="1.0" standalone="no"?>
<!DOCTYPE svg PUBLIC "-//W3C//DTD SVG 20010904//EN"
 "http://www.w3.org/TR/2001/REC-SVG-20010904/DTD/svg10.dtd">
<svg version="1.0" xmlns="http://www.w3.org/2000/svg"
 width="2550.000000pt" height="3300.000000pt" viewBox="0 0 2550.000000 3300.000000"
 preserveAspectRatio="xMidYMid meet">
<metadata>
Created by potrace 1.14, written by Peter Selinger 2001-2017
</metadata>
<g transform="translate(0.000000,3300.000000) scale(0.100000,-0.100000)"
fill="#000000" stroke="none">
<path d="M11910 30695 c-19 -11 -64 -14 -175 -15 -107 0 -155 -4 -163 -12 -9
-9 -59 -15 -142 -18 -82 -4 -134 -10 -142 -18 -7 -7 -43 -12 -96 -12 -47 0
-93 -5 -105 -12 -21 -12 -52 -16 -237 -34 -41 -3 -81 -11 -87 -16 -7 -6 -43
-12 -80 -15 -38 -3 -85 -11 -106 -19 -20 -8 -55 -14 -77 -14 -22 0 -57 -6 -77
-14 -21 -8 -56 -17 -78 -21 -22 -4 -44 -10 -50 -15 -5 -4 -37 -10 -71 -13 -33
-2 -69 -10 -80 -15 -10 -6 -55 -18 -99 -27 -89 -19 -172 -39 -195 -47 -48 -18
-151 -47 -187 -53 -24 -4 -45 -10 -48 -15 -3 -5 -23 -11 -45 -15 -22 -4 -42
-11 -46 -16 -3 -5 -17 -9 -31 -9 -29 0 -103 -19 -118 -31 -6 -5 -31 -11 -55
-14 -25 -4 -54 -10 -65 -15 -53 -22 -144 -49 -181 -54 -22 -3 -62 -17 -88 -31
-26 -14 -68 -30 -94 -36 -26 -7 -51 -15 -57 -19 -5 -4 -26 -11 -45 -15 -19 -4
-41 -11 -50 -15 -8 -4 -35 -16 -60 -28 -25 -12 -58 -24 -75 -28 -16 -4 -49
-17 -72 -30 -24 -12 -57 -26 -75 -29 -18 -4 -57 -21 -86 -37 -30 -16 -75 -36
-101 -44 -25 -9 -89 -36 -141 -61 -52 -25 -104 -49 -115 -53 -11 -4 -55 -23
-98 -43 -42 -21 -84 -37 -91 -37 -19 0 -432 -206 -441 -220 -3 -6 -46 -31 -95
-55 -49 -24 -91 -49 -94 -54 -3 -5 -47 -30 -98 -56 -51 -26 -102 -55 -113 -65
-11 -9 -68 -41 -127 -70 -59 -28 -114 -61 -124 -71 -9 -10 -23 -19 -30 -19 -7
0 -25 -11 -41 -24 -15 -13 -42 -32 -59 -42 -38 -23 -63 -39 -187 -123 -54 -36
-105 -71 -115 -76 -68 -41 -144 -94 -182 -128 -25 -22 -52 -42 -60 -46 -31
-13 -156 -99 -174 -120 -11 -11 -25 -21 -32 -21 -7 0 -17 -6 -21 -13 -4 -8
-33 -32 -63 -54 -30 -23 -75 -62 -100 -87 -24 -25 -48 -46 -54 -46 -5 0 -28
-16 -52 -35 -23 -19 -46 -35 -50 -35 -4 0 -33 -24 -64 -52 -95 -89 -178 -158
-190 -158 -6 0 -89 -76 -184 -170 -95 -93 -179 -170 -186 -170 -17 0 -427
-407 -452 -450 -12 -19 -102 -117 -200 -217 -98 -99 -178 -186 -178 -193 0
-13 -60 -87 -143 -175 -31 -34 -57 -66 -57 -72 0 -6 -32 -45 -70 -86 -39 -41
-70 -79 -70 -84 0 -5 -28 -41 -62 -80 -56 -63 -100 -124 -134 -184 -6 -11 -23
-32 -36 -47 -21 -23 -100 -136 -133 -190 -5 -10 -22 -33 -36 -52 -14 -19 -28
-39 -30 -45 -2 -5 -31 -50 -64 -98 -33 -49 -65 -96 -70 -105 -6 -9 -37 -57
-70 -106 -85 -125 -90 -133 -130 -211 -21 -38 -47 -83 -59 -100 -12 -16 -43
-71 -68 -121 -25 -50 -62 -117 -82 -148 -20 -31 -36 -60 -36 -64 0 -5 -14 -27
-31 -50 -38 -51 -276 -524 -285 -566 -4 -17 -19 -53 -34 -81 -15 -27 -37 -77
-49 -110 -12 -33 -42 -100 -66 -150 -24 -49 -46 -101 -50 -115 -4 -14 -23 -59
-43 -100 -19 -41 -39 -84 -42 -95 -4 -11 -14 -36 -23 -57 -9 -20 -28 -71 -42
-115 -15 -43 -35 -98 -46 -122 -11 -23 -34 -84 -50 -135 -16 -50 -34 -100 -38
-111 -22 -53 -61 -185 -61 -208 0 -14 -4 -28 -9 -32 -6 -3 -13 -27 -16 -53 -4
-26 -13 -60 -20 -77 -7 -16 -16 -46 -20 -65 -4 -19 -11 -39 -15 -45 -4 -5 -10
-30 -13 -55 -3 -25 -13 -59 -21 -75 -9 -16 -18 -50 -21 -75 -4 -25 -11 -54
-16 -65 -5 -11 -13 -40 -19 -65 -11 -57 -28 -122 -45 -180 -7 -25 -16 -62 -20
-84 -3 -21 -10 -46 -15 -55 -5 -9 -12 -37 -15 -63 -3 -26 -10 -50 -16 -53 -5
-4 -9 -21 -9 -38 0 -33 -20 -136 -39 -197 -6 -19 -11 -58 -11 -85 0 -28 -5
-56 -11 -62 -6 -6 -14 -45 -17 -85 -2 -40 -9 -82 -15 -93 -6 -11 -14 -57 -18
-103 -4 -46 -12 -88 -17 -95 -5 -7 -12 -51 -14 -99 -2 -47 -9 -93 -15 -100
-11 -13 -17 -83 -29 -388 -3 -94 -10 -161 -17 -169 -9 -10 -13 -234 -15 -849
-2 -721 0 -838 12 -857 11 -17 16 -65 20 -176 10 -290 17 -374 31 -406 9 -18
15 -62 15 -105 1 -44 6 -83 15 -98 8 -14 15 -53 15 -90 0 -41 6 -72 15 -84 10
-13 15 -43 15 -86 0 -43 5 -73 15 -86 9 -12 14 -43 15 -82 0 -35 5 -73 12 -85
13 -24 24 -76 36 -172 4 -33 13 -70 20 -82 7 -12 12 -35 12 -51 0 -16 7 -43
15 -58 8 -16 15 -45 15 -65 0 -19 7 -44 15 -55 8 -10 15 -34 15 -52 0 -18 5
-43 12 -55 6 -12 15 -42 19 -67 4 -25 11 -58 17 -75 6 -16 16 -57 23 -90 7
-33 17 -66 23 -73 5 -8 13 -35 17 -60 7 -46 19 -86 45 -150 8 -18 14 -47 14
-65 0 -18 7 -42 15 -53 8 -10 15 -28 15 -39 0 -11 7 -33 15 -49 8 -15 15 -40
15 -54 0 -27 14 -75 37 -129 7 -17 13 -39 13 -50 0 -10 7 -27 15 -37 8 -11 15
-31 15 -45 0 -14 7 -35 15 -45 8 -11 15 -27 15 -37 0 -9 7 -22 15 -29 8 -7 15
-21 15 -32 0 -11 6 -34 14 -51 7 -18 19 -52 26 -77 8 -25 20 -52 27 -61 7 -8
13 -23 13 -32 0 -10 20 -58 45 -107 25 -49 45 -96 45 -104 0 -8 18 -52 40 -98
22 -46 40 -88 40 -94 0 -6 7 -17 15 -24 8 -7 15 -21 15 -32 0 -11 6 -32 14
-46 8 -15 17 -34 20 -42 4 -8 17 -35 31 -59 14 -24 25 -51 25 -60 0 -13 129
-286 183 -386 6 -11 27 -52 47 -91 21 -39 53 -95 72 -125 19 -30 47 -79 62
-109 33 -65 53 -101 87 -155 13 -22 30 -51 37 -65 7 -14 21 -38 32 -55 11 -16
36 -61 55 -98 20 -38 74 -125 121 -194 47 -69 90 -137 95 -151 5 -13 29 -47
54 -75 25 -29 45 -55 45 -58 0 -9 59 -97 102 -151 18 -24 38 -50 43 -59 39
-64 126 -187 144 -203 11 -11 21 -24 21 -29 0 -5 25 -40 55 -77 30 -37 55 -71
55 -76 0 -5 32 -41 71 -79 38 -39 80 -86 91 -105 12 -19 46 -62 75 -94 29 -33
53 -63 53 -68 0 -16 97 -123 263 -293 86 -88 157 -167 157 -174 0 -18 418
-439 455 -458 17 -8 105 -88 197 -177 208 -202 312 -296 327 -296 6 0 44 -31
83 -69 40 -37 87 -75 103 -84 17 -8 57 -43 90 -76 33 -34 65 -61 72 -61 7 0
34 -19 61 -42 46 -41 74 -60 145 -100 16 -9 44 -30 61 -45 49 -45 114 -93 125
-93 6 0 32 -19 59 -43 27 -23 64 -51 82 -62 62 -37 96 -60 124 -82 16 -13 33
-23 39 -23 5 0 25 -13 44 -30 18 -16 38 -30 44 -30 5 0 38 -21 72 -48 34 -26
88 -60 119 -75 31 -15 60 -32 63 -37 4 -6 51 -33 105 -60 54 -27 101 -54 105
-60 4 -6 43 -29 88 -51 45 -23 90 -48 99 -56 9 -8 54 -34 100 -57 46 -23 100
-53 118 -67 40 -30 320 -168 395 -195 28 -10 88 -38 134 -61 46 -24 89 -43 96
-43 7 0 62 -25 124 -55 62 -30 118 -55 124 -55 7 0 59 -22 117 -50 58 -27 111
-50 118 -50 6 0 29 -9 49 -20 21 -11 43 -20 50 -20 8 0 21 -4 31 -9 40 -22
109 -50 137 -57 17 -4 35 -10 40 -14 6 -4 26 -11 45 -15 19 -4 40 -11 45 -15
6 -5 33 -14 60 -21 28 -6 55 -15 60 -19 6 -4 26 -11 45 -15 19 -4 41 -11 50
-15 8 -5 42 -14 75 -20 33 -7 65 -16 70 -20 6 -4 26 -11 45 -15 19 -4 41 -11
50 -15 30 -16 106 -39 165 -50 33 -7 65 -15 70 -19 15 -11 193 -62 285 -82 25
-6 54 -14 65 -19 11 -5 40 -12 65 -16 25 -3 50 -10 55 -14 6 -4 40 -13 78 -20
37 -7 70 -16 73 -21 3 -5 25 -9 49 -9 24 0 56 -5 72 -11 38 -15 152 -39 184
-39 15 0 43 -7 62 -15 20 -8 61 -15 91 -15 29 0 67 -7 82 -15 17 -8 55 -15 90
-15 33 0 65 -5 71 -11 6 -6 56 -15 110 -18 54 -4 107 -12 118 -18 11 -6 59
-13 107 -15 47 -2 93 -9 100 -16 15 -12 140 -18 523 -28 162 -3 244 -9 254
-17 21 -18 1027 -23 1079 -5 22 7 137 15 287 20 392 12 509 19 524 31 7 6 59
13 115 15 55 2 107 9 114 14 7 6 56 14 110 17 53 4 106 12 117 18 11 6 53 13
93 15 40 3 79 11 85 17 6 6 27 11 47 11 19 0 51 5 70 11 38 12 115 26 200 35
30 4 60 10 65 15 6 4 31 11 55 15 25 4 53 11 62 15 16 8 66 21 193 49 28 6 57
15 66 20 9 4 38 12 65 15 27 4 54 11 59 15 6 4 44 12 85 19 41 7 84 17 95 22
11 4 79 27 150 50 72 22 139 45 150 49 36 15 150 48 280 81 22 6 49 14 60 19
11 5 42 13 69 20 27 6 67 20 90 32 22 12 81 34 131 50 49 16 94 33 100 37 5 4
39 18 75 31 36 12 74 28 85 35 11 6 34 15 50 19 24 6 166 70 257 117 10 5 22
9 27 9 6 0 61 25 124 55 62 30 119 55 125 55 18 0 649 317 657 330 4 6 34 24
68 41 33 16 70 37 81 48 12 10 57 35 101 57 44 21 93 49 109 62 15 12 58 37
95 54 36 17 81 43 99 59 18 16 38 29 45 29 7 1 28 14 47 30 19 17 39 30 46 30
6 0 17 7 25 16 7 8 29 24 48 35 20 11 56 35 81 54 25 19 55 39 67 45 13 5 42
27 65 48 24 21 54 43 68 50 14 7 41 23 60 37 19 13 49 34 65 45 17 11 46 32
65 45 19 14 47 30 61 37 30 15 94 68 195 161 40 37 78 67 84 67 6 0 44 31 85
70 41 38 79 70 85 70 6 0 40 27 75 60 35 33 70 60 77 60 6 0 51 38 99 85 47
47 93 85 100 85 17 0 929 910 929 927 0 7 38 52 85 101 47 49 85 94 85 98 0 5
32 45 70 89 39 44 70 84 70 90 0 6 23 33 50 60 28 28 63 68 77 90 15 22 52 68
83 101 82 92 123 145 145 189 11 22 32 56 48 76 15 20 27 40 27 44 0 4 25 38
55 75 30 37 55 72 55 77 0 5 10 18 21 29 18 16 106 140 144 202 6 10 49 76 96
147 48 72 105 168 129 215 23 47 52 99 64 115 12 17 30 48 41 70 11 22 32 56
46 75 14 19 38 62 54 95 15 33 39 74 52 91 30 40 303 584 303 604 0 9 25 65
55 125 30 61 55 117 55 125 0 8 27 68 60 134 33 65 60 125 60 132 0 8 18 51
40 95 22 45 40 88 40 95 0 8 14 41 30 74 17 33 30 66 30 74 0 9 6 30 14 48 8
18 20 53 26 78 7 25 19 59 26 77 8 17 14 38 14 46 0 9 6 28 14 44 21 44 38 94
46 143 8 46 22 91 45 145 8 17 19 55 26 85 7 30 17 61 23 68 5 8 13 35 17 60
7 46 19 86 45 150 8 18 14 47 14 65 0 18 7 42 15 53 8 10 15 27 15 37 0 11 6
33 14 50 8 18 17 49 20 70 3 20 9 54 12 75 3 20 12 51 20 69 8 17 14 46 14 65
0 18 7 42 15 52 9 11 15 42 15 70 1 28 7 62 15 76 8 14 14 41 15 61 0 19 7 44
15 55 9 12 14 43 15 82 0 35 5 73 12 85 13 23 24 94 34 207 3 36 12 79 20 97
8 17 14 63 14 105 1 44 6 83 15 98 10 17 14 58 15 131 0 77 4 110 15 125 11
14 14 51 15 154 0 100 4 142 15 164 12 23 15 77 15 285 0 208 3 261 15 285 22
41 22 751 0 811 -11 31 -14 99 -15 291 0 203 -3 257 -15 280 -11 22 -15 65
-15 172 0 104 -4 152 -15 179 -9 21 -15 67 -15 115 0 47 -6 93 -15 115 -8 19
-15 64 -15 99 0 34 -5 75 -12 91 -6 15 -15 57 -19 93 -16 147 -22 186 -31 197
-6 7 -14 47 -18 90 -8 74 -14 104 -45 218 -8 28 -16 72 -20 100 -3 27 -10 54
-15 59 -6 6 -10 23 -10 38 0 15 -6 45 -14 65 -8 21 -19 67 -26 103 -7 36 -25
103 -41 150 -16 47 -29 95 -29 106 0 19 -30 115 -50 159 -4 11 -11 40 -15 65
-3 24 -10 49 -14 55 -4 5 -14 32 -20 60 -7 27 -16 54 -21 60 -4 5 -11 26 -15
45 -4 19 -11 40 -16 45 -4 6 -12 39 -18 74 -6 35 -14 68 -19 74 -6 7 -13 28
-17 47 -4 19 -11 40 -15 45 -4 6 -11 26 -15 45 -4 19 -11 40 -14 45 -4 6 -13
30 -20 55 -12 47 -17 58 -45 124 -9 21 -28 73 -42 115 -14 42 -41 108 -59 146
-19 39 -40 90 -49 115 -8 25 -35 85 -60 134 -25 49 -48 102 -51 117 -4 15 -27
68 -51 116 -25 48 -52 108 -61 133 -19 57 -245 511 -275 553 -13 18 -40 66
-61 107 -22 41 -49 89 -61 105 -13 17 -35 57 -51 90 -15 33 -38 74 -51 90 -12
17 -44 70 -69 119 -26 50 -60 107 -76 127 -16 20 -29 40 -29 44 0 4 -13 24
-30 45 -16 21 -30 41 -30 44 0 4 -18 31 -40 61 -22 30 -40 57 -40 61 0 3 -12
23 -27 43 -16 20 -32 44 -38 53 -19 33 -70 104 -117 164 -26 34 -48 65 -48 69
0 4 -13 24 -30 45 -16 21 -30 42 -30 46 0 5 -21 35 -48 68 -26 32 -52 68 -59
79 -6 11 -34 46 -62 78 -28 32 -51 62 -51 67 0 6 -43 56 -95 111 -52 56 -95
106 -95 111 0 5 -27 39 -60 76 -33 36 -60 70 -60 76 0 5 -35 46 -79 92 -43 45
-85 95 -94 111 -17 32 -800 811 -887 883 -29 24 -63 48 -76 54 -13 6 -24 15
-24 20 0 13 -91 108 -104 109 -6 0 -40 25 -76 55 -36 30 -96 78 -135 108 -38
29 -81 65 -94 80 -14 14 -29 26 -34 26 -5 0 -38 27 -74 60 -35 34 -82 72 -103
85 -21 13 -53 37 -72 53 -28 24 -77 58 -169 117 -9 5 -39 28 -66 50 -45 36
-85 63 -177 118 -17 11 -40 27 -52 38 -11 10 -25 19 -32 19 -6 0 -34 20 -61
44 -27 24 -73 55 -102 70 -30 15 -74 42 -99 61 -25 19 -75 50 -112 70 -36 19
-69 39 -72 44 -4 5 -57 35 -119 66 -61 31 -121 64 -132 74 -11 10 -59 36 -106
59 -47 23 -91 48 -98 56 -7 8 -55 36 -107 62 -52 25 -94 50 -94 54 0 4 -15 13
-32 20 -18 7 -42 15 -53 20 -20 8 -109 51 -155 75 -47 25 -155 74 -210 95 -30
12 -82 34 -115 50 -33 15 -71 31 -85 35 -14 4 -72 30 -130 57 -58 28 -114 54
-125 58 -11 4 -41 17 -68 29 -26 11 -52 21 -58 21 -10 0 -148 56 -225 91 -23
11 -48 19 -57 19 -9 0 -18 4 -21 9 -3 5 -30 15 -58 21 -29 7 -57 16 -63 20 -5
4 -26 11 -45 15 -19 4 -41 11 -50 15 -31 16 -136 48 -180 54 -24 4 -49 10 -55
14 -13 10 -167 56 -290 86 -27 7 -57 15 -65 18 -31 12 -156 47 -190 54 -19 3
-39 10 -45 14 -5 4 -32 10 -59 14 -27 3 -54 10 -60 14 -6 5 -45 14 -86 21 -41
7 -82 16 -91 21 -9 5 -34 12 -55 15 -22 4 -56 13 -77 21 -20 8 -56 14 -78 14
-22 0 -50 5 -61 11 -12 6 -53 15 -91 20 -39 5 -75 13 -81 19 -5 5 -32 10 -59
10 -26 0 -58 5 -70 12 -22 12 -93 23 -232 34 -38 3 -84 12 -102 20 -19 9 -65
14 -120 14 -61 1 -94 5 -107 15 -15 11 -49 15 -130 15 -82 1 -116 5 -130 15
-16 12 -55 15 -186 15 -131 0 -170 3 -186 15 -28 21 -1486 22 -1524 0z m1486
-130 c15 -11 55 -14 185 -15 129 0 169 -3 185 -15 14 -10 48 -14 127 -15 67 0
117 -5 130 -12 12 -7 67 -16 122 -20 176 -14 249 -23 272 -36 12 -6 50 -12 85
-12 39 -1 70 -6 82 -15 11 -9 42 -15 70 -15 28 -1 62 -7 76 -15 14 -8 45 -14
70 -15 25 0 58 -7 74 -15 15 -8 48 -15 73 -15 24 0 54 -5 66 -12 22 -12 72
-23 157 -35 25 -3 54 -12 65 -19 11 -8 35 -14 55 -14 19 -1 46 -7 60 -15 14
-8 41 -14 61 -15 19 0 44 -7 55 -15 10 -8 34 -15 52 -15 19 0 48 -6 65 -14 18
-8 41 -16 52 -19 11 -3 34 -10 50 -16 17 -5 57 -16 90 -23 33 -6 71 -18 85
-25 14 -7 39 -13 57 -13 17 0 44 -6 60 -14 45 -22 95 -38 143 -45 25 -4 54
-12 65 -18 25 -14 185 -63 205 -63 8 -1 24 -7 34 -15 11 -8 28 -15 38 -15 10
0 45 -13 78 -30 33 -16 66 -30 75 -30 9 0 42 -13 75 -30 33 -16 65 -30 72 -30
7 0 36 -11 63 -25 28 -13 57 -25 66 -25 9 0 60 -23 115 -51 54 -27 128 -59
164 -71 36 -11 72 -27 81 -34 8 -8 23 -14 31 -14 9 0 21 -7 28 -15 7 -8 21
-15 32 -15 11 0 60 -20 109 -45 49 -25 98 -45 109 -45 10 0 31 -10 47 -22 39
-32 88 -58 107 -58 20 0 132 -56 141 -70 3 -5 23 -17 43 -26 20 -8 44 -20 52
-25 8 -4 29 -16 47 -24 17 -9 39 -25 49 -36 9 -10 25 -19 34 -19 10 0 23 -7
30 -15 7 -8 19 -15 27 -15 8 0 26 -9 40 -20 14 -11 32 -20 39 -20 7 0 17 -6
21 -13 4 -8 20 -20 35 -28 16 -8 67 -34 115 -59 49 -24 100 -54 115 -66 15
-12 51 -34 80 -48 29 -15 73 -42 98 -61 25 -19 72 -49 105 -66 33 -17 79 -49
102 -70 24 -22 49 -39 56 -39 8 0 22 -9 33 -21 10 -12 33 -29 50 -38 51 -26
176 -112 220 -150 22 -20 56 -45 74 -56 78 -46 97 -59 137 -96 24 -22 48 -39
55 -39 6 0 44 -31 84 -70 39 -38 78 -70 86 -70 8 0 32 -18 53 -41 22 -23 58
-53 80 -66 22 -14 57 -43 78 -64 21 -22 43 -39 48 -39 6 0 56 -44 112 -98 56
-54 114 -104 128 -111 37 -18 869 -854 869 -872 0 -8 32 -46 71 -84 38 -39 80
-85 91 -104 12 -18 41 -54 65 -78 23 -25 43 -49 43 -55 0 -6 35 -47 79 -92 43
-44 86 -94 94 -111 8 -16 36 -50 61 -75 25 -24 46 -50 46 -57 0 -6 23 -38 50
-69 28 -31 50 -63 50 -69 0 -7 7 -18 16 -26 8 -7 24 -29 35 -48 24 -44 60 -96
93 -136 40 -48 90 -118 104 -145 7 -14 23 -41 37 -60 13 -19 34 -48 45 -65 11
-16 32 -46 45 -65 14 -19 31 -49 39 -66 8 -17 23 -37 32 -45 9 -8 23 -29 31
-46 7 -18 17 -33 22 -33 4 0 23 -29 40 -65 18 -35 36 -67 41 -70 6 -4 10 -14
10 -24 0 -10 10 -26 21 -37 12 -10 28 -32 36 -49 7 -16 17 -37 22 -45 5 -8 12
-22 15 -30 3 -8 10 -22 14 -30 5 -8 13 -22 18 -31 5 -10 24 -38 42 -63 17 -26
32 -53 32 -60 0 -8 7 -19 15 -26 8 -7 15 -19 15 -28 0 -9 9 -25 19 -36 11 -12
45 -70 76 -131 31 -60 60 -117 65 -125 5 -8 11 -22 14 -30 3 -8 10 -22 15 -30
5 -8 12 -22 15 -30 3 -8 10 -22 15 -30 25 -41 91 -192 91 -209 0 -10 7 -24 15
-31 8 -7 15 -20 15 -30 0 -10 7 -23 15 -30 8 -7 15 -19 15 -28 0 -8 6 -23 13
-31 7 -9 20 -36 27 -61 7 -25 19 -56 26 -70 7 -14 15 -32 18 -40 3 -8 10 -22
15 -30 5 -8 12 -22 15 -30 3 -8 10 -22 14 -30 29 -51 42 -85 42 -105 0 -13 4
-27 10 -30 15 -9 59 -106 66 -146 4 -19 13 -43 21 -54 7 -11 13 -27 13 -36 0
-9 14 -44 30 -77 17 -34 30 -68 30 -76 0 -8 6 -30 14 -48 22 -52 48 -129 60
-178 6 -25 17 -55 24 -67 6 -12 12 -37 12 -57 0 -19 6 -47 14 -63 16 -33 35
-85 46 -132 5 -18 13 -38 19 -44 6 -6 11 -22 11 -35 0 -13 5 -33 12 -45 6 -12
16 -42 20 -67 5 -25 12 -58 15 -75 3 -16 10 -36 16 -43 6 -8 14 -35 18 -60 7
-50 23 -99 45 -145 8 -16 14 -42 14 -59 0 -16 6 -44 14 -61 8 -18 16 -48 19
-67 2 -19 9 -48 15 -65 18 -52 32 -124 32 -168 0 -23 7 -51 15 -61 8 -11 15
-36 15 -55 1 -20 7 -47 15 -61 8 -14 15 -52 15 -85 0 -33 7 -71 15 -85 8 -14
14 -48 15 -76 0 -28 6 -59 15 -70 9 -12 14 -43 15 -82 0 -35 6 -73 12 -85 13
-23 25 -128 34 -301 3 -62 11 -107 20 -120 11 -15 14 -57 14 -171 1 -116 4
-154 15 -169 12 -16 15 -67 15 -286 0 -219 3 -270 15 -286 21 -28 21 -696 0
-734 -11 -20 -14 -79 -15 -285 -1 -206 -4 -265 -15 -285 -10 -18 -14 -62 -15
-160 0 -100 -4 -141 -14 -156 -9 -13 -16 -60 -20 -134 -8 -166 -21 -281 -34
-313 -7 -16 -12 -52 -12 -82 0 -29 -7 -66 -15 -81 -8 -16 -15 -51 -15 -79 0
-28 -7 -59 -15 -69 -10 -13 -15 -43 -15 -86 0 -43 -5 -73 -15 -86 -8 -10 -15
-34 -15 -52 0 -19 -6 -48 -14 -65 -8 -18 -17 -54 -20 -82 -6 -63 -20 -132 -35
-168 -6 -16 -11 -43 -11 -61 0 -17 -5 -37 -12 -44 -6 -6 -15 -33 -19 -59 -7
-51 -22 -100 -45 -146 -8 -16 -14 -42 -14 -59 0 -16 -6 -44 -14 -61 -16 -38
-34 -100 -39 -142 -5 -30 -19 -73 -44 -132 -7 -17 -13 -39 -13 -50 0 -10 -7
-27 -15 -37 -8 -11 -15 -32 -15 -46 0 -14 -7 -35 -15 -46 -8 -10 -15 -33 -15
-51 0 -18 -6 -47 -14 -65 -8 -18 -26 -73 -42 -123 -15 -49 -33 -102 -40 -117
-8 -14 -14 -37 -14 -50 0 -12 -7 -32 -15 -42 -8 -11 -15 -29 -15 -40 0 -12
-14 -48 -30 -80 -17 -32 -30 -65 -30 -73 0 -7 -18 -49 -40 -93 -22 -44 -40
-86 -40 -95 0 -8 -27 -69 -60 -135 -33 -66 -60 -126 -60 -133 0 -7 -25 -62
-55 -123 -30 -60 -55 -116 -55 -125 0 -19 -272 -563 -293 -587 -9 -9 -34 -54
-57 -99 -22 -45 -45 -85 -51 -88 -5 -4 -25 -37 -44 -75 -19 -38 -39 -71 -45
-75 -6 -4 -38 -59 -71 -123 -57 -112 -78 -146 -134 -221 -14 -19 -25 -40 -25
-46 0 -7 -9 -20 -19 -29 -11 -10 -27 -32 -36 -49 -8 -18 -31 -52 -50 -77 -19
-25 -43 -61 -54 -80 -11 -19 -33 -48 -50 -64 -17 -17 -31 -35 -31 -41 0 -7
-22 -38 -50 -69 -27 -31 -50 -62 -50 -68 0 -7 -9 -21 -20 -32 -10 -12 -32 -47
-47 -78 -31 -61 -62 -101 -165 -212 -38 -40 -68 -78 -68 -85 0 -7 -31 -46 -70
-85 -38 -40 -70 -78 -70 -85 0 -6 -27 -41 -60 -76 -33 -35 -60 -69 -60 -75 0
-6 -40 -54 -90 -106 -49 -51 -90 -100 -90 -106 0 -18 -822 -838 -839 -838 -7
0 -53 -38 -100 -85 -48 -47 -93 -85 -99 -85 -7 0 -42 -27 -77 -60 -35 -33 -69
-60 -75 -60 -6 0 -47 -34 -91 -75 -44 -41 -85 -75 -91 -75 -6 0 -44 -30 -84
-67 -107 -99 -160 -143 -172 -143 -6 0 -27 -14 -45 -30 -19 -17 -39 -30 -44
-30 -6 0 -23 -10 -39 -23 -28 -22 -62 -45 -124 -82 -18 -11 -55 -39 -82 -63
-27 -23 -53 -42 -59 -42 -5 0 -38 -21 -72 -48 -34 -26 -73 -53 -87 -60 -14 -7
-41 -23 -60 -37 -19 -13 -48 -34 -65 -45 -16 -11 -46 -31 -65 -45 -19 -13 -71
-42 -115 -65 -44 -23 -89 -49 -100 -59 -11 -10 -59 -37 -106 -60 -48 -23 -92
-48 -99 -57 -7 -8 -38 -27 -69 -41 -31 -14 -65 -34 -76 -44 -26 -23 -675 -349
-696 -349 -9 0 -65 -25 -124 -55 -60 -30 -116 -55 -125 -55 -9 0 -65 -25 -125
-55 -59 -30 -116 -55 -125 -55 -9 0 -42 -14 -73 -30 -31 -16 -64 -30 -72 -30
-9 0 -39 -12 -68 -27 -29 -14 -65 -30 -82 -34 -49 -13 -138 -46 -170 -63 -16
-9 -39 -16 -50 -16 -11 0 -29 -7 -39 -15 -11 -8 -35 -15 -53 -15 -18 0 -47 -6
-65 -14 -61 -25 -103 -38 -148 -46 -25 -5 -72 -18 -104 -29 -33 -12 -66 -21
-75 -21 -9 0 -25 -7 -35 -15 -11 -8 -30 -15 -42 -15 -12 0 -35 -6 -51 -14 -46
-23 -95 -38 -146 -45 -26 -4 -53 -13 -59 -19 -7 -7 -27 -12 -46 -12 -19 0 -48
-6 -65 -14 -18 -8 -49 -17 -69 -20 -21 -3 -55 -9 -75 -12 -21 -3 -52 -12 -70
-20 -17 -8 -46 -14 -65 -14 -18 0 -42 -7 -52 -15 -11 -8 -36 -15 -55 -15 -20
-1 -47 -7 -61 -15 -14 -8 -48 -14 -76 -15 -28 0 -59 -6 -70 -15 -10 -8 -41
-15 -67 -15 -27 0 -58 -5 -70 -12 -22 -12 -78 -21 -217 -36 -41 -4 -85 -13
-97 -20 -12 -7 -55 -12 -95 -12 -44 -1 -83 -6 -98 -15 -16 -9 -56 -15 -115
-15 -59 0 -99 -6 -115 -15 -18 -10 -60 -14 -146 -15 -90 0 -125 -4 -140 -15
-15 -12 -65 -14 -269 -15 -197 -1 -255 -4 -275 -15 -38 -22 -935 -22 -976 0
-23 12 -75 15 -259 15 -180 1 -235 4 -255 15 -18 10 -62 14 -160 15 -102 0
-140 4 -154 15 -14 10 -45 15 -101 15 -56 0 -87 5 -101 15 -13 10 -45 14 -99
15 -53 0 -88 5 -101 14 -11 8 -51 17 -89 20 -39 3 -101 8 -140 11 -38 4 -84
13 -102 21 -17 7 -51 14 -75 14 -23 1 -54 7 -68 15 -14 8 -41 15 -60 15 -19 0
-44 7 -54 15 -11 9 -42 15 -70 15 -28 1 -62 7 -76 15 -14 8 -41 14 -60 15 -20
0 -44 6 -55 14 -11 7 -40 16 -65 19 -100 14 -156 29 -238 63 -18 8 -47 14 -65
14 -18 0 -41 7 -51 15 -11 8 -32 15 -46 15 -14 0 -35 7 -46 15 -10 8 -33 15
-51 15 -18 0 -47 6 -65 14 -18 8 -53 20 -78 26 -25 7 -59 19 -77 26 -17 8 -38
14 -46 14 -8 0 -28 7 -43 15 -16 8 -45 15 -65 15 -19 0 -40 5 -46 11 -6 6 -26
14 -44 19 -32 8 -54 15 -139 45 -19 7 -55 18 -80 25 -25 7 -73 25 -106 41 -34
16 -68 29 -76 29 -8 0 -41 14 -73 30 -32 17 -66 30 -74 30 -9 0 -51 18 -94 40
-42 22 -84 40 -92 40 -9 0 -69 27 -135 60 -66 33 -127 60 -135 60 -8 0 -65 25
-125 55 -60 30 -116 55 -123 55 -18 0 -394 187 -402 200 -4 6 -51 33 -105 60
-54 27 -101 54 -105 60 -4 6 -46 31 -95 55 -49 24 -91 49 -95 54 -3 6 -48 31
-100 57 -52 25 -100 53 -106 61 -7 8 -37 26 -68 41 -31 15 -83 47 -116 72 -33
25 -71 51 -85 58 -14 7 -41 23 -60 37 -19 13 -48 34 -65 45 -16 11 -46 32 -65
45 -19 14 -46 30 -60 37 -14 7 -47 32 -74 55 -26 24 -53 43 -58 43 -11 0 -42
23 -117 85 -26 22 -63 49 -82 60 -79 47 -96 59 -136 96 -24 22 -48 39 -55 39
-6 0 -44 31 -84 70 -39 38 -78 70 -86 70 -7 0 -40 27 -73 61 -33 33 -73 68
-90 76 -37 20 -130 102 -343 309 -92 88 -179 166 -194 173 -35 18 -358 344
-358 362 0 7 -73 88 -162 180 -186 190 -258 271 -281 314 -8 17 -36 50 -61 75
-25 24 -46 51 -46 58 0 8 -38 54 -85 101 -47 48 -85 92 -85 99 0 6 -23 37 -50
68 -28 31 -50 62 -50 69 0 6 -14 24 -31 41 -17 16 -39 45 -50 64 -11 19 -35
55 -54 80 -19 25 -39 55 -45 67 -5 12 -26 40 -46 63 -20 22 -44 53 -53 69 -41
72 -59 97 -92 135 -20 23 -47 64 -60 91 -13 28 -45 78 -71 112 -27 34 -48 67
-48 72 0 6 -12 25 -28 43 -15 18 -47 72 -70 120 -24 48 -47 90 -53 94 -5 3
-30 45 -54 94 -24 49 -49 91 -55 95 -6 4 -33 51 -60 105 -27 54 -54 101 -59
105 -13 7 -291 564 -291 582 0 7 -18 49 -40 93 -22 44 -40 86 -40 95 0 8 -25
65 -55 125 -30 60 -55 115 -55 122 0 7 -20 55 -45 106 -25 51 -45 99 -45 107
0 8 -13 41 -29 72 -15 32 -36 85 -46 118 -10 33 -28 83 -40 110 -25 56 -43
105 -55 150 -13 48 -31 98 -46 128 -8 16 -14 41 -14 56 0 15 -10 54 -22 86
-11 33 -24 80 -28 105 -8 45 -20 85 -46 148 -8 18 -14 47 -14 65 0 18 -7 42
-15 53 -8 10 -15 28 -15 39 0 11 -7 33 -15 49 -8 15 -15 42 -15 58 0 16 -5 39
-12 51 -12 22 -23 72 -35 157 -3 25 -12 54 -19 65 -8 11 -14 35 -14 55 -1 19
-7 46 -15 60 -8 14 -14 41 -15 61 0 19 -7 44 -15 55 -8 10 -15 41 -15 69 0 28
-7 63 -15 79 -8 15 -15 42 -15 58 0 16 -6 39 -12 51 -12 21 -23 99 -34 242 -3
38 -12 78 -20 89 -8 12 -14 46 -14 86 -1 37 -7 76 -15 90 -9 15 -15 55 -15
100 0 45 -6 85 -15 100 -10 17 -14 58 -15 131 0 77 -4 110 -15 125 -11 15 -15
53 -15 169 -1 111 -4 157 -15 175 -21 37 -22 1516 0 1575 10 27 14 84 15 181
0 98 4 144 12 152 8 8 14 54 16 130 2 64 9 123 14 130 6 7 14 56 17 110 4 53
12 106 18 117 6 11 13 53 15 92 3 40 10 78 16 85 5 7 12 43 16 81 3 37 9 97
12 135 4 37 10 72 15 78 5 6 12 33 15 60 4 27 13 58 20 69 8 11 14 40 14 66 0
26 7 63 15 82 8 20 15 49 15 64 0 16 6 37 14 48 7 11 16 43 19 72 3 28 10 60
16 70 5 10 15 52 21 93 6 41 18 90 26 108 8 18 14 46 14 61 0 16 7 42 15 57 8
16 15 38 15 49 0 11 7 29 15 39 8 11 15 34 15 51 0 17 7 40 15 51 8 10 15 32
15 47 0 15 6 40 13 55 8 15 19 61 26 102 7 41 19 91 26 110 26 74 37 106 45
135 13 48 31 98 46 128 8 16 14 39 14 52 0 13 4 27 10 30 10 6 35 57 43 90 7
26 27 82 44 122 7 17 13 38 13 46 0 8 7 20 15 27 8 7 15 21 15 32 0 11 6 32
14 46 8 15 17 34 20 42 3 8 10 22 15 30 15 24 38 81 52 128 7 23 18 47 26 53
7 6 13 19 13 29 0 10 7 23 15 30 8 7 15 18 15 25 0 7 9 34 21 61 11 27 24 58
29 69 4 11 20 45 34 74 14 30 26 65 26 77 0 12 7 27 15 34 8 7 15 20 15 30 0
10 7 23 15 30 8 7 15 20 15 30 0 10 7 23 15 30 8 7 15 21 15 31 0 10 4 20 8
23 8 4 54 95 76 146 3 8 10 22 15 30 5 8 12 22 15 30 3 8 10 22 15 30 5 8 12
22 16 30 3 8 16 31 28 50 12 20 31 50 42 69 11 18 34 53 50 79 43 65 43 65 49
82 3 8 10 22 15 30 5 8 12 22 15 30 6 15 12 27 35 65 6 11 18 34 26 52 8 17
20 35 25 38 6 4 15 17 21 28 5 12 13 29 18 37 5 8 12 22 15 30 6 15 31 55 73
121 21 32 32 50 88 129 14 19 31 49 39 66 8 17 22 37 31 44 9 7 23 27 32 43 8
17 19 35 24 41 34 43 79 108 79 115 0 4 10 21 23 37 22 28 45 62 82 124 11 18
39 55 63 82 23 27 42 53 42 58 0 12 60 94 105 143 19 20 46 54 59 75 13 20 49
62 80 92 31 30 56 61 56 68 0 8 32 47 70 86 39 40 70 78 70 84 0 6 22 37 50
68 28 31 50 62 50 68 0 5 83 94 185 197 102 102 185 192 185 200 0 18 341 359
359 359 8 0 92 77 186 170 94 94 176 170 183 170 7 0 42 27 77 60 35 33 69 60
75 60 6 0 44 32 85 70 41 39 79 70 85 70 6 0 47 34 91 75 44 41 84 75 89 75 4
0 21 13 37 29 16 15 42 35 58 44 17 8 43 29 59 46 17 17 35 31 41 31 6 0 26
13 45 30 19 16 40 29 47 30 6 0 38 23 69 50 31 28 62 50 67 50 6 0 20 9 31 19
12 11 35 27 52 38 17 10 71 45 119 78 48 33 101 68 119 78 17 11 40 27 52 38
11 10 25 19 31 19 6 0 30 16 53 35 23 19 48 35 54 35 7 0 21 9 30 19 10 11 42
31 72 46 29 14 56 30 59 36 4 5 14 9 24 9 10 0 24 7 31 15 7 8 20 15 30 15 10
0 23 7 31 16 7 8 29 24 48 35 20 10 43 23 51 28 8 5 35 19 60 30 25 12 65 37
90 55 25 19 52 35 61 35 9 1 22 8 29 16 7 8 20 15 30 15 10 0 23 7 30 15 7 8
24 21 39 28 14 7 35 18 46 24 11 7 27 14 35 17 8 3 23 10 33 16 87 50 295 150
314 150 10 1 36 12 58 25 22 14 47 27 55 31 8 3 30 12 48 20 18 8 39 14 47 14
9 0 64 25 124 55 60 30 118 55 129 55 11 0 25 7 32 15 7 8 20 15 30 15 10 0
23 7 30 15 7 8 20 15 29 15 10 0 26 7 37 15 10 8 27 15 36 15 10 0 42 11 72
25 30 14 61 25 69 25 8 0 39 14 70 30 31 17 64 30 73 30 9 0 30 6 47 13 46 20
97 38 132 46 17 4 49 18 72 29 23 12 55 22 71 22 17 0 43 7 58 15 16 8 38 15
49 15 11 0 29 7 39 15 11 8 35 15 53 15 18 0 47 6 65 14 62 26 103 38 148 46
25 4 68 15 95 25 28 10 68 22 90 26 41 7 85 21 143 45 18 8 47 14 65 14 18 0
42 7 53 15 10 8 35 15 54 15 19 0 48 7 64 15 15 8 42 15 58 15 16 0 39 5 50
11 12 6 42 13 67 15 47 3 113 17 166 36 17 6 55 13 85 16 30 2 64 10 75 18 11
8 46 14 85 14 37 1 76 7 90 15 14 8 51 14 83 15 33 0 73 7 90 14 18 8 64 17
102 21 222 17 263 22 288 33 16 7 74 12 130 12 74 1 107 5 121 15 15 12 54 15
170 15 112 1 157 4 176 15 38 22 1417 22 1446 0z"/>
<path d="M10931 26834 c-21 -9 -61 -14 -101 -13 -64 2 -143 -11 -205 -33 -16
-6 -48 -13 -69 -16 -22 -2 -64 -17 -95 -33 -30 -16 -63 -29 -72 -29 -23 0
-266 -124 -293 -149 -12 -12 -28 -21 -34 -21 -7 0 -31 -17 -55 -39 -23 -21
-55 -45 -72 -54 -39 -20 -295 -279 -295 -299 0 -8 -9 -23 -19 -32 -11 -10 -27
-32 -36 -49 -8 -18 -31 -52 -50 -77 -48 -63 -118 -200 -149 -295 -15 -44 -31
-87 -35 -95 -5 -9 -12 -31 -16 -50 -4 -19 -11 -39 -15 -45 -12 -16 -21 -82
-27 -200 -2 -61 -10 -116 -16 -124 -9 -10 -13 -355 -15 -1347 l-2 -1333 32
-15 c29 -14 146 -16 893 -21 1048 -6 1250 -10 1279 -30 13 -9 45 -15 86 -15
41 -1 72 -6 84 -15 11 -9 42 -15 70 -15 28 -1 62 -7 76 -15 14 -8 41 -14 61
-15 19 0 44 -7 55 -15 10 -8 34 -15 52 -15 19 0 48 -6 65 -14 18 -7 52 -19 77
-26 25 -6 60 -18 78 -26 18 -8 39 -14 48 -14 8 0 41 -13 74 -30 33 -16 68 -30
78 -30 10 0 27 -7 38 -15 10 -8 28 -15 40 -15 12 0 83 -31 160 -70 76 -38 147
-70 157 -70 10 0 29 11 42 25 l25 24 0 1628 c-1 1392 -3 1632 -15 1653 -8 14
-14 48 -15 75 0 28 -6 59 -14 70 -7 11 -16 38 -18 60 -8 59 -21 92 -119 290
-97 194 -111 219 -176 297 -24 29 -43 57 -43 62 0 15 -178 187 -220 213 -19
12 -55 42 -80 67 -24 25 -50 46 -56 46 -7 0 -25 11 -41 24 -33 28 -265 146
-308 157 -44 11 -96 29 -128 45 -16 8 -35 14 -44 14 -8 0 -29 6 -46 14 -40 18
-85 25 -212 35 -55 4 -116 13 -135 19 -49 17 -188 14 -229 -4z m189 -119 c16
-9 56 -14 113 -15 49 0 98 -5 110 -12 12 -6 42 -15 67 -19 48 -7 98 -23 143
-45 16 -8 36 -14 45 -14 9 0 30 -7 46 -15 15 -8 36 -15 45 -15 22 0 230 -106
257 -131 11 -10 25 -19 32 -19 6 0 37 -24 69 -54 32 -29 72 -60 88 -69 36 -18
195 -179 195 -197 0 -7 20 -35 45 -62 25 -28 45 -55 45 -61 0 -6 9 -20 19 -31
26 -27 191 -360 191 -384 0 -10 7 -27 15 -38 8 -10 15 -34 15 -52 0 -19 6 -48
14 -65 8 -18 18 -57 22 -87 8 -64 21 -3042 14 -3085 -7 -42 -30 -42 -113 -2
-40 19 -110 46 -157 62 -47 15 -90 31 -95 35 -6 5 -67 27 -135 50 -69 22 -134
45 -145 49 -11 5 -54 15 -95 22 -41 7 -80 16 -87 22 -7 5 -41 11 -75 14 -35 3
-69 10 -76 16 -7 5 -45 12 -85 15 -39 2 -78 10 -86 16 -9 7 -92 13 -227 16
-151 4 -217 9 -226 18 -9 9 -193 12 -853 12 -745 0 -843 2 -863 16 l-22 15 0
1217 c1 1036 3 1221 15 1242 10 17 15 58 15 130 0 72 5 113 15 130 8 14 14 41
15 60 0 20 6 44 13 55 7 11 20 47 27 80 7 33 20 69 27 80 7 11 13 28 13 39 0
29 107 233 157 298 23 31 43 60 43 65 0 5 13 24 29 43 15 19 31 45 35 56 8 25
199 214 217 214 6 0 31 17 54 38 24 20 58 47 76 59 55 36 288 153 305 153 8 0
41 14 74 30 33 17 74 30 93 30 18 0 42 7 53 15 10 8 35 15 54 15 19 0 48 7 64
15 19 10 58 15 115 15 54 0 95 5 111 14 33 18 99 19 130 1z"/>
<path d="M5894 26015 c-10 -8 -40 -15 -66 -15 -26 0 -62 -6 -80 -14 -18 -8
-53 -20 -78 -26 -25 -7 -59 -19 -77 -26 -17 -8 -37 -14 -45 -14 -46 0 -433
-224 -482 -279 -11 -11 -25 -21 -32 -21 -19 0 -182 -157 -190 -183 -3 -12 -31
-48 -60 -79 -30 -31 -58 -67 -64 -80 -6 -13 -26 -43 -45 -68 -19 -25 -43 -61
-54 -81 -11 -19 -27 -41 -35 -48 -9 -8 -16 -21 -16 -31 0 -10 -7 -23 -15 -30
-8 -7 -15 -20 -15 -29 0 -10 -7 -26 -15 -37 -8 -10 -15 -31 -15 -45 0 -15 -7
-32 -15 -39 -8 -7 -15 -17 -15 -22 0 -6 -6 -24 -13 -41 -24 -55 -37 -102 -37
-133 -1 -16 -7 -40 -15 -54 -8 -14 -14 -52 -15 -88 0 -39 -6 -72 -15 -86 -14
-20 -15 -137 -13 -974 l3 -950 24 -26 24 -26 1736 0 1736 0 28 25 27 26 0 984
c0 645 -3 986 -10 990 -5 3 -10 32 -10 64 0 40 -5 63 -15 71 -9 8 -15 30 -15
60 0 30 -6 52 -15 60 -8 7 -15 25 -15 40 0 15 -7 33 -15 40 -8 7 -15 27 -15
45 0 18 -7 38 -15 45 -8 7 -15 20 -15 30 0 10 -7 23 -15 30 -8 7 -15 25 -15
40 0 28 -24 85 -41 95 -5 4 -9 14 -9 24 0 9 -13 30 -30 46 -16 16 -30 36 -30
45 0 8 -25 40 -55 70 -30 30 -55 61 -55 70 0 18 -240 260 -258 260 -6 0 -34
20 -62 45 -28 25 -57 45 -64 45 -7 0 -21 9 -30 19 -10 11 -39 30 -64 42 -26
12 -59 32 -74 44 -15 13 -42 26 -60 30 -18 4 -58 20 -88 35 -81 42 -127 60
-200 77 -152 35 -176 41 -203 52 -18 7 -121 11 -286 11 -211 0 -261 -3 -277
-15z m543 -126 c27 -6 62 -15 78 -21 17 -6 46 -13 65 -15 19 -3 49 -11 67 -19
17 -8 37 -14 45 -14 8 0 54 -20 102 -45 49 -25 96 -45 106 -45 10 0 23 -6 29
-14 7 -8 38 -27 69 -42 31 -16 73 -41 92 -56 19 -16 39 -28 46 -28 6 0 21 -12
35 -26 13 -15 40 -37 59 -49 49 -31 184 -165 203 -201 9 -16 36 -49 61 -74 25
-24 46 -48 46 -54 0 -5 12 -25 27 -44 32 -43 103 -178 103 -197 0 -8 13 -42
28 -77 40 -89 52 -123 71 -208 9 -41 20 -81 24 -87 4 -7 10 -36 13 -65 3 -29
12 -70 20 -91 12 -31 14 -183 14 -912 0 -862 0 -875 -20 -895 -20 -20 -33 -20
-1648 -20 -1457 0 -1630 2 -1650 16 l-22 15 0 880 c0 676 3 885 12 902 7 12
16 54 20 92 14 138 28 191 79 301 16 33 29 68 29 77 0 22 68 154 98 191 13 17
28 39 33 50 5 12 25 41 44 66 19 25 43 61 54 80 11 19 40 55 65 80 25 24 46
51 46 58 0 18 66 82 84 82 7 0 25 14 42 31 16 17 45 39 64 50 19 11 55 35 80
54 25 19 108 65 185 103 136 67 177 85 240 102 39 11 91 29 133 46 18 8 52 14
75 14 23 0 49 5 57 10 21 13 438 13 497 -1z"/>
<path d="M15665 26023 c-11 -3 -24 -9 -29 -14 -6 -5 -28 -9 -49 -9 -50 0 -172
-38 -303 -94 -34 -14 -66 -26 -71 -26 -19 0 -138 -64 -173 -92 -19 -15 -39
-28 -44 -28 -5 0 -18 -8 -28 -17 -11 -10 -34 -26 -53 -38 -83 -51 -119 -82
-257 -221 -147 -149 -180 -187 -217 -256 -12 -20 -25 -40 -31 -43 -14 -9 -110
-201 -110 -220 0 -9 -11 -38 -25 -65 -14 -27 -25 -56 -25 -64 0 -7 -7 -27 -15
-42 -8 -16 -15 -45 -15 -64 0 -19 -7 -44 -15 -54 -9 -11 -15 -42 -15 -70 -1
-28 -7 -62 -15 -76 -12 -21 -14 -284 -15 -1827 l0 -1802 29 -33 c15 -18 40
-58 55 -89 15 -32 33 -62 41 -69 8 -7 15 -20 15 -29 0 -10 27 -71 60 -136 33
-65 60 -126 60 -135 0 -9 11 -38 25 -64 14 -26 25 -55 25 -64 0 -9 13 -43 29
-77 28 -59 44 -101 61 -160 5 -16 18 -57 29 -89 12 -33 21 -73 21 -90 0 -17 7
-40 15 -50 8 -11 15 -36 15 -55 1 -20 7 -47 15 -61 8 -14 14 -48 15 -76 0 -28
6 -59 15 -70 10 -13 14 -45 15 -100 0 -55 5 -86 15 -100 22 -29 22 -758 0
-800 -8 -16 -15 -56 -15 -89 -1 -33 -7 -71 -15 -85 -8 -14 -14 -52 -15 -85 0
-33 -7 -73 -15 -89 -8 -15 -15 -41 -15 -57 0 -15 -6 -43 -14 -61 -22 -54 -36
-103 -36 -130 0 -14 -7 -39 -15 -54 -8 -16 -15 -37 -15 -46 0 -14 -16 -51 -42
-98 -4 -8 -10 -19 -12 -25 -1 -5 -9 -26 -16 -45 -22 -61 -23 -87 -5 -114 19
-29 98 -86 119 -86 8 0 19 -7 26 -15 7 -8 20 -15 30 -15 10 0 23 -6 29 -14 6
-8 24 -16 39 -19 15 -2 43 -10 62 -17 19 -7 51 -18 70 -25 19 -7 55 -18 80
-25 25 -7 59 -19 77 -26 17 -8 46 -14 65 -14 18 0 42 -7 52 -15 13 -10 44 -15
85 -15 42 -1 73 -6 85 -15 16 -12 69 -15 301 -15 232 0 285 3 301 15 12 9 43
14 85 15 41 0 72 5 85 15 10 8 34 15 52 15 19 0 48 6 65 14 18 8 48 17 67 19
142 20 455 171 539 261 14 14 30 26 38 26 7 0 46 31 85 69 40 37 87 75 103 84
39 20 235 220 235 239 0 8 10 23 21 34 12 10 28 33 36 49 8 17 43 71 78 120
64 90 165 272 165 298 0 8 13 40 29 73 16 32 32 70 36 84 3 14 10 34 14 45 12
28 31 135 31 171 0 17 5 35 12 42 7 7 14 51 16 110 2 53 9 108 15 121 17 35
17 5197 0 5232 -6 13 -13 68 -15 121 -2 59 -9 103 -16 110 -7 7 -12 24 -12 39
0 25 -13 73 -30 114 -5 11 -12 31 -15 45 -12 46 -149 315 -177 348 -15 18 -28
38 -28 45 0 8 -14 26 -31 43 -17 16 -38 43 -46 59 -9 17 -33 49 -54 72 -22 24
-39 48 -39 56 0 15 -81 97 -97 97 -6 0 -33 19 -59 43 -27 23 -60 48 -74 55
-14 7 -41 23 -60 37 -19 13 -48 34 -65 45 -16 11 -46 32 -65 45 -49 34 -247
135 -264 135 -9 0 -30 6 -48 14 -18 8 -53 19 -78 26 -25 7 -53 16 -63 22 -10
5 -42 12 -70 14 -29 3 -69 12 -90 20 -29 11 -94 14 -285 13 -136 -1 -256 -3
-267 -6z m555 -138 c30 -3 69 -13 87 -21 17 -8 39 -14 50 -14 10 0 27 -7 37
-15 11 -8 31 -15 45 -15 14 0 35 -7 45 -15 11 -8 29 -15 40 -15 24 0 212 -94
242 -121 11 -10 24 -19 30 -19 5 0 29 -16 53 -35 24 -19 49 -35 55 -35 6 -1
27 -14 46 -30 19 -17 40 -30 46 -30 17 0 214 -199 214 -216 0 -7 19 -36 43
-63 58 -69 75 -96 157 -256 68 -132 101 -210 119 -280 4 -17 13 -40 19 -52 7
-12 12 -37 12 -55 0 -19 7 -43 15 -54 10 -13 14 -46 15 -115 0 -68 4 -101 15
-115 13 -17 14 -336 14 -2519 0 -2183 -1 -2502 -14 -2519 -11 -14 -15 -47 -15
-115 -1 -69 -5 -102 -15 -115 -9 -11 -15 -42 -15 -70 -1 -28 -7 -62 -15 -76
-8 -14 -14 -41 -15 -61 0 -19 -7 -44 -15 -55 -8 -10 -15 -28 -15 -40 0 -12
-11 -42 -25 -68 -14 -26 -25 -55 -25 -64 0 -22 -86 -191 -111 -218 -10 -11
-19 -25 -19 -31 0 -6 -16 -30 -35 -53 -19 -23 -35 -47 -35 -53 0 -6 -9 -20
-19 -31 -19 -21 -35 -46 -76 -116 -27 -47 -175 -200 -193 -200 -8 0 -47 -31
-86 -70 -40 -38 -78 -70 -84 -70 -6 0 -33 -19 -60 -42 -27 -24 -62 -51 -78
-60 -16 -10 -36 -22 -44 -27 -8 -5 -22 -12 -30 -15 -8 -3 -22 -10 -30 -15 -8
-5 -22 -12 -30 -15 -8 -4 -31 -16 -50 -27 -33 -21 -140 -61 -205 -78 -17 -4
-40 -13 -52 -19 -12 -7 -37 -12 -55 -12 -18 -1 -44 -7 -58 -15 -14 -8 -41 -14
-61 -15 -19 0 -44 -7 -55 -15 -12 -9 -43 -14 -85 -15 -41 0 -72 -5 -85 -15
-28 -21 -390 -21 -418 0 -13 10 -43 15 -86 15 -37 0 -71 5 -78 12 -6 6 -33 15
-59 19 -27 4 -64 12 -83 19 -19 7 -51 18 -70 25 -19 7 -51 18 -70 25 -19 6
-62 19 -95 28 -32 10 -95 35 -140 57 -68 34 -80 44 -83 68 -2 15 6 42 17 61
12 18 21 44 21 58 0 13 7 33 15 44 8 10 15 33 15 51 0 18 6 47 14 65 39 93 53
152 64 268 4 41 13 85 20 97 7 12 12 50 12 85 1 39 6 70 15 82 22 29 22 928 0
966 -9 15 -14 54 -15 98 0 42 -6 88 -14 105 -8 18 -17 55 -20 82 -6 71 -20
136 -34 162 -7 12 -12 35 -12 52 0 17 -6 45 -14 63 -19 47 -36 98 -46 137 -5
18 -13 38 -19 44 -6 6 -11 21 -11 33 0 13 -11 44 -25 70 -14 26 -25 53 -25 61
0 8 -13 41 -30 75 -16 33 -30 67 -30 77 0 9 -25 65 -55 124 -30 59 -55 116
-55 126 0 10 -13 35 -30 56 -16 21 -30 42 -30 47 0 4 -12 27 -27 50 -16 23
-36 53 -45 67 -15 24 -17 154 -17 1737 -1 1500 1 1716 14 1747 8 20 15 56 15
81 0 25 4 47 9 50 5 3 14 36 20 72 7 36 16 73 20 82 5 10 17 37 27 62 10 25
26 64 36 87 10 23 18 45 18 50 0 16 80 171 95 183 8 7 15 18 15 24 0 6 13 27
29 46 15 19 31 44 35 55 8 28 298 315 318 315 8 0 23 9 32 19 10 11 32 27 49
36 18 8 52 31 77 50 53 41 173 105 195 105 9 0 42 14 75 30 33 17 68 30 78 30
10 0 27 7 38 15 10 8 31 15 45 15 14 0 34 7 45 15 10 8 41 15 69 15 28 0 57 5
65 10 16 11 433 7 530 -5z"/>
<path d="M20290 24223 c-14 -2 -29 -9 -34 -14 -6 -5 -30 -9 -55 -9 -62 -1
-230 -40 -256 -60 -5 -4 -23 -10 -40 -14 -47 -11 -268 -122 -289 -145 -11 -12
-25 -21 -33 -21 -7 0 -32 -17 -56 -38 -23 -21 -54 -44 -70 -52 -33 -16 -227
-214 -227 -231 0 -6 -18 -31 -40 -55 -22 -24 -40 -50 -40 -57 0 -8 -9 -22 -21
-33 -23 -21 -149 -270 -149 -295 0 -10 -6 -30 -14 -46 -23 -46 -38 -95 -45
-146 -4 -26 -13 -53 -19 -59 -7 -7 -12 -41 -12 -77 -1 -38 -7 -77 -15 -91 -12
-21 -14 -373 -14 -2500 0 -2127 2 -2479 14 -2500 8 -14 14 -46 15 -71 0 -26 7
-60 15 -75 8 -16 15 -45 15 -64 0 -19 7 -44 15 -54 8 -11 15 -29 15 -40 0 -12
7 -34 15 -50 8 -15 15 -35 15 -42 0 -16 159 -330 193 -383 33 -49 196 -214
242 -243 22 -14 58 -44 80 -67 21 -23 45 -41 51 -41 7 0 26 -11 41 -24 37 -31
344 -186 369 -186 11 0 28 -7 38 -15 11 -8 36 -15 55 -15 20 0 49 -7 65 -15
16 -9 55 -15 90 -15 39 0 69 -5 82 -15 28 -21 359 -22 400 0 18 9 58 15 104
15 46 1 85 6 100 15 14 8 40 14 58 15 18 0 58 14 89 30 31 17 63 30 72 30 23
0 179 79 222 113 20 15 39 27 43 27 17 0 77 53 239 210 178 174 234 240 280
330 15 30 39 70 52 89 14 19 25 42 25 53 0 10 11 41 25 68 14 27 25 56 25 64
0 7 7 27 15 42 8 16 15 45 15 64 0 19 7 44 15 54 9 11 15 42 15 70 1 28 7 62
15 76 22 39 22 5050 0 5103 -8 20 -15 56 -15 79 0 24 -6 52 -14 63 -7 11 -16
44 -19 74 -4 30 -11 59 -17 65 -5 5 -10 22 -10 37 0 26 -13 75 -31 114 -5 11
-13 31 -19 45 -9 24 -16 36 -40 78 -6 9 -18 30 -28 46 -9 16 -34 48 -54 71
-21 23 -38 48 -38 55 0 21 -318 337 -380 379 -60 40 -389 206 -430 216 -14 3
-34 10 -45 15 -37 17 -170 38 -203 33 -19 -3 -39 0 -49 8 -12 11 -61 14 -202
16 -102 0 -197 -1 -211 -4z m300 -118 c16 -9 55 -14 105 -15 52 0 88 -5 100
-14 11 -7 38 -16 60 -18 22 -3 56 -11 75 -18 45 -16 404 -194 449 -223 50 -32
280 -257 287 -281 4 -12 23 -40 43 -62 49 -56 73 -94 119 -189 47 -97 62 -136
73 -195 22 -118 26 -136 37 -157 7 -12 12 -43 12 -70 1 -26 7 -59 15 -73 22
-38 22 -4976 1 -5023 -8 -18 -17 -54 -19 -82 -2 -27 -9 -63 -15 -80 -6 -16
-17 -57 -24 -90 -7 -33 -25 -84 -40 -112 -15 -29 -28 -61 -28 -71 0 -10 -16
-41 -35 -68 -19 -27 -35 -52 -35 -56 0 -4 -20 -38 -44 -75 -44 -69 -353 -383
-376 -383 -7 0 -29 -12 -49 -27 -49 -38 -62 -46 -165 -98 -49 -25 -95 -45
-102 -45 -8 0 -42 -13 -76 -30 -34 -16 -75 -30 -90 -30 -16 0 -39 -6 -51 -12
-69 -39 -564 -39 -634 0 -12 6 -35 12 -51 12 -16 0 -43 7 -58 15 -16 8 -36 15
-44 15 -23 0 -329 156 -355 180 -12 11 -27 20 -34 20 -7 0 -38 24 -69 54 -31
29 -70 60 -87 69 -36 18 -195 179 -195 198 0 7 -9 22 -19 33 -34 36 -147 271
-185 383 -54 159 -54 162 -67 243 -6 41 -17 86 -23 99 -17 37 -16 4885 2 4903
6 6 12 35 13 63 0 50 19 151 30 170 4 6 10 26 14 45 4 19 11 40 15 45 4 6 11
26 15 45 4 19 11 41 15 50 47 100 136 272 153 298 12 19 41 56 65 83 23 27 42
55 42 62 0 15 141 157 157 157 7 0 35 19 62 43 27 23 64 52 83 64 56 38 290
151 338 164 25 6 59 18 77 25 17 8 46 14 65 14 18 0 42 7 52 15 13 10 43 15
86 15 43 0 73 5 86 15 26 20 189 20 224 0z"/>
<path d="M4595 21133 c-11 -3 -24 -9 -29 -14 -6 -5 -30 -9 -56 -9 -60 0 -258
-44 -320 -71 -19 -9 -75 -30 -125 -47 -98 -35 -287 -126 -332 -162 -15 -12
-42 -28 -59 -35 -18 -7 -49 -29 -70 -48 -22 -19 -52 -41 -69 -50 -38 -20 -370
-352 -399 -399 -11 -20 -41 -63 -66 -96 -113 -154 -109 -146 -160 -257 -23
-49 -46 -97 -50 -105 -20 -33 -50 -103 -50 -116 0 -7 -6 -28 -14 -46 -36 -86
-50 -141 -64 -253 -4 -33 -13 -70 -20 -82 -7 -13 -12 -64 -12 -125 -1 -70 -5
-111 -15 -128 -10 -18 -14 -59 -14 -145 0 -86 4 -127 14 -145 9 -16 14 -56 15
-113 0 -49 5 -98 12 -110 7 -12 16 -51 21 -87 23 -175 26 -187 64 -277 7 -17
13 -38 13 -46 0 -21 136 -284 173 -335 38 -52 80 -115 105 -157 9 -16 41 -55
70 -86 28 -30 52 -62 52 -69 0 -18 169 -189 205 -207 17 -9 56 -40 87 -69 31
-30 63 -54 70 -54 8 0 27 -14 44 -31 16 -17 45 -39 64 -50 19 -11 55 -35 80
-54 52 -40 210 -124 255 -136 38 -9 91 -28 130 -44 17 -8 48 -16 70 -19 84
-12 131 -23 152 -34 12 -7 42 -12 66 -12 25 0 58 -7 73 -15 26 -13 435 -15
3449 -15 3014 0 3423 2 3449 15 15 8 53 15 82 15 30 0 71 7 91 15 19 8 45 15
56 15 23 0 74 15 125 36 18 8 48 14 66 14 19 0 39 7 46 15 7 8 20 15 29 15 10
0 26 7 37 15 10 8 31 15 45 15 14 0 36 11 49 25 25 26 74 55 95 55 6 0 24 14
40 30 16 17 36 30 46 30 9 0 22 7 29 15 7 8 20 15 29 15 9 0 35 18 56 40 21
22 46 40 55 40 19 0 420 400 420 419 0 8 20 36 45 62 25 26 45 54 45 62 0 7
11 24 25 37 14 13 25 31 25 41 0 9 7 22 15 29 8 7 15 21 15 31 0 10 4 20 9 24
12 7 101 184 101 200 0 7 7 26 15 41 8 16 15 38 15 49 0 11 7 29 15 39 8 11
15 32 15 46 0 14 7 35 15 46 8 10 15 35 15 54 0 19 7 46 15 60 8 14 14 44 15
68 0 23 7 59 15 79 22 52 22 664 0 716 -8 20 -15 61 -15 91 0 31 -6 70 -14 88
-26 63 -38 103 -46 148 -3 25 -18 65 -31 90 -13 25 -30 70 -38 100 -15 61 -93
224 -122 256 -10 11 -19 25 -19 30 0 5 -13 25 -30 44 -16 19 -29 41 -30 48 0
7 -34 49 -75 92 -41 43 -75 84 -75 91 0 16 -260 279 -275 279 -7 0 -38 23 -69
50 -31 28 -63 50 -70 50 -7 0 -21 9 -30 19 -10 11 -42 31 -71 45 -29 14 -56
30 -60 36 -8 13 -140 80 -158 80 -8 0 -41 13 -73 30 -32 16 -68 30 -79 30 -11
0 -29 7 -39 15 -11 8 -32 15 -46 15 -14 0 -35 7 -46 15 -10 8 -27 15 -37 15
-11 0 -33 6 -50 14 -38 17 -82 25 -197 34 -47 4 -95 13 -107 20 -17 9 -723 12
-3360 11 -1836 -1 -3347 -3 -3358 -6z m6645 -118 c15 -9 54 -14 100 -15 46 0
86 -6 104 -15 15 -8 41 -15 57 -15 15 0 43 -6 61 -14 18 -8 53 -20 78 -26 25
-7 59 -19 77 -26 17 -8 37 -14 45 -14 8 0 41 -13 73 -30 32 -16 66 -30 74 -30
20 0 129 -55 153 -76 9 -9 41 -28 70 -43 29 -14 69 -38 89 -53 20 -16 39 -28
44 -28 30 0 475 -446 475 -477 0 -5 13 -24 30 -43 16 -19 29 -40 30 -47 0 -7
14 -28 30 -46 17 -19 30 -38 30 -42 0 -4 16 -42 37 -84 20 -42 40 -89 44 -106
4 -16 13 -46 20 -65 6 -19 14 -39 15 -45 2 -5 8 -17 12 -25 30 -52 42 -85 42
-109 0 -16 11 -59 25 -97 16 -44 25 -91 25 -129 1 -37 6 -67 15 -79 22 -29 22
-533 1 -579 -8 -18 -17 -54 -20 -82 -7 -75 -35 -189 -63 -255 -15 -38 -34 -91
-42 -125 -11 -41 -164 -339 -205 -398 -19 -27 -43 -57 -55 -68 -12 -11 -21
-25 -21 -31 0 -15 -339 -357 -370 -373 -14 -7 -37 -24 -50 -38 -14 -13 -52
-39 -85 -57 -33 -18 -68 -39 -77 -47 -9 -8 -41 -27 -70 -42 -29 -14 -69 -38
-89 -53 -20 -16 -45 -28 -55 -28 -11 0 -37 -9 -58 -21 -22 -11 -60 -24 -85
-29 -46 -8 -89 -21 -149 -46 -18 -8 -47 -14 -65 -14 -18 0 -41 -7 -51 -15 -13
-10 -44 -15 -85 -15 -38 -1 -77 -7 -91 -15 -38 -22 -6695 -22 -6724 0 -11 9
-42 15 -70 15 -28 1 -62 7 -76 15 -14 8 -41 14 -61 15 -19 0 -44 7 -55 15 -10
8 -32 15 -49 15 -46 0 -180 47 -290 101 -115 56 -123 61 -189 112 -27 20 -53
37 -58 37 -5 0 -33 20 -61 45 -29 25 -56 45 -60 45 -5 0 -36 25 -70 55 -33 30
-65 55 -70 55 -13 0 -119 109 -154 160 -17 25 -47 61 -67 79 -20 19 -36 38
-36 42 0 4 -28 48 -62 99 -35 50 -71 104 -80 118 -32 50 -130 247 -138 277
-10 37 -28 90 -46 133 -8 18 -14 51 -14 73 0 23 -6 55 -14 72 -16 34 -22 83
-34 242 -4 55 -13 110 -20 122 -15 28 -16 163 0 200 7 15 15 78 20 138 11 166
18 217 34 252 8 17 14 45 14 61 0 17 6 43 14 59 16 32 34 84 45 128 12 44 159
335 187 368 13 16 24 33 24 38 0 11 81 118 109 143 11 11 21 26 21 34 0 21
257 280 300 302 19 10 46 30 60 45 14 15 51 40 82 56 31 16 59 33 62 38 7 10
274 142 326 160 19 7 49 16 65 20 17 4 49 18 72 29 23 12 55 22 71 22 17 0 43
7 58 15 16 8 45 15 64 15 19 0 44 7 54 15 13 10 43 15 86 15 43 0 73 5 86 15
29 22 6536 22 6574 0z"/>
<path d="M17595 16583 c-27 -14 -63 -36 -78 -49 -16 -13 -33 -24 -38 -24 -5 0
-38 -21 -72 -48 -34 -26 -84 -58 -112 -71 -27 -13 -59 -32 -70 -42 -28 -25
-171 -96 -209 -105 -17 -3 -58 -21 -91 -38 -33 -18 -94 -43 -135 -55 -41 -13
-84 -27 -95 -31 -71 -29 -218 -68 -304 -81 -36 -5 -69 -13 -75 -19 -5 -5 -29
-10 -52 -10 -24 0 -55 -5 -71 -12 -39 -16 -143 -28 -308 -34 -77 -3 -146 -11
-153 -17 -21 -17 -165 -22 -193 -6 -16 9 -79 17 -184 21 -222 10 -285 17 -322
34 -17 8 -53 14 -80 14 -26 0 -57 7 -67 15 -11 8 -36 15 -55 15 -20 1 -47 7
-61 15 -14 8 -41 14 -61 15 -19 0 -44 7 -55 15 -10 8 -35 15 -54 15 -19 0 -48
7 -64 15 -15 8 -35 15 -42 15 -8 0 -37 11 -64 25 -27 14 -56 25 -65 25 -8 0
-56 20 -105 45 -49 25 -96 45 -104 45 -18 0 -113 47 -121 61 -4 5 -43 28 -87
50 -44 22 -107 59 -140 82 -103 72 -131 86 -173 87 -38 0 -46 -6 -155 -115
-63 -63 -119 -115 -124 -115 -5 0 -42 -31 -82 -70 -39 -38 -78 -70 -86 -70 -8
0 -25 -11 -38 -25 -13 -14 -31 -25 -40 -25 -9 0 -29 -13 -45 -30 -16 -16 -36
-30 -45 -30 -9 0 -29 -13 -45 -30 -16 -16 -36 -30 -45 -30 -9 0 -25 -9 -35
-20 -10 -11 -41 -31 -69 -44 -28 -13 -62 -36 -75 -50 -14 -14 -32 -26 -42 -26
-9 0 -22 -7 -29 -15 -7 -8 -17 -15 -24 -15 -10 0 -104 -42 -136 -61 -8 -5 -22
-12 -30 -15 -8 -3 -22 -9 -30 -14 -36 -22 -104 -50 -120 -50 -10 0 -23 -7 -30
-15 -7 -8 -18 -15 -26 -15 -7 0 -28 -6 -46 -14 -18 -8 -53 -20 -78 -26 -25 -7
-59 -19 -77 -26 -17 -8 -46 -14 -65 -14 -18 0 -42 -7 -52 -15 -11 -9 -42 -15
-70 -15 -28 -1 -62 -7 -76 -15 -14 -8 -45 -14 -70 -15 -25 0 -58 -7 -74 -15
-16 -8 -54 -15 -88 -15 -33 0 -69 -6 -81 -12 -12 -7 -80 -17 -152 -21 -71 -5
-1573 -12 -3336 -15 -2618 -6 -3209 -9 -3222 -20 -8 -7 -18 -30 -22 -51 -6
-35 4 -60 103 -258 61 -120 117 -225 126 -232 9 -7 16 -19 16 -25 0 -6 16 -31
35 -55 19 -24 35 -49 35 -55 1 -6 14 -27 30 -46 17 -19 30 -40 30 -46 0 -7 15
-32 33 -56 18 -24 38 -54 45 -68 7 -14 23 -41 37 -60 13 -19 34 -48 45 -65 11
-16 32 -46 45 -65 14 -19 30 -46 37 -60 7 -14 25 -40 40 -58 15 -18 28 -38 28
-44 0 -11 18 -33 125 -155 29 -34 60 -74 68 -90 9 -15 29 -41 46 -57 17 -17
31 -36 31 -44 0 -8 31 -47 70 -86 38 -40 70 -78 70 -84 0 -6 34 -47 75 -91 41
-44 75 -86 75 -93 0 -7 205 -217 455 -468 250 -251 455 -461 455 -468 0 -6 20
-34 44 -61 24 -27 47 -59 51 -70 3 -12 11 -21 16 -21 5 0 12 -8 16 -17 3 -10
18 -34 32 -53 14 -19 33 -47 41 -61 32 -55 56 -92 80 -124 22 -28 181 -345
200 -400 4 -11 20 -48 34 -81 14 -34 26 -69 26 -77 0 -9 4 -18 9 -22 6 -3 13
-27 16 -53 3 -26 12 -65 20 -87 7 -22 16 -59 20 -82 4 -24 11 -45 16 -49 5 -3
9 -18 9 -34 0 -16 5 -41 12 -57 11 -28 22 -104 34 -243 3 -41 12 -94 20 -118
10 -30 14 -94 14 -211 0 -150 2 -170 18 -184 17 -16 381 -17 5029 -17 4841 0
5010 1 5026 18 15 16 17 47 17 225 0 155 4 216 14 244 8 21 16 82 18 135 2 58
9 103 16 110 7 7 12 31 12 55 0 24 7 60 15 80 8 19 15 44 15 54 0 11 29 106
64 212 64 194 207 504 262 570 13 16 24 35 24 42 0 8 6 18 13 22 15 10 62 79
132 192 11 18 32 49 48 68 15 20 27 40 27 45 0 4 34 45 75 89 41 44 75 86 75
93 0 16 39 52 65 60 26 8 615 598 615 616 0 7 45 59 100 116 55 56 100 108
100 115 0 6 31 44 69 83 39 39 83 89 99 111 16 22 42 51 57 65 15 14 35 41 45
60 10 19 32 48 49 64 17 17 31 35 31 41 0 7 23 38 50 69 28 31 50 63 50 69 1
7 14 28 30 47 17 19 30 39 30 46 0 6 7 17 16 25 8 7 24 29 35 48 11 20 35 56
54 81 19 25 42 59 50 77 9 17 25 39 36 49 10 9 19 23 19 30 0 6 16 31 35 54
19 23 35 47 35 53 1 7 14 28 30 47 17 19 30 39 30 46 0 6 9 19 20 29 26 24 27
86 2 108 -15 13 -39 17 -113 17 -65 0 -101 4 -115 14 -11 8 -51 17 -89 19 -96
7 -145 16 -182 33 -17 8 -46 14 -65 14 -18 0 -42 7 -52 15 -11 8 -36 15 -55
15 -20 1 -47 7 -61 15 -14 8 -40 14 -58 15 -18 0 -58 14 -89 30 -31 17 -63 30
-72 30 -22 0 -376 178 -421 211 -19 14 -42 29 -50 33 -8 3 -35 22 -60 41 -25
19 -61 43 -81 54 -19 11 -41 27 -48 35 -8 9 -19 16 -26 16 -7 0 -35 20 -63 45
-27 25 -56 45 -63 45 -18 0 -417 399 -425 425 -4 11 -30 45 -58 75 -28 31 -60
71 -71 89 -11 19 -27 46 -35 60 -8 14 -35 53 -60 86 -24 33 -63 98 -87 144
-49 99 -86 141 -122 141 -14 -1 -48 -13 -76 -27z m93 -202 c18 -35 44 -77 57
-93 14 -16 25 -34 25 -40 0 -6 14 -26 30 -45 17 -18 30 -39 30 -46 1 -7 14
-28 30 -47 17 -19 30 -39 30 -44 0 -16 94 -117 331 -354 256 -257 282 -280
423 -366 17 -10 44 -29 59 -42 16 -13 33 -24 39 -24 6 0 26 -13 45 -30 18 -16
40 -30 47 -30 7 0 21 -9 30 -19 10 -11 41 -31 69 -45 29 -14 59 -30 67 -35 42
-25 269 -131 293 -136 15 -4 44 -16 64 -26 21 -10 50 -19 65 -19 15 0 29 -4
33 -9 3 -6 27 -13 53 -16 26 -3 54 -10 63 -15 9 -5 45 -14 80 -20 35 -7 69
-15 74 -19 6 -5 32 -11 59 -15 27 -3 54 -10 60 -15 6 -5 44 -11 84 -13 40 -3
79 -11 85 -17 6 -6 28 -11 49 -11 65 0 60 -29 -24 -147 -21 -29 -38 -55 -38
-59 0 -3 -13 -23 -30 -44 -16 -21 -30 -41 -30 -44 0 -4 -18 -31 -40 -61 -22
-30 -40 -57 -40 -61 0 -3 -13 -23 -30 -44 -16 -21 -30 -41 -30 -45 0 -4 -13
-24 -30 -45 -16 -21 -30 -41 -30 -44 0 -3 -28 -40 -62 -82 -35 -42 -68 -84
-74 -95 -28 -49 -206 -268 -263 -324 -28 -27 -51 -55 -51 -62 0 -7 -45 -59
-100 -117 -55 -57 -100 -108 -100 -113 0 -16 -520 -533 -536 -533 -17 0 -144
-125 -144 -141 0 -6 -29 -42 -64 -79 -35 -38 -70 -80 -78 -93 -7 -14 -40 -65
-73 -114 -33 -48 -64 -96 -70 -105 -5 -10 -40 -61 -77 -115 -66 -97 -214 -381
-229 -438 -8 -35 -27 -87 -46 -132 -7 -17 -13 -40 -13 -50 0 -11 -7 -28 -15
-39 -8 -10 -15 -31 -15 -45 0 -14 -7 -34 -15 -45 -8 -10 -15 -34 -15 -52 0
-18 -5 -43 -12 -55 -15 -27 -27 -113 -34 -237 -3 -52 -12 -109 -20 -127 -11
-24 -14 -79 -14 -235 0 -145 -3 -207 -12 -216 -17 -17 -9819 -17 -9836 0 -8 8
-12 60 -12 169 0 120 -4 164 -15 185 -9 18 -15 57 -15 100 0 44 -6 83 -15 100
-8 16 -15 56 -15 89 -1 33 -7 71 -15 85 -8 14 -14 41 -15 61 0 19 -7 44 -15
55 -8 10 -15 35 -15 54 0 19 -7 48 -15 64 -8 15 -15 40 -15 54 0 34 -16 83
-51 160 -16 34 -29 69 -29 76 0 40 -176 361 -308 561 l-145 220 -454 455
c-249 251 -453 460 -453 466 0 6 -38 53 -85 105 -47 52 -85 99 -85 104 -1 6
-32 44 -70 85 -38 41 -70 79 -70 83 0 5 -19 32 -42 60 -24 29 -47 59 -53 68
-5 9 -39 51 -75 94 -36 42 -68 85 -72 95 -4 10 -11 21 -17 25 -9 5 -103 139
-136 193 -5 10 -49 76 -97 149 -49 72 -88 135 -88 139 0 4 -11 22 -25 40 -14
18 -25 36 -25 40 0 4 -18 31 -40 60 -22 29 -40 56 -40 59 0 4 -11 21 -26 40
-26 35 -184 345 -184 363 0 5 7 13 16 16 9 3 1435 6 3169 6 2777 0 3156 2
3181 15 21 11 63 15 149 15 90 1 125 4 139 15 13 10 43 15 86 15 43 0 73 5 86
15 10 8 41 15 67 15 27 0 63 6 80 14 18 8 55 17 82 20 86 9 129 17 162 32 17
8 39 14 50 14 10 0 27 7 37 15 11 8 28 15 38 15 10 0 45 14 78 30 33 17 66 30
75 30 19 0 371 176 380 190 4 6 37 26 73 45 37 20 87 51 112 70 25 19 52 38
60 41 8 4 31 19 50 33 19 14 47 33 61 41 14 8 41 24 59 35 19 11 69 53 111 93
43 39 84 72 91 72 7 0 56 43 108 95 52 52 102 95 111 95 8 0 26 -11 39 -25 13
-14 31 -25 40 -25 9 0 27 -11 40 -25 13 -14 31 -25 41 -25 9 0 22 -7 29 -15 7
-8 20 -15 30 -15 10 0 23 -7 30 -15 7 -8 20 -15 29 -15 10 0 28 -11 41 -25 27
-29 82 -56 150 -76 25 -7 52 -19 61 -26 8 -7 23 -13 31 -13 9 0 21 -7 28 -15
7 -8 22 -15 34 -15 12 0 31 -7 42 -15 10 -8 26 -15 34 -15 9 0 21 -5 28 -12
17 -17 125 -47 242 -67 25 -4 55 -13 67 -19 12 -7 37 -12 55 -12 18 0 42 -7
52 -15 11 -9 42 -15 70 -15 28 -1 62 -7 76 -15 14 -8 52 -14 85 -15 33 0 73
-7 89 -15 21 -11 65 -15 175 -15 108 -1 153 -4 171 -15 18 -10 61 -14 160 -14
99 0 142 4 160 14 18 10 61 14 156 15 97 0 139 4 160 15 16 8 56 15 89 15 33
1 71 7 85 15 14 8 48 14 76 15 28 0 59 6 70 15 10 8 42 15 69 15 28 0 61 7 75
15 14 8 38 14 54 15 31 0 78 13 133 37 17 7 39 13 50 13 10 0 27 7 37 15 11 8
29 15 39 15 11 0 60 20 109 45 49 25 96 45 104 45 19 0 191 86 199 100 4 6 33
24 66 40 33 15 73 40 90 54 17 14 35 26 41 26 6 0 26 14 45 30 18 17 38 30 44
30 6 0 22 9 37 20 14 11 30 19 36 17 6 -2 26 -32 44 -66z"/>
<path d="M2780 6480 c-8 -5 -40 -10 -70 -11 -87 -1 -247 -33 -325 -64 -22 -9
-49 -19 -60 -24 -54 -21 -185 -89 -239 -125 -60 -39 -103 -74 -201 -165 -56
-51 -195 -211 -195 -225 0 -4 -12 -25 -27 -45 -45 -58 -81 -125 -127 -232 -25
-59 -86 -248 -86 -267 0 -10 -3 -22 -7 -26 -5 -4 -14 -40 -21 -79 -7 -40 -18
-101 -24 -137 -16 -92 -16 -736 0 -815 7 -33 18 -89 23 -125 6 -36 15 -69 20
-74 5 -6 9 -17 9 -26 0 -18 49 -175 70 -225 33 -78 94 -195 128 -246 68 -103
76 -114 147 -193 125 -141 280 -260 430 -331 155 -73 158 -74 200 -84 22 -6
59 -15 83 -21 123 -30 423 -44 582 -26 148 17 221 29 226 37 3 5 14 9 25 9 56
0 245 82 326 142 29 21 57 38 64 38 14 0 269 255 269 269 0 7 17 35 38 64 48
66 154 276 172 342 7 28 17 55 21 60 5 6 11 30 15 53 4 23 11 45 15 48 14 8
11 52 -5 82 -20 39 -46 59 -86 67 -19 4 -39 10 -45 14 -5 4 -71 27 -145 50
-74 24 -144 47 -155 51 -153 61 -237 71 -280 30 -14 -13 -25 -31 -25 -41 0
-10 -4 -20 -9 -23 -5 -4 -12 -25 -16 -48 -4 -23 -11 -49 -15 -58 -4 -8 -18
-40 -30 -70 -72 -180 -167 -291 -306 -356 -44 -20 -88 -42 -99 -48 -11 -6 -77
-12 -146 -14 -117 -4 -133 -2 -205 23 -235 80 -363 219 -453 490 -28 84 -36
124 -62 300 -14 94 -8 607 7 626 6 8 15 41 19 73 4 33 11 66 15 75 5 9 19 50
31 91 12 41 35 98 51 125 15 28 36 66 47 85 21 38 115 134 152 156 13 7 35 19
49 26 14 6 32 17 40 24 23 18 136 54 169 54 17 0 33 5 36 10 8 12 202 13 209
1 3 -4 24 -11 47 -15 85 -14 214 -83 276 -148 47 -49 122 -167 134 -210 5 -20
14 -40 19 -43 6 -3 10 -15 10 -25 0 -11 14 -36 32 -56 l32 -37 87 6 c48 3 95
10 105 16 19 10 53 19 189 47 39 9 79 19 90 24 11 5 36 12 55 15 57 11 123 37
149 59 21 19 23 27 19 94 -3 40 -10 78 -17 85 -6 6 -11 19 -11 28 0 31 -99
242 -145 307 -16 24 -35 53 -42 64 -15 27 -195 208 -206 208 -5 0 -34 22 -65
48 -59 50 -271 162 -308 162 -11 0 -25 5 -30 10 -6 6 -39 15 -75 21 -35 7 -70
16 -77 22 -7 6 -63 13 -123 15 -60 3 -112 9 -115 13 -7 12 -235 11 -254 -1z
m345 -138 c93 -11 146 -22 160 -32 6 -4 30 -10 55 -14 40 -6 83 -21 130 -47 8
-5 53 -28 100 -51 151 -75 338 -249 411 -382 35 -64 91 -186 114 -249 17 -45
17 -48 1 -66 -10 -11 -36 -23 -59 -27 -23 -3 -48 -10 -57 -15 -8 -4 -37 -13
-65 -19 -71 -16 -154 -36 -198 -50 -48 -14 -98 -10 -107 10 -5 8 -28 56 -51
105 -35 71 -61 108 -128 178 -160 166 -290 220 -531 220 -126 0 -246 -15 -264
-33 -6 -6 -19 -10 -29 -10 -10 0 -54 -18 -97 -41 -65 -33 -99 -62 -189 -155
-61 -63 -111 -120 -111 -128 0 -7 -8 -24 -18 -37 -10 -13 -29 -53 -42 -89 -13
-36 -27 -69 -31 -75 -4 -5 -10 -28 -14 -50 -4 -22 -12 -48 -16 -57 -5 -10 -17
-73 -26 -140 -17 -127 -23 -579 -9 -663 3 -22 11 -87 17 -145 10 -96 26 -168
50 -212 5 -10 9 -25 9 -34 0 -33 63 -163 108 -221 17 -24 32 -46 32 -50 0 -11
103 -113 113 -113 5 0 27 -15 48 -34 63 -53 176 -106 242 -113 32 -3 60 -10
63 -14 7 -12 291 -12 298 0 3 4 24 11 47 15 56 9 136 43 180 78 20 15 41 28
46 28 14 0 152 143 173 180 11 19 36 69 56 110 20 41 41 83 46 93 4 9 15 39
24 65 23 68 41 92 69 92 13 0 26 -4 29 -9 3 -5 30 -15 58 -21 29 -7 58 -16 63
-20 6 -4 26 -11 45 -15 19 -4 40 -10 45 -13 6 -4 51 -20 100 -37 87 -29 90
-31 93 -63 4 -42 -39 -164 -99 -282 -61 -118 -62 -120 -126 -202 -29 -37 -53
-70 -53 -75 0 -12 -93 -103 -106 -103 -6 0 -18 -7 -25 -17 -68 -82 -345 -210
-496 -230 -27 -3 -54 -11 -62 -17 -20 -16 -493 -15 -512 0 -8 7 -34 15 -59 18
-25 4 -54 11 -65 15 -11 5 -38 14 -60 20 -56 17 -70 23 -155 64 -112 55 -139
72 -214 135 -38 31 -77 62 -88 68 -27 16 -88 76 -88 87 0 5 -22 34 -48 65 -26
31 -61 77 -77 102 -44 70 -143 268 -151 303 -3 18 -10 37 -14 42 -4 6 -11 26
-15 45 -4 19 -11 40 -15 45 -4 6 -13 44 -20 85 -6 41 -15 82 -20 91 -5 9 -12
57 -16 105 -3 49 -11 94 -16 100 -5 7 -7 112 -5 240 5 227 19 400 37 439 5 11
14 56 21 100 6 44 15 85 19 90 4 6 11 26 15 45 4 19 11 40 15 45 4 6 10 24 14
40 8 34 16 52 81 185 67 138 84 164 191 293 50 61 175 177 190 177 4 0 17 8
28 18 41 35 160 100 311 168 57 26 232 63 297 64 26 0 50 5 53 11 8 12 223 6
350 -9z"/>
<path d="M6016 6482 c-3 -5 -53 -12 -112 -15 -59 -4 -112 -11 -118 -16 -6 -4
-31 -11 -56 -14 -49 -7 -167 -42 -184 -56 -6 -4 -24 -11 -41 -15 -46 -11 -154
-66 -212 -108 -29 -21 -56 -38 -62 -38 -12 0 -271 -258 -271 -270 0 -6 -25
-40 -55 -76 -49 -57 -96 -143 -205 -374 -4 -9 -11 -31 -15 -50 -4 -19 -11 -41
-16 -50 -13 -22 -39 -134 -53 -225 -7 -44 -17 -89 -22 -100 -14 -31 -12 -778
3 -796 6 -8 14 -45 18 -84 4 -38 11 -74 15 -80 4 -5 13 -39 20 -75 7 -36 16
-69 20 -75 4 -5 10 -23 14 -40 8 -35 15 -52 87 -199 77 -160 145 -257 283
-402 44 -46 85 -84 91 -84 7 0 20 -10 31 -21 67 -75 345 -219 484 -251 25 -6
50 -14 55 -18 6 -4 51 -13 100 -19 50 -6 110 -14 135 -17 70 -10 405 -8 500 3
151 18 190 25 196 34 3 5 13 9 23 9 19 0 157 43 188 59 10 4 43 20 73 35 30
14 73 37 95 51 22 13 47 27 55 31 82 39 364 317 414 406 6 13 25 44 41 69 26
39 61 111 121 244 7 17 16 44 20 60 4 17 10 35 15 41 11 13 38 120 53 209 7
39 15 77 19 85 12 25 29 287 29 435 1 163 -18 423 -31 439 -5 6 -12 43 -16 81
-4 39 -10 75 -14 80 -4 6 -13 37 -20 70 -7 33 -16 69 -21 80 -5 11 -21 52 -35
90 -82 213 -181 361 -357 538 -70 70 -132 127 -137 127 -6 0 -38 21 -73 48
-53 39 -193 112 -273 143 -80 30 -147 49 -190 55 -27 4 -55 11 -62 16 -6 5
-59 12 -117 15 -59 3 -109 10 -112 15 -7 11 -311 11 -318 0z m342 -131 c9 -5
60 -14 112 -20 52 -6 109 -15 125 -21 17 -5 66 -22 110 -36 83 -27 248 -105
276 -130 8 -8 21 -14 27 -14 7 0 41 -25 77 -55 35 -30 68 -55 72 -55 10 0 103
-92 103 -103 0 -4 24 -35 53 -68 77 -88 162 -236 218 -384 13 -33 26 -64 30
-70 3 -5 10 -28 14 -50 4 -22 10 -44 15 -50 4 -5 13 -39 19 -75 6 -36 13 -74
16 -85 12 -55 25 -155 25 -197 0 -26 5 -50 10 -53 12 -7 14 -388 3 -399 -5 -4
-13 -56 -20 -114 -16 -142 -38 -258 -55 -302 -4 -8 -18 -50 -33 -93 -77 -231
-175 -389 -346 -559 -65 -65 -123 -118 -130 -118 -6 0 -28 -12 -48 -27 -52
-40 -66 -48 -171 -100 -132 -64 -175 -79 -315 -107 -33 -7 -69 -17 -80 -22
-30 -13 -549 -12 -566 2 -8 6 -38 14 -68 18 -76 10 -195 47 -271 85 -19 10
-46 21 -60 24 -24 6 -138 75 -192 116 -14 12 -32 21 -38 21 -13 0 -240 227
-240 240 0 4 -28 50 -62 102 -54 81 -99 166 -128 243 -37 96 -50 135 -56 168
-3 20 -10 39 -14 42 -5 3 -12 31 -16 63 -3 31 -10 62 -14 67 -38 48 -39 852
-1 899 5 6 12 37 15 68 4 32 12 60 17 63 5 4 9 14 9 24 0 22 48 171 59 186 5
5 11 22 15 36 3 15 22 55 42 90 21 35 45 80 56 99 29 56 39 70 103 148 33 40
74 92 90 115 17 22 42 48 57 56 14 9 56 42 93 73 69 58 233 146 313 167 22 7
43 15 46 20 3 5 24 11 46 15 23 3 49 10 58 15 21 12 147 31 201 31 22 0 43 5
46 10 8 13 329 13 353 1z"/>
<path d="M6060 5901 c-8 -4 -46 -11 -84 -14 -38 -4 -74 -11 -80 -17 -5 -5 -17
-10 -25 -10 -18 0 -95 -37 -156 -75 -22 -13 -47 -27 -55 -31 -20 -9 -200 -186
-200 -197 0 -5 -11 -23 -26 -42 -37 -49 -91 -160 -104 -216 -7 -27 -16 -51
-20 -54 -5 -3 -12 -27 -15 -53 -4 -26 -10 -56 -15 -67 -28 -64 -54 -613 -31
-660 5 -11 12 -56 16 -100 3 -44 10 -84 14 -90 5 -5 11 -34 15 -63 4 -30 11
-61 16 -70 4 -10 20 -46 35 -82 43 -106 57 -132 107 -197 27 -35 48 -67 48
-71 0 -9 51 -57 153 -142 77 -64 214 -130 297 -142 36 -6 73 -14 82 -19 24
-12 295 -12 303 1 3 6 22 10 40 10 40 0 163 39 220 70 22 12 56 30 75 41 34
19 230 207 230 221 0 4 20 36 45 69 25 34 48 73 52 88 3 14 9 31 14 36 13 17
59 166 59 191 0 12 4 25 9 28 8 5 22 109 37 266 16 184 -7 616 -36 655 -4 6
-10 31 -13 56 -4 25 -13 59 -20 75 -26 53 -46 99 -53 124 -4 14 -20 41 -35 61
-16 20 -29 42 -29 49 0 21 -191 210 -240 238 -25 14 -51 30 -58 36 -20 14
-124 56 -142 56 -9 0 -21 5 -26 10 -24 24 -371 51 -404 31z m245 -131 c3 -5
19 -10 36 -10 36 0 166 -44 222 -76 23 -13 56 -31 72 -40 32 -17 155 -133 155
-146 0 -5 12 -25 28 -46 35 -50 89 -167 113 -247 6 -22 15 -47 19 -56 5 -8 11
-47 15 -85 4 -38 12 -75 18 -83 17 -20 16 -530 0 -562 -7 -13 -16 -51 -22 -84
-11 -71 -36 -168 -55 -210 -67 -154 -91 -191 -191 -291 -90 -92 -123 -116
-205 -155 -14 -6 -32 -15 -40 -19 -9 -4 -31 -11 -50 -15 -19 -4 -41 -12 -49
-19 -19 -15 -339 -15 -372 1 -13 6 -53 21 -89 34 -80 27 -134 59 -210 124 -55
47 -140 144 -140 160 0 4 -13 24 -30 45 -16 21 -30 42 -30 46 -1 5 -9 27 -20
49 -11 22 -19 45 -20 52 0 6 -6 24 -14 40 -23 46 -35 94 -47 184 -6 46 -15 88
-20 94 -12 12 -12 478 0 490 5 6 14 48 20 95 11 80 56 229 87 288 8 15 14 30
14 33 0 3 22 39 49 80 51 77 157 186 202 210 14 8 59 31 99 52 39 21 74 36 77
33 2 -2 20 2 38 10 19 8 48 14 64 14 16 0 33 5 36 10 4 6 55 10 120 10 65 0
116 -4 120 -10z"/>
<path d="M19206 6482 c-3 -5 -60 -12 -128 -16 -67 -4 -127 -11 -132 -15 -6 -5
-41 -14 -79 -21 -37 -7 -70 -16 -73 -21 -3 -5 -16 -9 -30 -9 -14 0 -42 -9 -62
-19 -20 -10 -62 -31 -92 -45 -30 -14 -64 -32 -74 -38 -114 -74 -164 -106 -190
-124 -41 -28 -246 -233 -246 -246 0 -5 -18 -31 -41 -56 -22 -26 -47 -60 -55
-77 -7 -16 -32 -59 -54 -94 -22 -35 -43 -75 -47 -90 -3 -14 -12 -35 -19 -46
-19 -30 -70 -167 -79 -211 -4 -22 -10 -43 -15 -49 -4 -5 -13 -46 -20 -90 -6
-44 -16 -93 -21 -110 -6 -16 -13 -88 -16 -158 -3 -70 -10 -130 -15 -133 -11
-7 -11 -221 0 -228 5 -3 12 -62 15 -131 3 -70 10 -132 15 -138 5 -7 12 -42 16
-79 3 -37 15 -95 26 -129 11 -34 20 -70 20 -80 0 -10 4 -20 9 -23 4 -3 11 -20
15 -38 3 -18 13 -49 22 -68 9 -19 22 -48 29 -65 21 -52 54 -118 85 -170 16
-27 33 -57 37 -66 29 -61 291 -359 315 -359 5 0 36 -21 71 -47 34 -27 71 -54
82 -60 48 -30 244 -123 280 -133 22 -6 49 -15 60 -20 63 -26 251 -59 342 -60
34 0 65 -4 68 -10 4 -6 73 -10 175 -10 102 0 171 4 175 10 3 6 27 10 52 10 63
0 226 21 238 30 6 5 33 11 60 15 28 4 55 11 60 16 6 4 33 13 60 20 28 6 55 15
60 19 6 4 24 10 40 14 17 4 53 18 80 31 121 57 262 126 279 138 11 6 45 27 75
46 66 41 162 120 211 175 l35 39 0 673 0 673 -29 30 -30 31 -694 0 c-456 0
-700 -4 -713 -10 -45 -25 -49 -53 -49 -334 l0 -265 31 -36 31 -35 323 0 c390
0 355 16 355 -167 0 -67 -4 -132 -9 -145 -5 -13 -30 -38 -55 -56 -61 -44 -245
-138 -287 -147 -19 -4 -38 -11 -44 -15 -5 -4 -26 -11 -45 -15 -19 -4 -41 -12
-49 -19 -19 -15 -392 -15 -412 0 -8 6 -27 14 -44 18 -53 13 -196 89 -240 128
-24 21 -47 38 -52 38 -11 0 -53 43 -53 54 0 4 -15 26 -32 49 -55 71 -88 133
-128 242 -12 33 -25 67 -30 76 -5 9 -14 54 -21 100 -6 46 -16 89 -20 95 -14
17 -22 398 -11 499 12 101 38 240 52 270 5 11 21 52 36 90 41 107 168 295 199
295 6 0 22 12 36 26 25 27 46 39 140 85 94 46 124 57 183 64 31 4 59 11 62 16
7 13 251 11 259 -1 3 -5 19 -10 35 -10 31 0 123 -33 200 -70 25 -13 81 -59
126 -104 77 -77 106 -122 145 -225 16 -42 56 -91 75 -91 8 0 23 -5 33 -12 15
-9 26 -9 44 -1 14 7 54 15 89 19 35 4 70 10 79 15 8 4 56 13 105 20 49 6 94
15 99 19 6 4 39 11 73 15 35 4 76 13 90 21 15 8 32 14 38 14 19 0 45 37 51 73
6 36 -7 108 -34 187 -18 55 -110 247 -132 276 -9 12 -23 32 -31 45 -33 52
-248 263 -298 293 -30 17 -66 39 -80 48 -27 18 -51 30 -107 53 -16 7 -41 18
-55 23 -82 35 -112 45 -180 57 -41 8 -95 18 -120 24 -25 6 -86 10 -137 11 -50
0 -95 5 -98 10 -8 12 -282 14 -289 2z m356 -131 c13 -5 70 -15 128 -22 58 -6
109 -16 115 -20 5 -5 20 -9 33 -9 29 0 130 -39 242 -94 106 -51 180 -105 265
-193 100 -102 143 -162 190 -263 15 -30 30 -63 36 -72 21 -39 49 -125 49 -149
0 -43 -5 -45 -210 -82 -36 -7 -69 -15 -75 -18 -5 -4 -37 -10 -70 -14 -33 -4
-68 -12 -79 -17 -32 -17 -61 6 -98 79 -54 106 -80 142 -160 221 -81 79 -110
98 -263 168 -79 36 -358 50 -507 26 -76 -13 -211 -56 -248 -80 -35 -23 -81
-49 -109 -62 -29 -13 -221 -205 -221 -221 0 -6 -13 -28 -29 -48 -15 -20 -32
-47 -36 -61 -4 -14 -18 -46 -31 -71 -13 -26 -28 -68 -34 -95 -7 -27 -14 -56
-18 -64 -13 -33 -34 -161 -43 -270 -11 -124 -4 -491 10 -518 5 -9 14 -44 19
-77 16 -96 39 -187 57 -230 31 -69 44 -99 49 -115 7 -18 23 -44 56 -90 14 -19
32 -48 40 -64 18 -35 172 -179 226 -211 108 -64 204 -102 293 -117 96 -15 362
-21 374 -9 6 6 26 11 45 11 37 0 121 19 137 30 6 4 26 11 45 15 19 4 41 11 50
15 8 4 56 27 105 50 50 24 109 58 132 77 23 18 45 33 49 33 5 0 25 17 46 37
l38 37 0 232 0 233 -37 30 -38 31 -310 0 c-229 0 -314 3 -323 12 -9 9 -12 69
-12 208 l0 197 25 11 c19 9 186 12 601 12 498 0 579 -2 605 -15 l30 -16 -3
-611 -3 -610 -55 -49 c-30 -27 -58 -49 -61 -49 -3 0 -39 -22 -80 -48 -41 -27
-87 -55 -104 -64 -16 -8 -39 -19 -50 -26 -36 -20 -189 -89 -225 -102 -19 -7
-44 -16 -55 -20 -93 -37 -185 -62 -300 -81 -33 -6 -78 -16 -100 -22 -54 -16
-526 -17 -546 -1 -8 6 -45 15 -84 19 -38 4 -74 10 -80 14 -5 5 -32 14 -60 21
-27 7 -54 17 -59 21 -6 5 -19 9 -30 9 -21 0 -224 97 -291 140 -76 48 -150 108
-211 172 -90 93 -130 146 -202 263 -14 24 -89 177 -107 220 -39 93 -54 134
-60 172 -4 24 -10 45 -15 48 -4 3 -11 29 -15 58 -4 28 -11 57 -16 62 -4 6 -12
49 -18 95 -6 47 -13 108 -17 135 -9 64 -9 331 0 410 17 157 28 232 36 250 5
11 12 36 16 55 7 39 68 228 82 257 5 10 28 56 51 103 23 47 53 103 66 125 14
22 32 55 41 74 17 37 294 321 314 321 7 0 29 12 49 28 99 74 335 182 400 182
9 0 21 4 27 10 5 5 60 15 122 23 61 7 115 17 119 20 10 11 359 8 385 -2z"/>
<path d="M8218 6415 c-61 -33 -58 18 -58 -1076 0 -549 4 -1000 8 -1003 5 -3
12 -98 15 -211 4 -113 11 -213 16 -223 5 -9 14 -60 20 -112 10 -88 32 -171 51
-195 4 -5 11 -26 15 -45 4 -19 15 -46 25 -60 35 -50 95 -142 107 -162 15 -27
185 -198 196 -198 5 0 26 -13 46 -29 20 -15 77 -47 126 -71 124 -58 125 -58
170 -69 22 -6 58 -15 80 -20 22 -6 91 -14 153 -18 62 -3 115 -10 118 -15 8
-12 441 -10 449 2 3 5 31 10 61 10 61 0 188 17 219 30 11 4 49 18 85 31 78 27
199 89 245 124 19 14 38 25 44 25 13 0 191 178 191 192 0 5 12 25 26 44 27 35
53 78 74 124 7 14 16 32 20 40 4 9 11 31 15 50 4 19 11 40 15 45 5 6 14 39 20
75 7 36 16 76 21 89 5 13 12 73 16 135 3 61 10 117 16 124 12 15 24 2199 13
2275 -5 30 -17 57 -36 77 l-28 30 -314 0 c-294 0 -315 -1 -345 -20 -19 -11
-33 -28 -33 -39 0 -11 -4 -23 -10 -26 -7 -4 -10 -383 -11 -1103 -1 -1228 -3
-1278 -64 -1400 -31 -61 -137 -162 -195 -186 -25 -10 -54 -22 -65 -27 -62 -27
-375 -27 -409 0 -6 4 -26 11 -44 15 -19 3 -54 19 -78 36 -25 16 -49 30 -53 30
-4 0 -28 20 -53 45 -63 62 -126 191 -134 275 -4 36 -12 71 -18 79 -8 10 -12
333 -15 1138 l-3 1123 -28 30 -28 30 -314 0 c-254 -1 -318 -4 -340 -15z m586
-137 c14 -20 16 -139 16 -1078 0 -995 6 -1253 29 -1298 5 -9 23 -47 40 -83 17
-36 40 -74 51 -84 11 -10 20 -24 20 -30 0 -22 134 -129 207 -166 21 -11 65
-24 98 -30 33 -6 70 -15 83 -20 29 -12 339 -12 346 0 3 4 31 11 61 14 89 9
174 55 255 138 75 77 84 89 132 194 12 27 27 117 38 225 4 47 9 561 9 1143 1
709 4 1065 11 1078 10 18 24 19 255 19 l245 0 6 -25 c10 -39 -5 -2202 -15
-2285 -19 -150 -33 -216 -66 -314 -39 -117 -58 -158 -95 -206 -15 -19 -30 -45
-34 -57 -9 -27 -175 -185 -221 -210 -207 -111 -262 -129 -500 -164 -90 -14
-563 -7 -590 8 -11 6 -47 16 -80 21 -76 13 -164 35 -190 49 -11 6 -38 18 -60
28 -77 32 -200 123 -271 197 -65 69 -110 133 -158 226 -24 47 -76 209 -76 237
0 11 -4 25 -9 31 -6 5 -15 77 -20 159 -6 83 -14 186 -17 230 -4 44 -8 523 -10
1064 -3 723 -1 987 7 997 9 11 61 14 250 14 234 0 238 0 253 -22z"/>
<path d="M11448 6415 c-62 -34 -58 84 -58 -1735 l0 -1656 33 -32 33 -32 321 0
321 0 31 35 31 36 0 647 c0 491 3 651 12 660 15 15 244 17 253 2 3 -5 20 -10
36 -10 72 0 227 -108 290 -202 13 -20 65 -95 114 -168 109 -159 112 -164 150
-226 16 -27 53 -84 82 -127 29 -43 53 -81 53 -83 0 -4 89 -145 141 -222 16
-23 29 -45 29 -48 0 -3 16 -26 35 -51 19 -25 35 -50 35 -55 0 -6 14 -27 30
-48 17 -21 30 -42 30 -48 0 -5 19 -28 41 -51 l41 -41 753 0 c728 0 753 1 777
19 13 11 32 39 42 63 10 24 24 57 32 73 7 17 16 44 20 60 4 17 10 35 13 40 4
6 20 51 35 100 16 50 34 104 41 120 27 63 34 82 60 166 14 48 34 94 44 103 16
14 78 16 584 16 620 0 582 4 606 -62 7 -18 17 -42 21 -53 5 -11 13 -33 19 -50
5 -16 21 -61 35 -100 15 -38 36 -97 47 -130 11 -33 26 -73 33 -90 17 -40 51
-132 65 -175 7 -19 26 -49 43 -67 l32 -33 350 0 350 0 28 27 c23 22 28 35 28
75 0 27 -4 56 -10 66 -11 20 -80 199 -80 208 0 3 -6 20 -14 37 -7 18 -23 59
-35 92 -12 33 -28 74 -36 90 -7 17 -16 41 -20 55 -4 14 -12 39 -20 55 -7 17
-23 57 -35 90 -12 33 -26 68 -31 77 -5 10 -21 52 -36 95 -14 42 -32 88 -40
102 -7 15 -13 33 -13 42 0 8 -4 19 -9 25 -5 5 -21 45 -36 89 -15 44 -30 85
-35 90 -4 6 -10 24 -14 40 -4 17 -13 45 -21 63 -35 77 -44 98 -50 122 -4 14
-12 39 -20 55 -7 17 -23 57 -35 90 -12 33 -29 74 -36 92 -8 17 -14 36 -14 42
0 6 -4 19 -10 29 -5 9 -21 49 -35 87 -15 39 -30 79 -35 90 -4 11 -18 47 -30
80 -12 33 -28 74 -35 90 -13 30 -37 93 -77 202 -11 32 -24 67 -29 78 -12 30
-43 113 -69 180 -12 33 -25 69 -30 80 -4 11 -20 52 -35 90 -15 39 -31 79 -35
90 -5 11 -18 47 -30 80 -26 67 -57 150 -69 180 -5 11 -18 47 -30 80 -12 33
-28 73 -36 88 -8 16 -15 35 -15 42 0 7 -19 30 -42 49 l-42 36 -340 0 -339 0
-42 -44 c-33 -34 -48 -62 -70 -130 -15 -48 -31 -89 -35 -91 -5 -3 -11 -23 -15
-45 -4 -22 -11 -42 -16 -45 -4 -3 -13 -25 -19 -48 -6 -23 -15 -51 -20 -62 -4
-11 -19 -47 -31 -80 -13 -33 -26 -64 -29 -70 -4 -5 -13 -32 -20 -60 -7 -27
-16 -54 -20 -60 -4 -5 -26 -64 -49 -130 -24 -66 -47 -129 -51 -140 -21 -49
-43 -104 -61 -160 -12 -33 -26 -73 -33 -90 -7 -16 -23 -56 -34 -88 -42 -113
-64 -172 -72 -192 -5 -11 -12 -31 -15 -45 -4 -14 -13 -38 -20 -55 -6 -16 -22
-56 -33 -88 -39 -105 -64 -172 -72 -192 -5 -11 -18 -46 -29 -77 -12 -32 -30
-84 -42 -115 -11 -32 -24 -67 -29 -78 -4 -11 -18 -47 -30 -80 -12 -33 -28 -73
-35 -90 -8 -16 -17 -43 -21 -60 -4 -16 -13 -39 -20 -50 -6 -11 -15 -36 -19
-55 -4 -19 -11 -41 -15 -50 -29 -62 -40 -90 -50 -127 -6 -23 -14 -45 -19 -47
-5 -3 -12 -23 -16 -43 -4 -21 -11 -43 -16 -49 -5 -6 -20 -46 -35 -90 -14 -43
-29 -83 -33 -89 -5 -5 -11 -23 -15 -40 -4 -16 -13 -43 -20 -60 -8 -16 -22 -49
-32 -73 -27 -66 -36 -68 -75 -15 -19 26 -40 59 -46 73 -7 14 -24 43 -38 65
-14 22 -34 56 -46 75 -11 19 -30 51 -42 71 -12 20 -39 65 -60 100 -21 35 -42
71 -47 79 -40 63 -92 149 -102 170 -7 14 -25 41 -40 61 -15 20 -28 41 -28 46
0 5 -10 23 -22 40 -13 17 -30 41 -38 53 -8 13 -36 49 -62 80 -27 32 -48 62
-48 67 0 12 -173 183 -186 183 -15 0 -54 44 -54 61 0 16 27 33 70 44 36 9 125
50 219 99 45 25 230 207 263 261 47 75 86 155 93 187 4 18 11 38 15 43 11 13
30 143 30 199 0 25 5 48 10 51 13 8 13 168 1 209 -6 17 -15 74 -21 126 -6 52
-15 99 -19 105 -5 5 -12 24 -15 42 -18 80 -102 209 -210 321 -106 110 -213
185 -279 197 -20 4 -39 11 -42 15 -3 5 -24 11 -48 15 -23 4 -46 10 -52 14 -15
9 -165 31 -280 41 -55 4 -455 8 -890 9 -672 0 -794 -2 -817 -14z m1783 -131
c8 -6 43 -14 79 -18 170 -18 323 -88 443 -205 37 -36 67 -69 67 -74 0 -5 11
-23 24 -40 32 -43 72 -118 86 -165 6 -20 15 -46 21 -57 14 -32 30 -104 42
-187 12 -86 0 -247 -26 -356 -16 -69 -85 -219 -123 -269 -13 -17 -24 -36 -24
-40 0 -15 -92 -99 -148 -137 -92 -61 -257 -133 -330 -143 -23 -3 -45 -10 -48
-14 -3 -5 -13 -9 -22 -9 -27 0 -82 -61 -82 -91 0 -29 36 -65 160 -159 79 -60
207 -191 248 -255 15 -22 41 -58 59 -81 18 -23 33 -44 33 -49 0 -4 13 -24 28
-44 15 -20 34 -47 40 -61 16 -31 40 -71 122 -205 86 -140 108 -177 116 -195 4
-8 19 -33 33 -55 46 -72 51 -80 63 -105 7 -14 28 -47 46 -73 18 -27 34 -61 35
-75 l2 -27 -292 -3 -292 -2 -16 22 c-8 13 -38 59 -67 103 -28 44 -59 92 -70
107 -10 15 -18 30 -18 34 0 3 -13 23 -28 43 -16 20 -42 58 -58 84 -16 27 -36
59 -44 72 -8 12 -28 44 -45 71 -16 27 -53 84 -82 127 -29 43 -53 81 -53 83 0
2 -26 43 -57 90 -32 47 -63 93 -68 102 -112 185 -267 346 -390 403 l-68 32
-217 5 -217 5 -29 -37 -29 -36 -5 -652 -5 -653 -250 0 -250 0 -3 1589 c-1
1217 1 1592 10 1603 10 13 131 14 848 11 598 -2 841 -6 851 -14z m2998 -10
c12 -15 21 -33 21 -40 0 -8 4 -22 9 -32 9 -16 22 -51 73 -189 11 -32 24 -67
29 -78 12 -29 43 -111 69 -180 12 -33 28 -73 35 -90 7 -16 23 -57 35 -90 12
-33 26 -69 30 -80 5 -11 20 -51 35 -90 14 -38 30 -78 35 -87 6 -10 10 -23 10
-30 1 -7 9 -31 20 -53 11 -22 19 -45 20 -52 0 -11 11 -40 45 -118 8 -16 16
-41 20 -55 4 -14 12 -38 20 -55 7 -16 23 -57 35 -90 12 -33 28 -73 35 -90 7
-16 23 -57 35 -90 12 -33 28 -74 36 -92 8 -17 14 -37 14 -45 0 -8 4 -18 9 -24
4 -5 20 -44 35 -87 14 -42 30 -85 35 -95 5 -9 19 -44 31 -77 12 -33 27 -73 35
-90 13 -29 31 -77 77 -202 11 -32 27 -71 34 -88 7 -16 16 -43 20 -60 4 -16 10
-34 13 -40 4 -5 17 -37 30 -70 12 -33 26 -69 31 -80 4 -11 13 -36 20 -55 13
-38 25 -68 45 -115 12 -29 34 -86 77 -205 11 -30 27 -70 34 -88 8 -18 14 -44
14 -58 l0 -24 -266 2 c-225 3 -268 5 -275 18 -12 25 -35 82 -54 135 -18 51
-52 144 -65 180 -5 11 -13 36 -20 55 -7 19 -16 44 -20 55 -5 11 -17 45 -28 75
-12 30 -31 82 -43 115 -12 33 -33 72 -47 88 l-26 27 -649 0 c-635 0 -650 0
-677 -20 -16 -11 -34 -37 -41 -58 -6 -20 -15 -41 -19 -47 -4 -5 -11 -26 -15
-45 -4 -19 -11 -39 -15 -45 -4 -5 -20 -48 -35 -95 -15 -47 -31 -94 -35 -105
-5 -11 -27 -74 -50 -140 -23 -66 -49 -137 -58 -157 l-16 -38 -252 0 c-204 0
-254 3 -263 14 -7 8 -8 17 -3 20 6 3 13 23 17 43 4 21 11 43 16 49 5 6 20 46
35 90 14 43 29 83 33 89 5 5 11 24 15 40 4 17 13 44 20 60 8 17 24 57 36 90
12 33 25 69 30 80 34 84 48 124 54 150 4 17 13 44 20 60 19 40 32 73 46 115 7
19 16 44 20 55 9 22 40 105 72 192 11 32 24 67 28 78 9 23 41 109 72 192 11
32 27 72 33 88 7 17 29 77 50 135 20 58 43 119 50 135 8 17 17 44 21 60 4 17
10 35 14 40 4 6 17 39 30 75 13 36 26 70 30 75 4 6 13 33 20 60 8 28 20 61 27
75 7 14 13 32 13 40 0 9 4 20 8 25 5 6 21 46 37 90 15 44 31 85 35 90 4 6 10
24 14 40 4 17 13 44 20 60 8 17 24 57 36 90 12 33 25 67 30 76 5 9 12 33 15
53 4 20 11 39 16 42 5 2 13 24 19 47 6 23 17 56 24 72 19 41 32 74 46 115 13
38 25 68 45 115 7 17 18 45 25 63 l12 32 283 0 284 0 20 -26z"/>
<path d="M12061 5823 l-31 -38 0 -408 c0 -462 -2 -452 75 -482 36 -13 89 -15
391 -11 357 4 617 18 638 35 6 5 26 12 45 16 41 9 125 61 165 103 31 34 47 59
71 112 9 19 21 46 28 59 15 30 16 310 1 342 -25 53 -46 95 -58 117 -17 29 -67
82 -78 82 -4 0 -28 15 -52 34 -24 18 -61 37 -83 41 -21 4 -44 12 -52 18 -10 9
-155 13 -521 15 l-508 3 -31 -38z m799 -84 c145 -5 242 -19 265 -40 5 -5 17
-9 27 -9 26 0 115 -86 140 -135 36 -72 49 -171 33 -255 -11 -58 -67 -160 -105
-189 -98 -76 -202 -91 -700 -97 -233 -4 -321 -1 -337 7 l-23 12 0 344 0 344
33 14 c32 15 241 16 667 4z"/>
<path d="M15915 5600 c-3 -5 -14 -10 -24 -10 -33 0 -58 -44 -93 -160 -5 -19
-14 -39 -18 -45 -4 -5 -11 -26 -15 -45 -4 -19 -11 -39 -15 -45 -4 -5 -11 -26
-15 -45 -4 -19 -13 -44 -20 -55 -7 -11 -16 -36 -20 -55 -4 -19 -10 -39 -14
-45 -4 -5 -20 -50 -35 -100 -28 -90 -36 -113 -61 -170 -7 -16 -25 -70 -40
-120 -15 -49 -31 -94 -35 -100 -4 -5 -11 -26 -15 -45 -4 -19 -13 -45 -20 -56
-17 -26 -30 -133 -21 -168 14 -55 28 -57 485 -54 l419 3 27 25 c25 23 27 29
21 80 -6 54 -30 135 -46 155 -4 5 -11 26 -15 45 -4 19 -11 40 -15 45 -4 6 -13
33 -20 60 -7 28 -16 55 -21 60 -4 6 -21 51 -38 100 -38 113 -54 157 -62 170
-4 6 -10 26 -14 45 -4 19 -11 40 -15 45 -4 6 -11 26 -15 45 -4 19 -13 44 -20
55 -7 11 -16 36 -20 55 -4 19 -11 40 -15 45 -5 6 -13 30 -19 55 -12 47 -23 75
-47 123 -8 16 -14 35 -14 42 0 13 -67 75 -82 75 -4 0 -10 -4 -13 -10z m33
-300 c7 -11 23 -55 37 -97 14 -42 29 -81 34 -87 5 -6 12 -27 16 -46 4 -19 11
-39 15 -45 4 -5 11 -26 15 -45 6 -30 22 -74 55 -155 5 -11 14 -38 20 -60 6
-22 15 -49 20 -60 63 -154 96 -264 83 -284 -9 -14 -46 -16 -313 -19 -215 -2
-307 1 -316 9 -15 13 -19 55 -6 63 5 3 14 30 21 60 7 31 16 58 21 61 4 3 11
22 15 42 4 21 10 43 15 48 4 6 20 48 35 95 15 47 31 94 36 105 4 11 20 56 35
100 43 126 59 169 66 180 3 6 9 26 13 45 4 19 11 40 15 45 4 6 10 22 14 38 8
32 35 36 54 7z"/>
<path d="M21335 6399 l-35 -31 0 -1679 0 -1680 25 -24 24 -25 1214 0 c1196 0
1215 0 1240 20 35 28 40 65 40 325 0 251 -5 295 -35 322 -19 17 -66 18 -871
21 -600 2 -854 6 -864 13 -18 16 -19 739 -1 757 9 9 193 12 764 12 l753 0 35
34 36 33 0 280 c0 268 -1 281 -21 307 l-20 26 -747 1 c-694 0 -749 2 -777 18
l-30 18 -3 269 c-1 148 0 279 3 291 3 12 18 26 36 32 22 8 275 11 829 11 l796
0 27 28 27 28 0 281 0 281 -29 31 -29 31 -1176 0 -1175 0 -36 -31z m2313 -111
c8 -8 12 -67 12 -198 0 -152 -3 -190 -16 -208 l-15 -22 -818 0 -818 0 -24 -26
-24 -26 0 -378 0 -378 24 -26 24 -26 748 0 c546 0 755 -3 774 -12 l25 -11 0
-197 c0 -139 -3 -199 -12 -208 -9 -9 -193 -12 -766 -12 l-754 0 -34 -34 -34
-34 0 -449 c0 -492 -2 -476 60 -508 25 -13 142 -15 859 -15 741 0 831 -2 845
-16 13 -13 16 -45 16 -199 0 -101 -3 -190 -6 -199 -6 -14 -116 -16 -1145 -16
-1115 0 -1139 0 -1149 19 -7 13 -10 524 -10 1581 0 1420 1 1563 16 1585 l16
25 1097 0 c840 0 1100 -3 1109 -12z"/>
</g>
</svg>
