<?xml version="1.0" standalone="no"?>
<!DOCTYPE svg PUBLIC "-//W3C//DTD SVG 20010904//EN"
 "http://www.w3.org/TR/2001/REC-SVG-20010904/DTD/svg10.dtd">
<svg version="1.0" xmlns="http://www.w3.org/2000/svg"
 width="2550.000000pt" height="3300.000000pt" viewBox="0 0 2550.000000 3300.000000"
 preserveAspectRatio="xMidYMid meet">
<metadata>
Created by potrace 1.14, written by Peter Selinger 2001-2017
</metadata>
<g transform="translate(0.000000,3300.000000) scale(0.100000,-0.100000)"
fill="#000000" stroke="none">
<path d="M4093 31525 c-24 -17 -6 28 -330 -805 -140 -360 -311 -798 -379 -973
-68 -175 -124 -331 -124 -346 0 -58 12 -61 282 -61 241 0 245 0 265 23 11 12
53 112 93 222 40 110 75 206 77 213 4 9 88 12 373 12 l369 0 19 -52 c89 -234
144 -371 158 -393 l16 -25 258 0 c242 0 258 1 275 20 12 13 16 30 13 52 -8 56
-827 2091 -850 2111 -18 15 -46 17 -257 17 -192 0 -240 -3 -258 -15z m820
-1082 c213 -533 387 -971 387 -975 0 -5 -69 -8 -154 -8 -137 0 -155 2 -161 18
-4 9 -41 105 -82 212 -41 107 -84 205 -96 218 l-20 22 -438 0 c-468 0 -452 2
-478 -48 -5 -9 -41 -108 -81 -219 l-73 -203 -153 0 -154 0 9 23 c97 248 739
1897 744 1910 6 15 24 17 185 17 l178 0 387 -967z"/>
<path d="M4305 31028 c-19 -18 -58 -112 -165 -407 -77 -211 -140 -390 -140
-398 0 -7 7 -25 16 -38 l16 -25 314 0 c312 0 313 0 328 22 9 12 16 31 16 42 0
11 -63 191 -141 400 -140 379 -162 426 -204 426 -8 0 -25 -10 -40 -22z m140
-495 c47 -127 85 -236 85 -242 0 -8 -54 -11 -185 -11 -104 0 -185 4 -185 9 0
7 127 361 176 491 5 13 6 13 14 -1 5 -8 48 -119 95 -246z"/>
<path d="M5585 31515 l-25 -24 0 -1054 c0 -991 1 -1056 18 -1076 l17 -22 545
3 c528 4 548 5 625 26 245 68 421 215 539 449 88 176 119 330 119 603 1 283
-26 434 -109 609 -89 190 -226 337 -385 415 -175 86 -268 96 -887 96 l-433 0
-24 -25z m1125 -127 c302 -73 491 -292 565 -658 9 -41 18 -151 22 -245 11
-319 -45 -541 -187 -742 -61 -88 -128 -143 -235 -194 -165 -79 -250 -89 -771
-89 -366 0 -413 2 -418 16 -9 23 -7 1919 1 1928 4 4 222 6 483 3 384 -3 487
-7 540 -19z"/>
<path d="M6006 31169 l-26 -20 0 -708 c0 -623 2 -709 16 -729 15 -22 18 -22
283 -22 148 0 293 4 322 10 30 5 86 26 126 45 119 59 187 154 234 330 30 112
39 493 15 632 -39 228 -149 377 -324 440 -72 26 -259 42 -503 43 -103 0 -119
-2 -143 -21z m586 -138 c166 -53 244 -181 269 -439 20 -200 -1 -432 -50 -564
-43 -113 -97 -163 -211 -195 -53 -15 -103 -18 -280 -18 l-215 0 -3 624 -2 624
212 -6 c181 -4 223 -8 280 -26z"/>
<path d="M7470 31520 c-11 -11 -20 -33 -20 -48 0 -37 734 -2089 756 -2113 16
-18 34 -19 269 -19 230 0 253 2 268 18 9 10 57 130 106 268 505 1408 651 1820
651 1843 0 16 -10 37 -23 49 -23 21 -31 22 -258 22 -195 0 -238 -3 -257 -15
-17 -12 -69 -159 -243 -688 -122 -370 -225 -675 -228 -679 -4 -4 -110 295
-236 665 -159 464 -236 679 -252 695 -22 22 -26 22 -268 22 -232 0 -246 -1
-265 -20z m699 -847 c138 -406 260 -749 270 -763 22 -31 54 -37 86 -16 20 13
64 137 271 766 l248 750 153 0 c84 0 153 -1 153 -2 -1 -2 -157 -439 -348 -973
l-348 -970 -177 -3 -177 -2 -11 27 c-12 30 -557 1551 -640 1786 l-48 137 158
0 158 0 252 -737z"/>
<path d="M9615 31515 l-25 -24 0 -1054 0 -1054 23 -21 23 -22 817 0 816 0 15
22 c13 18 16 57 16 213 0 187 -1 192 -23 213 l-23 22 -557 0 -557 0 0 220 0
220 498 0 499 0 21 23 c21 22 22 32 22 219 l0 197 -26 20 c-26 21 -36 21 -520
21 l-494 0 0 165 0 165 538 0 539 0 21 23 c21 22 22 32 22 219 l0 197 -26 20
c-26 21 -33 21 -811 21 l-784 0 -24 -25z m1515 -215 l0 -110 -535 0 -536 0
-24 -25 -25 -24 0 -246 0 -246 25 -24 24 -25 501 0 501 0 -3 -112 -3 -113
-499 -3 c-497 -2 -500 -2 -523 -24 l-23 -21 0 -296 c0 -289 0 -295 22 -318
l21 -23 559 0 558 0 0 -115 0 -115 -725 0 -725 0 0 975 0 975 705 0 705 0 0
-110z"/>
<path d="M11555 31515 l-25 -24 0 -1049 c0 -1046 0 -1049 21 -1076 l20 -26
224 0 c195 0 224 2 236 17 11 13 15 124 19 590 l5 573 357 -577 c196 -318 363
-584 369 -590 10 -10 74 -13 249 -13 234 0 237 0 258 23 l22 23 0 1053 0 1052
-25 24 c-24 25 -25 25 -233 25 -192 0 -212 -2 -233 -19 l-24 -19 -5 -588 -5
-589 -159 260 c-88 143 -249 406 -359 585 -109 179 -210 335 -223 348 -24 21
-31 22 -245 22 l-220 0 -24 -25z m574 -365 c86 -140 271 -442 411 -670 140
-228 263 -423 275 -432 28 -24 52 -22 80 7 l25 24 0 666 0 665 130 0 130 0 0
-975 0 -975 -161 2 -162 3 -194 315 c-107 173 -289 468 -404 655 -116 187
-219 348 -231 358 -28 24 -55 21 -83 -8 l-25 -24 0 -651 0 -650 -130 0 -130 0
0 975 0 976 156 -3 156 -3 157 -255z"/>
<path d="M13502 31517 c-21 -22 -22 -32 -22 -225 0 -196 1 -201 22 -216 19
-14 65 -16 305 -16 l283 0 0 -838 0 -839 23 -21 c23 -21 31 -22 260 -22 232 0
236 0 251 22 14 20 16 118 16 860 l0 838 285 0 c272 0 286 1 305 20 19 19 20
33 20 218 0 195 0 199 -23 220 l-23 22 -840 0 -841 0 -21 -23z m1628 -217 l0
-110 -285 0 -286 0 -24 -25 -25 -24 0 -841 0 -840 -145 0 -145 0 0 840 0 841
-25 24 -24 25 -286 0 -285 0 0 110 0 110 765 0 765 0 0 -110z"/>
<path d="M15420 31522 l-21 -17 4 -765 c5 -890 5 -893 93 -1062 58 -111 175
-223 296 -282 147 -72 272 -96 508 -96 317 0 497 58 658 214 117 113 177 237
203 421 7 51 13 348 16 817 l5 737 -26 25 -25 26 -226 0 -226 0 -24 -25 -25
-24 0 -698 c0 -403 -5 -727 -10 -766 -24 -168 -121 -241 -320 -241 -217 0
-327 93 -350 294 -5 47 -10 383 -10 748 l0 663 -25 24 -24 25 -224 0 c-200 0
-227 -2 -247 -18z m402 -824 c3 -709 3 -713 25 -767 31 -75 67 -123 130 -175
93 -77 142 -91 323 -91 138 0 161 3 212 23 68 27 148 97 185 159 55 95 56 100
60 861 l5 702 144 0 144 0 0 -638 c0 -786 -8 -885 -82 -1040 -59 -124 -194
-226 -358 -271 -209 -57 -550 -42 -723 31 -162 69 -269 186 -316 343 -39 134
-43 209 -48 903 l-5 672 151 0 150 0 3 -712z"/>
<path d="M17520 31520 c-20 -20 -20 -33 -20 -1083 0 -1018 1 -1065 18 -1080
16 -15 49 -17 255 -17 232 0 236 0 251 22 14 19 16 77 16 432 l0 409 95 -6
c116 -7 166 -28 228 -96 37 -42 178 -245 448 -646 l74 -110 279 -3 c388 -3
381 -14 184 302 -207 332 -303 469 -390 557 -44 45 -78 82 -76 83 2 1 34 15
72 31 178 74 311 234 351 421 19 91 19 228 -1 317 -36 160 -157 324 -291 395
-147 78 -297 92 -985 92 -475 0 -489 -1 -508 -20z m1180 -120 c183 -23 267
-56 350 -139 94 -95 141 -220 141 -371 -1 -251 -134 -424 -372 -485 -35 -9
-81 -21 -102 -26 -21 -6 -44 -20 -53 -34 -27 -41 -11 -69 68 -121 145 -96 229
-200 465 -579 55 -88 103 -166 107 -172 6 -10 -31 -13 -168 -13 l-175 0 -88
131 c-373 554 -426 624 -513 677 -74 44 -103 51 -258 58 -129 7 -133 7 -157
-16 l-25 -23 0 -414 0 -413 -150 0 -150 0 0 975 0 975 498 0 c282 0 534 -4
582 -10z"/>
<path d="M17943 31168 c-23 -24 -23 -28 -23 -310 l0 -287 26 -20 c25 -20 39
-21 223 -21 298 1 480 14 538 40 61 27 117 81 151 145 23 44 27 61 27 150 0
92 -2 104 -30 154 -37 67 -92 115 -163 141 -50 19 -85 21 -391 27 l-336 6 -22
-25z m722 -138 c143 -72 122 -303 -32 -351 -23 -6 -149 -13 -315 -16 l-278 -5
0 201 0 202 288 -3 c283 -3 288 -3 337 -28z"/>
<path d="M19615 31515 l-25 -24 0 -1053 c0 -937 2 -1056 16 -1076 l15 -22 818
0 818 0 21 23 c21 22 22 32 22 209 0 172 -1 187 -21 212 l-20 26 -560 0 c-552
0 -559 0 -559 20 0 11 -1 109 -1 218 l0 197 498 3 c494 2 497 2 520 24 22 21
23 26 23 215 0 193 0 194 -25 218 l-24 25 -496 0 -495 0 0 165 0 165 535 0
536 0 24 25 c25 24 25 26 25 215 0 189 0 191 -25 215 l-24 25 -786 0 -786 0
-24 -25z m1515 -215 l0 -110 -535 0 -536 0 -24 -25 -25 -24 0 -247 c0 -241 1
-248 22 -271 l21 -23 499 0 498 0 0 -115 0 -115 -504 0 -505 0 -15 -22 c-24
-33 -24 -603 0 -636 l15 -22 565 0 564 0 0 -115 0 -115 -725 0 -725 0 0 975 0
975 705 0 705 0 0 -110z"/>
<path d="M14540 28219 c-284 -43 -499 -210 -580 -449 -31 -90 -32 -265 -1
-360 31 -97 87 -183 171 -264 122 -116 244 -171 575 -257 302 -78 378 -109
406 -161 22 -40 16 -110 -14 -161 -52 -88 -174 -133 -337 -125 -168 9 -257 60
-314 181 -18 40 -39 95 -46 122 -22 95 -23 96 -313 68 -246 -23 -249 -26 -207
-215 76 -345 318 -570 668 -623 124 -19 350 -19 474 0 192 29 336 96 448 210
156 157 208 296 197 528 -8 187 -51 289 -172 415 -126 132 -251 190 -625 287
-294 76 -369 108 -398 168 -30 61 8 114 104 148 114 40 274 35 371 -12 52 -25
93 -90 112 -174 20 -88 19 -88 287 -76 266 12 264 12 264 100 -1 293 -213 545
-528 628 -84 22 -122 26 -287 29 -104 1 -219 -2 -255 -7z m348 -119 c324 -35
515 -175 578 -423 9 -37 15 -69 13 -72 -2 -2 -71 -7 -152 -11 -127 -6 -147 -5
-147 8 0 36 -64 140 -116 187 -43 40 -70 55 -122 70 -202 59 -449 18 -548 -91
-45 -50 -54 -75 -54 -150 0 -72 19 -115 71 -162 73 -66 169 -103 458 -176 345
-86 493 -161 584 -293 48 -69 75 -147 89 -252 29 -226 -96 -464 -293 -558
-263 -126 -689 -123 -934 6 -95 51 -194 155 -243 257 -37 77 -72 185 -72 223
0 15 13 17 202 33 l77 7 7 -29 c3 -16 21 -61 40 -100 44 -93 143 -189 229
-222 133 -51 335 -52 468 -2 74 28 171 116 203 185 32 68 33 177 3 238 -58
113 -129 148 -508 247 -353 92 -483 159 -574 298 -56 85 -77 146 -83 247 -12
181 88 358 252 447 95 52 275 92 432 97 23 0 86 -4 140 -9z"/>
<path d="M17449 28215 c-197 -36 -350 -116 -494 -260 -231 -228 -318 -470
-318 -880 0 -193 17 -309 64 -448 86 -260 285 -480 528 -587 144 -63 206 -74
416 -74 173 1 199 3 287 27 308 82 540 325 629 659 21 79 11 87 -213 159 -106
34 -210 64 -231 67 -51 7 -71 -14 -97 -101 -59 -195 -160 -297 -322 -327 -119
-22 -278 29 -357 116 -105 113 -162 348 -148 606 20 355 138 528 386 569 87
15 177 2 251 -36 93 -47 135 -97 176 -209 13 -36 32 -69 48 -80 l26 -20 222
53 c279 65 283 68 237 203 -44 131 -98 217 -199 319 -139 140 -272 210 -467
244 -105 18 -321 18 -424 0z m361 -120 c210 -32 390 -127 490 -259 37 -49 123
-216 115 -225 -4 -4 -279 -70 -281 -68 -1 1 -16 30 -33 63 -60 114 -171 208
-290 244 -71 22 -233 27 -311 9 -143 -33 -280 -146 -349 -288 -67 -138 -76
-199 -75 -481 0 -219 3 -254 22 -325 62 -229 199 -379 393 -430 79 -21 224
-19 298 4 148 46 275 175 335 341 l21 58 135 -42 c73 -24 136 -48 138 -54 6
-19 -60 -163 -110 -237 -123 -185 -321 -294 -568 -313 -586 -47 -978 346 -980
983 0 284 74 537 210 717 144 189 408 310 695 317 28 0 93 -6 145 -14z"/>
<path d="M1093 28178 l-23 -24 0 -1061 c0 -1028 1 -1060 19 -1077 18 -16 65
-17 657 -13 702 4 696 3 830 67 151 73 273 219 330 399 21 65 29 252 15 324
-27 128 -122 264 -239 342 l-60 40 59 63 c158 168 194 411 94 617 -57 117
-181 233 -305 285 -115 48 -167 52 -780 57 l-575 5 -22 -24z m1261 -136 c127
-35 215 -96 276 -193 123 -190 77 -457 -99 -579 -101 -70 -111 -80 -111 -109
0 -36 20 -53 97 -84 120 -49 195 -117 244 -222 54 -115 57 -237 9 -380 -43
-130 -128 -229 -245 -285 -121 -59 -156 -62 -772 -67 l-563 -5 0 977 0 977
543 -4 c520 -4 545 -5 621 -26z"/>
<path d="M1513 27835 c-23 -16 -23 -18 -23 -284 0 -247 1 -269 18 -284 16 -15
54 -17 327 -17 338 0 382 6 460 58 52 36 102 102 116 155 6 23 9 76 7 118 -5
88 -34 147 -95 198 -75 62 -95 65 -458 69 -290 2 -333 1 -352 -13z m678 -133
c60 -20 88 -51 99 -112 15 -81 -17 -150 -83 -183 -56 -28 -143 -37 -379 -37
l-218 0 0 182 0 181 265 -6 c213 -6 275 -10 316 -25z"/>
<path d="M1517 27010 l-27 -21 0 -303 c0 -284 1 -304 19 -320 17 -15 51 -17
382 -14 l364 3 56 26 c71 34 133 93 161 155 33 72 33 219 0 287 -48 97 -147
167 -263 187 -35 6 -199 13 -364 16 -296 6 -301 5 -328 -16z m615 -120 c91
-11 123 -21 172 -54 87 -59 87 -252 0 -313 -62 -43 -87 -46 -396 -51 l-298 -4
0 216 0 216 218 0 c119 0 256 -5 304 -10z"/>
<path d="M3181 28176 l-22 -24 4 -748 c4 -626 7 -764 20 -842 41 -232 173
-409 382 -512 146 -73 300 -96 570 -87 204 7 287 25 425 94 156 78 270 208
325 368 44 128 47 184 52 973 l5 754 -23 24 c-22 24 -23 24 -249 24 -222 0
-227 0 -247 -22 -21 -23 -21 -31 -26 -743 -5 -783 -7 -805 -61 -884 -99 -142
-445 -142 -557 0 -17 22 -41 68 -52 102 -20 60 -21 87 -25 782 -4 714 -4 720
-25 743 -20 22 -25 22 -247 22 -226 0 -227 0 -249 -24z m399 -768 c0 -365 4
-691 9 -725 14 -97 54 -173 126 -242 102 -98 192 -126 381 -119 150 6 211 28
293 104 75 69 109 142 121 262 6 48 10 378 10 735 l0 647 151 0 151 0 -5 -657
c-5 -655 -11 -781 -43 -907 -49 -191 -192 -327 -404 -385 -166 -46 -450 -46
-625 -1 -199 51 -359 193 -411 365 -40 132 -46 238 -51 923 l-5 662 151 0 151
0 0 -662z"/>
<path d="M5269 28181 l-24 -19 0 -1060 c0 -1028 1 -1061 19 -1081 18 -20 28
-21 257 -21 234 0 238 0 253 22 14 20 16 139 16 1076 l0 1053 -25 24 -24 25
-224 0 c-206 0 -227 -2 -248 -19z m391 -1086 l0 -975 -145 0 -145 0 0 975 0
975 145 0 145 0 0 -975z"/>
<path d="M7862 28178 l-22 -25 0 -1058 c0 -981 1 -1060 17 -1077 16 -18 40
-19 563 -15 520 3 548 4 620 25 100 28 263 111 324 164 110 95 218 261 272
420 51 150 59 216 59 478 -1 216 -4 257 -23 349 -72 331 -262 584 -516 690
-140 58 -189 63 -756 68 l-515 5 -23 -24z m1143 -136 c135 -37 219 -85 310
-176 128 -130 202 -286 241 -511 23 -134 23 -395 0 -524 -60 -337 -219 -559
-467 -651 -137 -50 -165 -53 -661 -57 l-468 -5 0 977 0 977 483 -4 c458 -4
486 -5 562 -26z"/>
<path d="M8283 27834 l-23 -19 0 -714 c-1 -658 0 -715 16 -732 16 -18 35 -19
285 -19 292 0 341 6 436 52 125 61 207 183 244 363 37 174 35 516 -3 675 -33
140 -135 279 -247 339 -90 48 -164 59 -440 67 -232 6 -247 6 -268 -12z m562
-137 c116 -33 174 -79 223 -177 55 -109 67 -188 67 -435 -1 -194 -3 -231 -23
-309 -42 -168 -95 -235 -219 -279 -49 -17 -92 -20 -285 -25 l-228 -4 0 627 0
628 208 -6 c133 -3 225 -11 257 -20z"/>
<path d="M9955 28175 l-25 -24 0 -1053 c1 -1015 1 -1054 19 -1075 l19 -23 821
0 820 0 15 22 c13 18 16 57 16 213 0 187 -1 192 -23 213 l-23 22 -557 0 -557
0 0 220 0 220 498 0 499 0 21 23 c21 22 22 32 22 219 l0 197 -26 20 c-26 21
-36 21 -520 21 l-494 0 0 165 0 165 539 0 540 0 20 26 c20 25 21 40 21 216 0
187 0 189 -25 213 l-24 25 -786 0 -786 0 -24 -25z m1515 -215 l0 -110 -535 0
-536 0 -24 -25 -25 -24 0 -246 0 -246 25 -24 24 -25 501 0 501 0 -3 -112 -3
-113 -505 -2 c-501 -3 -505 -3 -522 -24 -16 -19 -18 -50 -18 -320 0 -286 1
-300 20 -319 20 -20 33 -20 580 -20 l560 0 0 -115 0 -115 -725 0 -725 0 0 975
0 975 705 0 705 0 0 -110z"/>
<path d="M11892 28177 l-22 -23 0 -1055 c0 -938 2 -1057 16 -1077 15 -22 19
-22 253 -22 218 0 239 2 254 18 15 17 17 61 17 430 l0 412 68 0 c83 0 159 -19
207 -51 45 -29 129 -144 364 -494 100 -148 191 -280 201 -292 20 -23 22 -23
299 -23 278 0 280 0 295 22 9 12 16 31 16 42 0 23 -303 510 -406 652 -40 55
-102 128 -138 162 -69 64 -75 72 -52 72 7 0 51 19 97 42 64 31 102 60 159 117
125 125 170 242 170 438 0 141 -11 196 -62 303 -32 67 -57 101 -117 161 -170
170 -281 189 -1107 189 l-491 0 -21 -23z m1178 -117 c246 -31 357 -95 435
-253 61 -125 77 -243 50 -372 -45 -211 -185 -339 -425 -386 -68 -13 -110 -43
-110 -77 0 -22 34 -54 114 -108 79 -53 144 -119 214 -217 59 -84 332 -512 332
-522 0 -3 -78 -5 -173 -5 l-173 0 -170 252 c-308 460 -369 535 -469 579 -48
21 -175 39 -286 39 -52 0 -72 -4 -93 -21 l-26 -20 0 -415 0 -415 -147 3 -148
3 -3 973 -2 972 498 0 c283 0 534 -4 582 -10z"/>
<path d="M12315 27825 l-25 -24 0 -285 0 -285 28 -22 c27 -22 28 -22 337 -15
395 8 431 15 515 99 73 73 85 106 85 232 0 122 -7 144 -72 216 -65 72 -118 91
-273 100 -74 4 -233 8 -353 8 l-218 1 -24 -25z m722 -132 c55 -30 80 -64 92
-126 18 -89 -15 -175 -80 -209 -53 -27 -160 -37 -411 -38 l-228 0 0 201 0 200
293 -3 c279 -3 294 -4 334 -25z"/>
<path d="M20593 28174 l-25 -25 5 -717 c6 -854 12 -916 94 -1082 49 -97 178
-230 273 -280 167 -89 247 -105 535 -105 179 0 235 3 300 19 278 64 476 245
539 492 31 119 36 254 36 971 l0 722 -22 15 c-19 13 -60 16 -244 16 -203 0
-224 -2 -245 -19 l-24 -19 -5 -734 c-6 -799 -7 -805 -63 -881 -60 -79 -198
-119 -339 -97 -137 21 -219 78 -261 180 -22 55 -22 58 -27 793 l-5 739 -24 19
c-21 17 -42 19 -248 19 l-224 0 -26 -26z m397 -701 c1 -716 6 -817 49 -908 57
-122 166 -208 298 -235 34 -7 107 -11 178 -8 109 3 126 7 185 35 36 17 83 46
106 66 53 47 100 137 113 217 7 41 11 319 11 748 l0 682 150 0 150 0 0 -602
c0 -802 -12 -940 -92 -1091 -72 -134 -215 -230 -403 -269 -117 -24 -351 -28
-479 -8 -284 43 -469 200 -520 440 -30 140 -36 294 -36 913 l0 617 145 0 145
0 0 -597z"/>
<path d="M22695 28175 l-25 -24 0 -1054 c0 -1046 0 -1053 20 -1075 l21 -22
589 0 c579 0 688 5 791 35 152 44 305 176 377 326 90 188 95 395 11 560 -36
72 -142 188 -207 226 l-43 25 50 53 c127 134 176 284 151 469 -15 120 -63 212
-164 311 -182 181 -255 194 -1069 195 l-478 0 -24 -25z m1253 -128 c146 -39
253 -122 312 -241 103 -209 37 -438 -165 -565 -59 -37 -65 -45 -65 -75 0 -41
19 -59 90 -86 122 -47 219 -140 261 -250 30 -77 36 -206 15 -290 -40 -160
-134 -287 -258 -348 -126 -61 -155 -64 -775 -69 l-563 -5 0 977 0 977 543 -5
c462 -3 551 -6 605 -20z"/>
<path d="M23111 27824 c-20 -26 -21 -37 -21 -279 l0 -252 24 -22 c24 -22 24
-22 352 -19 316 3 331 4 377 25 72 34 120 75 152 135 27 47 30 62 30 143 0 74
-4 97 -22 130 -30 55 -88 110 -148 137 -49 22 -60 23 -386 26 l-336 3 -22 -27z
m549 -103 c156 -10 194 -25 223 -89 15 -35 18 -58 14 -101 -14 -134 -90 -161
-459 -161 l-218 0 0 180 0 180 158 0 c86 -1 213 -5 282 -9z"/>
<path d="M23115 27006 l-25 -25 0 -294 0 -294 24 -22 23 -22 364 3 c413 3 410
3 505 90 71 65 94 122 94 238 0 79 -4 104 -24 145 -27 59 -100 129 -162 156
-72 33 -143 39 -467 45 l-307 5 -25 -25z m620 -116 c174 -20 239 -77 239 -210
0 -120 -53 -178 -184 -199 -36 -6 -179 -11 -317 -11 l-253 0 0 215 0 215 213
0 c116 0 253 -5 302 -10z"/>
<path d="M6097 28162 c-16 -17 -17 -106 -17 -1074 0 -1009 1 -1056 18 -1071
17 -16 85 -17 774 -17 719 0 756 1 771 18 15 16 17 47 17 220 0 196 -1 201
-22 216 -20 14 -86 16 -520 16 l-498 0 0 833 0 834 -23 21 c-23 21 -31 22
-254 22 -210 0 -231 -2 -246 -18z m394 -909 c1 -445 2 -820 3 -836 2 -15 11
-36 21 -47 17 -19 33 -20 519 -22 l501 -3 3 -112 3 -113 -671 0 -670 0 0 970
0 970 145 0 145 0 1 -807z"/>
<path d="M18831 28154 c-21 -27 -21 -30 -21 -1064 0 -1034 0 -1037 21 -1064
l20 -26 758 0 c722 0 759 1 774 18 15 16 17 46 17 215 0 184 -1 198 -20 217
-19 19 -33 20 -520 20 l-500 0 0 833 0 834 -23 21 c-23 21 -31 22 -254 22
l-232 0 -20 -26z m399 -926 c1 -727 3 -836 16 -853 14 -19 30 -20 522 -25
l507 -5 3 -112 3 -113 -671 0 -670 0 0 970 0 970 145 0 145 0 0 -832z"/>
<path d="M6300 24324 c-47 -7 -128 -14 -180 -14 -109 -1 -189 -10 -350 -39
-63 -12 -146 -26 -185 -32 -38 -6 -119 -24 -180 -41 -60 -17 -157 -43 -215
-58 -186 -50 -470 -164 -720 -290 -118 -59 -344 -189 -405 -232 -22 -15 -77
-53 -122 -82 -45 -30 -125 -90 -179 -133 -53 -43 -114 -91 -135 -108 -123 -98
-190 -159 -324 -298 -82 -85 -169 -175 -192 -201 -56 -61 -84 -61 -200 0 -76
40 -93 45 -128 39 -24 -3 -52 -17 -70 -34 -49 -47 -67 -52 -125 -39 -42 10
-56 9 -84 -4 -42 -21 -65 -50 -133 -173 -119 -215 -207 -372 -239 -427 -19
-31 -34 -59 -34 -62 0 -4 -11 -24 -25 -45 -26 -42 -86 -152 -144 -266 -20 -39
-46 -84 -58 -102 -13 -17 -23 -33 -23 -36 0 -3 -23 -44 -50 -92 -70 -121 -68
-164 8 -247 23 -25 24 -32 18 -87 -13 -113 15 -141 263 -276 301 -162 307
-169 248 -259 -126 -190 -373 -361 -662 -458 l-150 -51 -225 -6 c-184 -5 -231
-9 -256 -23 -30 -16 -68 -75 -169 -258 -23 -41 -66 -120 -97 -175 -30 -55 -70
-127 -88 -160 -18 -33 -64 -116 -103 -185 -132 -234 -143 -255 -157 -285 -8
-16 -22 -41 -31 -55 -9 -14 -31 -52 -49 -85 -18 -33 -48 -87 -66 -121 -47 -85
-46 -128 4 -181 21 -22 70 -57 108 -78 38 -21 130 -73 204 -116 74 -42 164
-92 200 -112 36 -19 94 -51 130 -72 36 -21 81 -47 100 -58 68 -39 321 -179
428 -237 26 -14 88 -49 137 -77 50 -28 140 -78 200 -110 61 -33 130 -71 155
-85 41 -23 144 -79 365 -198 44 -24 87 -48 95 -55 8 -6 71 -42 140 -80 69 -37
150 -83 180 -100 30 -18 80 -46 110 -62 30 -17 111 -61 180 -98 86 -47 136
-69 160 -69 68 -1 116 52 221 244 25 47 72 132 104 190 31 58 78 146 104 195
27 50 90 164 141 255 51 91 117 210 148 265 30 55 68 120 84 144 15 25 36 68
45 97 19 63 9 111 -37 179 -61 89 -110 177 -146 261 -20 49 -41 94 -44 99 -25
34 -70 312 -70 427 0 81 23 276 41 342 20 74 62 171 83 189 25 23 52 17 126
-28 92 -55 367 -205 407 -221 48 -20 86 -12 137 30 66 53 71 53 192 -10 60
-32 136 -74 170 -96 34 -21 64 -38 67 -38 3 0 40 -20 81 -45 42 -25 79 -45 82
-45 4 0 43 -22 88 -48 44 -27 151 -86 236 -132 159 -85 298 -161 430 -235 41
-24 138 -78 215 -120 77 -43 145 -81 150 -85 10 -7 66 -38 215 -120 195 -107
291 -160 327 -183 62 -39 201 -107 219 -107 33 0 86 34 108 69 12 20 41 81 65
136 88 207 328 658 431 810 133 197 187 279 197 298 31 55 2 116 -79 163 -89
52 -186 107 -333 189 -77 43 -170 95 -206 116 -36 22 -68 39 -72 39 -3 0 -41
20 -83 45 -41 25 -77 45 -79 45 -3 0 -74 39 -159 88 -85 48 -185 104 -223 124
-37 21 -79 44 -93 52 -70 40 -377 210 -465 257 -54 29 -165 90 -245 135 -80
45 -183 104 -230 131 -124 70 -132 80 -124 151 10 92 -24 139 -146 204 -102
54 -181 99 -235 132 -27 17 -67 40 -88 51 -68 35 -90 62 -83 98 16 81 252 449
431 672 66 83 129 161 140 175 34 43 367 373 424 420 30 25 85 68 122 96 38
29 86 67 108 87 21 19 69 53 107 76 38 23 98 63 134 88 36 26 103 69 150 95
144 81 452 234 510 253 30 10 71 26 90 35 19 10 80 33 135 51 171 58 226 108
233 214 7 107 -40 174 -148 211 -92 32 -311 63 -445 64 -55 0 -140 7 -190 15
-109 18 -240 18 -355 -1z m460 -143 c152 -9 245 -20 376 -45 104 -19 130 -30
150 -61 15 -23 15 -27 0 -50 -21 -31 -37 -40 -147 -75 -50 -16 -96 -33 -102
-38 -7 -6 -48 -22 -91 -38 -84 -29 -328 -147 -436 -209 -36 -21 -89 -51 -118
-66 -70 -37 -366 -235 -383 -255 -7 -9 -47 -41 -89 -72 -41 -31 -77 -59 -80
-62 -3 -3 -32 -28 -65 -55 -33 -27 -134 -121 -223 -209 -139 -136 -206 -209
-323 -351 -10 -11 -34 -41 -55 -66 -70 -84 -98 -121 -182 -243 -132 -192 -185
-280 -269 -444 -57 -111 -57 -142 0 -197 24 -22 79 -59 123 -82 43 -22 107
-58 141 -79 34 -21 97 -59 140 -83 123 -70 123 -70 117 -160 l-6 -76 35 -36
c20 -19 66 -51 104 -71 98 -50 240 -129 373 -207 63 -37 160 -92 215 -121 103
-55 114 -61 250 -138 44 -25 114 -63 155 -85 41 -22 86 -47 100 -57 14 -10 54
-32 90 -49 36 -17 99 -51 140 -76 41 -24 101 -58 132 -74 69 -37 461 -256 503
-281 17 -10 59 -34 95 -53 138 -74 183 -104 193 -129 6 -16 -43 -124 -62 -138
-15 -11 -147 -227 -269 -440 -38 -65 -215 -419 -255 -508 -45 -99 -67 -102
-207 -22 -77 44 -151 85 -280 155 -52 28 -144 80 -205 115 -60 35 -145 83
-187 107 -43 24 -115 64 -160 89 -46 25 -114 63 -153 84 -38 20 -97 53 -130
72 -33 19 -94 53 -135 75 -216 115 -281 151 -345 190 -38 24 -73 43 -78 43 -5
0 -34 15 -65 33 -32 19 -95 56 -142 84 -47 28 -147 83 -222 122 -170 88 -191
90 -254 26 -24 -25 -51 -45 -60 -45 -19 0 -191 85 -215 106 -8 8 -18 14 -22
14 -3 0 -59 30 -124 66 -203 114 -228 121 -281 77 -54 -46 -142 -298 -164
-468 -16 -128 -21 -315 -9 -385 39 -244 45 -268 98 -394 29 -71 62 -141 73
-156 11 -16 20 -31 20 -34 0 -3 23 -40 51 -83 40 -62 49 -84 45 -106 -3 -16
-43 -94 -89 -175 -92 -163 -185 -330 -279 -502 -17 -30 -41 -73 -53 -95 -12
-22 -45 -83 -73 -135 -113 -212 -180 -325 -204 -343 -22 -17 -28 -17 -66 -4
-23 8 -72 32 -109 54 -59 35 -205 117 -368 208 -27 15 -81 46 -120 68 -38 22
-97 54 -130 72 -70 37 -305 167 -417 231 -42 24 -132 73 -200 109 -68 36 -130
70 -138 75 -8 6 -130 73 -270 150 -140 77 -262 144 -270 150 -20 12 -111 64
-235 132 -150 83 -397 225 -422 243 -42 29 -33 56 96 290 65 116 134 241 171
305 21 36 54 97 75 135 21 39 55 101 77 138 21 38 38 72 38 76 0 4 19 37 41
72 23 35 59 98 80 139 45 87 92 148 125 160 13 5 99 10 191 10 114 1 187 6
228 16 103 26 327 104 354 123 14 10 57 35 96 56 114 61 183 116 315 252 158
161 220 249 220 313 0 43 -49 91 -150 146 -393 215 -382 208 -403 236 -16 22
-17 27 -2 67 25 73 20 96 -30 143 -30 29 -45 51 -45 68 0 27 45 118 90 185 15
22 39 63 52 90 40 82 260 482 342 622 20 34 36 64 36 66 0 16 103 176 116 181
9 3 44 3 79 0 68 -7 87 -1 135 46 17 17 41 30 54 30 13 0 63 -20 112 -45 62
-32 100 -45 129 -45 46 0 70 21 207 185 139 167 206 229 518 482 99 80 164
128 277 204 74 49 137 89 142 89 4 0 12 5 19 12 29 29 381 211 562 291 157 69
363 142 483 171 37 10 86 24 110 32 58 21 192 51 252 58 28 3 61 8 75 11 14 3
81 15 150 26 69 11 150 24 181 29 30 6 107 10 170 11 63 1 125 5 139 9 26 9
158 6 410 -9z"/>
<path d="M21665 24140 c-11 -5 -40 -9 -65 -9 -40 -1 -87 -9 -295 -51 -27 -6
-63 -15 -80 -20 -16 -5 -61 -17 -100 -25 -38 -9 -89 -25 -113 -36 -24 -11 -82
-32 -130 -48 -218 -71 -661 -330 -829 -485 -38 -35 -79 -71 -93 -82 -31 -24
-248 -241 -275 -275 -11 -14 -41 -50 -66 -80 -46 -54 -203 -283 -253 -369 -86
-147 -208 -415 -256 -560 -36 -106 -93 -336 -101 -400 -4 -36 -15 -117 -24
-180 -10 -63 -20 -193 -24 -289 -7 -203 11 -175 -181 -283 -69 -38 -201 -113
-295 -166 -93 -52 -222 -123 -285 -157 -63 -34 -169 -93 -235 -130 -66 -38
-158 -89 -205 -115 -131 -72 -158 -131 -102 -221 16 -24 35 -51 43 -59 8 -8
30 -37 49 -65 19 -27 40 -55 45 -61 6 -7 28 -35 50 -64 22 -29 53 -68 68 -86
109 -128 372 -549 502 -802 30 -59 66 -127 79 -152 29 -54 115 -240 151 -330
15 -36 33 -78 40 -95 7 -16 19 -48 25 -70 7 -22 28 -78 47 -125 20 -47 43
-112 53 -145 38 -134 84 -182 161 -172 41 5 186 81 657 346 89 50 165 91 168
91 3 0 18 9 33 19 15 11 60 37 101 59 41 21 129 70 195 108 153 88 168 89 282
16 103 -65 393 -206 482 -233 36 -12 93 -32 127 -45 88 -34 327 -92 494 -119
52 -9 117 -20 143 -25 63 -13 555 -13 626 0 31 5 97 17 146 25 353 62 608 145
910 297 129 65 309 176 408 253 43 33 101 77 129 99 75 57 413 404 470 483 28
37 80 113 115 168 36 55 80 123 98 150 75 115 265 532 265 582 0 7 11 45 24
85 38 114 45 143 73 298 34 190 41 347 18 406 -27 70 -109 124 -189 124 -43 0
-66 -10 -201 -85 -130 -72 -154 -85 -205 -113 -30 -16 -91 -50 -135 -74 -44
-25 -111 -62 -150 -83 -38 -21 -97 -54 -130 -73 -33 -19 -103 -58 -155 -87
-52 -29 -113 -62 -135 -75 -22 -13 -78 -44 -125 -70 -47 -26 -139 -77 -205
-115 -137 -77 -281 -157 -405 -225 -47 -26 -107 -59 -135 -75 -81 -46 -110
-41 -250 42 -66 39 -147 88 -180 109 -33 20 -112 67 -175 104 -102 60 -150 89
-332 197 -26 15 -82 50 -125 76 -43 26 -134 81 -203 122 -167 98 -176 108
-173 193 1 37 7 306 13 597 13 685 20 846 40 871 25 31 40 41 155 100 61 31
122 65 136 75 27 19 197 113 279 154 25 13 113 61 195 108 83 47 184 104 225
127 41 23 118 65 170 94 200 111 308 171 380 211 41 24 100 56 130 72 30 16
74 42 97 56 24 15 45 27 49 27 14 0 170 100 191 122 31 33 43 72 44 139 2 98
-48 161 -172 217 -93 42 -260 112 -268 112 -5 0 -33 10 -62 23 -56 25 -107 39
-299 82 -63 15 -129 31 -146 36 -68 21 -234 32 -509 35 -159 2 -299 -1 -310
-6z m539 -130 c33 -5 108 -17 166 -26 58 -8 137 -24 175 -34 39 -9 104 -25
145 -35 121 -27 296 -89 424 -149 39 -18 86 -39 104 -46 39 -15 72 -54 72 -85
0 -12 -10 -31 -22 -43 -24 -22 -140 -91 -288 -172 -124 -68 -269 -148 -405
-225 -135 -77 -271 -152 -360 -200 -33 -18 -116 -64 -185 -104 -69 -39 -128
-71 -133 -71 -4 0 -31 -15 -60 -33 -29 -18 -81 -47 -117 -66 -36 -18 -92 -48
-125 -68 -33 -19 -98 -56 -145 -81 -121 -64 -152 -85 -188 -126 l-32 -37 -1
-127 c0 -70 -5 -152 -11 -182 -5 -30 -14 -293 -19 -585 -4 -291 -11 -568 -15
-614 -11 -163 6 -186 246 -328 80 -48 168 -101 195 -118 48 -31 71 -44 255
-153 47 -27 101 -59 120 -72 46 -29 226 -136 375 -223 66 -39 147 -88 180
-109 95 -61 110 -60 239 5 61 31 152 80 201 108 50 28 117 66 151 84 33 18
119 66 190 106 71 39 167 93 214 119 47 26 119 67 160 90 41 24 113 64 160 90
131 72 273 151 405 225 66 37 154 86 195 107 41 22 116 62 166 89 50 27 100
49 110 49 57 0 78 -65 59 -181 -7 -41 -18 -108 -24 -149 -48 -307 -209 -736
-362 -968 -19 -28 -56 -86 -84 -129 -27 -43 -74 -112 -104 -153 -67 -91 -315
-347 -426 -438 -44 -37 -82 -69 -85 -72 -11 -12 -149 -108 -215 -150 -129 -81
-197 -116 -415 -217 -52 -24 -132 -53 -300 -109 -41 -14 -109 -32 -150 -41
-41 -8 -93 -19 -115 -24 -188 -43 -334 -59 -555 -59 -190 0 -249 4 -380 25
-85 13 -177 31 -205 39 -27 8 -68 17 -91 21 -47 7 -186 49 -329 98 -129 44
-426 189 -535 261 -128 84 -149 84 -301 -3 -174 -99 -238 -135 -444 -248 -44
-24 -87 -48 -95 -53 -24 -15 -428 -240 -498 -277 -103 -54 -135 -43 -162 58
-7 24 -20 60 -30 79 -10 19 -32 76 -48 125 -17 50 -55 142 -83 205 -28 63 -70
158 -94 210 -37 84 -202 398 -279 533 -105 185 -359 554 -433 632 -34 36 -153
210 -153 224 1 37 45 66 330 221 125 68 273 150 345 192 17 10 56 31 87 48 31
16 128 70 215 119 327 186 304 156 315 414 4 106 12 226 17 267 6 41 14 111
20 155 10 82 31 178 51 230 6 16 18 61 26 99 27 131 181 482 284 651 22 36 40
67 40 70 0 5 127 191 167 243 121 159 361 394 525 515 221 163 527 332 695
383 49 14 104 34 123 44 50 25 384 106 520 125 63 9 133 20 155 25 58 11 407
12 479 0z"/>
<path d="M12520 22000 c-14 -4 -56 -8 -93 -9 -108 -2 -428 -36 -532 -58 -38
-8 -88 -17 -110 -19 -22 -3 -83 -16 -135 -29 -52 -12 -131 -30 -175 -40 -44
-9 -129 -32 -189 -51 -60 -19 -116 -34 -123 -34 -24 0 -340 -110 -416 -144
-40 -18 -85 -36 -102 -40 -57 -14 -361 -157 -540 -255 -170 -92 -381 -220
-529 -319 -137 -92 -191 -132 -398 -297 -55 -44 -115 -91 -134 -105 -97 -74
-375 -347 -552 -542 -144 -160 -168 -187 -276 -328 -53 -69 -103 -133 -111
-142 -8 -10 -68 -98 -133 -195 -218 -327 -449 -758 -543 -1013 -12 -30 -30
-75 -41 -100 -40 -88 -121 -317 -153 -435 -18 -66 -44 -156 -58 -200 -50 -155
-131 -559 -147 -735 -6 -58 -14 -136 -20 -175 -36 -264 -40 -341 -40 -640 0
-170 5 -341 11 -380 6 -38 14 -108 19 -155 28 -301 57 -492 105 -700 9 -36 24
-108 35 -160 11 -52 34 -140 51 -195 17 -55 42 -136 54 -180 37 -122 121 -356
174 -480 139 -323 292 -619 455 -878 96 -153 129 -200 266 -389 84 -116 80
-110 152 -197 29 -35 69 -83 88 -107 108 -131 360 -388 556 -566 128 -117 387
-330 441 -364 15 -10 55 -38 88 -63 33 -26 85 -62 115 -82 141 -93 229 -149
234 -149 3 0 30 -16 60 -35 30 -19 57 -35 60 -35 3 0 44 -23 91 -50 87 -52
490 -251 535 -265 14 -4 66 -24 115 -45 50 -21 108 -43 130 -49 22 -7 49 -16
60 -21 58 -27 143 -56 250 -86 66 -19 143 -43 170 -53 28 -10 68 -22 90 -25
22 -4 122 -28 223 -52 101 -25 223 -49 270 -54 48 -5 114 -14 147 -20 33 -6
76 -12 95 -15 19 -3 49 -7 65 -10 168 -27 327 -35 709 -36 245 -1 447 4 501
10 50 6 131 16 180 22 50 6 101 12 115 15 79 14 164 26 230 34 41 5 156 29
255 54 99 25 198 48 220 51 45 7 255 70 390 116 188 66 271 96 300 111 17 8
48 21 70 28 42 13 272 115 340 151 22 11 101 52 175 91 74 39 162 87 195 108
34 20 68 39 75 43 17 8 185 118 292 192 74 50 378 277 433 323 133 110 603
570 691 677 172 208 244 296 272 335 97 133 150 208 162 230 7 14 50 81 95
150 46 69 95 148 111 175 15 28 51 93 81 145 109 195 258 512 319 675 20 55
42 114 50 130 7 17 20 55 28 85 9 30 30 89 46 133 17 43 40 117 51 165 11 48
30 113 40 145 17 50 61 237 75 317 3 14 16 84 30 155 41 212 43 225 49 355 3
69 10 152 16 185 9 50 28 394 31 540 1 79 -21 401 -31 460 -6 33 -13 110 -16
170 -7 135 -30 290 -70 470 -9 39 -22 104 -30 145 -20 109 -50 227 -78 305 -8
22 -18 59 -21 82 -4 23 -21 79 -37 125 -16 46 -45 128 -63 183 -39 117 -139
367 -164 410 -10 17 -26 53 -36 80 -24 63 -91 196 -173 343 -35 63 -63 116
-63 118 0 3 -8 17 -18 32 -38 56 -94 145 -119 190 -61 111 -303 445 -433 597
-27 33 -78 93 -113 134 -81 97 -472 488 -568 568 -41 35 -102 87 -137 117 -35
31 -116 94 -180 142 -64 48 -133 99 -152 114 -85 64 -313 210 -496 316 -112
65 -431 224 -499 250 -27 10 -63 26 -80 35 -41 24 -292 121 -395 154 -47 15
-89 31 -95 35 -11 8 -86 31 -196 59 -41 11 -88 25 -104 31 -73 28 -499 117
-685 144 -58 8 -168 19 -245 25 -77 6 -162 14 -190 17 -82 10 -768 13 -795 4z
m775 -139 c55 -5 154 -14 220 -20 150 -13 220 -24 470 -73 215 -41 347 -72
392 -89 15 -6 75 -24 133 -41 139 -39 391 -123 428 -142 17 -9 52 -23 77 -32
149 -50 580 -258 770 -372 281 -168 548 -347 676 -456 20 -17 44 -38 55 -46
105 -83 358 -307 463 -410 94 -93 252 -273 381 -434 8 -11 29 -35 45 -55 88
-104 255 -337 326 -456 23 -38 63 -104 89 -145 135 -211 340 -620 426 -850 15
-41 31 -79 35 -85 3 -5 17 -44 29 -85 13 -41 41 -122 62 -179 21 -57 45 -133
53 -170 8 -36 21 -86 30 -110 19 -54 52 -191 71 -291 7 -41 21 -106 29 -145
28 -123 46 -237 56 -365 5 -69 14 -161 19 -205 28 -235 28 -764 0 -1005 -5
-47 -14 -143 -19 -215 -8 -124 -14 -163 -46 -300 -7 -33 -18 -89 -25 -125 -17
-100 -40 -195 -73 -310 -16 -58 -35 -130 -42 -160 -7 -30 -24 -86 -38 -125
-14 -38 -35 -99 -47 -135 -112 -329 -233 -610 -355 -825 -12 -22 -36 -65 -53
-95 -73 -135 -127 -225 -216 -360 -196 -299 -290 -422 -520 -684 -164 -186
-520 -529 -655 -631 -29 -22 -58 -45 -65 -50 -6 -6 -49 -39 -96 -73 -47 -35
-96 -72 -110 -82 -106 -79 -295 -204 -470 -310 -65 -40 -427 -230 -437 -230
-4 0 -55 -22 -113 -49 -58 -27 -136 -62 -175 -77 -158 -61 -333 -126 -380
-141 -27 -8 -97 -30 -155 -48 -58 -18 -127 -38 -155 -44 -27 -6 -133 -31 -235
-55 -217 -52 -222 -53 -320 -67 -41 -5 -120 -16 -175 -24 -330 -48 -360 -50
-770 -50 -414 0 -421 0 -760 51 -55 8 -132 19 -172 24 -114 14 -190 29 -318
61 -66 17 -149 36 -185 44 -36 7 -117 30 -180 50 -63 20 -131 41 -151 46 -37
9 -232 79 -349 125 -36 14 -103 41 -150 59 -92 36 -479 228 -600 298 -41 24
-109 63 -150 87 -41 24 -77 46 -80 49 -7 9 -61 44 -90 59 -14 7 -61 39 -105
72 -44 32 -102 74 -130 93 -49 34 -224 171 -319 251 -136 115 -532 505 -609
601 -18 21 -55 64 -82 95 -28 30 -82 98 -121 150 -38 52 -87 118 -107 145 -51
70 -158 224 -182 262 -98 159 -185 303 -185 307 0 3 -19 38 -42 78 -46 79
-131 246 -174 343 -58 131 -184 439 -184 450 0 6 -14 46 -31 90 -50 128 -127
399 -169 590 -57 259 -77 367 -90 485 -6 52 -15 129 -21 170 -26 191 -32 299
-32 625 -1 325 5 450 32 645 5 36 14 109 20 163 13 117 46 303 65 372 8 28 24
97 35 155 11 58 32 141 46 185 14 44 37 123 51 175 78 295 330 876 516 1190
12 19 34 60 51 90 63 113 285 438 404 590 298 380 695 772 1028 1016 22 16 51
39 65 52 24 23 375 262 383 262 3 0 51 28 108 63 244 149 649 351 794 397 22
7 58 21 80 31 111 50 270 105 455 156 227 63 345 93 363 93 11 0 49 9 85 20
37 11 94 24 127 29 33 5 85 13 115 19 135 26 263 40 558 62 62 4 116 11 120
15 9 9 557 -2 677 -14z"/>
<path d="M12020 20108 c-224 -34 -354 -59 -435 -83 -44 -13 -110 -28 -146 -33
-82 -13 -264 -68 -579 -177 -93 -33 -210 -81 -320 -132 -30 -14 -109 -50 -175
-80 -66 -29 -162 -78 -215 -107 -111 -62 -170 -95 -262 -146 -36 -21 -86 -51
-110 -67 -24 -17 -88 -60 -143 -97 -111 -74 -195 -133 -239 -168 -15 -13 -52
-39 -82 -59 -106 -71 -275 -223 -556 -499 l-218 -216 0 -44 0 -45 603 -603
c331 -332 615 -610 630 -618 18 -10 40 -13 65 -8 31 6 68 37 223 188 258 251
442 403 638 523 42 26 90 57 106 68 36 26 250 145 261 145 4 0 28 12 53 27
108 64 511 220 664 258 29 7 104 27 167 44 63 18 147 36 185 41 39 5 99 14
135 20 36 6 94 15 129 20 52 7 70 14 95 39 30 31 31 34 30 119 -1 48 -7 148
-12 222 -6 74 -15 208 -20 296 -5 89 -12 166 -16 172 -6 11 -23 165 -32 287
-8 127 -24 292 -33 345 -5 30 -10 106 -10 169 -1 130 -19 178 -77 206 -43 20
-146 18 -304 -7z m210 -123 c28 -9 32 -29 41 -180 4 -77 13 -185 19 -240 6
-55 15 -156 21 -225 6 -69 15 -161 20 -205 5 -44 13 -143 18 -220 5 -77 14
-171 20 -210 6 -38 11 -118 11 -177 0 -107 0 -108 -27 -122 -29 -14 -194 -46
-247 -46 -29 -1 -211 -46 -411 -103 -74 -21 -178 -56 -330 -111 -147 -53 -520
-245 -680 -350 -50 -32 -108 -70 -130 -85 -122 -79 -356 -274 -524 -437 -133
-129 -197 -184 -213 -184 -16 0 -165 143 -554 531 -293 292 -538 542 -545 555
-10 20 -10 29 2 51 22 42 152 175 273 280 61 53 138 122 172 152 105 97 118
106 407 314 128 93 297 204 382 252 219 125 380 208 570 295 123 57 277 121
370 155 50 18 117 43 150 55 33 12 67 24 75 26 56 13 191 54 223 67 21 9 62
19 90 23 49 6 84 14 205 48 76 21 248 53 387 72 66 8 121 17 122 18 5 5 68 6
83 1z"/>
<path d="M13444 20120 c-43 -17 -61 -59 -67 -160 -4 -52 -13 -158 -22 -235
-31 -277 -46 -443 -55 -610 -5 -93 -11 -179 -14 -190 -3 -11 -10 -76 -16 -145
-5 -69 -15 -168 -22 -220 -27 -227 -5 -278 130 -301 90 -16 171 -28 247 -39
70 -9 133 -24 345 -80 111 -29 141 -39 205 -66 17 -7 68 -26 115 -43 91 -32
323 -131 405 -173 121 -62 388 -225 499 -305 199 -143 261 -197 482 -415 115
-114 214 -209 220 -209 42 -6 73 -4 94 7 14 7 296 284 628 616 l602 603 0 45
0 45 -257 255 c-142 140 -272 267 -290 281 -18 15 -63 52 -100 83 -172 142
-508 375 -720 499 -206 121 -563 302 -670 340 -40 15 -96 38 -125 53 -28 14
-86 37 -127 49 -42 13 -121 39 -176 58 -151 54 -351 114 -430 131 -38 8 -113
24 -165 36 -206 47 -281 61 -423 80 -156 21 -258 24 -293 10z m338 -158 c81
-11 152 -23 157 -26 5 -3 47 -13 93 -22 45 -8 124 -26 173 -39 50 -13 110 -26
134 -30 24 -4 60 -14 80 -22 30 -13 164 -54 221 -67 30 -8 145 -49 155 -56 6
-4 44 -17 85 -30 41 -12 107 -37 146 -55 39 -18 88 -38 110 -45 89 -29 625
-309 774 -405 157 -101 272 -176 288 -190 9 -8 73 -56 141 -107 68 -51 136
-102 150 -113 149 -113 497 -444 545 -517 11 -17 16 -37 12 -50 -3 -13 -245
-263 -538 -555 -457 -457 -538 -533 -562 -533 -23 0 -48 20 -130 103 -56 56
-156 150 -222 207 -158 137 -158 137 -237 195 -38 28 -99 72 -135 99 -154 113
-484 295 -727 400 -118 50 -120 51 -190 74 -33 12 -95 34 -137 50 -42 16 -94
33 -115 36 -21 4 -74 18 -118 32 -110 33 -204 53 -309 66 -49 5 -119 17 -155
27 -92 23 -100 38 -82 168 17 123 28 259 41 483 5 96 14 213 19 260 5 47 12
110 15 140 11 93 24 229 36 355 14 148 16 160 34 178 18 17 47 16 248 -11z"/>
<path d="M9770 15274 c-36 -24 -1156 -1142 -1191 -1188 -49 -66 -39 -116 47
-217 61 -73 332 -329 444 -422 143 -117 275 -223 309 -249 44 -33 444 -304
457 -309 9 -4 92 -52 214 -124 82 -49 396 -204 465 -231 33 -12 99 -41 146
-63 48 -23 92 -41 99 -41 7 0 26 -7 43 -15 64 -30 393 -136 525 -170 76 -19
169 -43 207 -53 75 -20 135 -32 310 -64 61 -10 160 -28 220 -39 303 -55 1302
-57 1615 -4 204 35 479 87 555 106 416 104 688 196 1025 349 63 29 156 70 205
92 50 22 95 44 101 49 6 5 39 24 75 42 136 72 226 122 269 151 25 17 54 36 65
42 58 32 204 129 311 206 176 127 176 128 255 193 345 286 659 595 683 673 18
58 11 66 -592 671 -390 391 -601 596 -629 610 -76 38 -79 37 -251 -137 -146
-146 -331 -315 -370 -336 -10 -5 -42 -30 -72 -56 -58 -49 -318 -225 -410 -277
-155 -88 -202 -112 -405 -207 -64 -30 -331 -136 -343 -136 -5 0 -43 -11 -83
-24 -139 -45 -377 -101 -609 -143 -75 -13 -425 -34 -580 -33 -122 0 -470 18
-550 29 -47 6 -117 20 -155 31 -39 10 -95 22 -125 25 -59 8 -197 44 -283 74
-28 10 -88 28 -132 40 -269 73 -772 327 -1070 540 -49 35 -99 73 -110 83 -11
10 -55 46 -97 80 -275 225 -295 243 -407 377 -72 87 -128 110 -181 75z m137
-230 c46 -55 277 -265 371 -337 37 -28 95 -74 128 -102 148 -121 372 -260 634
-392 113 -57 230 -113 260 -123 48 -16 82 -30 175 -70 11 -5 47 -16 80 -26 33
-9 112 -33 175 -54 124 -40 160 -49 320 -81 58 -12 125 -25 150 -30 78 -17
110 -20 320 -28 113 -5 240 -14 282 -22 63 -10 91 -10 155 0 43 7 175 16 293
21 195 7 233 11 415 49 279 57 531 127 655 181 36 15 99 41 140 58 130 52 262
113 330 151 36 21 108 62 160 91 99 56 312 195 366 239 48 39 64 52 132 103
75 57 167 139 339 303 140 135 146 139 177 131 28 -7 1068 -1046 1080 -1079 6
-16 4 -34 -5 -55 -15 -35 -198 -218 -337 -337 -52 -44 -119 -102 -151 -130
-136 -119 -421 -329 -571 -420 -45 -27 -107 -66 -138 -86 -166 -105 -354 -201
-677 -346 -199 -89 -576 -226 -715 -260 -36 -8 -128 -32 -205 -53 -77 -21
-162 -40 -190 -44 -27 -3 -59 -7 -70 -10 -29 -7 -225 -44 -260 -50 -16 -3 -75
-13 -130 -22 -271 -45 -1165 -48 -1400 -5 -59 11 -170 31 -290 52 -55 10 -100
18 -265 50 -30 6 -89 21 -130 33 -41 13 -109 31 -150 41 -41 9 -97 24 -125 32
-112 35 -217 71 -222 77 -4 3 -12 6 -20 6 -21 0 -284 99 -322 122 -19 11 -62
30 -96 43 -79 29 -449 217 -585 296 -214 125 -561 366 -730 508 -14 11 -54 44
-89 73 -102 85 -320 292 -393 373 -40 45 -68 85 -68 98 0 15 151 173 523 545
287 288 535 532 551 542 26 17 32 17 57 4 15 -8 45 -35 66 -60z"/>
<path d="M6750 14263 c-8 -3 -80 -43 -160 -88 -80 -45 -199 -112 -265 -147
-193 -105 -426 -232 -480 -263 -27 -15 -99 -56 -160 -90 -60 -34 -141 -79
-180 -100 -108 -59 -131 -72 -172 -97 -21 -13 -77 -43 -124 -67 -102 -51 -97
-52 -269 34 -160 80 -460 185 -530 185 -14 0 -57 8 -95 19 -71 19 -162 31
-385 52 -151 13 -120 13 -270 -1 -135 -12 -288 -34 -360 -50 -25 -6 -74 -15
-110 -20 -78 -12 -91 -16 -297 -91 -180 -65 -199 -73 -363 -167 -165 -94 -210
-124 -350 -233 -136 -106 -400 -368 -465 -462 -22 -32 -65 -92 -96 -135 -30
-42 -71 -104 -91 -137 -54 -89 -152 -292 -173 -355 -10 -30 -21 -59 -25 -65
-16 -23 -63 -166 -80 -245 -10 -47 -27 -125 -38 -175 -28 -133 -46 -269 -39
-310 8 -49 66 -118 123 -145 37 -18 57 -22 105 -17 60 5 72 11 319 147 47 26
117 64 155 85 67 37 142 79 430 240 72 40 146 82 165 94 19 11 66 37 105 57
38 20 148 80 245 134 96 53 216 119 267 145 88 46 93 47 125 34 42 -17 213
-114 253 -144 17 -12 100 -61 185 -110 85 -48 184 -107 220 -130 83 -53 102
-65 175 -105 57 -31 156 -93 238 -148 20 -14 41 -37 45 -51 10 -37 8 -877 -4
-1113 -11 -246 13 -211 -244 -353 -58 -32 -150 -84 -205 -115 -159 -92 -175
-101 -265 -150 -47 -26 -107 -60 -135 -76 -76 -43 -231 -128 -320 -174 -44
-24 -132 -72 -195 -107 -63 -36 -155 -88 -205 -115 -49 -28 -109 -61 -132 -75
-84 -47 -125 -141 -103 -235 16 -63 89 -131 186 -172 38 -16 92 -39 119 -51
116 -51 334 -116 430 -129 28 -4 93 -15 145 -26 168 -33 390 -45 553 -31 153
13 185 17 262 32 28 5 82 14 120 19 105 15 380 101 510 160 39 17 90 40 115
51 49 22 156 83 235 134 107 69 209 138 221 149 7 6 41 34 75 61 83 65 267
250 346 345 129 156 243 332 325 500 105 216 129 273 174 429 62 210 72 259
80 376 6 105 28 235 44 266 15 27 63 60 175 122 55 30 134 74 175 97 41 24
129 72 195 107 66 36 140 78 165 93 25 16 79 47 120 69 235 125 329 176 380
208 35 21 82 47 265 143 237 125 255 177 117 349 -42 53 -95 121 -117 151 -22
30 -51 68 -65 83 -67 75 -324 470 -410 627 -22 41 -61 111 -86 155 -131 229
-336 700 -402 921 -29 94 -57 156 -82 179 -21 19 -110 31 -140 18z m59 -189
c12 -15 26 -45 31 -68 38 -145 241 -618 362 -841 30 -55 72 -131 93 -170 148
-272 436 -698 599 -887 49 -57 75 -110 66 -133 -4 -12 -66 -52 -151 -99 -79
-44 -169 -94 -199 -112 -30 -18 -102 -57 -160 -86 -58 -30 -123 -66 -146 -80
-22 -14 -71 -42 -110 -63 -38 -20 -103 -55 -144 -79 -41 -23 -120 -67 -175
-98 -55 -30 -120 -67 -145 -82 -25 -14 -79 -44 -120 -66 -145 -77 -253 -145
-273 -173 -22 -29 -31 -78 -47 -242 -8 -95 -11 -117 -26 -210 -5 -36 -27 -118
-85 -320 -11 -38 -38 -107 -60 -152 -21 -44 -39 -84 -39 -88 0 -15 -111 -225
-161 -305 -129 -204 -370 -476 -544 -612 -65 -51 -300 -208 -311 -208 -3 0
-28 -15 -57 -33 -29 -18 -63 -37 -77 -44 -14 -6 -61 -28 -105 -48 -122 -56
-417 -153 -495 -161 -25 -3 -76 -12 -115 -20 -235 -50 -589 -50 -820 0 -38 8
-86 17 -105 20 -111 17 -203 42 -260 71 -14 7 -41 16 -60 20 -19 4 -87 29
-150 57 -201 86 -210 136 -40 229 41 22 104 57 140 76 36 20 107 60 157 89 51
29 113 62 139 73 25 11 65 34 89 50 24 16 61 37 81 47 21 10 85 45 143 78 59
33 142 79 186 103 44 24 96 53 115 65 76 44 282 158 288 158 3 0 13 6 21 14 9
7 48 30 86 51 126 67 184 106 204 134 25 35 29 137 37 918 l5 562 -36 39 c-34
38 -178 135 -315 211 -36 20 -123 73 -195 117 -71 45 -166 100 -210 124 -44
24 -105 60 -135 80 -30 20 -107 67 -170 104 -63 37 -130 77 -148 88 -40 24
-98 27 -138 6 -16 -9 -105 -57 -199 -108 -93 -51 -213 -116 -265 -145 -52 -28
-153 -85 -225 -125 -71 -40 -164 -92 -205 -115 -41 -23 -133 -74 -205 -115
-167 -94 -291 -162 -385 -212 -41 -22 -79 -44 -85 -48 -22 -18 -154 -80 -170
-80 -9 0 -30 14 -47 30 -28 28 -29 34 -23 83 6 52 18 118 35 192 5 22 17 72
25 110 30 132 38 160 92 300 86 223 166 375 281 536 31 45 64 91 72 102 89
132 296 336 484 477 26 19 52 40 59 45 59 50 355 214 457 254 183 71 310 114
380 127 41 8 116 23 165 34 50 11 131 25 180 31 117 15 417 14 525 -1 47 -7
94 -13 105 -15 11 -1 49 -9 85 -18 36 -9 85 -19 110 -22 65 -10 135 -29 215
-60 39 -14 104 -38 145 -52 41 -14 141 -59 223 -100 116 -59 154 -74 176 -70
25 5 168 81 361 192 79 46 242 136 330 183 36 19 76 42 90 50 14 9 94 53 178
99 353 192 514 281 612 337 57 33 83 33 109 0z"/>
<path d="M18698 13735 c-27 -15 -65 -86 -149 -280 -75 -170 -207 -420 -305
-577 -61 -97 -136 -215 -174 -273 -22 -33 -53 -82 -70 -110 -57 -96 -33 -168
74 -222 28 -14 87 -47 131 -73 44 -26 132 -76 195 -111 63 -34 156 -85 205
-112 50 -27 142 -77 205 -111 63 -34 147 -80 185 -102 137 -80 235 -134 239
-134 3 0 28 -14 56 -30 28 -17 79 -45 113 -64 58 -31 187 -103 392 -219 50
-28 113 -62 140 -75 28 -14 73 -41 100 -60 72 -52 237 -195 280 -245 21 -23
65 -65 99 -94 33 -28 96 -91 138 -140 155 -175 324 -379 357 -428 19 -27 53
-72 76 -100 47 -56 192 -271 220 -325 9 -19 25 -44 34 -55 38 -44 121 -184
209 -355 126 -242 180 -357 247 -525 37 -93 82 -206 100 -250 18 -44 39 -100
46 -125 7 -25 14 -49 15 -55 31 -111 100 -322 118 -360 28 -63 110 -191 145
-229 42 -46 157 -135 222 -171 33 -19 97 -47 142 -62 77 -26 93 -28 247 -28
157 0 169 1 245 29 104 37 174 74 260 138 74 54 1632 1600 1764 1750 141 160
231 383 231 571 0 54 -6 109 -15 134 -8 22 -16 53 -19 68 -24 133 -91 242
-336 544 -111 138 -426 464 -594 615 -149 135 -454 372 -616 481 -140 93 -260
165 -505 303 -91 51 -258 131 -390 187 -49 21 -115 49 -145 63 -65 29 -319
121 -405 147 -33 10 -114 35 -180 55 -112 36 -162 48 -260 66 -22 4 -44 9 -50
11 -29 10 -250 55 -310 64 -76 10 -137 23 -290 63 -55 14 -138 33 -185 41 -47
9 -116 27 -155 39 -38 13 -113 33 -165 46 -95 22 -227 63 -265 80 -11 5 -51
18 -90 29 -79 22 -229 73 -355 121 -47 18 -119 45 -160 61 -97 35 -304 122
-450 189 -63 29 -150 67 -193 86 -43 19 -109 50 -145 69 -132 68 -196 81 -254
50z m227 -194 c171 -85 545 -251 563 -251 6 0 48 -18 93 -40 46 -22 88 -40 94
-40 6 0 58 -18 116 -41 57 -23 131 -50 164 -61 33 -11 96 -32 140 -48 123 -43
390 -126 485 -150 47 -12 119 -32 161 -45 42 -14 96 -27 120 -30 24 -3 78 -15
119 -26 173 -44 325 -79 349 -79 29 0 181 -30 306 -59 44 -11 107 -24 140 -31
119 -22 632 -188 761 -245 32 -15 122 -54 199 -87 146 -62 331 -153 400 -197
22 -13 63 -37 90 -51 115 -62 189 -108 353 -217 95 -63 178 -120 185 -126 11
-11 51 -42 122 -97 237 -181 610 -531 772 -725 109 -130 124 -148 168 -205 22
-29 61 -78 88 -109 57 -67 134 -219 143 -281 3 -25 15 -75 25 -112 17 -66 17
-69 -2 -135 -10 -38 -19 -78 -19 -91 0 -40 -37 -130 -89 -215 -45 -73 -150
-181 -919 -947 -477 -476 -885 -878 -907 -893 -101 -72 -307 -147 -406 -147
-23 0 -78 7 -122 16 -276 56 -468 233 -546 504 -12 41 -31 102 -43 135 -11 33
-30 97 -43 142 -12 45 -36 112 -52 150 -34 77 -94 227 -130 323 -24 66 -93
216 -140 305 -14 28 -53 102 -85 165 -56 108 -162 288 -229 390 -148 224 -237
353 -272 397 -23 28 -56 71 -74 95 -114 154 -298 362 -504 567 -256 256 -386
364 -516 429 -32 16 -105 56 -163 89 -115 66 -205 115 -320 176 -41 22 -79 43
-85 47 -11 8 -441 248 -520 290 -95 50 -280 153 -340 188 -33 20 -78 45 -100
55 -67 33 -248 137 -282 163 -20 15 -33 34 -33 47 0 13 32 72 72 132 133 205
156 240 212 338 31 54 56 99 56 102 0 2 20 37 44 78 46 77 58 101 158 322 32
71 68 140 80 152 31 33 71 29 163 -16z"/>
<path d="M1975 5239 c-221 -20 -409 -111 -562 -273 -120 -127 -191 -264 -234
-455 -26 -114 -36 -391 -20 -525 47 -372 254 -654 571 -775 164 -63 429 -77
605 -32 175 45 335 150 435 287 81 108 170 324 156 377 -3 15 -16 32 -27 38
-40 21 -364 119 -395 119 -46 0 -61 -18 -89 -104 -33 -101 -66 -156 -123 -207
-80 -71 -179 -98 -286 -78 -230 41 -338 231 -338 593 0 250 45 392 156 494
132 121 358 127 489 12 43 -37 84 -102 98 -155 14 -48 42 -75 79 -75 17 0 115
20 219 45 170 42 189 48 200 71 6 14 11 37 11 51 0 36 -74 206 -120 272 -119
176 -333 295 -575 320 -104 11 -117 11 -250 0z m297 -134 c214 -38 375 -154
469 -338 24 -47 41 -88 38 -91 -3 -3 -60 -18 -127 -34 l-122 -29 -36 68 c-66
125 -186 209 -329 228 -182 25 -322 -17 -440 -129 -136 -131 -193 -340 -179
-651 12 -243 67 -405 173 -509 103 -101 237 -148 389 -137 131 10 232 60 319
160 31 35 103 172 103 195 0 25 28 22 141 -14 136 -43 130 -30 74 -151 -91
-195 -240 -319 -450 -374 -115 -30 -308 -30 -425 0 -272 70 -482 279 -559 558
-85 309 -33 714 118 930 186 264 495 381 843 318z"/>
<path d="M3912 5239 c-302 -29 -517 -153 -677 -391 -99 -145 -148 -301 -165
-521 -23 -284 13 -497 117 -699 132 -257 378 -423 693 -467 36 -5 128 -8 205
-6 199 4 319 34 478 117 64 34 104 66 187 148 139 139 201 250 252 455 21 81
23 114 23 325 0 224 -2 240 -28 338 -108 409 -401 659 -822 701 -119 12 -141
12 -263 0z m393 -149 c166 -41 323 -143 424 -276 69 -92 114 -187 148 -314 26
-98 27 -119 27 -300 0 -236 -17 -326 -96 -490 -46 -94 -60 -115 -147 -200
-110 -108 -187 -154 -322 -194 -299 -86 -625 -36 -841 131 -224 172 -339 493
-307 857 11 130 36 245 74 338 51 125 176 277 293 354 181 121 484 159 747 94z"/>
<path d="M3938 4910 c-174 -31 -326 -144 -398 -295 -60 -126 -73 -199 -74
-410 -1 -169 2 -200 22 -275 76 -279 289 -450 562 -450 224 0 407 114 504 312
70 142 93 313 75 541 -22 287 -169 494 -397 561 -65 19 -229 28 -294 16z m252
-136 c74 -21 129 -55 183 -113 96 -103 138 -240 138 -457 0 -343 -135 -549
-391 -595 -185 -33 -387 72 -469 244 -51 107 -65 183 -64 352 0 215 37 342
129 444 117 130 292 176 474 125z"/>
<path d="M7615 5238 c-237 -20 -424 -106 -571 -260 -121 -127 -194 -260 -242
-437 -25 -91 -26 -108 -26 -346 0 -239 1 -254 26 -345 98 -353 322 -578 663
-666 114 -29 311 -39 450 -23 421 50 723 341 802 773 26 139 23 419 -6 554
-41 193 -116 341 -239 473 -203 217 -490 309 -857 277z m251 -122 c88 -7 225
-46 306 -87 298 -150 458 -472 442 -884 -15 -368 -165 -635 -434 -774 -276
-143 -681 -124 -933 43 -115 76 -225 211 -280 341 -14 33 -35 101 -48 150 -22
81 -24 111 -23 295 0 189 3 213 27 303 47 178 125 309 253 426 79 72 172 122
290 156 82 23 244 44 304 39 14 -2 57 -5 96 -8z"/>
<path d="M7630 4909 c-74 -12 -204 -76 -264 -130 -129 -115 -192 -282 -200
-534 -10 -278 44 -455 181 -597 118 -122 257 -174 438 -165 273 14 466 185
532 472 27 120 24 409 -5 520 -59 219 -190 363 -382 419 -67 20 -225 28 -300
15z m260 -136 c75 -20 126 -52 186 -115 59 -62 86 -115 115 -223 31 -115 31
-345 0 -460 -55 -205 -154 -311 -332 -357 -75 -19 -92 -20 -163 -10 -103 15
-174 49 -245 117 -93 88 -141 198 -160 361 -15 139 0 295 40 411 79 231 308
344 559 276z"/>
<path d="M14315 5239 c-238 -23 -422 -106 -580 -263 -194 -193 -287 -440 -287
-761 0 -232 31 -373 119 -553 142 -290 395 -459 752 -502 106 -13 263 -9 378
10 219 36 491 158 621 279 l32 30 0 405 c0 393 -1 407 -20 426 -19 19 -33 20
-455 20 -422 0 -436 -1 -455 -20 -19 -19 -20 -33 -20 -200 0 -239 -20 -220
240 -220 l200 0 0 -74 c0 -84 -2 -87 -105 -139 -170 -85 -359 -95 -501 -26
-102 49 -189 156 -229 282 -66 208 -51 474 36 638 72 135 223 220 393 221 184
1 303 -69 372 -219 21 -45 40 -74 53 -78 11 -3 112 11 223 32 237 44 243 47
235 128 -12 118 -113 295 -224 394 -71 63 -211 134 -318 161 -79 20 -264 41
-340 39 -22 -1 -76 -5 -120 -10z m272 -123 c92 -7 229 -44 303 -81 114 -58
229 -187 278 -311 l20 -51 -116 -21 c-64 -12 -125 -22 -134 -22 -11 0 -27 19
-43 49 -57 114 -200 210 -340 229 -380 53 -654 -154 -705 -531 -31 -233 8
-479 101 -633 45 -75 143 -165 221 -203 134 -66 329 -78 483 -31 86 27 235
102 275 140 l30 28 0 146 c0 199 17 186 -240 186 l-200 0 0 100 0 100 355 0
355 0 -2 -337 -3 -337 -50 -39 c-27 -21 -95 -60 -150 -86 -235 -114 -468 -156
-692 -127 -381 50 -625 258 -723 616 -29 105 -41 195 -41 308 -1 514 311 875
786 911 50 3 104 6 120 5 17 -1 67 -5 112 -8z"/>
<path d="M19022 5239 c-242 -23 -412 -101 -564 -257 -210 -216 -294 -468 -282
-847 6 -209 40 -350 120 -505 125 -241 342 -398 639 -462 78 -16 371 -16 450
1 133 28 264 81 363 149 77 52 196 178 244 259 109 184 149 350 149 623 0 301
-57 499 -197 686 -159 211 -374 325 -668 353 -120 12 -132 12 -254 0z m250
-124 c289 -22 544 -197 660 -453 102 -224 117 -586 36 -835 -44 -138 -108
-236 -217 -340 -151 -142 -338 -209 -586 -210 -296 -1 -522 96 -675 289 -136
171 -194 365 -192 639 3 304 77 507 250 687 106 110 210 167 377 207 56 13
206 28 245 25 14 -2 60 -5 102 -9z"/>
<path d="M19054 4911 c-226 -36 -389 -193 -456 -440 -18 -64 -21 -105 -21
-266 -1 -218 13 -291 80 -425 91 -182 287 -300 498 -300 276 0 489 168 559
438 41 155 41 419 1 573 -51 195 -195 351 -372 403 -65 18 -220 27 -289 17z
m247 -137 c212 -63 321 -256 321 -569 0 -343 -136 -550 -391 -596 -180 -32
-381 69 -464 232 -52 104 -70 198 -70 364 0 165 18 256 68 354 50 100 142 179
244 212 73 23 218 25 292 3z"/>
<path d="M21096 5240 c-129 -12 -258 -49 -371 -108 -180 -94 -348 -300 -416
-511 -48 -150 -62 -267 -56 -481 6 -218 29 -326 101 -477 57 -118 104 -181
207 -276 100 -94 234 -164 384 -203 83 -21 125 -26 250 -27 83 -1 179 1 215 5
221 26 445 146 585 315 81 97 158 260 192 403 24 103 27 135 27 305 1 118 -4
219 -13 265 -20 111 -71 257 -122 345 -55 98 -178 230 -272 292 -185 123 -435
177 -711 153z m298 -131 c107 -14 250 -67 334 -123 232 -154 356 -408 367
-751 12 -409 -147 -721 -443 -870 -254 -127 -629 -119 -878 20 -33 19 -93 64
-133 101 -121 112 -190 231 -238 410 -24 89 -26 117 -27 284 -1 274 37 426
148 594 138 207 342 323 606 344 104 8 145 7 264 -9z"/>
<path d="M21130 4909 c-148 -21 -287 -107 -365 -225 -85 -128 -117 -259 -117
-484 0 -218 29 -341 111 -466 231 -358 785 -332 975 45 67 133 80 198 80 426
0 174 -3 210 -22 278 -50 180 -148 306 -294 375 -46 22 -101 43 -123 47 -62
11 -184 13 -245 4z m250 -139 c219 -64 337 -297 317 -625 -12 -192 -60 -320
-156 -415 -163 -163 -427 -169 -599 -15 -121 108 -173 258 -173 489 0 240 64
407 193 502 119 87 263 110 418 64z"/>
<path d="M8941 5191 l-21 -21 2 -981 c3 -958 3 -981 22 -995 16 -11 63 -14
218 -14 174 0 201 2 228 18 16 10 27 22 23 25 -3 4 -1 7 6 7 9 0 11 88 9 375
l-3 375 46 0 c75 0 151 -18 192 -47 50 -35 113 -120 335 -450 100 -149 192
-279 204 -287 17 -12 63 -15 262 -15 232 0 241 0 263 21 13 12 23 33 23 48 0
17 -56 116 -156 276 -189 302 -250 388 -331 467 l-62 61 90 44 c202 99 308
278 309 518 0 287 -151 492 -417 566 -75 21 -100 22 -650 26 -568 3 -572 3
-592 -17z m1204 -129 c185 -51 283 -158 323 -351 42 -203 -51 -408 -223 -496
-31 -15 -98 -39 -148 -51 -94 -24 -117 -40 -117 -79 0 -29 14 -44 90 -97 76
-53 157 -137 222 -228 38 -54 288 -447 288 -453 0 -3 -312 2 -315 5 -1 2 -80
120 -176 263 -270 404 -308 449 -416 497 -40 18 -72 22 -188 26 -133 4 -141 3
-163 -18 l-22 -21 2 -377 3 -377 -132 3 -133 3 0 890 0 890 513 -3 c491 -4
515 -5 592 -26z"/>
<path d="M9333 4884 c-7 -3 -13 -12 -13 -20 0 -8 -5 -14 -10 -14 -8 0 -10 -84
-8 -261 l3 -261 25 -20 c23 -19 37 -20 340 -16 303 3 317 4 365 26 112 51 165
137 165 268 0 48 -6 99 -15 125 -20 57 -84 122 -149 151 -50 22 -60 23 -371
25 -176 1 -326 0 -332 -3z m607 -125 c62 -13 114 -56 131 -106 15 -47 6 -128
-18 -161 -54 -72 -113 -84 -411 -80 l-214 3 -1 177 -2 178 232 0 c131 0 254
-5 283 -11z"/>
<path d="M10850 5190 c-20 -20 -20 -33 -20 -990 l0 -971 25 -24 c24 -25 25
-25 230 -25 205 0 206 0 230 25 l25 24 0 971 c0 957 0 970 -20 990 -19 19 -33
20 -235 20 -202 0 -216 -1 -235 -20z m370 -988 c0 -489 -2 -891 -4 -893 -2 -2
-63 -3 -135 -1 l-131 3 0 890 0 889 135 0 135 0 0 -888z"/>
<path d="M11610 5190 c-20 -20 -20 -33 -20 -993 l0 -974 23 -21 c22 -21 30
-22 220 -19 173 2 198 4 214 20 17 16 18 56 23 536 l5 519 324 -524 c178 -288
331 -530 339 -536 11 -10 72 -13 229 -13 214 0 215 0 234 24 18 22 19 53 19
992 0 956 0 969 -20 989 -19 19 -33 20 -217 20 -109 0 -203 -4 -209 -8 -33
-22 -35 -50 -34 -564 0 -282 0 -517 0 -522 0 -5 -149 233 -330 530 -182 296
-338 545 -347 552 -12 9 -74 12 -225 12 -195 0 -209 -1 -228 -20z m757 -719
c241 -395 385 -622 398 -626 38 -13 66 -14 59 -3 -5 7 -2 9 8 6 36 -14 37 16
35 636 l-2 606 118 0 117 0 0 -890 c0 -705 -3 -890 -12 -891 -7 0 -71 0 -142
-1 -95 0 -132 4 -141 14 -6 7 -175 279 -375 603 -199 325 -370 596 -378 603
-23 18 -59 15 -82 -8 -20 -20 -20 -33 -20 -617 l0 -598 -120 0 -120 0 0 893 0
892 139 0 139 0 379 -619z"/>
<path d="M16351 5191 c-21 -21 -21 -23 -21 -993 0 -535 4 -978 8 -984 23 -35
45 -36 591 -31 430 4 554 9 626 22 227 40 382 173 458 393 25 74 29 99 29 196
0 221 -76 353 -271 473 -2 1 19 27 47 58 99 108 138 223 130 387 -4 88 -9 105
-46 182 -71 148 -189 245 -357 293 -52 14 -130 17 -617 21 -552 3 -557 3 -577
-17z m1154 -125 c91 -26 144 -56 201 -113 188 -187 154 -476 -74 -617 -23 -15
-48 -37 -54 -51 -15 -34 -2 -74 30 -87 152 -61 225 -122 275 -228 95 -200 -1
-485 -200 -592 -113 -62 -201 -69 -815 -71 l-418 -2 0 893 0 894 498 -4 c433
-4 505 -7 557 -22z"/>
<path d="M16754 4887 c-17 -8 -34 -22 -38 -32 -3 -9 -6 -120 -6 -246 l0 -230
25 -25 25 -25 288 4 c315 5 352 11 428 66 22 17 53 54 70 83 26 47 29 62 28
138 0 100 -19 145 -83 203 -67 60 -109 68 -426 73 -229 4 -286 2 -311 -9z
m594 -128 c50 -14 102 -67 103 -107 4 -107 -29 -158 -121 -183 -48 -13 -455
-24 -483 -13 -15 5 -17 25 -17 159 0 93 4 155 10 157 27 9 469 -2 508 -13z"/>
<path d="M16731 4121 c-20 -20 -21 -29 -21 -296 0 -264 1 -276 20 -295 20 -20
30 -21 358 -18 327 3 338 4 388 26 61 28 127 92 149 146 9 21 19 69 22 105 14
170 -81 296 -252 331 -27 6 -183 13 -346 17 -293 6 -297 5 -318 -16z m529
-111 c53 -4 115 -14 139 -21 129 -38 169 -204 73 -300 -53 -52 -99 -59 -392
-59 l-250 0 0 195 0 196 168 -2 c92 0 210 -5 262 -9z"/>
<path d="M22421 5181 c-21 -29 -21 -34 -21 -988 1 -1024 -1 -988 48 -1002 9
-3 107 -6 217 -7 162 -2 204 1 220 12 19 14 20 29 23 307 l3 293 119 119 c66
65 121 117 123 115 3 -3 112 -189 243 -413 178 -305 246 -412 267 -423 21 -12
78 -14 276 -14 137 1 252 4 256 8 4 4 12 7 18 7 19 0 32 52 21 83 -6 15 -171
274 -367 576 l-357 548 217 225 c507 522 501 515 453 563 -19 19 -33 20 -302
20 l-282 0 -49 -52 c-27 -29 -180 -196 -340 -371 l-292 -317 -5 356 c-5 337
-6 356 -24 370 -16 11 -65 14 -232 14 l-213 0 -20 -29z m369 -491 c0 -387 1
-401 20 -420 11 -11 32 -20 47 -20 32 0 2 -30 473 484 l325 355 168 0 169 1
-27 -32 c-15 -18 -95 -103 -178 -188 -437 -447 -417 -425 -417 -457 0 -23 81
-154 328 -534 180 -277 337 -520 349 -539 l22 -35 -162 2 c-89 2 -167 3 -173
3 -7 0 -128 198 -269 440 -266 454 -271 462 -322 446 -10 -3 -94 -82 -186
-174 l-167 -168 0 -272 c0 -265 0 -272 -20 -272 -11 -1 -70 -1 -130 -1 l-110
0 -3 890 -2 891 133 0 132 0 0 -400z"/>
<path d="M5245 5174 l-24 -26 -1 -954 c0 -653 3 -961 10 -974 6 -11 17 -20 25
-20 8 0 15 -4 15 -10 0 -7 235 -10 685 -10 l686 0 24 25 c25 24 25 26 25 205
0 167 -1 181 -20 200 -19 19 -33 20 -480 20 l-460 0 0 765 c0 752 0 765 -20
785 -19 19 -33 20 -230 20 l-211 0 -24 -26z m365 -859 c0 -752 0 -765 20 -785
19 -19 33 -20 480 -20 l460 0 0 -100 0 -100 -612 -2 -613 -3 2 880 c1 484 3
883 3 888 0 4 59 7 130 7 l130 0 0 -765z"/>
</g>
</svg>
